<svg id="Layer_1" data-name="Layer 1" xmlns="http://www.w3.org/2000/svg" viewBox="0 0 283.465 283.465"><title>logo</title><rect width="283.465" height="283.465"/><path d="M28.788,142.444V125.858q16.112,0,22.509-6.587t6.4-21.466V73.638q0-16.014,4.028-26.252a35.006,35.006,0,0,1,11.8-15.922,47.271,47.271,0,0,1,18.955-7.913,130.825,130.825,0,0,1,25.4-2.228V47.67q-11.184,0-17.154,3.081a16.322,16.322,0,0,0-8.2,9.43Q90.3,66.531,90.3,76.387v31.085a37.387,37.387,0,0,1-2.465,13.648,25.154,25.154,0,0,1-9,11.135q-6.539,4.786-18.622,7.487T28.788,142.444Zm0,15.257V125.858H58.831V157.7Zm89.087,104.44a130.909,130.909,0,0,1-25.4-2.227A47.285,47.285,0,0,1,73.521,252a35.006,35.006,0,0,1-11.8-15.922q-4.029-10.236-4.028-26.252V185.754q0-14.877-6.4-21.465T28.788,157.7V141.116q19.333,0,31.418,2.7T78.828,151.3a25.167,25.167,0,0,1,9,11.136A37.134,37.134,0,0,1,90.3,175.993v31.086q0,9.856,2.227,16.2a16.508,16.508,0,0,0,8.2,9.477q5.97,3.128,17.154,3.128Z" style="fill:#fff"/><path d="M141.733,156.754a20.319,20.319,0,0,1-14.785-6.065,19.637,19.637,0,0,1-6.065-14.785,19.417,19.417,0,0,1,6.065-14.595,20.761,20.761,0,0,1,29.332,0,20.007,20.007,0,0,1,6.3,14.6,20.479,20.479,0,0,1-2.986,10.52,21.9,21.9,0,0,1-7.581,7.534A19.71,19.71,0,0,1,141.733,156.754Z" style="fill:#fff"/><path d="M165.59,21.323a130.865,130.865,0,0,1,25.4,2.228,47.3,47.3,0,0,1,18.955,7.913,35.042,35.042,0,0,1,11.8,15.922q4.026,10.236,4.028,26.252V97.805q0,14.88,6.4,21.466t22.508,6.587v16.586q-19.333,0-31.417-2.7t-18.624-7.487a25.154,25.154,0,0,1-9-11.135,37.386,37.386,0,0,1-2.463-13.648V76.387q0-9.856-2.227-16.206a16.331,16.331,0,0,0-8.2-9.43q-5.971-3.079-17.154-3.081Zm89.087,119.793V157.7q-16.113,0-22.508,6.588t-6.4,21.465v24.073q0,16.017-4.028,26.252A35.042,35.042,0,0,1,209.945,252a47.316,47.316,0,0,1-18.955,7.913,130.948,130.948,0,0,1-25.4,2.227V235.889q11.182,0,17.154-3.128a16.517,16.517,0,0,0,8.2-9.477q2.224-6.346,2.227-16.2V175.993a37.133,37.133,0,0,1,2.463-13.553,25.167,25.167,0,0,1,9-11.136q6.542-4.783,18.624-7.486T254.677,141.116Zm0-15.258V157.7H224.634V125.858Z" style="fill:#fff"/></svg>