<?xml version="1.0" encoding="UTF-8"?>
<svg width="50px" height="50px" viewBox="0 0 50 50" version="1.1" xmlns="http://www.w3.org/2000/svg" xmlns:xlink="http://www.w3.org/1999/xlink">
    <!-- Generator: Sketch 58 (84663) - https://sketch.com -->
    <title>digital_transformation</title>
    <desc>Created with Sketch.</desc>
    <g id="new_version" stroke="none" stroke-width="1" fill="none" fill-rule="evenodd">
        <g id="Homepage_final-Copy-4" transform="translate(-570.000000, -972.000000)" fill="#5192f2" fill-rule="nonzero">
            <g id="digital_transformation" transform="translate(570.000000, 972.000000)">
                <path d="M43.68066,44.12793 L39.32129,44.12793 C38.972074,42.7909139 38.4397015,41.5085927 37.73929,40.31738 L40.82229,37.23338 C40.9629699,37.0927647 41.0420084,36.9020107 41.0420084,36.703105 C41.0420084,36.5041993 40.9629699,36.3134453 40.82229,36.17283 L36.46779,31.81834 C36.327179,31.6776558 36.1364257,31.5986142 35.93752,31.5986142 C35.7386143,31.5986142 35.547861,31.6776558 35.40725,31.81834 L32.32325,34.90134 C31.1317501,34.2005752 29.8491058,33.6678675 28.51173,33.31834 L28.51173,28.959 C28.5116196,28.5448322 28.1758978,28.209 27.76173,28.209 L21.59961,28.209 C21.1854422,28.209 20.8497204,28.5448322 20.84961,28.959 L20.84961,33.31838 C19.5123538,33.6682628 18.2297572,34.2009507 17.03809,34.90138 L13.95509,31.81838 C13.8144773,31.6776952 13.6237223,31.5986533 13.424815,31.5986533 C13.2259077,31.5986533 13.0351527,31.6776952 12.89454,31.81838 L8.54,36.17285 C8.39931524,36.3134627 8.3202733,36.5042177 8.3202733,36.703125 C8.3202733,36.9020323 8.39931524,37.0927873 8.54,37.2334 L11.623,40.3174 C10.9226741,41.5087748 10.3899897,42.7910366 10.04,44.12795 L5.68066,44.12795 C5.26649218,44.1280604 4.93066,44.4637822 4.93066,44.87795 L4.93066,49.75 L6.43066,49.75 L6.43066,45.62793 L10.63086,45.62793 C10.9830455,45.6281404 11.2878527,45.3830737 11.36328,45.03906 C11.7089568,43.4653606 12.3319506,41.9657416 13.20312,40.61035 C13.3935138,40.3135895 13.3516626,39.9243086 13.10254,39.6748 L10.13086,36.70312 L13.4248,33.40918 L16.39648,36.38086 C16.6458111,36.6303517 17.0353604,36.672236 17.33203,36.48145 C18.6869819,35.6094393 20.186756,34.9863777 21.76074,34.6416 C22.1047537,34.5661727 22.3498204,34.2613655 22.34961,33.90918 L22.34961,29.709 L27.01172,29.709 L27.01172,33.9092 C27.0115096,34.2613855 27.2565763,34.5661927 27.60059,34.64162 C29.1745497,34.9864748 30.6743106,35.6095309 32.0293,36.48147 C32.3259664,36.6722544 32.7155122,36.6303701 32.96484,36.38088 L35.9375,33.4092 L39.2315,36.70314 L36.25977,39.6748 C36.0106406,39.9243043 35.9687849,40.3135881 36.15918,40.61035 C37.0305083,41.9651969 37.653215,43.4645869 37.99805,45.03809 C38.0730359,45.3825188 38.3779731,45.628094 38.73047,45.62793 L42.93066,45.62793 L42.93066,49.75 L44.43066,49.75 L44.43066,44.87793 C44.43066,44.4637599 44.0948301,44.1280349 43.68066,44.12793 L43.68066,44.12793 Z M24.68066,38.77246 C18.6387857,38.779443 13.742772,43.6758951 13.73633,49.71777 L15.23633,49.71777 C15.2328556,46.3411442 17.0322688,43.2195257 19.9559348,41.5302091 C22.8796008,39.8408924 26.4827092,39.8408924 29.4063752,41.5302091 C32.3300412,43.2195257 34.1294544,46.3411442 34.12598,49.71777 L35.62598,49.71777 C35.619064,43.6757053 30.7227247,38.7793705 24.68066,38.77246 L24.68066,38.77246 Z M23.93066,7.42413 L23.93066,26.75 L25.43066,26.75 L25.43066,7.42413 C27.3168824,7.03910646 28.6051622,5.28835597 28.4116706,3.37298678 C28.218179,1.45761759 26.6057777,-0.000104614175 24.68066,-0.000104614175 C22.7555423,-0.000104614175 21.143141,1.45761759 20.9496494,3.37298678 C20.7561578,5.28835597 22.0444376,7.03910646 23.93066,7.42413 Z M24.68066,1.5 C25.9233007,1.5 26.93066,2.50735931 26.93066,3.75 C26.93066,4.99264069 25.9233007,6 24.68066,6 C23.4380193,6 22.43066,4.99264069 22.43066,3.75 C22.4323621,2.50806502 23.438725,1.50170209 24.68066,1.5 L24.68066,1.5 Z M45.68066,15.5 C43.6106726,15.502606 41.933266,17.1800126 41.93066,19.25 C41.9339019,20.076161 42.2126319,20.8776357 42.72272,21.52753 L37.18262,27.93945 C37.064663,28.0755197 36.9998123,28.2496101 36.9999996,28.42969 L36.9999996,30.5 L38.4999996,30.5 L38.4999996,28.709 L43.85846,22.50692 C44.413066,22.8259331 45.0408634,22.9958125 45.68066,23 C47.7517278,23 49.43066,21.3210678 49.43066,19.25 C49.43066,17.1789322 47.7517278,15.5 45.68066,15.5 L45.68066,15.5 Z M45.68066,21.5 C44.4380193,21.5 43.43066,20.4926407 43.43066,19.25 C43.43066,18.0073593 44.4380193,17 45.68066,17 C46.9233007,17 47.93066,18.0073593 47.93066,19.25 C47.9289579,20.491935 46.922595,21.4982979 45.68066,21.5 L45.68066,21.5 Z M33.93066,21.06055 L38.71094,16.28027 C38.8516472,16.1396749 38.9306912,15.9489108 38.93066,15.75 L38.93066,10.42413 C40.8168824,10.0391065 42.1051622,8.28835597 41.9116706,6.37298678 C41.718179,4.45761759 40.1057777,2.99989539 38.18066,2.99989539 C36.2555423,2.99989539 34.643141,4.45761759 34.4496494,6.37298678 C34.2561578,8.28835597 35.5444376,10.0391065 37.43066,10.42413 L37.43066,15.43945 L32.65039,20.21973 C32.5096801,20.3603241 32.43066,20.551088 32.43066,20.75 L32.43066,28.75 L33.93066,28.75 L33.93066,21.06055 Z M35.9306388,6.75 C35.9257304,5.60454803 36.7821415,4.63822547 37.919886,4.50547748 C39.0576305,4.37272949 40.1135031,5.11593357 40.3724106,6.23175229 C40.6313181,7.34757102 40.0106087,8.47979853 38.93066,8.86163 L38.93066,8.75 L37.43066,8.75 L37.43066,8.86163 C36.5344599,8.54573285 35.9338624,7.7002396 35.9306388,6.75 L35.9306388,6.75 Z M10.43066,10.42316 L10.43066,15.749 C10.4306343,15.9479146 10.5096814,16.138681 10.65039,16.27928 L15.43066,21.06053 L15.43066,28.75 L16.93066,28.75 L16.93066,20.75 C16.93066,20.5510892 16.8516472,20.3603251 16.71094,20.21973 L11.93066,15.43848 L11.93066,10.42365 C13.6764243,10.0673211 14.9304055,8.53175846 14.93066,6.75 C14.9312255,4.77641887 13.4019955,3.14015941 11.4328834,3.00741724 C9.46377137,2.87467507 7.72876765,4.29088536 7.46444493,6.24668604 C7.20012221,8.20248672 8.49695324,10.0284437 10.43066,10.42316 L10.43066,10.42316 Z M11.18066,4.49899266 C12.0908114,4.49920073 12.9112492,5.04758422 13.2594546,5.88849363 C13.60766,6.72940303 13.4150711,7.69726257 12.77148,8.34082 C12.5340489,8.57597078 12.2466472,8.75455345 11.93066,8.86328 L11.93066,8.749 L10.43066,8.749 L10.43066,8.86064 C9.39771412,8.49752801 8.77754316,7.44205695 8.96309372,6.36298397 C9.14864428,5.28391098 10.0857537,4.49622 11.18066,4.49899266 L11.18066,4.49899266 Z M10.93066,28.70902 L10.93066,30.5 L12.4306604,30.5 L12.4306604,28.42969 C12.4308459,28.2496122 12.3659995,28.0755235 12.24805,27.93945 L6.70862,21.52631 C7.21828756,20.8767001 7.49677036,20.0756776 7.5,19.25 C7.50040449,17.7331756 6.58700282,16.3654827 5.18575592,15.7847388 C3.78450902,15.203995 2.17140317,15.5245822 1.09870333,16.596996 C0.0260034861,17.6694098 -0.295013923,19.2824301 0.285356185,20.6838318 C0.865726293,22.0852335 2.23317559,22.9989999 3.75,22.999 C4.39005812,22.9948238 5.01811373,22.8248746 5.57294,22.50572 L10.93066,28.70902 Z M3.75,21.499 C2.83986897,21.499 2.01937413,20.9506967 1.67117555,20.1098066 C1.32297698,19.2689164 1.51566078,18.3010729 2.15936364,17.6576561 C2.80306649,17.0142394 3.77099558,16.8219858 4.61173086,17.1705582 C5.45246614,17.5191306 6.0004045,18.3398691 6.00000022,19.25 C5.9977474,20.4915444 4.99154531,21.4972993 3.75,21.499 Z" id="Shape"></path>
            </g>
        </g>
    </g>
</svg>