<?xml version="1.0" encoding="UTF-8"?>
<svg width="50px" height="50px" viewBox="0 0 50 50" version="1.1" xmlns="http://www.w3.org/2000/svg" xmlns:xlink="http://www.w3.org/1999/xlink">
    <!-- Generator: Sketch 58 (84663) - https://sketch.com -->
    <title>environment</title>
    <desc>Created with Sketch.</desc>
    <g id="new_version" stroke="none" stroke-width="1" fill="none" fill-rule="evenodd">
        <g id="Homepage_final-Copy-4" transform="translate(-1011.000000, -1249.000000)" fill="#5192f2" fill-rule="nonzero">
            <g id="environment" transform="translate(1011.000000, 1249.000000)">
                <path d="M49.172,29.62646 L43.38,19.59521 C42.6201877,18.2809406 40.9390741,17.831047 39.6243938,18.5901481 C38.3097134,19.3492492 37.8589103,21.0301191 38.6173,22.34521 L40.866,26.23914 C40.3140149,26.7554355 40.0002389,27.4771009 39.99912,28.23291 L39.99912,32.26221 C38.83799,32.85205 35.99912,34.52295 35.99912,36.73291 L35.99912,41.98291 L35.74912,41.98291 C35.3349522,41.9830204 34.99912,42.3187422 34.99912,42.73291 L34.99912,48.73291 C34.99912,49.1470778 35.3349522,49.48291 35.74912,49.48291 L46.74912,49.48291 C47.1632878,49.48291 47.4990096,49.1470778 47.49912,48.73291 L47.49912,42.73291 C47.4985307,42.3230681 47.1687034,41.9897787 46.75889,41.98491 L49.53818,32.80132 C49.8589424,31.7377989 49.7264472,30.5890368 49.172,29.62646 Z M45.99911,47.98291 L36.49911,47.98291 L36.49911,43.48291 L45.99911,43.48291 L45.99911,47.98291 Z M48.10263,32.36768 L45.19247,41.98291 L37.49911,41.98291 L37.49911,36.73291 C37.49911,35.33154 40.1329,33.83252 41.05575,33.41748 C41.3252796,33.2963097 41.4987753,33.0284237 41.49911,32.73291 L41.49911,28.23291 C41.49911,27.5425541 42.0587541,26.98291 42.74911,26.98291 C43.4394659,26.98291 43.99911,27.5425541 43.99911,28.23291 L43.99911,35.73291 L45.49911,35.73291 L45.49911,28.23291 C45.4988754,27.406254 45.1268878,26.6235312 44.4860713,26.1013104 C43.8452549,25.5790897 43.0035591,25.3727453 42.19387,25.53937 L39.9161,21.59521 C39.7501136,21.3080326 39.7051177,20.9666432 39.791027,20.6462654 C39.8769362,20.3258875 40.0867008,20.0528121 40.3741,19.88721 C40.6611363,19.721319 41.0023583,19.6763769 41.3225594,19.7622891 C41.6427606,19.8482013 41.9156565,20.0579155 42.0811,20.34521 L47.8731,30.37646 C48.2203498,30.9803383 48.303379,31.7006333 48.10263,32.36768 L48.10263,32.36768 Z M13.74911,41.98291 L13.49911,41.98291 L13.49911,36.73291 C13.49911,34.52291 10.66024,32.85205 9.49911,32.26221 L9.49911,28.23291 C9.49739248,27.5435633 9.23508255,26.8803601 8.7648,26.37634 L11.09188,22.34521 C11.5853082,21.4942975 11.5866494,20.444628 11.0953973,19.5924573 C10.6041452,18.7402867 9.69512542,18.2154143 8.71149789,18.2159819 C7.72787036,18.2165505 6.81945745,18.7424725 6.32919,19.59521 L0.53817,29.62646 C-0.0161030418,30.5894011 -0.148926199,31.738238 0.171,32.80225 L2.95029,41.98291 L2.74911,41.98291 C2.33494218,41.9830204 1.9992204,42.3187422 1.99911,42.73291 L1.99911,48.73291 C1.9992204,49.1470778 2.33494218,49.48291 2.74911,49.48291 L13.74911,49.48291 C14.1632778,49.48291 14.49911,49.1470778 14.49911,48.73291 L14.49911,42.73291 C14.49911,42.3187422 14.1632778,41.9830204 13.74911,41.98291 Z M1.60653,32.36768 C1.4056632,31.700541 1.4890519,30.9800774 1.837,30.37646 L7.628,20.34521 C7.793345,20.0573094 8.06687716,19.8474152 8.38776,19.76221 C8.87615508,19.6316176 9.39512874,19.8080585 9.70272055,20.2092709 C10.0103124,20.6104833 10.0459586,21.15747 9.79304,21.59521 L7.48389,25.59521 C7.24526583,25.5242557 6.99801439,25.4864681 6.74909,25.48291 C5.23094669,25.4844534 4.00063339,26.7147667 3.99909,28.23291 L3.99909,35.73291 L5.49909,35.73291 L5.49909,28.23291 C5.49909,27.5425541 6.05873406,26.98291 6.74909,26.98291 C7.43944594,26.98291 7.99909,27.5425541 7.99909,28.23291 L7.99909,32.73291 C7.99942474,33.0284237 8.17292042,33.2963097 8.44245,33.41748 C9.3653,33.83248 11.99909,35.33154 11.99909,36.73291 L11.99909,41.98291 L4.51767,41.98291 L1.60653,32.36768 Z M12.99911,47.98291 L3.49911,47.98291 L3.49911,43.48291 L12.99911,43.48291 L12.99911,47.98291 Z M25.35165,0.28564 C25.203825,0.104855854 24.9826376,-3.03233364e-07 24.74911,-3.03233364e-07 C24.5155824,-3.03233364e-07 24.294395,0.104855854 24.14657,0.28564 C23.73251,0.84424 13.99911,14.02783 13.99911,19.73291 C14.0080685,25.373277 18.3726732,30.0486416 23.99911,30.44491 L23.99911,49.73291 L25.49911,49.73291 L25.49911,30.445 C31.1255468,30.0487316 35.4901515,25.373367 35.49911,19.733 C35.49911,14.02783 25.76571,0.84424 25.35165,0.28564 Z M25.49911,28.94492 L25.49911,26.54346 L30.27938,21.76318 L29.21884,20.70264 L25.49911,24.42236 L25.49911,18.54346 L29.21005,14.83252 L28.1495,13.772 L25.49911,16.42239 L25.49911,11.79349 L23.99911,11.79349 L23.99911,16.4917 L21.27938,13.772 L20.21884,14.83255 L23.99911,18.61282 L23.99911,24.42239 L20.27938,20.70267 L19.21884,21.76321 L23.99911,26.54349 L23.99911,28.94492 C19.2015732,28.5513704 15.5063022,24.5465661 15.49911,19.73292 C15.49911,15.28272 22.60751,5.00636 24.74911,2.01124 C26.89071,5.00538 33.99911,15.28175 33.99911,19.73292 C33.9919022,24.5465546 30.2966353,28.5513413 25.49911,28.94492 Z" id="Shape"></path>
            </g>
        </g>
    </g>
</svg>