<?xml version="1.0" encoding="UTF-8"?>
<svg width="49px" height="50px" viewBox="0 0 49 50" version="1.1" xmlns="http://www.w3.org/2000/svg" xmlns:xlink="http://www.w3.org/1999/xlink">
    <!-- Generator: Sketch 58 (84663) - https://sketch.com -->
    <title>fast_adaption</title>
    <desc>Created with Sketch.</desc>
    <g id="new_version" stroke="none" stroke-width="1" fill="none" fill-rule="evenodd">
        <g id="Homepage_final-Copy-4" transform="translate(-570.000000, -2411.000000)" fill="#5192F2" fill-rule="nonzero">
            <g id="fast_adaption" transform="translate(594.500000, 2436.000000) scale(-1, 1) translate(-594.500000, -2436.000000) translate(570.000000, 2411.000000)">
                <path d="M36.7158627,28.9897451 C36.6505594,28.1970949 36.2398215,27.4733205 35.5928137,27.0107843 C34.9924845,26.5897685 34.2436908,26.4383872 33.5269608,26.5931373 L25.8133725,17.9153137 L12.0997843,0.283598039 C11.8502085,-0.0368326837 11.3881268,-0.0942719073 11.0676961,0.155303941 C10.7472654,0.404879789 10.6898261,0.866961417 10.939402,1.18739216 L24.5007549,18.6234608 C24.611821,20.4499328 23.8820159,22.2270043 22.5193235,23.4482353 C20.2998627,25.2147255 16.8099608,24.7471471 15.8594314,24.5778039 L1.32312745,5.19607843 C1.16544023,4.98606055 0.90768802,4.87612117 0.646963591,4.90767337 C0.386239163,4.93922557 0.162152756,5.10747584 0.0591155522,5.34904592 C-0.0439216521,5.590616 -0.0102558515,5.86880565 0.147431373,6.07882353 L14.6408824,25.403451 L11.4382353,37.7567843 C5.15711765,38.0105588 3.21578431,42.4208922 2.66347059,44.3525294 C1.4746244,44.8338176 0.794296862,46.0908018 1.04148927,47.3493285 C1.28868167,48.6078552 2.39390423,49.5146137 3.67647059,49.51 L15.7561471,49.51 C16.559176,49.5477737 17.3560409,49.3529642 18.0510686,48.9489608 C18.1183654,48.9136442 18.1800042,48.8684651 18.2339412,48.8149216 L35.9346176,31.1132941 C36.4946427,30.5547736 36.7804,29.7780396 36.7158627,28.9897451 Z M12.0098039,39.2158824 C12.3446797,39.2159608 12.6372279,38.9895603 12.7211569,38.6653725 L13.676598,34.9808235 L18.1152255,36.7141569 C18.2967476,36.7854382 18.4991874,36.7814729 18.6777789,36.7031378 C18.8563704,36.6248027 18.9963997,36.4785516 19.066902,36.2967255 C19.1379897,36.1151887 19.1339295,35.9128278 19.0556173,35.7342886 C18.9773051,35.5557493 18.8311764,35.4157037 18.6494706,35.345049 L14.0480392,33.5481765 L14.9209608,30.1819608 L19.0955784,31.8122059 C19.2771006,31.8834872 19.4795403,31.8795219 19.6581318,31.8011868 C19.8367233,31.7228517 19.9767527,31.5766007 20.0472549,31.3947745 C20.1183426,31.2132377 20.1142825,31.0108769 20.0359703,30.8323376 C19.9576581,30.6537983 19.8115293,30.5137527 19.6298235,30.443098 L15.2924608,28.7493137 L15.982098,26.0897353 C17.4689608,26.3118529 20.9654314,26.5588725 23.4288725,24.6038333 C24.7781596,23.4934002 25.6452045,21.9037564 25.8482549,20.1681275 L32.1667647,27.2759706 C32.1282353,27.3106765 32.085451,27.3384412 32.0484706,27.375549 L16.020402,43.4026569 C15.5613166,43.8591905 14.9406663,44.1161883 14.2932255,44.1178431 L4.26796078,44.1178431 C4.9374902,42.2900196 6.82790196,39.2158824 12.0098039,39.2158824 Z M34.8948627,30.0735294 L17.2765294,47.6928333 C16.8151618,47.9561739 16.2860637,48.0767843 15.7561471,48.0394118 L3.67647059,48.0394118 C3.31448154,48.0392453 2.97106488,47.8791352 2.7382185,47.6019735 C2.50537212,47.3248117 2.40689445,46.9589259 2.46916667,46.6023333 C2.60412024,45.9915247 3.15668514,45.5647052 3.78177451,45.5884314 L14.2932255,45.5884314 C15.3304388,45.5855834 16.324678,45.1737837 17.0601471,44.4424118 L33.0882353,28.4152941 C33.5122867,27.9552768 34.2053873,27.8660655 34.7321078,28.2037059 L34.7330882,28.2037059 C35.0292787,28.4118504 35.2183129,28.7402772 35.2495151,29.1009423 C35.2807173,29.4616075 35.1508958,29.8176194 34.8948529,30.0735392 L34.8948627,30.0735294 Z M35.2941176,33.0884314 C35.2942151,33.4944827 35.6233604,33.8236281 36.0294118,33.8237255 L43.872549,33.8237255 C44.2786407,33.8237255 44.6078431,33.4945231 44.6078431,33.0884314 C44.6078431,32.6823396 44.2786407,32.3531373 43.872549,32.3531373 L36.0294118,32.3531373 C35.6233626,32.3532401 35.2942205,32.6823822 35.2941176,33.0884314 L35.2941176,33.0884314 Z M32.1078431,43.137451 L39.9509804,43.137451 C40.3570721,43.137451 40.6862745,42.8082486 40.6862745,42.4021569 C40.6862745,41.9960651 40.3570721,41.6668627 39.9509804,41.6668627 L32.1078431,41.6668627 C31.7017514,41.6668627 31.372549,41.9960651 31.372549,42.4021569 C31.372549,42.8082486 31.7017514,43.137451 32.1078431,43.137451 Z M47.7941176,36.764902 L33.0882353,36.764902 C32.6821436,36.764902 32.3529412,37.0941044 32.3529412,37.5001961 C32.3529412,37.9062878 32.6821436,38.2354902 33.0882353,38.2354902 L47.7941176,38.2354902 C48.2002094,38.2354902 48.5294118,37.9062878 48.5294118,37.5001961 C48.5294118,37.0941044 48.2002094,36.764902 47.7941176,36.764902 L47.7941176,36.764902 Z M46.8137255,46.0786275 L27.2058824,46.0786275 C26.7997906,46.0786275 26.4705882,46.4078298 26.4705882,46.8139216 C26.4705882,47.2200133 26.7997906,47.5492157 27.2058824,47.5492157 L46.8137255,47.5492157 C47.2198172,47.5492157 47.5490196,47.2200133 47.5490196,46.8139216 C47.5490196,46.4078298 47.2198172,46.0786275 46.8137255,46.0786275 Z" id="Shape"></path>
            </g>
        </g>
    </g>
</svg>