<?xml version="1.0" encoding="UTF-8"?>
<svg width="80px" height="80px" viewBox="0 0 80 80" version="1.1" xmlns="http://www.w3.org/2000/svg" xmlns:xlink="http://www.w3.org/1999/xlink">
    <!-- Generator: Sketch 58 (84663) - https://sketch.com -->
    <title>government</title>
    <desc>Created with Sketch.</desc>
    <g id="new_version" stroke="none" stroke-width="1" fill="none" fill-rule="evenodd">
        <g id="Homepage_final-Copy-4" transform="translate(-1220.000000, -1625.000000)" fill="#42C6A1" fill-rule="nonzero">
            <g id="government" transform="translate(1220.000000, 1625.000000)">
                <path d="M75.0617284,41.6666667 L75.0617284,35.7407407 L79.0123457,35.7407407 L79.0123457,25.3240691 L39.5061728,0 L0,25.3240691 L0,35.7407407 L3.95061728,35.7407407 L3.95061728,41.6666667 L5.92592593,41.6666667 L5.92592593,71.2962963 L0,71.2962963 L0,79.1975309 L79.0123457,79.1975309 L79.0123457,71.2962963 L73.0864198,71.2962963 L73.0864198,41.6666667 L75.0617284,41.6666667 Z M73.0864198,39.691358 L63.2098765,39.691358 L63.2098765,35.7407407 L73.0864198,35.7407407 L73.0864198,39.691358 Z M17.7777778,41.6666667 L17.7777778,35.7407407 L22.7160494,35.7407407 L22.7160494,41.6666667 L24.691358,41.6666667 L24.691358,71.2962963 L15.8024691,71.2962963 L15.8024691,41.6666667 L17.7777778,41.6666667 Z M24.691358,39.691358 L24.691358,35.7407407 L34.5679012,35.7407407 L34.5679012,39.691358 L24.691358,39.691358 Z M26.6666667,41.6666667 L32.5925926,41.6666667 L32.5925926,71.2962963 L26.6666667,71.2962963 L26.6666667,41.6666667 Z M34.5679012,41.6666667 L36.5432099,41.6666667 L36.5432099,35.7407407 L41.4814815,35.7407407 L41.4814815,41.6666667 L43.4567901,41.6666667 L43.4567901,71.2962963 L34.5679012,71.2962963 L34.5679012,41.6666667 Z M43.4567901,39.691358 L43.4567901,35.7407407 L53.3333333,35.7407407 L53.3333333,39.691358 L43.4567901,39.691358 Z M45.4320988,41.6666667 L51.3580247,41.6666667 L51.3580247,71.2962963 L45.4320988,71.2962963 L45.4320988,41.6666667 Z M53.3333333,41.6666667 L55.308642,41.6666667 L55.308642,35.7407407 L61.2345679,35.7407407 L61.2345679,41.6666667 L63.2098765,41.6666667 L63.2098765,71.2962963 L53.3333333,71.2962963 L53.3333333,41.6666667 Z M74.6537383,24.8765432 L4.35860741,24.8765432 L39.5061728,2.34567901 L74.6537383,24.8765432 Z M1.97530864,33.7654321 L1.97530864,26.8518519 L77.037037,26.8518519 L77.037037,33.7654321 L1.97530864,33.7654321 Z M15.8024691,35.7407407 L15.8024691,39.691358 L5.92592593,39.691358 L5.92592593,35.7407407 L15.8024691,35.7407407 Z M7.90123457,41.6666667 L13.8271605,41.6666667 L13.8271605,71.2962963 L7.90123457,71.2962963 L7.90123457,41.6666667 Z M77.037037,73.2716049 L77.037037,77.2222222 L1.97530864,77.2222222 L1.97530864,73.2716049 L77.037037,73.2716049 Z M71.1111111,71.2962963 L65.1851852,71.2962963 L65.1851852,41.6666667 L71.1111111,41.6666667 L71.1111111,71.2962963 Z" id="Shape"></path>
            </g>
        </g>
    </g>
</svg>