<?xml version="1.0" encoding="UTF-8"?>
<svg width="49px" height="49px" viewBox="0 0 49 49" version="1.1" xmlns="http://www.w3.org/2000/svg" xmlns:xlink="http://www.w3.org/1999/xlink">
    <!-- Generator: Sketch 58 (84663) - https://sketch.com -->
    <title>governance</title>
    <desc>Created with Sketch.</desc>
    <g id="new_version" stroke="none" stroke-width="1" fill="none" fill-rule="evenodd">
        <g id="Homepage_final-Copy-4" transform="translate(-570.000000, -1250.000000)" fill="#5192f2" fill-rule="nonzero">
            <g id="governance" transform="translate(570.000000, 1249.000000)">
                <path d="M43.627451,38.2888529 L43.627451,25.245098 C43.6273427,24.8390512 43.2982037,24.5099122 42.8921569,24.5098039 L25,24.5098039 L25,12.2013431 C27.9449646,11.8139074 30.0840409,9.20780285 29.889908,6.24381312 C29.6957751,3.27982339 27.2350464,0.974993014 24.2647059,0.974993014 C21.2943654,0.974993014 18.8336367,3.27982339 18.6395038,6.24381312 C18.4453709,9.20780285 20.5844472,11.8139074 23.5294118,12.2013431 L23.5294118,24.5098039 L5.6372549,24.5098039 C5.23120802,24.5099122 4.90206902,24.8390512 4.90196078,25.245098 L4.90196078,38.2888529 C1.95699622,38.6762887 -0.182080122,41.2823932 0.012052805,44.246383 C0.206185732,47.2103727 2.6669144,49.5152031 5.6372549,49.5152031 C8.60759541,49.5152031 11.0683241,47.2103727 11.262457,44.246383 C11.4565899,41.2823932 9.31751358,38.6762887 6.37254902,38.2888529 L6.37254902,25.9803922 L23.5294118,25.9803922 L23.5294118,38.2888529 C20.5844472,38.6762887 18.4453709,41.2823932 18.6395038,44.246383 C18.8336367,47.2103727 21.2943654,49.5152031 24.2647059,49.5152031 C27.2350464,49.5152031 29.6957751,47.2103727 29.889908,44.246383 C30.0840409,41.2823932 27.9449646,38.6762887 25,38.2888529 L25,25.9803922 L42.1568627,25.9803922 L42.1568627,38.2888529 C39.2118982,38.6762887 37.0728218,41.2823932 37.2669548,44.246383 C37.4610877,47.2103727 39.9218164,49.5152031 42.8921569,49.5152031 C45.8624974,49.5152031 48.323226,47.2103727 48.517359,44.246383 C48.7114919,41.2823932 46.5724155,38.6762887 43.627451,38.2888529 Z M20.0980392,6.61764706 C20.0980392,4.3164606 21.9635194,2.45098039 24.2647059,2.45098039 C26.5658923,2.45098039 28.4313725,4.3164606 28.4313725,6.61764706 C28.4313725,8.91883352 26.5658923,10.7843137 24.2647059,10.7843137 C21.964514,10.7819145 20.1004385,8.91783897 20.0980392,6.61764706 Z M9.80392157,43.872549 C9.80392157,46.1737355 7.93844136,48.0392157 5.6372549,48.0392157 C3.33606844,48.0392157 1.47058824,46.1737355 1.47058824,43.872549 C1.47058824,41.5713626 3.33606844,39.7058824 5.6372549,39.7058824 C7.93744682,39.7082816 9.8015223,41.5723571 9.80392157,43.872549 Z M28.4313725,43.872549 C28.4313725,46.1737355 26.5658923,48.0392157 24.2647059,48.0392157 C21.9635194,48.0392157 20.0980392,46.1737355 20.0980392,43.872549 C20.0980392,41.5713626 21.9635194,39.7058824 24.2647059,39.7058824 C26.5648978,39.7082816 28.4289733,41.5723571 28.4313725,43.872549 Z M42.8921569,48.0392157 C41.2068975,48.0392157 39.6875796,47.0240399 39.0426588,45.4670633 C38.397738,43.9100867 38.7542203,42.1179291 39.9458786,40.9262708 C41.1375369,39.7346124 42.9296945,39.3781301 44.4866712,40.023051 C46.0436478,40.6679718 47.0588235,42.1872897 47.0588235,43.872549 C47.0564243,46.1727409 45.1923488,48.0368164 42.8921569,48.0392157 Z" id="Shape"></path>
            </g>
        </g>
    </g>
</svg>