<?xml version="1.0" encoding="UTF-8"?>
<svg width="32px" height="80px" viewBox="0 0 32 80" version="1.1" xmlns="http://www.w3.org/2000/svg" xmlns:xlink="http://www.w3.org/1999/xlink">
    <!-- Generator: Sketch 58 (84663) - https://sketch.com -->
    <title>individual</title>
    <desc>Created with Sketch.</desc>
    <g id="new_version" stroke="none" stroke-width="1" fill="none" fill-rule="evenodd">
        <g id="Homepage_final-Copy-4" transform="translate(-885.000000, -1985.000000)" fill="#FD6163" fill-rule="nonzero">
            <g id="individual" transform="translate(885.000000, 1985.000000)">
                <path d="M28,12 C28,5.372583 22.627417,0 16,0 C9.372583,0 4,5.372583 4,12 C4,18.627417 9.372583,24 16,24 C22.6243488,23.9925987 27.9925987,18.6243488 28,12 Z M16,22 C10.4771525,22 6,17.5228475 6,12 C6,6.4771525 10.4771525,2 16,2 C21.5228475,2 26,6.4771525 26,12 C25.9936847,17.5202295 21.5202295,21.9936847 16,22 Z M26.04541,24 L5.95459,24 C2.66746232,24.0040833 0.00381278443,26.667952 0,29.95508 L0,60.04492 C0.00381278443,63.332048 2.66746232,65.9959167 5.95459,66 L6,80 L8,80 L8,64 L5.95459,64 C3.77142882,63.9973711 2.00235838,62.2280815 2,60.04492 L2,29.95508 C2.00235838,27.7719185 3.77142882,26.0026289 5.95459,26 L26.04541,26 C28.2285712,26.0026289 29.9976416,27.7719185 30,29.95508 L30,60.04492 C29.9976416,62.2280815 28.2285712,63.9973711 26.04541,64 L24,64 L24,80 L26,80 L26,66 L26.04541,66 C29.3325377,65.9959167 31.9961872,63.332048 32,60.04492 L32,29.95508 C31.9961872,26.667952 29.3325377,24.0040833 26.04541,24 Z" id="Shape"></path>
            </g>
        </g>
    </g>
</svg>