<?xml version="1.0" encoding="UTF-8"?>
<svg width="49px" height="9px" viewBox="0 0 49 9" version="1.1" xmlns="http://www.w3.org/2000/svg" xmlns:xlink="http://www.w3.org/1999/xlink">
    <!-- Generator: Sketch 58 (84663) - https://sketch.com -->
    <title>Line 2 Copy 2</title>
    <desc>Created with Sketch.</desc>
    <g id="new_version" stroke="none" stroke-width="1" fill="none" fill-rule="evenodd">
        <g id="Homepage_final-Copy-4" transform="translate(-1011.000000, -588.000000)" fill="#19202C" fill-rule="nonzero">
            <path id="Line-2-Copy-2" d="M1051,588 L1060,592.5 L1051,597 L1051,593 L1047,593 L1047,592 L1051,592 L1051,588 Z M1015,592 L1015,593 L1011,593 L1011,592 L1015,592 Z M1021,592 L1021,593 L1017,593 L1017,592 L1021,592 Z M1027,592 L1027,593 L1023,593 L1023,592 L1027,592 Z M1033,592 L1033,593 L1029,593 L1029,592 L1033,592 Z M1039,592 L1039,593 L1035,593 L1035,592 L1039,592 Z M1045,592 L1045,593 L1041,593 L1041,592 L1045,592 Z"></path>
        </g>
    </g>
</svg>