<?xml version="1.0" encoding="UTF-8"?>
<svg width="52px" height="50px" viewBox="0 0 52 50" version="1.1" xmlns="http://www.w3.org/2000/svg" xmlns:xlink="http://www.w3.org/1999/xlink">
    <!-- Generator: Sketch 58 (84663) - https://sketch.com -->
    <title>multi_function</title>
    <desc>Created with Sketch.</desc>
    <g id="new_version" stroke="none" stroke-width="1" fill="none" fill-rule="evenodd">
        <g id="Homepage_final-Copy-4" transform="translate(-129.000000, -972.000000)" fill="#5192f2" fill-rule="nonzero">
            <g id="multi_function" transform="translate(129.000000, 972.000000)">
                <path d="M25.75,15.75049 C28.3733526,15.75049 30.5,13.6238426 30.5,11.00049 C30.5,8.37713744 28.3733526,6.25049 25.75,6.25049 C23.1266474,6.25049 21,8.37713744 21,11.00049 C21.0029759,13.6226089 23.1278811,15.7475141 25.75,15.75049 Z M25.75,7.75049 C27.5449254,7.75049 29,9.20556456 29,11.00049 C29,12.7954154 27.5449254,14.25049 25.75,14.25049 C23.9550746,14.25049 22.5,12.7954154 22.5,11.00049 C22.5020775,9.2064258 23.9559358,7.7525675 25.75,7.75049 L25.75,7.75049 Z M26.5,33.00049 L25,33.00049 L25,37.25049 L20.75,37.25049 L20.75,38.75049 L25,38.75049 L25,43.00049 L26.5,43.00049 L26.5,38.75049 L30.75,38.75049 L30.75,37.25049 L26.5,37.25049 L26.5,33.00049 Z M51.5,4.50049 C51.5,4.08632218 51.1641678,3.7506004 50.75,3.75049 L32.58386,3.75049 L32.42273,3.5907 C31.8165987,2.67667288 31.0297825,1.89639419 30.11073,1.29791 L29.77833,0.96826 L29.69923,1.04791 C28.4966405,0.3607839 27.13548,-3.88992799e-07 25.75043,-3.88992799e-07 L25.75037,-3.88992799e-07 C21.332092,-3.88992799e-07 17.75037,3.581722 17.75037,7.99999961 L17.75037,27.43005 L9.93945,9.20459 C9.83435543,8.9573231 9.60506377,8.78512759 9.33830134,8.75313398 C9.07153891,8.72114038 8.80803179,8.83423307 8.64744782,9.04963635 C8.48686385,9.26503964 8.45371906,9.54986832 8.56055,9.79639 L16.84355,29.12329 L8.47363,20.75342 L0.99414,20.69385 L1.05371,28.18311 L17.57947,44.70068 L0.75,44.70068 C0.335786438,44.70068 0,45.0364664 0,45.45068 C0,45.8648936 0.335786438,46.20068 0.75,46.20068 L18.95129,46.20068 C20.4046981,48.5612651 22.9782306,49.9993528 25.75037,49.9999996 L25.75043,49.9999996 C30.1686846,49.9999996 33.75037,46.4182546 33.75037,41.9999996 L33.75037,22.17377 L33.91602,22.35889 C36.0857856,24.5298058 39.0293097,25.7495103 42.098635,25.7495103 C45.1679603,25.7495103 48.1114844,24.5298058 50.28125,22.35889 L50.81152,21.82666 L34.09644,5.25049 L50.75,5.25049 C51.1641678,5.2503796 51.5,4.91465782 51.5,4.50049 Z M2.54785,27.55615 L2.50585,22.20557 L7.84667,22.24757 L17.75036,32.15126 L17.75036,42 C17.75036,42.267 17.76476,42.53058 17.79036,42.79089 L2.54785,27.55615 Z M32.250371,42 C32.2519825,44.9569836 30.2564729,47.5419868 27.3954361,48.2891302 C24.5343993,49.0362735 21.5297638,47.7570296 20.08537,45.17682 C20.0688587,45.1429176 20.0497379,45.1103495 20.02818,45.07941 C19.5166501,44.1336766 19.2492979,43.0752085 19.2503573,42 L19.2503573,8 C19.2457098,5.63771094 20.5255237,3.45962 22.5914075,2.31395182 C24.6572912,1.16828364 27.182642,1.23616097 29.184,2.49115 L31.23277,4.52271 C31.8970279,5.56086909 32.2501435,6.76751763 32.250371,8 L32.250371,42 Z M48.669,21.813 C44.685279,25.2390762 38.7375443,25.0286454 35.00591,21.3296 L33.75042,19.92573 L33.75042,8 C33.7477838,7.64600075 33.7217437,7.29256315 33.67247,6.942 L48.669,21.813 Z" id="Shape"></path>
            </g>
        </g>
    </g>
</svg>