<?xml version="1.0" encoding="UTF-8"?>
<svg width="50px" height="50px" viewBox="0 0 50 50" version="1.1" xmlns="http://www.w3.org/2000/svg" xmlns:xlink="http://www.w3.org/1999/xlink">
    <!-- Generator: Sketch 58 (84663) - https://sketch.com -->
    <title>out_of_box</title>
    <desc>Created with Sketch.</desc>
    <g id="new_version" stroke="none" stroke-width="1" fill="none" fill-rule="evenodd">
        <g id="Homepage_final-Copy-4" transform="translate(-129.000000, -2411.000000)" fill="#5192F2" fill-rule="nonzero">
            <g id="out_of_box" transform="translate(129.000000, 2411.000000)">
                <path d="M49.07422,26.397 L45.208,18.66553 L45.201,18.66907 C45.1219075,18.5042115 44.9848071,18.3743031 44.81593,18.3042 L27.03711,11.19189 L27.03711,9.65369 L32.03711,9.65369 L24.53711,0 L17.03711,9.65369 L22.03711,9.65369 L22.03711,11.19189 L4.2583,18.3042 C4.08941925,18.3742975 3.95231704,18.5042076 3.87323,18.66907 L3.86623,18.66553 L0,26.397 L3.78711,27.892 L3.78711,41.50049 C3.78700806,41.8131817 3.98106343,42.0930715 4.27393,42.20264 L24.27393,49.70264 C24.440901,49.7654171 24.6248102,49.7664563 24.79248,49.70557 L44.79248,42.45557 C45.0893054,42.3480518 45.2870392,42.0661883 45.28711,41.75049 L45.28711,27.892 L49.07422,26.397 Z M29.31494,32.5845 L25.68927,27.34726 L44.17493,19.953 L47,25.604 L29.31494,32.5845 Z M20.102,8.15369 L24.53711,2.445 L28.97229,8.15374 L25.53711,8.15374 L25.53711,18.5 L23.53711,18.5 L23.53711,8.15369 L20.102,8.15369 Z M22.03712,12.80756 L22.03712,20 L27.03712,20 L27.03712,12.80756 L42.51759,19.00049 L24.53711,26.19287 L6.55664,19.00049 L22.03712,12.80756 Z M4.89929,19.953 L23.385,27.34723 L19.75933,32.58447 L2.07422,25.604 L4.89929,19.953 Z M5.28711,28.48413 L20.31494,34.4165 L23.78711,29.40131 L23.78711,47.91779 L5.28711,40.98096 L5.28711,28.48413 Z M43.78711,41.22413 L25.28711,47.93043 L25.28711,29.40131 L28.75928,34.4165 L43.78711,28.48413 L43.78711,41.22413 Z" id="Shape"></path>
            </g>
        </g>
    </g>
</svg>