<?xml version="1.0" encoding="UTF-8"?>
<svg width="50px" height="50px" viewBox="0 0 50 50" version="1.1" xmlns="http://www.w3.org/2000/svg" xmlns:xlink="http://www.w3.org/1999/xlink">
    <!-- Generator: Sketch 58 (84663) - https://sketch.com -->
    <title>productivity</title>
    <desc>Created with Sketch.</desc>
    <g id="new_version" stroke="none" stroke-width="1" fill="none" fill-rule="evenodd">
        <g id="Homepage_final-Copy-4" transform="translate(-129.000000, -1249.000000)" fill="#5192f2" fill-rule="nonzero">
            <g id="productivity" transform="translate(129.000000, 1249.000000)">
                <path d="M43.25,26.38672 L43.25,9.13672 C43.2498896,8.72255218 42.9141678,8.38672 42.5,8.38672 L35.5,8.38672 C35.0858322,8.38672 34.7501104,8.72255218 34.75,9.13672 L34.75,26.38672 L29.25,26.38672 L29.25,12.63672 C29.2498896,12.2225522 28.9141678,11.8868304 28.5,11.88672 L21.5,11.88672 C21.0858322,11.8868304 20.7501104,12.2225522 20.75,12.63672 L20.75,26.38672 L14.75,26.38672 L14.75,17.63672 C14.7498896,17.2225522 14.4141678,16.8868304 14,16.88672 L7,16.88672 C6.58583218,16.8868304 6.2501104,17.2225522 6.25,17.63672 L6.25,26.38672 L0,26.38672 L0,27.88672 L5.08594,27.88672 L5.08594,32.71777 C5.08604488,33.1319401 5.42176989,33.4676651 5.83594,33.46777 L10.19531,33.46777 C10.5457321,34.8045377 11.0783925,36.0867416 11.77831,37.27832 L8.69531,40.36232 C8.55462524,40.5029327 8.4755833,40.6936877 8.4755833,40.892595 C8.4755833,41.0915023 8.55462524,41.2822573 8.69531,41.42287 L13.0498,45.77736 C13.1904127,45.9180448 13.3811677,45.9970867 13.580075,45.9970867 C13.7789823,45.9970867 13.9697373,45.9180448 14.11035,45.77736 L17.19435,42.69436 C18.3859226,43.3942819 19.6681239,43.9269426 21.00489,44.27736 L21.00489,48.63674 C21.0050004,49.0509078 21.3407222,49.38674 21.75489,49.38674 L27.917,49.38674 C28.3311678,49.38674 28.6668896,49.0509078 28.667,48.63674 L28.667,44.27734 C30.0041407,43.9271049 31.2866934,43.3944366 32.47853,42.69434 L35.56253,45.77734 C35.7031427,45.9180248 35.8938977,45.9970667 36.092805,45.9970667 C36.2917123,45.9970667 36.4824673,45.9180248 36.62308,45.77734 L40.97757,41.42285 C41.1182548,41.2822373 41.1972967,41.0914823 41.1972967,40.892575 C41.1972967,40.6936677 41.1182548,40.5029127 40.97757,40.3623 L37.89457,37.2783 C38.5949832,36.0870881 39.1273558,34.8047667 39.47657,33.46775 L43.83595,33.46775 C44.2501201,33.4676451 44.5858451,33.1319201 44.58595,32.71775 L44.58595,27.88672 L50,27.88672 L50,26.38672 L43.25,26.38672 Z M36.25,9.88672 L41.75,9.88672 L41.75,26.38672 L36.25,26.38672 L36.25,9.88672 Z M22.25,13.38672 L27.75,13.38672 L27.75,26.38672 L22.25,26.38672 L22.25,13.38672 Z M34.28082,27.88672 C34.2754567,33.0989205 30.0486283,37.3214018 24.836425,37.3214018 C19.6242217,37.3214018 15.3973933,33.0989205 15.39203,27.88672 L34.28082,27.88672 Z M7.75,18.38672 L13.25,18.38672 L13.25,26.38672 L7.75,26.38672 L7.75,18.38672 Z M43.08594,31.96777 L38.88574,31.96777 C38.5332414,31.9676108 38.2283053,32.2131893 38.15332,32.55762 C37.8082384,34.1310425 37.1855493,35.6303867 36.31445,36.98535 C36.1240588,37.2821128 36.1659142,37.6713939 36.41504,37.9209 L39.38672,40.89258 L36.09277,44.18652 L33.12012,41.21484 C32.870391,40.9661791 32.4814478,40.9243642 32.18457,41.11426 C30.8294402,41.985929 29.3297288,42.6089612 27.75586,42.9541 C27.4118484,43.0295307 27.1667834,43.3343358 27.16699,43.68652 L27.16699,47.88672 L22.50488,47.88672 L22.50488,43.68652 C22.5050915,43.3343375 22.2600297,43.0295314 21.91602,42.9541 C20.3423168,42.6084251 18.8426942,41.9854312 17.4873,41.11426 C17.1904253,40.9243658 16.8014858,40.9661807 16.55176,41.21484 L13.58008,44.18652 L10.28608,40.89258 L13.25776,37.9209 C13.5068894,37.6713957 13.5487451,37.2821119 13.35835,36.98535 C12.4871758,35.6299598 11.8641785,34.1303406 11.5185,32.55664 C11.4430727,32.2126263 11.1382655,31.9675596 10.78608,31.96777 L6.58594,31.96777 L6.58594,27.88672 L13.892,27.88672 C13.8977738,33.9270574 18.7960549,38.8206585 24.836395,38.8206585 C30.8767351,38.8206585 35.7750162,33.9270574 35.78079,27.88672 L43.08594,27.88672 L43.08594,31.96777 Z M10.5,14.5908267 C12.3190929,14.588351 13.792992,13.1140136 13.79492,11.29492 C13.79492,11.24597 13.78259,11.20044 13.78046,11.15204 L22.35992,8.747 C23.1651591,9.85084181 24.5714376,10.3382379 25.8870662,9.96945864 C27.2026948,9.60067937 28.1507487,8.45334854 28.26492,7.09179 L36.13083,4.88279 C36.9428364,6.31393999 38.6919406,6.91860855 40.2144517,6.29450565 C41.7369629,5.67040274 42.5584059,4.01202375 42.1322691,2.42269931 C41.7061323,0.833374872 40.165217,-0.191598058 38.5347045,0.0297018641 C36.904192,0.251001786 35.692215,1.64960867 35.70511,3.29502 C35.70511,3.34495 35.71762,3.3914 35.71982,3.44077 L28.05982,5.59202 C27.4603067,3.99775957 25.7410103,3.12688448 24.1010128,3.58676573 C22.4610153,4.04664698 21.4452031,5.68448985 21.76203,7.35802 L13.37054,9.71027 C12.5938028,8.30671299 10.9176865,7.66843705 9.40410885,8.19982733 C7.8905312,8.73121762 6.98126116,10.2771769 7.25237451,11.8582495 C7.52348786,13.439322 8.89585456,14.5940392 10.5,14.5908267 Z M39,1.49999993 C39.7262647,1.49980182 40.3811177,1.93716677 40.6591387,2.60810996 C40.9371598,3.27905315 40.7835832,4.0514098 40.2700365,4.56495652 C39.7564898,5.07850323 38.9841332,5.23207975 38.31319,4.95405872 C37.6422468,4.6760377 37.2048818,4.0211847 37.2050799,3.29492 C37.2065284,2.30421364 38.0092936,1.50144845 39,1.49999993 L39,1.49999993 Z M25,4.99999993 C25.7262647,4.99980182 26.3811177,5.43716677 26.6591387,6.10810996 C26.9371598,6.77905315 26.7835832,7.5514098 26.2700365,8.06495652 C25.7564898,8.57850323 24.9841332,8.73207975 24.31319,8.45405872 C23.6422468,8.1760377 23.2048818,7.5211847 23.2050799,6.79492 C23.2065284,5.80421364 24.0092936,5.00144845 25,4.99999993 Z M10.5,9.49999993 C11.2262647,9.49980182 11.8811177,9.93716677 12.1591387,10.60811 C12.4371598,11.2790532 12.2835832,12.0514098 11.7700365,12.5649565 C11.2564898,13.0785032 10.4841332,13.2320798 9.81318996,12.9540587 C9.14224677,12.6760377 8.70488182,12.0211847 8.70507993,11.29492 C8.70652845,10.3042136 9.50929364,9.50144845 10.5,9.49999993 Z" id="Shape"></path>
            </g>
        </g>
    </g>
</svg>