<?xml version="1.0" encoding="UTF-8"?>
<svg width="40px" height="50px" viewBox="0 0 40 50" version="1.1" xmlns="http://www.w3.org/2000/svg" xmlns:xlink="http://www.w3.org/1999/xlink">
    <!-- Generator: Sketch 58 (84663) - https://sketch.com -->
    <title>security</title>
    <desc>Created with Sketch.</desc>
    <g id="new_version" stroke="none" stroke-width="1" fill="none" fill-rule="evenodd">
        <g id="Homepage_final-Copy-4" transform="translate(-1011.000000, -2411.000000)" fill="#5192F2" fill-rule="nonzero">
            <g id="security" transform="translate(1011.000000, 2411.000000)">
                <path d="M34.36749,7.56671 C29.6132592,7.20101743 25.1466739,5.14668453 21.775,1.775 L20,0 L18.225,1.775 C14.8533261,5.14668453 10.3867408,7.20101743 5.63251,7.56671 L0,8 L0,30 C0,41.04572 20,50 20,50 C20,50 40,41.04572 40,30 L40,8 L34.36749,7.56671 Z M38.5,30 C38.5,38.92841 23.249,46.77289 19.99237,48.34552 C14.29968,45.66241 1.5,37.95984 1.5,30 L1.5,9.389 L5.74756,9.06228 C10.8584866,8.66792009 15.660079,6.45949501 19.28564,2.83563 L20,2.12128 L20.71436,2.83563 C24.339915,6.45950969 29.1415081,8.66794927 34.25244,9.06232 L38.5,9.389 L38.5,30 Z M27.353,20.10291 C27.341622,16.1881076 24.164849,13.0205541 20.25003,13.0205541 C16.335211,13.0205541 13.158438,16.1881076 13.14706,20.10291 L13.14706,22 L10,22 L10,37 L30,37 L30,22 L27.353,22 L27.353,20.10291 Z M14.647,20.10291 C14.6571628,17.015633 17.1627365,14.5182452 20.25003,14.5182452 C23.3373235,14.5182452 25.8428972,17.015633 25.853,20.10291 L25.853,22 L14.647,22 L14.647,20.10291 Z M28.5,23.5 L28.5,35.5 L11.5,35.5 L11.5,23.5 L28.5,23.5 Z M17.873,32.94482 C18.1640035,33.2273732 18.6269165,33.2273732 18.91792,32.94482 L25.52241,26.53857 C25.7147689,26.3519388 25.7929167,26.0768442 25.727403,25.8169575 C25.6618892,25.5570708 25.4626722,25.3518959 25.2048283,25.2787544 C24.9469845,25.2056129 24.669707,25.2756227 24.47749,25.4624 L18.39549,31.36182 L15.52244,28.57568 C15.330199,28.389023 15.0529806,28.3191042 14.7952104,28.3922613 C14.5374402,28.4654185 14.3382795,28.6705372 14.2727504,28.9303513 C14.2072212,29.1901655 14.2852789,29.465203 14.47752,29.65186 L17.873,32.94482 Z" id="Shape"></path>
            </g>
        </g>
    </g>
</svg>