<?xml version="1.0" encoding="UTF-8"?>
<svg width="80px" height="80px" viewBox="0 0 80 80" version="1.1" xmlns="http://www.w3.org/2000/svg" xmlns:xlink="http://www.w3.org/1999/xlink">
    <!-- Generator: Sketch 58 (84663) - https://sketch.com -->
    <title>teams</title>
    <desc>Created with Sketch.</desc>
    <g id="new_version" stroke="none" stroke-width="1" fill="none" fill-rule="evenodd">
        <g id="Homepage_final-Copy-4" transform="translate(-1220.000000, -1985.000000)" fill="#EAA222" fill-rule="nonzero">
            <g id="teams" transform="translate(1219.000000, 1985.000000)">
                <path d="M53,12 C53,5.372583 47.627417,0 41,0 C34.372583,0 29,5.372583 29,12 C29,18.627417 34.372583,24 41,24 C47.6244196,23.9927692 52.9927692,18.6244196 53,12 Z M41,22 C35.4771525,22 31,17.5228475 31,12 C31,6.4771525 35.4771525,2 41,2 C46.5228475,2 51,6.4771525 51,12 C50.9935142,17.5201588 46.5201588,21.9935142 41,22 Z M79,25 C79,20.0294373 74.9705627,16 70,16 C65.0294373,16 61,20.0294373 61,25 C61,29.9705627 65.0294373,34 70,34 C74.9683147,33.9945769 78.9945769,29.9683147 79,25 Z M70,32 C66.1340068,32 63,28.8659932 63,25 C63,21.1340068 66.1340068,18 70,18 C73.8659932,18 77,21.1340068 77,25 C76.9953275,28.8640562 73.8640562,31.9953275 70,32 Z M51.04492,24 L30.95508,24 C27.6678499,24.0040277 25.0040277,26.6678499 25,29.95508 L25,60.04492 C25.0040277,63.3321501 27.6678499,65.9959723 30.95508,66 L31,80 L33,80 L33,64 L30.95508,64 C28.7718233,63.9974102 27.0025898,62.2281767 27,60.04492 L27,29.95508 C27.0025898,27.7718233 28.7718233,26.0025898 30.95508,26 L51.04492,26 C53.2281767,26.0025898 54.9974102,27.7718233 55,29.95508 L55,60.04492 C54.9974102,62.2281767 53.2281767,63.9974102 51.04492,64 L49,64 L49,80 L51,80 L51,66 L51.04492,66 C54.3321501,65.9959723 56.9959723,63.3321501 57,60.04492 L57,29.95508 C56.9959723,26.6678499 54.3321501,24.0040277 51.04492,24 Z M76.69727,34 L63.30273,34 C60.93066,34 59,36.22656 59,38.96387 L59,63.03613 C58.8591936,65.4705914 60.5903846,67.6138707 63,67.98828 L63,80 L65,80 L65,66 L63.30273,66 C62.0332,66 61,64.66992 61,63.03613 L61,38.96387 C61,37.33008 62.0332,36 63.30273,36 L76.69727,36 C77.9668,36 79,37.33008 79,38.96387 L79,63.03613 C79,64.66992 77.9668,66 76.69727,66 L75,66 L75,80 L77,80 L77,67.98828 C79.4096154,67.6138707 81.1408064,65.4705914 81,63.03613 L81,38.96387 C81,36.22656 79.06934,34 76.69727,34 Z M21,25 C21,20.0294373 16.9705627,16 12,16 C7.02943725,16 3,20.0294373 3,25 C3,29.9705627 7.02943725,34 12,34 C16.9683147,33.9945769 20.9945769,29.9683147 21,25 Z M12,32 C8.13400675,32 5,28.8659932 5,25 C5,21.1340068 8.13400675,18 12,18 C15.8659932,18 19,21.1340068 19,25 C18.9953275,28.8640562 15.8640562,31.9953275 12,32 Z M18.69727,34 L5.30273,34 C2.93066,34 1,36.22656 1,38.96387 L1,63.03613 C0.859193644,65.4705914 2.5903846,67.6138707 5,67.98828 L5,80 L7,80 L7,66 L5.30273,66 C4.0332,66 3,64.66992 3,63.03613 L3,38.96387 C3,37.33008 4.0332,36 5.30273,36 L18.69727,36 C19.9668,36 21,37.33008 21,38.96387 L21,63.03613 C21,64.66992 19.9668,66 18.69727,66 L17,66 L17,80 L19,80 L19,67.98828 C21.4096154,67.6138707 23.1408064,65.4705914 23,63.03613 L23,38.96387 C23,36.22656 21.06934,34 18.69727,34 Z" id="Shape"></path>
            </g>
        </g>
    </g>
</svg>