<?xml version="1.0" encoding="UTF-8"?>
<svg width="50px" height="50px" viewBox="0 0 50 50" version="1.1" xmlns="http://www.w3.org/2000/svg" xmlns:xlink="http://www.w3.org/1999/xlink">
    <!-- Generator: Sketch 58 (84663) - https://sketch.com -->
    <title>truth</title>
    <desc>Created with Sketch.</desc>
    <g id="new_version" stroke="none" stroke-width="1" fill="none" fill-rule="evenodd">
        <g id="Homepage_final-Copy-4" transform="translate(-1011.000000, -972.000000)" fill="#5192f2" fill-rule="nonzero">
            <g id="truth" transform="translate(1011.000000, 972.000000)">
                <path d="M48.75,44 L41.5,44 L41.5,40.25 C41.4998896,39.8358322 41.1641678,39.5001104 40.75,39.5 L27.5,39.5 L27.5,6.5 L38.67914,6.5 L33.04492,21.99414 C33.0342051,22.0801197 33.0192132,22.1655123 33,22.25 L33.00171,22.28107 L33.0025,22.29596 C33.1758215,25.8615888 36.1823854,28.6259967 39.75,28.5 C43.3174831,28.625946 46.3239672,25.8617452 46.4975,22.29626 L46.49829,22.28082 L46.5,22.25 C46.4808426,22.165501 46.4658512,22.0801113 46.45508,21.99414 L40.82086,6.5 L42.25,6.5 C42.6642136,6.5 43,6.16421356 43,5.75 C43,5.33578644 42.6642136,5 42.25,5 L27.5,5 L27.5,0.75 C27.4998896,0.335832176 27.1641678,0 26.75,0 L22.75,0 C22.3358322,0 22.0001104,0.335832176 22,0.75 L22,5 L7.25,5 C6.83578644,5 6.5,5.33578644 6.5,5.75 C6.5,6.16421356 6.83578644,6.5 7.25,6.5 L8.67914,6.5 L3.04492,21.99414 C3.03420513,22.0801197 3.01921321,22.1655123 3,22.25 L3.00171,22.28107 L3.0025,22.29596 C3.17582155,25.8615888 6.18238536,28.6259967 9.75,28.5 C13.3174831,28.625946 16.3239672,25.8617452 16.4975,22.29626 L16.49829,22.28082 L16.5,22.25 C16.4808426,22.165501 16.4658512,22.0801113 16.45508,21.99414 L10.82086,6.5 L22,6.5 L22,39.5 L8.75,39.5 C8.33583218,39.5001104 8.0001104,39.8358322 8,40.25 L8,44 L0.75,44 C0.335832176,44.0001104 0,44.3358322 0,44.75 L0,49.25 C0,49.6641678 0.335832176,50 0.75,50 L48.75,50 C49.1641678,50 49.5,49.6641678 49.5,49.25 L49.5,44.75 C49.5,44.3358322 49.1641678,44.0001104 48.75,44 Z M39.75,7.94434 L44.67914,21.5 L34.82086,21.5 L39.75,7.94434 Z M39.75,27 C37.2846367,27.0873282 35.1064894,25.4068438 34.56543,23 L44.93457,23 C44.3935106,25.4068438 42.2153633,27.0873282 39.75,27 L39.75,27 Z M9.75,7.94434 L14.67914,21.5 L4.82086,21.5 L9.75,7.94434 Z M9.75,27 C7.28463673,27.0873282 5.1064894,25.4068438 4.56543,23 L14.93457,23 C14.3935106,25.4068438 12.2153633,27.0873282 9.75,27 L9.75,27 Z M23.5,1.5 L26,1.5 L26,5 L23.5,5 L23.5,1.5 Z M23.5,6.5 L26,6.5 L26,39.5 L23.5,39.5 L23.5,6.5 Z M9.5,41 L40,41 L40,44 L9.5,44 L9.5,41 Z M48,48.5 L1.5,48.5 L1.5,45.5 L48,45.5 L48,48.5 Z" id="Shape"></path>
            </g>
        </g>
    </g>
</svg>