<?xml version="1.0" standalone="no"?>
<svg viewBox="0 0 200 200" xmlns="http://www.w3.org/2000/svg">
  <path fill="#5192F2" d="M34.3,-59.4C46.1,-52.6,58.4,-46.7,69.1,-37C79.7,-27.2,88.8,-13.6,89,0.1C89.1,13.8,80.5,27.6,70.6,38.8C60.7,49.9,49.6,58.4,37.7,61.5C25.7,64.6,12.9,62.4,1.4,60.1C-10.2,57.7,-20.3,55.3,-34.6,53.5C-48.9,51.7,-67.3,50.6,-77.7,41.8C-88.2,33,-90.6,16.5,-89.1,0.9C-87.6,-14.7,-82.1,-29.5,-72.1,-39.1C-62.1,-48.7,-47.7,-53.1,-34.9,-59.3C-22.2,-65.6,-11.1,-73.6,0.1,-73.7C11.3,-73.8,22.5,-66.2,34.3,-59.4Z" transform="translate(100 100)" />
</svg>
