<?xml version="1.0" encoding="UTF-8"?>
<svg width="120px" height="151px" viewBox="0 0 120 151" version="1.1" xmlns="http://www.w3.org/2000/svg" xmlns:xlink="http://www.w3.org/1999/xlink">
    <!-- Generator: Sketch 58 (84663) - https://sketch.com -->
    <title>coclude_2</title>
    <desc>Created with Sketch.</desc>
    <g id="new_version" stroke="none" stroke-width="1" fill="none" fill-rule="evenodd">
        <g id="Homepage_final-Copy-4" transform="translate(-817.000000, -568.000000)" fill-rule="nonzero">
            <g id="coclude_2" transform="translate(817.000000, 568.000000)">
                <path d="M101.098668,137.914575 C98.4480523,132.829224 96.5359126,127.391982 95.4199525,121.766932 C93.636685,112.580782 99.659185,102.728107 99.7204525,102.6294 L100.182978,101.883218 L102.825603,137.75355 L102.256053,137.795925 L99.74725,103.73505 C98.382475,106.243943 94.531675,114.195143 95.9806075,121.657717 C97.0835243,127.223198 98.9742433,132.603022 101.5957,137.634817 L101.098668,137.914575 Z" id="Path" fill="#FFFFFF"></path>
                <path d="M39.8418775,143.118525 C39.8418775,141.60135 31.038535,140.371433 20.1791275,140.371433 C9.31972,140.371433 0.5163775,141.60135 0.5163775,143.118525 C0.5163775,144.6357 9.3196675,145.865558 20.1791275,145.865558 C31.0385875,145.865558 39.8418775,144.635708 39.8418775,143.118525 Z" id="Path" fill="#F5F5F5"></path>
                <path d="M119.5135,143.45325 C119.5135,141.234675 104.094947,139.436175 85.0750675,139.436175 C66.0551875,139.436175 50.6366425,141.234675 50.6366425,143.45325 C50.6366425,145.671825 66.0552175,147.47025 85.0750675,147.47025 C104.094917,147.47025 119.5135,145.67175 119.5135,143.45325 Z" id="Path" fill="#F5F5F5"></path>
                <path d="M42.846895,0.74784 L42.846895,41.4304875 C42.846895,41.8435425 43.1817475,42.1783875 43.5948025,42.1783875 L68.7097675,42.1783875 C71.593735,42.1783875 72.7964725,38.96301 72.7964725,34.9966275 L72.7964725,0.74784 C72.7964725,0.549505858 72.7176991,0.359292024 72.5774599,0.219044388 C72.4372207,0.0787967513 72.2470116,0 72.0486775,0 L43.5947875,0 C43.3964407,0 43.2062147,0.0787778722 43.0659574,0.219025293 C42.9257001,0.359272714 42.846895,0.549493233 42.846895,0.74784 L42.846895,0.74784 Z" id="Path" fill="#F9FAFB"></path>
                <path d="M60.165385,38.151 C60.165385,38.151 65.631265,36.9864225 69.2138575,29.293875 C72.79645,21.6013275 72.737635,17.117625 72.737635,17.117625 C72.737635,17.117625 72.9470575,35.049375 72.62239,37.4397675 C72.4620775,38.62002 71.76589,41.2842225 69.8583025,41.9820675 C68.29564,42.5536875 64.790155,41.1344025 64.790155,41.1344025 L60.165385,38.151 Z" id="Path" fill="#CCE1FF" opacity="0.61488"></path>
                <path d="M64.2367,37.134135 L36.91,37.04034 C37.568455,39.9628725 39.54154,42.0845925 41.8733875,42.0845925 L69.2001175,42.178395 C66.8683225,42.178395 64.89517,40.056615 64.2367,37.134135 Z" id="Path" fill="#5192F2"></path>
                <path d="M49.3459525,6.995955 C49.0735699,7.10754675 48.7806463,7.16020143 48.4864525,7.150455 C48.0453608,7.17739409 47.6143605,7.01116314 47.3055934,6.69501366 C46.9968262,6.37886417 46.8408233,5.94405725 46.878175,5.503725 C46.8521001,5.04451041 47.0224637,4.59586036 47.3467677,4.26969344 C47.6710717,3.94352652 48.1187386,3.77059582 48.578095,3.79404 C48.8433495,3.78285622 49.1076495,3.83247051 49.35079,3.93909 L49.2494125,4.28184 C49.0431651,4.18893692 48.8189212,4.142805 48.59275,4.14675 C48.2372044,4.12691925 47.8909694,4.26467918 47.6462339,4.52334969 C47.4014983,4.78202019 47.2831032,5.13534594 47.3225725,5.48925 C47.2848171,5.8362771 47.4022358,6.18226539 47.6434086,6.43463206 C47.8845815,6.68699872 48.2248905,6.81998311 48.5732725,6.798 C48.8088503,6.80145143 49.0425243,6.75536054 49.2591475,6.662715 L49.3459525,6.995955 Z" id="Path" fill="#5192F2"></path>
                <path d="M52.551865,5.4410925 C52.6062259,5.8749219 52.4717294,6.31121297 52.1825414,6.63913571 C51.8933533,6.96705845 51.4773044,7.15505444 51.0400825,7.1553675 C50.21611,7.14428311 49.5571315,6.46734014 49.5682075,5.6433675 C49.5688475,5.5967175 49.57166,5.5501725 49.576645,5.5037325 C49.4862956,4.6545359 50.1014507,3.89287856 50.950645,3.8025075 C50.996405,3.7976375 51.0423075,3.7948175 51.0883525,3.7940475 C51.5084979,3.79674915 51.9077571,3.97763251 52.1868338,4.29171156 C52.4659104,4.6057906 52.598581,5.02355283 52.55185,5.4411 L52.551865,5.4410925 Z M50.0258575,5.4939525 C50.0258575,6.1894125 50.4024925,6.8124 51.064465,6.8124 C51.7308925,6.8124 52.107715,6.199125 52.107715,5.4603375 C52.107715,4.8131475 51.7694125,4.137 51.0688825,4.137 C50.3737075,4.137 50.0258575,4.7793 50.0258575,5.4939525 L50.0258575,5.4939525 Z" id="Shape" fill="#5192F2"></path>
                <path d="M53.09608,7.1022675 L53.09608,3.8471925 L53.55478,3.8471925 L54.59803,5.4939525 C54.8155792,5.83339301 55.0106883,6.18670249 55.1821075,6.5516175 L55.1918575,6.546975 C55.1533525,6.1121175 55.14364,5.71629 55.14364,5.2090275 L55.14364,3.8471925 L55.53946,3.8471925 L55.53946,7.1022675 L55.114855,7.1022675 L54.08125,5.450565 C53.8565431,5.10106452 53.6533682,4.73818043 53.4728575,4.363935 L53.45827,4.3688175 C53.482165,4.7793 53.4918775,5.1705675 53.4918775,5.7114075 L53.4918775,7.1022675 L53.09608,7.1022675 Z" id="Path" fill="#5192F2"></path>
                <polygon id="Path" fill="#5192F2" points="56.8903975 4.2047625 55.9003 4.2047625 55.9003 3.8471925 58.31005 3.8471925 58.31005 4.2047625 57.31555 4.2047625 57.31555 7.1022675 56.890405 7.1022675"></polygon>
                <path d="M58.67137,3.89082 C58.9374776,3.84329875 59.2074261,3.82061368 59.4777325,3.8230575 C59.8140164,3.78885763 60.1507202,3.88383569 60.41956,4.08873 C60.5899369,4.24829795 60.6832226,4.47359072 60.67552,4.706895 C60.6802399,5.08990404 60.4296517,5.42931603 60.06223,5.5375725 L60.06223,5.551995 C60.3275946,5.66974527 60.5099217,5.92019196 60.54046,6.2088975 C60.5972029,6.51361109 60.6812313,6.81260506 60.79153,7.1022675 L60.3566725,7.1022675 C60.2596802,6.85056578 60.1868839,6.5901974 60.13927,6.32469 C60.04273,5.8756425 59.86912,5.7065175 59.4874225,5.692155 L59.091595,5.692155 L59.091595,7.1022675 L58.67134,7.1022675 L58.67137,3.89082 Z M59.0916325,5.37333 L59.52112,5.37333 C59.9705875,5.37333 60.2553175,5.12709 60.2553175,4.755165 C60.2553175,4.33491 59.9510875,4.1516025 59.5069375,4.1467725 C59.3674573,4.14283382 59.2280121,4.15575996 59.0916325,4.18527 L59.0916325,5.37333 Z" id="Shape" fill="#5192F2"></path>
                <path d="M61.819285,6.0785025 L61.48096,7.1022525 L61.046575,7.1022525 L62.15221,3.8471775 L62.65921,3.8471775 L63.770215,7.1022525 L63.32125,7.1022525 L62.97316,6.0785025 L61.819285,6.0785025 Z M62.8864225,5.750145 L62.56759,4.813155 C62.4954325,4.6006425 62.4467425,4.407555 62.3984575,4.219155 L62.389165,4.219155 C62.340895,4.412235 62.287735,4.610385 62.22487,4.808355 L61.906,5.750145 L62.8864225,5.750145 Z" id="Shape" fill="#5192F2"></path>
                <path d="M66.449245,6.995955 C66.1767212,7.10758474 65.8836477,7.16023971 65.58931,7.150455 C65.1482802,7.17730608 64.717375,7.01103065 64.4086984,6.6948868 C64.1000217,6.37874294 63.9440917,5.9439871 63.981475,5.503725 C63.9553457,5.0444866 64.1256991,4.59579614 64.4500271,4.26961518 C64.774355,3.94343423 65.2220677,3.77052737 65.6814475,3.79404 C65.9466952,3.78291689 66.2109792,3.83252866 66.454135,3.93909 L66.3527125,4.28184 C66.1463006,4.1889341 65.9218993,4.14281835 65.6955775,4.146795 C65.3400625,4.12700664 64.9938744,4.26478855 64.7491843,4.52345678 C64.5044943,4.78212501 64.3861371,5.13542613 64.425625,5.489295 C64.387896,5.83635563 64.5053554,6.18236395 64.746572,6.43473098 C64.9877886,6.687098 65.3281396,6.82006277 65.67655,6.798045 C65.9119945,6.80152384 66.1455371,6.75543064 66.362005,6.66276 L66.449245,6.995955 Z" id="Path" fill="#5192F2"></path>
                <polygon id="Path" fill="#5192F2" points="67.7275975 4.2047625 66.7375 4.2047625 66.7375 3.8471925 69.14725 3.8471925 69.14725 4.2047625 68.1526975 4.2047625 68.1526975 7.1022675 67.7276275 7.1022675"></polygon>
                <path d="M69.8583775,10.5886875 L61.6156,10.5886875 C61.4903832,10.5886875 61.388875,10.4871793 61.388875,10.3619625 C61.388875,10.2367457 61.4903832,10.1352375 61.6156,10.1352375 L69.8583775,10.1352375 C69.9393785,10.1350821 70.0143095,10.178152 70.0549446,10.2482233 C70.0955797,10.3182945 70.0957455,10.4047216 70.0553796,10.4749483 C70.0150137,10.5451749 69.9402485,10.5885321 69.8592475,10.5886875 L69.8583775,10.5886875 Z" id="Path" fill-opacity="0.94553" fill="#5192F2" opacity="0.3"></path>
                <path d="M69.8583775,12.8086725 L61.6156,12.8086725 C61.4903832,12.8086725 61.388875,12.7071643 61.388875,12.5819475 C61.388875,12.4567307 61.4903832,12.3552225 61.6156,12.3552225 L69.8583775,12.3552225 C69.9393785,12.3550671 70.0143095,12.398137 70.0549446,12.4682083 C70.0955797,12.5382795 70.0957455,12.6247066 70.0553796,12.6949333 C70.0150137,12.7651599 69.9402485,12.8085171 69.8592475,12.8086725 L69.8583775,12.8086725 Z" id="Path" fill-opacity="0.94553" fill="#5192F2" opacity="0.3"></path>
                <path d="M64.79005,17.3442975 L51.17161,17.3442975 C51.0463932,17.3442975 50.944885,17.2427893 50.944885,17.1175725 C50.944885,16.9923557 51.0463932,16.8908475 51.17161,16.8908475 L64.79005,16.8908475 C64.871051,16.8906921 64.945982,16.933762 64.9866171,17.0038333 C65.0272522,17.0739045 65.027418,17.1603316 64.9870521,17.2305583 C64.9466862,17.3007849 64.871921,17.3441421 64.79092,17.3442975 L64.79005,17.3442975 Z" id="Path" fill-opacity="0.94553" fill="#5192F2" opacity="0.3"></path>
                <path d="M69.6723775,20.1346575 L45.6613975,20.1346575 C45.5361807,20.1348998 45.4342333,20.033588 45.4342333,19.9083713 C45.4342333,19.7831545 45.5353032,19.6814498 45.66052,19.6812075 L69.6723775,19.6812075 C69.7975943,19.6809652 69.8995417,19.782277 69.8995417,19.9074938 C69.8995417,20.0327105 69.7984718,20.1344152 69.673255,20.1346575 L69.6723775,20.1346575 Z" id="Path" fill-opacity="0.94553" fill="#5192F2" opacity="0.3"></path>
                <path d="M69.6723775,22.68783 L45.6613975,22.68783 C45.5361807,22.6880723 45.4342333,22.5867605 45.4342333,22.4615438 C45.4342333,22.336327 45.5353032,22.2346223 45.66052,22.23438 L69.6723775,22.23438 C69.7975943,22.2341377 69.8995417,22.3354495 69.8995417,22.4606663 C69.8995417,22.585883 69.7984718,22.6875877 69.673255,22.68783 L69.6723775,22.68783 Z" id="Path" fill-opacity="0.94553" fill="#5192F2" opacity="0.3"></path>
                <path d="M69.6723775,25.24083 L45.6613975,25.24083 C45.5361807,25.24083 45.4346725,25.1393218 45.4346725,25.014105 C45.4346725,24.8888882 45.5361807,24.78738 45.6613975,24.78738 L69.6723775,24.78738 C69.7975943,24.78738 69.8991025,24.8888882 69.8991025,25.014105 C69.8991025,25.1393218 69.7975943,25.24083 69.6723775,25.24083 L69.6723775,25.24083 Z" id="Path" fill-opacity="0.94553" fill="#5192F2" opacity="0.3"></path>
                <path d="M69.6723775,27.7938225 L45.6613975,27.7938225 C45.5361807,27.7938225 45.4346725,27.6923143 45.4346725,27.5670975 C45.4346725,27.4418807 45.5361807,27.3403725 45.6613975,27.3403725 L69.6723775,27.3403725 C69.7975943,27.3403725 69.8991025,27.4418807 69.8991025,27.5670975 C69.8991025,27.6923143 69.7975943,27.7938225 69.6723775,27.7938225 L69.6723775,27.7938225 Z" id="Path" fill-opacity="0.94553" fill="#5192F2" opacity="0.3"></path>
                <path d="M69.8583775,34.657065 L61.6156,34.657065 C61.534599,34.657065 61.4597509,34.6138515 61.4192504,34.5437025 C61.3787498,34.4735535 61.3787498,34.3871265 61.4192504,34.3169775 C61.4597509,34.2468285 61.534599,34.203615 61.6156,34.203615 L69.8583775,34.203615 C69.9393785,34.203615 70.0142266,34.2468285 70.0547271,34.3169775 C70.0952277,34.3871265 70.0952277,34.4735535 70.0547271,34.5437025 C70.0142266,34.6138515 69.9393785,34.657065 69.8583775,34.657065 L69.8583775,34.657065 Z" id="Path" fill="#5192F2"></path>
                <path d="M62.2549825,35.5245 C62.1899123,35.5245 62.127989,35.496495 62.0849575,35.447685 C61.6773982,34.7191837 61.5867843,33.8553095 61.8343075,33.058095 C61.8761194,32.8712395 61.9307179,32.6874769 61.9977175,32.508105 C61.9498254,31.68824 61.7170105,30.8898438 61.3167175,30.17274 C61.2604095,30.0855973 61.16756,30.0287563 61.0643425,30.01824 C60.8896568,30.0407022 60.7347644,30.1416377 60.6436675,30.2923725 C60.089231,31.395558 59.9019722,32.6470945 60.1092325,33.8642475 C60.1278188,33.9430353 60.1029605,34.0257539 60.0440214,34.081244 C59.9850823,34.1367341 59.9010168,34.1565654 59.8234914,34.1332677 C59.745966,34.10997 59.6867588,34.0470828 59.6681725,33.968295 C59.4467875,33.0302325 59.61061,30.912045 60.2814625,30.0200325 C60.4513596,29.7596763 60.7315942,29.5919632 61.0413325,29.56527 C61.2895741,29.5618794 61.5235056,29.6811772 61.6665325,29.8841025 C62.0442224,30.4750385 62.281872,31.1444723 62.3613325,31.84128 C62.462614,31.7118136 62.5933017,31.6083587 62.7425575,31.539495 C63.0718342,31.4021023 63.450468,31.462447 63.7207225,31.69539 C63.73264,31.6322775 63.74593,31.5709575 63.76012,31.5118425 C63.90712,30.90804 64.1758975,30.527235 64.53637,30.41037 C64.8168616,30.3152055 65.1267531,30.3751309 65.351545,30.568005 C65.6215275,30.8164 65.8234946,31.1297179 65.9382475,31.478175 C66.06268,30.70638 66.299575,30.05853 66.7140325,29.8749825 C67.0886425,29.708955 67.5106225,29.9186025 67.9649575,30.5000025 C68.144543,30.7724458 68.2767409,31.0733089 68.355955,31.389855 C68.4786025,31.7766225 68.60524,32.1767325 68.8253125,32.238855 C68.968825,32.2714575 69.4063,31.7102025 69.5736325,31.4972175 C69.7541275,31.2242434 69.9827989,30.9864001 70.2484675,30.795315 C70.3155067,30.7604075 70.3955242,30.7611627 70.4618926,30.7973292 C70.5282611,30.8334957 70.5722711,30.9003275 70.5792775,30.975585 L70.61296,31.349715 C70.6182972,31.4096251 70.5996148,31.4692015 70.5610234,31.5153362 C70.522432,31.5614709 70.4670932,31.5903843 70.4071825,31.595715 L70.4070025,31.595715 C70.3120082,31.6025678 70.2224726,31.5506777 70.1811925,31.4648475 C70.0992625,31.5620475 70.01206,31.6725375 69.93013,31.7772375 C69.5187475,32.3010675 69.132175,32.797005 68.70226,32.6752575 C68.24701,32.546655 68.082715,32.0281275 67.92376,31.5266475 C67.8579514,31.2624054 67.751111,31.0101181 67.6071325,30.77898 C67.3113625,30.3996675 67.05232,30.222555 66.89731,30.2896575 C66.5059,30.46302 66.313285,31.69488 66.279205,32.8619025 C66.3705743,33.439714 66.3989305,34.0257388 66.363775,34.6096725 C66.3525344,34.722563 66.2595808,34.8097661 66.1462033,34.8137844 C66.0328258,34.8178027 65.9339319,34.7373989 65.9147275,34.6255875 C65.8350199,34.0421786 65.8042202,33.4531277 65.82265,32.8645875 C65.7738235,32.1550611 65.5103609,31.4771633 65.067235,30.92088 C64.9618017,30.8237683 64.8111653,30.7932325 64.6762375,30.84162 C64.4760625,30.9064575 64.306945,31.182555 64.200625,31.6189575 C64.1618198,31.7829052 64.133433,31.9491452 64.115635,32.11668 C64.6811651,32.9018237 64.8458863,33.906689 64.560625,34.8312975 C64.5298245,34.8992223 64.467571,34.9476404 64.3941542,34.9607715 C64.3207375,34.9739026 64.2455605,34.9500649 64.193125,34.8970275 C63.7636375,34.46265 63.58075,33.263745 63.65113,32.2548225 C63.6259225,32.224725 63.599755,32.1963225 63.573655,32.1696 C63.4270316,31.9624833 63.1620995,31.875779 62.921395,31.956135 C62.7045882,32.0971197 62.5435177,32.3090702 62.4657475,32.555715 C62.5996748,33.4827129 62.6028028,34.4239224 62.47504,35.35179 C62.4549713,35.4337523 62.3909805,35.4977489 62.30902,35.517825 C62.2913517,35.5222698 62.2732013,35.5245 62.2549825,35.5245 L62.2549825,35.5245 Z M64.101925,33.0981375 C64.122422,33.4247246 64.1767453,33.7483041 64.2640225,34.06368 C64.2648006,33.734997 64.2099878,33.4085491 64.1019025,33.0981375 L64.101925,33.0981375 Z" id="Shape" fill="#5192F2"></path>
                <path d="M53.95423,34.657065 L45.71125,34.657065 C45.5860333,34.657065 45.484525,34.5555567 45.484525,34.43034 C45.484525,34.3051233 45.5860333,34.203615 45.71125,34.203615 L53.95426,34.203615 C54.035261,34.203615 54.1101091,34.2468285 54.1506096,34.3169775 C54.1911102,34.3871265 54.1911102,34.4735535 54.1506096,34.5437025 C54.1101091,34.6138515 54.035261,34.657065 53.95426,34.657065 L53.95423,34.657065 Z" id="Path" fill="#5192F2"></path>
                <path d="M46.3587625,36.6184725 C46.1553025,36.6184725 45.86485,36.522585 45.63523,36.0662775 C45.097885,34.998 45.16432,32.416455 45.9655675,31.337805 C46.129657,31.0932414 46.3773033,30.916913 46.6620925,30.8418675 C46.634215,30.6363675 46.606735,30.44241 46.5815275,30.2637525 C46.53367,29.9272275 46.491655,29.6303325 46.4646025,29.3918925 C46.4519062,29.2681827 46.5411884,29.1573177 46.664761,29.1433484 C46.7883335,29.1293792 46.9001118,29.2175153 46.9153525,29.3409375 C46.9419325,29.5761 46.983355,29.868585 47.0304925,30.20022 C47.0588575,30.401055 47.0894275,30.6155925 47.1197425,30.840315 C47.5749515,31.0169865 47.951743,31.3509926 48.1817425,31.7817225 C48.3209628,31.3732154 48.6928925,31.0890639 49.12363,31.0621275 L49.1291725,31.0621275 C49.88899,31.0666275 50.545,32.09298 50.8341475,32.62521 C50.9933315,32.4168739 51.2434284,32.2983663 51.5054725,32.307105 C52.2918775,32.35317 52.848895,33.28146 53.16241,34.1692875 C53.2486239,33.8833295 53.4245384,33.6326896 53.66416,33.4544025 C53.9669537,33.2659069 54.3530896,33.2766282 54.6449575,33.481635 C54.75369,33.5435563 54.7916808,33.6818712 54.729833,33.7906455 C54.6679853,33.8994198 54.5296961,33.9375041 54.42088,33.87573 C54.11446,33.7010625 53.9617075,33.80136 53.91163,33.8343075 C53.5405542,34.2589887 53.3727752,34.8241923 53.4520375,35.382555 L53.4555475,35.4239775 C53.4660331,35.5479977 53.3744848,35.6572434 53.2505425,35.6686125 C53.1271328,35.6784979 53.0181491,35.5886607 53.0043025,35.4656325 C53.00257,35.45169 53.0016775,35.4375 53.0003725,35.423325 C52.91044,34.5113625 52.26487,32.8056675 51.478885,32.759655 C51.298195,32.7523275 51.155635,32.9214525 51.062635,33.0906375 C51.3841375,33.81393 51.69058,34.8283875 51.359365,35.30949 C51.2336653,35.4915107 51.0135977,35.583826 50.7956575,35.5459575 C50.7395221,35.5395242 50.6878437,35.5122625 50.65084,35.4695625 C50.2574244,34.7315485 50.2249299,33.8536921 50.5627075,33.0886125 C50.5365875,33.0343775 50.5091375,32.9799875 50.4803575,32.9254425 C50.041315,32.0843325 49.4971075,31.517775 49.126495,31.51557 L49.1240575,31.51557 C48.78484,31.51557 48.58342,31.9214025 48.472045,32.278965 C48.740025,32.7914668 48.9397908,33.3368313 49.066255,33.90117 C49.25911,34.8286275 49.119415,35.501445 48.6730675,35.795955 C48.6349693,35.8225794 48.5890837,35.8357458 48.542665,35.8333725 C47.81359,35.81544 47.8217575,33.8812575 47.825095,33.660705 C47.827888,33.2134432 47.8822803,32.7679973 47.9871925,32.333205 C47.7983896,31.9498106 47.5243831,31.6146876 47.18614,31.35348 C47.42389,33.287895 47.558785,35.700075 46.5026575,36.567105 C46.4620586,36.6003219 46.4112185,36.6184725 46.3587625,36.6184725 Z M46.72168,31.29615 C46.5614355,31.3563667 46.4242323,31.465533 46.32955,31.60815 C45.6441025,32.5309575 45.5721175,34.9316325 46.04017,35.8623675 C46.0893824,35.9828022 46.1764136,36.083974 46.2881425,36.15063 C47.1028975,35.34675 46.9410475,33.04791 46.72168,31.29615 Z M48.318865,33.0217275 C48.2060013,33.7943582 48.277162,34.5826989 48.526555,35.3226075 C48.7367387,34.9107908 48.7713054,34.4314399 48.6223825,33.9937275 C48.5507279,33.6612351 48.4491336,33.3359086 48.3188425,33.0217275 L48.318865,33.0217275 Z M50.84218,33.759045 C50.7401855,34.2025776 50.7730354,34.6664691 50.936515,35.0912025 C50.9571732,35.0848285 50.9747988,35.0711413 50.98609,35.052705 C51.0897507,34.6178541 51.0388717,34.160484 50.84218,33.759045 Z" id="Shape" fill="#3C77FF"></path>
                <g id="Group" opacity="0.34" transform="translate(43.750000, 9.000000)" fill="#FFB722">
                    <path d="M5.9787225,10.96791 C4.34857455,10.9681191 2.80635884,10.2287429 1.78569517,8.9576693 C0.765031509,7.68659572 0.376150477,6.02109937 0.7283925,4.4294625 L0.7283925,4.4294625 C1.34173115,1.68736982 3.96623794,-0.117482613 6.74623142,0.291042552 C9.5262249,0.699567718 11.5205362,3.18316399 11.3190694,5.985782 C11.1176026,8.7884 8.78856443,10.9612114 5.9787225,10.96791 L5.9787225,10.96791 Z M2.94111,4.922775 C2.56852187,6.59447087 3.62160837,8.25170372 5.29328604,8.6243735 C6.96496371,8.99704328 8.622248,7.94403772 8.99499943,6.27237826 C9.36775086,4.6007188 8.31482625,2.94338308 6.643185,2.57055 C5.84032999,2.39148592 4.99922461,2.53872055 4.30493527,2.97985822 C3.61064594,3.42099588 3.12005644,4.11989376 2.94111,4.922775 Z" id="Shape"></path>
                </g>
                <path d="M47.771185,14.16348 C48.0109395,13.0881781 49.0770017,12.4108317 50.1523044,12.6505827 C51.227607,12.8903337 51.9049569,13.9563937 51.6652094,15.0316971 C51.425462,16.1070006 50.3594042,16.7843539 49.2841,16.54461 C48.7677162,16.4294799 48.3182179,16.1139313 48.0344909,15.6673821 C47.7507639,15.220833 47.6560498,14.6798627 47.771185,14.16348 L47.771185,14.16348 Z" id="Path" fill="#FCE0B0"></path>
                <path d="M40.91383,119.051017 C40.91383,119.051017 33.8557825,102.00825 36.7375,98.582715 C39.6192175,95.15718 45.5080375,109.443757 46.8862375,107.331225 C48.2644375,105.218692 43.190095,86.607045 48.139195,83.10405 C53.088295,79.601055 52.3991275,103.720237 55.0929625,101.008597 C57.7867975,98.2969575 58.25746,87.916275 60.9978475,91.50108 C63.738235,95.085885 56.84704,106.289145 59.791465,106.360507 C62.73589,106.43187 64.583215,102.364447 65.601595,105.361507 C66.619975,108.358567 58.242175,131.006077 58.242175,131.006077 L40.91383,119.051017 Z" id="Path" fill="#AFCFFF"></path>
                <path d="M45.0945325,119.496698 C45.0444761,119.493735 45.0042447,119.454361 45.000205,119.40438 C44.4657788,115.845427 43.6177268,112.340696 42.465955,108.931125 C41.1933593,105.519501 39.4282693,102.312512 37.2268075,99.412125 C37.191529,99.3658858 37.1944451,99.3010149 37.23373,99.2581275 C37.266964,99.2226288 37.3226814,99.2207888 37.358185,99.2540175 L37.368685,99.265815 C39.5851443,102.186218 41.3623123,105.415253 42.643705,108.85029 C43.8006904,112.275359 44.6525085,115.796038 45.189205,119.371185 C45.1995611,119.427228 45.1645157,119.481653 45.10921,119.495415 L45.0945325,119.496698 Z" id="Path" fill="#FFFFFF"></path>
                <path d="M51.415,120.051877 C51.3630364,120.048613 51.322008,120.006491 51.32011,119.95446 C51.316015,119.909782 50.8904125,115.374525 49.48936,103.936785 C48.660641,96.5138023 48.6607064,89.0216407 49.489555,81.5986725 C49.492565,81.5448852 49.5386076,81.5037216 49.592395,81.5065751 L49.5982375,81.5072325 C49.6535509,81.5207095 49.6887627,81.5749776 49.6785325,81.6309825 C48.8523935,89.0333397 48.8524589,96.5046373 49.6787275,103.90698 C51.0803275,115.34898 51.506125,119.886773 51.5102275,119.93148 C51.5184903,119.987751 51.4810809,120.040584 51.42526,120.05148 L51.415,120.051877 Z" id="Path" fill="#FFFFFF"></path>
                <path d="M53.48275,119.469892 L53.472625,119.46945 C53.416947,119.458645 53.3795054,119.4061 53.38747,119.349945 C53.39272,119.290792 53.9531575,113.336242 56.81704,102.480945 C59.684815,91.610775 61.94227,88.7874975 62.036995,88.67265 C62.0511216,88.6541847 62.072005,88.6420876 62.0950509,88.63902 C62.1180969,88.6359524 62.1414176,88.6421655 62.1598825,88.6562925 L62.1719875,88.6674975 C62.2105395,88.7110042 62.2124341,88.7758646 62.1764875,88.8215475 C62.1535225,88.84962 59.85049,91.7396625 57.0000925,102.543877 C54.1423975,113.37666 53.5830475,119.313337 53.577655,119.372047 C53.5760236,119.424272 53.5349009,119.466669 53.48275,119.469892 Z" id="Path" fill="#FFFFFF"></path>
                <path d="M58.680415,119.496697 C58.6302999,119.493889 58.5899996,119.454425 58.58614,119.40438 C58.5724825,119.304383 58.28356,116.895953 60.9165925,112.073085 C61.3653625,111.25071 61.7887525,110.489085 62.182405,109.780763 C64.0632325,106.39632 65.305855,104.16057 65.285155,102.514103 C65.2809475,102.457631 65.3230034,102.408305 65.37943,102.40353 L65.3807575,102.40353 C65.4364852,102.40727 65.4789747,102.454914 65.4763375,102.510705 C65.49787,104.222302 64.3108375,106.358438 62.3439325,109.897305 C61.9506925,110.60484 61.5274675,111.366368 61.0790875,112.187933 C58.48324,116.94276 58.7719075,119.347365 58.7750875,119.371215 C58.7854559,119.427242 58.7504386,119.481663 58.6951525,119.495445 L58.680415,119.496697 Z" id="Path" fill="#FFFFFF"></path>
                <path d="M59.34718,94.7028903 C59.3037449,94.7009774 59.2667686,94.6706622 59.2563775,94.628445 L58.576975,92.30931 C58.5592646,92.2546638 58.5852904,92.1954159 58.637515,92.17149 C58.6869263,92.1553805 58.740042,92.1823732 58.7561575,92.2317825 L58.75852,92.2404 L59.4379225,94.559535 C59.4556512,94.6141781 59.4296235,94.6734345 59.37739,94.6973475 C59.3677471,94.7010393 59.3575054,94.7029183 59.34718,94.7028903 L59.34718,94.7028903 Z" id="Path" fill="#FFFFFF"></path>
                <path d="M58.236895,97.9886518 C58.1877524,97.9859195 58.1479137,97.9478151 58.1430025,97.8988425 L57.700345,95.0730525 C57.6890032,95.0171653 57.7227582,94.9620091 57.777685,94.9466775 C57.8308686,94.9389579 57.8802426,94.9758079 57.8879725,95.02899 L57.8886325,95.03472 L58.33123,97.8605775 C58.3425674,97.9164621 58.3088134,97.9716136 58.25389,97.986945 C58.2483049,97.9881364 58.2426054,97.9887074 58.236895,97.9886518 L58.236895,97.9886518 Z" id="Path" fill="#FFFFFF"></path>
                <path d="M57.045775,102.106928 C57.0037285,102.105379 56.9675033,102.076833 56.956165,102.036315 L56.08249,99.3772875 C56.0631324,99.3229985 56.0872531,99.2627932 56.13874,99.2368875 C56.1865837,99.2185922 56.2402002,99.242543 56.2585,99.290385 L56.26177,99.3006975 L57.135445,101.959725 C57.1548026,102.014014 57.1306819,102.074219 57.079195,102.100125 C57.0686353,102.104647 57.0572623,102.106962 57.045775,102.106928 L57.045775,102.106928 Z" id="Path" fill="#FFFFFF"></path>
                <path d="M56.27431,105.093196 C56.230971,105.091489 56.1940122,105.061264 56.18374,105.019125 L55.00234,101.043322 C54.9842335,100.988824 55.0100538,100.929433 55.0622575,100.905502 C55.1102607,100.888433 55.1630124,100.91351 55.1800825,100.961512 L55.1834575,100.973512 L56.3648575,104.949315 C56.3829636,105.003832 56.3571482,105.06324 56.30494,105.087202 C56.2952255,105.091202 56.2848154,105.093238 56.27431,105.093196 Z" id="Path" fill="#FFFFFF"></path>
                <path d="M49.28284,101.117332 C49.2548218,101.116882 49.2285704,101.10356 49.211665,101.081212 C49.1764987,101.034881 49.1795727,100.970013 49.2189625,100.927215 L53.41867,96.6382725 C53.4346262,96.6213035 53.4566706,96.6113694 53.4799523,96.6106151 C53.503234,96.6099432 53.5258452,96.6185094 53.54281,96.63447 L53.5536625,96.64677 C53.5888432,96.6930886 53.5857914,96.7579564 53.5464175,96.8007675 L49.3467175,101.089717 C49.329971,101.107089 49.3069673,101.117034 49.28284,101.117332 Z" id="Path" fill="#FFFFFF"></path>
                <path d="M49.28284,97.9886475 C49.2553634,97.9881721 49.2295633,97.9753423 49.2126025,97.95372 C49.1768438,97.9078873 49.1790553,97.8430209 49.2178525,97.79973 L53.0040925,93.8043525 C53.0369265,93.7684038 53.0926847,93.7658754 53.1286375,93.798705 L53.13928,93.8103375 C53.1750706,93.8561626 53.1728584,93.9210537 53.13403,93.964335 L49.3478275,97.959705 C49.3310359,97.9778358 49.3075495,97.9882956 49.28284,97.9886475 L49.28284,97.9886475 Z" id="Path" fill="#FFFFFF"></path>
                <path d="M48.9539725,94.500375 C48.9251715,94.4999991 48.8982705,94.4859317 48.88153,94.4624925 C48.8471868,94.4156442 48.8514304,94.350902 48.891595,94.3089375 L52.29214,90.97302 C52.3259041,90.9383829 52.3813529,90.9376711 52.415995,90.97143 L52.4269975,90.9844725 C52.4612937,91.031356 52.4570529,91.0960798 52.4169325,91.1380875 L49.0163275,94.474005 C48.9998971,94.4907679 48.9774447,94.5002631 48.9539725,94.500375 L48.9539725,94.500375 Z" id="Path" fill="#FFFFFF"></path>
                <path d="M48.9539725,91.3631325 C48.9242296,91.3626719 48.8965729,91.3477607 48.8798425,91.323165 C48.8465226,91.275407 48.852337,91.2106127 48.8936275,91.16955 L52.2942325,88.015695 C52.3298232,87.9822248 52.3858035,87.9839269 52.419295,88.0194975 L52.4287225,88.03143 C52.4620678,88.0791912 52.4562253,88.1440157 52.4148775,88.185045 L49.01425,91.3389 C48.9979274,91.3542821 48.9764002,91.3629364 48.9539725,91.3631325 L48.9539725,91.3631325 Z" id="Path" fill="#FFFFFF"></path>
                <path d="M49.0672975,88.2092775 C49.0387308,88.2088143 49.0120441,88.1949473 48.995245,88.1718375 C48.9605852,88.1252314 48.9644322,88.0604583 49.004365,88.0182825 L51.3522625,85.6838475 C51.3684169,85.6671067 51.3905606,85.65747 51.4138211,85.6570441 C51.4370815,85.6566458 51.4595527,85.665492 51.47629,85.68165 L51.487255,85.6944825 C51.5219117,85.7410895 51.5180648,85.8058604 51.478135,85.8480375 L49.1302375,88.182465 C49.1136409,88.1993919 49.0910021,88.209036 49.0672975,88.2092775 Z" id="Path" fill="#FFFFFF"></path>
                <path d="M41.52136,106.45629 L36.45886,106.45629 C36.4041699,106.449142 36.3632638,106.402541 36.3632638,106.347386 C36.3632638,106.292231 36.4041699,106.245631 36.45886,106.238482 L41.52136,106.238482 C41.5760718,106.245604 41.6170066,106.292213 41.6170066,106.347386 C41.6170066,106.40256 41.5760718,106.449168 41.52136,106.45629 L41.52136,106.45629 Z" id="Path" fill="#FFFFFF"></path>
                <path d="M37.2976075,110.4321 C37.2488047,110.429396 37.209129,110.391765 37.2038575,110.343173 C37.1920919,110.287314 37.2254135,110.231839 37.2802525,110.215988 L42.6367,109.072778 C42.6622238,109.068919 42.6882348,109.07536 42.7090096,109.090681 C42.7297845,109.106003 42.7436212,109.128951 42.747475,109.154475 L42.74815,109.159995 C42.7599786,109.215862 42.7266675,109.271384 42.6718075,109.28724 L37.31536,110.430383 C37.309523,110.431601 37.3035698,110.432174 37.2976075,110.4321 L37.2976075,110.4321 Z" id="Path" fill="#FFFFFF"></path>
                <path d="M38.0845675,114.059063 C38.0396937,114.057014 38.001932,114.024775 37.9928725,113.980777 C37.9766243,113.925783 38.0045168,113.867396 38.0575075,113.845477 L43.5276775,112.008825 C43.5777909,111.994527 43.6300074,112.023558 43.64431,112.07367 L43.6464325,112.082835 C43.662704,112.137813 43.6348393,112.196203 43.581865,112.218135 L38.111635,114.05478 C38.1028951,114.057627 38.0937595,114.059063 38.0845675,114.059063 L38.0845675,114.059063 Z" id="Path" fill="#FFFFFF"></path>
                <path d="M39.47119,117.261825 C39.4274282,117.259913 39.3902748,117.229137 39.3802525,117.186495 C39.3628647,117.131695 39.3893788,117.072574 39.441865,117.04911 L44.324365,115.256257 C44.348316,115.24885 44.3742289,115.251263 44.3964001,115.262967 C44.4185712,115.27467 44.4351834,115.294703 44.44258,115.318658 L44.4446275,115.326427 C44.4620242,115.381242 44.4355114,115.440383 44.383015,115.463865 L39.500515,117.256718 C39.491098,117.260062 39.4811831,117.261789 39.47119,117.261825 L39.47119,117.261825 Z" id="Path" fill="#FFFFFF"></path>
                <path d="M58.6677775,118.313528 C58.622699,118.311467 58.5848013,118.279005 58.5758425,118.234778 C58.5598266,118.179707 58.5880762,118.121448 58.641235,118.09992 L62.4351025,116.853818 C62.4590526,116.84696 62.484746,116.849898 62.5065294,116.861986 C62.5283128,116.874074 62.5444013,116.894321 62.551255,116.918273 L62.5535425,116.92827 C62.5695602,116.983337 62.5413178,117.041594 62.488165,117.063128 L58.6942825,118.309223 C58.6857435,118.312102 58.6767888,118.313556 58.6677775,118.313528 L58.6677775,118.313528 Z" id="Path" fill="#FFFFFF"></path>
                <path d="M59.081995,116.737673 C59.0394705,116.735985 59.0029843,116.706841 58.9919425,116.66574 C58.9731326,116.611326 58.9979258,116.551436 59.0496925,116.52624 L63.3028225,114.782355 C63.3262255,114.774009 63.3519854,114.775302 63.374435,114.78595 C63.3968846,114.796597 63.4141849,114.815727 63.42253,114.83913 L63.4251625,114.84786 C63.4439707,114.902264 63.419197,114.962146 63.36745,114.98736 L59.1143125,116.731305 C59.1040411,116.735457 59.0930738,116.737618 59.081995,116.737673 Z" id="Path" fill="#FFFFFF"></path>
                <path d="M59.82634,114.649995 C59.7801461,114.647812 59.7416538,114.613864 59.733715,114.568305 C59.7189708,114.51299 59.7486671,114.455525 59.8023175,114.435555 L64.2389575,113.124323 C64.2907619,113.112347 64.3424678,113.144626 64.3544575,113.196428 L64.3556725,113.202608 C64.3704402,113.257904 64.3407756,113.315369 64.287145,113.335358 L59.85043,114.646598 C59.8425776,114.648752 59.834482,114.649894 59.82634,114.649995 Z" id="Path" fill="#FFFFFF"></path>
                <path d="M60.778225,112.649535 C60.7307707,112.647115 60.69165,112.611479 60.6848275,112.564455 C60.6715069,112.508811 60.7030119,112.452234 60.75733,112.434255 L65.054905,111.335355 C65.0801341,111.330512 65.1062535,111.33589 65.1275173,111.350306 C65.1487812,111.364721 65.1634475,111.386993 65.16829,111.412223 L65.16919,111.417855 C65.1825158,111.473499 65.1510136,111.53008 65.096695,111.548063 L60.799195,112.64703 C60.7923291,112.648694 60.7852896,112.649535 60.778225,112.649535 L60.778225,112.649535 Z" id="Path" fill="#FFFFFF"></path>
                <path d="M61.8442225,110.70225 C61.7962098,110.699698 61.7568946,110.663171 61.750825,110.615475 C61.7380912,110.559804 61.770281,110.503694 61.8247675,110.486588 L65.3613025,109.64463 C65.3868798,109.640348 65.4131106,109.646401 65.4342241,109.66146 C65.4553377,109.676518 65.4696042,109.699347 65.473885,109.724925 L65.474515,109.729275 C65.4872488,109.784946 65.455059,109.841056 65.4005725,109.858163 L61.8640225,110.70012 C61.857507,110.701469 61.8508759,110.702183 61.8442225,110.70225 Z" id="Path" fill="#FFFFFF"></path>
                <path d="M62.78938,108.999652 C62.7451326,108.997685 62.7077014,108.966291 62.69806,108.923062 C62.6810662,108.868303 62.7081338,108.809547 62.7607975,108.786877 L66.0160975,107.627565 C66.0655794,107.612198 66.1181496,107.639854 66.1335175,107.689335 L66.1359775,107.699085 C66.1529711,107.753828 66.1258945,107.812568 66.0732325,107.835202 L62.8179325,108.994515 C62.8087878,108.997881 62.7991244,108.99962 62.78938,108.999652 L62.78938,108.999652 Z" id="Path" fill="#FFFFFF"></path>
                <path d="M63.7834525,107.16552 C63.7406701,107.163735 63.7040756,107.134208 63.6932875,107.09277 C63.674745,107.038402 63.6998786,106.978767 63.7517425,106.954073 L66.0290425,106.038488 C66.0774659,106.021217 66.1307223,106.046466 66.148,106.094888 L66.15094,106.104885 C66.1695009,106.15924 66.144389,106.218877 66.0925375,106.243583 L63.8152375,107.15916 C63.8051532,107.163315 63.794359,107.165474 63.7834525,107.16552 Z" id="Path" fill="#FFFFFF"></path>
                <path d="M64.417105,105.932131 C64.3777291,105.930838 64.3431897,105.905494 64.3301425,105.86832 C64.3076507,105.815113 64.3279816,105.753473 64.377715,105.724088 L66.005305,104.885153 C66.0501602,104.863025 66.10446,104.88145 66.1265875,104.926305 L66.1317325,104.939145 C66.154205,104.992373 66.133842,105.054017 66.084085,105.083385 L64.4565475,105.922388 C64.4444083,105.928848 64.430856,105.932195 64.417105,105.932131 Z" id="Path" fill="#FFFFFF"></path>
                <path d="M62.95627,137.208045 C62.95627,137.208045 68.477725,130.206705 67.89802,126.536618 C67.318315,122.86653 65.29477,126.688785 62.95627,127.387508 C60.61777,128.08623 65.6298475,117.475155 61.8464125,113.530695 C58.0629775,109.586235 52.89829,116.80506 50.762665,121.132973 C48.62704,125.460885 38.4915325,105.581168 35.1126325,108.368018 C31.7337325,111.154868 39.50812,137.1 39.50812,137.1 L62.95627,137.208045 Z" id="Path" fill="#5291F1"></path>
                <path d="M43.4291125,137.120317 C43.41904,137.029133 42.4125925,127.884158 40.4419,121.94421 C38.508085,116.116478 37.7653075,115.150852 37.7347225,115.112527 L38.1013,114.804352 C38.133085,114.841792 38.902795,115.784947 40.8963925,121.793602 C42.8832475,127.781692 43.915705,137.029102 43.9259725,137.120317 L43.4291125,137.120317 Z" id="Path" fill="#FFFFFF"></path>
                <path d="M51.36121,137.154615 L50.863105,137.152365 C51.2668347,133.727235 52.0713195,130.361353 53.2600375,127.123845 C54.3453572,124.425058 55.7717515,121.876337 57.50443,119.539845 L57.88039,119.836755 C56.1756697,122.137048 54.7722423,124.645985 53.704285,127.302465 C52.5361793,130.482235 51.7496516,133.789422 51.36121,137.154615 L51.36121,137.154615 Z" id="Path" fill="#FFFFFF"></path>
                <path d="M54.2944975,137.168145 L53.68462,137.182395 C55.107095,135.288424 56.7083392,133.535578 58.46626,131.94804 C60.3721459,130.382004 62.5902951,129.240735 64.97251,128.600482 L65.0875525,129.065288 C62.7833016,129.695844 60.6358613,130.79998 58.782355,132.307192 C57.1307382,133.776543 55.627558,135.404689 54.2944975,137.168145 Z" id="Path" fill="#FFFFFF"></path>
                <polygon id="Path" fill="#FFFFFF" points="42.2425 127.93725 37.83175 126.21975 38.0065 125.7735 42.09925 127.368 45.6985 123.1515 46.063 123.462"></polygon>
                <polygon id="Path" fill="#FFFFFF" points="40.915 122.58 36.46675 120.98475 36.628 120.534 40.69225 121.992 42.66475 118.4115 43.084 118.64175"></polygon>
                <polygon id="Path" fill="#FFFFFF" points="39.3025 117.978 36.49075 117.2895 36.604 116.8245 39.0715 117.42825 40.597 114.84225 41.0095 115.086"></polygon>
                <polygon id="Path" fill="#FFFFFF" points="43.10425 132.80475 39.04825 129.9195 39.32575 129.5295 43.00075 132.14325 46.1875 127.872 46.5715 128.15775"></polygon>
                <path d="M55.5246175,122.93925 L55.4923675,122.6835 C55.2565964,121.379413 55.1482436,120.055483 55.16884,118.730415 L55.6074025,118.923053 L55.38808,118.8267 L55.6158325,118.897815 C55.6623268,120.059267 55.7690779,121.217523 55.935655,122.367908 L60.109495,121.52481 L60.2039425,121.99431 L55.5246175,122.93925 Z" id="Path" fill="#FFFFFF"></path>
                <polygon id="Path" fill="#FFFFFF" points="53.49925 126.984 52.3525 122.71575 52.81375 122.59125 53.86225 126.4905 57.75475 126.336 57.77275 126.81525"></polygon>
                <polygon id="Path" fill="#FFFFFF" points="51.7855 132.765 49.55875 127.74975 49.996 127.5555 52.051 132.183 55.3015 131.19 55.44175 131.64825"></polygon>
                <rect id="Rectangle" fill="#FFFFFF" transform="translate(63.651653, 130.616187) rotate(-79.866060) translate(-63.651653, -130.616187) " x="63.412253" y="128.400968" width="1" height="4.4304375"></rect>
                <polygon id="Path" fill="#FFFFFF" points="63.60475 133.34775 58.57825 132.36225 58.6705 131.89275 63.69775 132.87825"></polygon>
                <rect id="Rectangle" fill="#FFFFFF" transform="translate(58.689117, 134.925972) rotate(-75.119720) translate(-58.689117, -134.925972) " x="58.4496865" y="132.550617" width="1" height="4.75071"></rect>
                <path d="M42.78181,150.237975 L37.8954175,144.186457 L42.78181,150.237975 Z" id="Path" fill="#004E15"></path>
                <rect id="Rectangle" fill="#FFFFFF" transform="translate(40.338656, 147.212179) rotate(-38.921440) translate(-40.338656, -147.212179) " x="40.1133672" y="143.323545" width="1" height="7.7772675"></rect>
                <path d="M45.072745,148.8405 L40.41067,143.2629 L45.072745,148.8405 Z" id="Path" fill="#004E15"></path>
                <rect id="Rectangle" fill="#FFFFFF" transform="translate(42.741786, 146.051727) rotate(-39.893820) translate(-42.741786, -146.051727) " x="42.5165648" y="142.416953" width="1" height="7.2695475"></rect>
                <path d="M47.498935,147.098107 L42.41881,141.91959 L47.498935,147.098107 Z" id="Path" fill="#004E15"></path>
                <rect id="Rectangle" fill="#FFFFFF" transform="translate(44.958766, 144.508488) rotate(-44.452160) translate(-44.958766, -144.508488) " x="44.7335443" y="140.881038" width="1" height="7.2549"></rect>
                <path d="M82.5265525,52.642725 C82.5265525,52.642725 78.0636775,63.554475 73.55077,65.348175 C67.47952,67.761225 58.91041,68.358975 58.91041,68.358975 L58.4665675,66.1689 C58.4665675,66.1689 66.6349675,63.086625 71.48035,59.80065 C73.3668175,58.5213 77.0890075,47.9244 77.770825,47.1009 C78.75886,45.9075 83.4982525,47.261025 82.5265525,52.642725 Z" id="Path" fill="#1D9E99"></path>
                <path d="M58.466545,66.1689 C58.466545,66.1689 54.7634875,65.78475 54.4281775,66.37335 C54.0928675,66.96195 55.30777,66.776775 55.1965525,67.19055 C55.085335,67.604325 50.8510525,68.45535 51.464335,68.886825 C52.0668511,69.1481028 52.7338631,69.222741 53.3792275,69.1011 C53.3792275,69.1011 51.6404425,69.606825 52.13011,69.860325 C52.6197775,70.113825 54.2349775,69.69105 54.2349775,69.69105 C54.2349775,69.69105 53.2562275,70.299075 53.773045,70.4949 C54.3335354,70.5599988 54.9014326,70.4860723 55.4265775,70.27965 C55.4265775,70.27965 54.7680775,71.4674325 55.4230525,71.129175 C56.0780275,70.7909175 58.91041,68.358975 58.91041,68.358975 L58.466545,66.1689 Z" id="Path" fill="#F1BA8F"></path>
                <polygon id="Path" fill="#FFFFFF" points="58.09525 66.0285 58.58125 68.7225 59.281 68.35425 58.80925 66.0435"></polygon>
                <path d="M88.81552,46.63065 C88.81552,46.63065 86.235055,40.898775 86.35717,39.0813825 C86.479285,37.26399 86.90092,33.4933575 83.894695,32.7063075 C80.88847,31.9192575 79.7541775,34.6443825 79.484095,35.7327825 C79.2140125,36.8211825 78.6637375,39.8019825 78.85387,39.8611575 C79.0440025,39.9203325 79.726345,39.5069325 79.726345,39.5069325 C79.726345,39.5069325 79.4439775,41.3958075 80.24062,42.050565 C80.7982987,42.4502775 81.4841536,42.6295066 82.1660875,42.5537325 C82.1660875,42.5537325 82.8347875,44.3134575 82.62037,45.0999825 C82.4385246,45.7019303 82.2141139,46.2901882 81.948835,46.8603075 C81.948835,46.8603075 87.915895,49.500525 88.81552,46.63065 Z" id="Path" fill="#FFB68E"></path>
                <path d="M86.2470025,47.297775 C86.2470025,47.297775 86.2245775,47.23515 86.184385,47.120175 C85.9633525,46.48785 85.2072175,44.271675 84.71041,42.16935 C84.12337,39.6846825 83.49772,37.303725 84.07336,37.132125 C85.0095775,36.852975 85.344685,35.457375 85.344685,35.457375 C85.344685,35.457375 84.3232525,34.65045 84.1560775,35.088525 C83.9889025,35.5266 83.9534275,36.592875 83.680945,36.592875 C83.4084625,36.592875 83.3069275,36.082725 82.7234125,35.0745 C82.4298875,34.5206826 82.0051267,34.0472268 81.4862875,33.69555 C82.2896153,33.6379949 83.0970005,33.6827026 83.8890625,33.8286 C84.8488375,34.06725 86.71303,39.748725 86.944045,41.373525 C87.17506,42.998325 88.96177,46.69065 88.96177,46.69065 C88.96177,46.69065 87.072535,48.7532325 86.2470025,47.297775 Z" id="Path" fill="#F1BA8F"></path>
                <path d="M86.944045,41.373525 C86.1644373,40.8564385 85.5085197,40.1737111 85.0230625,39.374025 C84.52078,38.315025 84.413845,37.7357925 84.6585625,37.303575 C85.172605,36.395775 84.761395,34.5762 84.316495,35.042475 C83.871595,35.50875 83.96347,36.8469 83.6439025,36.495075 C83.324335,36.14325 83.5793125,34.44285 82.5680875,33.897825 C81.5568625,33.3528 80.4946525,34.021575 79.73032,33.629925 C78.48937,32.99415 80.0609875,31.790025 83.0537275,31.6098 C84.0629425,31.548975 85.8060775,31.73955 86.5629775,32.97255 C87.06487,33.7902075 85.99006,34.3289325 86.93857,34.397025 C87.88708,34.4651175 88.355695,35.0538825 88.2250525,35.8064325 C87.952495,37.37625 86.4448525,39.459 86.944045,41.373525 Z" id="Path" fill="#333333"></path>
                <path d="M92.488795,137.56005 C92.4351195,138.321789 92.5216259,139.086912 92.74402,139.817438 L89.2244125,140.795925 L89.648005,134.6595 L93.1061125,135.117983 C92.8528554,135.919259 92.6467302,136.734677 92.488795,137.56005 L92.488795,137.56005 Z" id="Path" fill="#2E77CE"></path>
                <path d="M92.917885,139.625333 C92.917135,140.256908 92.881675,142.514408 92.881675,142.514408 L83.825875,142.552733 L84.384625,140.994458 C85.2981124,140.768459 86.1859317,140.449101 87.0340675,140.041425 C88.652035,139.2828 88.64146,138.699825 88.64146,138.699825 C88.64146,138.699825 89.67031,138.677175 89.648035,139.486275 C89.62576,140.295375 89.466835,140.217075 89.466835,140.217075 L92.917885,139.625333 Z" id="Path" fill="#0D1E43"></path>
                <path d="M84.34186,142.183875 C84.2641023,142.183909 84.2006305,142.121684 84.1990949,142.043941 C84.197614,141.966197 84.2586245,141.901557 84.336325,141.898575 L92.6665,141.56085 C92.7439931,141.561167 92.8083635,141.620716 92.8147,141.69795 C92.817836,141.776691 92.7565503,141.843067 92.67781,141.84621 L92.6776,141.84621 L84.347425,142.18386 L84.34186,142.183875 Z" id="Path" fill="#020023"></path>
                <path d="M80.85952,137.321025 C80.8057392,138.137712 80.8920591,138.957581 81.114745,139.74516 L77.59516,140.79591 L78.0187525,134.206215 L81.4769275,134.69856 C81.2232575,135.560749 81.0171444,136.436224 80.85952,137.321025 L80.85952,137.321025 Z" id="Path" fill="#2E77CE"></path>
                <path d="M81.2886025,139.625332 C81.2878525,140.256907 81.25237,142.514408 81.25237,142.514408 L72.19666,142.552732 L72.75541,140.994458 C73.6688999,140.76846 74.5567216,140.449102 75.40486,140.041425 C77.0228275,139.2828 77.0121775,138.699825 77.0121775,138.699825 C77.0121775,138.699825 78.0410275,138.677175 78.01876,139.486275 C77.9964925,140.295375 77.8375525,140.217075 77.8375525,140.217075 L81.2886025,139.625332 Z" id="Path" fill="#0D1E43"></path>
                <path d="M72.712585,142.183875 C72.6348258,142.183913 72.5713501,142.121689 72.5698123,142.043944 C72.5683294,141.9662 72.6293405,141.901557 72.7070425,141.898575 L81.0372175,141.56085 C81.1153,141.559652 81.1805484,141.620011 81.185425,141.69795 C81.1869308,141.735768 81.1733509,141.772635 81.147673,141.800439 C81.1219951,141.828244 81.0863229,141.844708 81.048505,141.84621 L81.048325,141.84621 L72.7181425,142.18386 L72.712585,142.183875 Z" id="Path" fill="#020023"></path>
                <path d="M80.88625,108.657525 C80.88625,108.657525 87.494275,87.4171575 87.31,86.595825 C87.125725,85.7744925 87.2683675,83.2284 90.7902175,83.4011925 C94.3120675,83.573985 93.9736,82.1210925 93.9736,82.1210925 C93.9736,82.1210925 83.1715675,74.7641175 81.6069325,75.0529425 C80.0422975,75.3417675 77.47561,78.1494675 77.47561,78.1494675 C77.47561,78.1494675 76.340035,99.9449925 76.677025,109.827442 C77.014015,119.709892 77.3523175,134.662267 77.3523175,134.662267 L81.466675,134.951392 L80.88625,108.657525 Z" id="Path" fill="#515C6C"></path>
                <path d="M87.624535,135.6081 C87.624535,135.6081 86.2402525,118.7421 86.05147,112.638675 C85.8398275,105.795375 82.75522,81.1147575 84.676945,78.53115 C85.8560275,76.945875 90.38977,79.1331 91.8002275,79.5543 C93.622195,80.09835 91.76221,77.73585 92.721595,78.53115 C94.9744525,80.39865 95.32432,83.3451 95.2305025,86.595825 C94.94497,96.48765 92.72116,112.32705 92.72116,112.32705 L93.4762375,135.293482 L87.624535,135.6081 Z" id="Path" fill="#606B7B"></path>
                <path d="M86.69857,78.6153 C85.1385836,78.7412625 83.5709814,78.7412625 82.010995,78.6153 C81.047298,78.5204623 80.0915157,78.3575809 79.1508025,78.127875 C79.1508025,78.127875 80.7721525,75.7101 82.62037,75.7092749 C84.09952,75.708675 86.69857,78.6153 86.69857,78.6153 Z" id="Path" fill="#CFE5E1"></path>
                <path d="M91.999495,88.179825 C95.6124625,88.9431825 97.5199375,87.7430925 97.37737,86.787225 C96.8589775,83.3127 93.7239775,63.4173075 95.0060875,59.4453 C96.51682,54.76545 95.9842375,49.500675 94.7210125,48.693825 C93.2017375,47.723625 86.3558875,46.375575 82.0585375,46.331325 C81.8845375,46.329525 81.7480375,46.24905 81.582895,46.2516122 C80.1506275,46.274175 79.03867,46.5466575 78.65497,46.98045 C77.1348775,48.69945 74.6646025,57.1870575 75.99472,61.2225075 C77.3248375,65.2579575 76.50922,76.9907325 76.50922,76.9907325 C76.50922,76.9907325 82.9333375,72.97725 86.6985625,77.7562575 C89.8104025,81.7059675 89.278045,87.6048075 91.999495,88.179825 Z" id="Path" fill="#1D9E99"></path>
                <path d="M89.212195,47.350425 L83.239405,60.08595 L82.0109725,46.441725 C82.0109725,46.441725 87.6023275,46.879275 89.212195,47.350425 Z" id="Path" fill="#FFFFFF"></path>
                <path d="M83.87437,46.350225 L84.89917,48.35055 C85.4678544,47.817279 86.0041557,47.2504934 86.5052255,46.653225 C86.5137025,46.46085 83.87437,46.350225 83.87437,46.350225 Z" id="Path" fill="#FF605F"></path>
                <polygon id="Path" fill="#FF605F" points="84.82975 47.4225 82.8925 56.23875 83.227 60.3195 84.86275 56.6235 85.39975 47.34975"></polygon>
                <path d="M80.6007625,63.17715 C81.5202082,66.3538236 82.8252268,69.4059414 84.4866775,72.26535 C87.80407,77.747775 92.09977,87.477525 92.09977,87.477525 L91.999495,88.179825 C89.557345,88.050825 85.018045,77.79705 83.192095,76.04445 C82.6974175,75.56955 79.3203775,86.196975 78.3395275,86.9154825 C76.61941,88.1754825 76.63717,87.4216575 76.19401,87.1782 C75.6033175,86.8536825 76.74745,65.68245 76.167235,63.5229825 C75.58702,61.363515 74.7396025,58.4624325 74.8317775,57.4677825 C74.9239525,56.4731325 78.392695,47.0299575 78.392695,47.0299575 C79.0889357,46.4448341 79.991335,46.164478 80.89657,46.2520575 L81.582895,46.251675 L81.637555,60.617775 L80.6007625,63.17715 Z" id="Path" fill="#1D9E99"></path>
                <path d="M82.66411,64.851375 L82.8889675,71.63715 L83.933335,63.2412 L88.84186,57.014175 L88.84186,56.46255 L92.58781,53.799225 C92.58781,53.799225 95.7957925,50.982975 94.8291175,48.9033 C94.5749425,48.35655 92.12716,47.76375 92.12716,47.76375 L88.96141,55.56135 L87.1795375,55.20165 L88.025005,57.17565 L82.6203475,63.533325 L82.66411,64.851375 Z" id="Path" fill="#1D9E99"></path>
                <polygon id="Path" fill="#FFFFFF" points="88.26025 47.706 88.9615 46.6905 87.04075 45.903 86.08675 47.05425 86.6515 47.34975 86.7355 47.817"></polygon>
                <polygon id="Path" fill="#FFFFFF" points="84.2335 47.00475 83.52925 45.57375 81.769 45.57375 82.40275 47.00475 83.40325 47.34975 83.52925 46.752"></polygon>
                <polygon id="Path" fill="#E25959" points="86.68675 47.54325 85.67725 47.5005 86.22325 46.8555 86.68675 46.8555"></polygon>
                <polygon id="Path" fill="#E25959" points="84.10975 46.752 83.54275 46.49175 83.45425 47.16 84.48625 47.51775"></polygon>
                <polygon id="Path" fill="#BC2800" points="85.639 47.54325 84.9895 47.931 84.40375 47.3505 84.69925 48.015 85.35775 48.075"></polygon>
                <path d="M95.4818125,55.0331325 C95.4818125,55.0331325 88.81552,66.6572325 83.462245,68.0004 C76.26046,69.80745 66.517345,69.19425 66.517345,69.19425 L66.3462775,66.66 C66.3462775,66.66 76.0110925,64.413825 81.9630025,61.439175 C84.28036,60.2810325 90.06496,48.900525 90.9567775,48.075 C91.676245,47.409075 93.755245,47.4276 94.9794625,48.9327 C95.95402,50.1309 96.32527,52.4103 95.4818125,55.0331325 Z" id="Path" fill="#42C6A1"></path>
                <path d="M66.3462775,66.66 C66.3462775,66.66 62.2324525,65.671125 61.76626,66.283875 C61.3000675,66.896625 62.6965525,66.870525 62.5091425,67.320075 C62.3217325,67.769625 57.42385,68.092575 58.0499575,68.67075 C58.676065,69.248925 60.17485,69.199725 60.17485,69.199725 C60.17485,69.199725 58.1401825,69.508425 58.6537,69.867525 C59.1672175,70.226625 61.0503175,69.992925 61.0503175,69.992925 C61.0503175,69.992925 59.8564075,70.53105 60.409225,70.82925 C61.030869,70.986726 61.6817253,70.9887093 62.3043175,70.835025 C62.3043175,70.835025 61.3841425,72.0743925 62.17276,71.7917175 C62.9613775,71.5090425 66.517345,69.1942425 66.517345,69.1942425 L66.3462775,66.66 Z" id="Path" fill="#F1BA8F"></path>
                <polygon id="Path" fill="#FFFFFF" points="65.9485 66.44625 66.0925 69.55425 66.93925 69.29925 66.751 66.57075"></polygon>
                <path d="M83.8603675,37.520475 C83.8603675,37.520475 83.8652425,37.5894 83.872885,37.7088 C83.9750819,38.8699122 83.9805006,40.0375142 83.889085,41.199525 C83.709985,41.950125 83.409535,42.363 82.027585,42.775875 C80.645635,43.18875 78.6155275,43.0386 78.8147275,42.17535 C79.073066,41.2709625 79.3773383,40.3803318 79.72636,39.506925 C79.72636,39.506925 81.4347775,39.960975 82.15447,39.39795 C82.8741625,38.834925 83.11477,36.634425 83.594095,36.883275 L83.8603675,37.520475 Z" id="Path" fill="#333333"></path>
                <path d="M9.1711525,137.267858 C9.22465685,137.987557 9.13797944,138.7108 8.9159275,139.397475 L12.4354525,140.320575 L12.011935,134.531483 L8.5537675,134.964008 C8.80665565,135.718557 9.01284081,136.487963 9.1711525,137.267858 Z" id="Path" fill="#6C4077"></path>
                <path d="M8.74201,139.149982 C8.74276,139.781557 8.7783025,142.039057 8.7783025,142.039057 L17.83402,142.077382 L17.27527,140.519107 C16.361781,140.29311 15.4739594,139.973755 14.62582,139.566082 C13.007845,138.80745 13.0185025,138.224475 13.0185025,138.224475 C13.0185025,138.224475 11.989645,138.201832 12.0119125,139.010925 C12.03418,139.820017 12.1930375,139.741725 12.1930375,139.741725 L8.74201,139.149982 Z" id="Path" fill="#0D1E43"></path>
                <path d="M25.71916,137.110058 C25.7726597,137.829758 25.6859772,138.553001 25.46392,139.239675 L28.98352,140.162783 L28.5599125,134.373683 L25.1017375,134.806215 C25.3546449,135.560759 25.5608427,136.330163 25.71916,137.110058 Z" id="Path" fill="#6C4077"></path>
                <path d="M25.2900775,138.99219 C25.2908275,139.623765 25.326295,141.881258 25.326295,141.881258 L34.3820125,141.91959 L33.8232625,140.361315 C32.9097742,140.13532 32.0219547,139.815962 31.17382,139.408283 C29.5558375,138.649658 29.566495,138.066683 29.566495,138.066683 C29.566495,138.066683 28.537645,138.044033 28.55992,138.853133 C28.582195,139.662233 28.7411125,139.583925 28.7411125,139.583925 L25.2900775,138.99219 Z" id="Path" fill="#0D1E43"></path>
                <path d="M18.0115525,46.7412 C18.0115525,46.7412 20.0836675,40.844775 19.9791025,39.195 C19.8745375,37.545225 19.51366,34.1226825 22.0872025,33.4083075 C24.660745,32.6939325 25.631785,35.1675 25.8630025,36.1554075 C26.09422,37.143315 26.56522,39.8491575 26.4025525,39.9029325 C26.239885,39.9567075 25.655635,39.581325 25.655635,39.581325 C25.655635,39.581325 25.8973525,41.2959075 25.215385,41.890275 C24.746455,42.2515167 24.1550048,42.4153778 23.567035,42.34695 C23.567035,42.34695 22.827535,44.76555 23.0111425,45.479475 C23.3101736,46.2750291 23.6794833,47.042362 24.1146925,47.772375 C24.1146925,47.772375 18.78175,49.34625 18.0115525,46.7412 Z" id="Path" fill="#FDCFA6"></path>
                <path d="M19.4767525,41.2756575 C20.1517407,40.7989918 20.7132361,40.1792594 21.121195,39.4606575 C21.5511775,38.4993825 21.6427525,37.9736325 21.4332775,37.5813075 C20.99317,36.7572825 21.3452275,35.1056325 21.7261525,35.5288575 C22.1070775,35.9520825 22.0283275,37.166775 22.30192,36.8474325 C22.5755125,36.52809 22.357195,34.9845825 23.222845,34.4898075 C24.088495,33.9950325 25.0456525,34.6786575 25.652245,34.24665 C26.1372025,33.901275 26.8198375,33.1689 27.19747,32.838375 C28.0409275,32.100225 29.2469275,29.8608 28.53652,28.225275 C27.7390525,26.389425 26.435995,28.94145 24.0747025,29.948775 C21.2943025,31.134975 18.3218275,32.54655 18.527095,33.3792 C18.7323625,34.21185 20.29342,34.88115 19.4814775,34.94295 C19.1513483,34.9247043 18.8314742,35.0608509 18.61576,35.3114214 C18.4000458,35.5619919 18.3129699,35.8985525 18.380095,36.2223 C18.6134275,37.6473 19.90411,39.537825 19.4767525,41.2756575 Z" id="Path" fill="#333333"></path>
                <path d="M25.692445,108.657525 C25.692445,108.657525 19.084495,87.4171575 19.2687775,86.595825 C19.45306,85.7744925 19.3103275,83.2284 15.7884775,83.4011925 C12.2666275,83.573985 12.6051025,82.1210925 12.6051025,82.1210925 C12.6051025,82.1210925 23.4072025,74.7641175 24.97177,75.0529425 C26.5363375,75.3417675 29.1030625,78.1494675 29.1030625,78.1494675 C29.1030625,78.1494675 31.511755,98.5583925 31.17487,108.440842 C30.837985,118.323292 29.2160875,136.01367 29.2160875,136.01367 L25.1017375,136.302795 L25.692445,108.657525 Z" id="Path" fill="#515C6C"></path>
                <path d="M12.4002025,137.20437 C12.4002025,137.20437 16.4328025,121.830525 18.330085,114.377625 C20.019085,107.742675 23.82346,81.1147575 21.9017425,78.53115 C20.7226825,76.945875 16.1889925,79.1331 14.7784675,79.5543 C12.9564925,80.09835 14.8165,77.73585 13.8570925,78.53115 C11.6042425,80.39865 11.2543675,83.3451 11.3481925,86.595825 C11.633725,96.48765 12.554725,111.819825 12.554725,111.819825 L7.97965,137.332095 L12.4002025,137.20437 Z" id="Path" fill="#606B7B"></path>
                <path d="M11.45737,84.5238 C10.8132775,83.738115 10.57516,83.3127525 10.7200525,81.60897 C11.04442,77.79468 12.85471,64.969785 11.5725775,60.63855 C10.0618525,55.5354525 10.5944275,49.794525 11.857735,48.9146925 C13.376935,47.85675 20.2227775,46.3867725 24.5201275,46.338525 C24.6941275,46.33656 24.8306275,46.24881 24.9957775,46.2515992 C26.428135,46.2762075 27.5400775,46.5733275 27.9237025,47.04636 C29.4438775,48.9208275 31.9140775,58.17606 30.5839525,62.5764825 C29.2538275,66.976905 30.0694525,79.7708025 30.0694525,79.7708025 C30.0694525,79.7708025 23.6453275,75.3943425 19.8801025,80.6055525 C16.7682775,84.91251 13.3113025,86.7849375 11.45737,84.5238 Z" id="Path" fill="#0E538C"></path>
                <path d="M17.3665,47.350425 L23.339275,60.08595 L24.5676925,46.441725 C24.5676925,46.441725 18.97636,46.879275 17.3665,47.350425 Z" id="Path" fill="#FFFFFF"></path>
                <path d="M25.5363025,53.263875 C25.5363025,53.263875 27.9139525,57.1318575 33.93586,61.4757 C39.9577675,65.8195425 49.354735,67.04205 49.354735,67.04205 L50.0880025,64.610175 C50.0880025,64.610175 40.1403775,60.00915 35.4409525,55.298625 C32.8764813,52.8394663 30.5521325,50.1415774 28.49941,47.241525 C27.50725,45.78675 25.6242775,51.33165 25.5363025,53.263875 Z" id="Path" fill="#0B4870"></path>
                <path d="M22.7043025,46.350225 L21.67951,48.35055 C21.1108188,47.8172811 20.5745124,47.2504953 20.0734397,46.653225 C20.065,46.46085 22.7043025,46.350225 22.7043025,46.350225 Z" id="Path" fill="#FF605F"></path>
                <polygon id="Path" fill="#FF605F" points="21.748 47.4225 23.68525 56.23875 23.35075 60.3195 21.715 56.6235 21.178 47.34975"></polygon>
                <path d="M50.0880025,64.6101221 C50.0880025,64.6101221 55.1903275,64.590825 55.50772,65.2923 C55.8251125,65.993775 53.598295,65.6313 53.6804875,66.11145 C53.76268,66.5916 58.46437,68.001225 57.7248475,68.424825 C56.985325,68.848425 54.73183,67.699575 54.73183,67.699575 C54.73183,67.699575 57.4496875,69.2211 56.8688125,69.456375 C56.2879375,69.69165 53.77948,68.612325 53.77948,68.612325 C53.77948,68.612325 55.548205,69.83415 54.94273,70.001175 C54.337255,70.1682 52.596145,68.9586 52.596145,68.9586 C52.596145,68.9586 53.7141625,70.99695 53.008645,70.5450825 C52.3031275,70.093215 49.3547125,67.0420575 49.3547125,67.0420575 L50.0880025,64.6101221 Z" id="Path" fill="#FDCFA6"></path>
                <path d="M20.3965,73.4704125 C17.0791,79.4539125 20.6932075,80.9869125 22.519165,79.0740975 C23.040962,78.4886687 23.8781171,78.3014482 24.5995825,78.608835 C26.4031,79.8501675 30.0457825,82.703835 30.48895,82.4381625 C31.0795825,82.0839825 29.831275,67.4597475 30.411475,65.1029025 C30.991675,62.7460575 31.8391825,59.5798425 31.747,58.494285 C31.6548175,57.4087275 28.186,47.10249 28.186,47.10249 C27.5128718,46.4716897 26.6001828,46.16221 25.6822075,46.25349 L24.9958,46.2530775 L23.5771,63.3197775 C23.1133883,66.8621271 22.0371535,70.2968459 20.3965,73.4704125 L20.3965,73.4704125 Z" id="Path" fill="#0B4870"></path>
                <path d="M23.9145775,64.851375 L23.68972,71.63715 L22.645345,63.2412 L18.5446525,58.0389675 C18.00735,57.3573762 17.4051729,56.7295338 16.7465875,56.1642675 L13.9908625,53.7992175 C13.9908625,53.7992175 10.7829025,50.9829675 11.7495625,48.9032925 C12.0037375,48.3565425 14.4515125,47.7637425 14.4515125,47.7637425 L17.6173375,55.5613425 L19.3991125,55.2016425 L18.553645,57.1756425 L23.9582875,63.5333175 L23.9145775,64.851375 Z" id="Path" fill="#0E538C"></path>
                <path d="M12.9699175,73.30995 C12.8935269,73.3097443 12.8308601,73.2493909 12.8277824,73.1730621 C12.8247047,73.0967332 12.882309,73.0315304 12.958435,73.025175 L17.627635,72.645075 C17.7048713,72.637584 17.7735564,72.6941237 17.7810475,72.77136 L17.781385,72.7755 C17.78784,72.8539612 17.729499,72.9228129 17.6510425,72.929325 L12.9818425,73.30935 L12.9699175,73.30995 Z" id="Path" fill="#020023"></path>
                <polygon id="Path" fill="#FFFFFF" points="18.3175 47.706 17.61625 46.6905 19.537 45.903 20.491 47.05425 19.92625 47.34975 19.84225 47.817"></polygon>
                <polygon id="Path" fill="#FFFFFF" points="22.34425 47.00475 23.0485 45.57375 24.80875 45.57375 24.175 47.00475 23.1745 47.34975 23.0485 46.752"></polygon>
                <polygon id="Path" fill="#E25959" points="19.891 47.54325 20.90125 47.5005 20.3545 46.8555 19.891 46.8555"></polygon>
                <polygon id="Path" fill="#E25959" points="22.46875 46.752 23.035 46.49175 23.12425 47.16 22.0915 47.51775"></polygon>
                <polygon id="Path" fill="#BC2800" points="20.93875 47.54325 21.58825 47.931 22.174 47.3505 21.8785 48.015 21.22 48.075"></polygon>
                <path d="M21.6974275,80.120175 C20.6712929,80.1157801 19.6468932,80.0353877 18.632635,79.8796575 C18.5550606,79.8662466 18.5029045,79.7926717 18.515935,79.7150325 C18.5308181,79.6383891 18.603305,79.5869713 18.68056,79.5982575 C19.9585285,79.7958516 21.2528438,79.8671705 22.544785,79.8111825 C22.5956418,79.8082083 22.6442221,79.8325917 22.6722262,79.8751478 C22.7002304,79.917704 22.7034039,79.9719675 22.6805512,80.0174978 C22.6576986,80.0630282 22.6122918,80.0929083 22.561435,80.0958825 C22.27171,80.1128925 21.9813025,80.120175 21.6974275,80.120175 Z" id="Path" fill="#020023"></path>
                <path d="M11.509,74.229975 C11.4954184,74.229975 11.4819119,74.2279586 11.4688825,74.224125 C11.393428,74.2021433 11.3500763,74.1231593 11.37205,74.0477025 L11.3722,74.0472 L14.3422,63.889125 C14.3562267,63.8398845 14.3955801,63.8019464 14.4453011,63.789732 C14.4950222,63.7775175 14.5474749,63.7929025 14.5827209,63.8300387 C14.6179668,63.867175 14.630593,63.9203592 14.6158,63.969375 L11.6458,74.1274425 C11.6280701,74.1882353 11.5723254,74.229975 11.509,74.229975 L11.509,74.229975 Z" id="Path" fill="#020023"></path>
                <polygon id="Path" fill="#FFFFFF" points="50.5225 64.49025 49.68775 67.488 48.93475 66.99675 49.7125 64.4325"></polygon>
                <rect id="Rectangle" fill="#FF605F" transform="translate(19.308655, 70.049923) rotate(-73.038320) translate(-19.308655, -70.049923) " x="10.638059" y="63.605567" width="17.3411925" height="12.8887125"></rect>
                <polygon id="Path" fill="#E25959" points="14.101 60.57525 15.67375 59.87625 15.3445 60.95475"></polygon>
                <polygon id="Path" fill="#6ACCBA" points="22.78375 79.04175 22.05925 79.24875 11.668 75.65175 15.5875 60.63225 16.33375 60.354 27.4495 63.74475"></polygon>
                <rect id="Rectangle" fill="#FFFFFF" transform="translate(18.834523, 69.905289) rotate(-73.038370) translate(-18.834523, -69.905289) " x="10.8379067" y="64.0948893" width="15.9932325" height="11.6208"></rect>
                <path d="M25.7022775,64.8108825 C25.6882244,64.8108825 25.6742473,64.8088149 25.6608025,64.804725 L15.9769525,61.851225 C15.9015754,61.8282158 15.8590624,61.7485187 15.881935,61.6731 C15.9057177,61.5984082 15.9847017,61.556286 16.0599775,61.57815 L25.743835,64.531725 C25.8114949,64.5522756 25.8538899,64.6192894 25.8434779,64.6892306 C25.8330659,64.7591719 25.7729895,64.810931 25.7022775,64.8108825 L25.7022775,64.8108825 Z" id="Path" fill="#020023"></path>
                <path d="M25.48882,65.5110751 C25.4747753,65.5110751 25.4608051,65.5090349 25.4473525,65.505 L15.763495,62.551425 C15.6879694,62.5288835 15.6450173,62.4493844 15.6675588,62.3738588 C15.6901003,62.2983331 15.7695994,62.255381 15.845125,62.2779225 L15.8465275,62.27835 L25.5303775,65.231925 C25.5980466,65.2524656 25.6404519,65.3194831 25.6300388,65.3894301 C25.6196256,65.4593771 25.5595379,65.5111363 25.48882,65.5110751 L25.48882,65.5110751 Z" id="Path" fill="#020023"></path>
                <path d="M25.27516,66.2113501 C25.2610821,66.2113501 25.2470797,66.2092931 25.23361,66.2052 L15.549835,63.251625 C15.5007703,63.2372175 15.4631644,63.1976594 15.4512564,63.147929 C15.4393485,63.0981985 15.4549587,63.0458978 15.4921764,63.0108299 C15.5293941,62.975762 15.5825302,62.9632876 15.631465,62.97813 L15.63286,62.97855 L25.316635,65.932125 C25.3842829,65.9526825 25.4266768,66.0196772 25.4162925,66.0896129 C25.4059083,66.1595487 25.3458775,66.2113501 25.275175,66.2113501 L25.27516,66.2113501 Z" id="Path" fill="#020023"></path>
                <path d="M25.06171,66.9118501 C25.0476345,66.9118501 25.0336345,66.9097936 25.0201675,66.9057 L15.336085,63.952125 C15.2605594,63.9295835 15.2176072,63.8500844 15.2401488,63.7745587 C15.2626903,63.6990331 15.3421894,63.656081 15.417715,63.6786225 L15.41911,63.67905 L25.1031775,66.632625 C25.1708267,66.6531829 25.2132207,66.7201798 25.2028345,66.7901166 C25.1924482,66.8600535 25.1324139,66.9118501 25.06171,66.9118501 L25.06171,66.9118501 Z" id="Path" fill="#020023"></path>
                <path d="M24.8479525,67.6120501 C24.8338994,67.6120501 24.8199223,67.6099899 24.8064775,67.6059 L15.1226275,64.652325 C15.0474406,64.6295201 15.0048295,64.5502306 15.0273005,64.4749432 C15.0497716,64.3996558 15.1288711,64.3566933 15.2042575,64.37883 L15.2056525,64.37925 L24.889495,67.332825 C24.9571592,67.3533874 24.9995547,67.4204081 24.9891459,67.4903574 C24.9787371,67.5603068 24.9186646,67.6120501 24.847945,67.6120501 L24.8479525,67.6120501 Z" id="Path" fill="#020023"></path>
                <path d="M24.634285,68.3125501 C24.6202046,68.3125501 24.6061997,68.3104937 24.5927275,68.3064 L14.9089525,65.352825 C14.8336715,65.329798 14.7912559,65.2501593 14.8141578,65.1748401 C14.8370597,65.099521 14.9166279,65.0569732 14.991985,65.07975 L24.6757525,68.033325 C24.7434017,68.0538829 24.7857957,68.1208798 24.7754095,68.1908166 C24.7650232,68.2607535 24.7049889,68.3125501 24.634285,68.3125501 L24.634285,68.3125501 Z" id="Path" fill="#020023"></path>
                <path d="M24.4208275,69.0127501 C24.4067471,69.0127501 24.3927422,69.0106937 24.37927,69.0066 L14.6955025,66.0531 C14.646646,66.0385182 14.60928,65.9989794 14.5974799,65.9493775 C14.5856799,65.8997757 14.6012385,65.8476464 14.6382949,65.8126263 C14.6753514,65.7776062 14.728276,65.7650157 14.7771325,65.7795975 L14.7785275,65.780025 L24.4623025,68.7336 C24.5299565,68.7541361 24.5723603,68.8211297 24.5619697,68.8910642 C24.5515791,68.9609988 24.4915297,69.0127501 24.4208275,69.0127501 Z" id="Path" fill="#020023"></path>
                <polygon id="Path" fill="#FFD17F" points="21.37 80.922 9.0415 77.16225 14.101 60.57525 19.7785 62.307 21.24475 67.7055 25.04725 68.865"></polygon>
                <path d="M11.85775,48.693825 C11.85775,48.693825 10.5310675,49.5962325 8.3046175,55.44345 C6.0781675,61.2906675 2.475925,68.746275 4.016725,70.105575 C6.53485,72.32715 20.8084,71.43315 20.8084,71.43315 L21.2607925,68.341575 C21.2607925,68.341575 12.0796,67.44555 10.3506175,65.7996075 C9.8547925,65.32755 14.4877675,59.3389575 14.9102425,56.0331075 C15.3327175,52.7272575 12.6896275,49.125675 11.85775,48.693825 Z" id="Path" fill="#0E538C"></path>
                <path d="M21.2607775,68.341575 L21.9017275,68.5170075 L21.5812525,71.43315 L20.80837,71.43315 C20.80837,71.43315 21.0747025,68.997825 21.2607775,68.341575 Z" id="Path" fill="#FFFFFF"></path>
                <path d="M21.84775,69.190275 C21.84775,69.190275 22.9279,68.576025 23.809825,68.195325 C24.69175,67.814625 25.5373,67.727175 25.5081325,68.0187075 C25.478965,68.31024 24.254575,69.0723075 24.45865,69.0848325 C25.0611568,68.9800334 25.6304632,68.7346438 26.1203575,68.3685825 C26.3827,68.0478825 26.4409825,67.7593575 26.6450575,67.8453075 C26.8491325,67.9312575 26.6450575,69.1557075 26.4701575,69.3306075 C26.2952575,69.5055075 26.95585,69.8453325 26.6374075,70.1660325 C26.318965,70.4867325 26.4701575,70.438425 26.4118825,70.9048575 C26.3536075,71.37129 25.9218325,71.305125 25.977325,71.615175 C26.0328175,71.925225 25.741375,72.129225 25.5081325,72.24585 C24.4716921,72.230055 23.4401446,72.1001467 22.43215,71.858475 C22.1429042,71.7985054 21.8585004,71.7171827 21.581275,71.615175 L21.84775,69.190275 Z" id="Path" fill="#FDCFA6"></path>
                <polygon id="Path" fill="#333333" points="21.7255 35.529 24.45625 36.4755 24.45625 37.236 22.00375 36.09375 21.62275 35.529"></polygon>
                <path d="M24.3138025,37.8537 L24.3138025,36.418725 L26.5785775,36.37605 L26.5785775,37.7595 L24.3138025,37.8537 Z M24.59917,36.6987 L24.59917,37.5561 L26.2932775,37.4859 L26.2932775,36.666975 L24.59917,36.6987 Z" id="Shape" fill="#333333"></path>
            </g>
        </g>
    </g>
</svg>