<?xml version="1.0" encoding="UTF-8"?>
<svg width="103px" height="133px" viewBox="0 0 103 133" version="1.1" xmlns="http://www.w3.org/2000/svg" xmlns:xlink="http://www.w3.org/1999/xlink">
    <!-- Generator: Sketch 58 (84663) - https://sketch.com -->
    <title>collaborate</title>
    <desc>Created with Sketch.</desc>
    <g id="new_version" stroke="none" stroke-width="1" fill="none" fill-rule="evenodd">
        <g id="Homepage_final-Copy-4" transform="translate(-511.000000, -583.000000)" fill-rule="nonzero">
            <g id="collaborate" transform="translate(511.000000, 583.000000)">
                <path d="M48.5444596,0 L71.9514478,0 C74.1829815,0 75.991997,1.80521712 75.991997,4.03206528 L75.991997,12.0960215 C75.991997,13.1653686 75.5663067,14.190918 74.8085731,14.9470606 C74.0508395,15.7032032 73.0231322,16.1279997 71.9515351,16.1279997 L48.5444596,16.1279997 C46.3129741,16.1279997 44.5039977,14.3228216 44.5039977,12.0960215 L44.5039977,4.03197813 C44.5039977,1.8051781 46.3129741,0 48.5444596,0 Z" id="Path" fill="#F7A491" transform="translate(60.247997, 8.064000) rotate(180.000000) translate(-60.247997, -8.064000) "></path>
                <polygon id="Path" fill="#F7A491" points="68.4027866 14.0870471 69.0799972 25.3439995 59.8639974 13.8239997"></polygon>
                <path d="M36.0559978,50.106706 L36.5811852,47.7346078 C36.5811852,47.7346078 38.3001535,48.8175289 39.3028497,50.3645064 C40.3056431,51.9115365 40.7831519,56.0368334 41.0695849,56.1915714 C41.3560178,56.3462569 44.528553,51.4932651 45.0832304,50.7282881 C45.769315,49.7822575 46.0257458,48.6962683 46.4554879,47.8711914 C46.8851417,47.0461232 48.3981213,46.7652507 48.9711637,46.8684094 C49.5440384,46.9715243 48.1841067,49.3847528 48.1841067,49.3847528 C48.1841067,49.3847528 44.7461788,55.3149239 43.6002618,58.5636171 C42.4542564,61.8122752 38.8731077,63.3593054 38.3001535,62.8951876 C37.7271906,62.4311223 36.0559978,50.106706 36.0559978,50.106706 Z" id="Path" fill="#F48C7F"></path>
                <path d="M46.8547863,48.8425415 C46.8547863,48.8425415 46.9883788,48.1679583 47.3489349,48.0299638 C47.7095736,47.8919787 48.3373064,48.0146595 48.3774287,48.0299638 C48.4173942,48.0452776 49.1119976,47.6159991 49.1119976,47.6159991 L48.5376044,48.8425415 C48.5376044,48.8425415 47.4157312,50.3603206 47.0417185,49.7930571 C46.6677057,49.2257935 46.8547863,48.8425415 46.8547863,48.8425415 Z" id="Path" fill="#F7A491"></path>
                <path d="M48.791174,47.6159991 C48.791174,47.6159991 49.1982036,49.3449122 49.0953335,49.7071242 C48.9921402,50.0704573 48.7324953,49.875667 48.683845,49.7967378 C48.483691,49.4717552 48.3439976,48.3628023 48.3439976,48.3628023 L48.791174,47.6159991 Z" id="Path" fill="#F48C7F"></path>
                <path d="M48.3439976,49.0687303 C48.3439976,49.0687303 48.5430241,50.4731514 48.7477813,50.6386717 C48.880803,50.7463025 49.0505979,50.6827482 49.1056516,50.3990651 C49.1607053,50.115382 48.8394468,48.383999 48.8394468,48.383999 L48.3439976,49.0687303 Z" id="Path" fill="#F48C7F"></path>
                <path d="M47.4384426,52.9919989 L46.8079976,52.6665739 L49.4857834,46.8479991 L49.4857834,46.8479991 C49.8339359,47.027778 49.9786216,47.4723999 49.8089817,47.8411939 L47.4384426,52.9919989 Z" id="Path" fill="#184655"></path>
                <path d="M38.6837061,41.0111072 C39.1118087,39.1261169 39.5310879,37.2291158 38.4025277,35.1582417 C37.489263,33.4823591 35.9106158,32.5180619 34.0833943,32.3080546 C28.9062594,31.713004 30.0128265,36.3949687 22.7769294,37.4084976 C20.5285361,37.7234026 18.4397722,38.0261269 16.5625362,39.1093781 C13.1728863,41.0653979 11.8933799,44.2030985 14.1413439,49.3147715 C19.6458164,61.8314765 33.1571178,51.2056441 34.8259541,48.7409924 C36.0674606,46.9074833 38.4081793,42.2245764 38.6837061,41.0111072 Z" id="Path" fill="#13375B"></path>
                <path d="M18.3257228,121.343998 C18.3257228,121.343998 17.964372,125.380916 17.0352543,126.122078 C16.1061366,126.863335 14.8672958,129.605837 15.4867334,131.088246 C15.6803071,131.551525 16.0674201,131.819344 16.5082139,131.968573 C17.813535,132.41072 19.2022078,131.666147 19.7579312,130.293653 C20.1434988,129.320433 20.3597709,128.27631 20.3955372,127.215403 C20.5349148,123.935514 21.4639981,122.2677 21.4639981,122.2677 L18.3257228,121.343998 Z" id="Path" fill="#F7A491"></path>
                <path d="M32.7874494,122.111998 C32.7874494,122.111998 33.0971541,126.185639 32.8458257,127.509587 C32.7111497,128.218485 31.9614248,129.677741 32.3054594,130.344923 C32.6493214,131.01202 33.0423299,131.178799 33.0423299,131.178799 L41.9548616,131.327848 C42.4403127,131.335975 42.119516,131.011651 41.7280246,130.712806 C41.0873214,130.22365 40.5702929,129.900346 38.5235637,128.872388 C38.3902232,128.805476 37.9040635,128.484573 37.7289438,128.37345 C37.2844814,128.091674 36.8382475,127.648212 36.4539328,127.204089 C35.8140381,126.464363 35.7580602,122.87692 35.7580602,122.87692 L32.7874494,122.111998 Z" id="Path" fill="#F7A491"></path>
                <path d="M40.0233029,72.363675 C40.0233029,72.363675 41.1537389,78.4524402 40.4114863,82.4441944 C39.6692427,86.435853 36.1064408,123.436099 36.1064408,123.436099 L32.1472291,123.647998 C32.1472291,123.647998 31.3174131,108.192214 31.4657556,106.042854 C31.6142721,103.893495 32.7892172,100.29648 32.7892172,100.29648 L32.3951225,87.8176666 L37.3913046,71.4239986 L40.0233029,72.363675 Z" id="Path" fill="#649FA0"></path>
                <path d="M28.3514285,71.2663214 C28.3514285,71.2663214 25.3339299,75.7076801 24.6154618,79.3832191 C23.8970292,83.0588362 25.1427765,94.3547857 23.7607631,99.171339 C23.0126239,101.778747 20.1771027,105.805328 19.7460112,109.17465 C19.3149729,112.543894 17.6239982,121.36948 17.6239982,121.36948 L21.4543281,122.111998 L30.3563864,100.070567 L37.3391967,80.14844 L39.1279978,69.8879986 L28.3514285,71.2663214 Z" id="Path" fill="#71ADB2"></path>
                <path d="M30.753462,46.8479991 C30.753462,46.8479991 28.0535739,47.1455291 26.4386817,48.8512962 C24.823699,50.5571072 29.0490411,64.2689134 29.3426225,66.4399392 C29.6362943,68.6109211 26.9363248,73.6754528 26.9363248,73.6754528 C26.9363248,73.6754528 37.0248873,75.4859152 39.7655171,73.728319 C39.7655171,73.728319 40.0590985,58.1169619 39.7655171,56.5661814 C39.4718362,55.0153483 37.0248873,48.7087528 36.4375345,48.0884283 C35.8502812,47.4681126 30.753462,46.8479991 30.753462,46.8479991 Z" id="Path" fill="#FAE0B2"></path>
                <path d="M27.074868,50.0646397 C27.2007872,49.7068573 27.4746025,49.416937 27.8297895,49.2653162 C28.1849765,49.1136953 28.5890265,49.1142509 28.9437741,49.2668482 C29.9621189,49.6964548 31.3680421,50.5118533 32.0547628,51.9088856 C33.2021943,54.2432109 37.2184345,62.2611884 38.4614366,62.5656484 C39.7045184,62.8701083 44.7725221,54.2432109 44.7725221,54.2432109 C44.7725221,54.2432109 44.6291219,52.7208335 45.0594197,51.8581696 C45.4896469,50.9954195 46.7805581,50.0819965 46.9717967,50.3864996 C47.1631237,50.6909595 46.2546808,51.4521482 46.2546808,51.6044257 C46.2546808,51.7566513 46.6371491,51.8581696 47.1631237,51.5536665 C47.6890011,51.2491634 47.97383,50.6334199 47.97383,50.6334199 C47.97383,50.6334199 48.8364237,52.1626296 47.9280692,53.5327813 C47.0196263,54.9029331 46.6371491,55.461137 46.6371491,55.461137 C46.6371491,55.461137 40.7563704,68.1984897 38.6048368,68.3508016 C36.601292,68.4925804 25.061218,56.0037957 27.074868,50.0646397 Z" id="Path" fill="#F7A491"></path>
                <path d="M32.7882654,40.7977121 C32.7882654,40.7977121 32.7693583,40.9215731 32.7353353,41.1322544 C32.5724542,42.1430541 31.9451265,45.4962102 31.5212564,46.4180787 C31.0090318,47.5320803 33.2747054,51.0851586 35.4554106,50.6515144 C36.1045697,50.5224607 34.9067085,47.3869252 34.9643046,47.0547458 C35.0744176,46.4190407 35.2239407,45.5516217 35.3767769,44.6623107 C35.463082,44.1605813 35.5504158,43.651922 35.6324518,43.1738684 C35.8656634,41.8152082 36.0559978,40.7039992 36.0559978,40.7039992 L32.7882654,40.7977121 Z" id="Path" fill="#F7A491"></path>
                <path d="M33.073038,42.5730649 C33.103601,42.4092123 33.1205852,42.3128823 33.1205852,42.3128823 L36.0559978,42.2399992 C36.0559978,42.2399992 35.8850199,43.1042166 35.6755253,44.1608835 C35.6022615,44.5306232 35.5242314,44.9239188 35.4471981,45.3119991 C34.9940294,45.2454935 34.5204636,45.0260597 34.045617,44.6120192 C33.5604411,44.1890406 33.1944696,43.6468082 32.9839979,43.0390983 C33.0201728,42.8542829 33.0503719,42.6949992 33.073038,42.5730649 Z" id="Path" fill="#F47458"></path>
                <path d="M34.1474484,33.0260222 C33.2085433,33.2353213 32.3697374,33.8147505 31.7861985,34.6571232 C30.7942257,36.0775027 29.7250375,40.4699659 32.1892717,42.8580831 C34.6534311,45.2462002 37.0882424,42.5430352 37.4492996,39.6768938 C37.8102818,36.8107525 37.7372863,32.9225451 34.1474484,33.0260222 Z" id="Path" fill="#F7A491"></path>
                <path d="M38.153238,37.595984 C37.8637581,38.2022764 37.377774,38.538061 37.0677293,38.3458568 C36.7578485,38.1536881 36.7412082,37.5063777 37.0306881,36.9000411 C37.32025,36.2937133 37.8062341,35.9579641 38.1162788,36.150124 C38.4262399,36.3422928 38.4427245,36.9896473 38.153238,37.595984 Z" id="Path" fill="#F7A491"></path>
                <path d="M35.2879978,32.2958818 C35.2879978,32.2958818 33.4628707,36.0550928 32.1571493,36.2287886 C30.8514207,36.402526 30.6799979,38.3999992 30.6799979,38.3999992 C30.6799979,38.3999992 31.1467633,33.7972545 32.4394431,32.9096465 C33.7320439,32.0220053 35.2879978,32.2958818 35.2879978,32.2958818 Z" id="Path" fill="#13375B"></path>
                <path d="M32.1859663,37.8661113 C32.3030249,38.4968403 32.0675052,39.0752814 31.6599191,39.1580863 C31.252333,39.2408127 30.827103,38.7966558 30.7100364,38.1658954 C30.5929777,37.5351664 30.8284182,36.9567253 31.235925,36.8739204 C31.643519,36.7911547 32.0688996,37.235343 32.1859663,37.8661113 Z" id="Path" fill="#F7A491"></path>
                <path d="M20.6959981,129.106193 C18.7071582,129.457218 17.3838385,128.331027 16.6952823,127.487997 C16.1897819,128.442994 15.8799438,129.635043 16.2517849,130.419572 C16.5792586,131.110581 17.4708605,131.299519 18.2243984,131.326617 C19.020742,131.354743 19.7672122,130.951277 20.1614876,130.279623 C20.3796497,129.906792 20.5587157,129.513682 20.6959981,129.106193 L20.6959981,129.106193 Z" id="Path" fill="#71ADB2"></path>
                <path d="M37.8029812,129.174205 C35.4222518,129.630041 33.6624598,129.320118 32.6780895,129.023997 C32.4241543,129.560903 32.0876049,130.234412 32.2660917,130.622783 C32.4847203,131.098323 32.7958267,131.205852 33.0707274,131.21121 C35.2451964,131.25382 41.036021,131.311769 42.694105,131.327997 C42.7998753,131.329011 42.896735,131.283827 42.9419953,131.212341 C42.9872557,131.140855 42.9726027,131.0562 42.9044943,130.995685 C42.4933131,130.629218 37.9803963,129.255137 37.8029812,129.174205 Z" id="Path" fill="#71ADB2"></path>
                <path d="M33.9321156,10.7519998 L52.771932,10.7519998 C54.5679982,10.7519998 56.0239974,12.2133218 56.0239974,14.0159538 L56.0239974,20.5440018 C56.0239974,22.346658 54.5679786,23.8079995 52.7718885,23.8079995 L33.9321069,23.8079995 C32.1360167,23.8079995 30.6799979,22.346658 30.6799979,20.5440018 L30.6799979,14.0160063 C30.6799979,12.2133453 32.1360206,10.7519998 33.9321156,10.7519998 L33.9321156,10.7519998 Z" id="Path" fill="#FAE0B2"></path>
                <polygon id="Path" fill="#FAE0B2" points="38.432024 22.2719996 36.0559978 29.9519994 42.9679977 22.2719996"></polygon>
                <path d="M37.5919978,17.2799615 C37.5919978,17.9162296 37.076184,18.4319996 36.4399227,18.4319996 C35.8038037,18.4319996 35.2879978,17.9162296 35.2879978,17.2799615 C35.2879978,16.6437697 35.8038037,16.1279997 36.4399227,16.1279997 C37.076184,16.1279997 37.5919978,16.6437697 37.5919978,17.2799615 Z" id="Path" fill="#FFFFFF"></path>
                <path d="M44.5039977,17.2799615 C44.5039977,17.9162296 43.9882452,18.4319996 43.3520333,18.4319996 C42.7157422,18.4319996 42.1999977,17.9162296 42.1999977,17.2799615 C42.1999977,16.6437697 42.7157422,16.1279997 43.3520333,16.1279997 C43.9882468,16.1279997 44.5039977,16.6437697 44.5039977,17.2799615 Z" id="Path" fill="#FFFFFF"></path>
                <path d="M50.6479975,17.2799615 C50.6479975,17.9162296 50.1322689,18.4319996 49.4959976,18.4319996 C48.8597262,18.4319996 48.3439976,17.9162296 48.3439976,17.2799615 C48.3439976,16.6437697 48.8597262,16.1279997 49.4959976,16.1279997 C50.1322689,16.1279997 50.6479975,16.6437697 50.6479975,17.2799615 Z" id="Path" fill="#FFFFFF"></path>
                <path d="M46.5634871,74.7137455 C48.144035,74.2545406 48.1864068,74.5387292 48.3869537,74.474335 C48.6239653,74.3981677 50.5359086,71.7869059 50.5359086,71.7869059 C50.5359086,71.7869059 56.2265775,64.1327306 56.5179656,63.7073429 L58.3126763,53.8029866 L63.7039973,53.7599989 C63.7039973,53.7599989 61.4517721,64.4558981 61.2315117,64.9854711 C61.0112514,65.5150441 51.9930397,74.8638618 51.2289102,75.7147246 C51.2289102,75.7147246 50.7350177,77.0965229 50.3946492,77.9513071 C50.0542806,78.8061699 49.3255938,79.4310984 49.1903368,79.6536265 C48.7953473,80.1938857 48.3291042,80.677278 47.8045066,81.0904301 C47.0562796,81.6874717 47.4517089,80.7580572 47.4517089,80.7580572 C47.4517089,80.7580572 48.6097519,79.3881107 48.4740791,79.3065721 C48.3695356,79.2437151 47.7861531,80.03283 46.9661054,80.7024492 C46.7553293,80.8746445 46.5465713,81.043783 46.3532913,81.1975587 C45.8461294,81.6010683 45.4163575,81.3864792 45.8697232,80.8745659 C46.0731308,80.6395178 46.2947664,80.4211652 46.5325311,80.2215758 C46.7793475,80.0282185 46.9342226,79.766205 47.113116,79.5701228 C47.4682003,79.1807707 47.7326167,78.9018747 47.7067277,78.8945384 C47.6730693,78.8852369 47.6826229,78.7538021 47.4522979,78.9291678 C47.1754524,79.1400887 46.7016977,79.725523 46.2667635,80.0023753 C46.0201204,80.1592253 45.5283413,80.5200092 45.5283413,80.5200092 C45.5283413,80.5200092 44.6667707,80.9187414 44.6209257,80.8748192 C44.3729227,80.6370244 44.866053,80.1941954 45.2341642,80.0266901 C45.4002819,79.7965724 45.930206,79.4325482 45.930206,79.4325482 C45.930206,79.4325482 46.8086145,78.4440323 46.6545881,78.306283 C46.5890297,78.2475221 45.969451,78.7834009 45.2679957,79.2070419 C44.6166902,79.6003155 43.8821656,79.8868972 43.7700086,79.7645019 C43.5800286,79.5570745 44.2479035,79.0400432 44.2479035,79.0400432 C44.2479035,79.0400432 44.7380716,78.7044213 44.89092,78.579895 C45.0700646,78.4338836 45.5680973,77.9530975 45.5680973,77.9530975 C45.5680973,77.9530975 47.2140217,76.1925237 47.0579686,76.0732814 C46.9019934,75.9538731 46.3915316,75.7926736 46.2471454,75.8633823 C46.1029238,75.9339164 45.921917,76.2064192 45.7775308,76.2770406 C45.5904349,76.3540078 45.3754084,76.2967409 45.2504044,76.1366537 C45.1302875,75.9607029 45.6667251,75.3440453 45.6667251,75.3440453 C45.6667251,75.3440453 46.1071592,74.8462895 46.5634871,74.7137455 Z" id="Path" fill="#F48C7F"></path>
                <path d="M56.3202999,125.951997 C56.3202999,125.951997 56.4875079,128.686785 56.4885422,128.692454 C56.549958,129.039618 56.7919974,129.897491 56.7919974,130.213117 C56.7919974,131.398912 51.0933957,129.206573 52.3705576,128.680984 C52.4861567,128.633475 53.091746,128.27368 53.1297128,127.870137 C53.1883278,127.248299 53.3368883,125.990294 53.3368883,125.990294 L56.3202999,125.951997 Z" id="Path" fill="#F7A491"></path>
                <path d="M51.1250456,129.081094 C51.1250456,129.081094 52.781357,129.506074 53.6297239,129.612281 C54.4780067,129.718561 55.5963582,128.823984 56.1964705,129.065583 C56.8569127,129.33157 56.7901059,131.950612 56.7901059,131.950612 C56.7901059,131.950612 47.9487844,132.407179 45.451228,131.702134 C44.4616582,131.422865 47.7389521,130.070927 51.1250456,129.081094 Z" id="Path" fill="#649FA0"></path>
                <path d="M70.1442977,126.719997 C70.1442977,126.719997 70.3115112,129.45484 70.31247,129.460439 C70.3738851,129.807664 70.6159971,130.665539 70.6159971,130.981094 C70.6159971,132.166945 64.9174633,129.974556 66.1945345,129.449038 C66.3102078,129.40146 67.0953091,128.773209 67.1333509,128.369668 C67.1918897,127.747763 67.1609292,126.758364 67.1609292,126.758364 L70.1442977,126.719997 Z" id="Path" fill="#F7A491"></path>
                <path d="M65.7845229,129.836142 C65.7845229,129.836142 67.3950986,130.164744 68.2200862,130.246927 C69.0450737,130.329111 70.1326147,129.637341 70.7160981,129.824149 C71.3583398,130.029877 71.3839971,131.881012 71.3839971,131.881012 C71.3839971,131.881012 62.192363,132.345214 60.031323,131.909392 C59.0602351,131.713561 62.4917455,130.601553 65.7845229,129.836142 Z" id="Path" fill="#649FA0"></path>
                <path d="M60.6570664,75.2639985 L57.9269457,76.4756278 L52.1839975,104.690256 L52.4167563,125.841903 L57.0204724,125.951997 C57.0204724,125.951997 59.1617554,107.449748 59.1617554,106.015941 C59.1617554,104.582045 69.0799972,80.9233438 69.0799972,80.9233438 L60.6570664,75.2639985 Z" id="Path" fill="#355389"></path>
                <path d="M61.3999973,76.9803338 C61.3999973,76.9803338 63.5609804,98.7906206 63.5609804,102.46699 C63.5609804,106.143526 65.3129505,126.719997 65.3129505,126.719997 L70.2707568,126.692403 C70.2707568,126.692403 70.6284375,120.420505 71.159977,111.193582 C71.2431749,109.748494 71.0528089,106.832701 71.159977,105.336733 C71.9311652,94.5767631 73.456584,84.4474941 72.7280241,80.4324055 C72.6108009,79.7861813 72.3903616,78.0961861 71.9613212,77.6696761 C68.7146398,74.4426698 61.3999973,76.9803338 61.3999973,76.9803338 Z" id="Path" fill="#466EB6"></path>
                <path d="M56.0239974,61.4399988 L61.9843681,61.0715906 C61.9843681,61.0715906 62.2784673,56.1552662 62.2784673,53.8101644 C62.2784673,50.9650013 63.2181934,46.7702246 62.8507953,46.8490952 C61.8197539,47.0704552 60.0396438,47.9463314 59.2129844,49.0086742 C56.3524221,52.6847505 56.0239974,61.4399988 56.0239974,61.4399988 Z" id="Path" fill="#649FA0"></path>
                <path d="M70.5569907,45.4700986 C70.5569907,45.4700986 73.8414429,45.9266474 74.7059382,46.5613061 C75.6796249,47.2760481 76.759997,48.8754113 76.759997,48.8754113 C76.759997,48.8754113 72.7274592,67.9318098 72.7203115,71.1384581 C72.7147081,73.6193814 73.5934281,79.7108275 73.5934281,79.7108275 C73.5934281,79.7108275 61.4073337,80.4797964 56.7919974,78.6584266 C56.7919974,78.6584266 58.2493861,71.4137036 58.2493861,69.5114389 C58.2493861,67.6091742 59.9926897,50.3105676 60.3894374,49.1024991 C60.7494761,48.006378 61.4073337,46.0367068 63.6339951,45.5510376 C65.8607377,45.0653683 70.5569907,45.4700986 70.5569907,45.4700986 Z" id="Path" fill="#71ADB2"></path>
                <path d="M69.1780346,40.2530269 L69.8479972,45.6036459 C69.8479972,45.6036459 67.4014683,51.974595 65.9409561,51.4220259 C64.7154885,50.9584694 65.4694636,45.321343 65.4694636,45.321343 C65.4694636,45.321343 66.1373683,42.2940418 65.9370514,40.7791805 C65.7367345,39.2642304 69.1780346,40.2530269 69.1780346,40.2530269 Z" id="Path" fill="#F7A491"></path>
                <path d="M65.337222,40.5514327 C65.1097919,39.4457102 69.0168758,40.1673634 69.0168758,40.1673634 L69.0799972,40.4912734 C68.9812488,40.6910762 68.8377454,40.8754237 68.6562603,41.0356145 C67.7835495,41.7673223 66.4193823,42.206773 65.2399973,42.2399992 C65.3579432,41.6438117 65.4305005,41.0048226 65.337222,40.5514327 Z" id="Path" fill="#F47458"></path>
                <path d="M70.2498775,33.2215648 C70.3835715,33.1771373 71.3220793,39.5423066 69.5411664,41.2936563 C67.7602536,43.0450059 64.2904205,43.6182212 63.0458536,42.2388796 C61.6692527,40.7131729 61.7383947,33.8720889 64.507227,32.0705065 C67.2760612,30.2688872 70.2498775,33.2215648 70.2498775,33.2215648 Z" id="Path" fill="#F7A491"></path>
                <path d="M65.1417531,29.2214735 C66.5620588,29.5099544 67.854784,30.2096549 68.8438942,31.2252947 C69.7352739,31.3252171 70.9470139,31.7927867 72.1981636,33.7587809 C73.7365384,36.1761657 72.6004073,38.8543865 70.8095843,40.168444 C69.0187613,41.4825366 69.0390074,43.0079991 69.0390074,43.0079991 L68.7605797,42.2152719 C68.5473902,41.6214614 68.4708738,40.9906827 68.5362578,40.3660277 C68.5699603,39.9830132 68.6677451,39.6076422 68.8258865,39.2542165 C69.2566142,38.3766327 67.900647,37.7935927 67.52053,37.0634692 C67.227764,36.5012795 67.2135174,35.2151716 66.7522416,34.2858781 L66.2014682,33.5764735 C66.2014682,33.5764735 64.9306045,32.6379424 63.6873257,32.9028013 C62.4439644,33.1676163 62.6228679,28.7340351 65.1417531,29.2214735 Z" id="Path" fill="#13375B"></path>
                <path d="M68.3123192,37.23663 C68.3001608,37.8728077 68.6338388,38.3936114 69.0578883,38.3999424 C69.4818513,38.406198 69.8354391,37.8955464 69.8476752,37.259331 C69.8598337,36.6231909 69.5260779,36.1023496 69.1020198,36.0960563 C68.6780567,36.0897932 68.3244707,36.6004447 68.3123192,37.23663 Z" id="Path" fill="#F7A491"></path>
                <path d="M62.1614391,64.645662 L62.0796729,65.0011816 C62.059501,65.0890286 61.9938411,65.1672383 61.8971395,65.2186031 C61.8004379,65.2699679 61.6806172,65.2902796 61.5640403,65.2750692 L51.7859741,63.9989358 C51.543278,63.9672114 51.3806181,63.7932833 51.4225974,63.6103865 L51.5043635,63.2548324 C51.5464065,63.0719205 51.7772547,62.9493167 52.0199961,62.9809794 L61.7980623,64.2570782 C61.914639,64.2722871 62.0184204,64.3217746 62.0865692,64.3946508 C62.1547181,64.4675271 62.1816502,64.5578206 62.1614391,64.645662 L62.1614391,64.645662 Z" id="Path" fill="#13375B"></path>
                <path d="M75.6938461,48.383999 C74.5636934,48.3526506 73.5640505,55.5138519 74.2804468,56.2203362 C74.9969333,56.9267772 75.1336158,65.7470126 75.1336158,65.7470126 L64.4719495,65.4924427 L64.4705417,65.4959104 C64.2626482,65.3619806 62.0290367,63.9209065 61.7096658,63.60593 C61.3745112,63.2754963 59.7468744,63.4407131 59.3160981,63.8949944 C58.8852405,64.3493709 60.2735251,63.9776288 60.6565357,64.225428 C61.039447,64.4732705 60.3692372,65.0927599 60.3692372,65.0927599 C60.3692372,65.0927599 57.6672269,65.4694175 57.1407476,64.9324585 C56.6140878,64.3955515 55.2069514,63.4866857 55.0154461,64.023636 C54.9166568,64.3006849 55.6423933,65.1401715 56.0511231,65.4924427 C55.5409508,65.125616 54.9301391,64.73592 54.7205672,64.8036955 C54.3375656,64.9275951 54.4971609,65.3956776 54.7046121,65.5333352 C54.9119822,65.6709927 57.0570199,67.2442195 57.3920842,67.3543611 C57.7193966,67.4619627 62.7085055,67.5803227 63.570401,67.7637795 C63.570401,67.7637795 77.630115,70.8393019 78.4294359,70.6473754 C79.1306713,70.4789857 79.831997,66.1559194 79.831997,62.8444571 C79.831997,59.5329428 79.2254989,48.4823499 75.6938461,48.383999 Z" id="Path" fill="#F7A491"></path>
                <path d="M73.0823384,46.8479991 C73.0823384,46.8479991 75.1915007,47.2660952 77.3702269,49.3737208 C79.3517105,51.2903598 80.5999969,62.0237983 80.5999969,62.0237983 L73.7583593,62.9759987 L73.2120011,57.7839375 L71.3839971,55.4090056 L73.0823384,46.8479991 Z" id="Path" fill="#71ADB2"></path>
                <path d="M83.4076334,14.4729084 L82.8704895,13.1655345 L81.5193802,12.879784 C81.4487128,12.8648301 81.3924206,12.8098863 81.3741692,12.7380512 C81.3559178,12.6662161 81.3788719,12.589946 81.4333816,12.5413052 L82.4755762,11.6114605 L82.3220978,10.2007556 C82.3140841,10.1269721 82.3474585,10.0549029 82.4081928,10.0148403 C82.4689272,9.97477769 82.5464925,9.97366705 82.6082863,10.0119752 L83.7895713,10.7446953 L85.0457528,10.1585919 C85.1114624,10.1279084 85.1884004,10.1382835 85.2442109,10.185354 C85.3000214,10.2324245 85.3250227,10.308025 85.3087007,10.380362 L84.9966381,11.7630869 L85.9264457,12.8115367 C85.9750824,12.8663724 85.9892514,12.9448711 85.9629947,13.0140252 C85.936738,13.0831793 85.8746097,13.1309944 85.8027339,13.1373648 L84.4285299,13.2591701 L83.7470518,14.4933186 C83.7113883,14.5578733 83.6432116,14.5959976 83.5711798,14.5916661 C83.499148,14.5873346 83.4357494,14.5412983 83.4076334,14.4729084 L83.4076334,14.4729084 Z" id="Path" fill="#9BC1F9"></path>
                <path d="M2.4277354,8.34875728 L1.98004154,7.25929805 L0.854143027,7.02117491 C0.795255985,7.00870952 0.74834939,6.96292221 0.733141423,6.90306064 C0.717933456,6.84319908 0.737060955,6.77964238 0.782483271,6.73910795 L1.65094914,5.96424839 L1.52308043,4.78866614 C1.51636761,4.72717238 1.54416851,4.66709104 1.59478797,4.63369683 C1.64540743,4.60030262 1.71006108,4.59939071 1.76155073,4.63134471 L2.74597834,5.24191238 L3.79280653,4.75348981 C3.84756263,4.72795243 3.9116568,4.7366154 3.95814928,4.77583754 C4.00464176,4.81505969 4.02547273,4.87804156 4.01188663,4.93831093 L3.75181589,6.09057245 L4.52670511,6.96425639 C4.56723813,7.00995945 4.57904482,7.07538244 4.55716078,7.13301665 C4.53527673,7.19065087 4.48349746,7.23050039 4.42359482,7.2358095 L3.27845949,7.33734812 L2.71050769,8.36575142 C2.68080996,8.41955075 2.62400725,8.4513293 2.56398849,8.44772228 C2.50396974,8.44411525 2.451147,8.4057484 2.4277354,8.34875728 L2.4277354,8.34875728 Z" id="Path" fill="#F7CC7F"></path>
                <polygon id="Path" fill="#F48C7F" points="101.129793 9.9839998 100.732265 11.5884995 98.0858889 11.2326413 97.2159515 13.5068539 95.1919967 13.5650061 95.2214648 14.5919997 97.9282801 14.5141845 98.7527213 12.3589539 101.505784 12.7292037 102.103997 10.3146727"></polygon>
                <polygon id="Path" fill="#466EB6" points="12.0418787 11.5199998 11.644267 13.1245831 8.99789071 12.7686412 8.12795327 15.0428539 6.10399843 15.1010061 6.13346661 16.1279997 8.84028186 16.0501845 9.6647231 13.8949538 12.4177859 14.2652037 13.0159983 11.8506726"></polygon>
                <polygon id="Path" fill="#F48C7F" points="32.5881232 5.13836695 30.9402117 5.75447951 29.4013132 3.75445969 26.8522707 4.41881142 25.3929894 3.07199994 24.5359981 3.65959419 26.4876347 5.46108559 28.9034288 4.83141035 30.504344 6.91199986 32.9839979 5.98497187"></polygon>
                <polygon id="Path" fill="#50BFA5" points="82.1359969 3.17966271 80.2402519 3.83999992 79.831997 0.908683789 80.4524607 0.767999985 80.7398554 2.832587 81.9701168 2.40410671"></polygon>
                <path d="M24.2069933,17.6484572 L16.4234078,17.6639996 C15.815775,17.6651841 15.3217708,17.3302605 15.3199982,16.9159098 L15.3199982,16.9159098 L25.303998,16.8959997 L25.303998,16.8959997 C25.3048578,17.0949817 25.1897651,17.2860476 24.9840358,17.427162 C24.7783066,17.5682764 24.4987945,17.6478791 24.2069933,17.6484572 Z" id="Path" fill="#FAE0B2"></path>
                <path d="M24.1493427,13.8240075 C23.5141006,13.8264087 22.9985103,14.3450474 23.0000013,14.9803043 C23.0014649,15.6155267 23.5194054,16.1303426 24.1546474,16.1279917 C24.7898623,16.1256331 25.3054459,15.6069514 25.3039887,14.971729 C25.3025253,14.3365066 24.7845508,13.8216992 24.1493427,13.8240075 Z M24.153452,15.6087995 C23.7510268,15.6102661 23.4103903,15.3217557 23.4095942,14.9787545 C23.4088009,14.6357534 23.7481129,14.3447116 24.1505381,14.3432335 C24.5529634,14.3417327 24.8935999,14.6302432 24.894362,14.9732443 C24.8951621,15.3162885 24.5558841,15.6072872 24.153452,15.6087995 L24.153452,15.6087995 Z" id="Shape" fill="#FAE0B2"></path>
                <path d="M23.7679981,12.9687619 C23.7775801,15.9799373 21.8944544,18.425727 19.5613269,18.4319996 C17.2282481,18.4382393 15.3295688,16.0026334 15.3199982,12.9914579 C15.3187612,12.6093153 17.2086891,12.2943921 19.5417679,12.2880956 C21.8748955,12.2817991 23.7667725,12.5866193 23.7679981,12.9687619 Z" id="Path" fill="#FAE0B2"></path>
                <path d="M23.7679981,13.0433837 C23.7692351,13.4674149 21.8793089,13.8169082 19.5462104,13.8238949 C17.2130729,13.8308319 15.3211878,13.4925988 15.3199982,13.0685676 C15.3187612,12.6445364 17.2086972,12.2950928 19.541786,12.2881061 C21.8749235,12.2811194 23.7668085,12.6193525 23.7679981,13.0433837 Z" id="Path" fill="#F7CC7F"></path>
            </g>
        </g>
    </g>
</svg>