<?xml version="1.0" encoding="UTF-8"?>
<svg width="154px" height="141px" viewBox="0 0 154 141" version="1.1" xmlns="http://www.w3.org/2000/svg" xmlns:xlink="http://www.w3.org/1999/xlink">
    <!-- Generator: Sketch 58 (84663) - https://sketch.com -->
    <title>control copy</title>
    <desc>Created with Sketch.</desc>
    <g id="new_version" stroke="none" stroke-width="1" fill="none" fill-rule="evenodd">
        <g id="Homepage_final-Copy-4" transform="translate(-172.000000, -573.000000)" fill-rule="nonzero">
            <g id="control-copy" transform="translate(172.000000, 573.000000)">
                <rect id="Rectangle" fill="#F5F5F5" x="65.566905" y="90.2237373" width="58.0272849" height="36.9114446"></rect>
                <rect id="Rectangle" fill="#E0E0E0" x="65.566905" y="90.2237373" width="58.0272849" height="2.50136004"></rect>
                <path d="M122.731202,91.4744214 C122.731202,91.8905652 122.393867,92.2279334 121.977723,92.2279334 C121.561579,92.2279334 121.22421,91.8905999 121.22421,91.474456 C121.22421,91.0583122 121.561542,90.7209414 121.977686,90.7209414 L121.977686,90.7209414 C122.393827,90.7209414 122.731182,91.05828 122.731202,91.4744214 Z" id="Path" fill="#FAFAFA"></path>
                <path d="M120.227146,91.4744214 C120.227146,91.8905652 119.889811,92.2279334 119.473667,92.2279334 C119.057523,92.2279334 118.720154,91.8905999 118.720154,91.474456 C118.720154,91.0583122 119.057486,90.7209414 119.47363,90.7209414 L119.47363,90.7209414 C119.889771,90.7209414 120.227126,91.05828 120.227146,91.4744214 Z" id="Path" fill="#FAFAFA"></path>
                <path d="M117.723106,91.4744214 C117.723106,91.779184 117.539536,92.0539426 117.257975,92.1705773 C116.976414,92.2872121 116.652318,92.2227537 116.436814,92.0072591 C116.221309,91.7917645 116.156835,91.4676717 116.273456,91.1861051 C116.390077,90.9045385 116.664827,90.7209414 116.96959,90.7209414 L116.969626,90.7209414 C117.385754,90.720959 117.723088,91.0582932 117.723106,91.4744214 L117.723106,91.4744214 Z" id="Path" fill="#FAFAFA"></path>
                <path d="M82.2788013,8.99473613 C82.2294853,8.99473613 82.1813173,8.99965613 82.1325973,9.00209613 C82.4496921,7.32012868 81.9995264,5.58440752 80.9049385,4.26856525 C79.8103505,2.95272298 78.1855848,2.19409688 76.4739972,2.19969603 C76.4591612,2.19969603 76.4447972,2.20181603 76.4299572,2.20193603 C75.6300275,0.811619487 74.1356499,-0.0318944518 72.5319855,0.0016932831 C70.9283211,0.035281018 69.4705722,0.940625376 68.7295571,2.36321604 C67.3093911,1.98352667 65.793587,2.27269996 64.6129433,3.14855151 C63.4322996,4.02440306 62.7159016,5.39117192 62.667353,6.8604161 C60.9806851,8.10251421 60.408587,10.3644161 61.3018853,12.2590596 C62.1951836,14.1537032 64.3041861,15.1515031 66.335593,14.6405802 L81.4129532,14.6405802 C82.4983546,14.9814508 83.682755,14.6536462 84.4384431,13.8032203 C85.1941313,12.9527944 85.3804217,11.7380696 84.9143126,10.7002686 C84.4482034,9.66246756 83.4164694,8.99479604 82.2788013,8.99473613 L82.2788013,8.99473613 Z" id="Path" fill="#EBEBEB"></path>
                <path d="M37.2667006,23.5488964 C37.2289046,23.5488964 37.1919846,23.5526564 37.1547006,23.5545364 C37.3974746,22.2667524 37.0528104,20.9378151 36.2147553,19.9303478 C35.3767003,18.9228804 34.1327217,18.3420317 32.8222605,18.3462963 C32.8108205,18.3462963 32.7999005,18.3478963 32.7884565,18.3480163 C32.1759953,17.2835179 31.0318265,16.6376783 29.8039811,16.663394 C28.5761358,16.6891096 27.460011,17.3822881 26.8926564,18.4714963 C25.8053267,18.1807859 24.6447698,18.4021888 23.7408304,19.0727796 C22.836891,19.7433705 22.2884041,20.7898281 22.2512564,21.9147363 C20.9436679,22.8811071 20.5163282,24.6454838 21.236825,26.1030656 C21.9573217,27.5606473 23.618617,28.2925916 25.1804564,27.8405764 L36.5189366,27.8405764 C37.3486091,28.139106 38.2763405,27.916165 38.8797763,27.2732485 C39.4832121,26.630332 39.6469896,25.6903506 39.2965482,24.8812355 C38.9461068,24.0721204 38.1484428,23.5485555 37.2666966,23.5488964 L37.2667006,23.5488964 Z" id="Path" fill="#EBEBEB"></path>
                <path d="M94.9779014,103.558058 L94.4747414,102.858254 C94.2942828,102.604063 94.0030218,102.451649 93.6913054,102.448255 L90.1470694,102.448255 C89.8466081,102.445598 89.5669453,102.601374 89.4110694,102.858254 L88.9888654,103.558058 C88.8330069,103.81496 88.553337,103.970754 88.2528653,103.968058 L86.1378293,103.968058 C85.6651838,103.96451 85.2791485,104.34478 85.2755625,104.817426 C85.2755625,104.841202 85.2762253,104.86496 85.2780253,104.888702 L85.9627893,116.725102 C85.995715,117.236935 86.4162863,117.637625 86.9291133,117.645771 L103.691602,117.645771 C104.164221,117.649325 104.550258,117.269097 104.553871,116.796478 C104.553871,116.772662 104.553216,116.74887 104.551406,116.725102 L103.86669,104.888702 C103.833732,104.376885 103.413182,103.976213 102.90037,103.968058 L95.7613015,103.968058 C95.4495848,103.964705 95.1583272,103.812272 94.9779014,103.558058 L94.9779014,103.558058 Z" id="Path" fill="#FFD17F"></path>
                <path d="M104.575742,105.096002 L89.2188014,105.096002 C88.5679342,105.105671 88.0263141,105.59888 87.9559213,106.246002 L87.0326813,116.495806 C87.0003707,116.793039 87.0977892,117.089771 87.2999896,117.310014 C87.50219,117.530256 87.7895353,117.65262 88.0884413,117.64577 L103.445362,117.64577 C104.09623,117.636138 104.637866,117.14293 104.708242,116.495806 L105.631486,106.246002 C105.663826,105.948764 105.566423,105.652016 105.364224,105.431762 C105.162025,105.211508 104.874671,105.089141 104.575758,105.096002 L104.575742,105.096002 Z" id="Path" fill="#FCE0B0"></path>
                <rect id="Rectangle" fill="#F9FAFB" x="0.0199840301" y="25.0459764" width="41.7697606" height="71.5581971" rx="0.948840014"></rect>
                <rect id="Rectangle" fill="#407BFF" x="2.85642407" y="34.1110205" width="7.86664012" height="1.06668002"></rect>
                <rect id="Rectangle" fill="#407BFF" x="2.85642407" y="36.5110205" width="7.86664012" height="1.06668002"></rect>
                <rect id="Rectangle" fill="#407BFF" x="30.8740645" y="34.1110205" width="7.86664012" height="1.06668002"></rect>
                <rect id="Rectangle" fill="#407BFF" x="16.2073803" y="29.1738964" width="7.86668012" height="1.06668002"></rect>
                <rect id="Rectangle" fill="#407BFF" x="2.85642407" y="27.3072604" width="35.8842845" height="1.06664002"></rect>
                <rect id="Rectangle" fill="#407BFF" x="6.85894013" y="39.8405806" width="31.8817605" height="1.06668002"></rect>
                <rect id="Rectangle" fill="#407BFF" x="2.85642407" y="41.9738966" width="35.8842845" height="1.06668002"></rect>
                <rect id="Rectangle" fill="#407BFF" x="2.85642407" y="44.1072607" width="35.8842845" height="1.06664002"></rect>
                <rect id="Rectangle" fill="#407BFF" x="2.85642407" y="46.2405807" width="35.8842845" height="1.06668002"></rect>
                <rect id="Rectangle" fill="#407BFF" x="2.85642407" y="48.3739007" width="31.8817565" height="1.06668002"></rect>
                <rect id="Rectangle" fill="#407BFF" x="6.85894013" y="52.2483768" width="31.8817605" height="1.06668002"></rect>
                <rect id="Rectangle" fill="#407BFF" x="2.85642407" y="54.3817368" width="35.8842845" height="1.06664002"></rect>
                <rect id="Rectangle" fill="#407BFF" x="2.85642407" y="56.5150568" width="35.8842845" height="1.06668002"></rect>
                <rect id="Rectangle" fill="#407BFF" x="2.85642407" y="58.6483769" width="35.8842845" height="1.06668002"></rect>
                <rect id="Rectangle" fill="#407BFF" x="2.85642407" y="60.7817369" width="31.8817565" height="1.06664002"></rect>
                <rect id="Rectangle" fill="#407BFF" x="6.85894013" y="64.656221" width="31.8817605" height="1.06664002"></rect>
                <rect id="Rectangle" fill="#407BFF" x="2.85642407" y="66.789537" width="35.8842845" height="1.06668002"></rect>
                <rect id="Rectangle" fill="#407BFF" x="2.85642407" y="68.922857" width="35.8842845" height="1.06668002"></rect>
                <rect id="Rectangle" fill="#407BFF" x="2.85642407" y="71.0562211" width="35.8842845" height="1.06664002"></rect>
                <rect id="Rectangle" fill="#407BFF" x="2.85642407" y="73.1895371" width="31.8817565" height="1.06668002"></rect>
                <rect id="Rectangle" fill="#407BFF" x="6.85894013" y="77.4642572" width="31.8817605" height="1.06668002"></rect>
                <rect id="Rectangle" fill="#407BFF" x="2.85642407" y="79.5975772" width="35.8842845" height="1.06668002"></rect>
                <rect id="Rectangle" fill="#407BFF" x="2.85642407" y="81.7309372" width="35.8842845" height="1.06664002"></rect>
                <rect id="Rectangle" fill="#407BFF" x="2.85642407" y="83.8642572" width="35.8842845" height="1.06668002"></rect>
                <rect id="Rectangle" fill="#407BFF" x="2.85642407" y="85.9975773" width="31.8817565" height="1.06668002"></rect>
                <g id="Group" opacity="0.2" transform="translate(2.800000, 27.200000)" fill="#FFFFFF">
                    <rect id="Rectangle" x="0.0564240008" y="6.9110201" width="7.86664012" height="1.06668002"></rect>
                    <rect id="Rectangle" x="0.0564240008" y="9.31102014" width="7.86664012" height="1.06668002"></rect>
                    <rect id="Rectangle" x="28.0740644" y="6.9110201" width="7.86664012" height="1.06668002"></rect>
                    <rect id="Rectangle" x="13.4073802" y="1.97389603" width="7.86668012" height="1.06668002"></rect>
                    <rect id="Rectangle" x="0.0564240008" y="0.107260002" width="35.8842845" height="1.06664002"></rect>
                    <rect id="Rectangle" x="4.05894006" y="12.6405802" width="31.8817605" height="1.06668002"></rect>
                    <rect id="Rectangle" x="0.0564240008" y="14.7738962" width="35.8842845" height="1.06668002"></rect>
                    <rect id="Rectangle" x="0.0564240008" y="16.9072603" width="35.8842845" height="1.06664002"></rect>
                    <rect id="Rectangle" x="0.0564240008" y="19.0405803" width="35.8842845" height="1.06668002"></rect>
                    <rect id="Rectangle" x="0.0564240008" y="21.1739003" width="31.8817565" height="1.06668002"></rect>
                    <rect id="Rectangle" x="4.05894006" y="25.0483764" width="31.8817605" height="1.06668002"></rect>
                    <rect id="Rectangle" x="0.0564240008" y="27.1817364" width="35.8842845" height="1.06664002"></rect>
                    <rect id="Rectangle" x="0.0564240008" y="29.3150564" width="35.8842845" height="1.06668002"></rect>
                    <rect id="Rectangle" x="0.0564240008" y="31.4483765" width="35.8842845" height="1.06668002"></rect>
                    <rect id="Rectangle" x="0.0564240008" y="33.5817365" width="31.8817565" height="1.06664002"></rect>
                    <rect id="Rectangle" x="4.05894006" y="37.4562206" width="31.8817605" height="1.06664002"></rect>
                    <rect id="Rectangle" x="0.0564240008" y="39.5895366" width="35.8842845" height="1.06668002"></rect>
                    <rect id="Rectangle" x="0.0564240008" y="41.7228566" width="35.8842845" height="1.06668002"></rect>
                    <rect id="Rectangle" x="0.0564240008" y="43.8562207" width="35.8842845" height="1.06664002"></rect>
                    <rect id="Rectangle" x="0.0564240008" y="45.9895367" width="31.8817565" height="1.06668002"></rect>
                    <rect id="Rectangle" x="4.05894006" y="50.2642567" width="31.8817605" height="1.06668002"></rect>
                    <rect id="Rectangle" x="0.0564240008" y="52.3975768" width="35.8842845" height="1.06668002"></rect>
                    <rect id="Rectangle" x="0.0564240008" y="54.5309368" width="35.8842845" height="1.06664002"></rect>
                    <rect id="Rectangle" x="0.0564240008" y="56.6642568" width="35.8842845" height="1.06668002"></rect>
                    <rect id="Rectangle" x="0.0564240008" y="58.7975769" width="31.8817565" height="1.06668002"></rect>
                    <rect id="Rectangle" x="28.0740644" y="64.947577" width="7.86664012" height="1.06664002"></rect>
                </g>
                <rect id="Rectangle" fill="#407BFF" x="35.0453326" y="25.3660764" width="24.1378804" height="20.0530003" rx="0.947520014"></rect>
                <rect id="Rectangle" fill="#FFFFFF" opacity="0.3" x="35.0453326" y="25.3660764" width="24.1378804" height="20.0530003" rx="0.947520014"></rect>
                <rect id="Rectangle" fill="#407BFF" x="50.6062968" y="28.0657124" width="6.00000009" height="2.80000004"></rect>
                <rect id="Rectangle" fill="#407BFF" x="44.2062967" y="28.0657124" width="6.00000009" height="2.80000004"></rect>
                <rect id="Rectangle" fill="#407BFF" x="44.2062967" y="30.8657125" width="6.00000009" height="12.0000002"></rect>
                <rect id="Rectangle" fill="#407BFF" x="50.6062968" y="30.8657125" width="6.00000009" height="12.0000002"></rect>
                <rect id="Rectangle" fill="#407BFF" x="37.8062966" y="28.0657124" width="6.00000009" height="2.80000004"></rect>
                <rect id="Rectangle" fill="#407BFF" x="37.8062966" y="30.8657125" width="6.00000009" height="12.0000002"></rect>
                <path d="M100.99127,70.118297 L128.22647,70.118297 C129.266091,70.118297 130.10887,70.9610762 130.10887,72.0006971 L130.10887,99.2358975 C130.10887,100.275518 129.266091,101.118297 128.22647,101.118297 L100.99123,101.118297 C99.9516308,101.118297 99.1088695,100.275536 99.1088695,99.2359375 L99.1088695,99.2359375 L99.1088695,72.0006971 C99.1088695,70.9610762 99.9516487,70.118297 100.99127,70.118297 L100.99127,70.118297 Z" id="Path" fill="#D3D3D3"></path>
                <rect id="Rectangle" fill="#FFFFFF" opacity="0.25" x="103.158862" y="74.1682971" width="23.0308843" height="22.9000003"></rect>
                <polygon id="Path" fill="#FFFFFF" opacity="0.25" points="103.158802 97.0404014 109.022402 92.2196014 110.939202 93.7636014 117.010402 88.6352013 119.992402 91.5712014 126.189602 86.3740013 126.189602 97.0404014"></polygon>
                <polygon id="Path" fill="#FFFFFF" opacity="0.25" points="103.158802 97.0404014 108.122802 87.7276013 113.923602 88.6336013 118.256402 82.9704012 122.722802 83.7720012 126.189602 80.3072012 126.189602 97.0404014"></polygon>
                <polygon id="Path" fill="#FFFFFF" opacity="0.25" points="103.158802 97.0404014 114.608802 95.6268014 118.322802 93.7668014 122.322802 94.1704014 126.189602 92.2404014 126.189602 97.0404014"></polygon>
                <rect id="Rectangle" fill="#F9FAFB" x="61.3543049" y="43.7939407" width="31.0000005" height="31.0000005" rx="1.88236003"></rect>
                <rect id="Rectangle" fill="#C1C1C1" x="72.4397451" y="47.0268167" width="8.70000013" height="5.21375608" rx="0.348560005"></rect>
                <rect id="Rectangle" fill="#C1C1C1" x="67.998345" y="58.2405769" width="7.0362361" height="3.98008006" rx="0.348560005"></rect>
                <rect id="Rectangle" fill="#C1C1C1" x="78.6739852" y="58.2405769" width="7.0362441" height="3.98008006" rx="0.348560005"></rect>
                <path d="M75.8014252,66.662501 L78.7975092,66.662501 C78.8899527,66.662501 78.9786099,66.6992243 79.0439769,66.7645921 C79.109344,66.8299599 79.1460652,66.9186175 79.1460652,67.011061 L79.1460652,69.713461 C79.1460652,69.8059045 79.109344,69.8945621 79.0439769,69.9599299 C78.9786099,70.0252977 78.8899527,70.062021 78.7975092,70.062021 L75.8013892,70.062021 C75.6089078,70.062021 75.4528652,69.9059864 75.4528652,69.713505 L75.4528652,67.011057 C75.4528652,66.818556 75.6089242,66.662501 75.8014252,66.662501 Z" id="Path" fill="#C1C1C1"></path>
                <rect id="Rectangle" fill="#C1C1C1" x="80.1431492" y="66.662501" width="3.69320006" height="3.39951605" rx="0.348560005"></rect>
                <path d="M85.1820013,66.662497 L88.1781173,66.662497 C88.3705987,66.662497 88.5266413,66.8185356 88.5266413,67.011017 L88.5266413,67.011017 L88.5266413,69.713461 C88.5266413,69.9059654 88.3705857,70.062021 88.1780813,70.062021 L85.1820013,70.062021 C84.9894969,70.062021 84.8334413,69.9059654 84.8334413,69.713461 L84.8334413,67.011061 C84.8334413,66.8185569 84.9894972,66.662497 85.1820013,66.662497 L85.1820013,66.662497 Z" id="Path" fill="#C1C1C1"></path>
                <path d="M64.948625,66.662497 L67.944741,66.662497 C68.1372224,66.662497 68.293265,66.8185356 68.293265,67.011017 L68.293265,67.011017 L68.293265,69.713461 C68.293265,69.9059654 68.1372094,70.062021 67.944705,70.062021 L64.948625,70.062021 C64.7561206,70.062021 64.600065,69.9059654 64.600065,69.713461 L64.600065,67.011061 C64.600065,66.9186175 64.6367841,66.8299595 64.7021504,66.7645909 C64.7675167,66.6992224 64.8561735,66.662497 64.948617,66.662497 L64.948625,66.662497 Z" id="Path" fill="#C1C1C1"></path>
                <path d="M70.0391451,66.662497 L73.0352651,66.662497 C73.2277458,66.662497 73.3837851,66.8185363 73.3837851,67.011017 L73.3837851,67.011017 L73.3837851,69.713461 C73.3837851,69.8059045 73.3470639,69.8945621 73.2816968,69.9599299 C73.2163298,70.0252977 73.1276726,70.062021 73.0352291,70.062021 L70.0391451,70.062021 C69.8466407,70.062021 69.6905851,69.9059654 69.6905851,69.713461 L69.6905851,67.011061 C69.6905851,66.9186168 69.7273048,66.8299582 69.7926719,66.7645895 C69.8580391,66.6992209 69.9466969,66.662497 70.0391411,66.662497 L70.0391451,66.662497 Z" id="Path" fill="#C1C1C1"></path>
                <polygon id="Path" fill="#C1C1C1" points="81.7896012 58.2404009 82.1896013 58.2404009 82.1896013 55.4404008 76.9896012 55.4404008 76.9896012 52.2404008 76.5896012 52.2404008 76.5896012 55.4404008 71.3896011 55.4404008 71.3896011 58.2404009 71.7896011 58.2404009 71.7896011 55.8404008 81.7896012 55.8404008"></polygon>
                <polygon id="Path" fill="#C1C1C1" points="71.3896011 64.640401 66.189601 64.640401 66.189601 66.640401 66.589601 66.640401 66.589601 65.040401 71.3896011 65.040401 71.3896011 66.640401 71.7896011 66.640401 71.7896011 62.2404009 71.3896011 62.2404009"></polygon>
                <polygon id="Path" fill="#C1C1C1" points="82.1896013 65.040401 82.1896013 62.2404009 81.7896012 62.2404009 81.7896012 65.040401 76.9896012 65.040401 76.9896012 66.640401 77.3896012 66.640401 77.3896012 65.440401 81.7896012 65.440401 81.7896012 66.640401 82.1896013 66.640401 82.1896013 65.440401 86.5896013 65.440401 86.5896013 66.640401 86.9896013 66.640401 86.9896013 65.040401"></polygon>
                <rect id="Rectangle" fill="#D3D3D3" x="103.86123" y="30.3150165" width="31.0000005" height="30.9999965" rx="1.88236003"></rect>
                <rect id="Rectangle" fill="#FFFFFF" opacity="0.25" x="107.845786" y="34.3650165" width="23.0308843" height="22.8999963"></rect>
                <rect id="Rectangle" fill="#FFFFFF" opacity="0.35" x="110.19663" y="48.4421367" width="2.31916403" height="5.94648009"></rect>
                <rect id="Rectangle" fill="#FFFFFF" opacity="0.35" x="110.19663" y="48.4421367" width="2.31916403" height="8.82288413"></rect>
                <rect id="Rectangle" fill="#FFFFFF" opacity="0.35" x="114.199146" y="44.2737007" width="2.31916403" height="8.75596413"></rect>
                <rect id="Rectangle" fill="#FFFFFF" opacity="0.35" x="114.199146" y="44.2737007" width="2.31916403" height="12.9913202"></rect>
                <rect id="Rectangle" fill="#FFFFFF" opacity="0.35" x="118.201658" y="46.8372967" width="2.31911603" height="7.0281201"></rect>
                <rect id="Rectangle" fill="#FFFFFF" opacity="0.35" x="118.201658" y="46.8372967" width="2.31911603" height="10.4277242"></rect>
                <rect id="Rectangle" fill="#FFFFFF" opacity="0.35" x="122.204186" y="43.2372966" width="2.31911603" height="9.45448014"></rect>
                <rect id="Rectangle" fill="#FFFFFF" opacity="0.35" x="122.204186" y="43.2372966" width="2.31911603" height="14.0277242"></rect>
                <rect id="Rectangle" fill="#FFFFFF" opacity="0.35" x="126.206702" y="37.7372966" width="2.31911603" height="13.1614002"></rect>
                <rect id="Rectangle" fill="#FFFFFF" opacity="0.35" x="126.206702" y="37.7372966" width="2.31911603" height="19.5277243"></rect>
                <path d="M80.1811012,9.05469613 L107.416342,9.05469613 C108.455941,9.05469613 109.298701,9.89745678 109.298701,10.9370562 L109.298701,10.9370562 L109.298701,38.1723366 C109.298701,38.6715705 109.100386,39.1503572 108.747374,39.5033689 C108.394362,39.8563807 107.915576,40.0546961 107.416342,40.0546961 L80.1811012,40.0546961 C79.1414804,40.0546961 78.2987012,39.2119214 78.2987012,38.1723006 L78.2987012,10.9371002 C78.2987012,10.4378559 78.4970234,9.9590591 78.850042,9.60603975 C79.2030606,9.2530204 79.681857,9.05469613 80.1811012,9.05469613 L80.1811012,9.05469613 Z" id="Path" fill-opacity="0.94553" fill="#5192F2"></path>
                <circle id="Oval" fill="#FF7E84" cx="93.7987094" cy="24.5546844" r="10.1657122"></circle>
                <path d="M93.7987054,24.5547004 L103.785462,26.4535804 C102.782873,31.7263952 97.8538385,35.3112873 92.5286084,34.640702 C87.2033783,33.9701168 83.316996,29.2751339 83.652948,23.9183722 C83.9889,18.5616104 88.4314193,14.3889802 93.7987054,14.3889802 L93.7987054,24.5547004 Z" id="Path" fill="#FFFFFF" opacity="0.25"></path>
                <path d="M93.7987054,24.5547004 L93.7688694,34.7203405 C88.159828,34.7046232 83.6234346,30.1488196 83.6316547,24.5397623 C83.6398971,18.9307049 88.1896421,14.3882351 93.7987054,14.3889802 L93.7987054,24.5547004 Z" id="Path" fill="#FFFFFF" opacity="0.25"></path>
                <path d="M93.7987054,24.5547004 L88.4404653,15.9157802 C90.0400412,14.9236729 91.8836507,14.395139 93.7659054,14.3890602 L93.7987054,24.5547004 Z" id="Path" fill="#FFFFFF" opacity="0.25"></path>
                <g id="_Group_" transform="translate(97.600001, 19.600000)">
                    <path d="M49.8897447,25.0405804 C49.8897447,25.0405804 55.2897448,34.5052965 55.6897448,36.7729365 C56.0897448,39.0405804 51.0897448,53.5405804 51.0897448,53.5405804 C51.0897448,53.5405804 52.1897448,57.3577769 50.9897448,57.9991769 C49.7897447,58.6405769 47.6929447,59.9405769 47.3913447,58.8405769 C47.0897447,57.7405769 47.3913447,54.1125768 47.3913447,54.1125768 L48.2930327,53.3405768 C48.2930327,53.3405768 51.4801168,38.1894526 51.4849128,37.6650126 C51.4897088,37.1405726 45.6806767,28.2052124 45.6806767,28.2052124 L49.8897447,25.0405804 Z" id="Path" fill="#F1BA8F"></path>
                    <polygon id="Path" fill="#F0B9A0" points="29.9816004 117.452402 26.7376004 117.792402 26.5736004 115.912402 26.1296004 110.796402 29.3736004 110.452402 29.8656004 116.104402"></polygon>
                    <polygon id="Path" fill="#F0B9A0" points="46.1736007 117.040402 43.0296006 117.040402 43.0016006 116.328402 42.9976006 116.240402 42.8376006 111.680402 42.8336006 111.588402 42.7696006 109.840402 45.9176007 109.840402"></polygon>
                    <polygon id="Path" fill="#E49E85" points="29.3736004 110.452402 29.8656004 116.104402 26.5736004 115.912402 26.1296004 110.796402"></polygon>
                    <polygon id="Path" fill="#F1BA8F" points="46.1536007 116.640402 46.1496007 116.640402 43.0016006 116.240402 42.9976006 116.240402 42.8336006 111.840402 42.8376006 111.840402 45.9896007 112.092402 46.1496007 116.502402"></polygon>
                    <path d="M53.5017448,29.5725764 L48.0897447,33.2525765 L47.9857447,33.1205765 L44.7017447,28.8405764 L42.6897446,26.2165764 L45.6617047,18.1365763 C49.0897447,19.4405803 53.5017448,29.5725764 53.5017448,29.5725764 Z" id="Path" fill="#FD6163"></path>
                    <path d="M42.5938206,116.851342 L46.4138207,116.851342 C46.5426136,116.85198 46.6538381,116.941624 46.6818207,117.067342 L47.3018207,119.867342 C47.3309356,120.005253 47.2958067,120.148923 47.2063394,120.257839 C47.1168722,120.366756 46.9827606,120.429118 46.8418207,120.427342 C45.6058207,120.407342 44.7058207,120.331342 43.1538206,120.331342 C42.1978206,120.331342 39.3138206,120.431342 37.9938206,120.431342 C36.6738205,120.431342 36.5018205,119.127342 37.0418206,119.007342 C39.4658206,118.479342 41.2898206,117.747342 42.0658206,117.051342 C42.2096016,116.919336 42.3986659,116.847721 42.5938206,116.851342 L42.5938206,116.851342 Z" id="Path" fill="#263238"></path>
                    <path d="M26.3938204,116.751342 L30.2138205,116.751342 C30.3426134,116.75198 30.4538378,116.841624 30.4818205,116.967342 L31.1018205,119.767342 C31.1309353,119.905253 31.0958064,120.048923 31.0063392,120.157839 C30.9168719,120.266756 30.7827604,120.329118 30.6418205,120.327342 C29.4058204,120.307342 28.5058204,120.231342 26.9538204,120.231342 C25.9978204,120.231342 23.1138203,120.331342 21.7938203,120.331342 C20.4738203,120.331342 20.3018203,119.027342 20.8418203,118.907342 C23.2658203,118.379342 25.0898204,117.647342 25.8658204,116.951342 C26.0096014,116.819336 26.1986657,116.747721 26.3938204,116.751342 Z" id="Path" fill="#263238"></path>
                    <path d="M25.8318204,115.440578 L30.4437485,115.440578 C30.4437485,115.440578 30.0677844,75.7385771 35.0557845,62.3305769 C35.4078205,66.762577 35.8038165,71.3615771 36.1917845,75.1935811 C36.4357445,77.5655812 36.6757845,79.6030652 36.9038205,81.1550532 C38.3557886,91.1550534 42.0197406,115.840578 42.0197406,115.840578 L46.5757807,115.840578 C46.5757807,115.840578 46.0357447,92.1865774 45.4957807,82.3585772 C44.8998207,71.6905771 44.6437447,48.2405767 44.6197447,46.2405767 L27.9318204,46.2405767 C26.3437484,54.6405768 22.2717883,88.2405767 25.8318204,115.440578 Z" id="Path" fill="#407BFF"></path>
                    <path d="M25.8318204,115.440578 L30.4437485,115.440578 C30.4437485,115.440578 30.0677844,75.7385771 35.0557845,62.3305769 C35.4078205,66.762577 35.8038165,71.3615771 36.1917845,75.1935811 C36.4357445,77.5655812 36.6757845,79.6030652 36.9038205,81.1550532 C38.3557886,91.1550534 42.0197406,115.840578 42.0197406,115.840578 L46.5757807,115.840578 C46.5757807,115.840578 46.0357447,92.1865774 45.4957807,82.3585772 C44.8998207,71.6905771 44.6437447,48.2405767 44.6197447,46.2405767 L27.9318204,46.2405767 C26.3437484,54.6405768 22.2717883,88.2405767 25.8318204,115.440578 Z" id="Path" fill="#0E538C"></path>
                    <path d="M33.9916245,10.9891762 C34.2988917,12.2256142 35.1222199,13.2706234 36.2524245,13.8586962 C37.8117037,14.6936515 39.7362752,14.387437 40.9594206,13.1097762 C42.5350206,11.5184162 42.4930206,9.68161614 42.6705046,6.5716561 C42.7791133,5.09580859 42.1149236,3.66914208 40.9156198,2.80219791 C39.7163161,1.93525373 38.1533295,1.75195491 36.7859845,2.31789603 C33.7355085,3.56225605 33.3173805,8.18938012 33.9916245,10.9891762 Z" id="Path" fill="#F1BA8F"></path>
                    <path d="M35.6831405,13.5067762 C35.8636369,13.6384416 36.0539506,13.7560922 36.2524125,13.8586962 C37.3071884,14.4198831 38.5588527,14.4752457 39.6590566,14.0093762 C39.5199737,13.6350995 39.3332069,13.2803206 39.1033766,12.9538162 C37.9338558,12.8060548 36.7465193,12.9980151 35.6831405,13.5067762 L35.6831405,13.5067762 Z" id="Path" fill="#F1BA8F"></path>
                    <path d="M41.9417086,17.5405803 C40.4097526,18.9325803 36.6564285,18.4178563 36.6564285,18.4178563 C36.6564285,18.4178563 34.3137925,17.7765763 34.8057485,17.0445803 C36.1857485,16.8165803 36.8538285,16.1725802 37.1297806,15.3485802 C37.2806018,14.8377487 37.3281832,14.3019962 37.2697486,13.7725802 C37.2468061,13.477392 37.208111,13.1836401 37.1538286,12.8925802 L41.7937486,9.45658014 C41.1857406,11.7245762 40.4417086,15.8965762 41.9417086,17.5405803 Z" id="Path" fill="#F1BA8F"></path>
                    <path d="M35.4805405,4.39753607 C35.5141405,4.48481607 35.4328965,4.66409607 35.3749845,4.87025607 C35.2635571,5.26979327 35.2066168,5.68255274 35.2057085,6.09733609 C35.2362669,7.46273259 35.8166582,8.75799094 36.8153525,9.68957614 C37.1604216,10.9468636 37.6294159,12.1668019 38.2154406,13.3314562 C38.3028521,13.6204229 38.6012384,13.7903351 38.8943566,13.7180562 L41.6046726,13.6238562 C41.7659238,13.6412274 41.9264776,13.585454 42.0422326,13.4718562 C42.0845377,13.3950123 42.1177878,13.3135212 42.1413166,13.2290162 C42.3869166,12.6433722 43.4193566,12.9210162 43.7752767,12.3950562 C43.8770354,12.1581314 43.9475338,11.9089732 43.9849967,11.6538562 C44.2079207,11.0047362 45.1277207,10.6666962 45.0940767,9.98117615 C45.0745207,9.58289614 44.7105927,9.22013214 44.8206047,8.83681613 C44.9284407,8.46101613 45.4208487,8.33313212 45.6050407,7.98829612 C45.7931967,7.63609611 45.5964327,7.20737611 45.3845207,6.8689361 C45.1219325,6.56268444 44.997571,6.16153469 45.0408767,5.76045209 C45.0970467,5.61254537 45.1668555,5.47018524 45.2494007,5.33521208 C45.5121178,4.78253419 45.4052868,4.12494119 44.9811247,3.68385205 C44.7908675,3.53833369 44.6235581,3.36505086 44.4848007,3.16980805 C44.3012007,2.81905204 44.4566727,2.34953204 44.2337967,2.02237203 C44.0128007,1.69797203 43.5480806,1.68349203 43.1562846,1.70677203 C42.7644886,1.73005203 42.3027686,1.72673203 42.0690406,1.41141602 C41.9019246,1.18597602 41.9083966,0.861016013 41.7237646,0.64973201 C41.4623646,0.350612005 40.9801646,0.434176006 40.6114006,0.581852009 C40.2426366,0.729528011 39.8290366,0.917572014 39.4680406,0.751852011 C39.2192846,0.63769201 39.0673566,0.381212006 38.8407206,0.227652003 C38.5104265,0.0141890029 38.0801356,0.0382027765 37.7756446,0.287092004 C37.5741686,0.459172007 37.4528046,0.719532011 37.2261686,0.856732013 C36.8771929,0.99482497 36.4884429,0.993234962 36.1406085,0.852292013 C35.7880538,0.712817995 35.3873717,0.778407349 35.0976885,1.02301202 C34.7605325,1.43141202 35.1250965,2.13821203 34.7813685,2.54113204 C34.5842125,2.77225204 34.2268045,2.80273204 34.0133285,3.01889204 C33.8814441,3.17828104 33.8380813,3.39309787 33.8978096,3.59116574 C33.9575379,3.78923361 34.1124305,3.94426556 34.3104445,4.00417206 C34.4311245,4.02937206 34.5864445,4.03533606 34.6309645,4.15029606 C34.6493245,4.19781206 34.6409645,4.25181606 34.6550885,4.30077606 C34.6996085,4.45497207 34.9174525,4.46461207 35.0689285,4.41157607 C35.3425405,4.31573606 35.4522685,4.32400006 35.4805405,4.39753607 Z" id="Path" fill="#333333"></path>
                    <path d="M37.4505446,8.38002012 C37.3300967,8.97248387 36.9501617,9.47963836 36.4154285,9.76174015 C35.7819445,10.0304601 35.3661845,9.13814014 35.4575405,8.20306012 C35.5442965,7.37446011 35.9733365,6.20782009 36.6512685,6.36186009 C37.3292206,6.5159761 37.6712006,7.54360011 37.4505446,8.38002012 Z" id="Path" fill="#F1BA8F"></path>
                    <path d="M45.3897447,49.5725767 L26.3217884,48.6405767 C26.743461,41.695253 27.5903562,34.7822968 28.8577124,27.9405764 C29.3787308,25.1921993 30.0463507,22.473651 30.8577125,19.7965763 C31.2704124,18.4371155 31.75511,17.1005619 32.3097525,15.7925762 C32.3097525,15.7925762 44.1617167,16.7725762 46.5777527,18.6405763 C48.9897447,20.5085763 45.2577007,39.8405766 45.3897447,49.5725767 Z" id="Path" fill="#FD6163"></path>
                    <path d="M30.1662684,15.8645762 C30.1662684,15.8645762 18.3230683,13.4426962 16.6564282,12.8082962 C14.9897882,12.1738962 6.18974409,3.75469606 6.18974409,3.75469606 L4.26190006,5.21177608 C4.26190006,5.21177608 10.8559802,13.7738962 14.1561722,16.2405762 C17.4563643,18.7072563 29.0067004,22.4372923 29.0067004,22.4372923 L30.1662684,15.8645762 Z" id="Path" fill="#F1BA8F"></path>
                    <path d="M32.6387045,15.8645762 L22.3230683,13.9797762 L22.0564283,21.1072603 L29.7662684,24.2405804 C29.7662684,24.2405804 34.6268005,19.3632603 32.6387045,15.8645762 Z" id="Path" fill="#FD6163"></path>
                    <path d="M6.18974409,3.75470006 C5.23974408,2.67313604 1.78162403,0.330980005 1.28162402,0.130980002 C0.781624012,-0.069020001 0.0362280005,2.99058004 0.186228003,3.39058005 C0.336228005,3.79058006 2.03134403,4.64058007 2.88554404,4.74058007 C3.73974406,4.84058007 4.65566007,5.71730009 4.65566007,5.71730009 L6.18974409,3.75470006 Z" id="Path" fill="#F1BA8F"></path>
                </g>
                <rect id="Rectangle" fill-opacity="0.94553" fill="#5192F2" opacity="0.3" x="32.9213925" y="89.0009013" width="24.1378804" height="20.0529963" rx="0.947520014"></rect>
                <rect id="Rectangle" fill="#5192F2" x="35.2823486" y="100.685418" width="4.80000007" height="2.40000004"></rect>
                <rect id="Rectangle" fill="#5192F2" x="40.4823486" y="100.685418" width="13.6000002" height="2.40000004"></rect>
                <rect id="Rectangle" fill="#5192F2" x="35.2823486" y="97.4854175" width="4.80000007" height="2.80000004"></rect>
                <rect id="Rectangle" fill="#5192F2" x="35.2823486" y="94.6854174" width="4.80000007" height="2.40000004"></rect>
                <rect id="Rectangle" fill="#5192F2" x="40.4823486" y="97.4854175" width="13.6000002" height="2.80000004"></rect>
                <rect id="Rectangle" fill="#5192F2" x="40.4823486" y="103.485418" width="13.6000002" height="2.80000004"></rect>
                <rect id="Rectangle" fill="#5192F2" x="40.4823486" y="94.6854174" width="13.6000002" height="2.40000004"></rect>
                <rect id="Rectangle" fill="#5192F2" x="35.2823486" y="103.485418" width="4.80000007" height="2.80000004"></rect>
                <rect id="Rectangle" fill="#5192F2" x="35.2823486" y="91.4854174" width="4.80000007" height="2.80000004"></rect>
                <rect id="Rectangle" fill="#5192F2" x="40.4823486" y="91.4854174" width="13.6000002" height="2.80000004"></rect>
            </g>
        </g>
    </g>
</svg>