<?xml version="1.0" encoding="utf-8"?>
<!-- Generator: Adobe Illustrator 22.0.1, SVG Export Plug-In . SVG Version: 6.00 Build 0)  -->
<svg version="1.1" id="Layer_1" xmlns="http://www.w3.org/2000/svg" xmlns:xlink="http://www.w3.org/1999/xlink" x="0px" y="0px"
	 viewBox="0 0 646 374" style="enable-background:new 0 0 646 374;" xml:space="preserve">
<style type="text/css">
	.st0{fill:#263238;}
	.st1{fill:#E0E0E0;}
	.st2{fill:#EBEBEB;}
	.st3{fill:#FFFFFF;}
	.st4{fill:#FF725E;}
	.st5{opacity:0.5;enable-background:new    ;}
	.st6{fill:#FAFAFA;}
</style>
<g id="freepik--Files--inject-516">
	<path class="st0" d="M248.6,64.5c-7.8,38.5-36,183.3-43.5,221.9c-1,5.3,2.4,10.4,7.7,11.5L371.3,330c5.3,1.1,10.5-2.4,11.5-7.7
		c0,0,0,0,0-0.1l21.7-112l13.5,2.1c3.3,0.5,6.4-1.7,7.1-5l16.5-90.4c0.6-3.4-1.6-6.6-5-7.2c0,0,0,0,0,0l-12.2-2.3l1.6-8.7
		c1-5.2-2.5-10.3-7.7-11.3L260,56.9C254.8,55.9,249.7,59.3,248.6,64.5z"/>
	<polygon class="st1" points="260.4,68.2 208.1,289.7 370.7,327 422,107 	"/>
	<polygon class="st2" points="241.5,60 204.3,284.5 369,310.7 405.3,87.8 	"/>
	<polygon class="st3" points="217.4,71.7 210.4,299.2 377.2,303.2 383.4,77.4 	"/>
	<path class="st0" d="M217.4,71.7l166,5.5h0.3v0.2c-1.7,63.4-3.9,141.4-6.2,225.7v0.3h-0.3H376l-165.6-4h-0.2v-0.2
		C214.4,164.7,217.3,73.8,217.4,71.7c-0.1,2.1-2.7,92.9-6.7,227.5l-0.2-0.2l165.6,3.9h1.2l-0.3,0.2c2.3-84.3,4.5-162.3,6.2-225.7
		l0.2,0.2L217.4,71.7z"/>
	<path class="st0" d="M360,120.4c0,0.4-28.7,0.4-64.1-0.1s-64.1-1.2-64.1-1.6s28.7-0.4,64.1,0.1S360,120,360,120.4z"/>
	<path class="st0" d="M361.2,140.5c0,0.4-28.7,0.4-64.1-0.1s-64.1-1.2-64.1-1.7s28.7-0.4,64.1,0.1S361.2,140.1,361.2,140.5z"/>
	<path class="st0" d="M362.9,202.2c0,0.4-28.7,0.4-64.1-0.1s-64.1-1.2-64.1-1.7s28.7-0.4,64.1,0.1S362.9,201.8,362.9,202.2z"/>
	<path class="st0" d="M362.9,182.7c0,0.4-28.7,0.4-64.1-0.1s-64.1-1.2-64.1-1.6s28.7-0.4,64.1,0.1S362.9,182.3,362.9,182.7z"/>
	<path class="st0" d="M362.9,163.2c0,0.4-28.7,0.4-64.1-0.1s-64.1-1.2-64.1-1.6s28.7-0.4,64.1,0.1S362.9,162.7,362.9,163.2z"/>
	<path class="st0" d="M361,224c0,0.4-28.7,0.4-64.1-0.1s-64.1-1.2-64.1-1.6s28.7-0.4,64.1,0.1S361,223.6,361,224z"/>
	<path class="st0" d="M360.6,245.4c0,0.4-28.7,0.4-64.1-0.1s-64.1-1.2-64.1-1.7s28.7-0.4,64.1,0.1S360.6,245,360.6,245.4z"/>
	<path class="st0" d="M360.2,266.8c0,0.4-28.7,0.4-64.1-0.1s-64.1-1.2-64.1-1.6s28.7-0.4,64.1,0.1S360.2,266.4,360.2,266.8z"/>
	<ellipse class="st4" cx="381.3" cy="84.4" rx="40.6" ry="40.6"/>
	
		<ellipse transform="matrix(0.7071 -0.7071 0.7071 0.7071 52.0182 294.377)" class="st5" cx="381.4" cy="84.4" rx="40.6" ry="40.6"/>
	<ellipse class="st4" cx="376.9" cy="84.4" rx="40.6" ry="40.6"/>
	<path class="st6" d="M376.6,60.5h0.6c1.1,0,2.1,0.9,2.1,2.1v43.7c0,1.1-0.9,2.1-2.1,2.1h-0.6c-1.1,0-2.1-0.9-2.1-2.1V62.6
		C374.5,61.4,375.4,60.5,376.6,60.5z"/>
	<path class="st6" d="M353,84.7v-0.6c0-1.2,0.9-2.1,2.1-2.1h43.6c1.2,0,2.1,0.9,2.1,2.1v0.6c0,1.2-0.9,2.1-2.1,2.1H355
		C353.9,86.8,353,85.8,353,84.7z"/>
</g>
</svg>
