<?xml version="1.0" encoding="utf-8"?>
<!-- Generator: Adobe Illustrator 22.0.1, SVG Export Plug-In . SVG Version: 6.00 Build 0)  -->
<svg version="1.1" id="Layer_1" xmlns="http://www.w3.org/2000/svg" xmlns:xlink="http://www.w3.org/1999/xlink" x="0px" y="0px"
	 viewBox="0 0 651.9 352.4" style="enable-background:new 0 0 651.9 352.4;" xml:space="preserve">
<style type="text/css">
	.st0{fill:#F5F5F5;}
	.st1{fill:#E0E0E0;}
	.st2{fill:#EBEBEB;}
	.st3{fill:#FAFAFA;}
	.st4{fill:#263238;}
	.st5{fill:#EB996E;}
	.st6{fill:#FFBE9D;}
	.st7{fill:#C53F3F;}
	.st8{fill:#455A64;}
	.st9{opacity:0.3;}
</style>
<g>
	<g id="freepik--background-complete--inject-92">
		<path class="st0" d="M484.2,91.4c-24.1-0.4-43.3-20.2-43-44.2c0.3-24.2,20.1-43.5,44.3-43.2C509.6,4.2,529,24,528.7,48.2
			C528.3,72.4,508.4,91.7,484.2,91.4z M464,47.1c-0.2,11.6,9,21.2,20.6,21.4c11.5,0.2,21-9,21.2-20.5c0.2-11.5-8.9-21.1-20.5-21.3
			C473.8,26.5,464.3,35.6,464,47.1L464,47.1z"/>
		<path class="st1" d="M484.3,91.4l0.4-22.9c11.6,0.2,21.2-9.1,21.3-20.7s-9.1-21.2-20.7-21.3l0.4-22.9c24.2,0.5,43.4,20.5,43,44.6
			C528.3,72.4,508.4,91.7,484.3,91.4z"/>
		<path class="st2" d="M489.1,28.4c-13.5-0.2-23.8,8.3-24,21.9l-26.7-0.4c0.4-28.3,23-50.2,51.2-49.8L489.1,28.4z"/>
		<rect x="637.4" y="163.5" class="st1" width="11.3" height="45.2"/>
		<rect x="620.8" y="173.3" class="st1" width="11.3" height="35.4"/>
		<rect x="603.9" y="181.4" class="st1" width="11.3" height="27.3"/>
		<rect x="588.2" y="192.5" class="st1" width="11.3" height="16.2"/>
		<rect x="374.1" y="187.9" class="st3" width="137.8" height="85.3"/>
		<path class="st2" d="M389.4,261.6h107.8v-45.2c-0.5-3.8-6.2-4.5-9-1.9c-2.8,2.6-3.4,6.6-4.3,10.3s-2.7,7.7-6.4,8.7
			c-5.8,1.7-10.6-5.2-16.6-5.9c-5.9-0.6-10.5,5-13.2,10.3c-2.7,5.3-5.1,11.5-10.6,13.9c-9.4,4.1-20.4-5.9-29.9-2.3
			C404.1,250.8,389.4,261.6,389.4,261.6z"/>
		<path class="st1" d="M444.9,261.4c32.2,0,58.3,0.1,58.3,0.2s-26.1,0.2-58.3,0.2s-58.3-0.1-58.3-0.2
			C386.6,261.5,412.7,261.4,444.9,261.4z"/>
		<path class="st1" d="M444.9,241.7c32.2,0,58.3,0.1,58.3,0.2s-26.1,0.2-58.3,0.2s-58.3-0.1-58.3-0.2S412.7,241.7,444.9,241.7z"/>
		<path class="st1" d="M444.9,221.9c32.2,0,58.3,0.1,58.3,0.2s-26.1,0.2-58.3,0.2s-58.3-0.1-58.3-0.2
			C386.6,222,412.7,221.9,444.9,221.9z"/>
		<path class="st1" d="M444.9,203.2c32.2,0,58.3,0.1,58.3,0.2s-26.1,0.2-58.3,0.2s-58.3-0.1-58.3-0.2
			C386.6,203.2,412.7,203.2,444.9,203.2z"/>
		<rect x="8.5" y="27.6" class="st3" width="213.1" height="80.8"/>
		<path class="st2" d="M107.3,46.5c44.7,0,80.9,0.1,80.9,0.3S152,47,107.3,47s-80.9-0.1-80.9-0.3C26.4,46.6,62.7,46.5,107.3,46.5z"
			/>
		<path class="st2" d="M107.3,56c44.7,0,80.9,0.1,80.9,0.3s-36.2,0.3-80.9,0.3s-80.9-0.1-80.9-0.3C26.4,56.1,62.7,56,107.3,56z"/>
		<path class="st2" d="M107.3,65.6c44.7,0,80.9,0.1,80.9,0.3s-36.2,0.3-80.9,0.3S26.4,66,26.4,65.9C26.4,65.7,62.7,65.6,107.3,65.6z
			"/>
		<path class="st2" d="M107.3,75.1c44.7,0,80.9,0.1,80.9,0.3s-36.2,0.3-80.9,0.3s-80.9-0.1-80.9-0.3C26.4,75.3,62.7,75.1,107.3,75.1
			z"/>
		<path class="st2" d="M107.3,84.7c44.7,0,80.9,0.1,80.9,0.3s-36.2,0.3-80.9,0.3S26.4,85.1,26.4,85S62.7,84.7,107.3,84.7z"/>
		<path class="st1" d="M42.5,75c2,0.6,4.1,0.2,5.7-1.1c1.1-1,2-2.1,2.7-3.5c0.8-1.4,1.4-3.1,2.1-4.9c0.7-1.9,1.8-3.7,3.2-5.2
			c0.8-0.8,1.8-1.4,2.9-1.8c1.1-0.4,2.4-0.4,3.5-0.2c2.5,0.5,4.8,1.7,6.7,3.5c2,1.8,3.7,3.9,5.7,5.8c2,2.1,4.7,3.4,7.5,3.7
			c1.5,0.1,3-0.3,4.2-1.1c1.2-0.9,2.3-2.1,3-3.4c1.5-2.7,2.4-6,4.5-8.6c1-1.4,2.5-2.4,4.2-2.9c1.8-0.4,3.6,0.1,5,1.2
			c1.4,1.1,2.5,2.6,3.2,4.2c0.7,1.7,1.2,3.4,1.5,5.1c0.3,1.7,0.8,3.5,1.4,5.1c0.3,0.8,0.7,1.6,1.2,2.3c0.5,0.7,1.1,1.4,1.8,1.9
			c1.4,1.1,3,1.9,4.7,2.4c1.7,0.4,3.5,0.5,5.2,0.1c1.7-0.4,3.3-1.2,4.6-2.3c1.3-1,2.6-2.2,4-3.3c1.3-1.1,2.9-2,4.6-2.5
			c1.7-0.4,3.5-0.2,5,0.7c1.4,0.9,2.7,2,3.7,3.4c0.9,1.3,1.7,2.7,2.4,4.2c0.7,1.4,1.4,2.7,2.3,4c0.8,1.2,1.9,2.3,3.2,3.1
			c1.2,0.8,2.7,1.1,4.1,1c1.4-0.2,2.6-0.9,3.5-2c0.9-1,1.6-2.2,2-3.5c0.4-1.3,0.8-2.5,1-3.8c0.2-1.3,0.5-2.5,0.8-3.8
			c0.3-1.2,0.8-2.3,1.5-3.4c1.2-2.1,3.2-3.5,5.5-4c1.1-0.1,2.2,0,3.2,0.4c0.9,0.4,1.8,1,2.5,1.7c2.8,2.7,4.1,5.8,6,7.7
			s3.9,2.8,5.3,2.8c0.7,0,1.4-0.1,2.1-0.4c0,0-0.2,0.1-0.5,0.2c-0.5,0.2-1,0.3-1.6,0.3c-1.4,0-3.4-0.9-5.4-2.7s-3.3-5-6.1-7.6
			c-0.7-0.7-1.5-1.2-2.4-1.6c-1-0.4-2-0.5-3-0.4c-2.2,0.5-4.1,1.9-5.2,3.9c-1.3,1.9-1.8,4.4-2.2,7c-0.2,1.3-0.6,2.6-1,3.9
			c-0.5,1.3-1.2,2.6-2.1,3.6c-1,1.1-2.3,1.9-3.8,2.1c-1.5,0.2-3.1-0.2-4.4-1c-1.3-0.8-2.5-1.9-3.4-3.2c-0.9-1.3-1.7-2.7-2.3-4.1
			c-0.7-1.4-1.5-2.8-2.4-4.1c-0.9-1.3-2.1-2.4-3.5-3.2c-1.4-0.8-3.1-1-4.7-0.6c-1.6,0.5-3.1,1.3-4.4,2.4c-1.3,1.1-2.6,2.2-4.1,3.3
			c-1.4,1.1-3,1.9-4.8,2.4c-1.8,0.4-3.7,0.4-5.5-0.1c-1.8-0.4-3.5-1.3-4.9-2.5c-0.7-0.6-1.4-1.3-1.9-2c-0.5-0.8-1-1.6-1.3-2.4
			c-0.6-1.7-1.1-3.5-1.5-5.3c-0.3-1.7-0.8-3.4-1.4-5c-0.7-1.6-1.7-2.9-3-4c-1.3-1.1-3-1.5-4.6-1.1c-1.6,0.4-2.9,1.4-3.9,2.7
			c-2.1,2.5-2.9,5.8-4.5,8.5c-0.8,1.4-1.8,2.6-3.1,3.6c-1.3,0.9-2.9,1.3-4.5,1.2c-3-0.3-5.7-1.7-7.8-3.8c-2.1-1.9-3.8-4.1-5.7-5.8
			c-1.8-1.7-4-2.9-6.5-3.4c-1.1-0.2-2.3-0.1-3.4,0.2c-1,0.3-2,0.9-2.8,1.7c-1.4,1.5-2.5,3.2-3.2,5.1c-0.7,1.8-1.3,3.4-2.1,4.9
			c-0.7,1.4-1.6,2.5-2.8,3.5c-1.7,1.3-3.9,1.7-5.9,1.1c-0.5-0.2-1-0.5-1.4-0.9c-0.2-0.3-0.3-0.4-0.3-0.4
			C41.1,74.4,41.7,74.8,42.5,75z"/>
		<path class="st1" d="M32.4,71.1c1.8-1,3.4-2.4,4.7-4c0.4-0.5,0.9-1.1,1.3-1.7c0.5-0.7,1-1.3,1.5-1.9c1.3-1.3,3.1-2.1,4.9-2.3
			c1-0.1,2,0,3,0.4c1,0.4,1.9,1,2.7,1.8c1.5,1.8,3,3.6,4.3,5.5c0.8,1,1.6,1.8,2.7,2.6c1.1,0.7,2.3,1.2,3.6,1.3
			c2.8,0.2,5.5-0.4,8-1.5c2.6-1.1,5.2-2.7,8.2-3.7c1.5-0.5,3-0.9,4.6-0.9c1.6-0.1,3.3,0.3,4.8,1c3,1.4,5.3,4,8,6
			c1.3,1,2.8,1.9,4.4,2.4c1.6,0.6,3.3,0.8,5.1,0.9c3.6,0,7.1-0.9,10.1-2.8c3.1-2,5.7-4.6,7.7-7.7c2.1-3.1,3.2-6.6,4.8-9.9
			c0.7-1.7,1.7-3.2,2.9-4.7c1.2-1.4,2.6-2.5,4.3-3.3c1.6-0.8,3.5-1,5.3-0.6c1.7,0.5,3.2,1.5,4.3,2.9c1.1,1.3,2,2.8,2.6,4.4
			c0.5,1.6,1,3.2,1.3,4.8c0.6,3.2,1.3,6.3,2.8,9c1.4,2.6,3.4,4.8,5.8,6.6c2.2,1.6,4.8,2.7,7.5,3.1c2.5,0.3,5.1,0,7.5-0.8
			c4.2-1.4,7.5-4.7,9.1-8.8c0.6-1.8,1-3.6,1.5-5.2c0.4-1.5,1-2.9,1.9-4.2c1.3-1.7,3.3-2.8,5.5-2.7c0.7,0.1,1.4,0.4,2,0.8
			c-0.6-0.4-1.3-0.7-2-0.7c-2.1,0-4.1,1-5.3,2.7c-0.9,1.2-1.5,2.6-1.8,4.1c-0.4,1.6-0.8,3.4-1.4,5.2c-1.6,4.3-5,7.6-9.2,9.1
			c-2.4,0.9-5.1,1.2-7.7,0.9c-2.8-0.4-5.5-1.5-7.8-3.1c-2.5-1.8-4.5-4-5.9-6.7c-0.8-1.4-1.3-2.9-1.8-4.4c-0.4-1.5-0.7-3.1-1.1-4.7
			c-0.3-1.6-0.7-3.1-1.3-4.7c-0.6-1.6-1.4-3-2.5-4.3c-1.1-1.3-2.5-2.2-4.1-2.7c-1.7-0.4-3.4-0.2-4.9,0.5c-1.6,0.7-3,1.8-4.1,3.2
			c-1.1,1.4-2.1,2.9-2.8,4.6c-1.5,3.2-2.7,6.8-4.8,10c-2,3.2-4.7,5.8-7.9,7.8c-3.1,1.9-6.7,2.9-10.4,2.9c-1.8,0-3.5-0.3-5.2-0.9
			c-1.6-0.6-3.2-1.4-4.5-2.5c-2.7-2.1-5-4.6-7.9-6c-1.4-0.7-3-1-4.5-1c-1.5,0.1-3,0.4-4.5,0.9c-2.9,1-5.5,2.5-8.1,3.6
			c-2.6,1.2-5.4,1.7-8.2,1.5c-1.3-0.2-2.6-0.6-3.7-1.4c-1-0.7-2-1.6-2.7-2.7c-1.3-1.9-2.7-3.8-4.3-5.5c-0.7-0.8-1.6-1.4-2.6-1.8
			c-0.9-0.3-1.9-0.5-2.9-0.4c-1.8,0.2-3.5,0.9-4.8,2.2c-0.5,0.6-1,1.2-1.5,1.8c-0.5,0.6-0.9,1.2-1.4,1.7
			C36,68.8,34.4,70.2,32.4,71.1c-0.2,0.2-0.5,0.3-0.9,0.4c-0.3,0-0.5,0.1-0.7,0.1h-0.6C31.1,71.6,31.8,71.5,32.4,71.1z"/>
		<path class="st1" d="M203.7,47.2c-1.4,0.3-2.9,0.3-4.3,0C200.8,46.9,202.3,46.9,203.7,47.2z"/>
		<path class="st1" d="M203.7,56.3c-1.4,0.3-2.9,0.3-4.3,0C200.8,56,202.3,56,203.7,56.3z"/>
		<path class="st1" d="M203.7,65.4c-1.4,0.3-2.9,0.3-4.3,0C200.8,65,202.3,65,203.7,65.4z"/>
		<path class="st1" d="M203.7,74.5c-1.4,0.3-2.9,0.3-4.3,0C200.8,74.1,202.3,74.1,203.7,74.5z"/>
		<path class="st1" d="M203.7,83.5c-1.4,0.3-2.9,0.3-4.3,0C200.8,83.2,202.3,83.2,203.7,83.5z"/>
		<path class="st1" d="M188.3,95.2c-2.8,0.3-5.7,0.3-8.6,0C182.6,94.9,185.4,94.9,188.3,95.2z"/>
		<path class="st1" d="M150.5,95.2c-2.8,0.3-5.7,0.3-8.5,0C144.8,94.9,147.7,94.9,150.5,95.2z"/>
		<path class="st1" d="M112.8,95.2c-2.8,0.3-5.7,0.3-8.6,0C107.1,94.9,110,94.9,112.8,95.2z"/>
		<path class="st1" d="M75.1,95.2c-2.8,0.3-5.7,0.3-8.6,0C69.4,94.9,72.3,94.9,75.1,95.2z"/>
		<path class="st1" d="M37.4,95.2c-2.8,0.3-5.7,0.3-8.5,0C31.7,94.9,34.5,94.9,37.4,95.2z"/>
	</g>
	<g id="freepik--Floor--inject-92">
		<path class="st4" d="M325.9,351.2c180.1,0,326,0.1,326,0.3c0,0.1-146,0.3-325.9,0.3S0,351.6,0,351.4
			C0,351.3,145.8,351.2,325.9,351.2z"/>
	</g>
	<g id="freepik--character-2--inject-92">
		<path class="st5" d="M236.7,141.6c-0.6-2.7-1.8-4.6-1.6-4.7c1.1,1.3,1.8,2.9,2.1,4.6c0.5,1.6,0.5,3.3,0.2,5
			C237.2,146.6,237.3,144.3,236.7,141.6z"/>
		<path class="st6" d="M187.1,135.3l4.9,24.4l43.5,0.9c6-0.4,11.5-3.5,15-8.4l21.3-35c0,0,10.6-9.3,12.7-11.1
			c2.6-2.2,3.6-3.3,3.1-3.8c-0.6-0.6-0.3-0.4-5.7,3c0,0,7.6-4.9,5.2-5.1c-1.1,0.3-2.1,0.7-3.1,1.3c1.9-1.4,2.5-2.3,2.2-2.9
			c-0.5-0.9-5.2,1.8-7.3,3.1c2-1.2,3.9-2.5,5.7-3.9c0.8-1-0.7-1-2-0.7c-1.5,0.4-9.6,3.7-12,4.5c-0.1,0-0.1,0.1-0.2,0.1
			c-0.8,0.2-1.6-0.2-1.9-1c-0.6-3.6-2.9-6.2-3.9-6.6c-0.4-0.1-0.7,0-1,0.2c-0.5,0.4-0.6,1.1-0.2,1.6c0.6,1.1,1,2.2,1.2,3.4
			c0.2,1,0.3,2,0.2,3c-0.1,1.2-1.2,2.3-2.2,3.1l-27.8,31.3L187.1,135.3z"/>
		<path class="st5" d="M282.2,104.7c1.2-0.9,2.4-1.6,3.8-2.2c-1,1-2.2,1.9-3.5,2.6c-1.2,0.9-2.4,1.6-3.8,2.2
			C279.8,106.3,281,105.5,282.2,104.7z"/>
		<path class="st5" d="M281.1,102.9c1.3-0.9,2.7-1.6,4.2-2.1c-1.2,1-2.5,1.9-3.9,2.6c-1.3,0.9-2.7,1.6-4.2,2.1
			C278.4,104.4,279.7,103.6,281.1,102.9z"/>
		<path class="st5" d="M279.4,101c1.2-0.8,2.6-1.4,4-1.9c-1.1,1-2.4,1.8-3.7,2.4c-1.2,0.8-2.6,1.4-4,1.9
			C276.8,102.5,278,101.7,279.4,101z"/>
		<path class="st7" d="M286.3,326l9.8,26.4l32.9-12c-1.3-3.1-20.7-3.1-20.7-3.1l-5.6-17.2L286.3,326z"/>
		<path class="st1" d="M297.5,339.6c0.6-0.5,1.5-0.4,2,0.2c0.4,0.7,0.2,1.5-0.4,2c-0.6,0.4-1.4,0.2-1.9-0.4
			c-0.4-0.6-0.2-1.4,0.4-1.9"/>
		<path class="st1" d="M329,340.3c-0.2-1.1-1.9-1.2-1.9-1.2l-31.9,10.6l1,2.6L329,340.3z"/>
		<path class="st4" d="M307,337.8c-0.8,1-0.7,2-0.5,2s0.4-0.8,1-1.6s1.4-1.2,1.3-1.3C308.8,336.7,307.8,336.8,307,337.8z"/>
		<path class="st4" d="M311.4,338.3c-0.4,1.1,0,2,0.2,1.9s0.1-0.8,0.4-1.7s0.9-1.4,0.8-1.5C312.7,336.8,311.8,337.2,311.4,338.3z"/>
		<path class="st4" d="M316.3,338.8c0.1-0.9,0.3-1.5,0.2-1.6s-0.7,0.5-0.8,1.5s0.4,1.8,0.6,1.7C316.4,340.3,316.2,339.6,316.3,338.8
			z"/>
		<path class="st4" d="M305.2,333.1c-1.1,0.5-1.5,1.3-1.4,1.4s0.7-0.4,1.6-0.8s1.7-0.4,1.7-0.6C307.2,332.9,306.2,332.7,305.2,333.1
			z"/>
		<path class="st4" d="M304.2,329.8c-0.6,0.1-1.2,0.1-1.8,0c-0.4,0-0.7-0.1-1-0.2c-0.2,0-0.3-0.1-0.5-0.1c-0.1-0.1-0.1,0-0.1-0.2
			s0.3-0.3,0.7-0.3c0.3,0,0.7-0.1,1-0.1c0.6,0,1.2,0.1,1.8,0.3c1,0.3,1.5,0.7,1.6,0.6s-0.5-0.6-1.5-1c-0.6-0.2-1.2-0.4-1.9-0.5
			c-0.4,0-0.8,0-1.1,0c-0.2,0-0.4,0.1-0.6,0.1c-0.3,0.1-0.5,0.3-0.6,0.6c-0.1,0.3,0.1,0.7,0.4,0.8c0.2,0.1,0.4,0.2,0.6,0.2
			c0.4,0.1,0.8,0.1,1.1,0.1c0.6,0,1.3,0,1.9-0.1c0.6,0,1.2-0.3,1.6-0.6C305.4,329.6,304.8,329.7,304.2,329.8z"/>
		<path class="st4" d="M305.2,328.4c-0.2-0.6-0.3-1.2-0.3-1.8c0-0.3,0-0.7,0.1-1c0-0.3,0.3-0.7,0.4-0.8s0.4,0.1,0.5,0.5
			c0.2,0.3,0.3,0.6,0.4,0.9c0.1,0.6,0.2,1.2,0,1.7c-0.2,0.5-0.3,1.1-0.6,1.6c0.1,0,0.7-0.4,1-1.5c0.3-1,0.2-2.1-0.3-3.1
			c-0.1-0.2-0.2-0.4-0.4-0.5c-0.2-0.2-0.6-0.3-0.9-0.2c-0.4,0.2-0.7,0.7-0.7,1.2c-0.2,1,0,2.1,0.4,3c0.4,1,1,1.4,1,1.4
			C305.9,329.9,305.5,329.3,305.2,328.4z"/>
		<path class="st4" d="M212.6,204.8l-35.1,14.4l-0.1,2.1l42.6,12.3l47.7-14.6l-4.3,48.3l28,2.3l8.1-50.1c2-9.9-2.2-20.1-10.6-25.8
			l0,0c-6.6-4.5-14.7-6-22.5-4.3C246.6,194.2,219.4,202.6,212.6,204.8"/>
		<path class="st4" d="M163.8,225.4l8.5,9.4c8.5,9.5,20.1,15.5,32.8,17.1l48.4,6l33.3,74.6l24.5-7.5l-29.5-81.5
			c-3.2-8.5-10.5-14.8-19.5-16.8l-60.2-13L163.8,225.4z"/>
		<path class="st8" d="M213.3,215.8l0.8,0.1l2.9,0.6l10.7,2.2l15.8,3.3l9.3,2c3.2,0.7,6.6,1.3,10,2.2c3.4,0.8,6.6,2.2,9.5,4
			c2.7,1.8,4.9,4.2,6.7,6.9c3.5,5.1,5.1,10.4,6.5,14.8s2.5,7.9,3.5,10.3c0.5,1.2,0.9,2.1,1.1,2.7l0.3,0.7c0.1,0.2,0.1,0.2,0.1,0.2
			c-0.1-0.1-0.1-0.1-0.1-0.2l-0.4-0.7c-0.3-0.6-0.7-1.5-1.2-2.7c-1-2.4-2.1-5.9-3.6-10.3s-3.1-9.6-6.5-14.7c-1.7-2.6-4-4.9-6.6-6.7
			c-2.9-1.8-6-3.1-9.3-3.9c-3.4-0.9-6.8-1.5-10-2.2l-9.3-2l-15.8-3.5l-10.6-2.4l-2.9-0.7L213.3,215.8l-0.3,0
			C213.2,215.8,213.3,215.8,213.3,215.8z"/>
		<path class="st5" d="M168.5,196.9c1.6,0.5,3.1,1.2,4.6,2c-1.6-0.3-3.3-0.8-4.8-1.5c-1.6-0.5-3.1-1.2-4.6-2
			C165.3,195.7,166.9,196.2,168.5,196.9z"/>
		<path class="st7" d="M164.6,128.3l-21.4,1.5c-2.6,0.3-10.6,2.1-14.7,9.8l14.9,45.4l18.6,40.9l51.8-21.4l-15-17.5l-13.8-55
			L164.6,128.3z"/>
		<polygon class="st7" points="186.6,138.6 191.5,161.9 219.3,164.2 221.8,135.4 185.2,131.9 		"/>
		<path class="st4" d="M188.7,145.1l1.2,4.6c1,3.9,2.4,9.4,3.9,15.4s2.8,11.5,3.7,15.4c0.4,1.9,0.8,3.5,1.1,4.7
			c0.2,0.6,0.3,1.2,0.3,1.7c-0.2-0.5-0.4-1.1-0.5-1.7l-1.2-4.6c-1-3.9-2.4-9.4-3.9-15.4s-2.8-11.5-3.7-15.4
			c-0.4-1.9-0.8-3.5-1.1-4.7c-0.1-0.6-0.3-1.2-0.3-1.7C188.4,143.9,188.6,144.5,188.7,145.1z"/>
		<path class="st4" d="M184,188.8c1.9-1,3.9-1.7,6-2c2.1-0.3,4.2-0.4,6.3-0.2c0.9,0,1.7,0.1,2.6,0.3c-0.9,0.1-1.8,0.1-2.6,0.1
			c-2.1-0.1-4.2,0-6.2,0.3c-2.1,0.3-4,0.9-5.9,1.8c-1.4,0.7-2.2,1.4-2.2,1.3C182.5,189.8,183.2,189.2,184,188.8z"/>
		<path class="st4" d="M175.4,135.6c-0.3,0.9-0.7,1.8-1.4,2.5c-1.1,1-2.7,1.3-4.2,1c-0.8-0.2-1.6-0.5-2.4-0.9
			c-0.8-0.4-1.6-0.7-2.5-1.1c-3.3-1.6-6.3-3.1-8.4-4.3c-1.1-0.6-1.9-1-2.5-1.4c-0.3-0.2-0.6-0.3-0.9-0.6c0.4,0.1,0.7,0.2,1,0.4
			l2.6,1.2l8.5,4.1c0.8,0.4,1.6,0.8,2.4,1.1c0.7,0.4,1.5,0.7,2.3,0.9c1.3,0.3,2.7,0,3.8-0.8c0.6-0.7,1.1-1.5,1.5-2.3
			c0.2-0.6,0.3-1,0.3-1C175.6,134.8,175.5,135.2,175.4,135.6z"/>
		<g class="st9">
			<path d="M198.6,187c-5.3-0.5-10.6-0.4-14.9,2.3c-0.8,0.4-1.8,1.8-2.7,2c-0.9,0.3-1.8,0.1-2.5-0.5c-0.8-1.1-0.6-2.5,0.4-3.4
				c1-0.8,2.2-1.2,3.5-1.3c5.5-0.7,11.1-0.5,16.5,0.8"/>
		</g>
		<g class="st9">
			<path d="M139.5,173l2.1,6.3c8.2-10.2,17-24,12.7-36.4C149.9,130.6,139.5,173,139.5,173z"/>
		</g>
		<path class="st3" d="M142.9,179.4c0.3-0.5,0.7-1,1.1-1.4c1.6-1.6,3.6-2.5,5.8-2.8c2.8-0.4,6.1,0.4,9.5,1.6s7,3.1,11.1,3.6
			c3.9,0.4,7.8-0.3,11.3-2c2.9-1.4,5.3-3.5,7.2-6.1c1.3-1.7,2.3-3.7,3-5.7c0.5-1.5,0.6-2.3,0.7-2.3c0,0.2,0,0.4-0.1,0.6
			c-0.1,0.6-0.2,1.2-0.4,1.7c-0.6,2.1-1.6,4.1-2.9,5.9c-1.9,2.7-4.4,4.8-7.3,6.3c-3.6,1.8-7.6,2.5-11.6,2.1
			c-4.2-0.5-7.9-2.4-11.2-3.7c-2.9-1.3-6.1-1.9-9.3-1.7c-2.1,0.2-4.2,1.1-5.8,2.6c-0.6,0.6-1,1.2-1.5,1.9
			C142.8,179.8,142.9,179.6,142.9,179.4z"/>
		<path class="st3" d="M189,149c-1.1-1.1-2.6-1.6-4.2-1.5c-2,0.1-4,1.2-6.2,2.7s-4.5,3.2-7,4.9c-2.4,1.7-5,2.9-7.8,3.7
			c-2.3,0.6-4.7,0.6-7,0.1c-1.6-0.3-3-1.1-4.2-2.1l-0.5-0.5l-0.4-0.4c-0.2-0.2-0.3-0.4-0.3-0.4c0.1,0.1,0.2,0.2,0.3,0.3l0.4,0.4
			l0.6,0.5c1.2,0.9,2.7,1.6,4.2,1.9c2.3,0.4,4.6,0.4,6.8-0.2c2.7-0.8,5.3-2,7.6-3.7c2.5-1.7,4.8-3.4,7-4.9s4.4-2.6,6.5-2.7
			c1.6-0.1,3.2,0.5,4.3,1.7c0.3,0.3,0.5,0.7,0.7,1.1c0.1,0.1,0.1,0.3,0.1,0.4C189.6,149.9,189.3,149.4,189,149z"/>
		<path class="st3" d="M208.8,158.7c0.4-1.6,0.4-3.2,0-4.7c-0.5-1.7-1.7-3.4-2.6-5.4c-0.9-1.9-1.2-4-1-6c0.2-1.7,0.7-3.3,1.5-4.7
			c0.6-1,1.3-1.8,2.1-2.6c0.2-0.2,0.5-0.4,0.7-0.6c0.2-0.2,0.3-0.2,0.3-0.2c-1.1,1-2,2.2-2.8,3.5c-0.8,1.4-1.2,3-1.4,4.6
			c-0.2,2,0.1,3.9,0.9,5.7c0.9,1.9,2.1,3.6,2.6,5.4c0.5,1.6,0.4,3.4,0,5c-0.3,1.1-0.8,2.1-1.5,3c-0.2,0.3-0.5,0.6-0.9,0.9
			C207.7,161.5,208.4,160.2,208.8,158.7z"/>
		<path class="st3" d="M189.2,135.3c1.6,2.2,2.9,4.6,4,7.1c0.5,1.4,0.8,3,0.8,4.5c0,1.3-0.3,2.5-0.9,3.6c-0.4,0.8-0.9,1.4-1.5,2
			c-0.2,0.2-0.5,0.4-0.8,0.5c0.8-0.8,1.4-1.7,1.9-2.7c0.5-1.1,0.7-2.3,0.7-3.5c0-1.5-0.3-2.9-0.8-4.3c-1-2.5-2.3-4.9-3.8-7.1
			c-0.6-0.9-1.2-1.9-1.6-3C187.4,132.5,188,133.6,189.2,135.3z"/>
		<path class="st3" d="M183.4,204.5c0.2-0.3,0.5-0.7,0.7-1c0.3-0.4,0.6-0.8,1-1.2c1-1,2-2,3.1-2.8c1.4-1,2.9-1.8,4.5-2.5
			c1.6-0.6,3.3-1.1,5-1.4c1.4-0.2,2.8-0.3,4.2-0.2c0.5,0,1.1,0.1,1.6,0.1c0.4,0,0.8,0.1,1.2,0.2c0.3,0.1,0.7,0.1,1,0.3
			c0,0.1-1.5-0.3-3.8-0.3c-1.4,0-2.7,0.1-4.1,0.3c-1.7,0.3-3.3,0.8-4.8,1.4c-1.5,0.6-3,1.4-4.4,2.4c-1.1,0.8-2.2,1.7-3.2,2.6
			c-1.7,1.7-2.4,2.9-2.5,2.9C183,205,183.2,204.7,183.4,204.5z"/>
		<polygon class="st8" points="192.9,262.5 192.6,339.2 160.4,351.4 233.3,351.8 201.5,339.6 200.5,262.5 		"/>
		<path class="st8" d="M223.6,256.3c0.9-5.4-4.4-12.8-9.5-14.8s-10.8-2.1-15.9-4.1c-10.6-4.1-15.5-13.1-21.1-23
			c-2.4-4.3-2.7-6.4-8.1-11.4c-3.6-3.4-13.2-2.1-16.8,1.3c-2.5,2.4-0.4,7.6,1,12.1l5.1,16.2c2.3,7.5,4.8,15.3,10.2,21
			c6.7,7.2,17,10.1,26.8,9.8C205.1,263.2,214.5,259.9,223.6,256.3"/>
		<path class="st6" d="M150.5,87.8l1.3-1c8.6-6.5,20.1-7.9,30-3.6l0,0c0,0,1.3,19.7,1.2,28.3s-8.8,9.9-8.8,9.9l1.1,12.9
			c0.1,0.7-0.1,1.5-0.4,2.2c-1,2.2-3.6,3.2-5.8,2.2l-15.9-7.8L150.5,87.8z"/>
		<path class="st5" d="M174.2,123.5c-8.6,0.7-11.2-5.5-11.2-5.5c3.3,2.2,7.2,3.3,11.2,3.3L174.2,123.5z"/>
		<path class="st6" d="M151.7,105.1c0,0.2-5.9,1.5-6-4.3s5.6-4.1,5.8-4.1C151.4,96.7,151.7,104.9,151.7,105.1z"/>
		<path class="st5" d="M149.7,103.2c-0.3,0.2-0.6,0.3-0.9,0.2c-1-0.4-1.6-1.4-1.5-2.5c0-0.6,0.1-1.1,0.3-1.6c0.1-0.5,0.5-0.8,1-0.9
			c0.2,0,0.4,0,0.6,0.1c0.1,0.1,0.2,0.2,0.2,0.4c0,0.2,0,0.3-0.1,0.3s0-0.1-0.1-0.3c-0.1-0.2-0.4-0.3-0.6-0.3
			c-0.4,0.1-0.6,0.4-0.8,0.8c-0.2,0.5-0.3,1-0.2,1.5c0,0.9,0.4,1.8,1.2,2.2c0.2,0.1,0.5,0.1,0.8,0c0.2-0.1,0.3-0.2,0.3-0.2
			C149.9,102.9,149.9,103.1,149.7,103.2z"/>
		<path class="st4" d="M179.8,96.3c0-0.7-0.6-1.1-1.3-1.1c-0.7,0-1.2,0.6-1.2,1.2c0,0,0,0,0,0c0,0.6,0.6,1.1,1.2,1.1
			C179.2,97.6,179.8,97,179.8,96.3C179.8,96.3,179.8,96.3,179.8,96.3z"/>
		<path class="st4" d="M179.6,94.7c-0.6-0.4-1.2-0.6-1.9-0.6c-0.7,0-1.4,0.2-2,0.6c-0.4,0.3-0.7,0.5-0.5,0.7s1.1-0.5,2.4-0.5
			s2.2,0.7,2.4,0.5C180.1,95.3,179.9,94.9,179.6,94.7z"/>
		<path class="st4" d="M166.8,96.5c0-0.7-0.6-1.1-1.3-1.1c-0.7,0-1.2,0.6-1.2,1.2c0,0,0,0,0,0c0.1,0.6,0.6,1.1,1.3,1.1
			C166.3,97.7,166.8,97.2,166.8,96.5C166.8,96.5,166.8,96.5,166.8,96.5z"/>
		<path class="st4" d="M166.6,94.8c-0.6-0.4-1.2-0.6-1.9-0.6c-0.7,0-1.4,0.2-2,0.6c-0.4,0.3-0.7,0.5-0.5,0.7s1.1-0.5,2.4-0.5
			s2.2,0.7,2.4,0.5C167.1,95.4,167,95.1,166.6,94.8z"/>
		<path class="st4" d="M173.9,105.3c0.2,0,0.4,0,0.6-0.1c0.3-0.1,0.5-0.2,0.6-0.5c0.1-0.4,0-0.9-0.2-1.3c-0.3-0.8-0.6-1.7-0.9-2.6
			c-0.7-2.2-1.6-4.4-2.7-6.5c0.6,2.3,1.3,4.5,2.2,6.7l1,2.6c0.2,0.3,0.2,0.7,0.2,1c-0.1,0.2-0.4,0.3-0.7,0.3c-0.7,0-1.5,0.2-2.2,0.4
			C172.5,105.4,173.2,105.4,173.9,105.3z"/>
		<path class="st4" d="M167.7,107.1c0.1,0.8,0.5,1.5,1.1,2.1c0.6,0.5,1.5,0.8,2.3,0.8c0.7,0,1-0.1,1-0.3s-1.5-0.1-2.8-1.1
			s-1.2-2.4-1.4-2.4C167.8,106.2,167.6,106.5,167.7,107.1z"/>
		<path class="st4" d="M166.7,89.6c-1.5-0.6-3.2-0.4-4.6,0.5c-0.5,0.3-0.7,0.7-0.6,0.8c0.2,0.3,1.5-0.1,3-0.3s2.9,0,3-0.4
			C167.5,90.1,167.2,89.9,166.7,89.6z"/>
		<path class="st4" d="M179.2,90.8c-1.1-0.8-2.5-0.8-3.6-0.1c-0.4,0.3-0.6,0.6-0.5,0.7c0.2,0.3,1.1,0.1,2.2,0.1s2,0.3,2.2,0
			C179.7,91.4,179.6,91.1,179.2,90.8z"/>
		<path class="st4" d="M184.7,80.8c0.7,0.7,0.9,1.8,0.5,2.7c-0.4,0.9-1.1,1.6-1.9,2.1c-0.7,0.5-1.5,0.8-2.3,1c-0.1,0-0.1,0-0.1,0
			h-0.1h-0.2c-3.6,0.7-7.4,0.3-10.7-1.2c-9-4.7-11.3-2.4-12.3-1.4s0.5,7.4-3.8,9.1c0,0,0.8,6.6-2.7,6.6c-2-0.1-2.5-5.6-2.6-10.3
			c0-0.1,0-0.2,0-0.3c-0.5-1.2-0.8-2.5-1-3.9c-0.3-2,0.2-4,1.3-5.6c1.2-1.6,3.2-2.4,5.2-1.9c2.2-5.6,8.5-8.4,14.1-6.3
			c1.3,0.5,2.5,1.2,3.7,1.7c1.2,0.6,2.6,0.8,4,0.5c1.4-0.3,2.6-1.4,4-1.3c0.1,0,0.2,0,0.3,0c1.4,0.3,2.3,1.7,2,3.2
			c0.8-0.8,2-0.9,2.9-0.2c0.8,0.7,1.3,1.8,1.2,2.8C185.8,79,185.4,80,184.7,80.8z"/>
		<path class="st6" d="M144.4,135.9L144.4,135.9c-7.7-3.4-16,2.9-19.2,10.7l-11.3,28.6c-2.9,8.6-2.9,18,0.1,26.6h66l-7.1-6.3
			c-2.9-2.6-6.9-3.4-10.6-2.3l-4.5,1.4l-22.9-9.8l14.4-30.5C152.5,146.8,151.9,139.2,144.4,135.9z"/>
		<path class="st7" d="M153.7,142.4l-0.2-1.1c-0.9-4.3-4.1-7.9-8.3-9.1c-0.9-0.3-1.8-0.6-2.8-0.7c-9,1.1-12.1,5.3-13.5,7.4
			c-3.4,5.1-14,25.2-14,25.2l24.6,10.2c0,0,6.6-11.2,10.9-18.4C152.7,152.1,154.3,146.8,153.7,142.4z"/>
		<path class="st4" d="M140.3,172.8c0.6-1.1,1.5-2.5,2.5-4.2l3.7-6.1c1.4-2.3,3-4.8,4.5-7.5c0.7-1.3,1.3-2.7,1.7-4.1
			c0.4-1.3,0.6-2.7,0.8-4.1c0.3-2.4,0.1-4.7-0.4-7c-0.3-1.6-1-3-2-4.3l-0.5-0.6l-0.4-0.4c-0.2-0.2-0.3-0.3-0.3-0.3
			c0.1,0.1,0.3,0.2,0.4,0.2l0.5,0.3l0.5,0.5c1.1,1.2,1.9,2.7,2.2,4.3c0.6,2.4,0.7,4.8,0.5,7.2c-0.1,1.4-0.3,2.8-0.7,4.2
			c-0.5,1.5-1,2.9-1.8,4.2c-1.5,2.8-3.1,5.3-4.5,7.5s-2.7,4.3-3.8,6.1l-2.6,4.1c-0.3,0.5-0.6,1-1,1.5
			C139.8,173.8,140,173.3,140.3,172.8z"/>
		<path class="st3" d="M123.8,147.8c0.2-0.2,0.5-0.4,0.7-0.6c1-0.6,2.1-1,3.3-1.2c1.7-0.2,3.5,0,5.1,0.5c2,0.7,3.9,1.6,5.7,2.6
			c1.8,1,3.7,1.8,5.7,2.4c1.6,0.4,3.4,0.4,5,0c1.1-0.3,2.1-0.8,3-1.5c0.6-0.5,0.9-0.9,0.9-0.9s0,0.1-0.2,0.3
			c-0.2,0.3-0.4,0.5-0.6,0.8c-0.8,0.8-1.9,1.4-3,1.7c-1.7,0.5-3.5,0.5-5.2,0.1c-2-0.5-4-1.3-5.8-2.4c-1.8-1-3.7-1.9-5.6-2.6
			c-1.6-0.6-3.3-0.8-5-0.6c-1.1,0.1-2.2,0.4-3.2,1c-0.7,0.4-1,0.7-1,0.7C123.6,148.1,123.7,147.9,123.8,147.8z"/>
		<path class="st3" d="M128.4,168.9c0.4-0.5,0.8-0.9,1.3-1.3c0.7-0.6,1.5-1.1,2.3-1.6c1-0.5,2.1-0.9,3.2-1.2
			c1.1-0.2,2.3-0.4,3.4-0.3c0.9,0,1.9,0.2,2.8,0.4c0.6,0.2,1.2,0.4,1.8,0.6c0.4,0.2,0.6,0.3,0.6,0.4s-0.9-0.3-2.4-0.6
			c-0.9-0.2-1.8-0.3-2.7-0.3c-2.2,0-4.4,0.5-6.4,1.4c-0.8,0.4-1.6,0.9-2.3,1.4c-1.2,0.9-1.8,1.7-1.9,1.6
			C128,169.5,128.1,169.3,128.4,168.9z"/>
		<path class="st5" d="M119.4,191.1c0.3-0.6,0.7-1.2,1.1-1.8c1.4-1.9,3.2-3.3,5.3-4.2c2.1-0.9,4.5-1.2,6.8-0.9
			c0.7,0.1,1.4,0.2,2,0.5c0.3,0.1,0.5,0.2,0.7,0.3c0,0.1-1-0.3-2.8-0.4c-4.5-0.4-8.9,1.5-11.8,5c-1.1,1.3-1.5,2.3-1.6,2.3
			C119.2,191.6,119.3,191.4,119.4,191.1z"/>
	</g>
</g>
</svg>
