<?xml version="1.0" encoding="utf-8"?>
<!-- Generator: Adobe Illustrator 22.0.1, SVG Export Plug-In . SVG Version: 6.00 Build 0)  -->
<svg version="1.1" id="Layer_1" xmlns="http://www.w3.org/2000/svg" xmlns:xlink="http://www.w3.org/1999/xlink" x="0px" y="0px"
	 viewBox="0 0 468.1 247.2" style="enable-background:new 0 0 468.1 247.2;" xml:space="preserve">
<style type="text/css">
	.st0{fill:#4408A8;}
	.st1{fill:#455A64;}
	.st2{fill:#FFBE9D;}
	.st3{fill:#263238;}
	.st4{fill:#EB996E;}
	.st5{fill:#B78876;}
	.st6{fill:#FFFFFF;}
	.st7{fill:#A36957;}
	.st8{opacity:0.2;enable-background:new    ;}
	.st9{fill:#FAFAFA;}
</style>
<g>
	<g id="freepik--character-3--inject-15">
		<path class="st0" d="M355.7,6.4c-4.9,1.1-8,6.1-9.1,11s-0.5,10-1,15c-0.5,5-2.2,10.3-6.4,13l4.2,1.2c-0.8,2.6-2.6,4.9-4.9,6.3
			c1.6,1.3,3.6,2,5.7,1.9c-2.5,0.6-3.1,4.2-1.8,6.3c1.4,2.2,4,3.2,6.4,3.8c2.9,0.9,6,1,8.9,0.3c4-1.2,7.1-4.8,8.6-8.7
			c1.6-3.9,1.8-8.2,2-12.5c0.3-10.6-0.3-21.3-3-31.5c-0.7-2.5-1.6-5.1-3.7-6.6c-2.1-1.5-5.7-0.9-6.4,1.6"/>
		<path class="st1" d="M466.2,159.3c-1.2-4.4-7.9-29.3-14-45.6c-6.7-18-20.5-21.8-20.5-21.8c-31.2-10.6-59.1-10.7-89-0.3
			c-1,0.3-1.9,0.6-2.8,1h-0.1l0,0c-22.2,8.7-24.5,32.1-24.5,32.1l-9.3,56.8c-0.1,0.4-0.2,0.9-0.2,1.4l-0.1,0.5l0,0
			c-0.3,5.4,2.7,10.5,7.6,12.8c13,6,25.4,4.6,36.1,0.2l-7.8,11.3H434l-6.1-14.9l2-9l14.3,17.2c1.7,2.1,4,3.6,6.6,4.3
			c16.5,1.9,19.2-22.6,16.1-37l0,0"/>
		<path class="st2" d="M407.7,85.7c0,0-14.9,75-20.2,74.4s-29.9-73-29.9-73S389.1,78.8,407.7,85.7z"/>
		<path class="st2" d="M365.4,91.3c-0.1-8.6-0.3-17.7-0.3-17.7s-11.1-1.8-13.5-16.3c-2.3-13.8-0.2-45.8-0.2-45.8l0,0
			C367.5,4.9,386,9,397.8,21.8l0,0L397.3,92c-0.1,8.1-7.1,14.6-15.8,14.4l0,0C372.6,106.3,365.5,99.5,365.4,91.3z"/>
		<path class="st3" d="M355,35.7c0,1,0.8,1.8,1.8,1.9c1,0.1,1.8-0.7,1.9-1.6c0,0,0,0,0,0c0-1-0.8-1.8-1.8-1.9
			C356,33.9,355.1,34.6,355,35.7C355,35.6,355,35.7,355,35.7z"/>
		<path class="st3" d="M352.6,34.4c0.2,0.2,1.6-0.8,3.6-0.8s3.5,1,3.7,0.7c0.2-0.3-0.1-0.5-0.8-1c-0.9-0.6-1.9-0.9-3-0.9
			c-1,0-2.1,0.4-2.9,1C352.7,33.8,352.5,34.2,352.6,34.4z"/>
		<path class="st3" d="M375.3,36.6c0,1,0.8,1.8,1.8,1.9c1,0.1,1.8-0.7,1.9-1.7c0,0,0,0,0,0c0-1-0.8-1.8-1.8-1.9
			C376.2,34.9,375.3,35.7,375.3,36.6C375.3,36.6,375.3,36.6,375.3,36.6z"/>
		<path class="st3" d="M373.5,35c0.2,0.2,1.6-0.8,3.6-0.8s3.5,1,3.7,0.7s-0.1-0.5-0.8-1c-0.9-0.6-1.9-0.9-3-0.9c-1,0-2.1,0.4-2.9,1
			C373.6,34.4,373.4,34.8,373.5,35z"/>
		<path class="st3" d="M366.3,49.8c-1.1-0.3-2.2-0.5-3.3-0.6c-0.5,0-1-0.1-1.1-0.5c0-0.5,0.1-1.1,0.3-1.5l1.5-3.9
			c2.1-5.6,3.6-10.1,3.3-10.2c-0.2-0.1-2.1,4.4-4.2,9.9c-0.5,1.4-1,2.7-1.4,3.9c-0.3,0.6-0.4,1.3-0.2,2c0.1,0.4,0.5,0.6,0.8,0.7
			c0.3,0.1,0.6,0.1,0.9,0.1C364.1,50,365.2,50,366.3,49.8z"/>
		<path class="st4" d="M365.1,73.5c6.8,0.1,13.5-1.8,19.4-5.3c0,0-4.7,10-19.2,8.7L365.1,73.5z"/>
		<path class="st4" d="M367.2,54.7c0.8-1,2-1.5,3.2-1.4c0.9,0.1,1.7,0.5,2.3,1.2c0.6,0.7,0.6,1.6,0.2,2.4c-0.7,0.7-1.7,1-2.6,0.7
			c-0.9-0.3-1.8-0.8-2.6-1.5c-0.2-0.2-0.4-0.4-0.6-0.6C366.9,55.3,366.9,55,367.2,54.7"/>
		<path class="st3" d="M372.2,51.2c-0.3,0-0.3,2.2-2.2,3.7s-4.2,1.3-4.2,1.6c0,0.1,0.5,0.4,1.5,0.4c1.3,0,2.5-0.4,3.5-1.2
			c0.9-0.8,1.5-1.9,1.7-3.1C372.6,51.7,372.4,51.2,372.2,51.2z"/>
		<path class="st0" d="M390,10.1c-5.2,7.7-19.1,15.7-29.1,17.7c1.1-1.6,7.3-5.5,8.4-7.1c-4.5,3.5-11,8.1-17,8.6
			c-0.7,0.1-1.4,0-2.1-0.3c-0.7-0.5-1.1-1.4-1.1-2.3c-0.4-4.4-0.3-8.8,0.2-13.1c0.4-3.7,2.2-7.1,5.1-9.5c3.8-3.1,9.4-3.9,14.6-4.1
			c4.4-0.2,8.9,0,12.9,1.5s7.5,4.6,8.2,8.3"/>
		<path class="st0" d="M407.1,45.2c0.6-3.2,1.1-6.5,1.3-9.7c0.3-7.5,2.5-34.5-23.2-31.9l1.5,7.3c0,0-4.8,16.8,6.3,28.2
			c0,0-3.2,23.7,4.5,31.4C397.4,70.5,405.7,53.3,407.1,45.2"/>
		<path class="st2" d="M392.6,37.9c1.6-0.3,3.2-0.2,4.7,0.3c1.5,0.5,2.7,1.6,3.4,3.1c0.6,1.5,0.6,3.1,0.1,4.6
			c-0.6,1.5-1.5,2.8-2.6,3.9c-0.8,0.8-1.7,1.5-2.8,1.9c-1.1,0.4-2.3,0.2-3.2-0.5"/>
		<path class="st4" d="M393.5,47.3c-0.2,0.1,0.5,1,1.9,0.6c0.8-0.3,1.4-0.8,1.8-1.5c0.4-0.8,0.7-1.7,0.8-2.6c0.1-1-0.1-1.9-0.7-2.7
			c-0.4-0.7-1.2-1.1-2-1.2c-1.5,0-1.9,1-1.7,1s0.7-0.4,1.6-0.2c1.2,0.5,1.9,1.7,1.6,3c-0.2,1.6-0.8,3.1-1.6,3.4
			S393.6,47.1,393.5,47.3z"/>
		<path class="st3" d="M341.7,161.1c-0.1,0-0.3-5.9-0.3-13.2s0.1-13.1,0.3-13.1s0.3,5.9,0.3,13.1S341.9,161.1,341.7,161.1z"/>
		<path class="st2" d="M379.3,134.3c0,0-13,0.1-13.8,3c-1.4,4.8,1.1,30.9,1.1,30.9l12,4c0,0,5.8-1.3,3.1-12.4
			c-1.7-7-4.4-13.7-7.9-19.9c0,0,15.9,0.4,15.4-3.1S379.3,134.3,379.3,134.3z"/>
		<path class="st2" d="M374.1,142c0.7-0.1,16.6-1.5,15.6,1.1s-15.6,3.2-15.6,3.2V142z"/>
		<polygon class="st3" points="425.1,103.5 423.1,153.1 415.9,172.1 371.4,173.1 369.6,111.7 		"/>
		<path class="st3" d="M364.4,151.7c-0.2,0.1-0.3,0.2-0.5,0.3l-1.6,0.7l-5.9,2.5l-19.6,8.2l-10.8,4.4c-3,1.1-5.9,2.5-8.6,4
			c-1.9,1.1-3.5,2.5-4.8,4.1c-0.9,1.2-1.2,2-1.3,2c0.1-0.2,0.1-0.4,0.2-0.6c0.2-0.5,0.5-1,0.9-1.5c1.3-1.7,2.9-3.2,4.8-4.3
			c2.8-1.6,5.7-3,8.7-4.1l10.8-4.5l19.7-8l6-2.4l1.6-0.6C364.1,151.9,364.3,151.8,364.4,151.7z"/>
		<path class="st3" d="M379.2,171.1c-0.3,0.4-0.6,0.8-1,1.2c-0.7,0.8-1.6,1.8-2.9,3c-2.5,2.5-6.1,5.8-10.2,9.3s-8,6.4-10.9,8.5
			c-1.4,1-2.6,1.9-3.4,2.4c-0.4,0.3-0.8,0.6-1.3,0.8c0.4-0.4,0.8-0.7,1.2-1l3.3-2.5c2.8-2.1,6.6-5.2,10.8-8.6
			c4.1-3.5,7.8-6.7,10.3-9.2c1.3-1.2,2.3-2.2,3-2.9C378.4,171.8,378.7,171.5,379.2,171.1z"/>
		<path class="st3" d="M446.1,202.9c-0.1,0.1-6.6-7.4-14.6-16.7s-14.3-16.9-14.2-17s6.6,7.4,14.6,16.7S446.2,202.8,446.1,202.9z"/>
		<path class="st3" d="M458.7,166.9c-0.5-0.1-1-0.3-1.4-0.5c-0.9-0.4-2.2-0.9-3.8-1.6c-3.2-1.5-7.6-3.6-12.3-6.3s-8.7-5.4-11.6-7.5
			c-1.4-1-2.6-1.9-3.3-2.5c-0.4-0.3-0.8-0.6-1.2-1c0.5,0.2,0.9,0.5,1.3,0.8c0.9,0.6,2,1.4,3.4,2.4c2.9,2,7,4.6,11.6,7.3
			s9,4.9,12.2,6.4l3.8,1.8C457.8,166.3,458.3,166.6,458.7,166.9z"/>
		<path class="st3" d="M435.7,156c-0.1,0-0.9-5.3-1.7-11.8s-1.4-11.9-1.2-11.9s0.9,5.3,1.8,11.8S435.8,156,435.7,156z"/>
		<path class="st3" d="M398.1,47.2c-0.1,0.2-0.3,0.4-0.4,0.6l-1.3,1.7l-4.6,6v-0.3l7.5,5.9l0.7,0.5h-0.4l6.5-8.1v0.3l-4.9-4
			l-1.3-1.1c-0.2-0.1-0.3-0.3-0.5-0.4c0,0,0.2,0.1,0.5,0.3l1.4,1l5,3.8l0.2,0.1l-0.1,0.2c-1.8,2.4-4,5.2-6.4,8.2l-0.2,0.2l-0.2-0.2
			l-0.6-0.4c-2.7-2.2-5.3-4.2-7.5-5.9l-0.2-0.1l0.1-0.2l4.8-5.9l1.4-1.6C397.9,47.3,398.1,47.2,398.1,47.2z"/>
		<path class="st2" d="M417.2,168.4c-7.2-0.3-14.4-1.1-21.5-2.3c-8.4-1.3-8.3-2.1-8-3.1c0.8-2.6,14.9,1.8,12.3-0.9s-17.8-3.4-16.8-6
			c1.2-3.5,15.9,1.4,17.2,1.7s1.7-1.5,0.6-1.7c-1.7-0.3-19.1-4.2-17.9-7.6c0.7-1.9,3.9-0.3,3.9-0.3s16.1,4.8,16.6,3.2
			s-8.8-4.8-12.1-5.6s-4.1-2.7-2.6-3.8c1-0.8,11,1.6,14.1,2.5s11.8,3.5,8.5-1.2l-0.1-0.2c-3.4-4.6-4.5-9.3-3.8-10.9
			c0.5-1,1.7-1.4,2.7-0.9c0.4,0.2,0.7,0.5,0.9,0.9c0.2,0.2,0.3,0.5,0.3,0.8c0,0.1,0.1,0.3,0.1,0.4c0.8,1.8,1.8,3.5,2.9,5.1
			c1,1.5,2.2,2.7,3.6,3.8c1.6,1.2,5.8,5.6,7,6.4"/>
	</g>
	<g id="freepik--character-2--inject-15">
		<path class="st5" d="M119.6,109.4L119.6,109.4c-9.4-0.2-16.9-7.6-17.2-17c-0.2-7.8-0.4-15.3-0.4-15.3s-14.3-1.3-15.4-15.5
			s-0.6-46.8-0.6-46.8l0,0c16-8.1,35.1-6.8,49.9,3.2l2.2,1.5l-0.6,72.6c-0.1,9.7-8,17.5-17.7,17.4
			C119.7,109.4,119.6,109.4,119.6,109.4z"/>
		<path class="st3" d="M101.6,52.9c0-0.2-1.2-0.3-3.2-0.5c-0.5,0-0.9-0.1-1-0.4c0-0.5,0.1-1,0.3-1.5l1.3-4c1.8-5.8,3-10.5,2.7-10.6
			s-2,4.5-3.8,10.3c-0.4,1.4-0.8,2.8-1.2,4.1c-0.3,0.7-0.3,1.4-0.1,2.1c0.2,0.4,0.5,0.7,0.9,0.8c0.3,0.1,0.6,0.1,0.9,0.1
			C100.3,53.2,101.6,53.1,101.6,52.9z"/>
		<path class="st6" d="M108,54.7c-3,1.5-6.2,2.6-9.4,3.4c1.5,2,4.2,2.8,6.5,1.8C109.3,58,108,54.7,108,54.7z"/>
		<path class="st7" d="M101.9,76.9c6.6-0.3,12.9-2.5,18.2-6.4c0,0-3.7,10.5-18,10.1L101.9,76.9z"/>
		<path class="st5" d="M137.2,36.9c0-1.1,0.9-2.1,2-2.1c2.6-0.1,7,1,7.4,8.3c0.6,10.4-9.5,7.8-9.5,7.5S137.2,41,137.2,36.9z"/>
		<path class="st7" d="M139.5,46.5c0,0,0.2,0.1,0.5,0.2c0.4,0.2,0.9,0.2,1.4,0c1.1-0.5,1.9-2.3,1.9-4.1c0-0.9-0.2-1.8-0.6-2.6
			c-0.2-0.7-0.8-1.1-1.4-1.3c-0.4-0.1-0.9,0.1-1,0.6c-0.1,0.3,0,0.5-0.1,0.5s-0.2-0.2-0.2-0.6c0-0.3,0.2-0.5,0.4-0.7
			c0.3-0.2,0.6-0.4,1-0.3c0.9,0.1,1.6,0.7,2,1.5c0.5,0.9,0.8,1.8,0.8,2.8c0,2.1-0.9,4.1-2.4,4.6c-0.6,0.2-1.2,0.1-1.7-0.2
			C139.5,46.7,139.4,46.5,139.5,46.5z"/>
		<path class="st3" d="M90.4,38.8c0.1,1,1,1.8,2,1.8c1,0,1.8-0.8,1.9-1.8c0,0,0,0,0-0.1c-0.1-1-1-1.9-2-1.8
			C91.2,36.9,90.4,37.7,90.4,38.8C90.4,38.8,90.4,38.8,90.4,38.8z"/>
		<path class="st3" d="M87.1,36.9c0.3,0.2,1.6-1,3.7-1.1s3.7,0.8,3.9,0.5s-0.2-0.6-0.9-1c-0.9-0.6-2-0.8-3.1-0.7
			c-1.1,0.1-2.1,0.5-2.9,1.2C87.2,36.3,87,36.7,87.1,36.9z"/>
		<path class="st3" d="M111,38.4c0.1,1,1,1.8,2,1.8c1,0,1.8-0.8,1.9-1.8c0,0,0,0,0-0.1c-0.1-1-1-1.8-2-1.8
			C111.8,36.6,111,37.4,111,38.4C111,38.4,111,38.4,111,38.4z"/>
		<path class="st3" d="M108.1,36.9c0.3,0.2,1.6-1,3.7-1.1s3.7,0.8,3.9,0.5s-0.2-0.6-0.9-1c-0.9-0.6-2-0.8-3.1-0.7
			c-1.1,0.1-2.1,0.5-2.9,1.2C108.2,36.3,108,36.7,108.1,36.9z"/>
		<path class="st3" d="M121.8,9.9c-1.9,4.5-1,9.7,2.4,13.3c1.4,1.4,3.1,2.5,4.4,4.1c2.5,3.3,2.1,7.9,2.5,12.1c0.2,1.9,0.6,4,2,5.3
			s4,1.4,5-0.2c0.3-0.5,0.4-1.1,0.5-1.7c0.9-4.6,1.7-9.2,2.6-13.9c0.6-3.5,1.3-7,0.7-10.5c-1.4-8.1-9-13.5-17.1-12.1
			c-0.5,0.1-0.9,0.2-1.4,0.3"/>
		<path class="st3" d="M124,7c-4.8-0.9-7.5-2.5-10.9-4c-3.4-1.7-7.2-2.1-10.8-1.2c-2.4,0.7-4.7,2.1-7.2,2.1S90.3,2.3,88,1.6
			c-3.3-1-6.8-0.6-9.8,1c-2.3,1.3-4.4,3.6-4.6,6.4s2.3,5.7,4.8,4.9c-2.6,0.9-3.7,4.8-2.4,7.3c1.4,2.5,4.2,3.8,7,3.3
			c2.8-0.6,5.3-2.1,7.1-4.3c0.1,3.1,3.2,5.3,6.1,5.2s5.5-1.8,7.9-3.6s4.8-3.7,7.6-4.4c2-0.4,4-0.2,6-0.4s4.1-1.1,5.1-3
			s4.8-4.1,2.8-4.2"/>
		<path class="st3" d="M95.5,22.3c0.3,0.2,0.7,0.4,1.1,0.6c1,0.3,2.2,0.3,3.2,0c0.7-0.2,1.4-0.5,2.1-0.9c0.7-0.4,1.4-1,2.2-1.5
			c0.8-0.6,1.6-1.1,2.5-1.6c1-0.5,2-0.8,3.1-0.8c2.2,0,4.2,0.6,6.1,0.4c1.6-0.1,3.1-0.9,4.1-2.2c0.7-0.9,1.1-1.9,1.2-3
			c0.1-0.8,0-1.2,0-1.2s0,0.1,0.1,0.3c0.1,0.3,0.1,0.6,0.1,0.9c0,1.2-0.4,2.3-1.1,3.2c-0.5,0.7-1,1.2-1.7,1.6
			c-0.8,0.5-1.7,0.8-2.6,0.8c-1.9,0.2-4-0.4-6.1-0.4s-3.9,1.2-5.4,2.3c-0.8,0.5-1.5,1.1-2.2,1.5c-0.7,0.4-1.4,0.7-2.2,0.9
			c-1.1,0.3-2.3,0.3-3.4-0.1c-0.3-0.1-0.5-0.3-0.8-0.5C95.5,22.4,95.5,22.3,95.5,22.3z"/>
		<path class="st3" d="M122.5,2c0,1.1,0.1,2.2,0.3,3.3c0.3,1.1,0.8,2.1,1.3,3.1C122.2,6.8,121.6,4.3,122.5,2L122.5,2z"/>
		<path class="st3" d="M127.8,1.8c0.1,0.1-1.2,1.3-2.1,3.2s-1.2,3.7-1.4,3.6c-0.1-1.4,0.2-2.7,0.9-3.9
			C125.7,3.6,126.6,2.5,127.8,1.8z"/>
		<polygon class="st5" points="194.7,150.1 216.4,206.1 183.1,206.1 167.6,166.2 		"/>
		<path class="st5" d="M76.7,104.6c0,0-28.7,29.5-41.1,29.5c-4.1,0-7.2-49.2-7.3-63.4l0,0c0.7-1.8,1.6-3.5,2.8-5.1
			c1-1.5,2.3-2.8,3.6-4c1.7-1.5,3.6-2.7,5.6-3.6c1.9-0.7,2.1-3.3,0.3-3.9s-7.1,1.2-12,5.8s-3.4-5.7-2.9-9.4S27,35.2,26,34.2
			c-1.5-1.5-3.4-0.1-3.8,3.6S20,52.7,18,52.4s0.7-19.3,0.7-19.3s1.2-4-1-4.4c-4.1-0.7-5.4,19.6-5.4,21.6c0,1.4-2.2,1.1-2.1-0.3
			s3-18.9-1.1-19.7c-3.2-0.6-1.2,16.8-3.8,20.1S5.1,37,2,36.6c-1.1-0.2-2-0.1-2,9.6c0,5.2,2,13.1,1.2,23.2l0,0
			c1.3,29.8-0.1,113.3,33,103.4c36.4-10.9,61.3-34.8,61.3-34.8L76.7,104.6z"/>
		<path class="st3" d="M157.1,131.1c0.1,0.4,0.3,0.8,0.3,1.2c0.2,0.8,0.4,1.9,0.7,3.2c0.5,2.8,1.1,6.6,1.6,10.8s0.7,8.1,0.8,10.9
			c0,1.4,0.1,2.5,0.1,3.3c0,0.4,0,0.8-0.1,1.2c-0.1-0.4-0.1-0.8-0.1-1.2c-0.1-0.9-0.1-2-0.2-3.3c-0.2-2.8-0.5-6.6-1-10.9
			s-1-8.1-1.4-10.8c-0.2-1.3-0.4-2.4-0.5-3.3C157.1,131.9,157,131.5,157.1,131.1z"/>
		<path class="st1" d="M71.8,206.1l91.7,0.5l-3.1-19.4c0.8-9.2,0.8-18.4-0.1-27.6l4.6,12.6l37.9-19c0,0-13.8-36.7-25.3-49.2
			c-14.6-15.7-40.8-14.2-40.8-14.2l-17.7,12l-16.3-11.5c-8.7,1-17.3,3.5-25.2,7.3l-0.8,0.2v0.2c-9.6,5-23.4,17.3-36.4,29.2
			l15.1,14.7l16.7,15.6c0.9-0.1,1.9-0.2,2.9-0.1C75.2,159.1,71.8,206.1,71.8,206.1z"/>
		<path class="st8" d="M157.5,125.2l12.5,44.5l-5,2.5l-4.6-12.6C160.3,159.6,155.8,133.2,157.5,125.2z"/>
		<path class="st1" d="M101.7,90.2v-4.8c0,0,14.3-1.1,17.2,15.8c0,0,4.7-15.8,18.6-17.4l2,7.4c0,0-6.6,20.6-7.5,20.8s-13,3.7-13,3.7
			l-7-1.6l-7.8-8.8L101.7,90.2z"/>
		<path class="st3" d="M139.8,90.6c-0.2,0.3-0.5,0.6-0.8,0.8c-0.5,0.5-1.3,1.3-2.2,2.2c-2.3,2.5-4.4,5.2-6.2,8.2
			c-0.4,0.7-0.8,1.4-1.2,2.1l-0.2,0.4l-0.2-0.4c-1.6-3-3-5.6-4.1-7.6c-0.2-0.4-0.5-0.7-0.9-1c-0.3-0.2-0.6-0.3-1-0.4
			c-0.3,0-0.6,0-0.9,0.1c0,0,0.2-0.3,0.9-0.3c0.4,0,0.8,0.1,1.1,0.3c0.4,0.3,0.8,0.6,1.1,1.1c1.1,1.9,2.6,4.5,4.2,7.6H129
			c0.4-0.7,0.8-1.4,1.2-2.1c1.8-3,3.9-5.7,6.4-8.1c0.9-0.9,1.7-1.6,2.3-2.1C139.2,91.1,139.5,90.8,139.8,90.6z"/>
		<path class="st3" d="M100.8,91.5c0.3,0.2,0.5,0.5,0.7,0.7c0.4,0.5,1,1.2,1.7,2.1c1.4,1.8,3.4,4.2,5.5,7l0.3,0.4h-0.4
			c0.8-1.4,0.8-3,1.2-4.5c0.2-1.3,0.9-2.5,2-3.3c0.8-0.5,1.7-0.6,2.6-0.3c0.2,0.1,0.4,0.2,0.6,0.4c0.1,0.1,0.1,0.2,0.1,0.2
			c-0.3-0.2-0.5-0.3-0.8-0.4c-0.8-0.2-1.6,0-2.3,0.4c-0.9,0.8-1.5,1.9-1.7,3.1c-0.2,1.6-0.6,3.1-1.2,4.6l-0.2,0.4l-0.2-0.3l-0.3-0.4
			c-2.1-2.8-4-5.3-5.4-7.1c-0.7-0.9-1.2-1.7-1.6-2.2C101.1,92.1,100.9,91.8,100.8,91.5z"/>
		<path class="st3" d="M111,206.1c0-0.1,0-0.2,0-0.3c0-0.2,0-0.5,0-0.8c0-0.7,0.1-1.8,0.2-3.1c0.2-2.7,0.4-6.5,0.7-11.2
			c0.7-9.5,1.6-22.6,2.6-37l2.7-37c0.4-4.7,0.7-8.5,0.9-11.2c0.1-1.3,0.2-2.3,0.3-3c0-0.3,0.1-0.6,0.1-0.8c0-0.1,0-0.2,0-0.3
			c0,0.1,0,0.2,0,0.3v0.8c0,0.7-0.1,1.8-0.2,3.1c-0.2,2.7-0.4,6.5-0.7,11.2c-0.6,9.5-1.5,22.6-2.5,37s-2,27.5-2.7,37
			c-0.4,4.7-0.7,8.5-0.9,11.2c-0.1,1.3-0.2,2.3-0.3,3.1c0,0.3-0.1,0.6-0.1,0.8C111,205.9,111,206,111,206.1z"/>
		<path class="st3" d="M78,117.1c0,0.5,0,1.1-0.1,1.6c-0.1,1.1-0.2,2.6-0.3,4.3c-0.3,3.6-0.6,8.7-0.9,14.3s-0.6,10.6-1,14.3
			c-0.2,1.8-0.4,3.3-0.5,4.3c0,0.5-0.1,1.1-0.3,1.6c0-0.5,0-1.1,0.1-1.6c0.1-1.1,0.2-2.6,0.3-4.3c0.3-3.6,0.6-8.7,0.9-14.3
			s0.6-10.6,1-14.3c0.2-1.8,0.4-3.3,0.5-4.3C77.8,118.2,77.9,117.6,78,117.1z"/>
		<path class="st0" d="M118,98.8c0,0-4.9,6.4-4.2,7.4l4.2,5.6h3c0,0,2.8-7.9,2.1-8.9S118,98.8,118,98.8z"/>
		<polygon class="st0" points="125.5,97.1 120,101.3 122.1,105.3 127.7,101.2 		"/>
		<polygon class="st0" points="109.5,99.7 114.5,103.9 117.2,99.7 111,95 		"/>
		<polygon class="st0" points="117.9,111.8 110.4,179.4 117.8,203 127.7,179.6 121.2,111 		"/>
		<path class="st3" d="M170.7,99.2c-0.3-0.3-0.6-0.5-1-0.7c-1-0.5-2.1-0.5-3.1-0.2c-1.5,0.6-2.8,1.5-3.9,2.7c-1.4,1.4-2.6,3-3.5,4.7
			c-1.8,3.1-2.8,6.7-3,10.2c-0.2,2.8,0.2,4.5,0.1,4.5c-0.1-0.4-0.2-0.8-0.3-1.2c-0.2-1.1-0.2-2.2-0.2-3.3c0.1-3.7,1.1-7.3,2.9-10.5
			c1-1.8,2.2-3.4,3.6-4.8c1.1-1.3,2.5-2.2,4.1-2.7c1.1-0.3,2.3-0.2,3.3,0.4c0.3,0.2,0.5,0.4,0.7,0.6
			C170.7,99.1,170.7,99.2,170.7,99.2z"/>
	</g>
	<g id="freepik--character-1--inject-15">
		<path class="st3" d="M242.2,15.5c-6.4,3.9-10.9,10.5-13.5,17.5s-3.6,14.6-4.4,22c-2.1,19.8-2.8,39.6-2.1,59.5
			c24.2,3.1,48.6,6.1,73,4.5c-4.2-27.8-6.9-55.6-3.5-83.6"/>
		<path class="st0" d="M296.6,246.8L279,211.1l6.7-26.1c0.8,5.5,1.5,10.3,1.5,10.3l37.8-2c1.3-0.1,2.3-1.2,2.3-2.5
			c0-0.1,0-0.1,0-0.2l-7.3-52.2c0,0-2.4-24.2-25.3-33.2l0,0h-0.1c-0.9-0.4-1.9-0.7-2.9-1c-30.9-10.7-59.9-10.6-92.1,0.3
			c0,0-14.3,3.9-21.2,22.5s-14,46.1-14,46.1l32.1,11.4l0.2-5.4l7.1,27.2l-15.6,39.6l54.4,1.3L296.6,246.8z"/>
		<path class="st0" d="M164.4,172.8l-3.6,17c-3.1,14.6,7.8,29.7,22.6,31.4l79.1,8.1c17.3,1.9,32.8-10.5,34.8-27.7
			c0-0.3,0.1-0.5,0.1-0.8l0,0l-99.7-9.5l0.6-9.6L164.4,172.8z"/>
		<path class="st2" d="M263.3,190.2l6.1-1.1c0,0,14.6-15.9,17.3-16.1c2.2-0.2,14.6-0.1,19,0c0.8,0,1.5,0.7,1.5,1.5l0,0
			c0,0.8-0.6,1.5-1.5,1.5l-14.6,0.6l-0.1,1.2l14.6,0.2c1.5,0.1,2.5,2.5-2.3,2.9l-12.3,0.4v0.8l12.4,1.7c0.6,0.1,2.3,0.4,2.3,1
			c0,0,0.8,1.5-2.8,2c-1.2,0.1-12-0.2-12-0.2l0.4,1l11.2,2.4c0.8,0.2,1.3,0.9,1.2,1.8l0,0c-0.1,0.8-0.9,1.4-1.7,1.4l-11.9-1.1
			l-11.7,9.4h-15.7L263.3,190.2z"/>
		<path class="st9" d="M224.4,96.8c0,0,15.4,78.8,20.8,78.2s30.9-75.5,30.9-75.5S243.6,89.6,224.4,96.8z"/>
		<path class="st3" d="M292.6,173.1c-0.1,0-0.3-5.4-0.3-12.1s0.1-12.1,0.3-12.1s0.3,5.4,0.3,12.1S292.8,173.1,292.6,173.1z"/>
		<path class="st3" d="M198,173.6c0-1.2,0.1-2.3,0.3-3.5c0.3-2.2,0.7-5.1,1.1-8.4s0.9-6.2,1.3-8.4c0.1-1.2,0.4-2.3,0.7-3.5
			c0,1.2-0.1,2.3-0.3,3.5c-0.3,2.1-0.7,5.1-1.1,8.4s-0.9,6.2-1.3,8.4C198.6,171.3,198.3,172.5,198,173.6z"/>
		<path class="st3" d="M242.6,247.1c0-0.2,0-0.5,0-0.7c0-0.5,0-1.2,0-2.1c0-1.8,0-4.5,0.1-7.7c0.1-6.5,0.5-15.5,0.9-25.4
			s0.9-18.9,1.1-25.4c0.1-3.2,0.2-5.8,0.2-7.7c0-0.9,0-1.6,0.1-2.1c0-0.2,0-0.5,0.1-0.7c0,0.2,0,0.5,0,0.7c0,0.5,0,1.2,0,2.1
			c0,1.8,0,4.4-0.1,7.7c-0.1,6.5-0.5,15.5-0.9,25.4s-0.9,18.9-1.1,25.4c-0.1,3.2-0.2,5.8-0.2,7.7c0,0.9,0,1.6-0.1,2.1
			C242.6,246.6,242.6,246.9,242.6,247.1z"/>
		<path class="st3" d="M276,99.4c0,0,0,0.3,0.2,1c0.2,0.9,0.4,1.8,0.8,2.7c0.6,1.4,1.2,2.7,2,4c1,1.7,2,3.5,2.8,5.3
			c1.1,2.2,1.5,4.7,1.2,7.2c-0.2,1.4-0.8,2.6-1.6,3.8c-0.8,1.2-1.8,2.3-2.8,3.3c-2.2,2.1-4.2,4.4-6,6.9c-1.9,2.6-3,5.8-3.1,9.1
			c0,1.6,0.4,3.3,1.1,4.7c0.7,1.5,1.4,3,1.9,4.5c0.3,0.8,0.4,1.6,0.3,2.4c-0.1,0.8-0.3,1.6-0.8,2.3c-0.9,1.2-2,2.3-3.3,3.1
			l-12.5,9.2l-8.5,6.2l-2.3,1.7l-0.6,0.4l-0.2,0.1c0,0,0.1-0.1,0.2-0.2l0.6-0.5l2.3-1.7l8.3-6.3l12.5-9.3c1.2-0.8,2.3-1.8,3.2-3
			c0.4-0.6,0.6-1.3,0.7-2.1c0-0.8-0.1-1.5-0.3-2.2c-0.6-1.5-1.2-3-1.9-4.4c-0.7-1.5-1.1-3.2-1.1-4.9c0.1-3.4,1.2-6.6,3.2-9.3
			c1.8-2.5,3.8-4.8,6.1-6.9c2-2,3.9-4.2,4.3-6.8c0.3-2.4-0.1-4.8-1.1-6.9c-0.8-1.8-1.7-3.6-2.8-5.3c-0.7-1.3-1.4-2.7-1.9-4.1
			c-0.3-0.9-0.6-1.8-0.7-2.8c0-0.2-0.1-0.5-0.1-0.7C276,99.6,276,99.5,276,99.4z"/>
		<path class="st3" d="M245.2,174.2H245l-0.7-0.1c-0.9-0.2-1.8-0.4-2.7-0.7c-3.2-1.1-6.2-2.8-8.8-5c-3.9-3.3-6.7-7.7-8.1-12.6
			c-0.8-2.9-1.2-5.9-1-8.9c0.1-1.6,0.3-3.1,0.6-4.7c0.4-1.5,0.4-3.1,0.1-4.7c-0.2-0.7-0.6-1.4-1.2-1.9c-0.6-0.5-1.3-0.8-2.1-1
			c-0.7-0.2-1.5-0.5-2.3-0.8c-0.7-0.3-1.4-0.8-2-1.3c-1.1-1.1-1.8-2.6-2.1-4.1c-0.3-1.4-0.4-2.9-0.2-4.4c0.5-5,1.6-10,3.3-14.7
			c1.1-3.2,2.5-6.3,4.2-9.2c0.6-1,1.1-1.8,1.4-2.4l0.4-0.6c0-0.1,0.1-0.1,0.1-0.2c0,0,0,0.1-0.1,0.2l-0.4,0.6
			c-0.3,0.5-0.8,1.4-1.3,2.4c-1.6,3-2.9,6.1-4,9.3c-1.6,4.7-2.7,9.6-3.1,14.6c-0.1,1.4,0,2.9,0.3,4.3c0.2,1.5,0.9,2.8,1.9,3.9
			c0.5,0.5,1.2,0.9,1.9,1.2c0.7,0.3,1.5,0.5,2.2,0.8c0.8,0.2,1.6,0.6,2.2,1.1c0.7,0.6,1.1,1.3,1.4,2.1c0.3,1.6,0.3,3.3-0.1,4.9
			c-0.3,1.5-0.5,3.1-0.6,4.6c-0.1,2.9,0.2,5.9,1,8.7c1.4,4.8,4.1,9.1,7.9,12.5c2.5,2.2,5.5,4,8.6,5.1c1.1,0.4,2,0.7,2.6,0.8l0.7,0.2
			C245.1,174.3,245.2,174.3,245.2,174.2z"/>
		<path class="st0" d="M286.8,190.3l-66.3-2.1l0.1,22l43.9,9.6l30.9,4.9c19.2,0,34.5-17.6,31.6-36.6h-0.1L286.8,190.3z"/>
		<path class="st3" d="M305.1,189.9c-0.3,0-0.6,0.1-0.9,0.1l-2.5,0.1l-9.1,0.2c-7.6,0.1-18.2,0.2-29.9,0.1
			c-11.7-0.1-22.3-0.5-29.9-1c-3.8-0.3-6.9-0.5-9-0.7l-2.5-0.2c-0.3,0-0.6-0.1-0.9-0.1c0.3,0,0.6,0,0.9,0l2.5,0.1
			c2.1,0.1,5.2,0.3,9,0.5c7.6,0.4,18.2,0.8,29.9,0.9c11.7,0.1,22.2,0,29.9,0h9.1h2.5C304.5,189.8,304.8,189.8,305.1,189.9z"/>
		<path class="st2" d="M220,190.2l-6.1-1.1c0,0-14.6-15.9-17.3-16.1c-2.2-0.2-14.6-0.1-19,0c-0.8,0-1.5,0.7-1.5,1.5l0,0
			c0,0.8,0.6,1.5,1.4,1.5l14.6,0.6l0.1,1.2l-14.7,0.2c-1.5,0.1-2.5,2.5,2.3,2.9l12.3,0.4v0.8l-12.4,1.7c-0.6,0.1-2.3,0.4-2.3,1
			c0,0-0.8,1.5,2.8,2c1.2,0.1,12-0.2,12-0.2l-0.4,1l-11.2,2.4c-0.8,0.2-1.3,0.9-1.2,1.8l0,0c0.1,0.8,0.9,1.4,1.7,1.4l11.9-1.1
			l11.7,9.4h15.7L220,190.2z"/>
		<path class="st3" d="M294.2,224.4c-0.2,0-0.5,0-0.8,0l-2.1-0.2c-1.9-0.2-4.5-0.5-7.9-1c-6.6-0.9-15.8-2.4-25.8-4.3
			c-10-2-19-4.1-25.5-5.7c-3.2-0.8-5.9-1.5-7.7-2l-2.1-0.6c-0.2-0.1-0.5-0.1-0.7-0.2c0.3,0,0.5,0.1,0.7,0.1l2.1,0.5l7.7,1.9
			c6.5,1.6,15.5,3.6,25.5,5.6c10,2,19.2,3.5,25.8,4.5l7.8,1.2l2.1,0.3C293.7,224.3,294,224.3,294.2,224.4z"/>
		<path class="st3" d="M221.3,210.3c-0.3-1-0.5-2.1-0.6-3.1c-0.3-2-0.5-4.7-0.7-7.6s-0.1-5.7-0.1-7.7c0-1.1,0.1-2.1,0.2-3.2
			c0.1,1.1,0.2,2.1,0.1,3.2c0,2,0.1,4.7,0.2,7.6s0.4,5.7,0.5,7.6C221.2,208.1,221.3,209.2,221.3,210.3z"/>
		<path class="st3" d="M228.5,211.1c-0.1-0.3-0.2-0.5-0.3-0.8c-0.1-0.5-0.4-1.3-0.5-2.3c-1.1-5.2-1.4-10.5-1-15.8
			c0.1-1,0.2-1.8,0.3-2.4c0-0.3,0.1-0.6,0.2-0.9c0,1.1,0,2.2-0.1,3.3c-0.1,2-0.1,4.8,0.1,7.9s0.5,5.8,0.9,7.8
			C228.2,208.9,228.4,210,228.5,211.1z"/>
		<path class="st3" d="M222.4,192.1c0.1,0.1-0.3,0.3-0.3,1c0,0.3,0.1,0.7,0.4,0.9c0.3,0.2,0.8,0.2,1.1,0c0.4-0.2,0.6-0.6,0.5-1
			c-0.1-0.3-0.3-0.6-0.6-0.8c-0.5-0.3-1-0.1-1-0.2s0.4-0.4,1.2-0.1c0.4,0.2,0.8,0.5,0.9,1c0.1,0.8-0.5,1.6-1.3,1.7
			c-0.4,0-0.8-0.1-1.1-0.3c-0.3-0.3-0.5-0.8-0.5-1.3C221.8,192.3,222.4,192.1,222.4,192.1z"/>
		<path class="st3" d="M234.4,214.4c-0.2,0-0.5,0-0.7,0c-0.5,0-1.1,0-2,0c-2.4,0.1-4.8,0.3-7.1,0.7c-3.5,0.6-6.9,1.4-10.4,2.3
			c-3.9,1-8.1,2.2-12.6,3.2c-4.3,1-8.6,1.5-13,1.4c-3.6-0.1-7.1-0.8-10.5-2c-2.3-0.9-4.4-2-6.3-3.5c-0.5-0.4-1-0.8-1.5-1.3
			c-0.2-0.1-0.3-0.3-0.5-0.5c0,0,0.7,0.6,2,1.6c1.9,1.4,4,2.5,6.3,3.3c3.3,1.2,6.9,1.8,10.4,1.9c4.3,0,8.6-0.5,12.9-1.4
			c4.5-1,8.7-2.2,12.6-3.2c3.4-0.9,6.9-1.7,10.4-2.2c2.4-0.3,4.8-0.5,7.2-0.5c0.9,0,1.5,0,2,0.1C234,214.3,234.2,214.3,234.4,214.4z
			"/>
		<path class="st2" d="M263.6,106.1c1.6-8.8,3.4-18,3.4-18s11.7,0.1,16.6-14.2c4.7-13.7,8.1-46.7,8.1-46.7l0,0
			c-15.3-9.5-34.9-8.5-49.1,2.5l0,0L231,101.3c-1.4,8.3,4.7,16.1,13.6,17.5l0,0C253.6,120.1,262.1,114.5,263.6,106.1z"/>
		<path class="st3" d="M283,51.9c-0.2,1-1.1,1.7-2.2,1.6c-1-0.1-1.8-1-1.7-2c0,0,0,0,0-0.1c0.2-1,1.1-1.7,2.2-1.6
			C282.4,49.9,283.2,50.8,283,51.9C283.1,51.8,283.1,51.9,283,51.9z"/>
		<path class="st3" d="M286.5,50.3c-0.3,0.2-1.5-1.1-3.6-1.5c-2-0.4-3.7,0.4-3.9,0.1c-0.1-0.1,0.2-0.5,1-0.9c1-0.5,2.1-0.6,3.2-0.4
			c1.1,0.2,2,0.7,2.8,1.5C286.5,49.7,286.6,50.2,286.5,50.3z"/>
		<path class="st3" d="M262.1,48.5c-0.2,1-1.1,1.7-2.2,1.6c-1-0.1-1.8-1-1.7-2c0.2-1,1.1-1.7,2.2-1.6
			C261.5,46.6,262.2,47.5,262.1,48.5z"/>
		<path class="st3" d="M265.1,47.3c-0.3,0.2-1.5-1.1-3.6-1.5c-2-0.4-3.7,0.4-3.9,0.1c-0.1-0.1,0.2-0.5,1-0.9c1-0.5,2.1-0.6,3.2-0.4
			c1.1,0.2,2,0.7,2.8,1.5C265.1,46.7,265.2,47.2,265.1,47.3z"/>
		<path class="st3" d="M269.8,63.7c1.1-0.1,2.3-0.1,3.4,0c0.5,0,1,0,1.2-0.3c0.1-0.5,0.1-1.1-0.1-1.6c-0.3-1.4-0.5-2.8-0.8-4.2
			c-1.2-6-1.9-10.9-1.6-11s1.4,4.8,2.5,10.8c0.3,1.5,0.5,2.9,0.8,4.2c0.2,0.7,0.2,1.4-0.1,2.1c-0.2,0.3-0.6,0.6-1,0.6
			c-0.3,0-0.6,0-0.9,0C272,64.3,270.9,64.1,269.8,63.7z"/>
		<path class="st4" d="M267,88.1c-7-1.1-13.5-4.2-18.9-8.8c0,0,3,11,18,12.2L267,88.1z"/>
		<path class="st4" d="M268.1,68.5c-0.6-1.2-1.8-1.9-3.1-2c-0.9-0.1-1.8,0.2-2.5,0.8c-0.7,0.6-0.9,1.6-0.6,2.4
			c0.5,0.9,1.5,1.3,2.5,1.1c1-0.2,2-0.5,2.9-1.1c0.3-0.1,0.5-0.3,0.7-0.5C268.2,69.1,268.3,68.8,268.1,68.5"/>
		<path class="st3" d="M263.6,64.1c0.3,0-0.1,2.2,1.6,4.2s4,2.1,4,2.4c0,0.1-0.6,0.3-1.6,0.2c-1.3-0.2-2.5-0.9-3.3-1.9
			c-0.8-0.9-1.3-2.2-1.2-3.4C263.1,64.5,263.4,64,263.6,64.1z"/>
		<path class="st3" d="M252.6,19.1c4,8.7,16.8,19.3,26.6,23.1c-0.9-1.8-6.5-6.9-7.4-8.6c4,4.3,9.8,10.2,15.8,11.7
			c0.7,0.2,1.5,0.3,2.2,0.1c0.8-0.4,1.4-1.2,1.5-2.1c1.2-4.4,1.9-8.9,2.1-13.4c0.2-3.8-1-7.6-3.5-10.5c-3.4-3.8-8.9-5.6-14.2-6.7
			c-4.4-0.9-9.1-1.5-13.5-0.7s-8.5,3.4-9.8,7.1"/>
		<path class="st3" d="M229,51.9c-0.1-3.4,0-6.8,0.4-10.1c1-7.7,3.4-35.7,29.2-28.5l-2.7,7.2c0,0,2,18-11.3,27.7
			c0,0,0.1,18-9.1,24.4C235.5,72.6,229.1,60.5,229,51.9"/>
		<path class="st2" d="M245.1,47c-1.5-0.6-3.2-0.8-4.8-0.5c-1.6,0.3-3.1,1.2-4,2.6c-0.9,1.4-1.2,3.1-0.9,4.7c0.3,1.6,1,3.1,2,4.4
			c0.6,1,1.5,1.8,2.5,2.4c1,0.6,2.3,0.6,3.4,0.1"/>
		<path class="st4" d="M242.6,56.4c0.2,0.1-0.7,0.9-2.1,0.3c-0.7-0.4-1.3-1.1-1.5-1.9c-0.3-0.9-0.4-1.8-0.3-2.8
			c0.1-1,0.5-1.9,1.1-2.7c0.6-0.6,1.4-0.9,2.3-0.9c1.5,0.2,1.8,1.3,1.6,1.3s-0.6-0.5-1.6-0.5c-1.3,0.3-2.2,1.4-2.2,2.8
			c-0.1,1.7,0.2,3.3,1,3.8S242.5,56.2,242.6,56.4z"/>
		<path class="st3" d="M242.6,60.6c-4,23.9-0.8,48.4,0,72.6c0.1,2.3,0.1,4.8-1,6.8c-1.6,3.1-5.3,4.7-8.8,4.9s-7-0.6-10.5-0.9
			c-0.4-2.3-0.8-4.6-1.1-7c-1.2,2.7-2.3,5.4-3.5,8c1.5-17,3.2-34,5.1-51"/>
	</g>
</g>
</svg>
