<?xml version="1.0" encoding="utf-8"?>
<!-- Generator: Adobe Illustrator 22.0.1, SVG Export Plug-In . SVG Version: 6.00 Build 0)  -->
<svg version="1.1" id="Layer_1" xmlns="http://www.w3.org/2000/svg" xmlns:xlink="http://www.w3.org/1999/xlink" x="0px" y="0px"
	 viewBox="0 0 351.4 410" style="enable-background:new 0 0 351.4 410;" xml:space="preserve">
<style type="text/css">
	.st0{fill:#37474F;}
	.st1{opacity:0.8;}
	.st2{fill:#FFFFFF;}
	.st3{opacity:0.3;}
	.st4{fill:#FFBE9D;}
	.st5{fill:#EB996E;}
	.st6{opacity:0.6;}
	.st7{fill:#263238;}
	.st8{fill:#455A64;}
	.st9{fill:#FAFAFA;}
</style>
<g>
	<g id="freepik--back-screens--inject-79">
		<path class="st0" d="M133.1,28.2c-37.1,2.7-77.6,7.6-107.2,19l9.4,63.4c0,0,57.5-20.6,104.3-19.2L133.1,28.2z"/>
		<g class="st1">
			<path class="st2" d="M133.1,28.2c-37.1,2.7-77.6,7.6-107.2,19l9.4,63.4c0,0,57.5-20.6,104.3-19.2L133.1,28.2z"/>
		</g>
		<path class="st0" d="M130.4,83.1l-0.4,0.1l-1.1,0.1l-4,0.5c-1.8,0.2-3.9,0.5-6.4,0.8s-5.3,0.7-8.4,1.2c-12.5,1.9-29.7,5.1-48.4,10
			c-6.5,1.7-12.8,3.4-18.5,5.2l-0.3,0.1v-0.3c-2-14.5-3.9-27.1-5.4-36c-0.8-4.4-1.4-8-1.8-10.4c-0.2-1.2-0.4-2.1-0.5-2.8
			c0-0.3-0.1-0.5-0.1-0.7c0-0.1,0-0.2,0-0.2c0,0.1,0.1,0.2,0.1,0.2c0,0.2,0.1,0.4,0.2,0.7c0.1,0.7,0.3,1.6,0.6,2.8
			c0.5,2.4,1.2,5.9,1.9,10.4c1.6,8.9,3.6,21.4,5.6,36l-0.3-0.2c5.8-1.8,12-3.6,18.5-5.2c16-4.1,32.2-7.4,48.5-9.8
			c3.1-0.5,6-0.8,8.5-1.1s4.6-0.6,6.4-0.8l4.1-0.4l1.1-0.1C130.2,83.1,130.3,83.1,130.4,83.1z"/>
		<path class="st0" d="M131.7,67.7c0,0-0.1-0.4-0.4-1.3c-0.5-1.2-1.1-2.3-1.9-3.3c-1.2-1.6-2.8-2.9-4.5-3.9
			c-0.5-0.3-1.1-0.6-1.6-0.8c-0.6-0.3-1.2-0.5-1.8-0.7c-1.3-0.4-2.7-0.6-4.1-0.4c-1.5,0.2-3,0.7-4.2,1.7c-1.3,1-2.5,2.2-3.4,3.7
			c-2,2.9-3.2,6.4-4.7,10.1c-0.7,1.9-1.9,3.6-3.5,5c-0.8,0.7-1.8,1.2-2.9,1.4c-1.1,0.2-2.2,0.1-3.3-0.4c-4.2-1.7-6.1-6.5-10.4-8
			c-2.1-0.7-4.4-0.5-6.3,0.5c-1,0.5-1.8,1.1-2.5,1.9c-0.7,0.8-1.2,1.7-1.7,2.7c-0.9,1.9-1.7,4-3.3,5.4c-0.8,0.7-1.8,1.2-2.9,1.3
			c-1,0.1-2.1-0.2-3-0.6c-1.7-1-3.2-2.4-4.1-4.1c-0.9-1.6-1.6-3.3-2.2-5c-0.6-1.6-1.3-3.1-2.2-4.5c-0.8-1.3-2-2.4-3.3-3.1
			c-2.4-1.3-5.2-1.3-7.6-0.2c-1.9,0.8-3.5,2-4.8,3.5c-0.8,1-1.4,2.1-1.8,3.3C39,72.6,39,73.1,39,73.1c0-0.4,0.1-0.9,0.2-1.3
			c0.3-1.2,0.9-2.4,1.8-3.4c1.3-1.6,3-2.8,4.9-3.6c2.5-1.2,5.4-1.1,7.9,0.2c1.4,0.7,2.6,1.8,3.5,3.2c0.9,1.4,1.7,3,2.2,4.6
			c0.6,1.7,1.3,3.3,2.2,4.9c1,1.6,2.3,3,4,3.9c0.8,0.4,1.8,0.6,2.8,0.6c1-0.1,1.9-0.5,2.6-1.2c1.5-1.4,2.2-3.4,3.1-5.3
			c0.5-1,1-1.9,1.7-2.8c0.7-0.9,1.7-1.6,2.7-2.1c2.1-1.1,4.5-1.3,6.7-0.6c2.3,0.8,3.9,2.5,5.4,4.1c1.4,1.7,3.1,3,5,4
			c0.9,0.4,2,0.5,3,0.4c1-0.2,1.9-0.6,2.7-1.3c1.5-1.3,2.6-3,3.4-4.8c1.5-3.6,2.8-7.2,4.8-10.1c0.9-1.4,2.1-2.7,3.5-3.7
			c1.3-0.9,2.8-1.5,4.4-1.7c1.4-0.2,2.9,0,4.3,0.4c0.6,0.2,1.2,0.4,1.9,0.7c2.4,1.2,4.5,2.9,6.1,5c0.8,1,1.4,2.2,1.9,3.4
			c0.1,0.3,0.2,0.7,0.3,1C131.7,67.5,131.7,67.6,131.7,67.7z"/>
		<path class="st0" d="M33.4,59.3c0,0.1-0.5,0.3-1.1,0.5s-1.2,0.1-1.2,0s0.4-0.3,1.1-0.5S33.4,59.2,33.4,59.3z"/>
		<path class="st0" d="M35.1,70.9c0.1,0.1-0.3,0.4-0.8,0.7s-1,0.3-1,0.2s0.3-0.4,0.8-0.7S35,70.8,35.1,70.9z"/>
		<path class="st0" d="M37.1,83.6c0,0.1-0.3,0.4-0.8,0.6s-1,0.2-1,0.1s0.3-0.4,0.8-0.6S37.1,83.4,37.1,83.6z"/>
		<path class="st0" d="M39.6,96c0,0.1-0.4,0.4-1,0.6s-1.1,0.2-1.1,0.1s0.4-0.4,0.9-0.6S39.5,95.9,39.6,96z"/>
		<path class="st0" d="M109.5,36.2c0.4-0.1,0.8-0.2,1.2-0.3c0.8-0.1,2-0.3,3.4-0.5c3-0.4,7.2-1,12.3-1.6h0.2v0.2
			c0.4,4.3,0.9,9.2,1.3,14.4v0.2v0.2h-0.2l-16.6,2h-0.2v-0.2c-0.5-4.3-0.9-8-1.1-10.6c-0.1-1.2-0.2-2.2-0.3-2.9
			C109.5,36.8,109.4,36.5,109.5,36.2c0,0.3,0.1,0.6,0.1,1c0.1,0.7,0.2,1.7,0.4,3c0.3,2.6,0.8,6.2,1.3,10.5l-0.2-0.2l16.6-2.1
			l-0.2,0.3v-0.2c-0.5-5.2-0.9-10.1-1.3-14.4l0.3,0.2L109.5,36.2z"/>
		<path class="st0" d="M124.9,38.8c0,0.2-2.9,0.2-6.3,0.5s-6.3,1-6.3,0.8C116.3,38.8,120.6,38.3,124.9,38.8z"/>
		<path class="st0" d="M125.1,42.5c0,0.2-2.7,0.2-5.9,0.6s-5.9,0.7-5.9,0.6c1.9-0.6,3.9-1,5.9-1.1C121.1,42.2,123.1,42.2,125.1,42.5
			z"/>
		<path class="st0" d="M121.1,45.7c-1.1,0.4-2.2,0.6-3.4,0.7c-1.1,0.2-2.3,0.3-3.4,0.2c1.1-0.4,2.2-0.6,3.4-0.7
			C118.8,45.7,119.9,45.6,121.1,45.7z"/>
		<path class="st0" d="M313.8,46.9c-36.3-11.1-66.9-20.5-108-20.3l-6.3,64.6c42.7,3.8,57,6.6,96.4,20.9L313.8,46.9z"/>
		<g class="st1">
			<path class="st2" d="M313.8,46.9c-36.3-11.1-66.9-20.5-108-20.3l-6.3,64.6c42.7,3.8,57,6.6,96.4,20.9L313.8,46.9z"/>
		</g>
		<path class="st0" d="M231.6,57.9l1.6-13.7c-4-0.4-8,0.7-11.2,3.1c-4.3,3.2-6.9,8.2-6.9,13.5c0,0.7,0,1.3,0,2l0,0l0,0l16-1.8
			L231.6,57.9z"/>
		<path class="st0" d="M248.2,55.7c-1.6-5.4-5.9-9.6-11.4-10.8l-0.5-0.1l-0.3-0.1l-0.9-0.1h-0.1l-1.6,13.6l-0.4,3.2l15.1,5.5l0,0
			c0.4-1.1,0.6-2.3,0.8-3.5C249.2,60.8,248.9,58.2,248.2,55.7z"/>
		<g class="st3">
			<path d="M248.2,55.7c-1.6-5.4-5.9-9.6-11.4-10.8l-0.5-0.1l-0.3-0.1l-0.9-0.1h-0.1l-1.6,13.6l-0.4,3.2l15.1,5.5l0,0
				c0.4-1.1,0.6-2.3,0.8-3.5C249.2,60.8,248.9,58.2,248.2,55.7z"/>
		</g>
		<path class="st0" d="M231.8,63l-16,1.8c0.7,7.8,6.3,14.2,13.9,15.1s14.7-4,17.2-11.4L231.8,63"/>
		<path class="st0" d="M299.8,59.2c-0.5-0.1-1-0.3-1.4-0.6c-0.9-0.4-2.2-1-3.8-1.7c-4.2-1.8-8.5-3.3-12.9-4.5
			c-4.4-1.3-8.8-2.3-13.3-3c-1.7-0.3-3.1-0.5-4.1-0.6c-0.5,0-1-0.1-1.5-0.3c0.5,0,1,0,1.5,0.1c1,0.1,2.4,0.2,4.1,0.4
			c9.1,1.2,17.9,3.8,26.3,7.5c1.6,0.7,2.9,1.3,3.8,1.8C298.9,58.6,299.3,58.8,299.8,59.2z"/>
		<path class="st0" d="M298.7,65.9c-0.5-0.2-1-0.3-1.4-0.6c-0.9-0.4-2.2-1-3.8-1.6c-8.4-3.5-17.2-6.1-26.2-7.5
			c-1.7-0.3-3.1-0.5-4.1-0.6c-0.5,0-1-0.1-1.5-0.3c0.5,0,1,0,1.5,0.1c1,0.1,2.4,0.2,4.1,0.4c4.5,0.6,9,1.6,13.4,2.8
			c4.4,1.3,8.7,2.8,12.9,4.7c1.6,0.7,2.9,1.3,3.8,1.8C297.8,65.3,298.2,65.6,298.7,65.9z"/>
		<path class="st0" d="M297.6,72.6c-0.5-0.1-1-0.3-1.4-0.6c-0.9-0.4-2.2-1-3.8-1.7c-4.2-1.8-8.5-3.3-12.9-4.5
			c-4.4-1.3-8.8-2.3-13.3-3c-1.7-0.3-3.1-0.5-4.1-0.6c-0.5,0-1-0.1-1.5-0.3c0.5,0,1,0,1.5,0.1c1,0.1,2.4,0.2,4.1,0.4
			c4.5,0.6,9,1.6,13.4,2.8c4.4,1.3,8.7,2.8,12.9,4.7c1.6,0.7,2.9,1.3,3.8,1.8C296.7,72,297.1,72.3,297.6,72.6z"/>
		<path class="st0" d="M295.4,79.4c-0.5-0.2-0.9-0.3-1.4-0.6c-0.9-0.4-2.1-1-3.7-1.6c-8.1-3.5-16.7-6-25.4-7.5c-1.7-0.3-3-0.5-4-0.6
			c-0.5,0-1-0.1-1.5-0.3c0.5,0,1,0,1.5,0.1c1,0.1,2.3,0.2,4,0.4c4.4,0.6,8.8,1.6,13,2.8c4.3,1.3,8.5,2.8,12.5,4.7
			c1.5,0.7,2.8,1.3,3.6,1.8C294.5,78.9,295,79.1,295.4,79.4z"/>
		<path class="st0" d="M290.6,84.8c-0.4-0.1-0.8-0.3-1.2-0.5l-3.3-1.5c-7.2-3.3-14.9-5.5-22.8-6.5l-3.6-0.5c-0.4,0-0.9-0.1-1.3-0.2
			c0.4-0.1,0.9-0.1,1.3,0c0.9,0,2.1,0.2,3.6,0.3c8,0.8,15.7,3.1,22.9,6.5c1.4,0.7,2.5,1.2,3.2,1.6C289.8,84.3,290.2,84.5,290.6,84.8
			z"/>
		<path class="st0" d="M274.5,85.5c-0.9-0.1-1.7-0.3-2.6-0.5c-1.6-0.4-3.8-0.9-6.2-1.3s-4.7-0.7-6.3-1c-0.9-0.1-1.7-0.2-2.6-0.4
			c0.9-0.1,1.8,0,2.6,0.1c1.6,0.1,3.9,0.4,6.3,0.8c2.1,0.4,4.2,0.8,6.2,1.4C272.8,84.8,273.7,85.1,274.5,85.5z"/>
		<path class="st0" d="M212,34.2l0.8-0.1l2.5-0.1c2.2,0,5.4,0,9.5,0.2c11.3,0.8,22.5,2.8,33.3,6l0.2,0.1v0.2
			c-2.5,14.3-5.5,31.4-8.7,49.6c-0.1,0.7-0.3,1.5-0.4,2.2v0.3l-0.3-0.1c-7.3-1.9-14.7-3.5-22.2-4.6c-7.2-1.1-14-1.9-20.4-2.3h-0.2
			v-0.2c1.8-15.3,3.2-28.1,4.2-37.1c0.5-4.5,0.9-8,1.2-10.4c0.1-1.2,0.3-2.1,0.3-2.7c0-0.3,0.1-0.5,0.1-0.7S212,34.3,212,34.2
			c0,0.1,0,0.2,0,0.3c0,0.2,0,0.4-0.1,0.7c-0.1,0.7-0.2,1.6-0.3,2.8c-0.2,2.4-0.6,6-1.1,10.5c-1,9-2.4,21.8-4,37l-0.2-0.2
			c6.4,0.4,13.2,1.1,20.4,2.2c7.5,1.1,14.9,2.7,22.3,4.6l-0.3,0.2c0.1-0.7,0.3-1.5,0.4-2.2c3.2-18.2,6.2-35.2,8.7-49.6l0.1,0.2
			c-10.8-3.2-21.9-5.3-33.2-6.1c-4.1-0.3-7.3-0.3-9.4-0.3L212,34.2L212,34.2z"/>
	</g>
	<g id="freepik--Character--inject-79">
		<polyline class="st0" points="172.4,166.3 207.8,174.2 213.2,166.3 212.3,156.2 207,151.3 188.4,151.3 171.1,166.9 		"/>
		<g class="st3">
			<polyline points="172.4,166.3 207.8,174.2 213.2,166.3 212.3,156.2 207,151.3 188.4,151.3 171.1,166.9 			"/>
		</g>
		<path class="st4" d="M226.4,93.4l44.7-6l7-2c0,0,16.1-3.5,17.6-4.1c1.7-0.6,2.5,0.1,2.6,0.7c0.3,1-0.7,2.2-2.2,2.8
			c-0.5,0.2-8.7,3-8.7,3c0.9,0.2,1.9,0.5,2.8,0.8c2,0.7,3.8,3.2,4.8,6.1s1,3.8-0.2,4.3c-0.4,0.1-0.9,0.1-1.3-0.2
			c-0.6-0.4-1.1-1-1.3-1.7c-1.6-4.7-4.5-5.1-4.5-5.1l-0.9,0.3c0,0,3,2.1,3,4.7c0,0.4-0.1,0.7-0.2,1.1c0.7,2-0.4,4.2-2.4,4.9
			c-0.6,0.2-1.3,0.3-1.9,0.2c-0.6-0.1-1.3-0.5-1.4-1.1c0-0.3,0.1-0.7,0.2-1c0.1-0.2,0.1-0.4,0.2-0.5l-2.7,0.4c0,0-6.1,0.5-8.7,1
			l-41.8,12.6c-5.7,1.7-11.8-1.5-13.5-7.2c0-0.1,0-0.1,0-0.2l0,0c-1.6-5.8,1.7-11.7,7.5-13.4C225.3,93.6,225.8,93.5,226.4,93.4z"/>
		<path class="st4" d="M272.1,88.5c0.2,0.9,1,1.7,1.9,1.8c0.9,0.2,1.9,0.1,2.8,0.2c2.8,0.4,5,2.9,7.7,3.1c0.4,0,0.9,0,1-0.4
			s-0.2-0.7-0.5-0.9l-7-6.2"/>
		<path class="st5" d="M278.2,86.2c0.3,0.2,0.6,0.4,0.8,0.6c0.5,0.4,1.2,1,2.1,1.8l3.1,2.6l0.9,0.8c0.3,0.3,0.7,0.5,0.8,1.1
			c0,0.3-0.2,0.6-0.5,0.7c-0.2,0.1-0.5,0.1-0.8,0.1c-0.5,0-0.9-0.1-1.3-0.3c-1.5-0.6-3-1.4-4.5-2.3c-0.6-0.3-1.3-0.5-2-0.7
			c-0.7-0.1-1.3-0.1-1.9-0.1c-1,0-1.9-0.4-2.5-1.1c-0.4-0.6-0.3-1-0.3-1c0.1,0.3,0.3,0.6,0.5,0.8c0.6,0.6,1.5,0.9,2.4,0.9
			c0.6,0,1.3,0,1.9,0.1c0.7,0.1,1.5,0.3,2.1,0.6c1.4,0.8,2.9,1.6,4.4,2.2c0.4,0.1,0.8,0.2,1.2,0.2c0.4,0,0.7-0.1,0.7-0.3
			c0-0.2-0.3-0.5-0.6-0.8l-0.9-0.8l-3-2.7l-2-1.9C278.4,86.4,278.1,86.2,278.2,86.2z"/>
		<path class="st5" d="M286.7,92.3c0.6-0.1,1.2-0.1,1.8,0c0.6,0.2,1.1,0.5,1.5,1c0.5,0.6,0.8,1.3,1.1,2.1c0.3,0.8,0.6,1.5,1,2.2
			c0.4,0.6,0.9,1.1,1.5,1.4c0.4,0.2,0.9,0.2,1.4,0c0.3-0.1,0.4-0.3,0.4-0.3c0,0-0.2,0.1-0.4,0.2c-0.4,0.1-0.8,0.1-1.2-0.1
			c-0.5-0.3-1-0.8-1.3-1.4c-0.4-0.7-0.7-1.4-1-2.2c-0.3-0.8-0.7-1.5-1.2-2.2c-0.4-0.5-1-0.9-1.7-1.1c-0.4-0.1-0.9-0.1-1.4,0
			C286.8,92.1,286.7,92.2,286.7,92.3z"/>
		<path class="st5" d="M296.8,84.6c-0.6,0.1-1.1,0.3-1.6,0.6l-3.9,1.4l-3.9,1.4c-0.6,0.1-1.1,0.4-1.6,0.6c0.6-0.1,1.1-0.2,1.7-0.4
			c1-0.3,2.4-0.7,3.9-1.3c1.5-0.6,2.9-1.1,3.9-1.5C295.8,85.1,296.3,84.9,296.8,84.6z"/>
		<path class="st5" d="M285.5,94.8c0,0,0.1,0.2,0.3,0.4c0.3,0.3,0.5,0.8,0.5,1.2c0,0.3-0.2,0.5-0.5,0.7c-0.3,0.1-0.7,0.2-1.1,0.3
			c-0.5,0.1-0.9,0.3-1.2,0.6c-0.3,0.4-0.4,1-0.2,1.5c0.2,0.5,0.5,0.9,1,1.1c0.4,0.2,0.9,0.3,1.3,0.2c0.7-0.2,1.4-0.4,2.1-0.8
			c0.4-0.2,0.9-0.5,1.2-0.9c0.1-0.1,0.2-0.3,0.3-0.5c0,0-0.1,0.1-0.4,0.4c-0.4,0.3-0.8,0.6-1.2,0.8c-0.6,0.3-1.3,0.5-2,0.7
			c-0.8,0.1-1.7-0.3-2-1.1c-0.1-0.4-0.1-0.8,0.1-1.2c0.3-0.3,0.6-0.5,1-0.5c0.4-0.1,0.8-0.2,1.1-0.4c0.3-0.2,0.6-0.5,0.6-0.9
			c0-0.5-0.2-1-0.6-1.4C285.7,94.9,285.5,94.7,285.5,94.8z"/>
		<path class="st5" d="M284.6,100.3c0,0-0.2,0-0.4,0.2c-0.4,0.3-0.5,0.8-0.5,1.2c0.1,0.7,0.5,1.3,1.2,1.6c0.8,0.3,1.6,0.3,2.4,0
			c0.8-0.3,1.5-0.8,1.9-1.5c0.4-0.6,0.6-1.2,0.7-1.9c0-0.4,0-0.9-0.2-1.3c0-0.2-0.1-0.3-0.2-0.4c0.1,0.6,0.1,1.2,0.1,1.7
			c-0.2,1.4-1.1,2.5-2.5,3c-0.7,0.3-1.5,0.3-2.2,0c-0.6-0.2-1-0.7-1.1-1.3c-0.1-0.4,0.1-0.8,0.3-1.1
			C284.4,100.4,284.6,100.4,284.6,100.3z"/>
		<path class="st5" d="M277.1,96.7c0,0,0-0.3-0.3-0.8c-0.4-0.6-1-1.1-1.6-1.3v0.3c0.3-0.2,0.7-0.3,1-0.6c1.2-0.7,2.2-1.7,2.8-2.9
			c-0.9,1-1.9,1.8-3,2.6c-0.3,0.2-0.7,0.4-1,0.6l-0.3,0.2l0.4,0.1c0.6,0.2,1.2,0.6,1.6,1.1C277,96.4,277.1,96.7,277.1,96.7z"/>
		<path class="st5" d="M291,91.9c-0.1-0.1-0.5,0.5-0.6,1.3s0.3,1.4,0.4,1.4s-0.1-0.6-0.1-1.3S291.1,91.9,291,91.9z"/>
		<path class="st4" d="M82.5,107.4c0,0-6.5-10.6-7.7-11.5s-11.5-4.7-12.4-4.4s-13.4,2.4-12,3.9s10.2-0.1,10.2-0.1l1.2,0.6
			c0,0-7.6,1.2-9.1,2.1s-1,2.6,0.4,2.5s7.9-1.4,8.3-1.1s-7.1,1.8-7.9,2.2c-1.1,0.6-1.2,2.6,0.2,2.5c0.8-0.1,7.9-1.9,7.9-1.9
			c-2.1,0.8-4.1,1.7-6.1,2.7c-0.8,0.8-0.2,2,1,1.8c0.8-0.2,4.8-2.1,5.9-2.3c0,0,1,0.3,2,2.4c0.4,1,2.5,7.1,6.1,7.1
			c3.3-0.1,6.5,2.6,6.5,2.6L82.5,107.4z"/>
		<path class="st5" d="M50.6,95.5c0.7,0.4,1.5,0.6,2.3,0.6c0.9,0.1,1.7,0.2,2.6,0.1c1-0.1,2-0.2,3.1-0.4l2.3-0.3h-0.1
			c1.7,0.7,3.6,1.3,5.4,1.7c-1.7-0.9-3.4-1.6-5.2-2.2h-0.1h-0.1l-2.3,0.3l-3.1,0.4c-0.8,0.1-1.7,0.1-2.5,0
			C51.4,95.6,50.6,95.4,50.6,95.5z"/>
		<path class="st4" d="M77.6,106.2c-0.9,0.6-2,0.6-2.9,0c-0.9-0.5-1.6-1.4-2.4-2c-2.5-1.8-6.2-1.4-8.7-3.3c-0.3-0.3-0.7-0.7-0.5-1.1
			s0.7-0.4,1.1-0.4l10.3,0.2"/>
		<path class="st5" d="M74.5,99.7c-0.4-0.1-0.7-0.1-1.1-0.1c-0.7,0-1.8-0.1-3-0.2l-4.5-0.2h-1.3c-0.5-0.1-1.1,0-1.5,0.3
			c-0.3,0.3-0.3,0.7-0.2,1c0.1,0.3,0.3,0.5,0.5,0.7c0.4,0.3,0.8,0.6,1.3,0.8c1.7,0.6,3.5,1.1,5.4,1.5c0.7,0.2,1.5,0.6,2.1,1
			c0.6,0.4,1.1,0.9,1.6,1.3c0.8,0.7,1.8,1.1,2.9,1c0.8-0.1,1-0.6,1-0.6c-0.3,0.2-0.7,0.3-1,0.3c-1,0-1.9-0.4-2.6-1.1
			c-0.5-0.4-1-0.9-1.6-1.4c-0.7-0.5-1.4-0.8-2.2-1.1c-1.8-0.4-3.5-0.9-5.2-1.5c-0.4-0.2-0.8-0.4-1.2-0.7c-0.3-0.3-0.5-0.6-0.3-0.8
			s0.6-0.2,1.1-0.2h1.3h4.5c1.3,0,2.3,0,3,0C73.8,99.8,74.2,99.8,74.5,99.7z"/>
		<path class="st0" d="M133.4,341.7l-2.4,26.2l-7.9,20.2c-0.5,1.4,0.2,3,1.5,3.5c0.1,0,0.1,0,0.2,0.1l0,0c0.8,0.3,1.7,0.1,2.4-0.4
			c4.4-3.4,20.7-15.9,20.7-17.8c0.1-2.2,4.4-27.5,4.4-27.5L133.4,341.7z"/>
		<g class="st6">
			<path class="st2" d="M124.8,391.6l23.4-20l-0.1,1.1c-0.1,1-0.6,1.8-1.3,2.5c-1.9,1.8-7.2,6.5-19.5,16
				C126.6,391.8,125.7,392,124.8,391.6L124.8,391.6z"/>
		</g>
		<g class="st6">
			<path class="st2" d="M143.8,362.6c-0.7,0.4-1,1.3-0.7,2.1c0.4,0.7,1.3,1,2,0.7c0.8-0.4,1.1-1.4,0.7-2.2c-0.5-0.7-1.5-0.9-2.2-0.5
				"/>
		</g>
		<path class="st7" d="M132.1,380.9c-0.2,0.1-0.6-1.4-2.1-2.3c-0.9-0.5-1.9-0.8-2.9-0.9c0-0.1,0.3-0.2,1-0.2c0.8,0,1.6,0.2,2.3,0.7
			c0.7,0.4,1.2,1.1,1.6,1.8C132.2,380.5,132.2,380.9,132.1,380.9z"/>
		<path class="st7" d="M129.9,384.2c-0.1,0.1-0.9-0.9-2.2-1.4c-0.8-0.3-1.7-0.5-2.5-0.6c0.9-0.4,1.9-0.4,2.7,0.1
			C129.4,382.9,130,384.1,129.9,384.2z"/>
		<path class="st7" d="M136.1,376.8c-1-0.9-2.1-1.7-3.2-2.4c-1.9-1-3.8-1.2-3.8-1.4c1.4-0.2,2.8,0.1,4.1,0.8
			C134.4,374.5,135.5,375.5,136.1,376.8z"/>
		<path class="st7" d="M137.5,368.9c-0.1,0.1-1.5-0.6-3.3-0.9s-3.4,0-3.4-0.2C133,366.9,135.6,367.3,137.5,368.9z"/>
		<path class="st7" d="M138.4,361.2c-1.1-0.5-2.3-0.8-3.4-1c-1.2,0-2.4,0.2-3.6,0.5c0-0.1,0.3-0.4,0.9-0.6c0.8-0.4,1.8-0.5,2.7-0.4
			c0.9,0.1,1.8,0.4,2.6,0.8C138.2,360.8,138.4,361.1,138.4,361.2z"/>
		<path class="st7" d="M135.1,358.7c-0.1-0.3,0-0.7,0.1-1c0.2-0.9,0.6-1.7,1.1-2.5c0.3-0.6,0.9-1,1.5-1.3c0.4-0.1,0.9,0,1.2,0.4
			c0.2,0.4,0.3,0.8,0.3,1.2c-0.3,1.8-1.9,3.1-3.7,3.1c-1.8,0-3.4-1.1-4.1-2.8c-0.2-0.4-0.1-0.9,0.1-1.3c0.3-0.4,0.7-0.6,1.2-0.4
			c0.6,0.2,1.2,0.6,1.6,1.1c0.7,0.6,1.2,1.4,1.6,2.2c0.2,0.3,0.3,0.6,0.3,1c-0.6-1.1-1.3-2-2.1-2.9c-0.4-0.4-0.9-0.7-1.4-0.9
			c-0.2-0.1-0.5,0-0.6,0.2c-0.1,0.3-0.1,0.6,0,0.8c0.6,1.4,2,2.4,3.5,2.4c1.5,0,2.9-1.1,3.2-2.6c0.1-0.3,0-0.6-0.2-0.9
			c-0.1-0.2-0.4-0.3-0.6-0.2c-0.5,0.2-1,0.6-1.3,1.1C135.9,356.4,135.4,357.5,135.1,358.7z"/>
		<path class="st7" d="M157.5,357l19.6-155.4l-6.3-36.1l-37,2l-4.6,186.7c0,1.4,0.9,2.6,2.3,2.9l21.6,3.3
			C155.2,360.7,157.2,359.2,157.5,357C157.5,357.1,157.5,357.1,157.5,357z"/>
		<path class="st7" d="M176.6,206.8l35.7,35.3l-51.4,12.5l3.6,25.9l69.5-9.5c5.9-0.8,11.3-4,14.8-8.9l0,0c5.4-7.5,5.5-17.5,0.3-25.1
			l-54.2-79.5l-24.2,7.9L176.6,206.8z"/>
		<path class="st8" d="M174.6,197.8c0.6,1.4,1,2.9,1.2,4.4c0.4,1.5,0.7,3,0.7,4.5c-0.6-1.4-1-2.9-1.2-4.4
			C174.9,200.9,174.7,199.3,174.6,197.8z"/>
		<path class="st8" d="M169.4,257.9l0.9-0.3l2.5-0.8l9.6-2.9l34.9-10.5l-0.1,0.3l-42.9-45.6l0.4-0.1c-0.9,7.2-1.7,14.7-2.6,22.3
			c-4.4,37-8.6,70.5-11.8,94.7c-1.6,12.1-3,21.9-4,28.7c-0.6,3.4-1,6-1.3,7.8c-0.2,0.9-0.3,1.5-0.4,2s-0.2,0.7-0.2,0.7
			s0-0.2,0.1-0.7s0.2-1.1,0.4-2c0.4-1.8,0.7-4.4,1.2-7.8c1-6.8,2.3-16.6,3.9-28.7c3.1-24.2,7.2-57.7,11.6-94.7
			c0.9-7.6,1.8-15.1,2.6-22.3l0.1-0.6l0.4,0.4l42.7,45.7l0.2,0.2l-0.3,0.1l-34.9,10.3l-9.6,2.8l-2.5,0.7
			C169.7,257.9,169.4,257.9,169.4,257.9z"/>
		<path class="st8" d="M157.8,354.1c-0.1,0,3.9-33,9.1-73.7s9.5-73.6,9.6-73.6s-3.9,33-9.1,73.7S158,354.1,157.8,354.1z"/>
		<path class="st8" d="M170.8,181.4c0.4,0.8,0.6,1.6,0.8,2.4c0.4,1.5,1,3.6,1.5,5.9s0.9,4.5,1.1,6c0.2,0.8,0.3,1.7,0.2,2.5
			c-0.3-0.8-0.5-1.6-0.6-2.5c-0.4-1.7-0.8-3.7-1.3-6s-1-4.3-1.3-6C171,183,170.8,182.2,170.8,181.4z"/>
		<path class="st8" d="M173.1,178.3c0,0,0.5-0.5,1.4-0.2c0.6,0.2,1,0.7,1.1,1.3c0.1,0.7-0.2,1.5-0.8,1.9c-0.6,0.3-1.4,0.3-2-0.2
			c-0.5-0.4-0.6-1-0.5-1.6c0.1-0.4,0.3-0.7,0.7-0.9c0.2-0.1,0.4-0.1,0.4-0.1c-0.3,0.3-0.6,0.6-0.7,1.1c-0.1,0.4,0.1,0.9,0.4,1.2
			c0.4,0.3,1,0.4,1.5,0.1c0.4-0.3,0.7-0.8,0.6-1.4c-0.1-0.4-0.4-0.8-0.8-1C174,178.3,173.5,178.3,173.1,178.3z"/>
		<path class="st8" d="M222.8,248.2c-0.1,0.1-2.1-1.7-5-3.4s-5.5-2.5-5.4-2.7c2,0.4,4,1.1,5.7,2.2
			C219.9,245.3,221.5,246.6,222.8,248.2z"/>
		<path class="st0" d="M145.6,59.5l-20.5,9.9l8.8,61.7l-3.5,27.7c-0.5,3.6,0.9,7.1,3.6,9.5l0,0l33.1-0.6l23.2-12.7l10.6-1.8
			l-4.4-21.1l2-29.9l24.2,12.9c1.9,1,4,1.3,6.1,0.7l44.4-11.5L271,87.1l-40.2,4.6l-30.6-27.1l-22.8-5.1l-4-6.7H150l-1.7,1.2
			c-0.8,0.6-1.4,1.4-1.7,2.3L145.6,59.5z"/>
		<path class="st0" d="M125.1,69.4c-4.3,2.9-7.5,7.1-9.2,12c-2.3,7.3-7.6,36.7-7.6,36.7L85,103.7l-13.4,14.1l31,27.4
			c4.8,4.2,11.6,5.1,17.3,2.4l0,0c4.8-2.3,8.1-6.8,8.8-12.1l3.8-27.9L125.1,69.4z"/>
		<polygon class="st4" points="195.1,157.6 193.6,155.4 178.3,158.3 175.5,164.8 		"/>
		<path class="st0" d="M134.1,168.2c13.7,5.5,28.3,3.5,41.4-3.4c3.9-2.1,7.6-4.7,11.6-6.7c4-2.1,8.3-3.6,12.8-3.3s8.9,2.8,10.7,6.9
			s0,9.6-4.2,11.2l1.5,1.3c6.1-2.9,9.1-11.1,6.1-17.2c-2.3-4.7-7.1-7.4-10.7-11.3c-5.2-5.6-5.8-16.4-5.8-24.9"/>
		<path class="st7" d="M164.1,71.4c-0.3,0-0.7,0-1,0c-0.9,0.1-1.8,0.5-2.4,1.1c-0.9,1.1-1.3,2.5-1.2,3.9c0,1.8,0.4,3.6,1.1,5.2
			l0.4,0.9l-0.8-0.6c-1.9-1.4-3.6-2.9-5.2-4.6c-3.4-3.5-6.1-7.6-7.9-12.2c-0.5-1.4-1-2.8-1.3-4.2c-0.1-0.5-0.2-1.1-0.2-1.6
			c0.5,1.9,1.1,3.8,1.9,5.7c1.9,4.4,4.6,8.5,8,11.9c1.6,1.6,3.3,3.2,5.1,4.5l-0.4,0.3c-0.4-0.9-0.7-1.8-0.9-2.8
			c-0.2-0.9-0.2-1.8-0.2-2.6c-0.1-1.5,0.4-3,1.4-4.1c0.7-0.7,1.6-1.1,2.6-1.1C163.5,71.3,163.8,71.3,164.1,71.4z"/>
		<path class="st0" d="M165.4,71.4c1.7-0.7,4.2,0.3,5.4,1.7c0.8,0.9,1.2,2.2,2.3,2.8s4.4,1.1,5.4,0.3c0,0,0.6-2.8,0.9-4
			c1.1-4.5,1.9-9.1,2.3-13.7c-3.2-1.6-2.3-3.6-8.1-3.2c0.8,2.7,0.9,5.5,0.2,8.2"/>
		<path class="st7" d="M173.7,63.5c-0.1,0,0.2-0.8,0.3-2.2c0.1-2-0.1-4-0.7-5.9l-0.1-0.2h0.2c1.4-0.2,2.9-0.1,4.3,0.4
			c0.8,0.3,1.4,0.8,2,1.4c0.6,0.6,1.3,1,2,1.4l0.2,0.1v0.2c-0.3,2.4-0.6,5.1-1,7.8c-0.3,1.8-0.7,3.5-1.1,5.2s-0.8,3.2-1.1,4.7v0.1
			l-0.1,0.1c-0.5,0.3-1.1,0.4-1.7,0.4c-0.5,0-1.1,0-1.6-0.1c-0.5-0.1-1-0.2-1.5-0.3c-0.5-0.1-0.9-0.4-1.3-0.7
			c-0.6-0.7-1.1-1.4-1.5-2.1c-0.4-0.6-1-1.1-1.6-1.4c-0.9-0.6-1.9-0.9-2.9-0.9c-0.4,0-0.7,0.1-1.1,0.2c0.3-0.2,0.7-0.3,1.1-0.3
			c1.1,0,2.1,0.2,3,0.8c0.7,0.4,1.2,0.9,1.7,1.5c0.4,0.7,1,1.4,1.5,2c0.8,0.5,1.7,0.9,2.6,0.9c0.5,0.1,1,0.1,1.5,0.1
			c0.5,0,1-0.1,1.4-0.3l-0.1,0.1c0.3-1.5,0.7-3.1,1.1-4.8s0.8-3.4,1.1-5.1c0.5-2.7,0.8-5.4,1-7.8l0.1,0.2c-0.8-0.4-1.5-0.9-2.2-1.5
			c-0.5-0.6-1.1-1-1.8-1.4c-1.3-0.4-2.7-0.6-4.1-0.4l0.2-0.2c0.6,2,0.8,4,0.6,6.1c-0.1,0.6-0.2,1.1-0.3,1.6
			C173.8,63.1,173.8,63.3,173.7,63.5z"/>
		<path class="st7" d="M207.8,157.9c0,0,0-0.4,0-1.1c-0.1-1.1-0.4-2.2-1-3.1c-0.9-1.5-2.2-2.7-3.7-3.6c-2-1.1-4.3-1.7-6.6-1.8
			c-2.5-0.2-5.4-0.1-8.4-0.3c-3.2-0.2-6.4-0.9-9.5-2c-3.4-1.3-6.3-3.5-8.5-6.4c-1.1-1.5-2-3.3-2.4-5.1c-0.5-1.9-0.7-3.9-0.6-5.8
			c0.1-4,1.1-7.7,1.6-11.4c0.5-3.5,0.9-7,1-10.6c0.3-10.1-1.2-20.1-4.3-29.7c-0.4-1.4-0.8-2.4-1.1-3.1c-0.1-0.3-0.2-0.6-0.3-0.8
			c0-0.1-0.1-0.2-0.1-0.3c0,0,0.1,0.1,0.1,0.3s0.2,0.5,0.3,0.8c0.3,0.7,0.7,1.7,1.2,3.1c1.3,3.8,2.4,7.8,3.1,11.8
			c1.1,5.9,1.6,12,1.4,18c-0.1,3.6-0.4,7.1-1,10.6c-0.5,3.7-1.4,7.4-1.6,11.3c-0.3,3.8,0.7,7.5,2.9,10.6c2.1,2.8,5,5,8.3,6.2
			c3,1.1,6.1,1.8,9.3,2c3,0.2,5.8,0.1,8.4,0.4c2.4,0.1,4.7,0.8,6.7,2c1.5,0.9,2.8,2.2,3.7,3.7c0.6,1,0.9,2.1,0.9,3.2
			c0,0.3,0,0.6,0,0.9C207.9,157.8,207.8,157.9,207.8,157.9z"/>
		<path class="st7" d="M192.9,139.7c-0.3,0.4-0.7,0.8-1.1,1.2c-0.4,0.4-0.9,0.8-1.4,1.3s-1.2,1.1-2,1.6c-1.8,1.4-3.6,2.7-5.5,3.8
			c-4.7,2.8-9.8,5-15.2,6.4c-2.2,0.6-4.4,1-6.6,1.2c-0.9,0.1-1.8,0.2-2.6,0.3s-1.4,0.1-1.9,0.1c-0.6,0-1.1,0-1.7,0
			c0.5-0.1,1.1-0.2,1.6-0.2c0.5,0,1.2-0.1,1.9-0.2s1.6-0.2,2.6-0.3c2.2-0.3,4.4-0.8,6.5-1.4c2.6-0.7,5.2-1.6,7.7-2.6
			c2.5-1.1,4.9-2.3,7.3-3.7c1.9-1.1,3.8-2.4,5.6-3.7c0.8-0.6,1.4-1.1,2-1.6s1.1-0.9,1.5-1.2C192,140.3,192.4,140,192.9,139.7z"/>
		<path class="st7" d="M186.4,106.9c0,0.2,0,0.4-0.1,0.6L186,109c-0.2,0.8-0.4,1.6-0.7,2.4c-0.3,0.9-0.6,2-1.1,3.2
			c-0.2,0.6-0.5,1.2-0.7,1.8s-0.6,1.3-0.9,1.9c-0.6,1.4-1.3,2.7-2.1,4.2c-3.5,6.2-8.1,11.8-13.7,16.3c-1.3,1-2.5,2-3.7,2.8
			c-0.6,0.4-1.2,0.8-1.8,1.2l-1.7,1c-1,0.7-2.1,1.1-2.9,1.6c-0.7,0.4-1.5,0.8-2.3,1.1l-1.5,0.6c-0.2,0.1-0.3,0.1-0.5,0.2
			c0.2-0.1,0.3-0.2,0.5-0.3l1.4-0.7c0.6-0.3,1.4-0.7,2.2-1.1s1.9-1,2.9-1.7l1.6-1c0.6-0.4,1.1-0.8,1.7-1.2c1.2-0.8,2.4-1.8,3.7-2.8
			c2.7-2.3,5.2-4.8,7.5-7.5c2.2-2.7,4.3-5.6,6.1-8.7c0.8-1.4,1.6-2.8,2.1-4.1c0.3-0.7,0.6-1.3,0.9-1.9l0.7-1.8
			c0.5-1.1,0.8-2.2,1.1-3.1s0.6-1.7,0.8-2.4l0.4-1.5C186.3,107.2,186.4,107,186.4,106.9z"/>
		<path class="st7" d="M144.3,173.3c-0.7-0.3-1.3-0.8-1.8-1.4c-2.7-2.6-4.2-6.2-4.2-9.9c0-0.8,0.1-1.5,0.3-2.2c0.1,0,0,0.9,0.1,2.2
			c0.2,3.6,1.6,7,4.1,9.7C143.6,172.7,144.4,173.2,144.3,173.3z"/>
		<path class="st7" d="M143.5,165.5c0.1,0-0.1,1.3,0,2.9s0.6,2.8,0.5,2.9C142.9,169.5,142.7,167.3,143.5,165.5L143.5,165.5z"/>
		<path class="st7" d="M133.7,129.7c-0.1-0.1-0.1-0.3-0.1-0.5c-0.1-0.4-0.1-0.8-0.2-1.4c-0.2-1.3-0.5-3-0.8-5
			c-0.7-4.2-1.7-10.1-2.9-16.5s-2.4-12.2-3.2-16.5c-0.4-2-0.8-3.7-1-5c-0.1-0.5-0.2-1-0.3-1.4c0-0.2-0.1-0.3-0.1-0.5
			c0.1,0.1,0.1,0.3,0.2,0.5c0.1,0.4,0.2,0.8,0.4,1.3c0.3,1.2,0.7,2.9,1.2,4.9c1,4.2,2.2,10,3.4,16.4s2.1,12.3,2.7,16.5
			c0.3,2.1,0.5,3.9,0.7,5c0.1,0.6,0.1,1,0.1,1.4C133.7,129.3,133.7,129.5,133.7,129.7z"/>
		<path class="st7" d="M197.7,129.7c0-0.2,0-0.3,0-0.5c0-0.4,0-0.9,0-1.4c0-1.2,0-3,0-5.2c0-4.4,0.2-10.5,0.8-17.2
			s1.2-12.8,1.7-17.1c0.3-2.1,0.5-3.9,0.7-5.2c0.1-0.6,0.1-1,0.2-1.4c0-0.2,0-0.3,0.1-0.5c0,0.2,0,0.3,0,0.5c0,0.4-0.1,0.9-0.1,1.4
			c-0.1,1.3-0.3,3.1-0.5,5.2c-0.4,4.4-1,10.4-1.5,17.1s-0.8,12.8-0.9,17.2c-0.1,2.1-0.1,3.9-0.1,5.2l0,1.4
			C197.8,129.3,197.7,129.5,197.7,129.7z"/>
		<path class="st7" d="M117.7,132.2c-0.2,0.1-1.5-3.6-4-7.5s-5.6-6.4-5.4-6.6c0.7,0.4,1.4,1,2,1.6c1.5,1.4,2.8,3,3.9,4.7
			c1.1,1.7,2,3.5,2.8,5.4C117.3,130.6,117.6,131.4,117.7,132.2z"/>
		<path class="st7" d="M119.4,127.9c-0.4-0.6-0.8-1.3-1.1-2c-0.9-1.5-2.1-2.9-3.5-4c-1.4-1.1-2.9-2.1-4.6-2.8c-0.7-0.3-1.4-0.6-2-1
			c0.8,0.1,1.5,0.3,2.2,0.6c1.7,0.7,3.3,1.6,4.8,2.7c1.4,1.2,2.6,2.6,3.4,4.3C119,126.4,119.3,127.1,119.4,127.9z"/>
		<path class="st9" d="M129.7,103.9c0,0-0.1,0.2-0.2,0.4c-0.2,0.4-0.5,0.8-0.9,1.1c-1.4,1.1-3.2,1.6-4.9,1.3
			c-2.6-0.5-4.8-2.1-6.2-4.4c-0.8-1.3-1.5-2.6-2-4c-0.3-0.7-0.6-1.5-0.8-2.2c-0.3-0.8-0.4-1.7-0.3-2.5c0.1-0.9,0.5-1.7,1.2-2.3
			c0.7-0.5,1.6-0.7,2.5-0.4c1.5,0.4,2.8,1.6,3.3,3.1c0.5,1.4,0.3,2.9-0.4,4.1c-0.7,1.1-1.7,1.8-2.9,2.2c-1,0.3-2,0.2-3-0.1
			c-0.7-0.3-1.3-0.7-1.9-1.3c-0.3-0.3-0.6-0.7-0.8-1.2c-0.1-0.3-0.2-0.5-0.1-0.5c0.3,0.5,0.6,1.1,1.1,1.5c0.5,0.5,1.1,0.9,1.8,1.1
			c0.9,0.3,1.9,0.3,2.8,0.1c1.1-0.4,2-1.1,2.6-2.1c0.7-1.1,0.8-2.5,0.3-3.7c-0.5-1.4-1.6-2.4-3-2.8c-0.7-0.2-1.4-0.1-2,0.4
			c-0.6,0.5-0.9,1.2-1,1.9c-0.2,1.6,0.5,3.1,1,4.5c0.5,1.4,1.2,2.7,2,4c1.3,2.2,3.4,3.7,5.8,4.3c1.7,0.3,3.4-0.1,4.7-1.1
			C129,104.9,129.4,104.4,129.7,103.9z"/>
		<path class="st9" d="M169.1,119.2l-0.3,0.2c-0.2,0.2-0.5,0.4-0.8,0.6c-1.1,0.8-2.2,1.5-3.4,2.2c-0.9,0.4-1.8,0.8-2.8,0.9
			c-1.2,0.2-2.4,0.1-3.5-0.2c-2.7-1.1-4.9-3-6.3-5.6c-3.9-6.6-3.9-14.8,0.2-21.2c1.1-1.9,2.7-3.4,4.7-4.4c1.1-0.5,2.2-0.6,3.4-0.4
			c1.2,0.2,2.3,0.8,3,1.7c0.7,1,1.1,2.2,0.9,3.4c-0.1,1.2-0.5,2.4-1.1,3.4c-1.3,2.1-3.3,3.7-5.6,4.5c-2.3,0.8-4.7,1.1-7.1,0.7
			c-2.3-0.4-4.5-1.3-6.4-2.7c-3.5-2.7-6.2-6.4-7.6-10.6c-0.8-1.9-1.1-4-0.9-6.1c0.2-1,0.6-2,1.2-2.8c0.6-0.8,1.5-1.4,2.4-1.6
			c1.9-0.3,3.8,0.3,5,1.7c1.1,1.3,1.6,3.1,1.2,4.8c-0.3,1.5-1,2.9-2.1,4c-1,1-2.1,1.7-3.4,2.2c-2,0.8-4.2,1.1-6.4,1
			c-1.3-0.1-2.7-0.2-4-0.4l-1.1-0.2l-0.4-0.1h0.4l1.1,0.1c0.9,0.1,2.3,0.3,4,0.3c2.1,0.1,4.3-0.2,6.2-1c1.2-0.5,2.3-1.2,3.2-2.2
			c1-1.1,1.7-2.4,1.9-3.9c0.3-1.6-0.1-3.2-1.1-4.5c-1.2-1.3-2.9-1.9-4.6-1.6c-1.8,0.5-3.1,2.1-3.2,4c-0.2,2,0.1,4,0.9,5.8
			c1.4,4.1,4,7.7,7.4,10.4c1.8,1.3,4,2.2,6.2,2.6c2.3,0.4,4.7,0.1,6.9-0.7c2.2-0.8,4.1-2.3,5.3-4.3c0.6-1,0.9-2.1,1-3.2
			c0.1-1.1-0.2-2.2-0.8-3.1c-0.7-0.8-1.6-1.4-2.7-1.5c-1-0.2-2.1,0-3.1,0.4c-1.9,0.9-3.4,2.4-4.5,4.2c-2.1,3.3-3.2,7.2-3.1,11.1
			c0.1,3.4,1,6.8,2.8,9.7c1.3,2.5,3.5,4.4,6.1,5.5c2,0.6,4.2,0.4,6.1-0.6c1.2-0.6,2.4-1.3,3.5-2.1l0.9-0.6
			C168.8,119.3,168.9,119.3,169.1,119.2z"/>
		<path class="st9" d="M141.5,63.1c-0.1,0.3-0.2,0.6-0.3,0.9c-0.4,0.8-0.8,1.5-1.3,2.2c-3.3,4.8-9,7.5-14.8,7.1
			c-0.9-0.1-1.7-0.2-2.6-0.4c-0.3-0.1-0.6-0.2-0.9-0.3c0-0.1,1.3,0.3,3.5,0.4c5.7,0.2,11.1-2.4,14.5-6.9
			C140.9,64.3,141.4,63,141.5,63.1z"/>
		<path class="st9" d="M156.2,67.3c-1,0.3-2,0.8-2.8,1.4c-0.8,0.7-1.4,1.6-1.8,2.6c-0.1,0-0.1-0.4,0.1-1c0.6-1.6,1.9-2.7,3.5-3
			C155.9,67.2,156.2,67.3,156.2,67.3z"/>
		<path class="st9" d="M177.4,73.2c-0.3-0.1-0.6-0.2-0.9-0.4c-0.7-0.5-1.4-1-1.9-1.7c-0.8-1-1.3-2.3-1.4-3.5
			c-0.1-0.8,0.2-1.6,0.6-2.2c0.5-0.8,1.4-1.2,2.3-1c0.9,0.2,1.6,0.9,1.8,1.8c0.3,0.8,0.1,1.7-0.5,2.3c-0.9,1.1-2.3,1.5-3.6,1
			c-0.8-0.3-1.5-0.9-2-1.6c-0.2-0.3-0.3-0.5-0.4-0.9c0,0,0.2,0.3,0.5,0.7c0.5,0.6,1.2,1.1,1.9,1.4c1.1,0.4,2.4,0,3.1-0.9
			c0.4-0.5,0.6-1.2,0.4-1.8c-0.2-0.7-0.8-1.2-1.4-1.4c-0.7-0.1-1.4,0.2-1.8,0.8c-0.4,0.6-0.6,1.2-0.5,1.9c0.1,1.2,0.5,2.4,1.2,3.4
			C175.6,71.8,176.4,72.6,177.4,73.2z"/>
		<path class="st9" d="M181.4,61.6c-1-0.9-2.1-1.7-3.3-2.3c-1.3-0.4-2.6-0.7-4-0.7c0-0.1,0.4-0.2,1.2-0.3c1-0.1,2.1,0.1,3,0.5
			c0.9,0.4,1.8,1,2.5,1.7C181.2,61.1,181.4,61.5,181.4,61.6z"/>
		<path class="st9" d="M208.9,73.2c0,0-0.1,0.1-0.2,0.1l-0.6,0.3c-0.5,0.3-1.3,0.6-2.4,1c-3,1.1-6.2,1.7-9.4,1.8
			c-1.1,0-2.1-0.1-3.2-0.3c-1.2-0.2-2.2-0.8-3.1-1.5c-1-0.9-1.5-2.1-1.5-3.4c0-1.4,0.5-2.7,1.3-3.8c2.1-2.2,5.2-2.9,8-2
			c3,0.8,5.4,3.2,6.4,6.2c0.9,3,0.2,6.3-1.9,8.7c-2,2.1-4.6,3.5-7.4,4c-2.5,0.5-5,0.7-7.6,0.8c-2.2,0-4.4,0.3-6.6,0.6
			c-3.1,0.5-6,2.1-8.1,4.6c-0.7,0.9-1.2,2-1.5,3.1c0-0.1,0-0.2,0-0.2c0-0.1,0.1-0.4,0.2-0.7c0.3-0.8,0.7-1.6,1.2-2.3
			c2-2.6,4.9-4.3,8.1-4.8c2.2-0.4,4.4-0.7,6.6-0.7c2.5,0,5-0.3,7.5-0.8c2.7-0.5,5.2-1.9,7.1-3.9c2-2.2,2.6-5.3,1.8-8.2
			c-0.9-2.8-3.1-5-6-5.8c-2.6-0.9-5.5-0.1-7.5,1.9c-0.8,1-1.2,2.2-1.2,3.4c0,1.2,0.5,2.3,1.4,3.1c0.9,0.7,1.9,1.2,3,1.5
			c1,0.2,2.1,0.3,3.1,0.3c3.2,0,6.3-0.6,9.4-1.6c1.1-0.4,1.9-0.7,2.4-0.9C208.3,73.4,208.6,73.3,208.9,73.2z"/>
		<path class="st9" d="M183.9,112.5c-0.1,0-0.4-0.8-1.4-2c-2.4-3.1-6.4-4.6-10.2-3.8c-1.4,0.3-2.3,0.7-2.3,0.6
			c0.7-0.5,1.4-0.8,2.2-1c4-1,8.3,0.6,10.6,4C183.4,110.9,183.7,111.6,183.9,112.5z"/>
		<path class="st9" d="M195.6,120c-0.3,0.8-0.8,1.5-1.4,2c-2.9,3-7.6,3.4-11,0.9c-0.7-0.4-1.3-1.1-1.7-1.8c0.1-0.1,0.6,0.7,1.9,1.5
			c1.6,1,3.5,1.5,5.4,1.4c1.9-0.2,3.7-1,5.1-2.2C195.1,120.8,195.5,120,195.6,120z"/>
		<path class="st9" d="M198.6,100.1c0,0.1-0.6-0.3-1.7-0.6c-2.8-0.8-5.8,0.2-7.7,2.4c-0.7,0.9-1,1.5-1.1,1.5
			c0.1-0.6,0.4-1.2,0.8-1.7c1.8-2.6,5.1-3.6,8.1-2.6C197.6,99.4,198.2,99.7,198.6,100.1z"/>
		<path class="st9" d="M235.9,90.9c0.1,0.2,0.1,0.5,0.2,0.7c0.1,0.3,0.1,0.6,0.1,0.9c0,0.4,0,0.8,0,1.3c-0.1,2.7-1.1,5.3-2.9,7.4
			c-1.2,1.5-2.6,2.7-4.3,3.6c-1.9,1-4.1,1.5-6.2,1.4c-5-0.1-9.7-2.4-12.9-6.4c-0.8-1-1.4-2.2-1.8-3.5c-0.4-1.2-0.3-2.6,0.1-3.8
			c0.4-1.2,1.2-2.2,2.3-2.9c1.1-0.5,2.3-0.7,3.5-0.4c1.1,0.2,2.2,0.8,3,1.6c0.7,0.8,1.3,1.7,1.6,2.7c0.6,1.8,0.5,3.8,0,5.6
			c-0.5,1.5-1.3,2.9-2.4,4c-0.8,0.8-1.7,1.6-2.8,2.1c-0.6,0.3-1.3,0.6-2,0.8c-0.2,0.1-0.5,0.1-0.8,0.1c0.9-0.3,1.8-0.7,2.7-1.1
			c2.3-1.3,4-3.5,4.9-6c0.6-1.7,0.6-3.6,0-5.3c-0.3-0.9-0.8-1.8-1.5-2.5c-0.8-0.7-1.7-1.2-2.7-1.4c-1.1-0.2-2.2-0.1-3.2,0.4
			c-1,0.6-1.8,1.5-2.1,2.6c-0.4,1.1-0.4,2.4,0,3.5c0.4,1.2,0.9,2.3,1.7,3.3c3,3.8,7.6,6.1,12.4,6.2c4,0.1,7.8-1.6,10.3-4.7
			c1.7-2,2.7-4.6,3-7.2C236.1,92.9,236,91.9,235.9,90.9z"/>
		<path class="st9" d="M243.6,111.6c-0.2-0.2-0.4-0.4-0.6-0.7c-0.5-0.7-0.9-1.4-1.1-2.3c-0.3-1.2-0.4-2.5-0.1-3.7
			c0.2-1.5,0.6-3,1-4.4c0.9-2.6,2.1-5.1,3.6-7.4c0.6-0.9,1-1.6,1.4-2.1c0.2-0.3,0.4-0.5,0.6-0.7c-0.5,1-1,2-1.6,3
			c-1.4,2.3-2.5,4.8-3.4,7.3c-0.4,1.4-0.7,2.9-1,4.3c-0.2,1.2-0.2,2.4,0,3.6C242.6,109.7,243,110.7,243.6,111.6z"/>
		<path class="st9" d="M262.5,88.6c0.1,0.2,0.2,0.5,0.3,0.7c0.2,0.7,0.4,1.4,0.5,2.1c0.8,4.7-0.3,9.5-3,13.4
			c-0.4,0.6-0.8,1.1-1.3,1.6c-0.3,0.4-0.5,0.6-0.6,0.5c0,0,0.7-0.9,1.6-2.4c1.2-1.9,2.1-4.1,2.6-6.3c0.5-2.2,0.6-4.5,0.3-6.8
			C262.8,89.7,262.5,88.7,262.5,88.6z"/>
		<path class="st9" d="M197.1,135.4c-0.2-0.1-0.3-0.1-0.4-0.2c-0.4-0.2-0.8-0.5-1.2-0.7c-1.5-0.7-3.2-1.2-4.9-1.4
			c-2.5-0.2-5,0.2-7.3,1.2c-1.4,0.6-2.6,1.4-3.7,2.4c-0.6,0.5-1.1,1.1-1.4,1.8c-0.4,0.7-0.6,1.4-0.5,2.2c0.1,0.7,0.5,1.4,1.1,1.9
			c0.6,0.4,1.4,0.4,2,0.1c1.3-0.7,2-2.1,1.9-3.5c-0.1-2.5-1.5-4.8-3.7-6c-1.5-0.8-3.2-1-4.9-0.6c-0.6,0.2-1.2,0.3-1.8,0.6
			c0.1-0.1,0.3-0.2,0.4-0.3c0.4-0.2,0.9-0.4,1.3-0.5c1.7-0.5,3.5-0.3,5.1,0.5c2.4,1.2,3.9,3.7,4,6.3c0,0.8-0.1,1.5-0.4,2.3
			c-0.3,0.8-0.9,1.4-1.7,1.7c-0.8,0.4-1.8,0.3-2.5-0.1c-0.7-0.5-1.2-1.3-1.3-2.2c-0.1-0.9,0.1-1.8,0.6-2.5c0.4-0.7,0.9-1.4,1.5-1.9
			c1.1-1.1,2.4-1.9,3.8-2.5c2.4-1,5-1.4,7.6-1.1c1.7,0.2,3.4,0.7,4.9,1.6c0.4,0.2,0.8,0.5,1.2,0.8
			C197,135.3,197.1,135.4,197.1,135.4z"/>
		<path class="st9" d="M200.7,143.7c-0.2,0.8-0.7,1.6-1.2,2.3c-0.8,1.2-1.5,2.1-1.6,2c0.2-0.8,0.7-1.6,1.2-2.3
			C199.9,144.5,200.6,143.6,200.7,143.7z"/>
		<path class="st9" d="M213.4,158c-0.1,0-0.2-0.4-0.6-0.9c-0.9-1.4-2.4-2.2-4.1-2.3c-0.6,0-1,0.1-1,0s0.4-0.3,1-0.3
			c1.8-0.1,3.6,0.8,4.4,2.4C213.5,157.5,213.5,158,213.4,158z"/>
		<path class="st9" d="M172.1,152.9c0,0.1-1.2,0.7-3.1,1.8c-2.5,1.4-4.8,3.1-6.8,5.2c-1.9,2.1-3.2,4.8-3.6,7.6
			c-0.1,1.2-0.1,2.4,0.1,3.6c-0.1-0.3-0.2-0.6-0.3-0.9c-0.2-0.9-0.2-1.8-0.1-2.7c0.3-3,1.6-5.7,3.6-7.9c2-2.2,4.4-3.9,7-5.2
			c1-0.5,1.8-0.9,2.4-1.1C171.5,153,171.8,152.9,172.1,152.9z"/>
		<path class="st9" d="M186.8,157.8c0,0-0.6-0.3-1.1-1.2c-1.3-2.4-1.1-5.3,0.6-7.5c0.3-0.4,0.8-0.8,1.3-1c0.1,0.1-0.4,0.4-1,1.2
			c-1.4,2.1-1.7,4.8-0.6,7.1C186.5,157.2,186.9,157.7,186.8,157.8z"/>
		<path class="st9" d="M163.9,139.6c0,0-0.2-0.2-0.6-0.6c-0.6-0.5-1.3-0.8-2.1-0.9c-1.2-0.2-2.4,0.1-3.5,0.7
			c-1.4,0.9-2.5,2.1-3.3,3.5c-1,1.5-1.8,3.4-3.1,5.1c-1.3,1.9-3.3,3.4-5.5,4.1c-2.5,0.8-5.2,0.7-7.6-0.4c-2.6-1.2-4.6-3.3-5.6-5.9
			c-0.5-1.3-0.6-2.8-0.2-4.2c0.5-1.3,1.4-2.5,2.6-3.2c1.1-0.7,2.5-1,3.9-0.9c1.3,0.2,2.5,0.8,3.4,1.6c1.8,1.6,2.7,3.9,2.7,6.3
			c0,2-0.7,4-1.9,5.7c-0.9,1.4-2.2,2.5-3.6,3.4c-1.1,0.6-2.2,1.1-3.4,1.5c-0.8,0.2-1.5,0.4-2.3,0.5l-0.6,0.1H133
			c0.3-0.1,0.5-0.1,0.8-0.2c0.8-0.1,1.5-0.3,2.3-0.6c1.2-0.4,2.3-0.9,3.3-1.6c1.4-0.9,2.6-2,3.5-3.4c1.1-1.6,1.7-3.5,1.7-5.5
			c0-2.3-0.9-4.4-2.6-5.9c-0.9-0.8-2-1.3-3.2-1.5c-1.2-0.1-2.5,0.2-3.5,0.8c-1.1,0.7-1.9,1.7-2.4,2.9c-0.4,1.3-0.3,2.6,0.2,3.9
			c1,2.5,2.9,4.5,5.3,5.6c2.3,1.1,4.8,1.2,7.2,0.4c2.1-0.7,4-2.1,5.3-3.9c1.2-1.7,2.1-3.5,3.1-5.1c0.9-1.4,2.1-2.7,3.5-3.6
			c1.1-0.7,2.4-0.9,3.7-0.7c0.8,0.1,1.5,0.5,2.1,1C163.5,139.1,163.7,139.4,163.9,139.6z"/>
		<path class="st9" d="M164.2,155.2c-0.6-0.3-1.2-0.7-1.6-1.3c-2.3-2.5-3.3-5.9-2.8-9.3c0.1-0.7,0.3-1.4,0.6-2c0.1,0-0.1,0.8-0.3,2
			c-0.3,3.2,0.6,6.5,2.7,9C163.6,154.7,164.2,155.2,164.2,155.2z"/>
		<path class="st9" d="M167.9,132.2c0,0-0.7-0.3-2-0.9c-4.6-1.8-9.6-2.2-14.4-1.1c-1.7,0.4-3.3,1-4.8,1.8c-0.8,0.4-1.3,1.1-1.6,1.9
			c-0.2,0.8,0.2,1.6,1,2c0.4,0.1,0.7,0,1-0.3c0.3-0.3,0.5-0.7,0.6-1.1c0.2-0.9,0.3-1.8,0.2-2.7c-0.1-1.7-0.5-3.4-1.3-4.9
			c-0.7-1.4-1.6-2.6-2.8-3.6c-1-0.9-2.2-1.5-3.5-2c-1.9-0.7-3.8-0.9-5.8-0.6c-1.4,0.2-2.1,0.5-2.1,0.5c0.2-0.1,0.3-0.2,0.5-0.2
			c2.4-0.9,5.1-0.9,7.5,0c1.3,0.4,2.6,1.1,3.6,2c1.2,1,2.3,2.3,3,3.7c0.8,1.6,1.3,3.3,1.4,5.1c0.1,0.9,0,1.9-0.2,2.8
			c-0.1,0.5-0.4,1-0.7,1.3c-0.4,0.4-1,0.6-1.6,0.4c-0.5-0.2-1-0.6-1.2-1.1c-0.2-0.5-0.3-1-0.2-1.5c0.3-1,0.9-1.8,1.8-2.2
			c1.6-0.8,3.2-1.4,4.9-1.8c2.9-0.7,5.9-0.8,8.9-0.3c2,0.3,3.9,0.9,5.7,1.7c0.5,0.2,1,0.5,1.5,0.8
			C167.7,132.1,167.9,132.2,167.9,132.2z"/>
		<path class="st9" d="M89.9,135c0,0,0.6-0.5,1.6-1.5c1.4-1.4,2.5-3.1,3.1-5c1.1-2.7,1-5.8-0.2-8.5c-0.7-1.5-1.8-2.9-3.2-3.9
			c-1.4-1.1-3.2-1.8-5-1.9c-0.9,0-1.8,0.2-2.6,0.6c-0.8,0.3-1.4,1-1.8,1.8c-0.3,0.8-0.1,1.6,0.4,2.3c0.5,0.7,1.1,1.2,1.9,1.4
			c1.5,0.4,3.1,0.1,4.3-0.7c1.1-0.7,2-1.8,2.6-3c0.8-1.8,1.2-3.8,1.2-5.7c0-0.7,0-1.2,0.1-1.6c0-0.2,0-0.4,0.1-0.6
			c0,0.2,0,0.4,0,0.6c0,0.4,0,0.9,0,1.6c0.1,2.1-0.3,4.1-1.1,6c-0.6,1.3-1.5,2.4-2.7,3.2c-1.4,1-3.1,1.3-4.7,0.8
			c-0.9-0.3-1.6-0.8-2.2-1.6c-0.6-0.8-0.7-1.8-0.4-2.8c0.4-0.9,1.1-1.7,2-2.1c0.9-0.4,1.9-0.6,2.9-0.6c1.9,0.1,3.8,0.8,5.3,2
			c1.4,1.1,2.6,2.5,3.3,4.1c0.7,1.5,1,3.1,1,4.7c0,1.4-0.3,2.8-0.8,4.1c-0.7,1.9-1.9,3.6-3.4,5c-0.4,0.4-0.8,0.7-1.3,1
			C90.1,135,89.9,135.1,89.9,135z"/>
		<path class="st9" d="M110.7,149.9c-0.3-0.2-0.6-0.5-0.8-0.8c-0.7-0.8-1.2-1.7-1.7-2.6c-3.4-6.2-2.9-13.8,1.3-19.6
			c0.6-0.8,1.3-1.6,2-2.4c0.3-0.3,0.6-0.5,0.9-0.7c0.1,0.1-1.2,1.1-2.6,3.3c-3.9,5.7-4.4,13-1.3,19.2
			C109.1,147.6,109.9,148.8,110.7,149.9z"/>
		<path class="st9" d="M130.2,128.2c-0.1,0-0.5-1.5-1.8-3.7c-3.3-5.8-9.1-9.7-15.8-10.4c-2.5-0.3-4.1-0.1-4.1-0.2
			c0.4-0.1,0.7-0.2,1.1-0.2c1-0.1,2-0.1,3,0c6.9,0.5,12.9,4.5,16.1,10.6c0.5,0.9,0.9,1.8,1.2,2.8
			C130.1,127.4,130.2,127.8,130.2,128.2z"/>
		<g class="st3">
			<path d="M157.5,156.2c-1,0.4-0.9,1.9-0.1,2.6c0.9,0.6,2,0.8,3,0.6c11.9-0.7,22.9-6.8,29.6-16.6c-9,7.4-20.9,10.2-32.3,12.8"/>
		</g>
		<g class="st3">
			<path d="M155.7,146c-1-1.5-0.3-3.6,1-4.9c1.4-1.2,2.9-2.1,4.6-2.8c5.9-2.9,10.7-7.8,13.5-13.8c1.8-3.9,3.2-8.8,7.2-10.4
				c-2.3,14.2-12.2,25.9-25.7,30.7"/>
		</g>
		<g class="st3">
			<path d="M127.4,94.1c1,10.9,0.2,22-2.3,32.7c-0.7,2.2-1,4.6-1.1,6.9c0.2,2.5,1.4,4.9,3.3,6.5c1.7-3.8,1.7-7.5,2.4-11.6
				c0.6-3.7,1.7-12.4,1.7-12.5c0.1-7.6-1.6-14.1-4.6-20.9"/>
		</g>
		<g class="st3">
			<path d="M146.2,61.3c1.5,8.1,5.5,15.5,11.3,21.2c2.2,2.1,5,4.1,8.1,4c-1.8-3.7-2.3-7.8-1.6-11.8c2.6,1.8,5.4,3.3,8.2,4.5
				c2.9,1.2,6.1,1.6,9.2,1l1.9-16.5c0.1-0.6,0.1-1.3-0.2-1.9c-0.3-0.5-0.9-0.7-1.4-0.5c-0.1,0-0.1,0.1-0.2,0.1
				c-0.2,0.2-0.3,0.5-0.3,0.7c-1.1,4.8-1.8,9.2-2.9,14.1c-0.8,0.8-3.3,0.5-4.9-0.1c-1.4-0.5-2-1.7-2.9-2.9s-0.8-1-2.2-1.6
				c-2.6-1.1-7.5-0.2-8.6,2.1c-1.1,2.3-0.3,5.4,0.5,7.6c-7.2-4.7-12.4-11.9-14.6-20.2"/>
		</g>
		<g class="st3">
			<path d="M200.7,84.7c-0.2,0.4,6.2,22.1,6.2,22.1l-8.3-4.8L200.7,84.7z"/>
		</g>
		<path class="st4" d="M149,21.9v34.5c0,2,0.7,3.9,2,5.4l0,0c1.9,2.3,4.3,4.3,6.9,5.7l7,3.9l5.8-5.2c1.7-1.5,2.7-3.6,2.8-5.9
			c0.1-2.5,0.1-5,0.1-5s9.8-0.7,10.7-10.3c0.4-4.5,0.6-13.8,0.6-22.4c0.1-9.8-7.5-18.1-17.3-18.8h-0.3c-9.9-0.2-18.1,7.6-18.3,17.5
			C149,21.5,149,21.7,149,21.9z"/>
		<path class="st5" d="M173.5,55.3c-4.4-0.4-8.7-2-12.2-4.8c0,0,2.5,7.3,12.2,7.2L173.5,55.3z"/>
		<path class="st7" d="M181.9,28.8c-0.1,0.7-0.7,1.3-1.4,1.3c-0.7,0-1.3-0.6-1.3-1.3c0,0,0,0,0,0c0.1-0.7,0.7-1.3,1.4-1.3
			C181.3,27.4,181.9,28,181.9,28.8C181.9,28.8,181.9,28.8,181.9,28.8z"/>
		<path class="st7" d="M182.3,26.5c-0.2,0.2-1.2-0.7-2.6-0.8s-2.6,0.5-2.8,0.3s0.1-0.4,0.6-0.7c0.7-0.4,1.5-0.6,2.2-0.5
			c0.8,0.1,1.5,0.4,2.1,0.9C182.2,26.1,182.4,26.4,182.3,26.5z"/>
		<path class="st7" d="M167.9,28.1c-0.1,0.7-0.7,1.3-1.4,1.3c-0.7,0-1.3-0.6-1.3-1.3c0,0,0,0,0,0c0.1-0.7,0.7-1.3,1.4-1.3
			C167.3,26.7,167.9,27.3,167.9,28.1C167.9,28.1,167.9,28.1,167.9,28.1z"/>
		<path class="st7" d="M167.7,25.6c-0.2,0.2-1.2-0.7-2.6-0.8s-2.6,0.5-2.8,0.3s0.1-0.4,0.6-0.7c0.7-0.4,1.5-0.6,2.2-0.5
			c0.8,0.1,1.5,0.4,2.1,0.9C167.7,25.2,167.8,25.5,167.7,25.6z"/>
		<path class="st7" d="M172.2,37c0.8-0.2,1.6-0.3,2.4-0.2c0.4,0,0.8,0,0.8-0.3c0.1-0.4,0-0.8-0.2-1.1c-0.3-1-0.6-1.9-0.9-3
			c-1.2-4.2-2-7.7-1.9-7.7s1.3,3.3,2.5,7.6c0.3,1,0.6,2,0.8,3c0.2,0.5,0.2,1,0.1,1.5c-0.1,0.3-0.4,0.4-0.7,0.5c-0.2,0-0.4,0-0.6,0
			C173.8,37.2,173,37.1,172.2,37z"/>
		<path class="st7" d="M167.7,37.7c0.2,0,0.1,1.6,1.4,2.9s3,1.2,3,1.4s-0.4,0.3-1.1,0.2c-0.9-0.1-1.8-0.5-2.5-1.1
			c-0.7-0.6-1-1.5-1.1-2.4C167.4,38,167.6,37.6,167.7,37.7z"/>
		<path class="st7" d="M168.6,19.8c-0.2,0.4-1.6,0.1-3.4,0.1s-3.2,0.4-3.4,0c-0.1-0.2,0.2-0.5,0.8-0.9c1.6-0.8,3.5-0.9,5.2-0.1
			C168.4,19.3,168.6,19.6,168.6,19.8z"/>
		<path class="st7" d="M182.1,22.2c-0.3,0.3-1.3-0.1-2.5-0.2s-2.3,0-2.5-0.3c-0.1-0.2,0.1-0.5,0.6-0.8c1.3-0.7,2.9-0.5,4,0.5
			C182.1,21.7,182.2,22,182.1,22.2z"/>
		<path class="st7" d="M160.3,12.1L160.3,12.1c-1.7,1.1-2.9,2.8-3.3,4.7v0.2c-0.6,2.7-0.8,5.5-1.4,8.2s-0.5,4.8-3.2,5.4
			c-1.5,0.3-3-0.3-3.8-1.5c-0.2-0.4-0.3-0.8-0.3-1.3c0-6.7-1.3-9.3-0.7-16.2c0.2-1.9,1.2-3.6,2.8-4.6c1.5-0.9,3.4-1.9,5-1
			s3.4,4.1,4.5,5.5"/>
		<path class="st4" d="M151.9,26.5c-0.1-0.1-6.4-2.5-6.8,4.1s6.4,5.6,6.4,5.4S151.9,26.5,151.9,26.5z"/>
		<path class="st5" d="M149.6,33.3c0,0-0.1,0.1-0.3,0.2c-0.3,0.1-0.6,0.1-0.9,0c-0.8-0.6-1.3-1.6-1.2-2.6c0-0.6,0.2-1.1,0.4-1.6
			c0.1-0.4,0.5-0.7,0.9-0.8c0.3-0.1,0.6,0.1,0.7,0.3c0.1,0.2,0,0.3,0.1,0.3s0.1-0.1,0.1-0.4c0-0.2-0.1-0.3-0.2-0.4
			c-0.2-0.1-0.4-0.2-0.6-0.2c-0.6,0.1-1,0.5-1.3,1c-0.3,0.6-0.5,1.2-0.5,1.8c-0.1,1.2,0.5,2.4,1.5,2.9c0.4,0.1,0.7,0.1,1.1-0.1
			C149.5,33.5,149.6,33.4,149.6,33.3z"/>
		<path class="st7" d="M155.1,7.1c-1.4-2.8,3.4-6.2,6.7-6.9s7.5,1.2,10.6,2.5c2,0.8,3.9,2,6.1,2c1.4,0,2.9-0.3,4.3-0.7
			c1.4-0.4,2.8-0.6,4.3-0.5c1.5,0.2,2.8,1.1,3.3,2.5c0.4,1.3-0.3,2.7-1.6,3.1c-0.1,0-0.3,0.1-0.4,0.1c1.6-0.7,3.6,0,4.3,1.6
			c0.7,1.6,0,3.6-1.6,4.3c-0.7,0.3-1.5,0.4-2.3,0.1c1-0.6,2.3,0.7,2.1,1.8c-0.4,1.1-1.3,2-2.5,2.3c-2.9,1-6,0.3-8.8-0.9
			s-5.3-2.9-8-4.2s-7.3-3.5-10.2-2.7c-2.1,0.6-3.8,3-4.9,2.3c-1.1-0.7-1.7-1.8-1.8-3.1C154.6,9.6,154.7,8.3,155.1,7.1"/>
		<path class="st8" d="M189.2,9.1c0,0-0.4,0.5-1.1,1.2c-1.1,1-2.4,1.7-3.9,2.1c-2.1,0.6-4.4,0.3-6.3-0.8c-2.1-1.2-3.9-3.3-5.9-5.4
			c-1.9-2.1-4.4-3.5-7.1-4.2c-2.3-0.5-4.7,0.1-6.5,1.7c-1.2,1.1-1.8,2.6-1.8,4.1c0,0.4,0.1,0.8,0.2,1.2c0,0.1,0.1,0.3,0.2,0.4
			c-0.1-0.5-0.1-1.1-0.1-1.6c0.1-1.5,0.8-2.8,1.9-3.8c1.7-1.4,3.9-1.9,6.1-1.4c2.6,0.6,5,2,6.8,4c2,2,3.8,4.2,6.1,5.5
			c3.5,1.8,7.8,1.2,10.6-1.6c0.3-0.3,0.6-0.6,0.8-1C189.1,9.3,189.2,9.2,189.2,9.1z"/>
		<path class="st8" d="M150.2,26c0,0,0.3-0.2,0.6-0.7c0.4-0.7,0.6-1.5,0.5-2.4c0-2.1-1.7-4.6-1.7-7.5c-0.1-1.4,0.3-2.7,1.1-3.9
			c0.6-0.9,1.6-1.6,2.6-1.9c0.7-0.2,1.5-0.3,2.2-0.1c0.5,0.1,0.8,0.3,0.8,0.2s-0.2-0.3-0.8-0.5c-0.8-0.3-1.6-0.3-2.4-0.1
			c-1.2,0.3-2.3,1-3,2c-0.9,1.2-1.3,2.7-1.2,4.2c0.1,1.5,0.4,2.9,0.9,4.2c0.5,1,0.8,2.2,0.9,3.3C151,24.1,150.7,25.1,150.2,26z"/>
	</g>
	<g id="freepik--Lines--inject-79">
		<path class="st0" d="M177.4,216.8h-1.5l-4.4,0.1c-3.8,0.1-9.5,0.2-16.8,0.6s-16.2,1-26.5,2.2c-5.1,0.6-10.6,1.3-16.4,2.3
			s-11.9,2.1-18.2,3.5s-13,3.2-19.7,5.4c-7,2.2-13.9,5.1-20.4,8.4c-3.4,1.8-6.7,3.9-9.8,6.3c-3.2,2.4-5.9,5.4-8,8.8
			c-0.2,0.4-0.5,0.9-0.7,1.3l-0.6,1.4l-0.3,0.7c-0.1,0.2-0.1,0.5-0.2,0.7l-0.3,1.5c-0.3,2-0.2,4.1,0.3,6.1c1,4,3.7,7.5,6.7,10.5
			c6.3,5.9,14.2,10,22.5,13.4c8.5,3.4,17.3,6.2,26.3,8.3c18.8,4.4,38,7.2,57.3,8.4c19.3,1.3,38.7,1.4,58,0.2c18-1,35.9-3.3,53.6-7
			c8.2-1.7,16.3-3.9,24.3-6.5c7.5-2.4,14.8-5.6,21.7-9.5c3.2-1.9,6.3-4.1,9.2-6.5c2.8-2.3,5-5.2,6.6-8.4l0.5-1.2
			c0.2-0.4,0.3-0.8,0.4-1.2l0.3-1.3c0-0.2,0.1-0.4,0.2-0.6v-0.6c0.2-1.7,0.1-3.4-0.4-5c-0.5-1.6-1.2-3.1-2.1-4.5
			c-0.9-1.4-2-2.6-3.1-3.8c-2.2-2.2-4.7-4.3-7.3-6c-2.5-1.7-5.1-3.2-7.8-4.6c-4.9-2.6-9.9-4.8-15.1-6.7c-8.3-3.1-16.8-5.7-25.4-7.8
			c-7.1-1.8-12.6-2.9-16.4-3.6c-1.9-0.4-3.3-0.6-4.3-0.8l-1.5-0.3c0,0,2,0.3,5.8,1s9.3,1.8,16.4,3.5c8.6,2.1,17.1,4.7,25.4,7.7
			c5.2,1.9,10.3,4.2,15.2,6.7c2.7,1.4,5.3,2.9,7.8,4.6c2.7,1.8,5.1,3.8,7.4,6.1c1.2,1.2,2.2,2.5,3.1,3.9c0.9,1.4,1.7,3,2.2,4.6
			c0.5,1.7,0.6,3.5,0.4,5.2l0,0.7c0,0.2-0.1,0.4-0.2,0.6l-0.3,1.3c-0.1,0.4-0.2,0.9-0.4,1.3l-0.5,1.2c-1.6,3.3-3.9,6.2-6.7,8.6
			c-2.9,2.5-5.9,4.7-9.2,6.6c-6.9,3.9-14.2,7.1-21.8,9.5c-8,2.6-16.1,4.8-24.3,6.6c-17.7,3.7-35.6,6-53.6,7
			c-19.3,1.2-38.7,1.1-58.1-0.2c-19.3-1.2-38.6-4-57.4-8.5c-9-2.1-17.8-4.9-26.3-8.3c-8.3-3.5-16.3-7.6-22.7-13.5
			c-3.1-3-5.8-6.5-6.8-10.7c-0.5-2.1-0.6-4.2-0.3-6.3l0.4-1.5c0.1-0.3,0.1-0.5,0.2-0.8l0.3-0.7l0.6-1.4c0.2-0.5,0.5-0.9,0.8-1.4
			c2.1-3.5,4.9-6.5,8.2-8.9c3.1-2.4,6.4-4.5,9.9-6.3c6.6-3.4,13.5-6.2,20.5-8.4c6.8-2.2,13.4-3.9,19.8-5.4s12.5-2.6,18.3-3.5
			s11.3-1.6,16.4-2.2c10.3-1.1,19.2-1.8,26.5-2.1s12.9-0.4,16.8-0.5L177.4,216.8L177.4,216.8z"/>
		<path class="st0" d="M95.6,141c0,0-0.6,0.1-1.7,0.4s-2.8,0.5-4.9,1c-4.3,0.9-10.7,2.3-18.8,4.5c-9.9,2.6-19.5,6.1-28.8,10.2
			c-2.7,1.2-5.5,2.6-8.3,4.2c-2.9,1.6-5.6,3.4-8.3,5.3c-2.8,2-5.4,4.4-7.7,7c-2.4,2.7-4.2,6-5.2,9.5c-1,3.7-0.7,7.7,0.8,11.2
			c1.6,3.7,4,7,6.9,9.7c5.9,5.7,13.4,10,21.4,13.7c16.1,7.3,34.5,12.2,54,15.9c20.5,3.7,41.2,6,62,6.8c22.3,1,44.7,0.6,67-1.2
			c22.9-1.9,45.1-5.3,66.1-10.8c10.3-2.6,20.3-6.1,30.1-10.3c4.7-2.1,9.2-4.5,13.5-7.2c4.3-2.6,8.1-5.9,11.5-9.7
			c3.2-3.7,5.5-8.3,5.7-13.1c0-0.6,0-1.2-0.1-1.8c0-0.6-0.1-1.2-0.2-1.8l-0.4-1.7c-0.2-0.6-0.3-1.1-0.6-1.7c-0.9-2.2-2-4.3-3.4-6.1
			c-2.9-3.6-6.3-6.8-10.2-9.4c-3.7-2.5-7.6-4.8-11.6-6.8c-7.7-3.7-15.6-6.8-23.8-9.3c-7.8-2.4-15.5-4.4-22.8-6
			c-23.3-4.9-46.9-7.9-70.6-9c-8.4-0.4-14.9-0.4-19.4-0.6l-5-0.1l-1.7-0.1c0,0,0.6,0,1.7,0l5,0.1c4.4,0.1,11,0.1,19.4,0.5
			c23.8,1,47.4,4,70.7,8.9c7.4,1.6,15,3.6,22.9,6c8.2,2.5,16.2,5.6,23.9,9.3c4.1,2,8,4.2,11.7,6.7c3.9,2.6,7.3,5.8,10.2,9.4
			c1.5,1.9,2.6,4,3.5,6.2c0.2,0.6,0.4,1.1,0.6,1.7l0.4,1.8c0.1,0.6,0.2,1.2,0.2,1.8c0.1,0.6,0.1,1.2,0.1,1.8
			c-0.1,2.5-0.7,4.9-1.7,7.2c-1,2.3-2.4,4.4-4,6.3c-3.4,3.8-7.3,7.1-11.6,9.8c-4.4,2.8-8.9,5.2-13.6,7.3
			c-9.8,4.3-19.8,7.7-30.2,10.4c-21,5.5-43.2,8.9-66.1,10.8c-22.3,1.8-44.7,2.2-67,1.2c-20.8-0.9-41.5-3.2-62-6.9
			c-19.6-3.7-38-8.6-54.1-16c-8-3.7-15.6-8-21.5-13.8c-3-2.8-5.4-6.1-7-9.8c-1.5-3.6-1.8-7.6-0.8-11.4c1-3.6,2.8-6.9,5.3-9.6
			c2.3-2.6,4.9-5,7.7-7.1c2.7-1.9,5.4-3.7,8.3-5.3c2.8-1.6,5.6-2.9,8.3-4.2c9.4-4.1,19-7.5,28.9-10.1c8.1-2.2,14.5-3.6,18.9-4.4
			S95.6,141,95.6,141z"/>
		<path class="st0" d="M130.7,291.9l-5,0.8c-3.3,0.5-8.1,1.4-14.2,2.7c-7.5,1.6-14.8,3.7-22,6.2c-4.5,1.6-8.9,3.5-13.1,5.7
			c-2.3,1.2-4.5,2.6-6.6,4.1c-2.2,1.6-4.3,3.4-6.1,5.4c-0.9,1.1-1.7,2.2-2.4,3.5c-0.7,1.2-1.2,2.6-1.5,4c-0.1,0.4-0.1,0.7-0.2,1.1
			l-0.1,1.1c0,0.7,0.1,1.5,0.2,2.2c0.2,0.7,0.3,1.5,0.6,2.2l0.4,1l0.2,0.5l0.3,0.5c1.5,2.7,3.6,5.1,6,7.1c2.5,2.1,5.2,3.9,8.1,5.4
			c6,3.2,12.3,5.9,18.9,7.9c6.9,2.2,13.9,4,21,5.4c15.3,3,30.7,4.8,46.3,5.5c16.7,0.8,33.4,0.5,50-0.9c17.1-1.5,33.7-4.1,49.3-8.5
			c7.7-2.1,15.1-4.9,22.2-8.5c3.4-1.7,6.7-3.8,9.6-6.2c0.8-0.6,1.4-1.3,2.1-1.9c0.7-0.6,1.3-1.4,1.9-2.1c1.2-1.4,2.1-3,2.8-4.8
			c1.4-3.4,1.2-7.3-0.4-10.5c-1.7-3.1-4.1-5.8-6.9-8c-5.5-4.4-11.8-7.3-17.9-9.8c-5.9-2.3-12-4.3-18.2-5.8
			c-5.9-1.5-11.7-2.7-17.2-3.7c-17.5-3-35.2-4.6-53-4.9l-19.5-0.1c0,0,6.9-0.1,19.5,0c17.8,0.2,35.5,1.8,53,4.8
			c5.5,1,11.3,2.2,17.3,3.7c6.2,1.6,12.3,3.5,18.3,5.9c6.1,2.5,12.4,5.4,18,9.8c2.9,2.2,5.3,4.9,7,8.1c1.7,3.4,1.9,7.3,0.5,10.8
			c-0.7,1.7-1.7,3.4-2.9,4.8c-0.7,0.7-1.2,1.4-1.9,2.1s-1.4,1.3-2.1,1.9c-3,2.4-6.3,4.5-9.7,6.3c-7.1,3.5-14.6,6.4-22.2,8.5
			c-16.1,4.4-32.7,7.2-49.3,8.5c-16.6,1.4-33.4,1.7-50.1,0.9c-15.5-0.7-31-2.6-46.3-5.5c-7.1-1.4-14.1-3.2-21-5.4
			c-6.5-2-12.9-4.7-18.9-7.9c-2.9-1.5-5.6-3.4-8.1-5.5c-2.5-2-4.5-4.4-6.1-7.1l-0.3-0.5l-0.2-0.5L60,331c-0.3-0.7-0.4-1.5-0.6-2.2
			s-0.2-1.5-0.2-2.3l0.1-1.1c0-0.4,0.1-0.7,0.2-1.1c0.3-1.4,0.8-2.8,1.5-4.1c0.7-1.3,1.5-2.4,2.4-3.5c1.8-2.1,3.9-3.9,6.1-5.5
			c2.1-1.5,4.4-2.9,6.7-4.1c4.2-2.2,8.6-4.1,13-5.7c7.2-2.5,14.6-4.6,22.1-6.2c6.1-1.3,11-2.1,14.2-2.6S130.7,291.9,130.7,291.9z"/>
		<path class="st0" d="M261.3,383.3c-0.1-1.3-0.3-2.5-0.8-3.6c-0.9-2.3-3.4-5.1-7.3-7.7c-7.9-5.2-21-9.5-37.5-12.2
			c-9-1.4-18.1-2.3-27.2-2.7c-10.5-0.4-21-0.2-31.4,0.6c-5.5,0.4-11.2,1.1-16.9,2c-5.9,0.9-11.6,2.1-17.4,3.7
			c-2.9,0.8-5.8,1.7-8.7,2.7c-2.9,1-5.7,2.3-8.5,3.7c-2.8,1.4-5.4,3.2-7.7,5.3c-2.3,2.1-4.1,5-4.2,8.2s1.9,6.1,4.2,8.2
			c2.3,2.1,4.8,3.9,7.6,5.3c2.7,1.4,5.6,2.7,8.5,3.7c2.9,1.1,5.8,2,8.7,2.8c5.7,1.5,11.5,2.8,17.4,3.7c5.7,0.9,11.4,1.5,16.9,2
			c10.5,0.8,21,1,31.5,0.6c9.2-0.4,18.3-1.3,27.3-2.7c16.5-2.7,29.7-7,37.5-12.2c3.9-2.6,6.4-5.4,7.3-7.7
			C260.9,385.8,261.2,384.6,261.3,383.3c0,0.1,0,0.4-0.1,0.9c0,0.4-0.1,0.8-0.2,1.2c-0.1,0.5-0.3,1-0.5,1.5
			c-0.9,2.3-3.4,5.2-7.3,7.8c-7.9,5.2-21,9.6-37.5,12.2c-9,1.4-18.2,2.3-27.3,2.7c-10.5,0.4-21,0.3-31.5-0.6
			c-5.5-0.4-11.2-1.1-16.9-2c-5.9-0.9-11.7-2.1-17.4-3.7c-2.9-0.8-5.8-1.7-8.7-2.8c-2.9-1-5.8-2.3-8.5-3.7c-2.8-1.4-5.4-3.2-7.7-5.4
			c-1.2-1.1-2.2-2.4-2.9-3.8c-1.7-2.8-1.7-6.4,0-9.2c0.8-1.4,1.8-2.7,3-3.7c2.3-2.1,4.9-3.9,7.7-5.4c2.8-1.4,5.6-2.7,8.5-3.7
			c2.9-1.1,5.8-2,8.7-2.8c5.7-1.5,11.5-2.8,17.4-3.7c5.7-0.9,11.4-1.5,16.9-2c10.5-0.8,21-1,31.5-0.6c9.1,0.3,18.3,1.2,27.3,2.7
			c16.5,2.7,29.7,7,37.5,12.2c3.9,2.6,6.4,5.5,7.3,7.8c0.2,0.5,0.4,1,0.5,1.5c0.1,0.4,0.2,0.8,0.2,1.2
			C261.2,382.9,261.3,383.2,261.3,383.3z"/>
		<path class="st0" d="M40.4,228.2c0,1.8-1.4,3.2-3.2,3.2c-1.8,0-3.2-1.4-3.2-3.2c0-1.8,1.4-3.2,3.2-3.2
			C38.9,225,40.4,226.5,40.4,228.2C40.4,228.2,40.4,228.2,40.4,228.2z"/>
		<circle class="st0" cx="325.9" cy="230.4" r="3.2"/>
		<path class="st0" d="M198.9,348c0,1.8-1.4,3.2-3.2,3.2c-1.8,0-3.2-1.4-3.2-3.2c0-1.8,1.4-3.2,3.2-3.2c0,0,0,0,0,0
			C197.4,344.9,198.9,346.3,198.9,348L198.9,348z"/>
		<path class="st0" d="M101.9,266c0,0.9-0.7,1.6-1.6,1.6c-0.9,0-1.6-0.7-1.6-1.6c0-0.9,0.7-1.6,1.6-1.6S101.9,265.1,101.9,266
			L101.9,266z"/>
		<path class="st0" d="M300.4,304.7c0,0.9-0.7,1.6-1.6,1.6c-0.9,0-1.6-0.7-1.6-1.6c0-0.9,0.7-1.6,1.6-1.6c0,0,0,0,0,0
			C299.7,303.1,300.4,303.8,300.4,304.7z"/>
		<path class="st0" d="M174.4,378.5c0,0.9-0.7,1.6-1.6,1.6c-0.9,0-1.6-0.7-1.6-1.6c0-0.9,0.7-1.6,1.6-1.6c0,0,0,0,0,0
			C173.6,376.9,174.4,377.6,174.4,378.5z"/>
		<circle class="st0" cx="91.1" cy="99" r="0.8"/>
	</g>
	<g id="freepik--front-screens--inject-79">
		<path class="st0" d="M235,221.9c-38.8,10.3-76.1,9.5-116.9,0l-4.8-74.5c42.1,8.2,84.3,7.1,121.6-1.8L235,221.9z"/>
		<g class="st1">
			<path class="st2" d="M235,221.9c-38.8,10.3-76.1,9.5-116.9,0l-4.8-74.5c42.1,8.2,84.3,7.1,121.6-1.8L235,221.9z"/>
		</g>
		<path class="st0" d="M229,210.5c-0.1,0.1-0.2,0.1-0.2,0.1L228,211c-0.6,0.3-1.6,0.7-2.8,1.1c-3.5,1.3-7.1,2.4-10.7,3.4
			c-12,3-24.4,4.4-36.8,4.2c-12.4-0.2-24.7-1.6-36.9-3.9c-4.7-0.9-8.4-1.7-11-2.3c-1.3-0.3-2.3-0.5-3-0.7l-0.8-0.2
			c-0.2,0-0.3-0.1-0.2-0.1h0.3l0.8,0.1l3,0.6c2.6,0.5,6.4,1.3,11,2.1c12.1,2.3,24.5,3.5,36.8,3.8c12.4,0.2,24.7-1.1,36.7-4
			c4.6-1.2,8.2-2.3,10.8-3.2c1.3-0.4,2.2-0.8,2.9-1l0.8-0.3C228.8,210.6,228.9,210.5,229,210.5z"/>
		<path class="st0" d="M172,213.6c-4.9,1.3-10.1,1.2-14.9-0.5v-26.5c4.9-1,10-1,14.9,0V213.6z"/>
		<path class="st0" d="M196.1,212c0-0.1,0-0.1,0-0.2c0-0.1,0-0.3,0-0.6c0-0.5,0-1.3-0.1-2.2c0-2-0.1-4.7-0.2-8.2
			c-0.1-7-0.2-16.9-0.4-28.3l0.2,0.2c-5.1-1-10.3-1-15.4,0l0.2-0.2v0.5c0.2,15.7,0.3,29.8,0.4,39.9l-0.1-0.2
			c2.1,0.5,4.3,0.7,6.5,0.8c1.6,0,3.3-0.1,4.9-0.4c1-0.2,2-0.5,3-0.8l0.8-0.3C196,212,196.1,212,196.1,212l-0.2,0.1l-0.8,0.3
			c-1,0.4-2,0.7-3,0.9c-1.6,0.3-3.3,0.5-5,0.5c-2.2,0-4.4-0.3-6.6-0.7h-0.1v-0.2c-0.1-10.1-0.4-24.2-0.6-39.9v-0.8h0.2
			c5.2-1,10.5-1,15.6,0l0.2,0.1v0.2c0.1,11.5,0.2,21.4,0.2,28.4c0,3.5,0,6.2,0,8.2c0,0.9,0,1.6,0,2.2c0,0.2,0,0.4,0,0.6
			S196.1,212,196.1,212z"/>
		<path class="st0" d="M219.1,208.9c-4,2.2-9.2,2.5-14.9,2.1v-43.8c4.9-1.2,10-1.2,14.9,0V208.9z"/>
		<path class="st0" d="M148.4,211.4c0,0,0-0.4-0.1-1.1s0-1.8-0.1-3.1c0-2.7-0.1-6.4-0.1-10.7l0.1,0.2c-4.6-1.8-9.5-2.7-14.4-2.4l0,0
			l0.2-0.3c0,5.5,0,10.6,0,14.9l-0.1-0.2c1.9,0.8,3.8,1.3,5.8,1.6c1.8,0.3,3.3,0.5,4.6,0.6l3,0.2
			C147.7,211.3,148.1,211.3,148.4,211.4c-0.3,0-0.6,0-1,0c-0.7,0-1.7,0-3-0.1s-2.9-0.2-4.6-0.5c-2-0.3-4-0.8-5.9-1.6l-0.1-0.1v-0.1
			c0-4.4,0-9.5,0-14.9v-0.2h0.3c5-0.3,10,0.6,14.6,2.5l0.1,0.1v0.2c0,4.4-0.1,8.2-0.1,10.9c0,1.2,0,2.2-0.1,3
			C148.5,210.7,148.5,211.1,148.4,211.4z"/>
		<path class="st0" d="M155.4,172.7c-1,0.2-1.9,0.2-2.9,0.2c-1.8,0-4.3,0-7.1-0.2s-5.2-0.4-7-0.7c-1-0.1-1.9-0.3-2.9-0.5
			c1,0,1.9,0,2.9,0.2c1.8,0.1,4.3,0.3,7,0.5s5.2,0.3,7,0.3C153.4,172.5,154.4,172.5,155.4,172.7z"/>
		<path class="st0" d="M153.1,175.9c-0.9,0.1-1.7,0.1-2.6,0c-1.6-0.1-3.8-0.2-6.2-0.4s-4.6-0.4-6.2-0.6c-0.9,0-1.7-0.2-2.5-0.4
			c0.9-0.1,1.7-0.1,2.6,0c1.6,0.1,3.8,0.2,6.2,0.4s4.6,0.4,6.1,0.6C151.4,175.6,152.3,175.7,153.1,175.9z"/>
		<path class="st0" d="M158.6,180.2c0,0,0-0.3,0-0.9s0.1-1.5,0.1-2.6c0.1-2.3,0.2-5.4,0.4-9.4l0.2,0.2c-9.2,0.1-18.5-0.4-27.6-1.5
			l0.3-0.2l0,0v0.4v0.4l-0.1,0.8c0,0.6-0.1,1.1-0.1,1.7c-0.1,1.1-0.1,2.2-0.2,3.3c-0.1,2.1-0.2,4.2-0.4,6.2l-0.2-0.3
			c8,1,14.9,1.4,19.8,1.6l5.7,0.2l1.5,0.1L158.6,180.2c-0.1,0-0.3,0-0.5-0.1c-0.3,0-0.9,0-1.6,0.1c-1.3,0-3.3,0-5.7,0
			c-4.9-0.1-11.8-0.5-19.8-1.4h-0.2v-0.2c0.1-2,0.2-4.1,0.4-6.2c0.1-1.1,0.1-2.2,0.2-3.3l0.1-1.7v-0.8v-0.4v-0.4l0,0l0.3-0.2
			c9.2,1.1,18.4,1.7,27.7,1.7h0.2v0.2c-0.3,3.9-0.5,7.2-0.6,9.4c-0.1,1.1-0.1,1.9-0.2,2.5C158.7,179.6,158.7,179.9,158.6,180.2z"/>
		<path class="st0" d="M162,185.8c-0.8-0.8-1.4-1.7-1.9-2.7c-0.7-0.9-1.2-1.9-1.5-2.9c0.8,0.8,1.4,1.7,1.9,2.7
			C161.2,183.7,161.7,184.7,162,185.8z"/>
		<path class="st0" d="M0,88.9l12.7,76.7c0,0,19.3,36.2,70.8,44.4l-8.3-68.4C75.1,141.5,27.6,126.8,0,88.9z"/>
		<g class="st1">
			<path class="st2" d="M0,88.9l12.7,76.7c0,0,19.3,36.2,70.8,44.4l-8.3-68.4C75.1,141.5,27.6,126.8,0,88.9z"/>
		</g>
		<path class="st0" d="M76.8,204.5l-0.3-0.1l-1-0.3l-3.6-1.1c-1.6-0.5-3.5-1-5.7-1.9l-3.5-1.3c-1.2-0.5-2.6-1-3.9-1.6
			c-2.7-1.2-5.6-2.5-8.7-4.2s-6.2-3.5-9.5-5.6c-7.1-4.6-13.5-10.2-19.1-16.6c-2.6-3-4.9-6.2-6.9-9.6l0,0l0,0l-5.8-37.5
			c-0.7-4.7-1.3-8.4-1.7-11.1l-0.4-3l-0.1-0.8c0-0.1,0-0.2,0-0.3c0,0.1,0.1,0.2,0.1,0.3l0.2,0.8l0.5,3c0.4,2.6,1,6.4,1.8,11
			c1.5,9.4,3.6,22.5,6,37.5V162c1.9,3.4,4.2,6.6,6.8,9.5c5.6,6.3,12,11.9,19,16.5c3.3,2.1,6.4,4.1,9.4,5.6s5.9,3,8.6,4.2
			c1.3,0.6,2.6,1.2,3.9,1.6l3.5,1.4c2.1,0.9,4.1,1.4,5.6,2l3.6,1.2l0.9,0.3C76.6,204.4,76.7,204.4,76.8,204.5z"/>
		<path class="st0" d="M72.3,182.2c0,0,0,0.1-0.2,0.2l-0.6,0.4l-2.1,1.7l-8.1,6.2l-0.1,0.1l-0.1-0.1c-2.7-3.8-6.1-8.4-9.9-13.7
			l0.3,0.1l-7.6,5.4l-0.2,0.2l-0.1-0.3c-3-8-6.3-17-9.8-26.5l-1.4-3.8h0.5l-6.2,12.2l-0.3,0.5l-0.2-0.6
			c-5.4-15.5-9.9-28.6-12.9-37.1h0.3c-0.8,3.4-1.4,6.1-1.9,8c-0.2,0.9-0.4,1.6-0.5,2.1l-0.1,0.5c0,0.1,0,0.1-0.1,0.2v-0.2
			c0-0.1,0.1-0.3,0.1-0.5l0.4-2.1c0.4-1.9,1-4.6,1.8-8l0.1-0.5l0.2,0.5c3,8.5,7.6,21.6,13.1,37.1h-0.5l6.2-12.2l0.3-0.5l0.2,0.6
			l1.4,3.8c3.5,9.5,6.8,18.5,9.7,26.5l-0.4-0.1l7.6-5.4l0.2-0.1l0.1,0.2l9.8,13.7h-0.2l8.2-6.1l2.2-1.6l0.6-0.4L72.3,182.2z"/>
		<path class="st0" d="M70.5,145.4c-0.4,0-0.7-0.1-1.1-0.2c-0.7-0.2-1.7-0.5-2.9-0.9c-3.1-1-6.2-2.3-9.2-3.6c-3-1.4-6-2.9-8.8-4.5
			c-1.1-0.6-2-1.2-2.6-1.6c-0.3-0.2-0.6-0.4-0.9-0.6c0.4,0.1,0.7,0.3,1,0.5l2.6,1.4c2.2,1.2,5.3,2.8,8.9,4.4s6.8,2.9,9.1,3.8
			c1.1,0.4,2,0.8,2.8,1C69.9,145.1,70.2,145.2,70.5,145.4z"/>
		<path class="st0" d="M72.5,148.6c-0.8,0-1.7-0.2-2.5-0.4c-2-0.5-3.9-1.1-5.8-1.7c-1.9-0.7-3.8-1.5-5.6-2.4
			c-0.8-0.3-1.5-0.7-2.2-1.2c0.8,0.2,1.6,0.5,2.4,0.9c1.4,0.6,3.4,1.4,5.6,2.2s4.3,1.4,5.8,1.9C71,148,71.8,148.3,72.5,148.6z"/>
		<path class="st0" d="M52.3,177c0,0.6-0.4,1.1-0.9,1.1s-0.9-0.5-0.9-1.1s0.4-1.1,0.9-1.1S52.3,176.3,52.3,177z"/>
		<ellipse class="st0" cx="32.6" cy="152.7" rx="0.9" ry="1.1"/>
		<path class="st0" d="M14.5,127.4c0,0.6-0.4,1.1-0.9,1.1s-0.9-0.5-0.9-1.1s0.4-1.1,0.9-1.1S14.5,126.8,14.5,127.4z"/>
		<path class="st0" d="M335.4,102.5l-6.3,77.9c0,0-18.6,33.3-69.7,34.6l6.3-78.4C265.7,136.6,310.2,134.8,335.4,102.5z"/>
		<path class="st0" d="M334.4,98.5c-1.7-5.4-5.7-13.1-15.3-14.7l-11.3,104.8c0,0,21.3-4.2,21.9-15.9c0-1,4.3-53.1,5.4-66
			C335.3,103.9,335.1,101.1,334.4,98.5z"/>
		<g class="st1">
			<path class="st2" d="M335.4,102.5l-6.3,77.9c0,0-18.6,33.3-69.7,34.6l6.3-78.4C265.7,136.6,310.2,134.8,335.4,102.5z"/>
		</g>
		<path class="st0" d="M333.8,122.4c-5.1,7.4-7.9,16.2-8.1,25.2c0,2.6,0.1,5.3-0.9,7.6c-1,2.4-3.5,4.4-6,3.7s-3.8-3.8-6-5.2
			c-2.1-1.2-4.8-1.1-6.8,0.1c-2,1.3-3.6,3.2-4.5,5.5c-1.9,4.3-2,9.1-3.3,13.5c-1.3,4.4-4.7,8.9-9.4,9.1c-1.7,0.1-3.4-0.4-5.1-0.4
			c-3.6,0.1-6.7,2.8-8.4,6c-1.7,3.2-2.2,6.8-2.7,10.4c0,0,27.2,2.6,57.8-33.5L333.8,122.4z"/>
		<path class="st0" d="M290.5,169.6c0,1-0.5,1.8-1.1,1.8c-0.6,0-1.1-0.8-1.1-1.8s0.5-1.8,1.1-1.8
			C290.1,167.9,290.5,168.7,290.5,169.6z"/>
		<path class="st0" d="M303.4,137.2c0,1-0.5,1.8-1.1,1.8c-0.6,0-1.1-0.8-1.1-1.8s0.5-1.8,1.1-1.8
			C302.9,135.5,303.4,136.3,303.4,137.2z"/>
		<path class="st0" d="M333.2,126.1c0,0.2-0.1,0.3-0.2,0.4l-0.6,1.3c-0.5,1.1-1.3,2.7-2.2,4.8l-8.1,16.9l-0.1,0.2l-0.2-0.1
			l-19.2-12.2l0.4-0.1c-0.2,0.6-0.5,1.3-0.8,2l-12.4,30.4l-0.1,0.2l-0.2-0.1c-4.8-2.7-8.7-4.9-11.4-6.4c-1.4-0.7-2.4-1.3-3.2-1.7
			l-0.8-0.4l-0.3-0.1c1.5,0.5,3,1.2,4.4,2c2.8,1.4,6.7,3.5,11.5,6.2l-0.3,0.1l12.3-30.5c0.3-0.7,0.5-1.3,0.8-2l0.1-0.3l0.3,0.2
			l19.2,12.2l-0.3,0.1c3.4-6.9,6.3-12.7,8.3-16.8l2.4-4.7l0.6-1.2C333.1,126.4,333.1,126.3,333.2,126.1z"/>
	</g>
</g>
</svg>
