<?xml version="1.0" encoding="utf-8"?>
<!-- Generator: Adobe Illustrator 22.0.1, SVG Export Plug-In . SVG Version: 6.00 Build 0)  -->
<svg version="1.1" id="Layer_1" xmlns="http://www.w3.org/2000/svg" xmlns:xlink="http://www.w3.org/1999/xlink" x="0px" y="0px"
	 viewBox="0 0 432.9 298.6" style="enable-background:new 0 0 432.9 298.6;" xml:space="preserve">
<style type="text/css">
	.st0{fill:#EBEBEB;}
	.st1{fill:#E0E0E0;}
	.st2{fill:#FFFFFF;}
	.st3{fill:#F5F5F5;}
	.st4{fill:#263238;}
	.st5{fill:#EEF9FF;}
	.st6{fill:#FFBE9D;}
	.st7{fill:#EB996E;}
	.st8{fill:#FAFAFA;}
</style>
<g>
	<g id="freepik--background-complete--inject-85">
		<path class="st0" d="M68.8,286c13.8-11.3,15.6-30.4,13.7-47.2c-0.3-2.8-0.3-5.8-1.8-8.2s-4.9-3.8-7.3-2.4c-2,1.2-2.8,3.7-3.8,5.8
			c-1.4,2.8-3.5,5.2-6.2,6.9c-1.7,1.1-3.9,1.8-5.8,1c-2.6-1.1-3.1-4.5-3.3-7.3c-0.4-5.2-0.8-10.4-1.2-15.7c-0.1-2.8-0.6-5.6-1.5-8.2
			c-1.1-2.6-3.2-4.9-6-5.4s-6,1.3-6.3,4.1c0,1.2,0.1,2.3,0.2,3.5c0.1,1.2-0.5,2.3-1.5,2.9c-1.1,0.4-2.3-0.3-3.2-1
			c-3.2-2.6-5.5-6.1-7.6-9.5s-4.3-7-7.2-9.9s-6.8-5-10.9-4.9s-8.2,3-8.9,7s2,7.9,4.8,10.8c4.2,4.4,9,8.2,14.2,11.2
			c1,0.4,1.8,1.2,2.4,2.2c0.8,1.8-0.9,3.8-2.7,4.6c-2.1,0.9-4.4,0.8-6.6,1.3s-4.5,1.6-5.2,3.7c-0.9,3,1.8,5.8,4.3,7.5
			c5.1,3.5,10.8,6.2,16.8,7.8c2.2,0.6,4.4,1.1,6.2,2.4s3,3.7,2.2,5.8c-0.8,2.1-3.4,2.9-5.6,2.7c-2.2-0.2-4.3-1.2-6.4-1.8
			c-4-1.1-9-0.5-11.3,3.1c-1.4,2.4-1.5,5.4-0.3,7.9c1.2,2.5,2.8,4.7,4.9,6.6c6.8,6.8,15.3,11.7,24.6,14.2
			C51.7,289.9,60.1,290,68.8,286"/>
		<path class="st1" d="M70,298.5c-1.4-7.8-3.6-15.4-6.5-22.7c-3.6-9-7.7-17.7-12.3-26.2l-3.6-6.7c-1.2-2.2-2.3-4.4-3.6-6.4
			c-2.5-3.9-5.1-7.8-8-11.4c-2.7-3.5-5.5-6.8-8-9.8s-5-5.8-7.4-8.2c-3.7-3.8-7.7-7.4-11.9-10.6c-1.5-1.1-2.7-2-3.5-2.5l-0.9-0.6
			c-0.1-0.1-0.2-0.1-0.3-0.2c0,0,0.1,0.1,0.3,0.2l0.9,0.7c0.8,0.6,2,1.4,3.5,2.6c4.2,3.2,8.1,6.8,11.8,10.6c2.3,2.4,4.8,5.2,7.3,8.2
			s5.3,6.2,8,9.8c2.9,3.6,5.5,7.4,8,11.4c1.3,2,2.4,4.2,3.6,6.4l3.6,6.7c4.6,8.5,8.7,17.2,12.3,26.1c2.9,7.3,5.1,14.9,6.6,22.6"/>
		<path class="st1" d="M43.9,236.5c0.1-0.4,0.1-0.8,0.2-1.2c0.1-0.8,0.2-1.9,0.2-3.3c0.2-2.8,0.3-6.7,0.4-11s0.3-8.2,0.5-11
			c0.1-1.4,0.2-2.5,0.3-3.3c0.1-0.4,0.1-0.8,0.1-1.2c-0.1,0.4-0.2,0.8-0.2,1.2c-0.1,0.8-0.3,1.9-0.4,3.3c-0.3,2.8-0.5,6.7-0.6,11
			s-0.2,8.1-0.2,11c-0.1,1.4-0.1,2.5-0.1,3.3C43.8,235.6,43.8,236.1,43.9,236.5z"/>
		<path class="st1" d="M6.9,232.8h0.4h1.1c0.9,0,2.3,0,4,0c3.4,0.1,8,0.3,13.1,0.9s9.7,1.2,13.1,1.8c1.7,0.3,3,0.5,3.9,0.7l1.1,0.2
			c0.2,0,0.4,0.1,0.4,0c-0.1-0.1-0.2-0.1-0.4-0.1l-1.1-0.3c-0.9-0.2-2.2-0.5-3.9-0.9c-3.3-0.7-7.9-1.4-13.1-1.9s-9.8-0.7-13.2-0.7
			c-1.7,0-3,0-4,0.1l-1.1,0.1C7.1,232.7,7,232.7,6.9,232.8z"/>
		<path class="st1" d="M63.1,275.2c0.1-0.2,0.1-0.3,0.2-0.5c0.1-0.3,0.3-0.8,0.5-1.3c0.4-1.2,1-2.9,1.7-5c1.4-4.3,3.2-10.2,5.1-16.8
			c1.9-6.6,3.6-12.6,4.9-16.9c0.7-2.1,1.2-3.8,1.6-5.1c0.2-0.6,0.3-1,0.4-1.4c0.1-0.2,0.1-0.3,0.1-0.5c-0.1,0.1-0.2,0.3-0.2,0.5
			c-0.1,0.4-0.3,0.8-0.5,1.4c-0.4,1.2-1,2.9-1.7,5c-1.4,4.3-3.2,10.2-5.1,16.8c-1.9,6.6-3.6,12.6-4.9,16.9c-0.7,2.1-1.2,3.8-1.6,5.1
			c-0.2,0.6-0.3,1-0.4,1.4C63.1,274.9,63.1,275,63.1,275.2z"/>
		<path class="st1" d="M13.3,263.8c0.2,0.1,0.3,0.1,0.5,0.1l1.5,0.3l5.3,1.2c4.5,1,10.7,2.5,17.6,4.2s13.1,3.1,17.6,4.1
			c2.3,0.5,4.1,0.9,5.4,1.1l1.5,0.3c0.2,0,0.3,0.1,0.5,0.1c-0.2-0.1-0.3-0.1-0.5-0.2l-1.4-0.3l-5.3-1.2c-4.5-1-10.7-2.5-17.5-4.2
			s-13.1-3.1-17.6-4.1c-2.3-0.5-4.1-0.8-5.4-1.1l-1.5-0.3C13.7,263.8,13.5,263.8,13.3,263.8z"/>
		
			<rect x="133.6" y="10.1" transform="matrix(0.9576 -0.288 0.288 0.9576 -2.969 50.8685)" class="st2" width="75.5" height="50.9"/>
		<path class="st1" d="M214.9,49c0,0-0.1-0.3-0.3-0.9s-0.4-1.5-0.8-2.6c-0.7-2.3-1.7-5.6-3-9.8c-2.6-8.5-6.3-20.6-10.8-35.4l0.3,0.1
			L128,22.3l0,0l0.2-0.3l14.6,48.7l-0.3-0.2L194.6,55l14.9-4.4l4-1.2l1-0.3L214.9,49l-0.3,0.1l-1,0.3l-3.9,1.2l-14.8,4.5L142.6,71
			l-0.2,0.1l-0.1-0.2c-4.5-14.9-9.4-31.4-14.7-48.7l-0.1-0.2l0.2-0.1l0,0l72.3-21.7l0.2-0.1l0.1,0.2c4.4,14.9,8.1,27.1,10.6,35.6
			c1.2,4.2,2.2,7.5,2.9,9.8c0.3,1.1,0.6,1.9,0.8,2.6S214.9,49,214.9,49z"/>
		<path class="st1" d="M200.2,0.3c0,0.1-0.1,0.1-0.1,0.2l-0.3,0.6c-0.3,0.6-0.8,1.4-1.3,2.4l-5.1,8.7l-16.9,28.7l-0.1,0.2l-0.2-0.1
			l-2.2-0.9l-32.6-12.7l-9.9-3.9l-2.7-1.1l-0.7-0.3c-0.1,0-0.2-0.1-0.2-0.1c0.1,0,0.2,0,0.3,0.1l0.7,0.2l2.7,1l9.9,3.8l32.6,12.6
			l2.2,0.9l-0.3,0.1c6.7-11.2,12.7-21.3,17.1-28.7l5.2-8.6c0.6-1,1.1-1.8,1.4-2.3l0.4-0.6C200.2,0.3,200.2,0.3,200.2,0.3z"/>
		<path class="st0" d="M410.6,195c0,0-4.7-4.6-13.8,7c-4.8,5.9-9.2,12-13.2,18.5c0,0-2.3,2.4-3.8,0.2s-3-7.7-6.4-7.4
			s-5.3,3.7-5.7,9.2s-1.9,17.5-2,18.6s-1,2.5-2.3,1.2s-7.8-12.3-12.8-8.9s-3.8,18.9-3.7,20.6s-0.4,2.3-1.2,2.6
			c-0.8,0.2-2.7-3.7-4.7-6.7s-4.8-6.3-7.6-4s-5.6,13.1,1.3,33.1l3.8,9l9.8,1.4c21.1,1.7,30.9-3.8,32.3-7c1.5-3.2-2.4-5.2-5.8-6.3
			c-3.5-1.2-7.7-2-7.7-2.9c0-0.8,0.5-1.5,2.2-1.8s17-3,19-8.7c2-5.7-10.2-9.3-11.8-10.2s-0.4-2.1,0.6-2.5s12.3-4.8,17.5-6.6
			s8.1-4.4,7.5-7.8s-6.3-3.4-8.8-4.3s-0.7-3.7-0.7-3.7c5.3-5.5,10.2-11.2,14.7-17.4c8.9-11.8,3.1-15.2,3.1-15.2"/>
		<path class="st1" d="M402.4,205.3c0,0.1-0.1,0.2-0.2,0.2l-0.5,0.7c-0.5,0.6-1.1,1.5-2,2.7c-1.8,2.4-4.3,5.7-7.5,9.9
			c-6.4,8.3-15.2,19.7-25.1,32.3l-25.2,32.2l-7.6,9.8l-2.1,2.7l-0.5,0.7c-0.1,0.1-0.2,0.2-0.2,0.2c0-0.1,0.1-0.2,0.2-0.2l0.5-0.7
			l2-2.7c1.7-2.3,4.3-5.7,7.5-9.9c6.4-8.3,15.2-19.7,25.1-32.3c9.9-12.6,18.7-23.9,25.2-32.2c3.2-4.1,5.8-7.4,7.6-9.8
			c0.9-1.1,1.6-2,2.1-2.7l0.6-0.7C402.3,205.4,402.3,205.3,402.4,205.3z"/>
		<path class="st1" d="M375.3,221.1c0.2,0.9,0.3,1.7,0.4,2.6c0.1,1.6,0.3,3.9,0.4,6.4s0.1,4.5,0.2,6.4c0.1,0.9,0.1,1.8,0,2.6
			c-0.2-0.9-0.3-1.7-0.4-2.6c-0.1-1.6-0.2-3.9-0.3-6.4s-0.1-4.5-0.2-6.4C375.2,222.8,375.2,221.9,375.3,221.1z"/>
		<path class="st1" d="M377,239.4c3.4-0.6,6.9-0.9,10.3-1.1c5.7-0.5,10.4-0.7,10.4-0.6c-3.4,0.5-6.9,0.9-10.3,1.1
			C381.7,239.3,377.1,239.5,377,239.4z"/>
		<path class="st1" d="M360.5,258.7c0.9,0.1,1.8,0.2,2.7,0.4c1.6,0.3,3.9,0.7,6.4,1.1s4.8,0.7,6.4,0.9c0.9,0.1,1.8,0.2,2.7,0.4
			c-0.9,0.1-1.8,0.1-2.7-0.1c-1.7-0.1-4-0.4-6.5-0.8c-2.5-0.4-4.8-0.9-6.4-1.3C362.1,259.3,361.3,259,360.5,258.7z"/>
		<path class="st1" d="M355.2,242.4c0.4,0.7,0.8,1.5,1,2.3c0.5,1.5,1.2,3.5,2,5.7s1.4,4.2,1.9,5.7c0.3,0.8,0.5,1.6,0.6,2.4
			c-0.4-0.7-0.8-1.5-1-2.3c-0.5-1.4-1.2-3.4-2-5.7s-1.4-4.2-1.9-5.7C355.5,244.1,355.3,243.3,355.2,242.4z"/>
		<path class="st1" d="M338.4,257.6c0.5,1,0.9,1.9,1.2,3c0.7,1.9,1.6,4.4,2.6,7.2c1,2.8,1.9,5.4,2.5,7.3c0.4,1,0.7,2,0.9,3.1
			c-0.5-1-0.9-2-1.2-3c-0.7-1.8-1.6-4.4-2.6-7.2c-1-2.8-1.9-5.4-2.5-7.3C338.9,259.7,338.6,258.6,338.4,257.6z"/>
		<path class="st1" d="M345.5,277.6c1.1,0.1,2.3,0.2,3.4,0.4c2.1,0.3,5,0.8,8.1,1.2c3.1,0.4,6.1,0.7,8.2,1c1.1,0.1,2.3,0.2,3.4,0.5
			c-1.1,0.1-2.3,0-3.4-0.1c-2.1-0.1-5-0.4-8.2-0.8s-6.1-0.9-8.1-1.3C347.7,278.3,346.6,278,345.5,277.6z"/>
		
			<rect x="354.8" y="107.9" transform="matrix(3.053851e-02 -0.9995 0.9995 3.053851e-02 245.4238 525.4867)" class="st3" width="77.6" height="56.7"/>
		
			<rect x="344.4" y="118.2" transform="matrix(3.053851e-02 -0.9995 0.9995 3.053851e-02 225.004 525.0528)" class="st2" width="77.6" height="56.7"/>
		<path class="st1" d="M410.3,186.2c0-0.1,0-0.3,0-0.4c0-0.3,0-0.6,0-1.1c0-1,0-2.4,0.1-4.2c0.1-3.7,0.2-9.1,0.4-15.9
			c0.4-13.6,0.9-33,1.6-55.9l0.2,0.2l-56.7-1.7l0,0l0.3-0.2c-0.9,29-1.7,55.8-2.4,77.6l-0.2-0.2l41.2,1.4l11.5,0.4l3,0.1
			L410.3,186.2h-1l-3-0.1l-11.4-0.3l-41.3-1.1h-0.2v-0.2c0.6-21.8,1.5-48.6,2.3-77.6v-0.3h0.3l56.7,1.8h0.2v0.2
			c-0.8,23-1.4,42.4-1.8,56.1c-0.2,6.8-0.4,12.2-0.5,15.9c-0.1,1.8-0.1,3.2-0.2,4.2c0,0.5,0,0.8,0,1.1S410.3,186.2,410.3,186.2z"/>
		<path class="st1" d="M390.6,124.8c0,0.1-6.2,0.1-13.8-0.2s-13.8-0.5-13.8-0.7s6.2-0.1,13.8,0.2S390.6,124.7,390.6,124.8z"/>
		<path class="st1" d="M405.2,132c0,0.1-9.5,0-21.2-0.4s-21.2-0.8-21.2-0.9s9.5,0,21.2,0.4S405.2,131.9,405.2,132z"/>
		<path class="st1" d="M405,139.1c0,0.1-9.5,0-21.2-0.4s-21.2-0.8-21.2-0.9s9.5,0,21.2,0.4S405,138.9,405,139.1z"/>
		<path class="st1" d="M404.8,146.1c0,0.1-9.5,0-21.2-0.4s-21.2-0.8-21.2-0.9s9.5,0,21.2,0.4S404.8,146,404.8,146.1z"/>
		<path class="st1" d="M404.6,153.1c0,0.1-9.5,0-21.2-0.4s-21.2-0.8-21.2-0.9s9.5,0,21.2,0.4S404.6,153,404.6,153.1z"/>
		<path class="st1" d="M404.4,160.1c0,0.1-9.5,0-21.2-0.4s-21.2-0.8-21.2-0.9s9.5,0,21.2,0.4S404.4,160,404.4,160.1z"/>
		<path class="st1" d="M404.2,167.2c0,0.1-9.5,0-21.2-0.4s-21.2-0.8-21.2-0.9s9.5,0,21.2,0.4S404.2,167,404.2,167.2z"/>
		<path class="st1" d="M384.3,173.6c0,0.1-5.1,0.1-11.4-0.1s-11.4-0.5-11.4-0.6s5.1-0.1,11.4,0.1S384.3,173.5,384.3,173.6z"/>
		
			<rect x="237.5" y="39.3" transform="matrix(0.3699 -0.9291 0.9291 0.3699 100.3463 286.5528)" class="st2" width="47.9" height="60"/>
		<path class="st1" d="M298.1,58.1l-0.3-0.1l-0.8-0.3l-3-1.2L282.7,52l-40.3-16l0.1-0.1l-17.7,44.5l0,0l-0.1-0.1l55.7,22.2h-0.1
			c5.4-13.4,9.8-24.5,12.9-32.3c1.6-3.9,2.8-6.9,3.6-9l1-2.4l0.3-0.8l-0.3,0.8c-0.2,0.5-0.5,1.3-0.9,2.4c-0.8,2.1-2,5.1-3.6,9
			c-3.1,7.8-7.5,18.9-12.9,32.4v0.1h-0.1l-55.8-22.1h-0.1v-0.1l0,0c6.4-16.1,12.5-31.3,17.7-44.5v-0.1h0.1L282.8,52l11.4,4.6l3,1.2
			l0.8,0.3L298.1,58.1z"/>
		
			<rect x="240.4" y="41.5" transform="matrix(0.3699 -0.9291 0.9291 0.3699 100.267 286.503)" class="st0" width="41.9" height="55.8"/>
		<polygon class="st1" points="227.9,78.6 255.6,61.6 260.8,81.2 271.6,76.1 279.7,99.2 		"/>
		<path class="st1" d="M272.8,65c-0.9,2.3-3.4,3.4-5.7,2.5c-2.3-0.9-3.4-3.4-2.5-5.7c0.9-2.3,3.4-3.4,5.7-2.5c0,0,0,0,0,0
			C272.6,60.2,273.7,62.7,272.8,65C272.8,65,272.8,65,272.8,65z"/>
		<path class="st1" d="M99,126.8c0.4,0.2,0.8,0.2,1.2,0.2c0.5-0.1,0.9-0.3,1.3-0.6c0.4-0.5,0.7-1.1,1.1-1.7l6.5-11.3l2.2-3.7l1.1-2
			c0.2-0.3,0.4-0.7,0.5-1c0.1-0.3,0.1-0.7,0-1.1c-0.1-0.4-0.3-0.7-0.6-0.9c-0.3-0.2-0.7-0.4-1-0.6l-2.2-1.2l-4.6-2.6L83.8,88.6
			c-0.8-0.5-1.9-0.2-2.4,0.6l-1.6,2.7c-1,1.8-2,3.5-3,5.2L71,107c-0.2,0.4-0.5,0.8-0.7,1.2c-0.2,0.3-0.3,0.7-0.3,1.1
			c0,0.4,0.2,0.8,0.4,1.1c0.3,0.3,0.6,0.5,1,0.7l4.4,2.5l7.8,4.4l11.3,6.5l3.1,1.8l0.8,0.5C99,126.8,99,126.9,99,126.8l-0.3-0.1
			l-0.8-0.4l-3.1-1.7l-11.4-6.3l-7.8-4.4l-4.4-2.4c-0.4-0.2-0.8-0.5-1.1-0.8c-0.3-0.4-0.5-0.9-0.5-1.4c0-0.5,0.1-1,0.4-1.4
			c0.2-0.4,0.4-0.8,0.7-1.2l5.7-9.9l3-5.2l1.6-2.7c0.7-1,2-1.3,3.1-0.8l20.6,11.6l4.6,2.6l2.2,1.3c0.4,0.2,0.7,0.4,1.1,0.7
			c0.3,0.3,0.6,0.7,0.7,1.1c0.1,0.4,0.1,0.9,0,1.3c-0.2,0.4-0.4,0.7-0.6,1.1l-1.2,2l-2.2,3.7c-2.8,4.7-5.1,8.6-6.6,11.2
			c-0.3,0.6-0.7,1.2-1.1,1.7c-0.4,0.4-0.9,0.6-1.4,0.6c-0.3,0-0.6,0-0.9-0.1C99.3,127,99.1,126.9,99,126.8z"/>
		<polygon class="st1" points="93.8,106.3 96.3,110.8 91.1,110.9 85.9,111 88.6,106.4 91.2,101.8 		"/>
	</g>
	<g id="freepik--Table--inject-85">
		<path class="st4" d="M432.9,297c0,0.2-95.6,0.3-213.6,0.3S5.7,297.1,5.7,297c0-0.2,95.6-0.3,213.6-0.3S432.9,296.8,432.9,297z"/>
	</g>
	<g id="freepik--Character--inject-85">
		<path class="st5" d="M111.4,233.5l-30.2-30.3l15.2-27.9c15.2-19.4,47.3-18.2,47.3-18.2c15.9-1.1,31.8-0.1,47.4,2.9
			c25.5,5,23.5,21.9,23.5,21.9l3.4,62.6l3.7,50.9l-94.2,1.9L111.4,233.5"/>
		<path class="st5" d="M162.1,294.3l-84.3,1c-15.1,0.2-27.6-12-27.7-27.1c0-4.2,0.8-8.3,2.6-12l36.1-66.9l32.9,22.2L99.2,258
			l68.3,1.2L162.1,294.3z"/>
		<path class="st5" d="M211.6,171.6l67.7,104.5l-39.5,2.6c0,0-23.6-37.2-23.1-36.4C217.7,243.7,211.6,171.6,211.6,171.6z"/>
		<path class="st4" d="M119.9,217.5c0-0.2,0-0.4,0.1-0.5c0.1-0.4,0.2-0.9,0.4-1.5c0.3-1.3,0.8-3.2,1.2-5.6s1-5.2,1.3-8.4
			c0.4-3.4,0.4-6.9,0-10.3c-0.5-3.4-1.7-6.7-3.5-9.6c-1.4-2.4-3.1-4.7-5-6.8c-1.3-1.4-2.7-2.8-4.1-4c-0.6-0.4-1.1-0.9-1.6-1.4
			c0.2,0.1,0.3,0.2,0.5,0.3c0.3,0.2,0.7,0.5,1.2,0.9c1.5,1.2,2.9,2.5,4.2,3.9c2,2.1,3.7,4.3,5.2,6.8c1.8,3,3,6.3,3.6,9.8
			c0.4,3.5,0.4,7-0.1,10.4c-0.3,2.8-0.8,5.6-1.4,8.4c-0.5,2.4-1,4.3-1.4,5.6c-0.2,0.6-0.3,1.1-0.4,1.5
			C120,217.1,120,217.3,119.9,217.5z"/>
		<path class="st4" d="M117.2,221.1c-0.1,0.5-0.3,1-0.6,1.5c-0.4,1-1,2.3-1.8,4c-1.5,3.4-3.7,8-6.2,13.1s-4.9,9.7-6.6,13
			c-0.9,1.6-1.6,3-2.1,3.9c-0.2,0.5-0.5,0.9-0.8,1.4c0.2-0.5,0.4-1,0.7-1.5c0.5-1,1.2-2.3,2-3.9l6.5-13c2.4-5.1,4.7-9.6,6.3-13.1
			c0.8-1.6,1.4-3,1.9-4C116.7,222,116.9,221.6,117.2,221.1z"/>
		<path class="st4" d="M162.1,294.3c0,0,0-0.1,0-0.2c0-0.1,0-0.3,0-0.5c0.1-0.5,0.1-1.1,0.2-2c0.2-1.8,0.5-4.3,0.8-7.5
			c0.7-6.5,1.8-15.6,3-26.3l0.2,0.3h-24.9L98,258l-13.2-0.1l-3.6,0h-0.9h-0.3c0.1,0,0.2,0,0.3,0h0.9l3.6,0l13.2-0.1l43.6-0.1h24.9
			h0.3v0.3c-1.3,10.7-2.4,19.8-3.2,26.3c-0.4,3.2-0.7,5.7-1,7.5c-0.1,0.8-0.2,1.5-0.3,2L162.1,294.3
			C162.1,294.2,162.1,294.3,162.1,294.3z"/>
		<path class="st4" d="M99.8,258.7c-0.6-0.7-1.2-1.4-1.7-2.1c-2.7-3.4-6-6.2-9.8-8.3c-0.8-0.4-1.6-0.8-2.4-1.3
			c0.9,0.2,1.7,0.5,2.5,1c3.9,1.9,7.4,4.8,9.9,8.4C99,257.1,99.4,257.9,99.8,258.7z"/>
		<path class="st4" d="M219.4,265.3c-0.1-0.3-0.1-0.6-0.1-0.9c-0.1-0.6-0.2-1.4-0.3-2.5c-0.2-2.2-0.5-5.3-0.9-9.2
			c-0.7-7.8-1.5-18.5-2.2-30.3s-1.2-22.6-1.5-30.4c-0.1-3.9-0.2-7-0.3-9.2c0-1,0-1.9-0.1-2.5c0-0.3,0-0.6,0-0.9
			c0.1,0.3,0.1,0.6,0.1,0.9c0,0.6,0.1,1.5,0.1,2.5c0.1,2.2,0.3,5.4,0.4,9.2c0.4,7.8,0.9,18.5,1.6,30.3s1.4,22.5,2,30.3
			c0.3,3.8,0.5,7,0.7,9.2c0.1,1,0.1,1.9,0.2,2.5C219.4,264.7,219.4,265,219.4,265.3z"/>
		<path class="st1" d="M144.1,208.5c0-0.5,0-0.9,0.1-1.4c0.1-1,0.3-2.2,0.5-3.8c0.4-3.3,1-7.8,1.7-13.1l0.4,0.2l-6.5,4.5l-6.6,4.6
			l-0.5,0.3l0.1-0.6c0.8-5.2,1.5-9.7,2-13c0.3-1.5,0.5-2.8,0.6-3.7c0.1-0.5,0.1-0.9,0.3-1.3c0,0.5,0,0.9-0.1,1.4
			c-0.1,0.9-0.3,2.2-0.5,3.8c-0.4,3.3-1.1,7.8-1.8,13l-0.4-0.2l6.6-4.6l6.5-4.5l0.5-0.3l-0.1,0.6c-0.8,5.2-1.4,9.7-1.9,13
			c-0.2,1.5-0.4,2.8-0.6,3.8C144.4,207.6,144.3,208,144.1,208.5z"/>
		<path class="st1" d="M181.8,212.5c-0.4-0.3-0.7-0.6-1-1c-0.6-0.7-1.5-1.6-2.6-2.8l-8.9-9.7l0.4-0.1c-0.2,2.5-0.4,5.1-0.7,7.9
			s-0.5,5.5-0.7,8l-0.1,0.6l-0.4-0.4l-8.7-9.8l-2.5-2.9c-0.3-0.3-0.6-0.7-0.8-1.1c0.4,0.3,0.7,0.6,1,1l2.6,2.8l8.8,9.7l-0.4,0.1
			c0.2-2.5,0.4-5.2,0.7-8s0.5-5.4,0.7-7.9l0.1-0.6l0.4,0.4l8.8,9.8l2.5,2.9C181.2,211.8,181.5,212.2,181.8,212.5z"/>
		<path class="st1" d="M200.7,211.2c-0.2,0.4-0.4,0.8-0.7,1.2l-2,3.2l-7.1,11.1l-0.2-0.4l7.8-1.3l7.9-1.3l0.6-0.1l-0.3,0.4
			l-7.3,10.9l-2.2,3.1c-0.2,0.4-0.5,0.7-0.8,1.1c0.2-0.4,0.4-0.8,0.7-1.2l2-3.2l7.1-11l0.2,0.4l-7.9,1.4l-7.8,1.3l-0.6,0.1l0.3-0.5
			l7.3-11l2.1-3.1C200.1,211.9,200.4,211.5,200.7,211.2z"/>
		<path class="st1" d="M175.5,230.6c-0.2,0.4-0.4,0.8-0.7,1.2l-2,3.2l-7.1,11.1l-0.2-0.4l7.8-1.3l7.9-1.3l0.6-0.1l-0.3,0.5
			l-7.3,10.9l-2.1,3.1c-0.2,0.4-0.5,0.7-0.8,1.1c0.2-0.4,0.4-0.8,0.7-1.2c0.5-0.8,1.2-1.9,2-3.2l7.1-11l0.2,0.4l-7.9,1.4l-7.8,1.3
			l-0.6,0.1l0.3-0.5l7.3-11c0.9-1.3,1.6-2.4,2.1-3.1C174.9,231.2,175.2,230.9,175.5,230.6z"/>
		<path class="st1" d="M229.9,211c-0.2,0.4-0.4,0.8-0.7,1.2l-2,3.2l-7.1,11.1l-0.2-0.4l7.8-1.3l7.9-1.3l0.6-0.1l-0.3,0.5l-7.3,10.9
			c-0.9,1.3-1.6,2.3-2.1,3.1c-0.2,0.4-0.5,0.8-0.8,1.1c0.2-0.4,0.4-0.8,0.7-1.2l2-3.2l7.1-11l0.2,0.4l-7.9,1.4l-7.8,1.3l-0.6,0.1
			l0.3-0.5l7.3-11l2.1-3.1C229.4,211.6,229.6,211.3,229.9,211z"/>
		<path class="st1" d="M261.3,261.3c-0.4-0.3-0.7-0.6-1-0.9l-2.7-2.6l-9.4-9.2l0.4-0.2c-0.1,2.5-0.2,5.1-0.2,7.9
			c-0.1,2.8-0.2,5.5-0.3,8v0.6l-0.4-0.4l-9.2-9.3l-2.6-2.7c-0.3-0.3-0.6-0.6-0.9-1c0.4,0.3,0.7,0.6,1,0.9l2.7,2.6l9.3,9.2l-0.4,0.2
			c0.1-2.5,0.2-5.2,0.3-8c0.1-2.8,0.2-5.4,0.3-7.9v-0.6l0.4,0.4l9.3,9.4l2.6,2.7C260.8,260.6,261.1,261,261.3,261.3z"/>
		<path class="st1" d="M102.5,194.9c-0.2,0.4-0.4,0.8-0.7,1.2l-2,3.2l-7.1,11.1l-0.2-0.4l7.8-1.4l7.9-1.3l0.6-0.1l-0.3,0.5
			l-7.3,10.9l-2.1,3.1c-0.2,0.4-0.5,0.7-0.8,1.1c0.2-0.4,0.4-0.8,0.7-1.2l2-3.2c1.8-2.8,4.3-6.6,7.1-11l0.2,0.4l-7.9,1.4l-7.8,1.3
			l-0.6,0.1l0.3-0.5c2.9-4.4,5.5-8.2,7.3-11l2.1-3.1C101.9,195.6,102.2,195.2,102.5,194.9z"/>
		<path class="st1" d="M62.9,269.7c0.3,0.3,0.6,0.6,0.9,1l2.4,2.9l8.3,10.2l-0.4,0.1c0.4-2.4,0.7-5.1,1.2-7.8s0.8-5.5,1.2-7.9
			l0.1-0.6l0.4,0.5l8.1,10.3l2.3,3c0.3,0.3,0.6,0.7,0.8,1.1c-0.3-0.3-0.6-0.6-0.9-1l-2.4-2.9l-8.1-10.2l0.4-0.1
			c-0.4,2.5-0.8,5.2-1.2,7.9c-0.4,2.8-0.8,5.4-1.2,7.8l-0.1,0.6l-0.4-0.5l-8.2-10.3l-2.3-3C63.5,270.5,63.2,270.1,62.9,269.7z"/>
		<path class="st1" d="M153.2,221.3c-0.4,0.1-0.9,0.2-1.4,0.2l-3.8,0.3l-13.1,1l0.2-0.4l5.8,5.4l5.8,5.5l0.4,0.4h-0.6l-13.1,0.7
			l-3.8,0.2c-0.5,0-0.9,0-1.4,0c0.4-0.1,0.9-0.1,1.4-0.2l3.8-0.3l13.1-0.9l-0.1,0.4l-5.9-5.5l-5.7-5.4l-0.4-0.4h0.6l13.1-0.8
			l3.8-0.2C152.3,221.3,152.8,221.2,153.2,221.3z"/>
		<path class="st1" d="M131.1,271.7c0.3,0.3,0.6,0.6,0.9,1l2.5,2.9l8.5,10.1l-0.4,0.1c0.3-2.4,0.6-5.1,1-7.8s0.7-5.5,1-8l0.1-0.6
			l0.4,0.5l8.3,10.1l2.4,3c0.3,0.3,0.6,0.7,0.8,1.1c-0.3-0.3-0.6-0.6-0.9-1l-2.5-2.9l-8.4-10l0.4-0.1c-0.3,2.5-0.6,5.2-1,8
			c-0.4,2.8-0.7,5.4-1,7.8l-0.1,0.6l-0.4-0.4l-8.4-10.2l-2.4-3C131.6,272.5,131.3,272.1,131.1,271.7z"/>
		<path class="st1" d="M91.5,234.7c-0.4,0.1-0.9,0.2-1.4,0.2l-3.8,0.3l-13.1,1l0.2-0.4l5.8,5.4l5.8,5.5l0.4,0.4h-0.6l-13.1,0.7
			l-3.8,0.2c-0.4,0-0.9,0-1.3,0c0.4-0.1,0.9-0.2,1.3-0.2l3.8-0.3l13.1-0.9l-0.2,0.4l-5.8-5.5l-5.8-5.4l-0.4-0.4h0.6l13.2-0.8
			l3.8-0.2C90.6,234.7,91,234.7,91.5,234.7z"/>
		<path class="st1" d="M125.5,270.5c-0.4,0.1-0.9,0.2-1.4,0.2l-3.8,0.3l-13.1,1l0.2-0.4l5.8,5.4l5.8,5.5l0.4,0.4h-0.6l-13.1,0.7
			l-3.8,0.2c-0.5,0-0.9,0-1.4,0c0.4-0.1,0.9-0.2,1.4-0.2l3.8-0.3l13.1-0.9l-0.1,0.4l-5.9-5.5L107,272l-0.4-0.4h0.6l13.1-0.8l3.8-0.2
			C124.6,270.5,125,270.5,125.5,270.5z"/>
		<path class="st1" d="M202.3,179.4c-0.4,0.1-0.9,0.2-1.4,0.2l-3.8,0.3l-13.1,1l0.1-0.4l5.8,5.4l5.8,5.5l0.4,0.4h-0.6l-13.1,0.7
			l-3.8,0.2c-0.5,0-0.9,0-1.4,0c0.4-0.1,0.9-0.2,1.4-0.2l3.8-0.3l13.1-0.9l-0.2,0.4l-5.8-5.5l-5.7-5.4l-0.4-0.4h0.6l13.1-0.8
			l3.8-0.2C201.4,179.4,201.9,179.4,202.3,179.4z"/>
		<path class="st6" d="M165,270.5c0,0,16.8-4.8,22.4-6.3c2.2-0.5,11.5,4.3,17.9,8.4c0,0,8.8,5.2,8.1,6.8c-0.8,1.8-4,1.4-9.2-1
			c0,0,1.8,5.3-1.8,5.2c0,0,1.8,5.7-1.6,6.3c-3.3,0.6-4.1-6.7-7.1-7.1s-9-0.8-9-0.8s-5.1,8.4-9,9c-3.9,0.6-13-0.5-13-0.5L165,270.5z
			"/>
		<path class="st7" d="M193.7,271.7c1.6,0.7,3.2,1.6,4.7,2.6c1.6,0.9,3.1,1.9,4.4,3.1C199.6,275.8,196.5,273.9,193.7,271.7z"/>
		<path class="st7" d="M192.7,275c1.9,0.6,3.8,1.4,5.6,2.3c1.9,0.8,3.6,1.7,5.3,2.7c-1.9-0.6-3.8-1.4-5.6-2.3
			C196.2,276.9,194.4,276,192.7,275z"/>
		<path class="st7" d="M194.5,282.8c2.5,0,5.1,0.3,7.5,1C199.5,283.8,196.9,283.5,194.5,282.8z"/>
		<path class="st4" d="M143.1,97c0.6,1.8-0.5,3.8-2.3,4.3c-0.9,0.3-1.8,0.2-2.6-0.2c-2.3-1.1-2.6-4.3-2.1-6.8s1.3-5.2,0.2-7.5
			c-0.8-1.8-2.6-2.9-3.9-4.3c-2.4-2.5-3.6-5.9-3.1-9.4c0.6-3.4,3.1-6.3,6.4-7.3c3.4-0.9,7.5,0.1,10-2.3c1.8-1.8,1.9-4.6,3.3-6.7
			c2.2-3.3,6.8-3.8,10.6-3.2s7.8,1.8,11.6,0.8c3.2-0.8,5.8-3,8.8-4.4c8.6-3.9,18.8-0.1,22.7,8.5c2.2,4.8,2.1,10.4-0.4,15.1
			c-1.1,2.3-3,4.2-5.3,5.2"/>
		<path class="st6" d="M162.4,179.6L162.4,179.6c10.6,0,19.3-8.7,19.2-19.3c0-0.1,0-0.2,0-0.2l-0.2-18.4c0,0,15.4-1.6,16.5-16.9
			s0.3-50.6,0.3-50.6l0,0c-17.3-8.6-37.9-7.1-53.8,3.8l-2.4,1.6l1.1,80.9C143.2,171.1,151.8,179.6,162.4,179.6z"/>
		<path class="st4" d="M194.1,102c-1.3-0.1-2.2-1.3-2-2.5c0.1-1.1,1-1.9,2-2c0.1,0,0.2,0,0.4,0c1.3,0.1,2.2,1.3,2,2.5
			c-0.1,1.1-1,1.9-2,2C194.3,102,194.2,102,194.1,102z"/>
		<path class="st4" d="M197.1,97c-0.2,0.3-1.7-1-3.8-1.1s-3.7,0.9-3.9,0.6s0.1-0.6,0.9-1.1c1.9-1.2,4.4-1.1,6.2,0.4
			C197,96.4,197.2,97,197.1,97z"/>
		<path class="st4" d="M172.7,97.5c1,0.7,1.3,2.1,0.6,3.1c-0.7,1-2.1,1.3-3.1,0.6c-1-0.7-1.3-2.1-0.6-3.1c0,0,0,0,0,0
			C170.3,97.1,171.7,96.9,172.7,97.5z"/>
		<path class="st4" d="M174.1,97.6c-0.3,0.3-1.7-1-3.8-1.1s-3.7,0.9-3.9,0.6c-0.1-0.1,0.2-0.6,0.9-1.1c1.9-1.2,4.4-1.1,6.2,0.4
			C174,97,174.2,97.5,174.1,97.6z"/>
		<path class="st4" d="M181.6,115.5c0-0.2,1.3-0.4,3.4-0.5c0.6,0,1-0.1,1.1-0.4c0-0.6-0.1-1.1-0.3-1.6c-0.5-1.4-0.9-2.9-1.4-4.4
			c-2-6.2-3.3-11.4-3-11.5s2.2,4.9,4.1,11.1c0.5,1.5,0.9,3,1.3,4.4c0.3,0.7,0.4,1.5,0.2,2.3c-0.2,0.4-0.6,0.7-1,0.8
			c-0.3,0.1-0.6,0.1-0.9,0.1C182.9,115.8,181.6,115.7,181.6,115.5z"/>
		<path class="st2" d="M174.6,117.5c3.2,1.6,6.6,2.9,10.2,3.6c-1.6,2.2-4.5,3-7,1.9C173.3,121,174.6,117.5,174.6,117.5z"/>
		<path class="st7" d="M181.4,141.4c-7.1-0.3-13.9-2.6-19.7-6.8c0,0,4.1,11.3,19.5,10.7L181.4,141.4z"/>
		<path class="st4" d="M198.2,78.1c0,0-9.2,4.7-21.5-1.1c-8-3.8-17.4-5.6-19.4-3.9s-2.3,9.9-10.1,12.4c0,0,0.9,15.7-5.4,15.2
			S139,75.9,139,75.9l15.1-7.8l16.6-3.5l15.8,1.9l12.2,3.1L198.2,78.1z"/>
		<path class="st6" d="M142.9,95.6c-0.2-0.1-10.4-3.7-10.6,6.8s10.3,8.6,10.4,8.3S142.9,95.6,142.9,95.6z"/>
		<path class="st7" d="M139.6,106.6c0,0-0.2,0.1-0.5,0.3c-0.4,0.2-0.9,0.2-1.4,0c-1.1-0.4-2-2.2-2-4.1c0-0.9,0.2-1.8,0.6-2.6
			c0.2-0.7,0.7-1.2,1.4-1.4c0.4-0.1,0.9,0.1,1.1,0.5c0.1,0.3,0.1,0.5,0.1,0.5s0.2-0.2,0.2-0.6c-0.1-0.3-0.2-0.5-0.4-0.7
			c-0.3-0.2-0.6-0.3-1-0.3c-0.9,0.2-1.6,0.8-1.9,1.6c-0.5,0.9-0.7,1.9-0.7,2.9c0,2.1,1.1,4.1,2.6,4.6c0.6,0.2,1.2,0.1,1.7-0.2
			C139.6,106.9,139.6,106.6,139.6,106.6z"/>
		<path class="st4" d="M137.6,62.8c2.5-0.7,5.1,0.3,6.5,2.4c-0.9-0.7-1.9-1.3-3-1.8C139.9,63.1,138.8,62.9,137.6,62.8z"/>
		<path class="st4" d="M143.9,56.5c0.2,0-0.1,2.2,0.3,4.8c0.3,1.6,0.8,3.1,1.5,4.6c0,0-0.4-0.4-0.9-1.1c-0.6-1-0.9-2.2-1.1-3.3
			C143.4,59.8,143.4,58.1,143.9,56.5z"/>
		<path class="st4" d="M187,92c-0.1-0.1,0.4-0.5,1.2-0.8c2.3-0.9,4.8-0.8,7,0.1c0.8,0.4,1.3,0.7,1.2,0.9c-0.1,0.3-2.1-0.5-4.7-0.5
			S187.1,92.3,187,92z"/>
		<path class="st4" d="M163.6,89.8c-0.1-0.1,0.4-0.5,1.2-0.8c1.1-0.4,2.3-0.6,3.5-0.6c1.2,0,2.4,0.2,3.5,0.7
			c0.8,0.4,1.3,0.7,1.2,0.9s-2.1-0.5-4.8-0.5S163.7,90.1,163.6,89.8z"/>
		<path class="st4" d="M185.2,93.6c0,0.2,0,0.4,0,0.6c0,0.4,0,1,0.1,1.7s0,1.6,0.1,2.6c0,1.2,0.1,2.3,0.5,3.4c1,2.9,3.4,5.1,6.3,5.8
			c0.8,0.2,1.7,0.3,2.6,0.2c0.9,0,1.8-0.2,2.6-0.6c1.8-0.7,3.3-1.9,4.3-3.5c1-1.5,1.5-3.3,1.4-5.1c0-1.8,0-3.5,0-5.2l0.2,0.2
			l-13-0.1l-3.8-0.1h-1L185.2,93.6c0.4,0,0.8,0,1.2,0l3.7-0.1l13.1-0.1h0.3v0.2c0,1.6,0,3.4,0,5.2c0.1,1.9-0.4,3.8-1.5,5.4
			c-1.1,1.7-2.7,3-4.6,3.7c-0.9,0.3-1.8,0.5-2.8,0.6c-0.9,0.1-1.8,0-2.7-0.2c-3.1-0.8-5.6-3.1-6.6-6.1c-0.4-1.1-0.5-2.3-0.4-3.5
			c0-1,0-1.9,0.1-2.7s0-1.2,0.1-1.7C185.2,94,185.2,93.8,185.2,93.6z"/>
		<path class="st4" d="M160.7,93.1c0,0,0,0.2,0,0.6v1.7c0,0.7,0,1.6,0.1,2.6c0,1.2,0.1,2.3,0.5,3.4c0.5,1.3,1.2,2.5,2.2,3.5
			c1.1,1.1,2.6,1.9,4.1,2.3c1.7,0.4,3.5,0.3,5.2-0.3c1.8-0.7,3.3-1.9,4.3-3.5c1-1.5,1.5-3.3,1.4-5.1c0-1.8,0-3.5,0-5.2l0.2,0.2
			l-13-0.1l-3.8-0.1h-1L160.7,93.1c0.3,0,0.8,0,1.2,0l3.7-0.1l13.1-0.1h0.2v0.2c0,1.6,0,3.4,0,5.2c0.1,1.9-0.5,3.8-1.5,5.4
			c-1.1,1.7-2.7,3-4.6,3.7c-0.9,0.3-1.8,0.5-2.8,0.6c-0.9,0.1-1.8,0-2.7-0.2c-1.6-0.4-3.1-1.2-4.3-2.4c-1-1-1.8-2.3-2.3-3.7
			c-0.4-1.1-0.5-2.3-0.4-3.5c0-1,0-1.9,0.1-2.7s0-1.2,0-1.7C160.5,93.5,160.6,93.3,160.7,93.1z"/>
		<path class="st4" d="M185.4,94.4c-2.3,0.3-4.6,0.3-6.9,0C180.8,94,183.1,94,185.4,94.4z"/>
		<path class="st4" d="M141.6,94.5c3.2-0.3,6.4-0.4,9.6-0.3c3.2-0.1,6.4,0,9.6,0.2c-3.2,0.3-6.4,0.4-9.6,0.3
			C148,94.8,144.8,94.8,141.6,94.5z"/>
		<path class="st6" d="M244.5,283.2c4.6,8.5,13.7,13.6,23.4,12.9l0,0c11.5-0.8,20.9-9.5,22.6-20.9l5.8-66.4l-23.2-5.7l-9.5,52
			C263.6,255.1,258.6,276.9,244.5,283.2z"/>
		<path class="st6" d="M272.8,207.9l0.8-11.6c0,0,3.3-26.1,3.3-28.7c0-2.9,1.4-3.7,2.5-3.6c1.7,0.1,2.9,2.2,3,4.7
			c0,0.9-0.1,14.7-0.1,14.7c0.8-1.3,1.7-2.6,2.7-3.7c2-2.6,6.8-4.1,11.8-3.9s6.3,0.6,6.3,2.5c0,0.7-0.4,1.4-1,1.9
			c-0.9,0.8-2.1,1.2-3.2,1.1c-7.9-0.1-10,4.1-10,4.1l-0.1,1.5c0,0,4.8-3.4,8.6-2c0.6,0.2,1.1,0.5,1.5,0.9c3.4,0,6.2,2.8,6.1,6.2
			c0,1.1-0.3,2.1-0.8,3c-0.4,1-1.4,1.6-2.5,1.5c-0.5-0.2-1-0.5-1.4-0.9c-0.2-0.2-0.5-0.4-0.7-0.5l-0.9,4.2c0,0-2.5,9.4-3.1,13.6"/>
		<path class="st6" d="M275.1,207c1.4,0.4,2.9-0.7,3.7-1.9s1.1-2.8,1.8-4.1c2.1-4,7-5.9,8.9-10c0.3-0.6,0.4-1.4-0.1-1.7
			s-1.1-0.1-1.6,0.2l-13,7.2"/>
		<path class="st7" d="M274.8,196.6c0.4-0.4,0.9-0.7,1.3-0.9c0.9-0.5,2.2-1.3,3.8-2.2l5.6-3.2l1.6-0.9c0.6-0.5,1.4-0.7,2.1-0.6
			c0.5,0.2,0.8,0.6,0.9,1.1c0,0.4,0,0.8-0.2,1.2c-0.3,0.7-0.7,1.3-1.1,1.9c-1.8,2.3-4.1,3.8-5.8,5.5c-0.8,0.8-1.5,1.7-2.1,2.6
			c-0.5,0.9-0.8,1.9-1.2,2.8c-0.5,1.5-1.6,2.7-3,3.2c-1.1,0.3-1.7,0-1.6-0.1c0.5,0,1-0.1,1.5-0.2c1.3-0.6,2.2-1.8,2.6-3.2
			c0.3-1,0.7-1.9,1.1-2.9c0.6-1.1,1.3-2,2.1-2.9c1.7-1.8,4-3.3,5.7-5.5c0.4-0.5,0.7-1.1,1-1.7c0.2-0.6,0.2-1.1-0.1-1.2
			s-1,0.2-1.5,0.5l-1.7,0.9l-5.7,3.1c-1.6,0.9-3,1.5-3.9,2C275.8,196.2,275.3,196.4,274.8,196.6z"/>
		<path class="st7" d="M288.5,187c0.1-0.9,0.4-1.9,0.9-2.7c0.6-0.8,1.4-1.4,2.4-1.7c1.2-0.4,2.5-0.6,3.8-0.6c1.3,0,2.6-0.1,3.9-0.3
			c1.1-0.2,2.1-0.7,2.9-1.5c0.6-0.5,0.8-1.2,0.8-2c0-0.3-0.1-0.5-0.3-0.8c0,0,0,0.3,0,0.8c0,0.7-0.3,1.3-0.8,1.8
			c-0.8,0.6-1.7,1.1-2.7,1.2c-1.3,0.2-2.5,0.3-3.8,0.3c-1.3,0-2.6,0.2-3.9,0.6c-1,0.4-1.9,1.1-2.5,2c-0.4,0.6-0.6,1.3-0.7,2.1
			C288.4,186.4,288.4,186.7,288.5,187z"/>
		<path class="st7" d="M282.3,167.7c-0.1,0.9-0.1,1.8,0,2.8c0,1.9,0,4.1,0.1,6.6s0,4.7,0,6.6c-0.1,0.9,0,1.8,0.1,2.8
			c0.2-0.9,0.3-1.8,0.3-2.7c0.1-1.7,0.2-4,0.2-6.6s-0.1-4.9-0.2-6.6C282.7,169.5,282.6,168.6,282.3,167.7z"/>
		<path class="st7" d="M291.7,190c0.3-0.1,0.5-0.2,0.8-0.3c0.7-0.3,1.4-0.4,2.1-0.1c0.4,0.2,0.7,0.7,0.7,1.1c0,0.6,0,1.2-0.1,1.8
			c-0.2,0.7,0,1.5,0.3,2.2c0.5,0.7,1.3,1.1,2.1,1.1c0.8,0,1.6-0.3,2.2-0.9c0.5-0.5,0.9-1.2,1-1.9c0.2-1.2,0.1-2.4,0-3.5
			c-0.1-0.8-0.3-1.6-0.7-2.3c-0.3-0.5-0.5-0.7-0.6-0.7s0.2,0.3,0.4,0.8c0.3,0.7,0.4,1.5,0.5,2.2c0.1,1.1,0.1,2.3,0,3.4
			c-0.3,1.3-1.4,2.3-2.7,2.4c-0.7,0-1.3-0.3-1.7-0.9c-0.3-0.5-0.4-1.2-0.3-1.8c0.1-0.6,0.1-1.3,0.1-1.9c-0.1-0.6-0.4-1.2-1-1.4
			c-0.8-0.3-1.7-0.2-2.4,0.3C291.9,189.8,291.6,190,291.7,190z"/>
		<path class="st7" d="M299.5,194.5c-0.1,0.3,0,0.5,0.1,0.8c0.3,0.7,0.9,1.2,1.6,1.4c1.1,0.2,2.2-0.1,3-0.9c0.9-1,1.4-2.3,1.4-3.6
			c0-1.3-0.4-2.6-1.2-3.7c-0.6-0.9-1.5-1.6-2.5-2c-0.6-0.3-1.3-0.5-2.1-0.5c-0.5,0-0.8,0-0.8,0.1c0.9,0.1,1.8,0.4,2.7,0.8
			c0.9,0.4,1.7,1.1,2.2,1.9c0.7,1,1,2.2,1,3.4c0,1.2-0.4,2.4-1.2,3.3c-0.6,0.7-1.6,1.1-2.6,0.9c-0.6-0.1-1.2-0.6-1.5-1.1
			C299.6,194.7,299.6,194.5,299.5,194.5z"/>
		<path class="st7" d="M290,203.7c-0.4-0.1-0.9-0.1-1.3,0c-1.1,0.2-2.1,0.9-2.9,1.7l0.5,0.1c-0.1-0.6-0.2-1.2-0.3-1.8
			c-0.4-2.1-1.4-4.1-2.9-5.8c1,1.9,1.8,3.9,2.3,5.9c0.1,0.6,0.2,1.2,0.3,1.8l0.1,0.6l0.4-0.5c0.7-0.8,1.5-1.4,2.5-1.8
			C289.5,203.8,290,203.8,290,203.7z"/>
		<path class="st7" d="M290.3,180.2c-0.1,0.1,0.4,1,1.6,1.6s2.3,0.2,2.2,0.1s-1-0.1-2-0.6S290.4,180.1,290.3,180.2z"/>
		<path class="st5" d="M268.8,215.4l29.2,2.1c0,0-4.5,51.6-5.4,59.7s-6,20.1-23.8,20.1s-21.1-6.1-29.1-18.6
			c9.4-6.5,24.2-25.8,24.2-25.8L268.8,215.4z"/>
		<path class="st1" d="M282.6,222.4c-0.2,0.4-0.3,0.9-0.5,1.3l-1.6,3.4l-5.8,11.9l-0.3-0.4l7.6-2.2l7.7-2.3l0.6-0.2l-0.3,0.5
			l-6,11.6l-1.8,3.4c-0.2,0.4-0.4,0.8-0.7,1.2c0.2-0.4,0.3-0.8,0.5-1.2c0.4-0.9,1-2,1.6-3.4l5.8-11.7l0.3,0.4l-7.7,2.3l-7.6,2.2
			l-0.5,0.2l0.3-0.5l6-11.8c0.7-1.4,1.3-2.5,1.8-3.4C282.1,223.2,282.3,222.8,282.6,222.4z"/>
		<path class="st1" d="M279.8,272c-0.4,0.1-0.9,0.2-1.4,0.2l-3.8,0.3l-13.1,1l0.2-0.4l5.8,5.4l5.8,5.5l0.4,0.4h-0.6l-13.1,0.7
			l-3.8,0.2c-0.5,0-0.9,0-1.4,0c0.4-0.1,0.9-0.1,1.4-0.2l3.8-0.3l13.1-0.9l-0.1,0.4l-5.9-5.5l-5.7-5.4l-0.4-0.4h0.6l13.1-0.8
			l3.8-0.2C278.9,272,279.4,272,279.8,272z"/>
	</g>
	<g id="freepik--Device--inject-85">
		<polygon class="st4" points="248.9,211.2 215.7,293.3 155.9,293.3 155.9,297 334.1,297 370.6,211.2 		"/>
		<path class="st8" d="M299.7,259.7c-1.2,4.1-4.7,6.7-7.8,5.8c-3.1-0.9-4.7-5-3.5-9.1c1.2-4.1,4.7-6.7,7.8-5.8
			S300.9,255.5,299.7,259.7z"/>
	</g>
</g>
</svg>
