<?xml version="1.0" encoding="UTF-8"?>
<svg width="17px" height="19px" viewBox="0 0 17 19" version="1.1" xmlns="http://www.w3.org/2000/svg" xmlns:xlink="http://www.w3.org/1999/xlink">
    <g id="Page-1" stroke="none" stroke-width="1" fill="none" fill-rule="evenodd">
        <g id="benefits" transform="translate(-262.000000, -618.000000)" fill-rule="nonzero">
            <g id="Group-10" transform="translate(129.000000, 617.000000)">
                <g id="Group-12" transform="translate(141.500000, 10.500000) scale(-1, 1) translate(-141.500000, -10.500000) translate(133.000000, 1.000000)">
                    <path id="x1" d="M11.322579,18.8040023 C10.9114726,18.8044596 10.5274209,18.6000823 10.2994808,18.2595486 L4.2966293,9.86892487 C4.01668205,9.44882399 4.02310872,8.90110651 4.31283679,8.48762776 L10.3156883,0.518450854 C10.7073012,-0.0339333611 11.4746596,-0.165744246 12.0296311,0.224043002 C12.5846025,0.613830251 12.7170308,1.37761113 12.3254179,1.92999535 L6.8006875,9.20751545 L12.3375735,16.9024494 C12.7137968,17.4639102 12.5624488,18.2225344 11.999242,18.5983193 C11.7983945,18.7305207 11.5633628,18.8019623 11.322579,18.8040023 Z" fill="#74A8F5"></path>
                    <path id="x2" d="M15.7720688,18.8040023 C15.3609624,18.8044596 14.9769106,18.6000823 14.7489706,18.2595486 L8.74611905,9.86892487 C8.46617181,9.44882399 8.47259847,8.90110651 8.76232655,8.48762776 L14.7651781,0.518450854 C15.156791,-0.0339333611 15.9241493,-0.165744246 16.4791208,0.224043002 C17.0340923,0.613830251 17.1665206,1.37761113 16.7749076,1.92999535 L11.2501773,9.20751545 L16.7870632,16.9024494 C17.1632865,17.4639102 17.0119385,18.2225344 16.4487317,18.5983193 C16.2478843,18.7305207 16.0128526,18.8019623 15.7720688,18.8040023 Z" fill="#5192F2"></path>
                    <path id="x3" d="M7.15112159,18.8745804 C6.83383135,18.8751639 6.53727825,18.7177396 6.36100613,18.4551484 L0.177846228,9.79633115 C-0.0395208319,9.47132364 -0.0338872619,9.04677045 0.192027788,8.72759032 L6.37518769,0.506351901 C6.57025115,0.230429796 6.89838937,0.0790472177 7.23599588,0.109228519 C7.57360239,0.13940982 7.86938672,0.346569742 8.01192978,0.652673148 C8.15447283,0.958776554 8.12211893,1.31731905 7.92705548,1.59324116 L2.11869393,9.27607618 L7.94123704,17.3985065 C8.13577097,17.6882996 8.15399863,18.06122 7.98864558,18.3684401 C7.82329253,18.6756601 7.50128098,18.8671593 7.15112159,18.8665128 L7.15112159,18.8745804 Z" fill="#B9D3FA"></path>
                </g>
            </g>
        </g>
    </g>
	<style>
		@keyframes hideshow {
			0% { opacity: 0; }
			50% { opacity: 1; }
			100% { opacity: 0; }
		}
		#x2{
			animation: hideshow 1.5s ease infinite;
		}
		#x1{
			animation: hideshow 1.5s 0.3s ease infinite;
		}
		#x3{
			animation: hideshow 1.5s 0.7s ease infinite;
		}
	</style>
</svg>