<?xml version="1.0" encoding="utf-8"?>
<!-- Generator: Adobe Illustrator 22.0.1, SVG Export Plug-In . SVG Version: 6.00 Build 0)  -->
<svg version="1.1" id="Layer_1" xmlns="http://www.w3.org/2000/svg" xmlns:xlink="http://www.w3.org/1999/xlink" x="0px" y="0px"
	 viewBox="0 0 460.3 371.5" style="enable-background:new 0 0 460.3 371.5;" xml:space="preserve">
<style type="text/css">
	.st0{fill:#263238;}
	.st1{fill:#F5F5F5;}
	.st2{fill:#0675C8;}
	.st3{fill:#FAFAFA;}
	.st4{opacity:0.3;}
	.st5{opacity:0.8;}
	.st6{fill:#FFFFFF;}
	.st7{opacity:0.4;}
	.st8{fill:#FFBE9D;}
	.st9{fill:#EB996E;}
	.st10{fill:#455A64;}
	.st11{opacity:0.3;enable-background:new    ;}
	.st12{opacity:0.2;}
	.st13{opacity:0.4;enable-background:new    ;}
	.st14{fill:#E0E0E0;}
</style>
<g>
	<g id="freepik--Floor--inject-47">
		<path class="st0" d="M460.3,366.3c0,0.1-103,0.3-230.1,0.3S0,366.5,0,366.3s103-0.3,230.2-0.3S460.3,366.2,460.3,366.3z"/>
	</g>
	<g id="freepik--Rocket--inject-47">
		<path class="st1" d="M248.9,35.6c-2.2-1.4-5.1-0.6-7.3,0.9s-4,3.4-6.4,4.4c-4.6,1.8-10.6-0.3-14.1,3c-2.2,2.1-2.5,5.7-4.2,8.2
			c-2.9,4.4-9.9,6-10.4,11.2c-0.4,3,2.1,5.9,5,6.8c3,0.7,6.2,0.1,8.7-1.7c3-2,5.3-5,8.7-6.1s7.7-0.2,10.5-2.6s2.3-6.9,4.3-9.9
			c1.2-1.5,2.6-2.9,4.1-4.1c1.5-1.3,2.9-2.8,3.1-4.8S250.2,35.6,248.9,35.6"/>
		<path class="st0" d="M192.5,248c0.1-0.1,0.5,0.3,0.9,0.9s0.6,1.1,0.5,1.2s-0.5-0.3-0.9-0.9S192.4,248.1,192.5,248z"/>
		<path class="st0" d="M188.2,239c0.5,0.7,0.9,1.4,1.2,2.2c0.4,0.7,0.6,1.6,0.7,2.4C189.2,242.2,188.6,240.7,188.2,239L188.2,239z"
			/>
		<path class="st0" d="M185.9,229.3c0.6,1.6,1,3.2,0.9,4.9c-0.4-0.7-0.6-1.6-0.7-2.4C185.9,231,185.8,230.1,185.9,229.3z"/>
		<path class="st0" d="M185.6,219.3c0.3,1.7,0.3,3.4-0.1,5c-0.3-0.8-0.3-1.7-0.2-2.5C185.2,221,185.3,220.1,185.6,219.3z"/>
		<path class="st0" d="M187.1,209.5c0.1,0.8,0,1.7-0.3,2.5c-0.1,0.8-0.4,1.7-0.8,2.4c-0.1-0.8,0-1.7,0.3-2.5
			C186.5,211,186.7,210.2,187.1,209.5z"/>
		<path class="st0" d="M190.8,200.1c-0.3,1.6-1,3.2-2,4.6c0.1-0.8,0.4-1.7,0.8-2.4C190.1,201,190.7,200.1,190.8,200.1z"/>
		<path class="st0" d="M196.3,191.8c-0.3,0.8-0.7,1.5-1.3,2.2c-0.5,0.7-1,1.3-1.7,1.9c-0.1-0.1,0.4-1.1,1.3-2.2
			S196.1,191.7,196.3,191.8z"/>
		<path class="st0" d="M203,184.4c0.1,0.1-0.6,1-1.5,2s-1.8,1.7-1.9,1.6s0.6-1,1.5-2S202.9,184.3,203,184.4z"/>
		<path class="st0" d="M210.1,177.3c0.1,0.1-0.6,1-1.6,2s-1.8,1.7-1.9,1.6s0.6-1,1.6-2S210,177.2,210.1,177.3z"/>
		<path class="st0" d="M216.6,169.7c-0.3,0.8-0.8,1.5-1.4,2.1c-0.9,1.1-1.7,1.9-1.8,1.8c0.3-0.8,0.8-1.5,1.4-2.1
			C215.7,170.5,216.5,169.6,216.6,169.7z"/>
		<path class="st0" d="M221.7,161.1c-0.1,0.8-0.4,1.7-0.8,2.4c-0.3,0.8-0.8,1.5-1.4,2.1c0.2-0.8,0.5-1.6,1-2.3
			C220.8,162.5,221.2,161.8,221.7,161.1z"/>
		<path class="st0" d="M224.1,151.5c0.2,0.8,0.2,1.7-0.1,2.5c-0.1,0.9-0.3,1.7-0.8,2.4c-0.1-0.8,0-1.7,0.3-2.5
			C223.6,153.1,223.8,152.3,224.1,151.5z"/>
		<path class="st0" d="M223.4,141.5c0.4,0.7,0.7,1.6,0.7,2.4c0.2,0.8,0.2,1.7,0,2.5c-0.3-0.8-0.5-1.6-0.5-2.4
			C223.4,143.2,223.4,142.4,223.4,141.5z"/>
		<path class="st0" d="M219.5,132.4c0.1-0.1,0.9,0.8,1.5,2c0.5,0.7,0.8,1.5,0.9,2.4c-0.6-0.6-1-1.4-1.3-2.1
			C220.1,134,219.7,133.2,219.5,132.4z"/>
		<path class="st0" d="M212.5,125.3c0.8,0.3,1.6,0.7,2.2,1.3c1.1,0.9,1.8,1.8,1.7,1.9s-1-0.6-2-1.5S212.4,125.4,212.5,125.3z"/>
		<path class="st0" d="M203.4,121.2c0.9-0.1,1.7,0.1,2.5,0.5c0.8,0.2,1.6,0.6,2.2,1.2c-0.8-0.1-1.7-0.3-2.4-0.7
			C204.9,122,204.2,121.7,203.4,121.2z"/>
		<path class="st0" d="M193.5,120.8c0.8-0.4,1.6-0.6,2.5-0.5c0.8-0.1,1.7,0,2.5,0.3c-0.8,0.2-1.7,0.3-2.5,0.3
			C195.2,120.9,194.3,120.9,193.5,120.8z"/>
		<path class="st0" d="M184.3,124.5c-0.1-0.1,0.8-0.9,2-1.5c0.7-0.5,1.5-0.8,2.4-0.8c-0.7,0.5-1.4,1-2.1,1.3
			C185.8,123.9,185.1,124.2,184.3,124.5z"/>
		<path class="st0" d="M177.4,131.7c0.2-0.8,0.6-1.6,1.2-2.2c0.9-1.1,1.7-1.8,1.8-1.7s-0.6,1-1.4,2.1S177.5,131.7,177.4,131.7z"/>
		<path class="st0" d="M174,141c-0.2-0.8-0.1-1.7,0.2-2.5c0.1-0.9,0.5-1.7,1-2.3c0,0.8-0.2,1.7-0.5,2.5
			C174.6,139.4,174.4,140.2,174,141z"/>
		<path class="st0" d="M175.2,150.8c-0.5-0.7-0.9-1.5-1-2.3c-0.3-0.8-0.4-1.7-0.2-2.5c0.3,0.8,0.6,1.6,0.7,2.4
			C175,149.2,175.2,150,175.2,150.8z"/>
		<path class="st0" d="M180.3,159.4c-0.1,0.1-0.9-0.7-1.8-1.8c-0.6-0.6-1-1.4-1.2-2.2c0.1-0.1,0.8,0.8,1.6,1.9
			C179.5,157.9,180,158.6,180.3,159.4z"/>
		<path class="st0" d="M187.7,166.2c-0.8-0.3-1.5-0.7-2.1-1.3c-1.1-0.9-1.8-1.7-1.7-1.8c0.8,0.4,1.5,0.8,2.1,1.4
			C186.9,165.3,187.8,166,187.7,166.2z"/>
		<path class="st0" d="M196.3,171.1c-1.6-0.4-3.1-1.2-4.5-2.3c0.8,0.1,1.6,0.4,2.4,0.9C195,170.1,195.7,170.5,196.3,171.1z"/>
		<path class="st0" d="M205.8,174.2c-0.8,0.1-1.7,0-2.5-0.3c-0.8-0.1-1.6-0.5-2.3-0.9c0.8,0,1.7,0.2,2.5,0.4
			C204.3,173.5,205.1,173.7,205.8,174.2z"/>
		<path class="st0" d="M215.8,174.7c-1.6,0.5-3.4,0.5-5,0.1c0.8-0.2,1.7-0.3,2.5-0.2C214.1,174.4,215,174.5,215.8,174.7z"/>
		<path class="st0" d="M225.4,172.1c-1.4,1-3,1.6-4.7,1.7c0.7-0.5,1.5-0.8,2.3-1C223.8,172.4,224.6,172.2,225.4,172.1z"/>
		<path class="st0" d="M233.8,166.6c0.1,0.1-0.7,1-1.8,1.8c-0.6,0.6-1.4,1-2.2,1.2c-0.1-0.1,0.8-0.8,1.9-1.7
			C232.3,167.4,233,167,233.8,166.6z"/>
		<path class="st0" d="M240.3,159.1c-0.2,0.8-0.7,1.6-1.2,2.2c-0.8,1.1-1.7,1.9-1.8,1.8s0.5-1,1.4-2.1S240.1,159,240.3,159.1z"/>
		<path class="st0" d="M244.6,150.1c0,0.9-0.2,1.7-0.6,2.4c-0.5,1.3-1.1,2.3-1.3,2.2c0.1-0.8,0.4-1.6,0.8-2.4
			C243.8,151.5,244.1,150.8,244.6,150.1z"/>
		<path class="st0" d="M246.5,140.3c0.2,1.7,0,3.4-0.7,4.9C245.8,143.5,246.1,141.9,246.5,140.3z"/>
		<path class="st0" d="M246.3,130.3c0.3,0.8,0.5,1.6,0.5,2.5c0.1,0.8,0.1,1.7-0.1,2.5C246.2,133.6,246.1,131.9,246.3,130.3
			L246.3,130.3z"/>
		<path class="st0" d="M244.1,120.5c0.5,0.7,0.8,1.5,0.9,2.4c0.3,0.8,0.4,1.6,0.4,2.5c-0.5-0.7-0.8-1.5-0.9-2.4
			C244.2,122.2,244.1,121.4,244.1,120.5z"/>
		<path class="st0" d="M240.3,111.3c0.1-0.1,0.7,0.9,1.3,2.1c0.4,0.7,0.7,1.6,0.8,2.4C241.4,114.4,240.7,112.9,240.3,111.3z"/>
		<path class="st0" d="M235.4,102.6c0.1-0.1,0.8,0.8,1.5,2c0.5,0.7,0.8,1.5,1,2.3c-0.6-0.6-1.1-1.2-1.5-2
			C235.9,104.2,235.6,103.4,235.4,102.6z"/>
		<path class="st0" d="M230.4,93.9c0.1-0.1,0.8,0.9,1.4,2.1c0.5,0.7,0.8,1.5,1,2.3c-0.6-0.6-1.1-1.3-1.4-2.1
			C230.9,95.5,230.6,94.7,230.4,93.9z"/>
		<path class="st0" d="M226.5,84.7c0.9,1.4,1.5,3,1.8,4.7c-0.5-0.7-0.9-1.4-1.1-2.3C226.8,86.4,226.5,85.5,226.5,84.7z"/>
		<path class="st0" d="M224.8,74.9c0.3,0.8,0.4,1.6,0.4,2.5c0.2,0.8,0.2,1.7,0.1,2.5c-0.4-0.8-0.6-1.6-0.6-2.4
			C224.6,76.5,224.6,75.7,224.8,74.9z"/>
		<path class="st0" d="M225.6,64.9c0.1,0.8,0,1.7-0.2,2.5c0,0.8-0.2,1.7-0.6,2.4c-0.2-0.8-0.2-1.7,0-2.5
			C224.9,66.5,225.2,65.6,225.6,64.9z"/>
		<path class="st0" d="M228.9,55.5c-0.1,0.8-0.4,1.6-0.8,2.4c-0.2,0.8-0.6,1.6-1.1,2.2C227.2,58.4,227.8,56.8,228.9,55.5L228.9,55.5
			z"/>
		<path class="st0" d="M234.5,47.2c0.1,0.1-0.6,1-1.4,2.1c-0.8,1.1-1.6,2-1.7,1.9c0.2-0.8,0.7-1.6,1.3-2.2
			C233.5,47.9,234.4,47.1,234.5,47.2z"/>
		<path class="st0" d="M242,40.6c0.1,0.1-0.8,0.8-1.9,1.7c-0.6,0.6-1.3,1-2.1,1.4c-0.1-0.1,0.7-1,1.8-1.8
			C240.4,41.3,241.2,40.8,242,40.6z"/>
		<path class="st0" d="M250.9,36.1c-0.7,0.5-1.4,0.9-2.2,1.2c-0.7,0.4-1.5,0.7-2.4,0.8c-0.1-0.1,0.9-0.8,2.2-1.3
			C249.2,36.3,250,36.1,250.9,36.1z"/>
		<path class="st0" d="M258.1,34.2c0,0.1-0.5,0.4-1.2,0.5s-1.2,0.1-1.3,0s0.5-0.4,1.2-0.5S258.1,34.1,258.1,34.2z"/>
		<path class="st2" d="M278.5,4.8c0,0,11.7-8.4,28-3c0,0,1.3,13.5-11.7,24.2"/>
		<path class="st2" d="M241.5,29.7c0.5,0.8,13.2,21.2,13.2,21.2L293,27.3c6.3-3.9,8.3-12.1,4.4-18.4c-0.2-0.3-0.4-0.6-0.6-0.9l0,0
			c-4.3-5.8-12.3-7.1-18.2-3.1L241.5,29.7z"/>
		<path class="st0" d="M254.8,50.9l-0.9,14.4c0,0,24.8-12,18.6-25.4L254.8,50.9z"/>
		<path class="st0" d="M259.2,17.8c0,0-16.8-7.4-30.7,3.5l12.9,8.4L259.2,17.8z"/>
		<path class="st0" d="M259.1,29.7l-23.9,15c0,0,0.8,2.6,1.5,2.4s18.5-10.8,24.4-14.2c0.9-0.5,1.1-1.6,0.6-2.5
			c0-0.1-0.1-0.2-0.2-0.2l0,0C260.9,29.4,259.9,29.2,259.1,29.7z"/>
		<circle class="st3" cx="281.2" cy="18.3" r="7.7"/>
		<path class="st0" d="M288.8,18.3c-0.1,0,0-0.7-0.3-1.8c-0.4-1.6-1.4-3.1-2.8-4.1c-0.9-0.7-2-1.2-3.1-1.4c-1.3-0.2-2.7-0.1-3.9,0.3
			c-1.4,0.5-2.6,1.4-3.5,2.6c-1.9,2.6-1.9,6.2,0,8.8c0.9,1.2,2.1,2.1,3.4,2.6c1.2,0.5,2.6,0.6,3.9,0.3c1.1-0.2,2.2-0.7,3.1-1.4
			c1.4-1,2.4-2.5,2.8-4.1C288.7,19,288.7,18.3,288.8,18.3c0,0.2,0,0.3,0,0.5c0,0.5-0.1,0.9-0.2,1.4c-0.7,3-3.1,5.3-6.1,5.8
			c-3,0.6-6-0.6-7.8-3.1c-2.1-2.8-2.1-6.6,0-9.4c0.9-1.3,2.2-2.2,3.7-2.7c2.5-0.9,5.3-0.5,7.4,1.2c1.4,1.1,2.4,2.6,2.8,4.4
			c0.1,0.5,0.2,0.9,0.2,1.4C288.9,18,288.9,18.2,288.8,18.3z"/>
		<path class="st0" d="M298.1,23.5c-0.1,0-0.2-1.5-0.8-3.8c-0.3-1.4-0.8-2.7-1.3-4c-1.3-3.2-3.2-6.1-5.6-8.6c-1-1-2-2-3.1-2.9
			c-1.9-1.5-3.2-2.2-3.1-2.3c0.3,0.1,0.7,0.3,1,0.4c0.4,0.2,0.7,0.4,1.1,0.6c0.4,0.3,0.9,0.6,1.4,0.9c1.1,0.8,2.2,1.8,3.2,2.8
			c2.4,2.5,4.4,5.5,5.7,8.8c0.5,1.3,0.9,2.7,1.2,4.1c0.1,0.6,0.2,1.1,0.3,1.6c0.1,0.4,0.1,0.8,0.1,1.2
			C298.2,22.8,298.2,23.1,298.1,23.5z"/>
		<path class="st0" d="M296.1,24.5c-0.1,0-0.2-1.5-0.8-3.9c-0.4-1.4-0.8-2.7-1.4-4.1c-0.7-1.6-1.5-3.2-2.4-4.6c-1-1.5-2-2.8-3.2-4.1
			c-1-1.1-2-2-3.1-2.9c-1.9-1.5-3.2-2.3-3.2-2.4c0.4,0.1,0.7,0.3,1,0.5c0.4,0.2,0.7,0.4,1.1,0.7c0.4,0.3,0.9,0.6,1.4,1
			c1.2,0.9,2.2,1.8,3.2,2.8c1.2,1.3,2.3,2.7,3.3,4.2c0.9,1.5,1.8,3.1,2.4,4.7c0.5,1.3,1,2.7,1.3,4.2c0.1,0.6,0.2,1.2,0.3,1.6
			c0.1,0.4,0.1,0.8,0.1,1.2C296.1,23.8,296.1,24.2,296.1,24.5z"/>
	</g>
	<g id="freepik--Plant--inject-47">
		<path class="st2" d="M62,342.5c-0.9-3.4,1.4-6.8,3.9-9.2s5.5-4.6,6.8-7.9c2.1-5.3-0.7-12.1,3-16.5c2.1-2.6,5.9-3.4,7.8-6.2
			c0.9-1.5,1.5-3.2,1.7-4.9c2-8.8,6.4-16.8,12.6-23.3c0.4,7.8-1.3,15.6-5,22.5c-1.5,2.8-3.3,5.5-3.8,8.5c-0.8,5,2,10.2,0.7,15.1
			c-1.4,5.6-7.8,9.4-8.1,15.1c-0.3,4.9,4,9.2,3.6,14.1c-0.3,2.1-1,4.1-2.2,5.8c-3.9,6.2-9.5,10.6-17.9,10.4l-10.3,0.3L62,342.5z"/>
		<g class="st4">
			<path d="M62,342.5c-0.9-3.4,1.4-6.8,3.9-9.2s5.5-4.6,6.8-7.9c2.1-5.3-0.7-12.1,3-16.5c2.1-2.6,5.9-3.4,7.8-6.2
				c0.9-1.5,1.5-3.2,1.7-4.9c2-8.8,6.4-16.8,12.6-23.3c0.4,7.8-1.3,15.6-5,22.5c-1.5,2.8-3.3,5.5-3.8,8.5c-0.8,5,2,10.2,0.7,15.1
				c-1.4,5.6-7.8,9.4-8.1,15.1c-0.3,4.9,4,9.2,3.6,14.1c-0.3,2.1-1,4.1-2.2,5.8c-3.9,6.2-9.5,10.6-17.9,10.4l-10.3,0.3L62,342.5z"/>
		</g>
		<path class="st0" d="M52.7,366.6c-0.9,0.1-1.9,0.1-2.8-0.1c-1.1-0.2-2.3-0.5-3.3-0.9c-1.5-0.5-2.9-1.3-4.1-2.3
			c-0.7-0.6-1.3-1.4-1.7-2.3c-0.3-1-0.5-2-0.5-3.1c0-1.1-0.1-2.2-0.2-3.4c-0.2-1.2-0.6-2.3-1.2-3.3c-1.2-2.1-3.2-4.2-3.8-7.1
			s-0.2-6,0.3-9s1-6.5-0.2-9.7c-1.2-3.2-3.3-6.2-4.5-9.8s-0.6-7.6-0.8-11.5c-0.1-2-0.5-3.9-1.3-5.8c-0.8-1.8-2-3.6-2.9-5.5
			c-1.8-3.9-2.1-8.3-2.6-12.6c-0.2-2.2-0.5-4.4-0.7-6.6c-0.1-2.2-0.5-4.5-1.1-6.6c-0.7-2.2-1.5-4.3-2.4-6.4
			c-0.5-1.1-0.9-2.2-1.2-3.4c-0.2-1.2-0.3-2.4-0.3-3.6c-0.1-2.4,0-4.8,0.3-7.1c0.3-2.4,0.7-4.8,1-7.1c0-0.1,0-0.3,0-0.4l0-0.5
			l0.4,0.2c2.2,1.1,4.1,2.7,5.5,4.7c1.4,1.9,2.6,4.1,3.4,6.3c1.7,4.5,2.3,9.1,3.1,13.6s1.9,8.8,4.2,12.5c1.1,1.9,2.5,3.5,3.7,5.3
			c1.3,1.8,2.1,3.8,2.5,5.9c0.6,4.4-1.8,8.2-1.4,12.1c0.3,1.9,0.9,3.7,1.9,5.4c0.9,1.7,2,3.2,3.1,4.7c1.1,1.5,2,3.1,2.8,4.8
			c0.7,1.6,1.2,3.4,1.3,5.2c0.2,3.5-0.3,6.8,0,9.9c0.3,3,1.1,5.9,2.5,8.5c1.2,2.5,2.6,4.9,3.8,7.1c0.6,1.1,1.1,2.2,1.6,3.3
			c0.4,1.1,0.7,2.2,0.9,3.3c0.3,2,0.3,3.9,0,5.9c-0.3,2.7-1.3,5.3-3,7.5c-0.3,0.3-0.5,0.6-0.8,0.9c-0.2,0.2-0.4,0.4-0.7,0.6
			L52.7,366.6c0.8-0.6,1.4-1.3,2-2c1.6-2.2,2.6-4.8,2.8-7.5c0.2-1.9,0.2-3.9-0.1-5.8c-0.2-1.1-0.5-2.2-0.9-3.2
			c-0.4-1.1-1-2.1-1.6-3.3c-1.2-2.2-2.6-4.5-3.8-7.1c-1.4-2.7-2.3-5.6-2.6-8.7c-0.3-3.2,0.2-6.5,0-9.9c-0.1-1.7-0.5-3.4-1.2-5
			c-0.8-1.6-1.7-3.2-2.7-4.7c-1-1.5-2.1-3.1-3.1-4.8c-1-1.7-1.7-3.6-1.9-5.6c-0.5-4.1,1.9-8,1.3-12c-0.4-2-1.2-4-2.5-5.6
			c-1.2-1.8-2.5-3.5-3.7-5.4c-2.3-3.8-3.4-8.3-4.3-12.7s-1.5-9.1-3.1-13.4c-0.8-2.2-1.9-4.3-3.3-6.1c-1.4-1.9-3.2-3.4-5.3-4.5
			l0.5-0.3l0,0.4c-0.3,2.4-0.7,4.8-1,7.1c-0.3,2.3-0.4,4.7-0.3,7c0.1,1.1,0.1,2.4,0.3,3.5c0.3,1.1,0.7,2.2,1.1,3.2
			c0.9,2.1,1.8,4.3,2.5,6.5c0.6,2.2,1,4.4,1.1,6.7c0.2,2.2,0.5,4.4,0.7,6.6c0.5,4.4,0.8,8.7,2.5,12.5c0.9,1.9,2,3.6,2.9,5.5
			c0.8,1.9,1.3,3.9,1.4,6c0.2,4-0.3,7.9,0.7,11.4c1.1,3.5,3.3,6.5,4.4,9.8c1.1,3.4,0.7,6.9,0.2,10c-0.5,3.1-1,6.1-0.4,8.9
			c0.6,2.8,2.5,4.8,3.8,7c0.6,1.1,1.1,2.2,1.3,3.5c0.1,1.1,0.2,2.3,0.2,3.4c0,1,0.1,2,0.4,3c0.3,0.9,0.9,1.6,1.6,2.2
			c1.2,1,2.6,1.8,4,2.3c1.1,0.4,2.2,0.7,3.3,0.9c0.7,0.1,1.4,0.2,2.1,0.2C52.5,366.6,52.7,366.6,52.7,366.6z"/>
		<path class="st0" d="M20.7,244.6c0,0.1,0.1,0.2,0.1,0.3c0,0.2,0.1,0.5,0.2,0.9c0.2,0.8,0.4,2,0.8,3.6s1.3,3.3,2.1,5.4
			c0.8,2.1,1.7,4.6,2.4,7.3s1.5,5.8,2.2,9.1c0.6,3.5,1.7,6.9,3.2,10.2c0.8,1.7,1.8,3.4,2.5,5.2c0.7,1.9,1.2,3.9,1.5,5.9
			c0.5,4.2,1.2,8.4,2.2,12.5c2,8.5,4,16.6,5.7,23.9s3.4,13.9,4.8,19.5s2.4,10,3.2,13.2l0.8,3.6c0.1,0.4,0.2,0.7,0.2,0.9
			c0,0.1,0,0.2,0,0.3c-0.1-0.1-0.1-0.2-0.1-0.3l-0.3-0.9c-0.2-0.9-0.6-2-1-3.6l-3.4-13.1c-1.4-5.6-3.1-12.2-4.9-19.5
			s-3.7-15.4-5.8-23.9c-0.9-4.2-1.6-8.4-2.1-12.6c-0.2-2-0.7-3.9-1.4-5.8c-0.7-1.8-1.7-3.5-2.5-5.2c-1.5-3.2-2.6-6.7-3.2-10.2
			c-0.7-3.3-1.3-6.4-2.1-9.1s-1.5-5.2-2.3-7.3c-0.8-2.1-1.6-3.9-2-5.5s-0.5-2.8-0.7-3.6c-0.1-0.4-0.1-0.7-0.2-1
			C20.8,244.9,20.7,244.7,20.7,244.6z"/>
		<path class="st2" d="M50.9,366.6c-6.7-4-8.6-16.2-5.7-23.6s7.8-14,8.6-21.8c0.6-6-1.3-12.2,0.1-18c1.9-7.9,9.7-14,9.7-22.2
			c0-4.6-2.6-8.9-2.4-13.5c0.3-5.6,4.6-10,7.3-14.9c4.1-7.5,4.4-16.5,5.9-24.9s4.7-17.5,12.2-21.6c1.1,7.2,2.9,12.1,2.3,21.9
			c-0.2,3.5-4.3,10.2-4.9,17.8c-0.3,4.6-0.6,9.2-0.9,13.8c-0.3,4.6-0.6,9-2.2,13.2c-1.2,3.2-3.2,6.1-4.2,9.4c-1.8,6.2,0.5,13-1,19.2
			c-1.2,5.3-4.9,9.9-5.7,15.3c-1.1,7.6,3.8,15.5,1.2,22.8c-1.3,3.6-4.2,6.5-5.1,10.2c-0.7,2.9,0,5.9-0.6,8.8
			c-1,4.7-9.9,8.2-14.7,7.9"/>
		<path class="st0" d="M84.7,213.2c0,0.1,0,0.3,0,0.4c0,0.3-0.1,0.7-0.2,1.2c-0.2,1-0.3,2.6-0.7,4.5s-1.4,4.2-2.3,6.9
			s-1.8,5.8-2.5,9.2s-1.4,7.3-2.2,11.4s-1.5,8.6-3.5,12.9c-1,2.1-2,4.3-2.8,6.6c-0.8,2.4-1.3,4.8-1.5,7.3
			c-0.4,5.3-1.1,10.5-2.1,15.7c-2.1,10.6-4.2,20.8-6,30l-5.2,24.4c-1.5,6.9-2.7,12.5-3.5,16.5c-0.4,1.9-0.8,3.4-1,4.5l-0.3,1.2
			c0,0.1-0.1,0.3-0.1,0.4c0-0.1,0-0.3,0-0.4c0.1-0.3,0.1-0.7,0.2-1.2c0.2-1.1,0.5-2.6,0.9-4.5c0.8-3.9,1.9-9.6,3.3-16.5
			s3.1-15.3,5-24.5l6-30c1-5.2,1.7-10.4,2.1-15.7c0.2-2.5,0.7-5,1.5-7.4c0.8-2.3,1.9-4.5,2.9-6.6c2.1-4.2,2.8-8.6,3.6-12.8
			s1.4-8,2.2-11.4s1.7-6.6,2.6-9.2s1.9-4.9,2.3-6.8s0.6-3.5,0.8-4.5c0.1-0.5,0.2-0.9,0.2-1.2C84.6,213.5,84.7,213.3,84.7,213.2z"/>
	</g>
	<g id="freepik--Gears--inject-47">
		<path class="st0" d="M147.7,238.5c0.5,0.1,1,0.2,1.5,0.5c2.3,1.1,3.7,3.4,3.6,5.9c0,1.2-0.4,2.3-1,3.3c-0.7,1.1-1.7,1.9-2.9,2.5
			c-2.6,1.2-5.7,0.5-7.5-1.7c-0.4-0.5-0.8-1.1-1-1.6c-0.3-0.6-0.4-1.2-0.5-1.8c-0.1-1.2,0-2.3,0.5-3.4c1-2.3,3.3-3.8,5.8-3.8
			C146.7,238.2,147.2,238.3,147.7,238.5c0.1,0-0.5-0.1-1.5-0.1c-1.4,0.1-2.8,0.6-3.8,1.5c-0.7,0.6-1.3,1.4-1.7,2.3
			c-0.4,1-0.6,2.1-0.4,3.2c0.1,0.6,0.2,1.2,0.5,1.7c0.2,0.6,0.6,1.1,1,1.6c1.8,2,4.6,2.7,7.1,1.6c0.6-0.2,1.1-0.6,1.6-1
			c0.5-0.4,0.9-0.8,1.2-1.3c1.9-2.9,1-6.8-1.9-8.6c-0.2-0.1-0.3-0.2-0.5-0.3C148.2,238.6,147.7,238.5,147.7,238.5z"/>
		<path class="st0" d="M152.8,231.7c0-0.1,0-0.1,0-0.2c0-0.2,0-0.4,0-0.7c0-0.6,0-1.5,0-2.7l0.1,0.1l-5.8-1.3l0.1,0l-1.5,3.2v0.1
			h-0.1c-1.3,0.1-2.5,0.3-3.8,0.7h-0.1l-0.1,0l-2.5-2.5h0l-5,3.2l0.1-0.2l1.2,3.4v0.1l-0.1,0.1c-0.9,0.9-1.6,2-2.2,3.1v0.1h0h-3.6
			l0.1-0.1c-0.4,1.8-0.8,3.8-1.3,5.8l-0.1-0.2l3.2,1.5l0.1,0v0.1c0.1,1.3,0.3,2.5,0.6,3.8v0.1l-0.1,0.1l-2.5,2.5v-0.2l3.2,5
			l-0.2-0.1l3.4-1.2h0.1l0.1,0.1c0.9,0.9,2,1.6,3.1,2.2l0,0c0.1,0.1-0.1-0.2,0.1,0.2l0,0v3.6l-0.1-0.2l5.8,1.3l-0.2,0.1
			c0.5-1.1,1-2.2,1.5-3.2l0.1-0.1h0.1c1.3,0,2.5-0.3,3.7-0.6h0.1l0.1,0.1l2.5,2.5h-0.2l5-3.1l-0.1,0.2c-0.4-1.1-0.8-2.3-1.2-3.4
			v-0.1l0.1-0.1c0.9-0.9,1.6-2,2.2-3.1v-0.1h3.7l-0.1,0.1c0.5-2,0.9-3.9,1.3-5.8l0.1,0.2l-3.2-1.5h-0.1v-0.1c0-1.3-0.3-2.5-0.6-3.8
			v-0.1v0l2.5-2.5v0.1l-3.1-5h0.1l-3.4,1.2l0,0l0,0c-0.7-0.7-1.5-1.2-2.3-1.8l-0.6-0.4L152.8,231.7l0.2,0.2l0.6,0.3
			c0.8,0.5,1.6,1.1,2.3,1.7h-0.1l3.4-1.2h0.1v0.1l3.2,5v0.1l-0.1,0.1l-2.5,2.5v-0.1c0.4,1.2,0.6,2.5,0.7,3.8l-0.1-0.1l3.2,1.5l0.1,0
			v0.1c-0.4,1.8-0.8,3.7-1.3,5.8v0.1h-3.7l0.1-0.1c-0.6,1.2-1.4,2.2-2.2,3.2v-0.2c0.4,1.1,0.8,2.2,1.2,3.4l0.1,0.1l-0.1,0.1l-5,3.2
			l-0.1,0.1l-0.1-0.1l-2.5-2.5h0.2c-1.2,0.4-2.5,0.6-3.8,0.7l0.1-0.1c-0.5,1.1-1,2.1-1.5,3.2l-0.1,0.1h-0.1l-5.8-1.3H139v-3.8l0,0
			c0.2,0.3,0,0.1,0.1,0.2l0,0c-1.2-0.6-2.2-1.4-3.2-2.2h0.2l-3.4,1.2l-0.1,0l-0.1-0.1l-3.2-5l-0.1-0.1l0.1-0.1l2.5-2.5v0.2
			c-0.4-1.2-0.6-2.5-0.7-3.8l0.1,0.1l-3.2-1.5l-0.1-0.1v-0.1l1.3-5.8v-0.1h3.8l-0.1,0.1c0.6-1.2,1.4-2.2,2.2-3.2v0.1l-1.2-3.4v-0.1
			l0.1-0.1l5-3.1l0.1,0l0.1,0.1l2.5,2.5h-0.1c1.2-0.4,2.5-0.6,3.8-0.6l-0.1,0.1l1.6-3.2v-0.1h0.1l5.8,1.3h0.1l0,0c0,1.1,0,2,0,2.6
			c0,0.3,0,0.5,0,0.7C152.9,231.5,152.8,231.6,152.8,231.7z"/>
		<path class="st2" d="M141.9,186.8c1.3,0.7,2.4,1.5,3.5,2.5l3.7-1.3l3.5,5.5l-2.8,2.8c0.4,1.4,0.7,2.8,0.7,4.2l3.6,1.7l-1.4,6.3
			h-3.9c-0.7,1.3-1.5,2.4-2.5,3.5l1.3,3.7l-5.5,3.5l-2.8-2.7c-1.4,0.4-2.8,0.7-4.2,0.7l-1.7,3.6l-6.4-1.4v-3.9
			c-1.3-0.7-2.4-1.5-3.5-2.5l-3.7,1.3l-3.5-5.5l2.8-2.8c-0.4-1.4-0.7-2.8-0.7-4.2l-3.6-1.7l1.4-6.4h3.9c0.7-1.3,1.5-2.4,2.4-3.5
			l-1.3-3.7l5.5-3.5l2.8,2.8c1.4-0.4,2.8-0.7,4.2-0.7l1.7-3.6l6.4,1.4L141.9,186.8L141.9,186.8z M136.2,194.3
			c-3.8-0.8-7.5,1.5-8.4,5.3c-0.8,3.8,1.5,7.5,5.3,8.4c3.8,0.8,7.5-1.5,8.4-5.3C142.4,198.9,140,195.2,136.2,194.3
			C136.3,194.3,136.3,194.3,136.2,194.3z"/>
		<g class="st5">
			<path class="st6" d="M141.9,186.8c1.3,0.7,2.4,1.5,3.5,2.5l3.7-1.3l3.5,5.5l-2.8,2.8c0.4,1.4,0.7,2.8,0.7,4.2l3.6,1.7l-1.4,6.3
				h-3.9c-0.7,1.3-1.5,2.4-2.5,3.5l1.3,3.7l-5.5,3.5l-2.8-2.7c-1.4,0.4-2.8,0.7-4.2,0.7l-1.7,3.6l-6.4-1.4v-3.9
				c-1.3-0.7-2.4-1.5-3.5-2.5l-3.7,1.3l-3.5-5.5l2.8-2.8c-0.4-1.4-0.7-2.8-0.7-4.2l-3.6-1.7l1.4-6.4h3.9c0.7-1.3,1.5-2.4,2.4-3.5
				l-1.3-3.7l5.5-3.5l2.8,2.8c1.4-0.4,2.8-0.7,4.2-0.7l1.7-3.6l6.4,1.4L141.9,186.8L141.9,186.8z M136.2,194.3
				c-3.8-0.8-7.5,1.5-8.4,5.3c-0.8,3.8,1.5,7.5,5.3,8.4c3.8,0.8,7.5-1.5,8.4-5.3C142.4,198.9,140,195.2,136.2,194.3
				C136.3,194.3,136.3,194.3,136.2,194.3z"/>
		</g>
		<path class="st2" d="M118.8,224.3c0.7,0.4,1.4,0.9,2,1.4l2.2-0.8l2,3.2l-1.6,1.6c0.2,0.8,0.4,1.6,0.4,2.4l2.1,1l-0.7,3.7h-2.3
			c-0.4,0.7-0.9,1.4-1.4,2l0.8,2.2l-3.2,2l-1.6-1.6c-0.8,0.2-1.6,0.4-2.4,0.4l-1,2.1l-3.7-0.8v-2.3c-0.7-0.4-1.4-0.9-2-1.4l-2.2,0.8
			l-2-3.2l1.6-1.6c-0.2-0.8-0.4-1.6-0.4-2.4l-2.1-1l0.8-3.7h2.2c0.4-0.7,0.9-1.4,1.4-2l-0.8-2.2l3.2-2l1.6,1.6
			c0.8-0.3,1.6-0.4,2.4-0.4l1-2.1l3.7,0.8L118.8,224.3L118.8,224.3z M115.6,228.7c-2.2-0.5-4.4,0.9-4.9,3.1
			c-0.5,2.2,0.9,4.4,3.1,4.9c2.2,0.5,4.4-0.9,4.9-3.1c0,0,0,0,0,0C119.1,231.4,117.8,229.2,115.6,228.7L115.6,228.7z"/>
		<g class="st7">
			<path class="st6" d="M118.8,224.3c0.7,0.4,1.4,0.9,2,1.4l2.2-0.8l2,3.2l-1.6,1.6c0.2,0.8,0.4,1.6,0.4,2.4l2.1,1l-0.7,3.7h-2.3
				c-0.4,0.7-0.9,1.4-1.4,2l0.8,2.2l-3.2,2l-1.6-1.6c-0.8,0.2-1.6,0.4-2.4,0.4l-1,2.1l-3.7-0.8v-2.3c-0.7-0.4-1.4-0.9-2-1.4
				l-2.2,0.8l-2-3.2l1.6-1.6c-0.2-0.8-0.4-1.6-0.4-2.4l-2.1-1l0.8-3.7h2.2c0.4-0.7,0.9-1.4,1.4-2l-0.8-2.2l3.2-2l1.6,1.6
				c0.8-0.3,1.6-0.4,2.4-0.4l1-2.1l3.7,0.8L118.8,224.3L118.8,224.3z M115.6,228.7c-2.2-0.5-4.4,0.9-4.9,3.1
				c-0.5,2.2,0.9,4.4,3.1,4.9c2.2,0.5,4.4-0.9,4.9-3.1c0,0,0,0,0,0C119.1,231.4,117.8,229.2,115.6,228.7L115.6,228.7z"/>
		</g>
	</g>
	<g id="freepik--Character--inject-47">
		<path class="st0" d="M339.7,187.5c4.3-1.2,7.2-5.3,7.1-9.8c-0.1-2-0.9-3.9-0.8-5.8c0.1-3,2.1-5.6,3.7-8.2s2.5-6.1,0.8-8.6
			c-1.1-1.6-3.2-2.3-4.6-3.7s-2-3.3-2.7-5.1s-1.7-3.6-3.4-4.6s-4.2-0.5-4.9,1.3"/>
		<path class="st0" d="M321.5,138.2c3-1.9,3.7-6.3,2.1-9.5c-1.6-3.1-5.1-5.1-8.6-5.6c-5.2-0.8-10.4,0.9-14.1,4.7
			c-1.9,2-3.5,4.6-6.1,5.5c-2.3,0.8-4.9,0.1-7.3,0.4c-3.3,0.6-6.1,2.6-7.7,5.5c-1.5,2.9-2.5,6.1-2.7,9.4c-0.4,3-0.6,6.2-2.6,8.4
			s-5.2,2.6-7.7,4.1c-4.8,3.2-6.2,9.6-3.1,14.4c1,1.4,2.4,2.8,2.5,4.5s-0.9,3-1.4,4.6c-1,3.8,1.3,7.7,5.1,8.7c0.3,0.1,0.6,0.1,1,0.2
			c2.1,0.1,4.3-0.7,6.2,0.2s2.5,3.2,3.7,4.9c2.5,3.4,7,4.5,10.9,2.8c1.5-0.8,3-2,4.7-1.9s3,1.6,4.7,1.9c2.2,0.4,4.3-1.2,5.6-3
			s2.2-3.9,3.9-5.4c2.2-1.9,5.2-2.4,8-3.4c11.8-4.1,18-16.9,13.9-28.7c-0.3-1-0.8-2-1.2-2.9"/>
		<path class="st8" d="M328.1,142.1c2.5,0.3,4.3,2.4,4.3,4.9l0,0l-2.9,64.7c-0.1,7.6-11.3,11.9-19.5,11.7l0,0
			c-8.3-0.2-8.5-4.2-8.6-11.5c-0.2-12.1-0.1-16.7-0.2-16.6s-10.4-1.8-12.6-15.4c-1.1-6.8-0.7-17.9-0.1-26.9
			c0.5-8.2,6-18.2,14.1-17.3L328.1,142.1z"/>
		<path class="st0" d="M291.6,161.8c0,0.9,0.7,1.7,1.7,1.8c0.9,0.1,1.7-0.6,1.8-1.5c0,0,0,0,0,0c0-0.9-0.7-1.7-1.7-1.8
			C292.5,160.1,291.7,160.8,291.6,161.8C291.6,161.8,291.6,161.8,291.6,161.8z"/>
		<path class="st0" d="M291,158.7c0.2,0.2,1.5-0.8,3.4-0.7s3.2,0.9,3.5,0.7s-0.1-0.5-0.7-0.9c-0.8-0.6-1.8-0.9-2.8-0.9
			c-1,0-1.9,0.3-2.7,0.9C291.1,158.2,290.9,158.6,291,158.7z"/>
		<path class="st0" d="M310.3,161.8c0,0.9,0.7,1.7,1.7,1.8c0.9,0.1,1.7-0.6,1.8-1.5c0,0,0,0,0,0c0-0.9-0.7-1.7-1.7-1.8
			C311.2,160.1,310.4,160.8,310.3,161.8C310.3,161.7,310.3,161.8,310.3,161.8z"/>
		<path class="st0" d="M309.5,159.1c0.2,0.2,1.5-0.8,3.4-0.7s3.2,1,3.5,0.7s-0.1-0.5-0.7-0.9c-0.8-0.6-1.8-0.9-2.8-0.9
			c-1,0-1.9,0.3-2.7,0.9C309.5,158.6,309.4,159,309.5,159.1z"/>
		<path class="st0" d="M302.6,173.1c-1-0.3-2-0.5-3-0.6c-0.5-0.1-0.9-0.1-1-0.5c0-0.5,0.1-1,0.3-1.4c0.5-1.2,0.9-2.4,1.4-3.6
			c2-5.2,3.4-9.5,3.2-9.6s-2,4.1-4,9.3c-0.5,1.3-0.9,2.5-1.4,3.7c-0.3,0.6-0.4,1.2-0.3,1.9c0.1,0.3,0.4,0.6,0.8,0.7
			c0.3,0.1,0.5,0.1,0.8,0.1C300.6,173.2,301.6,173.2,302.6,173.1z"/>
		<path class="st9" d="M301.3,195.3c6.4,0.1,12.7-1.6,18.2-4.8c0,0-4.6,9.6-18.2,8.3V195.3z"/>
		<path class="st2" d="M303.4,177.6c0.7-0.9,1.9-1.4,3-1.2c0.8,0.1,1.6,0.5,2.1,1.1c0.5,0.6,0.6,1.5,0.1,2.2
			c-0.6,0.7-1.6,0.9-2.5,0.6c-0.9-0.3-1.7-0.8-2.4-1.4c-0.2-0.2-0.4-0.3-0.5-0.6c-0.1-0.2-0.1-0.5,0-0.7"/>
		<path class="st0" d="M308.1,174.4c-0.3,0-0.3,2-2.1,3.5c-1.8,1.5-3.9,1.2-3.9,1.5c0,0.1,0.5,0.4,1.4,0.4c1.2,0,2.4-0.4,3.3-1.1
			c0.9-0.7,1.5-1.8,1.6-2.9C308.5,174.9,308.3,174.4,308.1,174.4z"/>
		<path class="st0" d="M308.6,155.8c0.2,0.5,2.1,0.3,4.3,0.5s4,0.9,4.3,0.4c0.1-0.2-0.2-0.7-0.9-1.2c-1.9-1.2-4.3-1.5-6.5-0.7
			C308.9,155.2,308.5,155.6,308.6,155.8z"/>
		<path class="st0" d="M291.7,153.3c0.3,0.4,1.6,0,3.2,0s2.9,0.3,3.2-0.1c0.1-0.2-0.1-0.6-0.6-1.1c-1.6-1-3.6-0.9-5.1,0.1
			C291.7,152.7,291.5,153.1,291.7,153.3z"/>
		<path class="st0" d="M319.1,137.7c3.1-2.2,7.1-2.9,10.8-2c3.6,1,6.6,4.3,6.8,8c0.1,2.4-1,5,0.1,7.1s3.5,2.9,5.3,4.4
			c2.8,2.5,3.6,6.5,1.9,9.8c-1.5,2.7-4.6,4.7-4.9,7.8c-0.2,2.9,2.2,5.4,2.8,8.2c0.6,3.1-1.1,6.4-3.6,8.5s-5.6,3.2-8.7,4.3
			c-2.4,0.9-5,1.8-7.5,1.2c-3-0.8-5.2-3.3-5.6-6.4c-0.3-3,0.7-6,2.8-8.2c1.8-1.9,4.2-3.6,4.6-6.1c0.6-4-4.1-7.2-3.8-11.2
			c0.1-2.1,1.6-3.8,2.8-5.5s2.3-3.8,1.5-5.8c-1-2.5-4.3-3.2-6.3-5c-1.7-1.6-2.3-4-1.7-6.2c0.7-2.2,2.6-3.8,4.9-4.2"/>
		<path class="st0" d="M320.6,134.6c0,5.1-4.1,9.3-9.3,9.4c-0.6,0-1.2,0-1.7-0.2c-2.1-0.4-4.4-1.4-6.2-0.3s-2,4-3.6,5.5
			c-2.4,2.1-6.2,0.1-9.3,1c-2.4,0.7-3.8,2.9-5.4,4.8s-3.9,3.7-6.3,3c0.1-2.1,0.4-4.2,0.9-6.3c0.6-2.1,1.8-3.9,3.6-5.1
			c1-0.5,2-1.1,3-1.8c2-1.6,2.4-4.3,3.6-6.5c1.6-2.9,4.5-4.8,7.8-5.2c2.7-0.3,5.4,0.5,8-0.1c1.9-0.5,3.6-1.7,5.6-2.1
			c3.8-0.7,7.4,2,10.1,4.7"/>
		<path class="st10" d="M345.5,167.2c0.3-0.5,0.4-1,0.3-1.6c-0.3-1.5-1.3-2.7-2.8-3.1c-1-0.3-2-0.6-3-0.8c-1.2-0.2-2.4-0.7-3.4-1.4
			c-1.1-0.9-1.7-2.2-1.8-3.6c0-1.4,0.1-2.9,0.2-4.3c0-0.7,0-1.4-0.1-2.1c-0.1-0.6-0.4-1.3-0.8-1.8c-0.9-0.9-2-1.6-3.3-1.9
			c-1.2-0.3-2.3-0.8-3.3-1.4c-0.9-0.5-1.7-1.2-2.5-2c-1.1-1.1-1.9-2.4-2.4-3.9c-0.2-0.4-0.3-0.8-0.4-1.2c-0.1-0.3-0.1-0.4-0.1-0.4
			s0.2,0.6,0.6,1.6c1.5,3.5,4.5,6,8.2,6.9c1.3,0.3,2.6,1,3.5,2c0.5,0.6,0.8,1.3,0.9,2c0.1,0.7,0.2,1.5,0.1,2.2
			c-0.1,1.4-0.2,2.8-0.2,4.2c0,1.3,0.6,2.5,1.5,3.3c1,0.7,2,1.1,3.2,1.4c1,0.2,2,0.5,3,0.9c0.8,0.3,1.6,0.9,2.1,1.6
			c0.4,0.5,0.6,1.2,0.7,1.9c0,0.4-0.1,0.9-0.2,1.2C345.6,167.1,345.5,167.2,345.5,167.2z"/>
		<path class="st10" d="M265.3,175.7l-0.2-0.1c-0.2-0.1-0.4-0.3-0.5-0.5c-0.4-0.9-0.3-1.9,0.3-2.7c0.3-0.6,0.8-1.1,1.5-1.4
			c0.7-0.4,1.4-0.7,2.2-0.9c0.8-0.3,1.6-0.7,2.3-1.3c0.7-0.7,1.1-1.6,1.3-2.6c0.2-1,0.3-2.1,0.5-3.3c0.1-1.2,0.6-2.4,1.4-3.4
			c1.6-2.1,4.2-3.2,6.1-5.1c1-1,1.7-2.3,2.1-3.6c0.5-1.4,0.8-2.9,1-4.4c0.4-3,0.9-6.3,2.9-9.1c1-1.4,2.5-2.3,4.1-2.6
			c1.6-0.2,3.2-0.2,4.7,0.1c1.5,0.3,2.9,0.4,4.4,0.3c1.4-0.2,2.7-0.8,3.6-1.9c1.9-2,2.9-4.7,5.2-6.1c2.1-1.3,4.6-1.6,6.9-0.9
			c1.9,0.5,3.5,1.8,4.5,3.5c0.8,1.3,1.2,2.7,1.2,4.2c0,0.9-0.1,1.8-0.4,2.7c-0.1,0.3-0.2,0.6-0.4,0.9c0,0,0.1-0.3,0.3-0.9
			c0.3-0.9,0.4-1.8,0.3-2.7c-0.1-1.4-0.5-2.8-1.2-4.1c-1-1.6-2.5-2.8-4.4-3.3c-2.2-0.6-4.6-0.2-6.5,1c-1,0.7-1.9,1.6-2.6,2.7
			c-0.7,1.2-1.6,2.3-2.5,3.3c-0.5,0.5-1.1,1-1.7,1.4c-0.7,0.3-1.4,0.6-2.2,0.7c-1.5,0.1-3.1,0-4.6-0.2c-1.5-0.3-3.1-0.3-4.6-0.1
			c-1.5,0.3-2.9,1.2-3.8,2.5c-0.9,1.3-1.6,2.7-2,4.3c-0.4,1.5-0.6,3-0.8,4.6c-0.2,1.5-0.5,3-1,4.4c-0.5,1.4-1.2,2.7-2.3,3.8
			c-2,2-4.6,3.1-6.1,5.1c-0.7,0.9-1.2,2.1-1.3,3.2c-0.2,1.1-0.3,2.3-0.5,3.3c-0.2,1-0.7,2-1.4,2.7c-0.7,0.6-1.5,1.1-2.4,1.3
			c-0.7,0.2-1.5,0.5-2.2,0.9c-0.6,0.3-1.1,0.7-1.4,1.3c-0.5,0.7-0.7,1.7-0.4,2.5C264.8,175.3,265.1,175.5,265.3,175.7z"/>
		<path class="st2" d="M231.9,269.5l24.2-2.2c0,0,14.9-39.2,33.2-48.6l11.9,20.7l-25.4,47.7h-49.6L231.9,269.5z"/>
		<path class="st11" d="M231.9,269.5l24.2-2.2c0,0,14.9-39.2,33.2-48.6l11.9,20.7l-25.4,47.7h-49.6L231.9,269.5z"/>
		<path class="st3" d="M241.4,280.5c1.2-2.7,2.7-5.2,4.5-7.6C244.7,275.6,243.2,278.1,241.4,280.5z"/>
		<path class="st3" d="M258.5,280c-2.1-2.1-3.9-4.3-5.5-6.8c1.1,1,2.1,2,3,3.2C257,277.5,257.8,278.7,258.5,280z"/>
		<path class="st3" d="M261.5,271c-0.3-2.1-0.3-4.2,0-6.3C261.9,266.8,261.9,268.9,261.5,271z"/>
		<path class="st3" d="M253,285c-0.8-0.2-1.6-0.6-2.3-1.2c-1.2-0.8-2.1-1.5-2-1.6c0.8,0.2,1.6,0.7,2.3,1.2
			C252.1,284.2,253.1,284.9,253,285z"/>
		<path class="st3" d="M266.9,249c-0.4,1.5-1,3-1.7,4.4c-0.6,1.5-1.3,2.9-2.1,4.2c0.4-1.5,0.9-3,1.7-4.4
			C265.3,251.7,266,250.3,266.9,249z"/>
		<path class="st3" d="M276.7,233.2c0.1,0.1-0.8,0.9-1.9,1.8c-0.7,0.6-1.4,1.1-2.2,1.4c-0.1-0.1,0.8-0.9,1.9-1.8
			C275.1,233.9,275.8,233.5,276.7,233.2z"/>
		<path class="st2" d="M312.8,283.9l12.5-50.3c2.2-8.8,10.8-14.3,19.6-12.7l0,0c9.1,1.7,15.3,10.3,13.9,19.5l-7.6,49.2
			c-1.9,10.3-10.1,18.3-20.4,19.9l-9.9,1.5L312.8,283.9z"/>
		<path class="st0" d="M352,217.7c-1.3-1.1-2.8-1.8-4.5-2.2c-1.8-0.4-3.6-0.4-5.4,0c-2.1,0.5-4.1,1.6-5.8,3c-3.6,3.1-5.6,7-7,9.8
			c-0.7,1.4-1.2,2.6-1.5,3.4c-0.2,0.4-0.4,0.8-0.6,1.2c0.1-0.4,0.2-0.9,0.4-1.3c0.3-0.8,0.8-2,1.4-3.5c0.7-1.7,1.6-3.3,2.6-4.9
			c1.2-1.9,2.7-3.7,4.4-5.1c1.7-1.5,3.8-2.6,6-3.1c1.8-0.4,3.7-0.4,5.6,0.1c1.2,0.3,2.4,0.9,3.4,1.6c0.3,0.2,0.5,0.4,0.8,0.7
			C352,217.6,352.1,217.6,352,217.7z"/>
		<path class="st0" d="M281.5,229c-0.1,0.2-0.2,0.3-0.4,0.5l-1.1,1.3c-0.9,1.1-2.2,2.7-3.7,4.8c-4,5.4-6.9,11.5-8.5,18.1
			c-1.7,7.7-1.8,14.9-2.1,20c-0.1,2.6-0.2,4.7-0.4,6.1c-0.1,0.7-0.1,1.2-0.1,1.7c0,0.2,0,0.4-0.1,0.6c0-0.2,0-0.4,0-0.6
			c0-0.4,0-1,0-1.7c0-1.5,0.1-3.6,0.2-6.1c0.2-5.1,0.2-12.4,2-20.1c1.6-6.6,4.6-12.8,8.7-18.1c1.5-2.1,2.9-3.7,3.9-4.8
			c0.5-0.5,0.9-0.9,1.1-1.2C281.2,229.2,281.3,229.1,281.5,229z"/>
		<path class="st2" d="M361.3,228.9c-1.4-9-6.3-11.1-11.5-14c-1.7-0.9-9.8-3-16.2-4.6c-0.6-3.9-1.7-10.9-2-12.3
			c-0.3-2.1-32.8,3.1-33.2,3.9c-0.3,0.5-1,8.6-1.5,14l-7.8,2.7l-10.1,12.9l-5.3,7.5c-3.1,4.3-5.3,9.2-6.5,14.4
			c-1.1,5.7-1.6,11.6-1.5,17.4l-1.6,33l67.9,19.2l5.2-33.5l17.5-23.8C356.3,256,363,239.9,361.3,228.9z"/>
		<path class="st0" d="M303.4,216.9c-0.2-0.7-0.4-1.5-0.5-2.3c-0.2-1.4-0.5-3.4-0.7-5.6c-0.1-1.1-0.2-2.1-0.3-3.1
			c-0.1-0.8-0.2-1.7-0.2-2.5c0-0.6,0.2-1.2,0.5-1.7c0.3-0.3,0.5-0.4,0.5-0.4s-0.1,0.2-0.3,0.5c-0.2,0.5-0.3,1-0.3,1.6
			c0,0.7,0.2,1.5,0.3,2.5s0.2,2,0.4,3.1c0.2,2.2,0.5,4.2,0.6,5.6C303.4,215.3,303.5,216.1,303.4,216.9z"/>
		<path class="st0" d="M312.1,214.9c-0.3-0.7-0.6-1.4-0.7-2.1c-0.9-3.5-1.2-7-1-10.6c0-0.7,0.1-1.5,0.3-2.2c0.2,0-0.1,3.4,0.3,7.5
			S312.2,214.8,312.1,214.9z"/>
		<path class="st0" d="M328.1,212.5c0.2-2.5,0.1-5-0.2-7.5c-0.5-2.4-1.3-4.8-2.3-7.1c0.5,0.6,0.9,1.2,1.2,1.9
			c1.6,3.3,2.2,6.9,1.8,10.5C328.6,211,328.4,211.8,328.1,212.5z"/>
		<path class="st3" d="M282.1,241.9c1.5-2.9,3.6-5.6,6-7.9C286.2,236.7,284.3,239.4,282.1,241.9z"/>
		<path class="st3" d="M297.4,229.5c-1.9-1.9-3.6-4.1-5-6.5c1,0.9,1.9,2,2.7,3.1C296,227.1,296.8,228.2,297.4,229.5z"/>
		<path class="st3" d="M313.3,221.7c-1,1.2-2,2.2-3.2,3.2c-1,1.1-2.1,2.2-3.3,3.1c0.8-1.3,1.8-2.5,3-3.5
			C310.8,223.4,312,222.5,313.3,221.7z"/>
		<path class="st3" d="M308.9,212.2c-0.9-0.5-1.8-1.1-2.5-1.9c-0.8-0.6-1.6-1.4-2.1-2.3c0.9,0.5,1.8,1.1,2.5,1.9
			C307.6,210.5,308.3,211.3,308.9,212.2z"/>
		<path class="st3" d="M322.9,204.7c-1.1,0.5-2.2,0.8-3.4,1c-1.1,0.3-2.3,0.5-3.5,0.5c1.1-0.5,2.2-0.8,3.4-1
			C320.5,204.9,321.7,204.7,322.9,204.7z"/>
		<path class="st3" d="M325.6,226.9c-0.3-1.1-0.5-2.3-0.4-3.5c-0.1-1.2-0.1-2.4,0.1-3.5c0.3,1.1,0.5,2.3,0.4,3.5
			C325.9,224.5,325.8,225.7,325.6,226.9z"/>
		<path class="st3" d="M320.5,237.5c-0.7-1.3-1.3-2.6-1.8-4c-0.6-1.4-1-2.8-1.3-4.2C318.8,231.9,319.9,234.6,320.5,237.5
			L320.5,237.5z"/>
		<path class="st3" d="M306.7,245c-0.8-1.3-1.4-2.8-1.9-4.2c-0.6-1.4-1.1-2.9-1.4-4.4c0.8,1.3,1.4,2.8,1.9,4.2
			C305.9,242,306.4,243.5,306.7,245z"/>
		<path class="st3" d="M293.6,253.5c-0.9-2.7-1.5-5.6-1.7-8.5c0.5,1.3,0.9,2.8,1.1,4.2C293.4,250.6,293.6,252.1,293.6,253.5z"/>
		<path class="st3" d="M278.1,253.9c-1.5-2.4-2.8-5-3.7-7.6C276,248.6,277.2,251.2,278.1,253.9z"/>
		<path class="st3" d="M277.8,263.8c-1.3,0.9-2.6,1.7-4.1,2.3c-1.4,0.8-2.8,1.4-4.3,1.8c1.3-0.9,2.6-1.7,4.1-2.3
			C274.9,264.9,276.3,264.3,277.8,263.8z"/>
		<path class="st3" d="M278,279.5c-0.7-1.1-1.2-2.4-1.4-3.6c-0.4-1.2-0.6-2.5-0.6-3.9c0.5,1.2,0.8,2.4,1.1,3.7
			C277.5,277,277.8,278.2,278,279.5z"/>
		<path class="st3" d="M274.8,290.6c-1.2-0.8-2.3-1.6-3.3-2.6c-1.1-0.9-2.1-1.9-2.9-3c1.2,0.8,2.3,1.6,3.3,2.6
			C273,288.4,274,289.5,274.8,290.6z"/>
		<path class="st3" d="M295.2,283c0,0.1-2.3,0.8-4.9,2s-4.7,2.4-4.8,2.3c1.4-1.2,2.9-2.1,4.6-2.8C291.7,283.8,293.4,283.2,295.2,283
			z"/>
		<path class="st3" d="M289.2,277.6c-0.6-1.1-1.1-2.2-1.5-3.4c-0.5-1.1-0.8-2.4-1-3.6c0.6,1.1,1.1,2.2,1.5,3.4
			C288.7,275.1,289.1,276.3,289.2,277.6z"/>
		<path class="st3" d="M301.4,264c-0.8,1.7-1.7,3.3-2.7,4.8c-0.9,1.6-2,3.2-3.2,4.6C297.1,270.2,299.1,267,301.4,264L301.4,264z"/>
		<path class="st3" d="M314.4,265.3c-1.3-1.3-2.4-2.9-3.3-4.5c-1-1.6-1.9-3.3-2.4-5.1c0.1-0.1,1.3,2.2,2.9,4.8
			S314.5,265.3,314.4,265.3z"/>
		<path class="st3" d="M322.1,252.5c-1.2,0.5-2.5,0.7-3.8,0.7c-1.3,0.2-2.6,0-3.9-0.3c1.3-0.2,2.5-0.2,3.8-0.2
			C319.6,252.5,320.9,252.4,322.1,252.5z"/>
		<path class="st3" d="M340.7,237.9c-3.2,1.9-6.5,3.5-10,4.8C333.9,240.7,337.2,239.1,340.7,237.9z"/>
		<path class="st3" d="M341.9,228.6c1-2.8,2.4-5.5,4-8c-0.4,1.4-1,2.8-1.8,4.1C343.6,226,342.8,227.4,341.9,228.6z"/>
		<path class="st3" d="M353.7,235.9c-0.6-1.5-1.1-3-1.5-4.5c-0.6-1.5-1-3-1.3-4.6C352.3,229.6,353.3,232.7,353.7,235.9z"/>
		<path class="st3" d="M355.5,245.5c-1.4,0.8-2.9,1.3-4.4,1.6c-1.5,0.5-3.1,0.7-4.6,0.7c1.5-0.5,3-0.9,4.5-1.2
			C352.5,246.2,354,245.8,355.5,245.5z"/>
		<path class="st3" d="M335.4,257.4c-0.1,0,0.3-2.5,0.4-5.5s-0.1-5.5,0.1-5.5c0.5,1.8,0.6,3.7,0.5,5.5
			C336.3,253.8,336,255.6,335.4,257.4z"/>
		<path class="st3" d="M331.3,269.5c-2.7-2.1-4.9-4.8-6.5-7.8c0.1-0.1,1.5,1.8,3.2,3.9C329.2,266.9,330.3,268.2,331.3,269.5z"/>
		<path class="st3" d="M351.5,267c-1.3,0.8-2.7,1.5-4.2,2c-1.4,0.7-2.9,1.2-4.4,1.5C345.7,269,348.6,267.8,351.5,267L351.5,267z"/>
		<path class="st3" d="M344.3,289.9c-0.3-3.7-0.3-7.3,0.1-11C344.7,282.5,344.7,286.2,344.3,289.9z"/>
		<path class="st3" d="M328.8,288.5c0.3-3.8,1.2-7.6,2.8-11.1c0.1,0-0.6,2.5-1.4,5.5S328.9,288.6,328.8,288.5z"/>
		<path class="st3" d="M329.5,294.6c0,0.1-2.5,0.4-5.5,0.9s-5.5,1.1-5.5,0.9c1.7-0.7,3.6-1.2,5.4-1.4
			C325.7,294.5,327.6,294.4,329.5,294.6z"/>
		<path class="st3" d="M312.4,290.7c0.9-1.3,1.9-2.4,3-3.5c1-1.2,2.1-2.2,3.3-3.1c-0.9,1.3-1.9,2.4-3,3.5
			C314.7,288.8,313.6,289.8,312.4,290.7z"/>
		<path class="st3" d="M301.2,301.5c-0.5-1.3-1-2.6-1.4-3.9c-0.5-1.3-1-2.6-1.4-3.9C300.1,296,301,298.7,301.2,301.5z"/>
		<path class="st3" d="M319.1,307.7c-3.4-1.1-6.7-2.6-9.8-4.4c1.7,0.5,3.4,1.1,5,1.9C316,305.9,317.6,306.7,319.1,307.7z"/>
		<path class="st3" d="M287.9,305.9c0.1-1.3,0.5-2.5,0.9-3.7c0.3-1.2,0.8-2.4,1.4-3.5c-0.1,1.3-0.5,2.5-0.9,3.7
			C289,303.6,288.5,304.8,287.9,305.9z"/>
		<path class="st3" d="M308.5,309.4c0,0.1-2.9-0.3-6.4-0.5s-6.4,0-6.4-0.2c2.1-0.4,4.3-0.5,6.5-0.3
			C304.3,308.4,306.4,308.7,308.5,309.4z"/>
		<path class="st0" d="M312.8,279.9c0-0.1,0-0.3,0-0.4c0-0.4,0.1-0.8,0.2-1.1c0.2-0.6,0.5-1.2,1.1-1.5c0.7-0.4,1.6-0.6,2.4-0.4
			l-0.2,0.1c1.1-3.8,2.8-9.4,4.6-15.7c1.6-5.9,2.8-11.3,3.5-15.2c0.4-1.9,0.7-3.5,0.9-4.6c0.1-0.6,0.2-1.1,0.4-1.7
			c0,0.6-0.1,1.2-0.2,1.7c-0.2,1.1-0.4,2.7-0.8,4.7c-0.9,5.2-2,10.3-3.4,15.3c-1.8,6.3-3.6,11.9-4.8,15.7l0,0.1h-0.1
			c-0.8-0.2-1.5-0.1-2.2,0.3c-0.5,0.3-0.9,0.8-1,1.3C312.8,279.3,312.9,279.9,312.8,279.9z"/>
		<path class="st0" d="M335.2,293.8c-0.1,0-0.7-1.3-2-3.3c-3.3-5.3-8-9.5-13.6-12.4c-2.1-1.1-3.5-1.6-3.5-1.6c0.3,0.1,0.7,0.1,1,0.3
			c0.9,0.3,1.8,0.6,2.6,1c5.7,2.7,10.5,7,13.8,12.5c0.5,0.8,0.9,1.7,1.3,2.5C335,293.1,335.1,293.4,335.2,293.8z"/>
		<g class="st12">
			<path d="M316.7,275.7c3.6,0.1,7.1,0.7,10.5,1.9c3.6,1.3,6.9,3.9,8.2,7.5c0.4,0.8,0.4,1.8-0.2,2.6c-0.5,0.4-1.3,0.6-1.9,0.3
				c-0.6-0.3-1.2-0.6-1.7-1.1c-2.2-2-4.5-3.8-6.8-5.8s-5.6-4-8.5-4.5"/>
		</g>
		<path class="st0" d="M309.5,269.3c-0.3,0.2-0.6,0.4-1,0.6c-1,0.5-2,0.9-3.1,1.2c-7.2,2-14.9,0-20.1-5.2c-0.8-0.8-1.5-1.6-2.1-2.5
			c-0.2-0.3-0.5-0.6-0.6-1c0.1-0.1,1,1.4,3,3.3c5.3,5,12.7,6.9,19.8,5.1C307.9,270.1,309.4,269.2,309.5,269.3z"/>
		<g class="st12">
			<path d="M283,263.1c1.7,3.7,3.7,7.4,6.9,9.8c1.8,1.5,4,2.5,6.3,2.6c3.3,0.1,6.2-2.2,8.8-4.4C296.7,272.5,287.4,268.7,283,263.1"
				/>
		</g>
		<path class="st0" d="M320,214.1c-0.2,0,0-3.4-0.4-7.6s-1.2-7.5-1.1-7.6c0.3,0.7,0.6,1.4,0.7,2.1c0.4,1.8,0.7,3.6,0.9,5.4
			c0.2,1.8,0.2,3.6,0.1,5.4C320.3,212.6,320.2,213.4,320,214.1z"/>
		<path class="st2" d="M201.4,347.9c0,0-10.9,2.4-20.6,0.9c-9.1-1.4-29.5,0-29.5,12c0,13.4,27.2,10.1,37.8,8s21.1-4,21.1-4
			L201.4,347.9z"/>
		<path class="st0" d="M177,365c-0.6-1.5-1-3.1-1.3-4.6c-0.4-1.6-0.7-3.2-0.8-4.8c0.6,1.5,1,3.1,1.3,4.6
			C176.6,361.8,176.9,363.4,177,365z"/>
		<path class="st0" d="M180.7,365.2c-0.8-3.1-1.2-6.4-1.3-9.6c0.5,1.6,0.8,3.2,0.9,4.8C180.6,362,180.7,363.6,180.7,365.2z"/>
		<path class="st0" d="M184.3,363.8c-0.4-1.4-0.7-2.8-0.8-4.2c-0.3-1.4-0.3-2.8-0.2-4.2C183.9,358.2,184.3,361,184.3,363.8
			L184.3,363.8z"/>
		<path class="st0" d="M189.9,362.5c-0.7-1.1-1.2-2.3-1.4-3.6c-0.4-1.2-0.5-2.5-0.4-3.8c0.4,1.2,0.7,2.4,0.9,3.7
			C189.4,360,189.7,361.2,189.9,362.5z"/>
		<path class="st0" d="M191.1,357.5c0.5-0.1,0.9-0.1,1.4-0.1c1.3,0,2.6,0.3,3.8,0.8c0.4,0.2,0.8,0.4,1.2,0.6
			c0.4,0.3,0.7,0.8,0.7,1.3c-0.1,1.1-1,1.9-2.1,1.8c-0.1,0-0.2,0-0.3,0c-1.1-0.3-2.2-1-2.8-2c-2.3-3-2.5-7.1-0.4-10.3
			c0.2-0.2,0.5-0.4,0.8-0.5c0.3,0,0.7,0.1,0.9,0.3c0.4,0.4,0.6,0.9,0.7,1.5c0.1,0.9,0.1,1.8-0.1,2.7c-0.3,1.3-0.9,2.5-1.8,3.4
			c-0.2,0.3-0.5,0.5-0.8,0.7c-0.1,0.1-0.2,0.1-0.3,0.2c0,0,0.4-0.3,1-1c0.8-1,1.4-2.1,1.6-3.4c0.2-0.8,0.2-1.7,0.1-2.6
			c-0.1-0.4-0.2-0.9-0.6-1.2c-0.3-0.2-0.7-0.2-1,0.1c0,0,0,0.1-0.1,0.1c-1.9,3-1.7,6.8,0.4,9.6c0.6,0.9,1.5,1.6,2.5,1.9
			c0.8,0.2,1.7-0.3,1.9-1.1c0-0.1,0-0.1,0-0.2c0-0.4-0.2-0.8-0.6-1c-0.3-0.3-0.7-0.5-1.1-0.6c-1.2-0.5-2.4-0.8-3.7-0.9
			C191.6,357.6,191.1,357.6,191.1,357.5z"/>
		<path class="st0" d="M209.2,363l-0.3,0.1l-0.8,0.2L205,364c-2.7,0.6-6.7,1.5-11.7,2.4s-10.8,2-17.5,2.9c-3.5,0.6-7,0.7-10.5,0.5
			c-1.9-0.1-3.7-0.5-5.5-1c-0.9-0.3-1.8-0.7-2.6-1.2c-0.9-0.5-1.7-1.1-2.3-1.9l0,0c-0.4-0.3-0.7-0.7-0.9-1.1c-1-1.8-1.2-3.9-0.6-5.9
			c0.7-1.8,1.9-3.4,3.5-4.6c1.5-1.1,3.2-1.9,4.9-2.5c0.9-0.2,1.7-0.5,2.6-0.7s1.7-0.4,2.6-0.5c6.8-1.1,13-0.5,18.2-0.5
			c2.6,0,4.9,0,6.9-0.1c1.7-0.1,3.5-0.3,5.2-0.7l1.9-0.4l1.4-0.4l0.8-0.2c0.1,0,0.2-0.1,0.3-0.1c0,0-0.1,0-0.3,0.1l-0.8,0.3
			l-1.3,0.4l-1.9,0.5c-1.7,0.3-3.5,0.6-5.2,0.8c-2.1,0.1-4.4,0.2-7,0.2c-5.2,0-11.4-0.5-18.1,0.6c-0.8,0.1-1.7,0.4-2.5,0.5
			s-1.7,0.5-2.5,0.7c-1.7,0.5-3.3,1.3-4.8,2.4c-1.5,1.1-2.7,2.6-3.3,4.3c-0.6,1.8-0.4,3.8,0.5,5.4c0.2,0.4,0.5,0.7,0.9,1l0,0l0,0
			c0.6,0.7,1.3,1.3,2.1,1.7c0.8,0.5,1.7,0.8,2.5,1.1c1.7,0.6,3.5,0.9,5.4,1c3.5,0.2,7,0.1,10.4-0.5c6.6-0.9,12.5-1.9,17.4-2.8
			s8.9-1.7,11.7-2.2l3.2-0.6l0.8-0.1C209,362.9,209.1,362.9,209.2,363z"/>
		<path class="st0" d="M169.5,369.5c-0.2-0.9-0.3-1.8-0.3-2.8c-0.1-1.7-0.3-4.1-0.7-6.7s-0.8-4.9-1.1-6.6c-0.2-0.9-0.4-1.8-0.5-2.8
			c0.4,0.9,0.7,1.8,0.8,2.7c0.5,2.2,1,4.4,1.3,6.6c0.3,2.2,0.5,4.5,0.5,6.7C169.6,367.6,169.6,368.5,169.5,369.5z"/>
		<polygon class="st13" points="198,348.5 204.9,365.7 210.3,364.8 200,347.9 		"/>
		<path class="st0" d="M287.8,301.2c-1.1,0.4-72.3-19.6-101.1-27.7c-7.6-2.1-15.7-0.9-22.3,3.4l-0.4,0.2
			c-9.7,6.3-14.4,17.9-11.8,29.1l0,0c1.7,7.1,6.1,13.3,12.3,17.1c19,11.6,59.1,36.1,60.4,35.6c1.6-0.6,51.8-1.9,51.8-1.9l-60.4-43.4
			l28.7,18.6L287.8,301.2L287.8,301.2z"/>
		<path class="st8" d="M228.4,279.6l15.1-7.8l14.8,9.3l55.5,1.8l8,27l-80.4-18.6c0,0-14.6,1.3-15.7-2S228.4,279.6,228.4,279.6z"/>
		<path class="st0" d="M273.9,322.9l-7.5,24.6l0.9,7.5l0,0c13.6,13.7,35.3,15.2,50.7,3.4l0,0c9.3-7.2,14.8-18.3,14.7-30l-0.1-25.7
			L273.9,322.9z"/>
		<path class="st10" d="M229.3,323.1c-0.1,0.1-8.8-6.2-19.4-14.1s-19.2-14.4-19.1-14.5s8.8,6.2,19.4,14.1S229.4,322.9,229.3,323.1z"
			/>
		<path class="st9" d="M242.5,276.6c-2.4,1-4.9,1.9-7.4,2.6c-2.5,0.9-5,1.6-7.6,2.1c2.4-1,4.9-1.9,7.4-2.6
			C237.4,277.9,239.9,277.2,242.5,276.6z"/>
		<path class="st9" d="M243.6,281.2c-0.8,0.2-1.7,0.4-2.6,0.5c-1.6,0.3-3.8,0.6-6.2,1.2s-4.5,1.2-6.1,1.6c-0.8,0.3-1.7,0.5-2.5,0.7
			c0.8-0.4,1.6-0.8,2.4-1c2-0.7,4-1.3,6.1-1.8c2.1-0.5,4.1-0.8,6.2-1.1C241.9,281.2,242.7,281.2,243.6,281.2z"/>
		<path class="st9" d="M242.4,285.5c-2.7,0.8-5.5,1.5-8.3,1.9c-2.8,0.6-5.6,1.1-8.4,1.4c2.7-0.8,5.5-1.4,8.3-1.9
			C236.7,286.2,239.5,285.8,242.4,285.5z"/>
		<path class="st10" d="M222.7,243.3l13.9,45.9c0.2,0.5,0.6,0.9,1.2,0.9l38,2.9c0.7,0,1.2,0.6,1.2,1.3v2.4c0,0.7-0.6,1.3-1.3,1.3
			c0,0,0,0,0,0l-104-2c-0.5,0-1-0.4-1.2-0.9l-18.3-47.9c-0.3-0.7,0.1-1.5,0.8-1.7c0.1-0.1,0.3-0.1,0.4-0.1l67.9-3.2
			C222,242.2,222.6,242.6,222.7,243.3z"/>
		<path class="st14" d="M193.4,263.1c-1,0.4-1.8,1.3-2.1,2.3c-0.1,1.1,0.4,2.2,1.4,2.9c1.1,0.8,2.6,0.9,3.8,0.1
			c1.2-0.9,1.6-2.5,1-3.8C197.1,263.3,194.7,262.4,193.4,263.1"/>
		<path class="st0" d="M210.3,364.8l-11-18.1l80.8-63.3c5-4.1,11.2-6.6,17.6-7.2l0,0c17.9-1.6,33.7,11.5,35.3,29.4
			c0.2,1.9,0.2,3.7,0,5.6l-1.3,15.5l-53.6,17.3L210.3,364.8z"/>
		<path class="st10" d="M313.9,321.8c0,0-0.1,0.1-0.2,0.2l-0.7,0.5l-2.6,2.1l-1.9,1.5c-0.7,0.5-1.5,1-2.3,1.6l-2.7,1.8
			c-0.5,0.3-1,0.7-1.5,1l-1.6,1c-2.2,1.3-4.6,2.8-7.2,4.2c-1.3,0.7-2.7,1.5-4.1,2.2l-4.5,2.1c-6.7,3.1-13.5,5.8-20.4,8.1
			c-14.8,5.1-28.4,8.8-38.2,11.7c-2.4,0.7-4.7,1.4-6.6,2s-3.6,1.1-5,1.6l-3.1,1l-0.8,0.2c-0.1,0-0.2,0.1-0.3,0.1l0.3-0.1l0.8-0.3
			l3.1-1.1c1.3-0.5,3-1,4.9-1.7s4.1-1.3,6.6-2.1c9.8-3.1,23.4-6.8,38.1-11.9c7.4-2.5,14.2-5.3,20.4-8.1l4.5-2.1
			c1.4-0.7,2.8-1.5,4.1-2.1c2.7-1.3,5.1-2.8,7.3-4.1l1.6-1c0.5-0.3,1-0.7,1.5-1l2.8-1.8c0.8-0.6,1.6-1.1,2.3-1.6l1.9-1.4l2.6-2
			l0.7-0.5L313.9,321.8z"/>
		<path class="st10" d="M315.9,330.3c-0.2,0.2-0.5,0.3-0.8,0.4c-0.5,0.2-1.3,0.6-2.3,0.9c-2.6,1-5.2,1.7-7.9,2.3
			c-2.7,0.6-5.4,1-8.2,1.2c-1,0.1-1.9,0.1-2.5,0.1c-0.3,0-0.6,0-0.9,0c1.1-0.2,2.3-0.3,3.4-0.4c2.1-0.2,5-0.6,8.1-1.3
			s5.9-1.5,7.9-2.1C313.7,330.9,314.7,330.6,315.9,330.3z"/>
		<path class="st10" d="M276.9,286.4c0.1,0.1-17.2,13.7-38.6,30.4s-38.9,30.1-38.9,29.9s17.2-13.7,38.6-30.4
			S276.8,286.3,276.9,286.4z"/>
		<path class="st2" d="M272.1,353.6c-3.9-2.1-8.2-0.8-11.9,0.4c-2.5,0.8-5,2.1-7.5,1.4c-1.8-0.5-3.2-2-4.5-3.2
			c-5.7-5.2-13.2-7.9-20.9-7.5c-2.2,0.1-4.2,1-5.7,2.6c-3.8,4.1-0.9,9.5,2.5,13c6.1,6.2,14.1,10.1,22.7,11c7.1,0.7,16.8-0.2,24-3.3
			c4.4-1.9,6.7-7.1,4.4-11.4C274.4,355.3,273.4,354.3,272.1,353.6z"/>
		<g class="st7">
			<path d="M272.1,356.9c-3.9-2.1-8.2-0.8-11.9,0.4c-2.5,0.8-5,2.1-7.5,1.4c-1.8-0.5-3.2-2-4.5-3.2c-5.7-5.2-13.2-7.9-20.9-7.5
				c-2.2,0.1-4.2,1-5.7,2.6c-0.8,0.8-1.3,1.8-1.6,2.9c0.7,2.6,2.1,4.9,4.1,6.8c6.1,6.2,14.1,10.1,22.7,11c7.1,0.7,16.8-0.2,24-3.3
				c2.6-1.1,4.5-3.4,5.1-6.1C275.3,359.7,274,358,272.1,356.9L272.1,356.9z"/>
		</g>
		<path class="st0" d="M275.9,361.8c-0.2-0.8-0.5-1.6-1-2.3c-0.6-0.8-1.3-1.5-2.1-2c-1.1-0.7-2.3-1.2-3.6-1.4
			c-2.9-0.3-6.2,0.9-9.9,1.9c-1.8,0.5-3.8,1.2-6,1c-1.1-0.1-2.2-0.5-3.1-1.1c-0.9-0.6-1.8-1.3-2.7-2c-3-2.9-6.6-5-10.6-6.3
			c-1.7-0.6-3.5-1-5.3-1.2c-1.6-0.2-3.1-0.2-4.7,0c-1.3,0.2-2.5,0.6-3.6,1.3c-0.8,0.5-1.6,1.1-2.2,1.8c-1,1.2-1.4,2.1-1.4,2.1
			c0.3-0.8,0.7-1.5,1.3-2.2c0.6-0.8,1.4-1.5,2.2-2c1.1-0.7,2.4-1.2,3.7-1.4c1.6-0.2,3.2-0.2,4.8,0c1.8,0.2,3.6,0.6,5.4,1.2
			c1.9,0.6,3.8,1.5,5.6,2.5c0.9,0.5,1.8,1.1,2.7,1.8c0.9,0.7,1.7,1.4,2.5,2.1c0.8,0.7,1.7,1.4,2.6,2c0.9,0.5,1.9,0.9,2.9,1
			c2,0.3,4-0.4,5.8-0.9c3.7-1,7.1-2.2,10.1-1.8c2.4,0.3,4.4,1.7,5.8,3.6c0.3,0.5,0.6,1.1,0.7,1.8
			C275.8,361.4,275.9,361.6,275.9,361.8z"/>
		<path class="st0" d="M275.9,361.8c-0.2-0.8-0.5-1.6-1-2.3c-0.6-0.8-1.3-1.5-2.1-2c-1.1-0.7-2.3-1.2-3.6-1.4
			c-2.9-0.3-6.2,0.9-9.9,1.9c-1.8,0.5-3.8,1.2-6,1c-1.1-0.1-2.2-0.5-3.1-1.1c-0.9-0.6-1.8-1.3-2.7-2c-3-2.9-6.6-5-10.6-6.3
			c-1.7-0.6-3.5-1-5.3-1.2c-1.6-0.2-3.1-0.2-4.7,0c-1.3,0.2-2.5,0.6-3.6,1.3c-0.8,0.5-1.6,1.1-2.2,1.8c-1,1.2-1.4,2.1-1.4,2.1
			c0.3-0.8,0.7-1.5,1.3-2.2c0.6-0.8,1.4-1.5,2.2-2c1.1-0.7,2.4-1.2,3.7-1.4c1.6-0.2,3.2-0.2,4.8,0c1.8,0.2,3.6,0.6,5.4,1.2
			c1.9,0.6,3.8,1.5,5.6,2.5c0.9,0.5,1.8,1.1,2.7,1.8c0.9,0.7,1.7,1.4,2.5,2.1c0.8,0.7,1.7,1.4,2.6,2c0.9,0.5,1.9,0.9,2.9,1
			c2,0.3,4-0.4,5.8-0.9c3.7-1,7.1-2.2,10.1-1.8c2.4,0.3,4.4,1.7,5.8,3.6c0.3,0.5,0.6,1.1,0.7,1.8
			C275.8,361.4,275.9,361.6,275.9,361.8z"/>
		<path class="st0" d="M227.8,360.9c0.6-0.5,1.3-1,2-1.4c1.7-1,3.4-1.9,5.1-2.7c1.8-0.8,3.6-1.6,5.4-2.2c0.7-0.3,1.5-0.5,2.3-0.6
			c-0.7,0.4-1.4,0.7-2.2,1c-1.4,0.6-3.2,1.4-5.3,2.3s-3.9,1.9-5.2,2.6C229.3,360.2,228.5,360.6,227.8,360.9z"/>
		<path class="st0" d="M229.1,364.7c2.4-1.5,5-2.8,7.6-4c2.5-1.3,5.1-2.5,7.8-3.5c-2.4,1.5-5,2.8-7.6,4
			C234.4,362.6,231.8,363.7,229.1,364.7z"/>
		<path class="st0" d="M245.1,366.4c-0.1,0.1-4.2-2.3-9.2-5.5s-9-5.8-9-6s4.2,2.3,9.2,5.5C241.2,363.6,245.2,366.3,245.1,366.4z"/>
		<path class="st0" d="M247.5,362.4c-0.7-0.4-1.4-0.8-2-1.4c-1.2-0.9-2.9-2.1-4.8-3.4s-3.6-2.5-4.8-3.3c-0.7-0.4-1.4-0.9-2-1.4
			c0.8,0.3,1.5,0.7,2.2,1.1c1.3,0.8,3.1,1.9,5,3.2s3.5,2.6,4.7,3.5C246.4,361.2,247,361.8,247.5,362.4z"/>
	</g>
</g>
</svg>
