<?xml version="1.0" encoding="utf-8"?>
<!-- Generator: Adobe Illustrator 22.0.1, SVG Export Plug-In . SVG Version: 6.00 Build 0)  -->
<svg version="1.1" id="Layer_1" xmlns="http://www.w3.org/2000/svg" xmlns:xlink="http://www.w3.org/1999/xlink" x="0px" y="0px"
	 viewBox="0 0 475.6 462.7" style="enable-background:new 0 0 475.6 462.7;" xml:space="preserve">
<style type="text/css">
	.st0{fill:none;stroke:#263238;stroke-linecap:round;stroke-miterlimit:10;}
	.st1{fill:none;stroke:#263238;stroke-miterlimit:10;}
	.st2{fill:none;stroke:#263238;stroke-linecap:round;stroke-linejoin:round;}
	.st3{fill:none;stroke:#263238;stroke-linecap:round;stroke-linejoin:round;stroke-dasharray:2.9669,2.9669;}
	.st4{fill:none;stroke:#263238;stroke-linecap:round;stroke-linejoin:round;stroke-dasharray:3.0249,3.0249;}
	.st5{fill:#263238;}
	.st6{fill:#FFFFFF;stroke:#263238;stroke-linecap:round;stroke-linejoin:round;}
	.st7{fill:none;stroke:#263238;stroke-linecap:round;stroke-linejoin:round;stroke-dasharray:3,3;}
	.st8{fill:none;stroke:#B2B2B2;stroke-miterlimit:10;}
	.st9{fill:#263238;stroke:#B2B2B2;stroke-miterlimit:10;}
	.st10{fill:#263238;stroke:#263238;stroke-linecap:round;stroke-linejoin:round;}
	.st11{fill:#FF725E;stroke:#263238;stroke-linecap:round;stroke-linejoin:round;}
	.st12{fill:none;stroke:#263238;stroke-width:2;stroke-linecap:round;stroke-linejoin:round;}
	.st13{fill:#808080;stroke:#263238;stroke-linecap:round;stroke-linejoin:round;}
	.st14{fill:#FF725E;stroke:#263238;stroke-miterlimit:10;}
	.st15{fill:#263238;stroke:#FFFFFF;stroke-linecap:round;stroke-linejoin:round;}
</style>
<g id="freepik--Files--inject-538">
	<line class="st0" x1="93" y1="107" x2="459" y2="449"/>
	<path class="st1" d="M141.3,62c2.5-13.5-6.4-26.6-19.9-29.1c-6.4-1.2-13,0.2-18.4,3.8c-7-17.2-26.7-25.5-43.9-18.4
		c-12.7,5.2-21,17.5-20.9,31.2c0,0.4,0,0.8,0,1.2c-11.6,3.3-18.4,15.4-15.1,27c2.4,8.4,9.5,14.6,18.1,15.7v0.2h99.1
		c8.8,0.3,16.1-6.6,16.4-15.3S150.1,62.3,141.3,62z"/>
	<line class="st2" x1="216.7" y1="161.9" x2="216.7" y2="160.4"/>
	<line class="st3" x1="216.7" y1="157.4" x2="216.7" y2="52.1"/>
	<polyline class="st2" points="216.7,50.6 216.7,49.1 215.2,49.1 	"/>
	<line class="st4" x1="212.2" y1="49.1" x2="153.2" y2="49.1"/>
	<line class="st2" x1="151.7" y1="49.1" x2="150.2" y2="49.1"/>
	<polygon class="st5" points="221.7,160.4 216.7,169.1 211.8,160.4 	"/>
	<polygon class="st6" points="234.7,122.5 197.6,122.5 197.6,70.9 223.9,70.9 234.7,81.6 	"/>
	<polygon class="st6" points="223.9,70.9 223.9,81.4 234.7,81.4 	"/>
	<line class="st2" x1="203.3" y1="88.2" x2="229" y2="88.2"/>
	<line class="st2" x1="203.3" y1="95.2" x2="229" y2="95.2"/>
	<line class="st2" x1="203.3" y1="102.2" x2="229" y2="102.2"/>
	<line class="st2" x1="203.3" y1="109.2" x2="229" y2="109.2"/>
	<polygon class="st6" points="162.9,72.5 125.8,72.5 125.8,20.9 152.1,20.9 162.9,31.6 	"/>
	<polygon class="st6" points="152.1,20.9 152.1,31.4 162.9,31.4 	"/>
	<line class="st2" x1="131.5" y1="38.3" x2="157.2" y2="38.3"/>
	<line class="st2" x1="131.5" y1="45.3" x2="157.2" y2="45.3"/>
	<line class="st2" x1="131.5" y1="52.3" x2="157.2" y2="52.3"/>
	<line class="st2" x1="131.5" y1="59.3" x2="157.2" y2="59.3"/>
	<line class="st7" x1="70.4" y1="400" x2="70.4" y2="115.2"/>
	<polygon class="st5" points="75.3,116.7 70.4,108 65.4,116.7 	"/>
	<polygon class="st6" points="89.5,352.6 52.3,352.6 52.3,301 78.7,301 89.5,311.8 	"/>
	<polygon class="st6" points="78.7,301 78.7,311.6 89.5,311.6 	"/>
	<line class="st2" x1="58.1" y1="318.4" x2="83.8" y2="318.4"/>
	<line class="st2" x1="58.1" y1="325.4" x2="83.8" y2="325.4"/>
	<line class="st2" x1="58.1" y1="332.4" x2="83.8" y2="332.4"/>
	<line class="st2" x1="58.1" y1="339.4" x2="83.8" y2="339.4"/>
	<polygon class="st6" points="89.5,215.6 52.3,215.6 52.3,164 78.7,164 89.5,174.8 	"/>
	<polygon class="st6" points="78.7,164 78.7,174.6 89.5,174.6 	"/>
	<line class="st2" x1="58.1" y1="181.4" x2="83.8" y2="181.4"/>
	<line class="st2" x1="58.1" y1="188.4" x2="83.8" y2="188.4"/>
	<line class="st2" x1="58.1" y1="195.4" x2="83.8" y2="195.4"/>
	<line class="st2" x1="58.1" y1="202.4" x2="83.8" y2="202.4"/>
</g>
<g id="freepik--Window--inject-538">
	<polygon class="st8" points="394,8.4 319.7,8.4 318.7,18.6 394,18.6 	"/>
	<polygon class="st8" points="394,18.6 319.7,18.6 318.7,28.8 394,28.8 	"/>
	<polygon class="st8" points="394,28.8 319.7,28.8 318.7,39 394,39 	"/>
	<polygon class="st8" points="394,39 319.7,39 318.7,49.2 394,49.2 	"/>
	<polygon class="st8" points="394,49.2 319.7,49.2 318.7,59.5 394,59.5 	"/>
	<polygon class="st8" points="394,59.5 319.7,59.5 318.7,69.7 394,69.7 	"/>
	<polygon class="st8" points="394,69.7 319.7,69.7 318.7,79.9 394,79.9 	"/>
	<polygon class="st8" points="394,79.9 319.7,79.9 318.7,90.1 394,90.1 	"/>
	<polygon class="st8" points="394,90.1 319.7,90.1 318.7,100.3 394,100.3 	"/>
	<polygon class="st8" points="394,100.3 319.7,100.3 318.7,110.5 394,110.5 	"/>
	<polygon class="st8" points="394,110.5 319.7,110.5 318.7,120.7 394,120.7 	"/>
	<polygon class="st8" points="394,120.7 319.7,120.7 318.7,130.9 394,130.9 	"/>
	<polygon class="st8" points="394,130.9 319.7,130.9 318.7,141.2 394,141.2 	"/>
	<polygon class="st8" points="394,141.2 319.7,141.2 318.7,151.4 394,151.4 	"/>
	<polygon class="st8" points="394,151.4 319.7,151.4 318.7,161.6 394,161.6 	"/>
	<polygon class="st8" points="470.3,8.4 396,8.4 395.1,18.6 470.3,18.6 	"/>
	<polygon class="st8" points="470.3,18.6 396,18.6 395.1,28.8 470.3,28.8 	"/>
	<polygon class="st8" points="470.3,28.8 396,28.8 395.1,39 470.3,39 	"/>
	<polygon class="st8" points="470.3,39 396,39 395.1,49.2 470.3,49.2 	"/>
	<polygon class="st8" points="470.3,49.2 396,49.2 395.1,59.5 470.3,59.5 	"/>
	<polygon class="st8" points="470.3,59.5 396,59.5 395.1,69.7 470.3,69.7 	"/>
	<polygon class="st8" points="470.3,69.7 396,69.7 395.1,79.9 470.3,79.9 	"/>
	<polygon class="st8" points="470.3,79.9 396,79.9 395.1,90.1 470.3,90.1 	"/>
	<polygon class="st8" points="470.3,90.1 396,90.1 395.1,100.3 470.3,100.3 	"/>
	<polygon class="st8" points="470.3,100.3 396,100.3 395.1,110.5 470.3,110.5 	"/>
	<polygon class="st8" points="470.3,110.5 396,110.5 395.1,120.7 470.3,120.7 	"/>
	<polygon class="st8" points="470.3,120.7 396,120.7 395.1,130.9 470.3,130.9 	"/>
	<polygon class="st8" points="470.3,130.9 396,130.9 395.1,141.2 470.3,141.2 	"/>
	<polygon class="st8" points="470.3,141.2 396,141.2 395.1,151.4 470.3,151.4 	"/>
	<polygon class="st8" points="470.3,151.4 396,151.4 395.1,161.6 470.3,161.6 	"/>
	<rect x="317" y="0.5" class="st8" width="157" height="7.7"/>
	<line class="st8" x1="474" y1="8.2" x2="474" y2="143.9"/>
	<line class="st8" x1="472.3" y1="8.4" x2="472.3" y2="101.5"/>
	<rect x="473" y="143.6" class="st9" width="2.1" height="3.5"/>
	<rect x="471.1" y="100.7" class="st9" width="2.1" height="3.5"/>
</g>
<g id="freepik--character-2--inject-538">
	<path class="st10" d="M280.8,141.1c0,0-26.8,10.2-30.9,13.9S222.2,235,222.2,235h165c0,0-12.2-51.2-15.2-68.5s-16.3-21-23-22.4
		S280.8,141.1,280.8,141.1z"/>
	<polygon class="st11" points="325.9,155.6 322.4,235 351,235 339.5,148.6 	"/>
	<path class="st11" d="M283.1,134.5c0,0-4.4,6.5-3.5,8.6s10.9,17.7,21,19.5s22.7-3.8,29.5-8s15.6-7.4,17.1-8.3s-3.8-8-6.2-9.1
		s-5.3-3-5.3-3s-3.2-4.1-3.8-5s-0.9-2.4-1.8-3.5c-0.7-1-1.7-1.7-3-1.8c-1.5-0.3-3.5,7.1-12.4,8.6s-30.4,2.4-30.4,2.4L283.1,134.5z"
		/>
	<path class="st2" d="M310.5,162.5c0,0,17.1-8.6,19.2-15.3s2.1-18,2.1-18"/>
	<path class="st2" d="M323.5,155.1c0,0,7.4-3.2,9.7-7.7s2.4-13.3,2.4-13.3"/>
	<path class="st6" d="M273.6,97.8c-0.3,1.2,6.6,35.5,11.5,44.1s15.2,13.6,21.4,10.7c7.2-3.4,15-9.9,18.5-17.2
		c0.6-1.4,4.1-15.9,3.4-16.2c0,0,5,1.6,7-7.4s3.7-14.4,1.2-19.4S320.2,76,307.4,78.1S275.7,90,273.6,97.8z"/>
	<path class="st10" d="M307.8,87.1c0,0-18.1,14-30.5,15.3S265,97.8,265,97.8s-16.1,4.5-14.4-7.8S277,67.7,277,67.7s-8.7-2.5-4.5-7
		s19.8-9.5,30.1-8.2s14.8,3.7,14.8,3.7s-2.9-7.4,3.3-5s11.5,14.5,11.5,14.5s10.7,0.8,11.5,3.7c0.8,2.9-6.2,3.7-6.2,3.7
		s6.6,12.4,3.3,19.4s-10.3,9.1-10.7,10.3s1.2,5.8-2.1,4.1s-4.5-8.7-4.5-8.7s-4.9-4.9-5.4-7s-0.8-4.5-0.8-4.5s-2.9,8.7-9.5,9.9
		C301.2,97.8,307.8,87.1,307.8,87.1z"/>
	<path class="st6" d="M293,116.8c0,0-8.2,18.1-3.7,18.6s8.7-4.5,8.7-4.5"/>
	<path class="st2" d="M293.4,138.2c0,0,5.4,5.8,15.2-2.1"/>
	<path class="st2" d="M304.2,120.4c0,0,1,3.7,8.5,3.1"/>
	<path class="st2" d="M288.6,119.7c0,0-2.4,3.1-5.1,3.1"/>
	<path class="st2" d="M320.4,111c0,0-19.1-0.4-21.2,0.4s-2.5,5.8-1.2,9.1s4.1,7.8,11.5,7.8s11.1-3.7,13.6-10.7S320.4,111,320.4,111z
		"/>
	<path class="st2" d="M273.2,111c0,0,14.7-0.4,16.3,0.4s1.9,5.8,1,9.1s-3.2,7.8-8.9,7.8s-8.6-3.7-10.5-10.7S273.2,111,273.2,111z"/>
	<line class="st2" x1="324" y1="113.4" x2="330.3" y2="105.1"/>
	<line class="st2" x1="299.2" y1="111.4" x2="289.4" y2="111.4"/>
	<line class="st2" x1="296.7" y1="115.4" x2="290.6" y2="115.4"/>
	<line class="st2" x1="271" y1="113" x2="275.6" y2="109.9"/>
	<path class="st5" d="M308.8,118.4c0,1.5-0.7,2.8-1.6,2.8s-1.6-1.3-1.6-2.8s0.7-2.8,1.6-2.8S308.8,116.9,308.8,118.4z"/>
	<path class="st5" d="M287.2,117.2c0,1.6-0.7,2.8-1.6,2.8s-1.6-1.2-1.6-2.8s0.7-2.8,1.6-2.8S287.2,115.7,287.2,117.2z"/>
	<path class="st12" d="M279.6,107.6c0,0,5.9-2.4,8.9-0.6"/>
	<path class="st12" d="M302,107.3c4-1.2,8.4-0.7,12.1,1.2"/>
	<path class="st13" d="M207.7,225.1c-4.5-2.8-9.9-3.5-14.9-2c-8.1,2.4-12.2,9.5-12.2,11.9h34.2C214,230.8,211.4,227.2,207.7,225.1z"
		/>
	<path class="st6" d="M186.7,217c0,0-4.4,6.4-4.4,8.8s-2.4,4.7,1,5.8s5.4-10.8,5.4-12.2S186.7,217,186.7,217z"/>
	<path class="st6" d="M192.8,216.6c0,0-4.7-1-6.1,0.3s-3.7,13.2-3.4,14.6s3.7,1.7,4.7,0.3S192.8,216.6,192.8,216.6z"/>
	<path class="st6" d="M213.1,222.1c0,0-14.2-5.1-17.3-7.1s-4.7,2-5.8,4.4s-3.4,10.8-3.4,13.2s3.7,3.4,4.4,0.7s6.1-11.5,6.1-11.5
		l7.1,2.7c0,0,0.7,1-2.4,3.1s-7.4,6.4-6.1,7.1s5.4,0.3,6.8-1s8.5-3.1,8.5-3.1s6.4,4.1,7.8,4.4s9.8-1.4,9.8-1.4s-9.5-8.1-10.8-9.1
		C216.4,223.5,214.8,222.7,213.1,222.1z"/>
	<path class="st6" d="M341.5,216.8h-7.1c-3,0-9.1-2-9.5,1.4s6.8,5.4,10.2,5.4s5.4-1.4,9.5,0.7s6.4,3.4,6.4,3.4l-4.8-7.5L341.5,216.8
		z"/>
	<path class="st6" d="M369.6,234.4c0,0-6.4-13.9-9.5-18.3s-21-7.8-23-7.8s-7.1,11.2-6.4,13.9s2-0.3,3-2s4.7-6.4,4.7-6.4
		s5.8,9.5,8.1,14.6s7.1,5.8,9.8,6.4S369.6,234.4,369.6,234.4z"/>
	<path class="st6" d="M353,214.1c0,0-6.4-8.5-9.8-7.1s-8.8,17.6-9.5,19.6s3.4,0.7,4.1-1s6.8-10.5,6.8-10.5l5.4,3.4"/>
	<path class="st6" d="M357.7,214.1c0,0-6.8-5.8-9.1-5.1s-10.8,17.3-9.5,18s4.1-0.7,5.4-2.7s4.1-6.8,4.1-6.8l5.1,3.7"/>
	<path class="st6" d="M361,218.7c0,0-3.3-6.7-5.7-5.6s-10.5,13.6-8.1,13.6s9.5-7.4,9.5-7.4s-0.7,5.8,0,8.8"/>
	<rect x="262.6" y="232.2" class="st13" width="88.9" height="2.8"/>
	<polygon class="st13" points="197.8,174.4 287,174.4 305.1,235 215.9,235 	"/>
	<line class="st2" x1="160.2" y1="235" x2="475.6" y2="235"/>
</g>
<g id="freepik--Cat--inject-538">
	<path class="st6" d="M400,202.5c0,0,1.5,15.6,0.6,20.6s-3.2,5.6-3.8,8s3.8,2.1,6.5,1.8s5.6-13,8.9-28.6"/>
	<path class="st6" d="M423.5,230.9c0,0-6.7,0.8-6.9,2.6s1.2,3.2,6.3,3.4s18.4-0.4,20.6-1.6s-4.9-3-9.3-3.6S423.5,230.9,423.5,230.9z
		"/>
	<path class="st6" d="M395.2,168.8c0,0-7.1,5.3-7.7,17.4s9.4,21.2,14.4,23.3s11.2,4.1,13,5.6s2.2,10,4.7,13.9
		c3.8,5.9,14.2,8.3,27.1,6.8s13.2-15.7,14.5-25.4c1.4-11.4-5.3-30.4-13.6-35.4s-21.5-3.5-25.7-4.4c-2.8-0.7-5.3-2.2-7.4-4.1
		C408.3,163.1,400.6,164,395.2,168.8z"/>
	<path class="st11" d="M417.3,166.1c1.1,3.5-3.3,8-9.9,10s-12.7,0.8-13.8-2.7s3.3-8,9.9-10S416.2,162.5,417.3,166.1z"/>
	<path class="st10" d="M404.9,179.8c0.6,1.9-0.5,3.8-2.3,4.4c-1.9,0.6-3.8-0.5-4.4-2.3c-0.6-1.9,0.5-3.8,2.3-4.4c0,0,0,0,0,0
		C402.3,176.9,404.3,177.9,404.9,179.8z"/>
	<path class="st6" d="M408.2,200.7c0,0,0,14.8-0.6,20.9s-1.8,7.7-3.5,8.9s-2.1,3.2,0.6,4.1s6.2-0.3,7.1-1.5s6.8-16.8,10.9-30.1"/>
	<path class="st6" d="M459.9,223.2c0,0,7.9,4.9,5.5,11.7s-28.3,8.3-47.8,8.3s-39.8-1.5-38-8s15.9-2.1,29.8-1.2s43.6,1.1,46.3-2.6
		C457.4,228.8,458.8,226.1,459.9,223.2z"/>
	<path class="st6" d="M370.8,143.3c1.3,2.3,2.7,4.6,4.3,6.7c0.9,1.2,2,2.3,3.3,3.2c0,0,3.9-6.3,2.5-8.9S370.8,143.3,370.8,143.3z"/>
	<path class="st6" d="M413.5,127.9c0.9,2.2,1.3,4.5,1.3,6.8c0,4-0.9,5.6-0.9,5.6l-7.5-3.4C406.4,136.9,411.2,128.9,413.5,127.9z"/>
	<path class="st6" d="M379.6,146.4c0,0-5.1,10.2-1.5,16.7s12,8.8,15.6,9.2s9.7,1.9,15.1-3.1s6.2-5.3,6.2-5.3s7.9-8.2,6.5-17
		s-13.1-10.8-13.1-10.8l5-8.2c0,0-7.1,2.4-9.4,4c-1.4,0.9-2.9,1.8-4.4,2.6c-3.1,0-6.2,0.5-9.1,1.5c-3.2,1.5-6.2,3.3-9.1,5.3
		c0,0-11.4,0.8-10.8,2S379.6,146.4,379.6,146.4z"/>
	<path class="st6" d="M394.7,161.9c1.5,0.1,3-0.1,4.3-0.8c2.1-1.1,1.2-2.3-0.1-2.4c-1.4,0-2.8,0.5-4,1.3
		C394,160.7,393.7,161.2,394.7,161.9z"/>
	<path class="st6" d="M395,156.6c0,0-4,1.1-4.3,3.4s2.3,3.9,3.9,2.6c0.9-0.8,1.6-1.8,2-2.9c0,0,4.1,2.3,5.9,0.8s2.3-3.7,0.7-4.8
		S395,156.6,395,156.6z"/>
	<path class="st10" d="M398.1,155.9c0,0-3.3,0.7-3.7,1.2s1,2.8,2.3,2.3c0.9-0.5,1.6-1.4,1.8-2.4
		C398.6,156.5,398.4,156.1,398.1,155.9z"/>
	<path class="st5" d="M389.4,153c0.8,1.5,0.7,3.1-0.1,3.4s-2-0.5-2.8-2s-0.7-3.1,0-3.4S388.6,151.5,389.4,153z"/>
	<path class="st5" d="M401.5,149.4c0.7,1.6,0.6,3.1-0.2,3.4s-2-0.6-2.7-2.2s-0.6-3.1,0.2-3.4S400.8,147.9,401.5,149.4z"/>
</g>
<g id="freepik--Mug--inject-538">
	<path class="st10" d="M312.6,454.9c-2.5-0.1-5-0.7-7.2-1.7c-1.3-0.6-1.9-2-1.3-3.3c0.6-1.3,2-1.9,3.3-1.3c2.3,1,5.3,1.6,6.1,1.2
		c1.5-1.6,3.7-11.5,0.8-16.2c-0.3-0.7-0.9-1.2-1.7-1.3c-1.6-0.2-4.1,1.5-5,2.3c-1,0.9-2.6,0.9-3.5-0.1s-0.9-2.6,0.1-3.5
		c0.5-0.4,4.6-4.2,9-3.6c2.2,0.3,4.2,1.7,5.2,3.6c4.3,6.9,1.3,20.2-1.9,22.8C315.4,454.6,314,455,312.6,454.9z"/>
	<rect x="280.6" y="425.3" class="st10" width="27.6" height="36.7"/>
	<path class="st2" d="M283.1,423.3c0,0,0-3,5.6-6.1s8.7-7.6,5.6-16.3s-2.5-14.8,3.6-19.9"/>
	<path class="st2" d="M284.4,390.7c0.3-3.7,2-6.9,5.3-9.7"/>
	<path class="st2" d="M286.1,400.9c-0.6-1.5-1-3.1-1.4-4.7"/>
	<path class="st2" d="M305.8,403.9c-0.2-1-0.5-2-0.9-3c-0.2-0.5-0.3-0.9-0.5-1.4"/>
	<path class="st2" d="M293.8,423.3c0,0,0-3,5.6-6.1c3.7-2,6.2-4.7,6.7-8.7"/>
</g>
<g id="freepik--Plants--inject-538">
	<path class="st14" d="M355.4,418c0,0-3.1-3.9-6.5-5.6s-10.4-3.1-10.4-3.1s6.2-1.4,11-0.3s8.2,5.9,8.2,5.9s-1.4-2-3.4-7.9
		s-2-18.5-2-18.5c3,3.5,5.4,7.5,7,11.8c1.4,3.9,2.3,8,2.8,12.1c0,0-0.6-9.8,1.1-15.5s6.5-12.6,6.5-12.6s0.3,12.4-1.7,19.1
		s-2.8,9.8-2.8,9.8c1.2-3.5,3.3-6.7,5.9-9.3c4.2-3.9,14.3-7.3,14.3-7.3s-4.8,8.7-7.9,11.5s-6.2,5.9-6.2,5.9c2.8-1.8,6-2.6,9.3-2.5
		c5.9,0,12.9,3.9,12.9,3.9s-20.5-0.3-24.5,3.1L355.4,418z"/>
	<line class="st2" x1="359.2" y1="416.5" x2="355.8" y2="414.1"/>
	<line class="st2" x1="363" y1="418.4" x2="358.2" y2="405.6"/>
	<line class="st2" x1="362.5" y1="420" x2="365.6" y2="401.3"/>
	<line class="st2" x1="363" y1="418.4" x2="372" y2="407.2"/>
	<line class="st2" x1="361.2" y1="417.2" x2="374.4" y2="413.9"/>
	<path class="st5" d="M379,462h-28l-1.3-10.2c-0.9-7.4-1-15-0.1-22.4l1.4-12.5h28.1l1.4,12.2c0.9,7.4,0.8,15-0.1,22.4L379,462z"/>
	<polyline class="st15" points="380.9,442.8 376.7,417.2 371,461.4 361.2,417.2 355.3,461.9 350.9,416.9 	"/>
	<path class="st1" d="M379,462h-28l-1.3-10.2c-0.9-7.4-1-15-0.1-22.4l1.4-12.5h28.1l1.4,12.2c0.9,7.4,0.8,15-0.1,22.4L379,462z"/>
</g>
<g id="freepik--Clock--inject-538">
	<circle class="st8" cx="120.4" cy="252.1" r="36.5"/>
	<circle class="st8" cx="120.4" cy="252.1" r="29.2"/>
	<path class="st8" d="M115.9,252.1c0,2.5,2,4.6,4.5,4.6c2.5,0,4.6-2,4.6-4.5c0-2.5-2-4.6-4.5-4.6c0,0,0,0,0,0
		C117.9,247.5,115.9,249.5,115.9,252.1z"/>
	<line class="st8" x1="120.4" y1="256.6" x2="120.4" y2="273.8"/>
	<line class="st8" x1="125" y1="252.1" x2="135.7" y2="252.1"/>
</g>
<g id="freepik--character-1--inject-538">
	<line class="st2" x1="425" y1="462" x2="0" y2="462"/>
	<path class="st11" d="M195.6,333c0,0-2.7,18.3,0,21.7s8.8,6.1,17.5,8.8s14.5-3.1,22.9,6.5c8.4,9.5,15.3,33.9,19.8,41.6
		s9.9,19.5,11.1,28.3s-2.7,13.7-10.3,14.9s-21-17.5-22.5-20.2s-8.8-11.5-8.8-11.5s-4.2,30.9-4.2,32.4s0.4,6.5,0.4,6.5H111.7
		c0,0,8.4-45.8,10.7-61.8s1.1-26.7,10.3-32.4s17.5-4.2,23.6-6.1s9.9-3.4,10.3-6.9s0.4-19.5,0.4-19.5L195.6,333z"/>
	<polyline class="st11" points="115.7,443.9 65.5,457.1 69.4,462 126.7,462 	"/>
	<path class="st13" d="M59.1,452.1c-4.5-2.8-9.9-3.5-14.9-2C36,452.5,32,459.6,32,462h34.2C65.3,457.8,62.7,454.2,59.1,452.1z"/>
	<path class="st6" d="M38.1,444c0,0-4.4,6.4-4.4,8.8s-2.4,4.7,1,5.8s5.4-10.8,5.4-12.2S38.1,444,38.1,444z"/>
	<path class="st6" d="M44.2,443.6c0,0-4.8-1-6.1,0.3s-3.7,13.2-3.4,14.6s3.7,1.7,4.7,0.3S44.2,443.6,44.2,443.6z"/>
	<path class="st6" d="M78.7,453.8l-8-0.9c-0.5-0.5-0.9-1-1.5-1.5c-1.5-0.9-3.1-1.7-4.8-2.4c0,0-14.2-5.1-17.3-7.1s-4.7,2-5.8,4.4
		s-3.4,10.8-3.4,13.2s3.7,3.4,4.4,0.7s6.1-11.5,6.1-11.5l7.1,2.7c0,0,0.7,1-2.4,3s-7.5,6.4-6.1,7.1s5.4,0.3,6.8-1s8.5-3,8.5-3
		s6.4,4.1,7.8,4.4c0.9,0.1,1.8,0.2,2.6,0.2h8.3C81.9,459.1,80.9,456,78.7,453.8z"/>
	<path class="st2" d="M54.2,453.8c0,0,3-3.4,5.4-3.8"/>
	<path class="st6" d="M251,426.2c3.6,1.2,7.2,2.6,10.6,4.1c4.9,2.3,6.8,8,6,15s-5.7,12.5-13,10.4s-11.2-8-11.4-12.7
		S240.8,427.7,251,426.2z"/>
	<path class="st6" d="M173.9,385.7c-17.2-0.6-28.3-11.2-34.9-20.9c6.7-2.2,12.7-1.7,17.4-3.2c6.1-1.9,9.9-3.4,10.3-6.9
		s0.4-19.5,0.4-19.5l28.6-2.3c0,0-2.7,18.3,0,21.7s8.8,6.1,17.5,8.8c3.8,1.2,7.1,0.7,10.2,0.7C218.3,369.9,200.6,386.7,173.9,385.7z
		"/>
	<path class="st10" d="M167,346.8c2.2,2.1,4.5,3.9,7.1,5.5c4.6,2.6,12.4,0.3,14.7-2.6c1.1-1.4,3.4-4.2,5.9-7.5c0.4-4.8,1-9.1,1-9.1
		l-28.6,2.3C167.1,335.4,167,341.4,167,346.8z"/>
	<path class="st6" d="M254.3,392.7c0,0-15.6,20.5-17.1,29.1s-6.5,29.3-6.5,29.3s-15.1,6.5-24.6,6.8s-26.2-1.3-26.2-1.3
		s10.6-27.5,14.8-41.2s5.2-21.5,5.2-21.5s23.6,3.1,37.1,0l20.2-4.7L254.3,392.7z"/>
	<path class="st6" d="M253.6,435.7c0,0-1.9-24-4.2-24.8s-16-2.7-19.8-1.9s-5,2.3-1.9,3s8.4,1.5,10.7,1.9c2.6,0.6,5.1,1.4,7.6,2.3
		c0,0-8.4,1.1-11.8,1.1s-11.4,3.4-11.8,5c-0.2,0.9-0.1,1.9,0.4,2.7c-0.2,0.8-0.2,1.6,0.1,2.4c0.4,1.5,9.5,0.8,11.8,1.1
		s6.9,1.5,6.9,1.5S228,429.3,228,432s5.7,2.3,8,2.3c2.8,0.3,5.4,1.4,7.6,3c1.1,1.1,0.8,7.1,4.2,8.3c1.5,0.6,3,1,4.6,1.1"/>
	<path class="st2" d="M222.7,425c0,0,15.2-3.4,22.9,0.4"/>
	<path class="st2" d="M140,404.4c0,0-6.1,21.4-4.9,29s4.6,16.4,4.9,17.5s-1.3,10.2-1.3,10.2"/>
	<path class="st10" d="M127.4,286.2c3.4-3.4,0-5.3,0.4-9.1s4.2-5.7,6.1-6.5s1.1-2.7,1.5-6.9s4.9-5.7,8-6.9c3.1-1.1,1.1-3,2.7-6.1
		s9.9-2.3,9.9-2.3s1.9-3.4,4.2-3.4s3.8,3,6.9,0.4s5.7-3.8,9.9-2.3c1.4,0.5,2.8,1,4.2,1.3c1.4-0.3,2.8-0.8,4.2-1.3
		c4.2-1.5,6.9-0.4,9.9,2.3s4.6-0.4,6.9-0.4s4.2,3.4,4.2,3.4s8.4-0.8,9.9,2.3s-0.4,5,2.7,6.1c3.1,1.1,7.6,2.7,8,6.9s-0.4,6.1,1.5,6.9
		s5.7,2.7,6.1,6.5s-3,5.7,0.4,9.1s6.9,6.1,3.8,8.4s-6.1,3-5.7,6.5s4.2,7.6,1.1,9.5s-6.1,1.9-6.1,5.3s1.1,8.4-2.3,9.1s-8.4,0-8.4,2.3
		s-0.4,6.5-5.7,5.7s-7.2-2.3-8.4,0.8s-3.8,5-6.9,4.6s-7.2-0.8-9.9,1.5c-1.3,1-2.9,1.7-4.5,1.9v0.1c-0.3,0-0.5,0-0.8,0s-0.5,0-0.8,0
		v-0.1c-1.7-0.2-3.2-0.9-4.5-1.9c-2.7-2.3-6.9-1.9-9.9-1.5s-5.7-1.5-6.9-4.6s-3.1-1.5-8.4-0.8s-5.7-3.4-5.7-5.7s-5-1.5-8.4-2.3
		s-2.3-5.7-2.3-9.1s-3-3.4-6.1-5.3s0.8-6.1,1.1-9.5s-2.7-4.2-5.7-6.5S124,289.6,127.4,286.2z"/>
	<path class="st6" d="M158,307.3c0,0-4.3-6.5-6.9-3.5s-1.7,10.9,1.7,14.8s7.4,2.6,7.4,2.6"/>
	<path class="st6" d="M204.4,306.9c0,0,5.1-6,7.3-2.6s0.4,11-3.4,14.5s-7.6,1.7-7.6,1.7"/>
	<path class="st6" d="M202.6,291.5c-1.5,1.4-3.7,2-5.7,1.7c-1.9-0.3-3.7-0.9-5.4-1.7c0,0-3.4,2.3-6,1.4s-5.4-1.7-5.4-1.7
		c-1.9,1.2-4.1,1.6-6.3,1.1c-4-0.6-5.1-1.4-5.1-1.4s-2.3,2-4.6,2c-1.4,0-2.9-0.1-4.3-0.3c-0.6,0.3-1.3,0.5-2,0.6h-2
		c0,0-0.9,17.2,2,29.5s14,21.5,18.6,24s12.4,0.3,14.7-2.6s9.6-11.4,13-18.9s4.6-29.2,4.6-30.6S204,295,202.6,291.5z"/>
	<path class="st2" d="M186.4,301.5c-0.8,0.3-1.3,1.1-1.3,2c0.1,3.2,0.6,10.9,2.8,12.3c2.9,1.7,16.2,3,19.4,0.9
		c1.7-1.1,5.4-11.1,4-14S197.9,296.8,186.4,301.5z"/>
	<path class="st2" d="M177.6,301.5c0.8,0.3,1.3,1.1,1.3,2c-0.1,3.2-0.6,10.9-2.8,12.3c-2.9,1.7-16.2,3-19.4,0.9
		c-1.7-1.1-5.4-11.1-4-14S166.2,296.8,177.6,301.5z"/>
	<path class="st2" d="M186.4,301.5c0,0-5.3-1.1-8.7,0.6"/>
	<line class="st2" x1="184.6" y1="305" x2="179.1" y2="305"/>
	<ellipse class="st5" cx="193.1" cy="309.3" rx="1.7" ry="3.1"/>
	<ellipse class="st5" cx="173.7" cy="309.3" rx="1.7" ry="3.1"/>
	<path class="st2" d="M184,311.3c0,0-0.3,4,1.1,5.4s3.1,2.6,1.1,4s-3.7,2.6-6.6,0"/>
	<path class="st2" d="M189.1,326.7c0,0-7.1,3.4-13.4-1.1"/>
	<path class="st2" d="M198.6,303c-2.3-1.7-5.3-2.2-8-1.1"/>
	<path class="st2" d="M175.1,302.7c0,0-6.6-3.4-10.3,2"/>
	<polyline class="st2" points="198.9,357.3 176.6,412.2 163.4,359.6 	"/>
	<path class="st10" d="M173.7,414.8c0,1.7,1.4,3.1,3.1,3.1c1.7,0,3.2-1.4,3.2-3.1c0-1.7-1.4-3.1-3.1-3.1h0
		C175.1,411.6,173.7,413.1,173.7,414.8z"/>
	<rect x="105.8" y="459.3" class="st13" width="86.2" height="2.7"/>
	<polygon class="st13" points="42.9,403.2 129.4,403.2 146.9,462 60.4,462 	"/>
</g>
</svg>
