<?xml version="1.0" encoding="UTF-8"?>
<svg width="233px" height="51px" viewBox="0 0 233 51" version="1.1" xmlns="http://www.w3.org/2000/svg" xmlns:xlink="http://www.w3.org/1999/xlink">
    <!-- Generator: Sketch 58 (84663) - https://sketch.com -->
    <title>Group 2</title>
    <desc>Created with Sketch.</desc>
    <g id="Final" stroke="none" stroke-width="1" fill="none" fill-rule="evenodd">
        <g id="Coming-soon-Page---Final" transform="translate(-603.000000, -112.000000)" fill-rule="nonzero">
            <g id="Group-13" transform="translate(488.000000, 112.000000)">
                <g id="Group-2" transform="translate(114.999994, -0.000001)">
                    <g id="Logo">
                        <path d="M32.5087595,3.5539571 C35.719455,5.80808443 38.2218819,8.92248006 39.7254697,12.5355144 C41.3826102,16.5061617 42.2097996,20.7711752 42.1565921,25.0704548 C42.2155898,29.3984855 41.3884065,33.693137 39.7254697,37.6925949 C38.233429,41.3153516 35.7288514,44.4362067 32.5087595,46.6850521 C29.3183676,48.8868417 25.485517,49.9895531 21.0102076,49.9931864 L3.42837413,49.9931864 C2.5157324,50.010582 1.63696219,49.6492609 1.00272723,48.9958411 C0.344836669,48.3632643 -0.0182989682,47.4863214 0.000710561698,46.5760526 L0.000710561698,3.62480676 C-0.0130340446,2.71552692 0.34927263,1.84058586 1.00272723,1.20501826 C1.6397773,0.556362258 2.51716929,0.197579212 3.42837413,0.212638133 L21.0047321,0.212638133 C25.4836918,0.212638133 29.3183676,1.32673435 32.5087595,3.5539571 Z M31.2110657,38.292092 C33.6421882,34.8513417 34.8559242,30.4550293 34.8522821,25.1031547 C34.8486235,19.7512801 33.6348875,15.3658676 31.2110657,11.9469172 C28.7507407,8.484367 25.1186584,6.7530919 20.3148189,6.7530919 L9.99897522,6.7530919 C8.38627609,6.7530919 7.07807777,8.05275018 7.07505774,9.65792809 L7.07505774,40.5429313 C7.07807777,42.1481092 8.38627609,43.4477675 9.99897522,43.4477675 L20.2929169,43.4477675 C25.1478611,43.4477675 28.787244,41.729209 31.2110657,38.292092 Z" id="Shape" fill="#606060"></path>
                        <path d="M82.4508033,41.3168276 C80.8476762,44.1888008 78.4891644,46.572114 75.6283291,48.2110449 C69.7069717,51.5314575 62.4730414,51.5314575 56.551684,48.2110449 C53.6896548,46.5736532 51.3307726,44.1899657 49.7292098,41.3168276 C48.0336663,38.2730896 47.1707948,34.8395736 47.2269059,31.359725 C47.1761123,27.8579796 48.0382587,24.4029384 49.7292098,21.3317726 C51.3166003,18.4283854 53.6771792,16.0165837 56.551684,14.3612557 C62.4747342,11.0472729 69.7052789,11.0472729 75.6283291,14.3612557 C78.5028339,16.0165837 80.8634128,18.4283854 82.4508033,21.3317726 C84.1375108,24.4043597 84.9976083,27.8587487 84.9476317,31.359725 C85.0031119,34.8388197 84.1422821,38.2717228 82.4508033,41.3168276 Z M76.5591643,24.5254574 C75.5579324,22.5918217 74.0427818,20.968743 72.1787636,19.8330297 C68.4132477,17.602257 63.7229614,17.602257 59.9574455,19.8330297 C58.092169,20.9672114 56.5766497,22.5906849 55.5770448,24.5254574 C54.4829353,26.6463033 53.9318535,29.0032231 53.972723,31.3869748 C53.9342288,33.7356683 54.4856896,36.0567416 55.5770448,38.1394927 C56.5838425,40.0606299 58.0984119,41.6717795 59.9574455,42.7992206 C63.7229614,45.0299933 68.4132477,45.0299933 72.1787636,42.7992206 C74.0365645,41.6702721 75.5507735,40.0595057 76.5591643,38.1394927 C77.6505195,36.0567416 78.2019802,33.7356683 78.163486,31.3869748 C78.2043556,29.0032231 77.6532737,26.6463033 76.5591643,24.5254574 Z" id="Shape" fill="#606060"></path>
                        <path d="M158.012716,13.7236088 C158.64676,14.3690708 158.99395,15.2408514 158.976404,16.1433973 L158.976404,35.0602574 C158.976404,39.987034 157.607529,43.8147324 154.869778,46.5433528 C152.132028,49.2719732 148.260849,50.6344667 143.256241,50.6308406 C138.302738,50.6308406 134.469887,49.2683398 131.757689,46.5433528 C129.045491,43.8183657 127.687567,39.9906673 127.6837,35.0602574 L127.6837,16.1433973 C127.673634,15.2369164 128.030914,14.3645824 128.674982,13.7236088 C129.295358,13.0704668 130.165008,12.7099669 131.067776,12.7317135 C131.994688,12.7005861 132.891638,13.0608606 133.537227,13.7236088 C134.171271,14.3690708 134.518461,15.2408514 134.500915,16.1433973 L134.500915,35.0602574 C134.500915,41.2659612 137.421182,44.3706298 143.261716,44.3742631 C146.181984,44.3742631 148.397736,43.5912835 149.908974,42.0253243 C151.420213,40.459365 152.181307,38.1376761 152.192258,35.0602574 L152.192258,16.1433973 C152.174304,15.239729 152.523788,14.367146 153.161422,13.7236088 C153.780992,13.0693055 154.651188,12.7085795 155.554216,12.7317135 C156.477361,12.7036875 157.369722,13.0637154 158.012716,13.7236088 Z" id="Path" fill="#606060"></path>
                        <path d="M204.236894,0.333022408 C205.280762,0.157857962 206.350932,0.420208069 207.193665,1.05786896 C208.063306,1.65961177 208.644019,2.59270641 208.797987,3.63570671 C208.960501,4.68615766 208.698684,5.75793182 208.069745,6.61684254 L194.216728,25.3484035 L208.069745,44.2271138 C208.987205,45.4276027 209.088742,47.0596636 208.327094,48.3636441 C207.571475,49.8169706 206.476374,50.5436338 205.041793,50.5436338 C203.679949,50.5818409 202.384719,49.9575798 201.570326,48.8704917 L189.327106,32.1009214 L177.001753,48.8704917 C176.18909,49.9567098 174.895894,50.5809757 173.535761,50.5436338 C172.10118,50.5436338 171.006079,49.8169706 170.25046,48.3636441 C169.484225,47.0614602 169.583707,45.427661 170.502333,44.2271138 L184.360826,25.3484035 L170.507809,6.61684254 C169.887282,5.75462215 169.638873,4.68124263 169.817896,3.63570671 C169.970532,2.59360989 170.549169,1.66066723 171.416742,1.05786896 C172.272399,0.416402203 173.355802,0.154206918 174.411841,0.333022408 C175.471542,0.481023095 176.41554,1.07696226 177.001753,1.96801464 L189.327106,18.6667353 L201.581277,1.96801464 C202.203571,1.08339652 203.163784,0.492218935 204.236894,0.333022408 Z" id="Path" fill="#5192F2"></path>
                        <path d="M218.648413,50.8215845 C217.537315,50.8228205 216.499339,50.2704499 215.883285,49.3500895 L199.659376,26.6727472 C198.902762,25.5373404 198.920132,24.0570242 199.70318,22.939515 L215.927089,1.40121733 C216.985501,-0.0917117087 219.059441,-0.44795704 220.559363,0.605521113 C222.059284,1.65899927 222.417198,3.72327016 221.358786,5.2161992 L206.427095,24.8851557 L221.391639,45.6822569 C222.408458,47.1997172 221.999409,49.2500511 220.47723,50.2656851 C219.9344,50.622986 219.299179,50.816071 218.648413,50.8215845 Z" id="Path" fill="#74A8F5"></path>
                        <path d="M230.393362,51.0123359 C229.535822,51.013913 228.734328,50.5884422 228.257917,49.8787369 L211.546688,26.4765482 C210.95921,25.5981502 210.974436,24.4507102 211.585017,23.5880619 L228.296245,1.36851749 C228.823444,0.622782702 229.710303,0.213640947 230.622752,0.295211962 C231.535201,0.376782976 232.334618,0.936674182 232.719869,1.76397998 C233.10512,2.59128578 233.017677,3.56031874 232.490479,4.30605353 L216.792218,25.0704548 L232.528808,47.0229505 C233.054575,47.8061744 233.103839,48.8140666 232.656939,49.6443904 C232.210039,50.4747141 231.339738,50.9922791 230.393362,50.9905317 L230.393362,51.0123359 Z" id="Path" fill="#B9D3FA"></path>
                        <path d="M119.174988,40.7936301 C118.512866,40.7975207 117.870348,41.0177158 117.346171,41.4203771 C112.188046,45.6033568 104.680885,45.1999025 100.005259,40.4884316 C97.5079541,38.076816 96.121187,34.7463445 96.1724085,31.2834253 C96.1216304,27.8189951 97.5082086,24.4870056 100.005259,22.0729691 C104.713583,17.3957762 112.190722,16.9581326 117.417352,21.0538239 L117.450205,21.0538239 C118.366415,21.7468966 119.598548,21.861977 120.628304,21.3506563 C121.65806,20.8393355 122.306749,19.7903413 122.301531,18.6449354 C122.290825,17.7699169 121.889484,16.9450098 121.206399,16.3940961 L121.206399,16.3668462 C118.731472,14.1868566 113.754242,12.0559167 109.215052,12.0559167 C105.823342,12.0174607 102.486753,12.9113678 99.5726946,14.6392044 C96.7060002,16.3305279 94.3186602,18.7198664 92.635235,21.5824714 C90.8970609,24.5118955 89.999372,27.8597073 90.0398475,31.2616254 C89.9986915,34.6619083 90.8964639,38.0081464 92.635235,40.9353294 C94.3171214,43.7991132 96.7048075,46.188798 99.5726946,47.8785964 C106.192545,51.7215034 114.477845,51.260376 120.625996,46.706852 C121.605552,46.1286755 122.209933,45.0826575 122.219366,43.9491651 C122.252975,42.2414798 120.890625,40.8293873 119.174988,40.7936301 Z" id="Path" fill="#606060"></path>
                    </g>
                </g>
            </g>
        </g>
    </g>
</svg>