<?xml version="1.0" encoding="utf-8"?>
<!-- Generator: Adobe Illustrator 22.0.1, SVG Export Plug-In . SVG Version: 6.00 Build 0)  -->
<svg version="1.1" id="Layer_1" xmlns="http://www.w3.org/2000/svg" xmlns:xlink="http://www.w3.org/1999/xlink" x="0px" y="0px"
	 viewBox="0 0 458 370.3" style="enable-background:new 0 0 458 370.3;" xml:space="preserve">
<style type="text/css">
	.st0{fill:#B78876;}
	.st1{fill:#AA6550;}
	.st2{fill:#90CAF9;}
	.st3{fill:#263238;}
	.st4{opacity:0.3;}
	.st5{fill:#FAFAFA;}
	.st6{fill:#455A64;}
	.st7{opacity:0.2;}
	.st8{opacity:0.3;fill:#FFFFFF;enable-background:new    ;}
	.st9{opacity:0.4;enable-background:new    ;}
	.st10{fill:#FFFFFF;}
	.st11{fill:none;}
	.st12{fill:#F5F5F5;}
</style>
<g>
	<g id="freepik--Character--inject-34">
		<path class="st0" d="M221.3,235.4c0,0-2.3-10.2-11.8-9.6c-9.4,0.5-11.7,0.5-15.8,0c-4.1-0.5-10.4-5.4-12.2-3.9s-0.8,4.9,2.5,7.8
			s9,5,9,5l-12,2.1c0,0-10.9-5.8-13.4-4.8c-1.5,0.7-2.4,2.2-2.3,3.8c0,0-4.5-2-5.8-0.2c-1.3,1.8-1.6,3-0.3,4c0,0-0.8-0.8-3.2-0.1
			c-2,0.6-1.8,4.3,0,5.3l0.6,0.4c0,0,17.1,9.8,17.6,9.9c3,0.4,21.4-0.4,30.9-0.8c3.5-0.2,6.8,1.6,8.6,4.5l15.3,24.2l17.2-19.9
			L221.3,235.4z"/>
		<path class="st1" d="M190.3,241c-0.9,0.3-1.8,0.5-2.8,0.6c-1.8,0.3-4.2,0.8-7.1,1.3h-0.1h-0.1l-3.9-1.8l-9.2-4.2l-2.8-1.3
			c-0.4-0.1-0.7-0.3-1-0.6c0.4,0.1,0.7,0.2,1.1,0.4l2.9,1.2l4.2,1.8l5.1,2.3l3.9,1.8h-0.1c2.9-0.5,5.4-0.8,7.2-1.1
			C188.4,241.2,189.4,241,190.3,241z"/>
		<path class="st1" d="M186.1,245.5c-2.8,1.1-5.2,3-6.9,5.5C180.3,248,183,245.9,186.1,245.5z"/>
		<path class="st1" d="M205.6,231.3c0.1,0,0.1,0.6,0.4,1.6c0.5,1.4,1.3,2.6,2.3,3.6l0.4,0.3l-0.5,0.1c-1.6,0.3-3.2,0.8-4.7,1.4
			c-2.4,1-4.6,2.3-6.6,4c-1.5,1.3-2.3,2.2-2.4,2.2s0.1-0.3,0.5-0.7c0.5-0.6,1.1-1.2,1.6-1.7c1.9-1.8,4.2-3.2,6.6-4.2
			c1.5-0.6,3.2-1.1,4.8-1.4l-0.1,0.4c-1.1-1-1.9-2.4-2.3-3.8C205.6,232.4,205.6,231.8,205.6,231.3z"/>
		<path class="st1" d="M194.3,234.1c-2.1,0.9-4.3,1.4-6.6,1.8c-1.9,0.3-3.5,0.6-4.8,0.7c-0.7,0.1-1.3,0.1-2,0.1c0-0.2,3-0.6,6.7-1.3
			l4.7-0.9C193,234.3,193.7,234.2,194.3,234.1z"/>
		<path class="st1" d="M178.3,247.5c-1-0.3-1.9-0.7-2.9-1.1c-1.8-0.7-4.2-1.6-6.9-2.6c-2.7-1-5.2-1.9-6.9-2.6
			c-1-0.4-1.9-0.8-2.8-1.4c1,0.3,2,0.6,2.9,1l7,2.5c2.7,1,5.2,2,6.9,2.8C176.6,246.4,177.5,246.9,178.3,247.5z"/>
		<path class="st1" d="M182.6,247.1c-2.3,1.1-4.9,1.3-7.4,0.7c0-0.1,1.7-0.1,3.7-0.3S182.6,246.9,182.6,247.1z"/>
		<path class="st2" d="M277.7,188.7c0,0-15.2,8.8-18.4,35.6c-1.7,14-7.8,40-7.8,40l-12.5-14.1L220,271.8c0,0,20.5,43.6,32,55.5
			s34.5,15.6,34.5,15.6l4.6-73L277.7,188.7z"/>
		<path class="st2" d="M393.3,176.6l-35.2-6.2l-44.9,2.2c0,0-37.4,15.4-35.5,16l-7.3,72.2l18.1,34.9l-4.5,74.3h124l-6.5-51.7
			l-8.1-62.2l15.4,48.2l2.3,65.7h34.5c3.6-28.6,4.8-68.4,4.8-68.4l-28.2-92c-3.9-12.8-12.4-23.7-23.9-30.6
			C396.8,178.1,395.1,177.3,393.3,176.6z"/>
		<path class="st3" d="M277.3,225.1l0.1,0.4c0,0.3,0.1,0.6,0.2,1.1c0.2,1,0.4,2.4,0.7,4.2c0.6,3.6,1.5,8.9,2.5,15.4
			s2.2,14.3,3.2,22.9s2.1,18.2,2.7,28.2c0,0.9,0.1,1.9,0.1,2.7l0,0c-0.5,19.5-1.1,37-1.7,49.6c-0.3,6.3-0.5,11.4-0.8,14.9
			c-0.1,1.7-0.2,3.1-0.3,4c0,0.4-0.1,0.8-0.1,1c0,0.1,0,0.2,0,0.4c0-0.1,0-0.2,0-0.4c0-0.3,0-0.6,0-1.1c0-1,0.1-2.3,0.2-4
			c0.1-3.5,0.3-8.6,0.6-14.9c0.5-12.6,1-30.1,1.5-49.6l0,0c0-0.9-0.1-1.8-0.1-2.7c-0.6-10-1.6-19.5-2.6-28.2s-2.1-16.4-3.1-22.9
			s-1.8-11.8-2.3-15.4l-0.6-4.2c-0.1-0.5-0.1-0.8-0.1-1.1C277.3,225.3,277.3,225.2,277.3,225.1z"/>
		<path class="st3" d="M385.4,229c-0.1-0.1-0.1-0.3-0.1-0.5c-0.1-0.4-0.1-0.8-0.2-1.3c0-0.3-0.1-0.6-0.1-1s-0.1-0.7-0.1-1.2
			c-0.1-0.9-0.1-1.9-0.1-2.8c0-0.5,0-1.1,0-1.6s0.1-1.2,0.2-1.8c0.1-1.3,0.3-2.6,0.6-3.9c0.6-3,1.6-5.8,2.9-8.6
			c1.3-2.7,2.9-5.3,4.8-7.7c0.8-1,1.7-2,2.6-3c0.4-0.4,0.8-0.9,1.3-1.3l1.2-1.1c0.7-0.6,1.5-1.2,2.2-1.8c0.3-0.2,0.6-0.5,1-0.7
			l0.8-0.5l1.2-0.7c0.1-0.1,0.3-0.2,0.4-0.2c0,0-0.1,0.1-0.4,0.3l-1.1,0.8l-0.8,0.5c-0.3,0.2-0.6,0.5-0.9,0.7
			c-0.8,0.6-1.5,1.2-2.2,1.8l-1.2,1.1c-0.4,0.4-0.8,0.8-1.2,1.3c-0.9,1-1.8,2-2.5,3c-3.7,4.8-6.3,10.3-7.6,16.2
			c-0.3,1.3-0.5,2.6-0.6,3.9c-0.1,0.6-0.2,1.2-0.2,1.8s0,1.1-0.1,1.6c-0.1,1,0,2,0,2.8c0,0.4,0,0.8,0,1.2s0.1,0.7,0.1,1
			c0,0.5,0.1,1,0.1,1.3C385.3,228.7,385.4,228.8,385.4,229z"/>
		<path class="st3" d="M408.7,304.3c-0.1-0.2-0.2-0.4-0.2-0.6c-0.1-0.5-0.3-1-0.6-1.7c-0.5-1.6-1.2-3.7-2-6.4
			c-1.7-5.4-4-12.9-6.7-21.1s-5.2-15.7-7.2-21c-1-2.6-2-4.7-2.7-6.1c-0.3-0.7-0.5-1.3-0.7-1.7c-0.1-0.2-0.1-0.4-0.2-0.6
			c0.1,0.2,0.2,0.4,0.3,0.6l0.8,1.6c0.7,1.4,1.7,3.5,2.8,6.1c2.1,5.3,4.6,12.7,7.3,20.9s5,15.7,6.6,21.2c0.8,2.7,1.4,4.9,1.9,6.5
			c0.2,0.7,0.4,1.3,0.5,1.8C408.7,303.9,408.7,304.1,408.7,304.3z"/>
		<path class="st3" d="M434.7,302c0,0.1-1.3-0.3-3.5-0.6c-2.8-0.4-5.7-0.5-8.5-0.2c-2.8,0.3-5.6,1-8.3,2c-2,0.8-3.2,1.5-3.3,1.4
			c0.2-0.2,0.5-0.4,0.8-0.5c0.8-0.4,1.5-0.8,2.4-1.2c2.7-1.1,5.5-1.9,8.4-2.2c2.9-0.3,5.8-0.2,8.6,0.4c0.9,0.2,1.7,0.4,2.5,0.6
			C434.1,301.7,434.4,301.9,434.7,302z"/>
		<path class="st3" d="M278.7,296.9c-0.3-0.4-0.7-0.9-0.9-1.4c-0.6-0.9-1.5-2.2-2.7-3.6c-2.4-3-5.9-7-9.8-11.4s-7.4-8.4-9.9-11.4
			c-1.2-1.5-2.2-2.7-2.9-3.5c-0.4-0.4-0.7-0.9-1-1.3c0.4,0.4,0.8,0.8,1.1,1.2l3,3.4l10,11.2c3.9,4.4,7.4,8.5,9.7,11.5
			c0.9,1.2,1.8,2.5,2.6,3.8c0.3,0.5,0.5,0.8,0.6,1.1S278.7,296.9,278.7,296.9z"/>
		<g class="st4">
			<path d="M285.6,342.9c0.6-20.2,1.6-38.8-0.2-58.8c-0.8,17.7-7.3,38.4-13.8,54.9L285.6,342.9z"/>
		</g>
		<g class="st4">
			<path d="M393.3,256.1c0,0-5.8-12.9-5.4-12.9c-0.6,24.1,4.3,51.7,13.3,74L393.3,256.1z"/>
		</g>
		<path class="st3" d="M377.5,324.3c-0.2,0.2-0.5,0.3-0.7,0.4l-2,1.2c-1.8,1-4.3,2.5-7.4,4.4s-6.8,4.2-11,6.5
			c-4.5,2.6-9.3,4.8-14.1,6.7c-4.9,1.9-10.1,2.9-15.3,3.1c-2.3,0-4.6-0.3-6.8-1c-1.9-0.6-3.7-1.5-5.3-2.8c-2.3-1.8-4-4.3-4.8-7.1
			c-0.2-0.8-0.3-1.5-0.3-2.3c0-0.3,0-0.5,0-0.8c0,1,0.2,2.1,0.5,3.1c0.8,2.7,2.5,5.1,4.8,6.9c1.6,1.2,3.3,2.1,5.2,2.6
			c2.2,0.6,4.4,0.9,6.7,0.9c5.2-0.2,10.3-1.3,15.1-3.1c4.9-1.8,9.6-4,14.1-6.6c4.2-2.3,7.9-4.6,11-6.4s5.7-3.3,7.5-4.3l2.1-1.1
			C377,324.5,377.3,324.4,377.5,324.3z"/>
		<path class="st3" d="M377.4,295c-0.1,0.6-0.2,1.2-0.4,1.7c-0.2,0.7-0.4,1.3-0.6,2c-0.3,0.8-0.5,1.7-0.9,2.6s-0.8,2-1.3,3.1
			s-1.1,2.2-1.8,3.4c-2.9,5.1-6.7,9.8-11.2,13.6c-1,0.9-2,1.7-3,2.4s-1.9,1.4-2.8,1.9s-1.7,1-2.4,1.4s-1.3,0.7-1.9,1
			c-0.5,0.3-1.1,0.5-1.6,0.7c0.5-0.3,1-0.6,1.5-0.9c0.5-0.3,1.1-0.6,1.8-1s1.5-0.9,2.3-1.5s1.8-1.2,2.7-1.9s1.9-1.5,3-2.4
			c4.4-3.9,8.1-8.5,11-13.6c0.6-1.2,1.3-2.3,1.8-3.4s1-2.1,1.4-3s0.7-1.8,1-2.6s0.5-1.4,0.7-2C376.9,296.2,377.1,295.6,377.4,295z"
			/>
		<path class="st5" d="M279,248.9c0,0.1-5.2-0.9-11.6-2.3s-11.6-2.7-11.5-2.8s5.2,0.9,11.6,2.3S279.1,248.8,279,248.9z"/>
		<path class="st5" d="M279,243.1c-1.1,0-2.2-0.2-3.3-0.4c-2-0.3-4.8-0.8-7.9-1.4l-7.8-1.5c-1.1-0.2-2.2-0.4-3.2-0.7
			c1.1,0,2.2,0.2,3.3,0.4c2,0.3,4.8,0.8,7.9,1.4l7.8,1.5C276.9,242.5,278,242.7,279,243.1z"/>
		<path class="st5" d="M385.5,243.9c0,0.1-22.5,0.1-50.3-0.1s-50.3-0.5-50.3-0.6s22.5-0.1,50.3,0.1S385.5,243.7,385.5,243.9z"/>
		<path class="st5" d="M387.2,248.9c0,0.1-23.2,0.3-51.7,0.3s-51.7-0.1-51.7-0.3s23.2-0.3,51.7-0.3S387.2,248.8,387.2,248.9z"/>
		<path class="st5" d="M429.4,237c0,0,0,0,0.1,0S429.4,237,429.4,237l-0.1,0.1V237h0.4L429.4,237c-1.8,0.7-9.6,3.4-18.7,6.8
			l-13.5,5.2l-4.1,1.6c-0.5,0.2-1,0.4-1.5,0.5c0.5-0.3,0.9-0.5,1.4-0.7c1-0.4,2.3-1,4-1.7c3.4-1.4,8.1-3.3,13.4-5.3
			C419.6,239.9,427.5,237.5,429.4,237L429.4,237l-0.2,0.1V237L429.4,237C429.4,237,429.4,237,429.4,237L429.4,237z"/>
		<path class="st5" d="M428.5,230.6c0,0.1-8.7,3.2-19.6,6.9s-19.7,6.5-19.8,6.4s8.7-3.2,19.6-6.9S428.5,230.4,428.5,230.6z"/>
		<path class="st5" d="M361.7,171.2c0.1,0.3,0.1,0.5,0.1,0.8c0.1,0.8,0.1,1.5,0.1,2.3c-0.1,2.9-0.7,5.7-1.8,8.4
			c-1.6,4-4.1,7.5-7.4,10.2c-8.4,6.7-20.2,7.5-29.3,1.8c-3.6-2.3-6.6-5.5-8.6-9.3c-1.4-2.5-2.3-5.3-2.8-8.1
			c-0.1-0.8-0.2-1.5-0.2-2.3c0-0.3,0-0.5,0-0.8c0.1,0.3,0.1,0.5,0.1,0.8c0,0.5,0.1,1.3,0.3,2.3c0.5,2.8,1.5,5.5,2.9,7.9
			c2.1,3.7,5,6.7,8.5,9c9,5.5,20.5,4.8,28.8-1.8c5.5-4.5,8.8-11.1,9.3-18.2c0-1,0.1-1.8,0-2.3C361.6,171.7,361.6,171.4,361.7,171.2z
			"/>
		<path class="st5" d="M239.8,252.2c-0.1,0.4-0.3,0.7-0.5,1c-0.4,0.6-0.9,1.5-1.6,2.5c-1.4,2.1-3.5,4.9-6,7.8
			c-2.1,2.5-4.4,4.9-6.8,7.2c-0.9,0.9-1.7,1.6-2.2,2c-0.3,0.3-0.6,0.5-0.9,0.7c0.2-0.3,0.5-0.6,0.7-0.8l2.1-2.1
			c1.8-1.8,4.1-4.4,6.6-7.3s4.6-5.7,6.1-7.7l1.8-2.4C239.3,252.7,239.6,252.4,239.8,252.2z"/>
		<g class="st4">
			<path d="M352.8,327.1c-5,2.9-11.9,3.3-17.9,3.5c-1.1,0.1-2.3-0.1-3.4-0.5c-1.1-0.4-1.8-1.5-1.8-2.7c0.1-1.4,1.5-2.3,2.8-2.8
				c4.9-2,10.4-1.9,15.6-3.2c8.8-2.2,17.8-8.5,24.6-14.4C367.9,315.4,361.1,322.3,352.8,327.1"/>
		</g>
		<path class="st0" d="M333.9,194.9L333.9,194.9c-11.8-0.9-20.9-10.8-20.8-22.7c0-5.6,0.1-10.1,0.1-10.1s-18.1-2.8-18.3-20.9
			s2.9-59.7,2.9-59.7l0,0c21-9,45.1-6,63.2,7.9l2.7,2.1l-5.5,82.4c-0.8,12.4-11.6,21.8-24,21C334.1,194.9,334,194.9,333.9,194.9z"/>
		<path class="st1" d="M313.2,161.8c8.4,0.2,16.6-2.2,23.6-6.7c0,0-5.6,13-23.6,11.4L313.2,161.8z"/>
		<path class="st0" d="M361.5,110.2c0.3-0.1,12.4-3.7,12,8.7s-12.7,9.4-12.8,9.1C360.7,127.6,361.5,110.2,361.5,110.2z"/>
		<path class="st1" d="M364.7,123.4c0.1,0,0.2,0.2,0.6,0.3c0.5,0.2,1.1,0.3,1.6,0.1c1.3-0.4,2.5-2.5,2.6-4.7
			c0.1-1.1-0.1-2.1-0.5-3.1c-0.2-0.8-0.8-1.4-1.6-1.7c-0.5-0.2-1,0.1-1.3,0.6c-0.2,0.3-0.1,0.6-0.2,0.6s-0.3-0.2-0.1-0.7
			c0.1-0.3,0.3-0.6,0.5-0.8c0.4-0.2,0.8-0.3,1.2-0.3c1,0.2,1.9,1,2.2,2c0.5,1.1,0.7,2.3,0.6,3.5c-0.1,2.5-1.5,4.8-3.3,5.2
			c-0.7,0.2-1.4,0-2-0.4C364.7,123.7,364.7,123.4,364.7,123.4z"/>
		<path class="st3" d="M304.4,110.5c0,1.4,1.1,2.6,2.5,2.6c1.4,0.1,2.6-0.9,2.7-2.3c0,0,0,0,0-0.1c0-1.4-1.1-2.6-2.5-2.6
			C305.7,108,304.5,109,304.4,110.5C304.4,110.4,304.4,110.4,304.4,110.5z"/>
		<path class="st3" d="M301.2,106.9c0.3,0.3,2.3-1.1,5.1-1.1s4.8,1.4,5.1,1.1c0.1-0.1-0.2-0.8-1.1-1.4c-1.2-0.8-2.6-1.3-4.1-1.3
			c-1.4,0-2.8,0.5-4,1.3C301.4,106.1,301.1,106.7,301.2,106.9z"/>
		<path class="st3" d="M331.1,111.1c0,1.4,1.1,2.6,2.5,2.6c1.4,0.1,2.6-0.9,2.7-2.3c0,0,0,0,0-0.1c0-1.4-1.1-2.6-2.5-2.6
			C332.4,108.6,331.2,109.6,331.1,111.1C331.1,111,331.1,111,331.1,111.1z"/>
		<path class="st3" d="M328.6,107.4c0.3,0.3,2.3-1.1,5.1-1.1s4.8,1.4,5.1,1.1c0.1-0.1-0.2-0.8-1.1-1.4c-1.2-0.8-2.6-1.3-4.1-1.3
			c-1.4,0-2.8,0.5-4,1.3C328.7,106.7,328.4,107.3,328.6,107.4z"/>
		<path class="st3" d="M318.5,128c0-0.2-1.7-0.4-4.5-0.8c-0.7-0.1-1.4-0.2-1.5-0.7c-0.1-0.7,0.1-1.5,0.5-2.1
			c0.7-1.7,1.4-3.5,2.1-5.4c2.9-7.7,5-14,4.7-14.1s-2.9,6-5.9,13.7l-2,5.4c-0.4,0.9-0.6,1.8-0.4,2.8c0.2,0.5,0.6,0.9,1.2,1
			c0.4,0.1,0.8,0.2,1.2,0.2C316.7,128.2,318.5,128.2,318.5,128z"/>
		<path class="st3" d="M327.9,96.5c0.3,0.8,3,0.4,6.3,0.8s5.9,1.3,6.3,0.6c0.2-0.3-0.3-1-1.3-1.8c-2.9-1.8-6.4-2.2-9.6-1.1
			C328.4,95.6,327.7,96.2,327.9,96.5z"/>
		<path class="st3" d="M302.3,98.8c0.5,0.6,2.4,0,4.7-0.1s4.2,0.4,4.7-0.2c0.2-0.3-0.1-1-1-1.6c-1.1-0.7-2.5-1.1-3.8-1
			c-1.4,0-2.7,0.5-3.8,1.3C302.3,97.8,302,98.5,302.3,98.8z"/>
		<path class="st3" d="M289,70c-0.3-2.3,0.7-4.6,2.5-6c1.9-1.4,4.5-1.2,6.1,0.5c-0.7-3,1.2-5.9,4.2-6.6c0.2,0,0.4-0.1,0.6-0.1
			c3-0.2,5.5,2.1,8.3,2.8s5.8,0.1,8.5-1s5.2-2.6,7.9-3.6c11.9-4.4,25.1,1.7,29.6,13.6c4-1.2,8.5,0.8,10.9,4.1s3.1,7.8,2.6,11.9
			c-0.4,2.8-1.1,5.6-2.1,8.2c0,0.2,0,0.5,0,0.7c-0.2,9.9-1.3,21.6-5.6,21.7c-7.4,0.1-5.6-13.8-5.6-13.8c-9.1-3.5-5.7-17.1-8-19.2
			s-7-6.9-26,2.9c-7.4,3.8-17.2,3.6-22.6,2.4l-0.5-0.1h-0.1c0,0-0.1,0-0.1-0.1c-1.7-0.4-3.4-1.1-4.9-2.1c-1.8-1-3.2-2.6-4-4.5
			c-0.8-1.9-0.4-4.1,1-5.7C290.2,74.4,289.3,72.3,289,70z"/>
		<path class="st1" d="M316.1,136.6c0.4,1.1,0.9,2.2,1.6,3.2c0.7,1,1.8,1.6,3,1.7c1.3,0,2.5-0.7,3.2-1.7c0.7-1.1,1-2.4,0.9-3.6
			c0-1.1-0.6-2.5-1.7-2.6c-0.5,0-1,0.1-1.4,0.3l-6,2.4"/>
		<path class="st3" d="M318.5,141.5c1.1,0.1,2.2-0.1,3.2-0.4c1-0.4,1.9-1.2,2.4-2.2c0.6-1.2,0.6-2.6,0.1-3.9
			c-0.1-0.3-0.3-0.6-0.5-0.9c-0.2-0.2-0.2-0.2-0.5-0.2s-0.6,0.3-1,0.4l-1,0.4c-1.3,0.5-2.4,1-3.4,1.3c-2,0.7-3.2,1.1-3.2,1
			s1.1-0.8,3-1.7c0.9-0.4,2.1-1,3.3-1.5l1-0.4c0.4-0.2,0.7-0.3,1.1-0.5c0.3-0.1,0.6-0.1,0.9,0c0.3,0.1,0.5,0.3,0.7,0.5
			c1.3,1.7,1.5,4,0.5,5.9c-0.6,1.2-1.7,2.1-3,2.4c-0.8,0.3-1.7,0.3-2.6,0.1C318.8,141.8,318.5,141.6,318.5,141.5z"/>
		<path class="st6" d="M349.5,81.5c0.1-0.7,0.1-1.5,0-2.2c-0.3-2-1.3-3.8-2.8-5.1c-2.3-1.9-5.2-2.9-8.1-2.7c-3.4,0-6.9,1.1-10.6,2.4
			c-1.8,0.6-3.6,1.2-5.5,1.6c-1.7,0.4-3.5,0.6-5.3,0.6c-3,0.1-6-0.3-8.9-1.2c-1.9-0.6-3.8-1.4-5.6-2.4c-0.5-0.3-0.9-0.6-1.4-0.9
			c-0.2-0.1-0.3-0.2-0.5-0.3c0,0,0.7,0.4,2,1c1.8,0.9,3.7,1.6,5.6,2.2c4.6,1.3,9.4,1.4,14,0.4c1.8-0.4,3.6-1,5.4-1.6
			c3.7-1.2,7.3-2.4,10.8-2.4c3.1-0.1,6.1,0.9,8.4,2.9c1.5,1.4,2.5,3.3,2.8,5.3C349.8,80,349.7,80.8,349.5,81.5z"/>
		<path class="st6" d="M363.6,112.1c0,0-0.1-0.1-0.2-0.4c-0.2-0.4-0.4-0.8-0.6-1.1c-0.6-1.4-1.1-3-1.5-4.5c-0.5-2.3-0.6-4.7-0.5-7
			c0.3-2.8,0.9-5.6,1.6-8.4c0.7-2.7,0.7-5.6,0-8.3c-0.3-1.2-0.9-2.2-1.7-3.1c-0.7-0.8-1.6-1.4-2.6-1.7c-1.4-0.5-3-0.5-4.5,0.1
			c-0.5,0.3-1,0.6-1.4,1c0.3-0.5,0.8-0.9,1.3-1.2c1.5-0.7,3.1-0.8,4.7-0.3c1.1,0.3,2,0.9,2.8,1.8c0.9,1,1.5,2.1,1.9,3.3
			c0.8,2.8,0.8,5.8,0,8.6c-0.7,2.7-1.3,5.5-1.6,8.3c-0.2,2.3-0.1,4.6,0.3,6.9c0.3,1.5,0.7,3,1.3,4.5
			C363.4,111.5,363.6,112.1,363.6,112.1z"/>
		<path class="st6" d="M351.2,80c0-0.2,0-0.5,0-0.7c0-0.5,0-1.2,0.1-2.1c0.1-2.5-0.2-5.1-0.8-7.5c-0.5-1.7-1.3-3.2-2.4-4.6
			c-1.2-1.6-2.9-2.7-4.9-3.2c-2.1-0.5-4.4-0.4-6.5,0.3c-2.3,0.7-4.4,1.7-6.5,2.9c-2.1,1.2-4.2,2.3-6.4,3.3c-2.1,0.8-4.4,1.3-6.6,1.3
			c-2,0-4.1-0.2-6.1-0.7c-1.7-0.5-3.4-1.2-4.9-2c-2.2-1.3-4.2-3-5.8-5c-0.4-0.5-0.8-1.1-1.2-1.7c-0.1-0.2-0.2-0.4-0.4-0.6
			c0.2,0.2,0.3,0.4,0.4,0.6c0.4,0.6,0.8,1.1,1.2,1.6c1.6,1.9,3.6,3.5,5.9,4.8c1.5,0.8,3.2,1.5,4.9,1.9c1.9,0.5,3.9,0.7,5.9,0.7
			c2.2-0.1,4.4-0.5,6.4-1.3c2.2-1,4.3-2.1,6.4-3.3c2.1-1.3,4.3-2.3,6.6-3c2.2-0.7,4.5-0.8,6.7-0.2c2,0.6,3.8,1.8,5.1,3.4
			c1.1,1.4,1.9,3,2.4,4.7c0.6,2.5,0.9,5.1,0.7,7.6c0,0.9-0.1,1.6-0.2,2.1C351.3,79.5,351.3,79.8,351.2,80z"/>
	</g>
	<g id="freepik--Desk--inject-34">
		<path class="st3" d="M458,370c0,0.1-101.6,0.3-227,0.3S4,370.2,4,370s101.6-0.3,227-0.3S458,369.9,458,370z"/>
	</g>
	<g id="freepik--Plant--inject-34">
		<path class="st2" d="M177.7,329c1.9,2.7,5.6,1.8,7.4,0.1c1.7-1.7,2.4-4.1,3.1-6.4c1.5-5.3,3-10.8,1.8-16.2c-0.3-1.6-1-3.1-2.1-4.4
			c-1.1-1.2-2.8-1.8-4.4-1.5c-1.9,0.5-3,2.4-3.9,4.1c-2.5,5.2-3.7,10.8-3.7,16.6C175.9,324,176.2,326.8,177.7,329"/>
		<g class="st7">
			<path d="M177.7,329c1.9,2.7,5.6,1.8,7.4,0.1c1.7-1.7,2.4-4.1,3.1-6.4c1.5-5.3,3-10.8,1.8-16.2c-0.3-1.6-1-3.1-2.1-4.4
				c-1.1-1.2-2.8-1.8-4.4-1.5c-1.9,0.5-3,2.4-3.9,4.1c-2.5,5.2-3.7,10.8-3.7,16.6C175.9,324,176.2,326.8,177.7,329"/>
		</g>
		<path class="st2" d="M184.9,342.9c3.2-1.5,6.8-2,10.3-1.3c1.9,0.2,3.7,0.9,5.1,2.2c1.3,1.4,1.5,3.9,0.1,5.1
			c-0.9,0.6-2.1,0.9-3.2,0.8c-2.7,0-5.8-0.5-7.9,1.2c-1.2,0.9-2,2.5-3.5,3c-1.5,0.4-3.1-0.3-3.9-1.7c-0.7-1.4-0.9-2.9-0.5-4.4
			C181.8,345.6,183.1,343.8,184.9,342.9z"/>
		<path class="st2" d="M172.5,332.9c2-2.6,2.5-6.1,1.5-9.2c-1.1-3.1-3-5.8-5.5-7.8c-2.9-2.5-6.2-4.4-9.8-5.7
			c-1.4-0.5-2.9-0.8-4.4-0.7c-1.5,0.1-2.9,0.9-3.6,2.2c-1,2,0,4.3,1,6.2c1.9,3.4,4,6.6,6.4,9.7c1.9,2.5,4.1,4.9,7,6
			c2.9,1.1,6,1,7.5-1.1"/>
		<path class="st3" d="M177.8,370.2c0.1-0.4,0.1-0.8,0.2-1.2c0.1-0.9,0.2-2,0.3-3.4c0.2-1.7,0.4-3.3,0.7-5c0.4-2,1-4,1.8-5.9
			c0.7-1.9,1.8-3.7,3-5.3c1-1.3,2.3-2.4,3.8-3.2c1-0.5,2.1-0.8,3.2-1c0.4,0,0.8-0.1,1.2-0.2c-0.4,0-0.8,0-1.3,0
			c-1.2,0.1-2.3,0.4-3.3,0.9c-1.6,0.7-2.9,1.8-4,3.2c-1.3,1.7-2.3,3.5-3.1,5.4c-0.8,1.9-1.4,4-1.8,6c-0.3,1.7-0.5,3.3-0.6,5
			c-0.1,1.5-0.1,2.6-0.1,3.4C177.8,369.4,177.8,369.8,177.8,370.2z"/>
		<path class="st3" d="M178,367.6c0-0.2,0-0.4,0-0.6c0-0.4,0-1,0-1.6c0-1.4,0-3.5,0-6.1c0.1-5.1,0.5-12.2,1.3-20
			c0.8-7.8,1.9-14.8,2.9-19.8c0.2-1.3,0.5-2.4,0.7-3.4s0.4-1.8,0.6-2.5c0.2-0.7,0.3-1.2,0.4-1.6c0.1-0.2,0.1-0.4,0.1-0.6
			c-0.1,0.2-0.1,0.4-0.2,0.5c-0.1,0.4-0.3,0.9-0.5,1.6s-0.4,1.5-0.7,2.5s-0.5,2.1-0.8,3.4c-1.4,6.5-2.4,13.2-3.1,19.8
			c-0.8,7.8-1.1,14.9-1.1,20c0,2.6,0.1,4.6,0.1,6.1c0,0.7,0.1,1.2,0.1,1.6C177.9,367.3,178,367.5,178,367.6z"/>
		<path class="st3" d="M177.9,354c0.1-0.6,0.1-1.1,0-1.7c-0.1-1.6-0.3-3.1-0.6-4.7c-0.9-5.1-2.4-10.1-4.4-14.8
			c-2-4.8-4.9-9.2-8.4-13c-0.6-0.6-1.3-1.3-2-1.8c-0.3-0.2-0.6-0.5-0.8-0.7l-0.8-0.5c-0.5-0.3-0.9-0.7-1.5-0.9
			c1.7,1.3,3.3,2.7,4.8,4.2c3.4,3.8,6.2,8.2,8.2,12.9c1.1,2.6,2.1,5.3,2.9,8c0.8,2.5,1.3,4.8,1.7,6.7c0.4,1.9,0.6,3.5,0.7,4.6
			C177.8,352.9,177.8,353.4,177.9,354z"/>
	</g>
	<g id="freepik--Features--inject-34">
		<polygon class="st2" points="197.1,214.3 154.6,212.5 154.6,170.1 197.1,170.1 		"/>
		<rect x="171.5" y="158" class="st2" width="42.4" height="42.4"/>
		<polygon class="st2" points="197.1,212.5 213.9,200.4 213.9,158 197.1,170.1 		"/>
		<polygon class="st2" points="154.6,170.1 171.5,158 213.9,158 197.1,170.1 		"/>
		<polygon class="st2" points="197.1,214.3 213.9,200.4 213.9,158 197.1,170.1 		"/>
		<polygon class="st8" points="154.6,170.1 171.5,158 213.9,158 197.1,170.1 		"/>
		<polygon class="st9" points="197.1,214.3 213.9,200.4 213.9,158 197.1,170.1 		"/>
		<path class="st2" d="M219.8,202c0.3,0.8,0.3,1.7,0.3,2.5c-0.2,0.4-0.1,0.1-0.1,0.2l0,0l0,0h-0.1l-0.1,0.1l-0.2,0.1l-0.4,0.3
			c-0.2,0.2-0.5,0.3-0.7,0.4c-0.4,0.2-0.6,0.4-0.7,0.3s0.1-0.3,0.5-0.6l0.6-0.5l0.4-0.3l0.2-0.1l0.1-0.1l0,0l0,0l0,0
			c0,0.1,0.1-0.2-0.1,0.2C219.5,203.7,219.6,202.8,219.8,202z"/>
		<path class="st2" d="M219.8,191.3c0.3,1.8,0.3,3.6,0,5.4C219.5,194.9,219.5,193,219.8,191.3z"/>
		<path class="st2" d="M219.8,180.6c0.3,1.8,0.3,3.6,0,5.4C219.5,184.2,219.5,182.3,219.8,180.6z"/>
		<path class="st2" d="M219.8,169.9c0.3,1.8,0.3,3.6,0,5.4C219.5,173.4,219.5,171.6,219.8,169.9z"/>
		<path class="st2" d="M219.8,159.1c0.3,1.8,0.3,3.6,0,5.4C219.5,162.7,219.5,160.9,219.8,159.1z"/>
		<path class="st2" d="M217.3,151.3c0.8-0.3,1.7-0.3,2.5-0.3l0.3,0.3l0,0v0.5v0.5c0,0.3,0,0.6-0.1,0.8c0,0.4-0.1,0.7-0.2,0.7
			c-0.1,0-0.1-0.3-0.2-0.7c0-0.2,0-0.5-0.1-0.8v-1l0,0l0.3,0.3C219,151.6,218.2,151.5,217.3,151.3z"/>
		<path class="st2" d="M207.7,151.3c1.6-0.3,3.2-0.3,4.8,0C211,151.6,209.3,151.6,207.7,151.3z"/>
		<path class="st2" d="M198.1,151.3c1.6-0.3,3.2-0.3,4.8,0C201.4,151.6,199.7,151.6,198.1,151.3z"/>
		<path class="st2" d="M188.6,151.3c1.6-0.3,3.2-0.3,4.8,0C191.8,151.6,190.1,151.6,188.6,151.3z"/>
		<path class="st2" d="M178.9,151.3c1.6-0.3,3.2-0.3,4.8,0C182.2,151.6,180.5,151.6,178.9,151.3z"/>
		<path class="st2" d="M169.6,151.9c0-0.1,0.2-0.3,0.5-0.7l0,0h0.1c0.4,0,0.9-0.1,1.5-0.1c0.8-0.1,1.6,0,2.4,0.3
			c-0.8,0.3-1.6,0.3-2.4,0.3c-0.6,0-1.1,0-1.5-0.1l0.1-0.1C169.9,151.7,169.6,151.9,169.6,151.9z"/>
		<path class="st2" d="M162.2,157.9c-0.1-0.1,0.7-0.9,1.7-1.7s1.9-1.4,2-1.3c0.1,0.1-0.7,0.9-1.7,1.7
			C163.2,157.5,162.3,158,162.2,157.9z"/>
		<path class="st2" d="M154.8,164.1c-0.1-0.1,0.7-0.9,1.7-1.7c1-0.8,1.9-1.4,2-1.3c0.1,0.1-0.7,0.9-1.7,1.7S154.9,164.2,154.8,164.1
			z"/>
		<path class="st2" d="M149.2,171.2c-0.2-0.8-0.3-1.7-0.2-2.5l0.1-0.2l0,0l0,0h0.1l0.1-0.1l0.2-0.1l0.4-0.3l0.6-0.5
			c0.4-0.2,0.6-0.4,0.7-0.3s-0.1,0.3-0.5,0.6c-0.2,0.2-0.4,0.4-0.6,0.5l-0.4,0.3l-0.2,0.2l-0.1,0.1h0l0,0l0,0c0-0.1-0.1,0.2,0.1-0.2
			C149.5,169.6,149.4,170.4,149.2,171.2z"/>
		<path class="st2" d="M149.1,181.1c-0.2-0.8-0.3-1.6-0.2-2.5c-0.1-0.8,0-1.7,0.3-2.5C149.5,177.8,149.5,179.5,149.1,181.1
			L149.1,181.1z"/>
		<path class="st2" d="M148.9,191.1c-0.3-0.8-0.3-1.6-0.2-2.5c-0.1-0.8,0-1.7,0.3-2.5c0.3,0.8,0.3,1.6,0.2,2.5
			C149.3,189.4,149.2,190.3,148.9,191.1z"/>
		<path class="st2" d="M148.9,201c-0.2-0.8-0.3-1.6-0.2-2.5c-0.1-0.8,0-1.7,0.3-2.5c0.2,0.8,0.3,1.6,0.2,2.5
			C149.2,199.3,149.2,200.2,148.9,201z"/>
		<path class="st2" d="M148.8,210.9c-0.2-0.8-0.3-1.6-0.2-2.5c-0.1-0.8,0-1.7,0.3-2.5c0.2,0.8,0.3,1.6,0.2,2.5
			C149.2,209.3,149.1,210.1,148.8,210.9z"/>
		<path class="st2" d="M151.2,218.4c-0.8,0.2-1.7,0.3-2.5,0.2c-0.5-0.5-0.1-0.1-0.2-0.3l0,0v-0.5v-0.5c0-0.3,0-0.6,0.1-0.8
			c0.1-0.5,0.1-0.7,0.2-0.7s0.1,0.3,0.2,0.7c0,0.2,0,0.5,0.1,0.8c0,0.3,0,0.3,0,0.5v0.5l0,0l-0.3-0.3
			C149.5,218,150.4,218.1,151.2,218.4z"/>
		<path class="st2" d="M160.7,218.6c-0.8,0.3-1.6,0.3-2.4,0.2c-0.8,0.1-1.6,0-2.4-0.3c0.8-0.3,1.6-0.3,2.4-0.2
			C159.1,218.2,159.9,218.3,160.7,218.6z"/>
		<path class="st2" d="M170.2,218.7c-0.8,0.2-1.6,0.3-2.4,0.2c-0.8,0.1-1.6,0-2.4-0.3c0.8-0.2,1.6-0.3,2.4-0.2
			C168.6,218.3,169.4,218.4,170.2,218.7z"/>
		<path class="st2" d="M179.6,218.9c-1.6,0.3-3.2,0.3-4.7-0.1C176.5,218.4,178.1,218.5,179.6,218.9z"/>
		<path class="st2" d="M189.1,219c-1.6,0.3-3.2,0.3-4.7-0.1c0.8-0.2,1.6-0.3,2.4-0.2C187.5,218.7,188.4,218.8,189.1,219z"/>
		<path class="st2" d="M198.6,219.2c-0.8,0.2-1.6,0.3-2.4,0.2c-0.8,0.1-1.6,0-2.4-0.3c0.8-0.2,1.6-0.3,2.4-0.2
			C197,218.8,197.8,218.9,198.6,219.2z"/>
		<path class="st2" d="M206.5,214.6c0.1,0.1-0.7,0.8-1.7,1.6c-0.6,0.5-1.3,1-2,1.2c-0.1-0.1,0.7-0.9,1.7-1.6
			C205.5,215,206.4,214.5,206.5,214.6z"/>
		<path class="st2" d="M214.1,208.9c0.1,0.1-0.7,0.9-1.7,1.6c-0.6,0.5-1.3,1-2,1.2c-0.1-0.1,0.7-0.9,1.7-1.6
			C213.1,209.3,213.9,208.8,214.1,208.9z"/>
		<path class="st2" d="M208.3,147.9c0.1,0,0.1,0.6,0,1.3c-0.1,0.7-0.4,1.2-0.5,1.2c-0.1,0-0.1-0.6,0-1.3
			C207.9,148.4,208.2,147.8,208.3,147.9z"/>
		<path class="st2" d="M210.6,137.6c0.1,0.9,0,1.8-0.3,2.6c-0.1,0.9-0.4,1.7-0.8,2.5C209.5,141,209.9,139.2,210.6,137.6L210.6,137.6
			z"/>
		<path class="st2" d="M212.9,127.5c0,1.8-0.4,3.5-1.1,5.1C211.9,130.8,212.2,129.1,212.9,127.5z"/>
		<path class="st2" d="M215.2,117.3c0,1.8-0.4,3.5-1.1,5.1c-0.1-0.9,0-1.8,0.3-2.6C214.5,118.9,214.8,118.1,215.2,117.3z"/>
		<path class="st2" d="M217.5,107.1c0.1,0.9,0,1.8-0.3,2.6c-0.1,0.9-0.4,1.7-0.8,2.5C216.4,110.5,216.8,108.7,217.5,107.1
			L217.5,107.1z"/>
		<path class="st2" d="M219.8,97c0.1,0.9,0,1.8-0.3,2.6c-0.1,0.9-0.4,1.7-0.8,2.5c-0.1-0.9,0-1.8,0.3-2.6
			C219.1,98.6,219.4,97.7,219.8,97z"/>
		<path class="st2" d="M221.5,89.5c0.1,0,0.1,0.6,0,1.3s-0.4,1.2-0.5,1.2c-0.1,0-0.1-0.6,0-1.3S221.3,89.4,221.5,89.5z"/>
		<path class="st2" d="M169.1,149c0.1-0.1,0.5,0.4,0.8,1c0.3,0.6,0.5,1.2,0.3,1.2s-0.5-0.4-0.8-1C169.1,149.6,169,149.1,169.1,149z"
			/>
		<path class="st2" d="M164.7,140.3c0.1-0.1,0.7,0.9,1.3,2.1c0.4,0.7,0.7,1.5,0.9,2.3c-0.1,0.1-0.7-0.9-1.3-2.1
			C165.2,141.9,164.9,141.1,164.7,140.3z"/>
		<path class="st2" d="M160.4,131.6c0.6,0.6,1,1.3,1.3,2.1c0.4,0.7,0.7,1.5,0.9,2.3c-0.6-0.6-1-1.3-1.3-2.1
			C160.8,133.2,160.5,132.4,160.4,131.6z"/>
		<path class="st2" d="M155.9,122.9c0.1-0.1,0.7,0.9,1.3,2.1c0.4,0.7,0.7,1.5,0.9,2.3c-0.1,0.1-0.7-0.9-1.3-2.1
			C156.4,124.5,156.1,123.7,155.9,122.9z"/>
		<path class="st2" d="M151.6,114.2c0.6,0.6,1,1.3,1.3,2.1c0.4,0.7,0.7,1.5,0.9,2.3c-0.6-0.6-1-1.3-1.3-2.1
			C152,115.8,151.7,115,151.6,114.2z"/>
		<path class="st2" d="M147.2,105.5c0.1-0.1,0.7,0.9,1.3,2.1c0.4,0.7,0.7,1.5,0.9,2.3c-0.6-0.6-1-1.3-1.3-2.1
			C147.6,107.1,147.3,106.3,147.2,105.5z"/>
		<path class="st2" d="M142.8,96.8c0.6,0.6,1,1.3,1.3,2.1c0.4,0.7,0.7,1.5,0.9,2.3c-0.1,0.1-0.7-0.9-1.3-2
			C143.2,98.4,142.9,97.6,142.8,96.8z"/>
		<path class="st2" d="M138.4,88.1c0.1-0.1,0.7,0.9,1.3,2.1c0.4,0.7,0.7,1.5,0.9,2.3c-0.6-0.6-1-1.3-1.3-2.1
			C138.9,89.7,138.6,88.9,138.4,88.1z"/>
		<path class="st2" d="M135.1,81.5c0.1-0.1,0.5,0.4,0.8,1s0.5,1.2,0.3,1.2s-0.5-0.4-0.8-1S135,81.6,135.1,81.5z"/>
		<path class="st2" d="M90.8,164.1c0,0.1-0.6,0.2-1.3,0.2s-1.2-0.2-1.2-0.4s0.6-0.2,1.3-0.2S90.8,164,90.8,164.1z"/>
		<path class="st2" d="M100.9,165c-0.8,0.2-1.7,0.2-2.6,0.1c-0.9,0-1.7-0.1-2.5-0.5c0.8-0.2,1.7-0.2,2.6-0.1
			C99.3,164.5,100.1,164.6,100.9,165z"/>
		<path class="st2" d="M111.1,165.7c-1.7,0.2-3.4,0.1-5.1-0.4C107.8,165.1,109.5,165.3,111.1,165.7z"/>
		<path class="st2" d="M121.3,166.5c-1.7,0.2-3.4,0.1-5.1-0.4c0.8-0.2,1.7-0.2,2.6-0.1C119.6,166.1,120.5,166.2,121.3,166.5z"/>
		<path class="st2" d="M131.5,167.3c-0.8,0.2-1.7,0.2-2.6,0.1c-0.9,0-1.7-0.1-2.5-0.5c0.8-0.2,1.7-0.2,2.6-0.1
			C129.8,166.8,130.7,167,131.5,167.3z"/>
		<path class="st2" d="M141.6,168.1c-0.8,0.2-1.7,0.2-2.6,0.1c-0.9,0-1.7-0.1-2.5-0.5C138.3,167.5,140,167.7,141.6,168.1z"/>
		<path class="st2" d="M149.2,168.7c0,0.1-0.6,0.2-1.3,0.2c-0.7,0-1.2-0.2-1.2-0.4s0.6-0.2,1.3-0.2S149.2,168.6,149.2,168.7z"/>
		<circle class="st10" cx="114.4" cy="44.3" r="44"/>
		<path class="st2" d="M158.5,44.3c0,0,0-0.2-0.1-0.7s-0.1-1.2-0.1-2.1c0-0.5,0-1-0.1-1.5c0-0.6-0.2-1.2-0.3-1.8s-0.2-1.4-0.3-2.1
			c-0.2-0.8-0.3-1.6-0.6-2.4c-1-4.1-2.7-8.1-4.9-11.7c-2.9-4.8-6.7-9.1-11.2-12.4L139,8c-0.7-0.4-1.4-0.8-2.1-1.3s-1.4-0.9-2.1-1.2
			l-2.3-1.1l-1.1-0.6l-1.2-0.4l-2.5-0.9c-0.8-0.3-1.7-0.4-2.6-0.7c-0.9-0.3-1.8-0.5-2.7-0.6c-1.8-0.3-3.7-0.6-5.5-0.6
			c-0.9,0-1.9-0.1-2.9-0.1l-2.9,0.2c-0.5,0-1,0-1.5,0.1l-1.5,0.2c-1,0.2-2,0.3-2.9,0.5c-2,0.4-3.9,1-5.8,1.7c-2,0.7-3.9,1.5-5.7,2.5
			c-0.9,0.5-1.8,1.1-2.7,1.6c-0.4,0.3-0.9,0.5-1.3,0.8l-1.3,1c-1.8,1.3-3.4,2.7-5,4.2l-2.2,2.4l-0.6,0.6l-0.5,0.7l-1,1.3l-1,1.3
			l-0.9,1.4l-0.9,1.4l-0.4,0.7l-0.4,0.8l-1.5,3.1l-1.1,3.2c-3,9-3,18.7,0,27.6c0.4,1.1,0.8,2.2,1.2,3.2s1,2.1,1.5,3.1l0.4,0.8
			l0.4,0.7l0.9,1.4l0.9,1.4l1,1.4l1,1.3l0.5,0.7l0.6,0.6l2.2,2.4c1.6,1.5,3.2,2.9,5,4.2l1.3,1c0.4,0.3,0.9,0.6,1.3,0.9
			c0.9,0.5,1.8,1.1,2.7,1.6c1.8,1,3.8,1.8,5.7,2.5c1.9,0.7,3.9,1.3,5.8,1.7c1,0.2,2,0.3,2.9,0.5l1.5,0.2c0.5,0.1,1,0.1,1.5,0.1
			l2.9,0.1c1,0,1.9-0.1,2.9-0.1c1.9-0.1,3.7-0.3,5.5-0.6c0.9-0.1,1.8-0.3,2.6-0.6c0.9-0.2,1.7-0.4,2.6-0.7l2.5-0.9l1.2-0.4l1.2-0.6
			l2.3-1.1c0.7-0.4,1.4-0.8,2.1-1.2c0.7-0.4,1.4-0.8,2.1-1.3l1.9-1.4c4.5-3.4,8.3-7.6,11.1-12.4c2.2-3.6,3.8-7.6,4.8-11.7
			c0.2-0.8,0.4-1.6,0.6-2.4c0.1-0.8,0.2-1.5,0.3-2.1c0.1-0.7,0.2-1.3,0.3-1.8c0.1-0.6,0.1-1.1,0.1-1.5c0.1-0.9,0.1-1.6,0.1-2.1
			S158.4,44.3,158.5,44.3c0,0,0,0.2,0,0.7s-0.1,1.2-0.1,2.1c0,0.5,0,1-0.1,1.5s-0.2,1.2-0.2,1.9s-0.2,1.4-0.3,2.1
			c-0.1,0.8-0.3,1.6-0.5,2.4c-1,4.2-2.6,8.1-4.8,11.8c-2.9,4.9-6.7,9.2-11.2,12.6l-1.9,1.4c-0.7,0.4-1.4,0.9-2.1,1.3
			c-0.7,0.4-1.4,0.9-2.1,1.3l-2.3,1.1l-1.2,0.6l-1.2,0.4l-2.5,0.9c-0.9,0.3-1.7,0.5-2.6,0.7c-0.9,0.3-1.8,0.5-2.7,0.6
			c-1.9,0.3-3.7,0.6-5.6,0.7c-1,0-1.9,0.1-2.9,0.1l-2.9-0.1c-0.5,0-1,0-1.5-0.1l-1.5-0.2c-1-0.2-2-0.3-3-0.5
			c-4.1-0.9-8-2.3-11.7-4.2c-0.9-0.5-1.8-1.1-2.8-1.6c-0.4-0.3-0.9-0.5-1.4-0.9l-1.3-1c-1.8-1.3-3.4-2.7-5-4.3l-2.3-2.5l-0.6-0.6
			l-0.5-0.7l-1-1.4l-1-1.4l-0.9-1.5l-0.9-1.5l-0.4-0.7l-0.4-0.8c-0.5-1-1-2.1-1.5-3.1c-0.4-1.1-0.8-2.2-1.2-3.3
			c-3-9.1-3-18.9,0-27.9l1.2-3.3c0.5-1.1,1-2.1,1.5-3.1l0.4-0.8l0.4-0.7l0.9-1.5l0.9-1.5l1-1.4l1-1.4l0.5-0.7l0.6-0.6l2.2-2.5
			c1.6-1.5,3.2-3,5-4.3l1.3-1c0.4-0.3,0.9-0.6,1.4-0.9c0.9-0.6,1.8-1.1,2.8-1.6c3.7-1.9,7.6-3.3,11.7-4.2c1-0.2,2-0.3,3-0.5l1.5-0.2
			c0.5-0.1,1-0.1,1.5-0.1l2.9-0.1c1,0,1.9,0.1,2.9,0.1c1.9,0.1,3.7,0.3,5.6,0.7c0.9,0.1,1.8,0.3,2.7,0.6c0.9,0.2,1.8,0.4,2.6,0.7
			l2.5,0.9l1.2,0.4l1.2,0.6l2.3,1.1c0.8,0.3,1.4,0.8,2.1,1.2s1.4,0.8,2.1,1.3l1.9,1.4c4.5,3.4,8.3,7.7,11.2,12.6
			c2.2,3.7,3.8,7.6,4.8,11.8c0.2,0.8,0.4,1.6,0.6,2.4c0.1,0.8,0.2,1.5,0.3,2.1s0.2,1.3,0.2,1.9c0,0.6,0,1.1,0.1,1.6
			c0,0.9,0.1,1.6,0.1,2.1C158.4,44,158.5,44.3,158.5,44.3z"/>
		<path class="st11" d="M118.9,19.8c1.3,0.2,2.6,0.5,3.8,1l2.8-2.3l4.8,3.6l-1.5,3.3c0.8,1,1.5,2.2,2,3.4l3.6,0.3l0.8,6l-3.4,1.3
			c-0.2,1.3-0.5,2.6-1,3.8l2.3,2.8l-3.6,4.8l-3.3-1.5c-1,0.8-2.2,1.5-3.4,2l-0.3,3.6l-6,0.8l-1.3-3.4c-1.3-0.2-2.6-0.5-3.8-1
			l-2.8,2.3l-4.8-3.6l1.5-3.3c-0.8-1-1.5-2.2-2-3.4L99.8,40l-0.8-6l3.4-1.3c0.2-1.3,0.5-2.6,1-3.8l-2.3-2.8l3.6-4.8l3.3,1.5
			c1-0.8,2.2-1.5,3.4-2l0.3-3.6l6-0.8L118.9,19.8z M116.5,28.1c-3.5,0.5-6,3.7-5.5,7.3c0.5,3.5,3.7,6,7.3,5.5c3.5-0.5,6-3.7,5.5-7.3
			c0,0,0,0,0,0C123.3,30.1,120,27.6,116.5,28.1L116.5,28.1z"/>
		<path class="st3" d="M116.5,28.1c0,0,0.1-0.1,0.4-0.1c0.4,0,0.8,0,1.2,0c1.5,0.1,2.9,0.8,4,1.8c2.6,2.6,2.7,6.8,0.1,9.4
			c0,0-0.1,0.1-0.1,0.1c-2.1,2-5.3,2.5-7.9,1.1c-3.2-1.8-4.4-5.8-2.6-9c0-0.1,0.1-0.1,0.1-0.2c0.7-1.3,1.9-2.3,3.3-2.8
			c0.4-0.1,0.8-0.2,1.2-0.3C116.3,28.1,116.4,28.1,116.5,28.1c0.1,0-0.5,0.1-1.4,0.5c-1.3,0.6-2.4,1.6-3.1,2.8c-1,1.9-1,4.1,0,6
			c0.6,1.1,1.5,2,2.5,2.6c1.2,0.6,2.5,0.9,3.8,0.7c2.6-0.4,4.7-2.3,5.2-4.8c0.5-2.1-0.2-4.2-1.6-5.7c-1-1-2.3-1.7-3.7-1.9
			C117.1,28.1,116.5,28.2,116.5,28.1z"/>
		<path class="st3" d="M118.9,19.8l-0.1-0.2l-0.3-0.6l-1-2.5h0.1l-6,0.9l0.1-0.1c-0.1,1.1-0.2,2.3-0.3,3.6v0.1h-0.1
			c-1.2,0.5-2.3,1.2-3.3,2L108,23h-0.1l-3.3-1.5l0.2-0.1l-3.6,4.8V26l2.3,2.8l0.1,0.1V29c-0.5,1.2-0.8,2.4-1,3.7v0.1h-0.1l-3.4,1.3
			l0.2-0.2c0.3,1.9,0.5,3.9,0.8,6l-0.2-0.2l3.6,0.3h0.2v0.1c0.5,1.2,1.2,2.3,2,3.3l0.1,0.1l-0.1,0.1l-1.5,3.3l-0.1-0.3l4.8,3.6h-0.3
			l2.8-2.3l0.1-0.1l0.1,0.1c1.2,0.5,2.4,0.8,3.7,1l0,0l0.2,0.2l0,0l0,0v0.1v0.1l0.1,0.2l0.2,0.4l0.3,0.9c0.2,0.6,0.4,1.1,0.6,1.7
			l-0.3-0.2l6-0.8l-0.2,0.2c0.1-1.2,0.2-2.4,0.3-3.6V48l0.1-0.1c1.2-0.5,2.3-1.1,3.3-1.9l0.1-0.1l0.1,0.1l3.3,1.5l-0.3,0.1
			c1.2-1.6,2.5-3.2,3.6-4.8v0.3c-0.8-1-1.6-1.9-2.3-2.8l-0.1-0.1l0.1-0.1c0.5-1.2,0.8-2.4,1-3.7v-0.1l0.1-0.1l3.4-1.3l-0.1,0.2
			c-0.3-2.1-0.5-4.1-0.8-6l0.2,0.2l-3.6-0.3h-0.1v-0.1c-0.5-1.2-1.1-2.3-1.9-3.3l-0.1-0.1v-0.1l1.5-3.3l0.1,0.2l-4.8-3.7h0.1
			l-2.8,2.3l0,0h-0.1c-0.9-0.4-1.8-0.7-2.8-0.9l-0.7-0.1L118.9,19.8c0.1,0,0.2,0,0.2,0c0.2,0,0.5,0.1,0.7,0.1c1,0.2,1.9,0.4,2.9,0.8
			h-0.1l2.8-2.4l0.1-0.1l0.1,0.1l4.8,3.6l0.1,0.1l0,0.1l-1.5,3.3v-0.2c0.8,1,1.5,2.2,2,3.4l-0.1-0.1l3.6,0.3h0.1v0.2l0.8,5.9v0.2
			l-0.2,0.1l-3.4,1.3l0.1-0.2c-0.2,1.3-0.5,2.6-1,3.9V40c0.8,0.9,1.6,1.8,2.3,2.8l0.1,0.1l-0.1,0.2l-3.6,4.8l-0.1,0.1l-0.2-0.1
			l-3.3-1.5h0.3c-1.1,0.8-2.2,1.5-3.4,2l0.2-0.2c-0.1,1.2-0.2,2.4-0.3,3.6v0.2h-0.2l-6,0.8h-0.2l-0.1-0.2l-0.6-1.7l-0.3-0.9
			l-0.2-0.4l-0.1-0.2v-0.1v-0.1l0,0l0,0l0.2,0.2l0,0c-1.3-0.2-2.6-0.5-3.9-1h0.3l-2.8,2.3l-0.2,0.1l-0.2-0.1l-4.8-3.6l-0.2-0.1
			l0.1-0.2l1.5-3.3v0.3c-0.8-1.1-1.5-2.2-2-3.4l0.2,0.1l-3.6-0.3h-0.2V40c-0.3-2.1-0.6-4.1-0.8-6v-0.2l0.2-0.1l3.4-1.3l-0.1,0.2
			c0.2-1.3,0.5-2.6,1-3.8v0.2c-0.8-1-1.6-1.9-2.3-2.8l-0.1-0.1l0.1-0.1l3.7-4.8l0.1-0.1l0.1,0.1l3.3,1.5h-0.2c1-0.8,2.2-1.5,3.4-2
			l-0.1,0.1c0.1-1.3,0.2-2.5,0.3-3.6v-0.1h0.1l6-0.8h0.1v0.1c0.4,1.1,0.7,1.9,0.9,2.5c0.1,0.3,0.2,0.5,0.2,0.7
			C118.9,19.7,118.9,19.8,118.9,19.8z"/>
		<path class="st2" d="M108.4,55.2c0.7,0.1,1.4,0.3,2.1,0.6l1.5-1.3l2.6,2l-0.8,1.8c0.4,0.6,0.8,1.2,1.1,1.9l2,0.2l0.4,3.3l-1.9,0.7
			c-0.1,0.7-0.3,1.4-0.6,2.1l1.3,1.5l-2,2.6l-1.8-0.8c-0.6,0.4-1.2,0.8-1.9,1.1l-0.2,2l-3.3,0.4l-0.7-1.9c-0.7-0.1-1.4-0.3-2.1-0.6
			l-1.5,1.3l-2.6-2l0.8-1.8c-0.4-0.6-0.8-1.2-1.1-1.9l-2-0.2L97.4,63l1.9-0.7c0.1-0.7,0.3-1.4,0.6-2.1l-1.3-1.5l2-2.6l1.8,0.8
			c0.6-0.4,1.2-0.8,1.9-1.1l0.2-2l3.3-0.4L108.4,55.2L108.4,55.2z M107,59.8c-1.9,0.3-3.3,2.1-3,4c0.3,1.9,2.1,3.3,4,3
			c1.9-0.3,3.3-2.1,3-4c0,0,0,0,0,0C110.8,60.9,109,59.5,107,59.8L107,59.8z"/>
		<circle class="st10" cx="234.8" cy="48.6" r="44"/>
		<path class="st2" d="M278.8,48.6c0,0,0-0.2-0.1-0.7s-0.1-1.2-0.1-2.1c0-0.5-0.1-1-0.1-1.5s-0.2-1.2-0.3-1.8s-0.2-1.4-0.3-2.1
			s-0.4-1.6-0.6-2.4c-1-4.1-2.7-8.1-4.9-11.7c-2.9-4.8-6.7-9-11.1-12.4l-1.9-1.4c-0.7-0.4-1.4-0.8-2.1-1.3s-1.4-0.9-2.1-1.2
			l-2.3-1.1l-1.2-0.6l-1.2-0.4l-2.5-0.9c-0.8-0.3-1.7-0.4-2.6-0.7c-0.9-0.3-1.8-0.5-2.6-0.6c-1.8-0.3-3.7-0.6-5.5-0.6
			c-1,0-1.9-0.1-2.9-0.1L231.6,5c-0.5,0-1,0-1.5,0.1l-1.5,0.2c-1,0.2-2,0.3-2.9,0.5c-4,0.9-7.9,2.3-11.6,4.2
			c-0.9,0.5-1.8,1.1-2.7,1.6c-0.4,0.3-0.9,0.5-1.4,0.8l-1.3,1c-1.8,1.3-3.4,2.7-5,4.2l-2.2,2.4l-0.6,0.6l-0.5,0.7l-1,1.3l-1,1.3
			l-0.9,1.4l-0.9,1.4l-0.4,0.7l-0.4,0.8l-1.5,3.1l-1.2,3.3c-3,9-3,18.7,0,27.6l1.2,3.2l1.5,3.1l0.4,0.8l0.4,0.7l0.9,1.4l0.9,1.4
			l1,1.4l1,1.3l0.5,0.7l0.6,0.6l2.2,2.5c1.6,1.5,3.2,2.9,5,4.2l1.3,1c0.4,0.3,0.9,0.6,1.4,0.9c0.9,0.5,1.8,1.1,2.7,1.6
			c1.8,1,3.8,1.8,5.7,2.5c1.9,0.7,3.9,1.3,5.8,1.7c1,0.2,2,0.3,2.9,0.5l1.5,0.2c0.5,0.1,1,0.1,1.5,0.1l2.9,0.1c1,0,1.9-0.1,2.9-0.1
			c1.9-0.1,3.7-0.3,5.5-0.6c0.9-0.2,1.8-0.4,2.6-0.6c0.9-0.2,1.8-0.4,2.6-0.7l2.5-0.9l1.2-0.4l1.1-0.6l2.3-1.1
			c0.8-0.3,1.4-0.8,2.1-1.2s1.4-0.8,2.1-1.3l1.9-1.4c4.5-3.4,8.3-7.6,11.1-12.4c2.2-3.6,3.8-7.6,4.9-11.7c0.2-0.9,0.5-1.6,0.6-2.4
			s0.2-1.5,0.3-2.1s0.2-1.3,0.3-1.8s0.1-1.1,0.1-1.5c0-0.9,0.1-1.6,0.1-2.1S278.8,48.7,278.8,48.6c0,0.1,0,0.3,0,0.8s0,1.2-0.1,2.1
			c0,0.5,0,1-0.1,1.5s-0.2,1.2-0.3,1.9s-0.2,1.4-0.3,2.2s-0.4,1.6-0.6,2.4c-1,4.2-2.6,8.1-4.8,11.8c-2.9,4.9-6.7,9.1-11.2,12.6
			l-1.9,1.4c-0.7,0.4-1.4,0.9-2.1,1.3s-1.4,0.9-2.2,1.2l-2.3,1l-1.2,0.6l-1.2,0.4l-2.5,0.9c-0.8,0.3-1.7,0.5-2.6,0.7
			c-0.9,0.3-1.8,0.5-2.7,0.6c-1.8,0.4-3.7,0.6-5.6,0.7c-1,0-1.9,0.1-2.9,0.1l-2.9-0.1c-0.5,0-1,0-1.5-0.1l-1.5-0.2
			c-1-0.2-2-0.3-3-0.5c-2-0.4-4-1-5.9-1.7c-2-0.7-3.9-1.6-5.8-2.5c-0.9-0.5-1.8-1.1-2.8-1.6c-0.4-0.3-0.9-0.5-1.4-0.9l-1.3-1
			c-1.8-1.3-3.4-2.7-5-4.3l-2.2-2.5l-0.6-0.6l-0.5-0.7l-1-1.4l-1-1.4l-0.9-1.5l-0.9-1.5l-0.5-0.7l-0.4-0.8c-0.5-1-1-2.1-1.5-3.1
			l-1.2-3.3c-3.1-9.1-3.1-18.9,0-27.9l1.2-3.3l1.5-3.1l0.4-0.8l0.4-0.7l0.9-1.5l0.9-1.5l1-1.4l1-1.3l0.5-0.7l0.6-0.6
			c0.8-0.8,1.5-1.7,2.2-2.5c1.6-1.5,3.2-3,5-4.3l1.3-1c0.4-0.3,0.9-0.6,1.4-0.9c0.9-0.6,1.8-1.1,2.8-1.6c1.9-1,3.8-1.8,5.8-2.5
			c1.9-0.7,3.9-1.3,5.9-1.7c1-0.2,2-0.3,3-0.5l1.5-0.2c0.5-0.1,1-0.1,1.5-0.1l2.9-0.1c1,0,1.9,0.1,2.9,0.1c1.9,0.1,3.8,0.3,5.6,0.7
			c0.9,0.1,1.8,0.4,2.7,0.6c0.9,0.2,1.8,0.4,2.6,0.7l2.5,0.9l1.2,0.5l1.2,0.6l2.3,1.1c0.8,0.3,1.4,0.8,2.1,1.2s1.4,0.8,2.1,1.3
			l1.9,1.4c4.5,3.4,8.3,7.7,11.2,12.6c2.2,3.7,3.8,7.6,4.8,11.8c0.2,0.9,0.5,1.6,0.6,2.4s0.2,1.5,0.3,2.2s0.2,1.3,0.3,1.8
			s0,1.1,0.1,1.6c0,0.9,0.1,1.6,0.1,2.1S278.8,48.6,278.8,48.6z"/>
		<circle class="st12" cx="233.5" cy="48.9" r="22.2"/>
		<path class="st3" d="M211.4,47.4c0,0.1,0,0.2,0,0.4c0,0.3,0,0.6,0,1.1v0.8c0,0.3,0,0.6,0.1,0.9c0.1,0.8,0.2,1.5,0.3,2.3
			c0.4,2.1,1.1,4.1,2.1,6c4.8,9.4,15.6,14,25.7,11c1-0.3,2-0.6,2.9-1.1c1-0.4,1.9-1,2.8-1.6c0.9-0.6,1.8-1.2,2.6-1.9
			c0.8-0.8,1.6-1.6,2.3-2.4c1.5-1.7,2.7-3.7,3.5-5.8c0.9-2.2,1.4-4.5,1.6-6.8c0.1-2.4-0.1-4.7-0.7-7c-0.6-2.2-1.5-4.3-2.7-6.2
			c-0.6-0.9-1.3-1.8-2-2.7c-0.7-0.8-1.5-1.6-2.3-2.3c-0.8-0.7-1.7-1.3-2.6-1.9c-10-6.2-23-3.5-29.7,6.2c-1.2,1.7-2.2,3.7-2.8,5.7
			c-0.3,0.7-0.5,1.5-0.6,2.2c-0.1,0.3-0.1,0.6-0.2,0.9c-0.1,0.3-0.1,0.5-0.1,0.8c-0.1,0.4-0.1,0.8-0.1,1c0,0.1,0,0.2-0.1,0.4
			c0-0.1,0-0.2,0-0.4c0-0.3,0.1-0.6,0.1-1.1c0-0.2,0-0.5,0.1-0.8s0.1-0.6,0.2-0.9c0.1-0.8,0.3-1.5,0.6-2.3c0.6-2.1,1.6-4,2.8-5.8
			c6.9-10.1,20.7-12.8,30.8-5.9c0.7,0.5,1.4,1,2,1.6c0.9,0.7,1.7,1.5,2.4,2.3c0.7,0.9,1.4,1.8,2,2.7c1.3,2,2.2,4.1,2.8,6.4
			c0.6,2.3,0.8,4.7,0.7,7.1c-0.2,2.4-0.7,4.8-1.6,7c-0.9,2.2-2.1,4.2-3.6,6c-0.7,0.9-1.5,1.7-2.4,2.4c-0.8,0.7-1.7,1.4-2.7,2
			c-0.9,0.6-1.9,1.1-2.9,1.6c-4.7,2-9.8,2.4-14.8,1.2c-6.2-1.6-11.4-5.8-14.3-11.6c-1-1.9-1.6-4-2-6.1c-0.1-0.8-0.2-1.5-0.3-2.3
			c0-0.3-0.1-0.6-0.1-0.9s0-0.5,0-0.8c0-0.4,0-0.8,0.1-1.1C211.4,47.6,211.4,47.5,211.4,47.4z"/>
		<path class="st3" d="M243.5,49.5c-0.3,0-0.5,0-0.8,0l-2.1,0.1c-1.8,0-4.4,0-7.2,0h-0.1V48c0-3.2,0-6.1,0-8.2c0-1,0-1.9,0-2.5
			c0-0.3,0-0.6,0-0.9c0,0.3,0.1,0.6,0.1,0.9c0,0.6,0,1.5,0,2.5c0,2.1,0,5,0,8.2v1.4l-0.1-0.1c2.9,0,5.4,0,7.2,0.1h2.1
			C243,49.4,243.3,49.4,243.5,49.5z"/>
		<path class="st3" d="M233.4,30.3c0.2,1.2,0.2,2.5,0,3.7C233.2,32.8,233.2,31.6,233.4,30.3z"/>
		<path class="st3" d="M243.5,33.3c-0.7,1-1.6,1.9-2.6,2.6c0.3-0.5,0.7-1,1.2-1.4C242.5,34,243,33.6,243.5,33.3z"/>
		<path class="st3" d="M249.4,39.8c-0.5,0.4-1,0.7-1.5,1c-0.5,0.4-1,0.7-1.6,0.9c0.4-0.5,0.9-0.8,1.5-1.1
			C248.3,40.2,248.8,39.9,249.4,39.8z"/>
		<path class="st3" d="M252.9,49.3c-1.7,0.2-3.4,0.2-5.1,0C249.5,49.2,251.2,49.2,252.9,49.3z"/>
		<path class="st3" d="M217.7,49c-1.6,0.2-3.2,0.2-4.8,0C214.5,48.8,216.1,48.8,217.7,49z"/>
		<path class="st3" d="M220.2,56.1c-0.5,0.6-1.1,1.2-1.8,1.6c-0.6,0.6-1.3,1-2,1.4c0.5-0.6,1.1-1.2,1.8-1.6
			C218.8,57,219.5,56.5,220.2,56.1z"/>
		<path class="st3" d="M226.3,61.6c-0.4,0.7-0.8,1.5-1.2,2.1c-0.4,0.7-0.8,1.4-1.3,2.1c0.2-0.8,0.6-1.6,1.1-2.2
			C225.2,62.9,225.7,62.2,226.3,61.6z"/>
		<path class="st3" d="M233.4,68.7c-0.2-1.7-0.2-3.4,0-5.1C233.6,65.3,233.6,67.1,233.4,68.7z"/>
		<path class="st3" d="M244.4,65.4c-0.8-0.4-1.5-0.8-2.1-1.4c-0.7-0.5-1.2-1.2-1.7-1.9c0.7,0.5,1.3,1.1,1.9,1.7
			C243.1,64.2,243.8,64.8,244.4,65.4z"/>
		<path class="st3" d="M249.5,59.8c-0.6-0.4-1.2-0.9-1.7-1.5c-0.6-0.5-1.1-1.1-1.5-1.7c0.6,0.4,1.2,0.9,1.7,1.5
			C248.6,58.7,249.1,59.2,249.5,59.8z"/>
		<path class="st3" d="M219.9,42.2c-0.5-0.4-1-0.8-1.5-1.3c-0.5-0.4-0.9-0.9-1.3-1.5c0.5,0.4,1,0.8,1.5,1.3
			C219.2,41.1,219.6,41.6,219.9,42.2z"/>
		<path class="st3" d="M226.3,35.5c-0.5-0.3-1-0.8-1.5-1.2c-0.5-0.4-0.9-0.9-1.3-1.4c0.5,0.3,1,0.8,1.5,1.2
			C225.5,34.5,225.9,35,226.3,35.5z"/>
		<circle class="st2" cx="250.4" cy="30.3" r="11.6"/>
		<path class="st5" d="M255.9,26.7c-0.4,0.7-0.9,1.3-1.4,1.9c-0.9,1.1-2.2,2.6-3.7,4.2c-0.4,0.4-0.8,0.9-1.2,1.3l-0.2,0.2l-0.2-0.2
			c-1.3-1.2-2.5-2.2-3.3-3c-0.5-0.4-0.9-0.8-1.2-1.3c0.5,0.3,1,0.6,1.4,1.1c0.9,0.7,2,1.7,3.4,2.9h-0.4c0.4-0.4,0.8-0.9,1.2-1.3
			c1.5-1.6,2.8-3.1,3.8-4.2C254.8,27.7,255.3,27.2,255.9,26.7z"/>
		<path class="st2" d="M145,221.7c-0.1-0.1,0.7-0.9,1.7-1.9s1.9-1.6,2-1.5s-0.7,0.9-1.7,1.9S145.1,221.9,145,221.7z"/>
		<path class="st2" d="M137.6,228.4c-0.1-0.1,0.6-0.9,1.7-1.9s1.9-1.6,2-1.5s-0.6,0.9-1.7,1.9S137.7,228.5,137.6,228.4z"/>
		<path class="st2" d="M130.1,235.1c-0.1-0.1,0.7-1,1.7-1.9c0.6-0.6,1.2-1.1,2-1.5c0.1,0.1-0.7,0.9-1.7,1.9
			C131.6,234.2,130.9,234.7,130.1,235.1z"/>
		<path class="st2" d="M122.7,241.8c-0.1-0.1,0.6-0.9,1.7-1.9s1.9-1.6,2-1.5s-0.6,0.9-1.7,1.9S122.8,241.9,122.7,241.8z"/>
		<path class="st2" d="M115.3,248.5c-0.1-0.1,0.7-0.9,1.7-1.9s1.9-1.6,2-1.5s-0.7,0.9-1.7,1.9S115.4,248.6,115.3,248.5z"/>
		<circle class="st10" cx="88.3" cy="284.1" r="44"/>
		<path class="st2" d="M132.3,284.1c0,0,0-0.2-0.1-0.7s-0.1-1.2-0.1-2.1c0-0.5-0.1-1-0.1-1.5s-0.2-1.2-0.3-1.8s-0.2-1.4-0.3-2.1
			c-0.1-0.8-0.3-1.6-0.6-2.4c-1-4.1-2.7-8.1-4.9-11.7c-2.9-4.8-6.7-9-11.1-12.4l-1.9-1.4c-0.7-0.4-1.4-0.8-2.1-1.3s-1.4-0.9-2.1-1.2
			l-2.3-1.1l-1.2-0.5l-1.2-0.5l-2.5-0.9c-0.8-0.3-1.7-0.5-2.6-0.7c-0.9-0.2-1.8-0.4-2.7-0.6c-1.8-0.3-3.7-0.6-5.5-0.6
			c-0.9,0-1.9-0.1-2.9-0.1l-2.9,0.1c-0.5,0-1,0-1.5,0.1l-1.5,0.2c-1,0.2-2,0.3-2.9,0.5c-2,0.4-3.9,1-5.8,1.7c-2,0.7-3.9,1.5-5.7,2.5
			c-0.9,0.5-1.8,1.1-2.7,1.6c-0.4,0.3-0.9,0.5-1.3,0.9l-1.3,1c-1.8,1.3-3.4,2.7-5,4.2l-2.2,2.5l-0.6,0.6l-0.5,0.7l-1,1.3l-1,1.3
			l-0.9,1.4l-0.9,1.5l-0.4,0.7l-0.4,0.8c-0.5,1-1,2-1.5,3.1s-0.8,2.2-1.2,3.2c-3,9-3,18.7,0,27.6c0.4,1.1,0.8,2.2,1.2,3.2
			s1,2.1,1.5,3.1l0.4,0.8l0.4,0.7l0.9,1.5l0.9,1.5l1,1.3l1,1.3l0.5,0.7l0.6,0.6l2.2,2.5c1.6,1.5,3.2,2.9,5,4.2l1.3,1
			c0.4,0.3,0.9,0.6,1.4,0.9c0.9,0.5,1.8,1.1,2.7,1.6c1.8,1,3.8,1.8,5.7,2.5c1.9,0.7,3.9,1.3,5.8,1.7c1,0.2,2,0.3,2.9,0.5l1.5,0.2
			c0.5,0.1,1,0.1,1.5,0.1L88,328c1,0,1.9-0.1,2.8-0.1c1.9-0.1,3.7-0.3,5.5-0.6c0.9-0.1,1.8-0.3,2.7-0.6c0.9-0.2,1.8-0.4,2.6-0.7
			l2.5-0.9l1.2-0.4l1.1-0.5l2.3-1.1c0.8-0.3,1.4-0.8,2.1-1.2s1.4-0.8,2.1-1.3l1.9-1.4c4.5-3.4,8.3-7.6,11.2-12.4
			c2.2-3.6,3.9-7.6,4.9-11.7c0.2-0.8,0.4-1.6,0.6-2.4c0.1-0.8,0.2-1.5,0.3-2.1c0.1-0.7,0.2-1.3,0.3-1.8s0.1-1.1,0.1-1.5
			c0.1-0.9,0.1-1.6,0.1-2.1S132.3,284.1,132.3,284.1c0,0,0,0.2,0,0.7s0,1.2-0.1,2.1c0,0.5,0,1-0.1,1.5s-0.2,1.2-0.3,1.8
			c-0.1,0.7-0.2,1.4-0.3,2.2c-0.1,0.8-0.3,1.6-0.6,2.4c-1,4.1-2.6,8.1-4.8,11.8c-2.9,4.9-6.7,9.1-11.2,12.6l-1.9,1.4
			c-0.7,0.4-1.4,0.8-2.1,1.3s-1.4,0.9-2.2,1.2l-2.3,1.1l-1.2,0.6l-1.2,0.5l-2.5,0.9c-0.8,0.3-1.7,0.5-2.6,0.7
			c-0.9,0.3-1.8,0.5-2.7,0.6c-1.8,0.4-3.7,0.6-5.6,0.7c-1,0-1.9,0.1-2.9,0.1l-2.9-0.1c-0.5,0-1,0-1.5-0.1l-1.5-0.2
			c-1-0.2-2-0.3-3-0.5c-2-0.4-4-1-5.9-1.7c-2-0.7-3.9-1.6-5.8-2.5c-0.9-0.5-1.8-1.1-2.8-1.6c-0.4-0.3-0.9-0.5-1.4-0.9l-1.3-1
			c-1.8-1.3-3.4-2.7-5-4.3l-2.2-2.5l-0.6-0.6l-0.5-0.7l-1-1.4l-1-1.4l-0.9-1.5l-0.9-1.5l-0.4-0.7l-0.4-0.8l-1.5-3.1l-1.2-3.3
			c-3.1-9.1-3.1-18.9,0-28l1.2-3.3c0.5-1,1-2.1,1.5-3.1l0.4-0.8l0.4-0.7l0.9-1.5l0.9-1.5l1-1.4l1-1.4l0.5-0.7l0.6-0.6l2.2-2.4
			c1.6-1.5,3.2-3,5-4.3l1.3-1c0.4-0.3,0.9-0.6,1.4-0.9c0.9-0.5,1.8-1.1,2.8-1.6c1.9-1,3.8-1.8,5.8-2.5c1.9-0.7,3.9-1.3,5.9-1.7
			c1-0.2,2-0.3,3-0.5l1.5-0.2c0.5-0.1,1-0.1,1.5-0.1l2.9-0.1c1,0,1.9,0.1,2.9,0.1c1.9,0.1,3.7,0.3,5.6,0.7c0.9,0.2,1.8,0.4,2.7,0.6
			c0.9,0.2,1.8,0.4,2.6,0.7l2.5,0.9l1.2,0.5l1.2,0.6l2.3,1.1c0.8,0.4,1.4,0.8,2.1,1.2s1.4,0.8,2.1,1.3l1.9,1.4
			c4.5,3.4,8.3,7.7,11.2,12.6c2.2,3.7,3.8,7.6,4.8,11.8c0.2,0.8,0.4,1.6,0.6,2.4c0.1,0.8,0.2,1.5,0.3,2.2s0.2,1.3,0.3,1.9
			s0,1.1,0.1,1.5c0,0.9,0.1,1.6,0.1,2.1C132.4,283.9,132.3,284.1,132.3,284.1z"/>
		<path class="st3" d="M110.4,303.9c-0.3,0-0.6,0.1-0.9,0l-2.4,0l-9,0.1l-29.6,0.1h-2.4v-0.3c0-11,0.1-20.9,0.1-28.1
			c0-3.5,0.1-6.4,0.1-8.5c0-1,0-1.7,0.1-2.3c0-0.3,0-0.5,0-0.8c0,0.3,0.1,0.5,0.1,0.8c0,0.6,0,1.3,0,2.3c0,2,0,4.9,0.1,8.5
			c0,7.2,0,17.1,0.1,28.1l-0.3-0.3h2.1l29.6,0.1l9,0.1l2.4,0C109.8,303.8,110.1,303.8,110.4,303.9z"/>
		<path class="st3" d="M105.5,273.8c-0.4,0.5-0.8,0.9-1.3,1.2l-3.7,3.2c-3.2,2.7-7.5,6.5-12.4,10.6l-0.7,0.6l-0.2,0.2l-0.2-0.2
			l-5.5-5.1h0.4l-8.1,6.7l-2.3,1.9c-0.3,0.2-0.6,0.5-0.9,0.6c0.2-0.3,0.5-0.5,0.8-0.8l2.2-2l7.9-6.8l0.2-0.1L82,284l5.5,5.1h-0.4
			l0.7-0.6c4.8-4.1,9.3-7.8,12.5-10.5l3.8-3.1C104.6,274.5,105,274.1,105.5,273.8z"/>
		<path class="st3" d="M105.5,283c-0.2-0.9-0.2-1.8-0.2-2.7c0-1.7-0.1-4.1-0.1-6.7l0.3,0.3h-0.5c-2.7,0-5.2,0-7-0.1
			c-1,0-1.9,0-2.9-0.2c1-0.2,1.9-0.2,2.9-0.2c1.8,0,4.3-0.1,7-0.1h0.8v0.3c0,2.6,0,5-0.1,6.7C105.8,281.2,105.7,282.1,105.5,283z"/>
		
			<ellipse transform="matrix(0.2397 -0.9708 0.9708 0.2397 -122.4697 165.287)" class="st10" cx="44.3" cy="160.8" rx="44" ry="44"/>
		<path class="st2" d="M88.3,160.9c0,0,0-0.2-0.1-0.7s-0.1-1.2-0.1-2.1c0-0.5-0.1-1-0.1-1.5c0-0.5-0.2-1.2-0.3-1.8
			c-0.1-0.7-0.2-1.4-0.3-2.1c-0.1-0.8-0.4-1.6-0.6-2.4c-1-4.1-2.7-8.1-4.9-11.7c-2.9-4.8-6.7-9.1-11.2-12.5l-1.8-1.4
			c-0.7-0.4-1.4-0.8-2.1-1.3s-1.4-0.9-2.1-1.2l-2.3-1.1l-1.2-0.6l-1.2-0.4l-2.5-0.9c-0.8-0.3-1.7-0.5-2.6-0.7
			c-0.9-0.3-1.8-0.5-2.7-0.6c-1.8-0.3-3.7-0.6-5.5-0.6c-0.9,0-1.9-0.1-2.9-0.1l-2.9,0.1c-0.5,0-1,0-1.5,0.1l-1.5,0.2
			c-1,0.2-2,0.3-2.9,0.5c-2,0.4-3.9,1-5.8,1.7c-2,0.7-3.9,1.5-5.7,2.5c-0.9,0.5-1.8,1.1-2.7,1.6c-0.5,0.3-0.9,0.5-1.3,0.9l-1.3,1
			c-1.8,1.3-3.4,2.7-5,4.2l-2.2,2.4l-0.6,0.6l-0.5,0.7L9,135l-1,1.4l-0.9,1.4l-0.9,1.5l-0.4,0.7l-0.4,0.8l-1.5,3.1L2.8,147
			c-3,9-3,18.7,0,27.6c0.4,1.1,0.8,2.2,1.2,3.2s1,2.1,1.5,3.1l0.4,0.8l0.4,0.7l0.9,1.5l0.9,1.4l1,1.4l1,1.3l0.5,0.7l0.6,0.6l2.2,2.5
			c1.6,1.5,3.2,2.9,5,4.2l1.3,1c0.4,0.3,0.9,0.6,1.4,0.9c0.9,0.5,1.8,1.1,2.7,1.6c3.7,1.9,7.5,3.3,11.6,4.2c1,0.2,2,0.3,2.9,0.5
			l1.5,0.2c0.5,0.1,1,0.1,1.5,0.1l2.9,0.1c1,0,1.9-0.1,2.8-0.1c1.9-0.1,3.7-0.3,5.5-0.6c0.9-0.1,1.8-0.3,2.7-0.6
			c0.9-0.2,1.8-0.4,2.6-0.7l2.5-0.9l1.2-0.4l1.2-0.5l2.3-1.1c0.8-0.4,1.4-0.8,2.1-1.2s1.4-0.8,2.1-1.3l1.9-1.4
			c4.5-3.4,8.3-7.6,11.1-12.5c2.2-3.6,3.8-7.6,4.9-11.7c0.2-0.8,0.4-1.6,0.6-2.4c0.1-0.8,0.2-1.5,0.3-2.1s0.2-1.3,0.3-1.8
			s0.1-1.1,0.1-1.5c0.1-0.9,0.1-1.6,0.1-2.1S88.3,160.8,88.3,160.9c0,0,0,0.2,0,0.7s0,1.2-0.1,2.1c0,0.5,0,1-0.1,1.5
			s-0.2,1.2-0.3,1.9s-0.2,1.4-0.3,2.1c-0.1,0.8-0.3,1.6-0.6,2.4c-1,4.2-2.6,8.1-4.8,11.8c-2.9,4.9-6.7,9.2-11.2,12.6l-1.9,1.4
			c-0.7,0.4-1.4,0.9-2.1,1.3s-1.4,0.9-2.2,1.3l-2.3,1.1l-1.2,0.5l-1.2,0.5l-2.5,0.9c-0.8,0.3-1.7,0.5-2.6,0.7
			c-0.9,0.3-1.8,0.5-2.7,0.6c-1.8,0.3-3.7,0.6-5.6,0.7c-1,0-1.9,0.1-2.9,0.1l-2.9-0.1c-0.5,0-1,0-1.5-0.1l-1.5-0.2
			c-1-0.2-2-0.3-3-0.5c-2-0.4-4-1-5.9-1.7c-2-0.7-3.9-1.6-5.8-2.5c-0.9-0.5-1.8-1.1-2.8-1.6c-0.5-0.3-0.9-0.5-1.4-0.9l-1.3-1
			c-1.8-1.3-3.4-2.7-5-4.3l-2.2-2.5l-0.6-0.6l-0.5-0.7l-1-1.4l-1-1.4l-0.9-1.5l-0.9-1.5l-0.4-0.7l-0.4-0.8c-0.5-1-1-2.1-1.5-3.1
			l-1.3-3.2c-3.1-9.1-3.1-18.9,0-28l1.2-3.3l1.5-3.1l0.4-0.8l0.5-0.7l0.9-1.5l0.9-1.5l1-1.4l1-1.4l0.5-0.7l0.6-0.6l2.3-2.5
			c1.6-1.5,3.2-3,5-4.3l1.3-1c0.4-0.3,0.9-0.6,1.4-0.9c0.9-0.6,1.8-1.1,2.8-1.6c1.9-1,3.8-1.8,5.8-2.5c1.9-0.7,3.9-1.3,5.9-1.7
			c1-0.2,2-0.3,3-0.5l1.5-0.2c0.5-0.1,1-0.1,1.5-0.1l2.9-0.1c1,0,1.9,0.1,2.9,0.1c1.9,0.1,3.7,0.3,5.6,0.7c0.9,0.1,1.8,0.4,2.7,0.6
			c0.9,0.2,1.8,0.4,2.6,0.7l2.5,0.9l1.2,0.4l1.2,0.6l2.4,1.1c0.8,0.4,1.4,0.9,2.2,1.3s1.4,0.8,2.1,1.3l1.9,1.4
			c4.5,3.4,8.3,7.7,11.2,12.6c2.2,3.7,3.8,7.6,4.8,11.8c0.2,0.9,0.5,1.6,0.6,2.4s0.2,1.5,0.3,2.1c0.1,0.7,0.2,1.3,0.3,1.9
			s0,1.1,0.1,1.6c0,0.9,0.1,1.6,0.1,2.1S88.3,160.9,88.3,160.9z"/>
		<path class="st5" d="M45.4,141.7l4.8,9.7c0.2,0.4,0.5,0.6,0.9,0.7l10.7,1.6c0.7,0.1,1.1,0.7,1,1.4c0,0.3-0.2,0.5-0.4,0.7l-7.7,7.5
			c-0.3,0.3-0.4,0.7-0.3,1.1l1.8,10.6c0.1,0.7-0.3,1.3-1,1.4c-0.3,0-0.5,0-0.8-0.1l-9.5-5c-0.4-0.2-0.8-0.2-1.2,0l-9.5,5
			c-0.6,0.3-1.3,0.1-1.7-0.5c-0.1-0.2-0.2-0.5-0.1-0.8l1.8-10.6c0.1-0.4-0.1-0.8-0.4-1.1l-7.7-7.5c-0.5-0.5-0.5-1.3,0-1.8
			c0.2-0.2,0.4-0.3,0.7-0.4l10.7-1.5c0.4-0.1,0.7-0.3,0.9-0.7l4.8-9.7c0.3-0.6,1-0.9,1.7-0.6C45.1,141.2,45.3,141.4,45.4,141.7z"/>
		<path class="st3" d="M45.4,141.7c0,0,0-0.1-0.2-0.3c-0.5-0.5-1.2-0.5-1.7,0c-0.1,0.1-0.2,0.3-0.3,0.4l-0.9,1.9
			c-0.7,1.5-1.6,3.2-2.6,5.3l-0.8,1.6c-0.1,0.3-0.3,0.6-0.4,0.8c-0.2,0.3-0.5,0.6-0.8,0.7c-1.3,0.2-2.7,0.4-4.1,0.6l-4.5,0.7
			l-2.4,0.4c-0.5,0.1-0.9,0.6-0.8,1.2c0,0.2,0.1,0.3,0.2,0.5l7.7,7.5c0.4,0.4,0.6,1,0.5,1.5l-0.2,1.4c-0.2,1-0.3,1.9-0.5,2.9
			c-0.3,2-0.7,4-1,6c-0.1,0.4,0.1,0.9,0.4,1.1c0.2,0.1,0.4,0.2,0.6,0.1c0.2,0,0.4-0.1,0.6-0.2l2.8-1.5l5.8-3l0.7-0.4
			c0.3-0.1,0.7-0.2,1-0.1c0.3,0.1,0.6,0.2,0.8,0.4l0.7,0.4l2.9,1.5l5.6,2.9c0.5,0.2,1.1,0,1.3-0.5c0-0.1,0.1-0.2,0.1-0.3
			c0-0.2,0-0.5-0.1-0.7c-0.2-1-0.3-2-0.5-3c-0.3-2-0.7-3.9-1-5.8l-0.2-1.4c-0.1-0.5,0.1-1.1,0.5-1.5c0.7-0.6,1.3-1.3,2-1.9
			c1.3-1.3,2.6-2.5,3.8-3.7l1.8-1.7c0.5-0.3,0.6-0.9,0.2-1.4c-0.1-0.1-0.2-0.2-0.4-0.3c-0.3-0.1-0.7-0.2-1.1-0.2l-1.2-0.2l-2.2-0.3
			l-4.1-0.6l-1.9-0.3c-0.3-0.1-0.6-0.1-0.9-0.2c-0.3-0.1-0.6-0.3-0.8-0.6l-2.6-5.3l-1.6-3.4l-0.4-0.9
			C45.5,141.8,45.4,141.7,45.4,141.7c0.1,0.1,0.1,0.2,0.2,0.3c0.1,0.2,0.3,0.5,0.4,0.9c0.4,0.8,1,1.9,1.7,3.3l2.7,5.2
			c0.1,0.2,0.3,0.4,0.6,0.5c0.2,0.1,0.6,0.1,0.9,0.1l1.9,0.3l4.1,0.6l2.2,0.3l1.1,0.2c0.4,0,0.8,0.1,1.2,0.3c0.7,0.4,0.9,1.3,0.5,2
			c-0.1,0.1-0.2,0.3-0.3,0.4l-1.8,1.8l-3.8,3.7l-2,1.9c-0.3,0.2-0.5,0.6-0.4,1l0.2,1.4c0.3,1.9,0.7,3.8,1,5.8c0.2,1,0.3,2,0.5,3
			c0.1,0.3,0.1,0.6,0.1,0.8c0,0.3-0.2,0.6-0.4,0.8c-0.4,0.5-1.1,0.6-1.7,0.4l-5.6-2.9l-2.8-1.5l-0.7-0.4c-0.2-0.1-0.4-0.2-0.7-0.3
			c-0.2,0-0.4,0-0.6,0.1l-0.7,0.4l-5.8,3l-2.8,1.5c-0.3,0.2-0.5,0.3-0.8,0.3c-0.3,0-0.6-0.1-0.9-0.2c-0.5-0.3-0.8-1-0.7-1.6
			c0.4-2,0.7-4,1-6c0.2-1,0.3-2,0.5-2.9l0.2-1.4c0.1-0.4,0-0.8-0.3-1.1l-7.8-7.6c-0.3-0.4-0.4-0.9-0.2-1.4c0.2-0.5,0.5-0.8,1-0.9
			L29,153l4.5-0.6l4.1-0.6c0.3-0.1,0.5-0.3,0.6-0.5l0.4-0.8l0.8-1.6l2.6-5.2c0.4-0.7,0.7-1.4,1-1.9c0.2-0.5,0.8-0.8,1.3-0.8
			c0.3,0,0.6,0.2,0.9,0.4C45.3,141.5,45.4,141.6,45.4,141.7z"/>
		
			<ellipse transform="matrix(0.2397 -0.9708 0.9708 0.2397 -122.4697 165.287)" class="st10" cx="44.3" cy="160.8" rx="44" ry="44"/>
		<path class="st2" d="M88.3,160.9c0,0,0-0.2-0.1-0.7s-0.1-1.2-0.1-2.1c0-0.5-0.1-1-0.1-1.5c0-0.5-0.2-1.2-0.3-1.8
			c-0.1-0.7-0.2-1.4-0.3-2.1c-0.1-0.8-0.4-1.6-0.6-2.4c-1-4.1-2.7-8.1-4.9-11.7c-2.9-4.8-6.7-9.1-11.2-12.5l-1.8-1.4
			c-0.7-0.4-1.4-0.8-2.1-1.3s-1.4-0.9-2.1-1.2l-2.3-1.1l-1.2-0.6l-1.2-0.4l-2.5-0.9c-0.8-0.3-1.7-0.5-2.6-0.7
			c-0.9-0.3-1.8-0.5-2.7-0.6c-1.8-0.3-3.7-0.6-5.5-0.6c-0.9,0-1.9-0.1-2.9-0.1l-2.9,0.1c-0.5,0-1,0-1.5,0.1l-1.5,0.2
			c-1,0.2-2,0.3-2.9,0.5c-2,0.4-3.9,1-5.8,1.7c-2,0.7-3.9,1.5-5.7,2.5c-0.9,0.5-1.8,1.1-2.7,1.6c-0.5,0.3-0.9,0.5-1.3,0.9l-1.3,1
			c-1.8,1.3-3.4,2.7-5,4.2l-2.2,2.4l-0.6,0.6l-0.5,0.7L9,135l-1,1.4l-0.9,1.4l-0.9,1.5l-0.4,0.7l-0.4,0.8l-1.5,3.1L2.8,147
			c-3,9-3,18.7,0,27.6c0.4,1.1,0.8,2.2,1.2,3.2s1,2.1,1.5,3.1l0.4,0.8l0.4,0.7l0.9,1.5l0.9,1.4l1,1.4l1,1.3l0.5,0.7l0.6,0.6l2.2,2.5
			c1.6,1.5,3.2,2.9,5,4.2l1.3,1c0.4,0.3,0.9,0.6,1.4,0.9c0.9,0.5,1.8,1.1,2.7,1.6c3.7,1.9,7.5,3.3,11.6,4.2c1,0.2,2,0.3,2.9,0.5
			l1.5,0.2c0.5,0.1,1,0.1,1.5,0.1l2.9,0.1c1,0,1.9-0.1,2.8-0.1c1.9-0.1,3.7-0.3,5.5-0.6c0.9-0.1,1.8-0.3,2.7-0.6
			c0.9-0.2,1.8-0.4,2.6-0.7l2.5-0.9l1.2-0.4l1.2-0.5l2.3-1.1c0.8-0.4,1.4-0.8,2.1-1.2s1.4-0.8,2.1-1.3l1.9-1.4
			c4.5-3.4,8.3-7.6,11.1-12.5c2.2-3.6,3.8-7.6,4.9-11.7c0.2-0.8,0.4-1.6,0.6-2.4c0.1-0.8,0.2-1.5,0.3-2.1s0.2-1.3,0.3-1.8
			s0.1-1.1,0.1-1.5c0.1-0.9,0.1-1.6,0.1-2.1S88.3,160.8,88.3,160.9c0,0,0,0.2,0,0.7s0,1.2-0.1,2.1c0,0.5,0,1-0.1,1.5
			s-0.2,1.2-0.3,1.9s-0.2,1.4-0.3,2.1c-0.1,0.8-0.3,1.6-0.6,2.4c-1,4.2-2.6,8.1-4.8,11.8c-2.9,4.9-6.7,9.2-11.2,12.6l-1.9,1.4
			c-0.7,0.4-1.4,0.9-2.1,1.3s-1.4,0.9-2.2,1.3l-2.3,1.1l-1.2,0.5l-1.2,0.5l-2.5,0.9c-0.8,0.3-1.7,0.5-2.6,0.7
			c-0.9,0.3-1.8,0.5-2.7,0.6c-1.8,0.3-3.7,0.6-5.6,0.7c-1,0-1.9,0.1-2.9,0.1l-2.9-0.1c-0.5,0-1,0-1.5-0.1l-1.5-0.2
			c-1-0.2-2-0.3-3-0.5c-2-0.4-4-1-5.9-1.7c-2-0.7-3.9-1.6-5.8-2.5c-0.9-0.5-1.8-1.1-2.8-1.6c-0.5-0.3-0.9-0.5-1.4-0.9l-1.3-1
			c-1.8-1.3-3.4-2.7-5-4.3l-2.2-2.5l-0.6-0.6l-0.5-0.7l-1-1.4l-1-1.4l-0.9-1.5l-0.9-1.5l-0.4-0.7l-0.4-0.8c-0.5-1-1-2.1-1.5-3.1
			l-1.3-3.2c-3.1-9.1-3.1-18.9,0-28l1.2-3.3l1.5-3.1l0.4-0.8l0.5-0.7l0.9-1.5l0.9-1.5l1-1.4l1-1.4l0.5-0.7l0.6-0.6l2.3-2.5
			c1.6-1.5,3.2-3,5-4.3l1.3-1c0.4-0.3,0.9-0.6,1.4-0.9c0.9-0.6,1.8-1.1,2.8-1.6c1.9-1,3.8-1.8,5.8-2.5c1.9-0.7,3.9-1.3,5.9-1.7
			c1-0.2,2-0.3,3-0.5l1.5-0.2c0.5-0.1,1-0.1,1.5-0.1l2.9-0.1c1,0,1.9,0.1,2.9,0.1c1.9,0.1,3.7,0.3,5.6,0.7c0.9,0.1,1.8,0.4,2.7,0.6
			c0.9,0.2,1.8,0.4,2.6,0.7l2.5,0.9l1.2,0.4l1.2,0.6l2.4,1.1c0.8,0.4,1.4,0.9,2.2,1.3s1.4,0.8,2.1,1.3l1.9,1.4
			c4.5,3.4,8.3,7.7,11.2,12.6c2.2,3.7,3.8,7.6,4.8,11.8c0.2,0.9,0.5,1.6,0.6,2.4s0.2,1.5,0.3,2.1c0.1,0.7,0.2,1.3,0.3,1.9
			s0,1.1,0.1,1.6c0,0.9,0.1,1.6,0.1,2.1S88.3,160.9,88.3,160.9z"/>
		<path class="st5" d="M45.4,141.7l4.8,9.7c0.2,0.4,0.5,0.6,0.9,0.7l10.7,1.6c0.7,0.1,1.1,0.7,1,1.4c0,0.3-0.2,0.5-0.4,0.7l-7.7,7.5
			c-0.3,0.3-0.4,0.7-0.3,1.1l1.8,10.6c0.1,0.7-0.3,1.3-1,1.4c-0.3,0-0.5,0-0.8-0.1l-9.5-5c-0.4-0.2-0.8-0.2-1.2,0l-9.5,5
			c-0.6,0.3-1.3,0.1-1.7-0.5c-0.1-0.2-0.2-0.5-0.1-0.8l1.8-10.6c0.1-0.4-0.1-0.8-0.4-1.1l-7.7-7.5c-0.5-0.5-0.5-1.3,0-1.8
			c0.2-0.2,0.4-0.3,0.7-0.4l10.7-1.5c0.4-0.1,0.7-0.3,0.9-0.7l4.8-9.7c0.3-0.6,1-0.9,1.7-0.6C45.1,141.2,45.3,141.4,45.4,141.7z"/>
		<path class="st3" d="M45.4,141.7c0,0,0-0.1-0.2-0.3c-0.5-0.5-1.2-0.5-1.7,0c-0.1,0.1-0.2,0.3-0.3,0.4l-0.9,1.9
			c-0.7,1.5-1.6,3.2-2.6,5.3l-0.8,1.6c-0.1,0.3-0.3,0.6-0.4,0.8c-0.2,0.3-0.5,0.6-0.8,0.7c-1.3,0.2-2.7,0.4-4.1,0.6l-4.5,0.7
			l-2.4,0.4c-0.5,0.1-0.9,0.6-0.8,1.2c0,0.2,0.1,0.3,0.2,0.5l7.7,7.5c0.4,0.4,0.6,1,0.5,1.5l-0.2,1.4c-0.2,1-0.3,1.9-0.5,2.9
			c-0.3,2-0.7,4-1,6c-0.1,0.4,0.1,0.9,0.4,1.1c0.2,0.1,0.4,0.2,0.6,0.1c0.2,0,0.4-0.1,0.6-0.2l2.8-1.5l5.8-3l0.7-0.4
			c0.3-0.1,0.7-0.2,1-0.1c0.3,0.1,0.6,0.2,0.8,0.4l0.7,0.4l2.9,1.5l5.6,2.9c0.5,0.2,1.1,0,1.3-0.5c0-0.1,0.1-0.2,0.1-0.3
			c0-0.2,0-0.5-0.1-0.7c-0.2-1-0.3-2-0.5-3c-0.3-2-0.7-3.9-1-5.8l-0.2-1.4c-0.1-0.5,0.1-1.1,0.5-1.5c0.7-0.6,1.3-1.3,2-1.9
			c1.3-1.3,2.6-2.5,3.8-3.7l1.8-1.7c0.5-0.3,0.6-0.9,0.2-1.4c-0.1-0.1-0.2-0.2-0.4-0.3c-0.3-0.1-0.7-0.2-1.1-0.2l-1.2-0.2l-2.2-0.3
			l-4.1-0.6l-1.9-0.3c-0.3-0.1-0.6-0.1-0.9-0.2c-0.3-0.1-0.6-0.3-0.8-0.6l-2.6-5.3l-1.6-3.4l-0.4-0.9
			C45.5,141.8,45.4,141.7,45.4,141.7c0.1,0.1,0.1,0.2,0.2,0.3c0.1,0.2,0.3,0.5,0.4,0.9c0.4,0.8,1,1.9,1.7,3.3l2.7,5.2
			c0.1,0.2,0.3,0.4,0.6,0.5c0.2,0.1,0.6,0.1,0.9,0.1l1.9,0.3l4.1,0.6l2.2,0.3l1.1,0.2c0.4,0,0.8,0.1,1.2,0.3c0.7,0.4,0.9,1.3,0.5,2
			c-0.1,0.1-0.2,0.3-0.3,0.4l-1.8,1.8l-3.8,3.7l-2,1.9c-0.3,0.2-0.5,0.6-0.4,1l0.2,1.4c0.3,1.9,0.7,3.8,1,5.8c0.2,1,0.3,2,0.5,3
			c0.1,0.3,0.1,0.6,0.1,0.8c0,0.3-0.2,0.6-0.4,0.8c-0.4,0.5-1.1,0.6-1.7,0.4l-5.6-2.9l-2.8-1.5l-0.7-0.4c-0.2-0.1-0.4-0.2-0.7-0.3
			c-0.2,0-0.4,0-0.6,0.1l-0.7,0.4l-5.8,3l-2.8,1.5c-0.3,0.2-0.5,0.3-0.8,0.3c-0.3,0-0.6-0.1-0.9-0.2c-0.5-0.3-0.8-1-0.7-1.6
			c0.4-2,0.7-4,1-6c0.2-1,0.3-2,0.5-2.9l0.2-1.4c0.1-0.4,0-0.8-0.3-1.1l-7.8-7.6c-0.3-0.4-0.4-0.9-0.2-1.4c0.2-0.5,0.5-0.8,1-0.9
			L29,153l4.5-0.6l4.1-0.6c0.3-0.1,0.5-0.3,0.6-0.5l0.4-0.8l0.8-1.6l2.6-5.2c0.4-0.7,0.7-1.4,1-1.9c0.2-0.5,0.8-0.8,1.3-0.8
			c0.3,0,0.6,0.2,0.9,0.4C45.3,141.5,45.4,141.6,45.4,141.7z"/>
	</g>
</g>
</svg>
