<?xml version="1.0" encoding="utf-8"?>
<!-- Generator: Adobe Illustrator 22.0.1, SVG Export Plug-In . SVG Version: 6.00 Build 0)  -->
<svg version="1.1" id="Layer_1" xmlns="http://www.w3.org/2000/svg" xmlns:xlink="http://www.w3.org/1999/xlink" x="0px" y="0px"
	 viewBox="0 0 458.5 442.7" style="enable-background:new 0 0 458.5 442.7;" xml:space="preserve">
<style type="text/css">
	.st0{fill:#F5F5F5;}
	.st1{fill:#E0E0E0;}
	.st2{fill:#FFFFFF;}
	.st3{fill:#EBEBEB;}
	.st4{fill:#263238;}
	.st5{fill:#147684;}
	.st6{fill:#455A64;}
	.st7{fill:#B78876;}
	.st8{fill:#AA6550;}
	.st9{fill:#FFBE9D;}
	.st10{opacity:0.4;}
	.st11{opacity:0.6;}
	.st12{fill:#EB996E;}
	.st13{opacity:0.5;}
	.st14{opacity:0.2;}
</style>
<g>
	<g id="freepik--background-complete--inject-46">
		<path class="st0" d="M17.6,261.4c0,0,9-3,13.3,17.8s5,32.3,5,32.3s1.4,4.5,4.7,2.7s8.8-7.9,13-5.4s4.4,8.2,1.4,15.5
			s-8.9,23.7-9.4,25.2s-0.3,3.9,2.2,3s17.9-10.8,22.2-3.2s-7.3,26.8-8.5,28.9s-1,3.2-0.1,4.1s5.8-3,10.3-5.6s10.2-5,12.3-0.3
			s-1.1,20.4-22.9,41.7l-10.7,9.2L37,422.6C8.8,411.2-0.2,397.9,0,392.8s6.3-5.1,11.5-4.4s11.2,2.4,11.7,1.3s0.3-2.2-1.7-3.7
			s-20-14.7-18.9-23.4s19.2-5.4,21.7-5.5s1.9-2.5,0.9-3.6s-12.7-14-18.3-19.7s-7.5-10.9-4.6-14.9s10.3-0.3,14,0s3.3-4.3,3.3-4.3
			S16,303.7,12,282.8s5.8-21.5,5.8-21.5"/>
		<path class="st1" d="M50.5,424.1c-3-15.3-7.2-36.4-12-59.7s-9.1-44.4-12.1-59.7c-1.5-7.6-2.7-13.8-3.6-18.1
			c-0.4-2.1-0.8-3.8-1-4.9c-0.1-0.5-0.2-1-0.3-1.3s-0.1-0.4-0.1-0.4s0,0.2,0,0.5s0.1,0.7,0.2,1.3c0.2,1.1,0.5,2.8,0.9,4.9
			c0.8,4.3,2,10.5,3.4,18.1c2.9,15.3,7.2,36.4,12,59.7s9.1,44.4,12.1,59.7"/>
		<path class="st1" d="M46.2,317.6c-0.2,0.3-0.4,0.5-0.6,0.8c-0.4,0.5-0.9,1.4-1.5,2.4c-1.2,2-2.8,4.8-4.5,8l-4.3,8l-1.3,2.4
			c-0.2,0.3-0.3,0.6-0.4,0.9c0.2-0.2,0.4-0.5,0.6-0.8c0.4-0.5,0.9-1.4,1.5-2.4c1.2-2,2.8-4.9,4.5-8l4.4-8c0.5-1,1-1.8,1.3-2.4
			C45.9,318.3,46.1,318,46.2,317.6z"/>
		<path class="st1" d="M32.1,340c0.1-0.1-5.6-3.7-12.6-8s-12.8-7.7-12.9-7.5s5.6,3.7,12.6,8S32.1,340.2,32.1,340z"/>
		<path class="st1" d="M41.1,375.5c-0.3-0.2-0.7-0.3-1-0.3l-2.7-0.7c-2.3-0.6-5.5-1.5-9-2.6s-6.6-2.2-8.8-3l-2.6-0.9
			c-0.3-0.1-0.7-0.2-1-0.3c0.3,0.2,0.6,0.4,0.9,0.5c0.6,0.3,1.5,0.7,2.6,1.1c2.2,0.9,5.3,2,8.8,3.1s6.7,1.9,9,2.5
			c1.2,0.3,2.1,0.5,2.8,0.6C40.4,375.5,40.7,375.5,41.1,375.5z"/>
		<path class="st1" d="M58.2,358c-0.3,0.2-0.5,0.4-0.8,0.6c-0.5,0.4-1.1,1-1.9,1.8c-1.6,1.5-3.8,3.7-6.2,6s-4.5,4.6-6.1,6.2
			c-0.8,0.8-1.4,1.4-1.8,1.9c-0.2,0.2-0.4,0.5-0.6,0.7c0.3-0.2,0.5-0.4,0.8-0.6c0.4-0.4,1.1-1,1.9-1.8c1.6-1.5,3.8-3.7,6.2-6
			s4.5-4.5,6.1-6.1c0.8-0.8,1.4-1.4,1.8-1.9C57.9,358.6,58.1,358.3,58.2,358z"/>
		<path class="st1" d="M70.1,388.3c-0.4,0.2-0.7,0.5-1,0.8l-2.4,2.3c-2.1,2-4.9,4.7-8,7.7s-5.9,5.8-7.9,7.8l-2.3,2.4
			c-0.3,0.3-0.6,0.6-0.8,0.9c0.4-0.2,0.7-0.5,1-0.8l2.5-2.3c2-1.9,4.9-4.6,8-7.7s5.8-5.8,7.8-7.8l2.3-2.4
			C69.6,389,69.9,388.7,70.1,388.3z"/>
		<path class="st1" d="M48.1,409.5c-0.4-0.2-0.8-0.3-1.2-0.5l-3.4-1c-2.9-0.9-6.9-2.2-11.3-3.7s-8.3-3-11.1-4l-3.4-1.3
			c-0.4-0.2-0.8-0.3-1.2-0.4c0.4,0.2,0.8,0.4,1.2,0.6c0.8,0.4,1.9,0.8,3.3,1.4c2.8,1.2,6.7,2.7,11.1,4.2c4.4,1.5,8.4,2.7,11.3,3.5
			c1.5,0.4,2.7,0.7,3.5,0.9C47.2,409.4,47.7,409.5,48.1,409.5z"/>
		<rect x="333.6" y="21.7" class="st1" width="93.6" height="135.7"/>
		<rect x="328.9" y="21.7" class="st0" width="93.6" height="135.7"/>
		<rect x="340.6" y="36.4" class="st2" width="70.4" height="106.3"/>
		<path class="st1" d="M410.9,142.7c0,0,0-0.2,0-0.5s0-0.9,0-1.5c0-1.3,0-3.3,0-5.8c0-5.1,0-12.5-0.1-21.9c0-18.8-0.1-45.3-0.1-76.6
			l0.2,0.2h-70.4l0,0l0.2-0.2c0,40.1,0,77.1,0,106.3l-0.2-0.2l51.2,0.1l14.1,0.1h3.7c0.8,0,1.3,0,1.3,0h-1.2h-3.7l-14.1,0.1
			l-51.3,0.1h-0.2v-0.2c0-29.2,0-66.2,0-106.3V36h0.3H411h0.2v0.2c0,31.3-0.1,57.9-0.1,76.7c0,9.4,0,16.8-0.1,21.9
			c0,2.5,0,4.5,0,5.8c0,0.6,0,1.1,0,1.5S410.9,142.7,410.9,142.7z"/>
		<path class="st1" d="M422.8,21.7c-0.5,0.9-1,1.7-1.7,2.4c-1.1,1.5-2.6,3.4-4.4,5.6s-3.4,4-4.6,5.4c-0.6,0.8-1.3,1.5-2.1,2.1
			c0.5-0.8,1.1-1.6,1.8-2.3l4.5-5.5l4.5-5.5C421.5,23.1,422.1,22.4,422.8,21.7z"/>
		<path class="st2" d="M411.3,142.4c3.5,5.6,7.6,10.7,12.3,15.3"/>
		<path class="st1" d="M423.6,157.7c-0.8-0.6-1.5-1.2-2.1-1.9c-1.6-1.7-3.2-3.4-4.6-5.2c-1.5-1.8-2.8-3.7-4.1-5.7
			c-0.6-0.8-1-1.6-1.4-2.5c0.6,0.7,1.2,1.5,1.7,2.3c1,1.4,2.5,3.4,4.2,5.6s3.3,4,4.5,5.3C422.4,156.2,423,156.9,423.6,157.7z"/>
		<path class="st2" d="M328.9,157.3l12.3-15.1"/>
		<path class="st1" d="M341.2,142.1c-1.8,2.7-3.8,5.3-5.9,7.7c-2,2.6-4.1,5.1-6.3,7.4c1.8-2.7,3.8-5.3,5.9-7.7
			C336.8,147,338.9,144.5,341.2,142.1z"/>
		<path class="st1" d="M328.9,21.7c2.1,2.3,4.1,4.6,6,7.1c2,2.4,3.8,4.9,5.5,7.4c-2.1-2.3-4.1-4.6-6-7.1
			C332.5,26.7,330.7,24.3,328.9,21.7z"/>
		<rect x="365.5" y="58" class="st1" width="23.6" height="66.9"/>
		<polygon class="st1" points="133.3,0 133.3,74.8 25.9,74.8 22.1,0.5 		"/>
		<rect x="22.1" y="0.5" class="st2" width="107.4" height="74.1"/>
		<path class="st1" d="M130,75.1H21.6V0H130V75.1z M22.6,74.1h106.3V1H22.6L22.6,74.1z"/>
		<rect x="33.7" y="9.7" class="st2" width="84.1" height="55.7"/>
		<path class="st1" d="M117.8,9.7h-1.6h-4.6L94.3,9.8L33.7,9.9l0.2-0.2c0,17,0,35.9,0,55.7l0,0l-0.3-0.3l84.1,0.1l-0.2,0.2
			c0-16.9,0.1-30.8,0.1-40.5c0-4.8,0-8.6,0.1-11.2c0-1.3,0-2.3,0-2.9c0-0.7,0-1,0-1s0,0.3,0,1s0,1.7,0,2.9c0,2.6,0,6.3,0.1,11.1
			c0,9.7,0.1,23.7,0.1,40.7v0.2h-0.2H33.6h-0.3v-0.3l0,0c0-19.8,0-38.7,0-55.7V9.5h0.2l60.7,0.1l17.3,0.1h4.6h1.2L117.8,9.7z"/>
		<path class="st1" d="M22.1,0.3c0.7,0.3,1.3,0.7,1.8,1.2c1.1,0.8,2.6,1.9,4.2,3.2s3,2.5,4,3.4c0.6,0.5,1.1,1,1.5,1.6
			c-0.1,0.1-2.7-2-5.9-4.6C25.8,3.6,23.9,2,22.1,0.3z"/>
		<path class="st1" d="M129.5,0.5c-1.8,1.7-3.7,3.3-5.6,4.8c-1.9,1.6-3.9,3.1-6,4.4c1.8-1.7,3.7-3.3,5.6-4.8
			C125.4,3.3,127.4,1.8,129.5,0.5z"/>
		<path class="st2" d="M129.4,74.6l-12-9.7"/>
		<path class="st1" d="M117.4,64.9c2.2,1.4,4.2,3,6.2,4.7c2.1,1.6,4,3.2,5.8,5.1c-2.2-1.4-4.2-3-6.2-4.7
			C121.2,68.4,119.2,66.7,117.4,64.9z"/>
		<path class="st1" d="M22.1,74.6c1.8-1.7,3.6-3.3,5.6-4.8c1.9-1.6,3.8-3,5.9-4.3c-1.7,1.7-3.6,3.3-5.6,4.8
			C26.1,71.9,24.2,73.3,22.1,74.6z"/>
		<rect x="50.8" y="27.1" class="st1" width="52.9" height="18.6"/>
		<path class="st3" d="M384.6,248.3c-15.1,14.4-39,13.8-53.3-1.3c-14.4-15.1-13.8-39,1.3-53.3c15.1-14.4,39-13.8,53.3,1.3
			c0,0,0.1,0.1,0.1,0.1C400.3,210.1,399.7,233.9,384.6,248.3z"/>
		<path class="st0" d="M378.5,241.8c-11.5,11-29.7,10.5-40.7-1c-11-11.5-10.5-29.7,1-40.7s29.7-10.5,40.7,1c0,0,0,0,0,0.1
			C390.4,212.6,390,230.8,378.5,241.8z"/>
		<path class="st1" d="M379.1,241.1c-0.1-0.1,0.7-1.1,2-2.9c1.8-2.6,3.2-5.4,4.1-8.5c0.6-2.1,1-4.2,1.2-6.4c0.2-2.5,0-4.9-0.5-7.3
			c-0.2-1.3-0.6-2.6-1-3.9c-0.9-2.7-2.2-5.2-3.9-7.5c-0.9-1.2-1.8-2.3-2.9-3.4c-1.1-1-2.2-2-3.4-2.9c-1.2-0.8-2.4-1.6-3.7-2.2
			c-1.2-0.6-2.5-1.2-3.8-1.6c-1.3-0.4-2.6-0.8-3.9-1c-2.4-0.4-4.9-0.6-7.4-0.4c-2.2,0.2-4.3,0.6-6.4,1.2c-3,1-5.9,2.4-8.4,4.2
			c-1.8,1.3-2.8,2.1-2.9,2s0.6-1.1,2.4-2.7c2.5-2.2,5.4-3.9,8.5-5c2.2-0.8,4.4-1.3,6.7-1.6c2.6-0.3,5.3-0.2,7.9,0.2
			c1.4,0.2,2.8,0.6,4.2,1c1.4,0.4,2.8,1,4.2,1.7c1.4,0.7,2.7,1.5,4,2.4c1.3,0.9,2.5,2,3.7,3.1c1.1,1.1,2.2,2.3,3.1,3.6
			c0.9,1.3,1.7,2.6,2.4,4c0.7,1.3,1.2,2.7,1.7,4.1c0.4,1.4,0.8,2.8,1,4.2c0.4,2.6,0.5,5.3,0.3,7.9c-0.2,2.3-0.7,4.5-1.5,6.7
			c-1.1,3.1-2.8,6-4.9,8.5C380.2,240.5,379.2,241.2,379.1,241.1z"/>
		<path class="st1" d="M348.5,235l-3.5,3.5l-3.1-3.2l3.5-3.4c-2.9-3.4-4.9-7.4-5.2-10.5l5.6-2c0.5,3.1,1.8,6,3.8,8.4l5.3-5.2
			c-2.6-4.4-5.3-9.5-0.7-14c3.4-3.3,8.7-3.7,14.2,0.8l3.6-3.5l3.1,3.2l-3.5,3.4c2.1,2.4,3.6,5.3,4.4,8.4l-5.5,2.2
			c-0.6-2.4-1.7-4.6-3.1-6.5l-5.5,5.3c2.6,4.4,5.3,9.4,0.8,13.8C359.2,239.1,354,239.5,348.5,235z M359.5,218l4.5-4.4
			c-2-1.3-3.6-1.1-4.7,0C358.3,214.7,358.6,216.2,359.5,218L359.5,218z M357.1,231c1.1-1.1,0.8-2.6,0-4.5l-4.4,4.3
			C354.6,232.2,356.1,232,357.1,231L357.1,231z"/>
		<path class="st3" d="M236.8,293c7.2,20.7-3.7,43.3-24.3,50.5s-43.3-3.7-50.5-24.3s3.7-43.3,24.3-50.5c0,0,0.1,0,0.1,0
			C207.1,261.5,229.6,272.4,236.8,293z"/>
		<path class="st0" d="M227.9,296.1c5.5,15.7-2.8,33-18.6,38.5c-15.7,5.5-33-2.8-38.5-18.6c-5.5-15.7,2.8-33,18.6-38.5
			c0,0,0,0,0.1,0C205.3,272.1,222.4,280.4,227.9,296.1z"/>
		<path class="st1" d="M227.6,295.2c-0.2,0.1-0.7-1.1-1.9-3.2c-1.7-2.8-3.8-5.4-6.3-7.6c-1.7-1.5-3.6-2.8-5.6-3.9
			c-2.3-1.2-4.7-2.2-7.2-2.8c-1.4-0.3-2.7-0.6-4.1-0.7c-3-0.3-5.9-0.1-8.9,0.5c-1.5,0.3-3,0.8-4.5,1.3c-1.4,0.6-2.9,1.2-4.2,2
			c-1.3,0.7-2.6,1.6-3.7,2.5c-1.1,0.9-2.2,1.9-3.2,3c-1,1-1.8,2.1-2.6,3.3c-1.5,2.1-2.7,4.4-3.6,6.9c-0.8,2.1-1.3,4.3-1.6,6.6
			c-0.4,3.3-0.3,6.6,0.4,9.9c0.4,2.3,0.8,3.6,0.7,3.7s-0.8-1.1-1.5-3.4c-1-3.3-1.4-6.8-1.1-10.3c0.4-5.2,2.1-10.2,5-14.5
			c0.8-1.3,1.7-2.5,2.8-3.6c1-1.2,2.2-2.3,3.4-3.2c1.3-1,2.6-2,4-2.8c1.5-0.8,3-1.6,4.5-2.2c1.6-0.6,3.2-1.1,4.8-1.4
			c1.6-0.3,3.2-0.5,4.8-0.6c1.6-0.1,3.1,0,4.7,0.1c1.5,0.2,3,0.4,4.4,0.8c2.7,0.7,5.3,1.8,7.7,3.2c2.1,1.2,4,2.7,5.7,4.4
			c2.5,2.4,4.5,5.2,6,8.4C227.4,293.8,227.7,295.2,227.6,295.2z"/>
		<path class="st1" d="M208.5,321.9l1.8,4.9l-4.4,1.6l-1.8-4.8c-4.5,1.3-9.1,1.5-12.3,0.5l0.5-6.3c3.2,0.8,6.5,0.8,9.7,0l-2.7-7.4
			c-5.3,0.6-11.4,0.9-13.7-5.4c-1.7-4.7,0.2-9.9,6.9-13.2l-1.8-4.9l4.4-1.6l1.8,4.8c3.2-1,6.6-1.2,9.9-0.6l-0.2,6.2
			c-2.5-0.5-5.1-0.4-7.6,0.1l2.7,7.5c5.3-0.6,11.3-1,13.6,5.3C217,313.3,215.1,318.5,208.5,321.9z M197,304l-2.3-6.3
			c-2.1,1.4-2.6,3-2.1,4.5S194.8,304,197,304L197,304z M208.4,311.9c-0.6-1.5-2.1-1.9-4.3-1.9l2.2,6.1
			C208.4,314.8,208.9,313.3,208.4,311.9L208.4,311.9z"/>
		<path class="st3" d="M86.3,195.2c0.3,18.4-14.4,33.5-32.7,33.7s-33.5-14.4-33.7-32.7c-0.3-18.4,14.4-33.5,32.7-33.7
			c0,0,0.1,0,0.1,0C71,162.2,86,176.8,86.3,195.2z"/>
		<path class="st0" d="M78.4,195.3c0.2,14-11,25.5-25,25.7s-25.5-11-25.7-25s11-25.5,25-25.7c0,0,0,0,0,0
			C66.7,170.1,78.2,181.2,78.4,195.3C78.4,195.2,78.4,195.3,78.4,195.3z"/>
		<path class="st1" d="M78.4,194.5c-0.2,0-0.3-1.1-0.7-3c-0.6-2.7-1.6-5.3-3-7.7c-2.1-3.6-5-6.6-8.5-8.7c-1-0.6-2-1.2-3.1-1.6
			c-1.1-0.5-2.3-0.9-3.4-1.2c-1.2-0.3-2.5-0.6-3.7-0.7c-1.3-0.1-2.6-0.2-3.9-0.1c-1.3,0.1-2.6,0.2-3.9,0.5c-1.2,0.2-2.5,0.6-3.7,1
			c-1.2,0.4-2.3,0.9-3.3,1.5c-1,0.6-2,1.2-3,1.9c-1.7,1.3-3.3,2.8-4.7,4.5c-1.2,1.5-2.2,3.1-3,4.9c-1.2,2.5-2,5.2-2.3,8
			c-0.3,2-0.3,3.1-0.4,3.1s-0.3-1.1-0.3-3.1c0.1-2.9,0.7-5.8,1.8-8.5c0.8-1.9,1.8-3.6,3-5.3c1.4-1.9,3-3.6,4.8-5
			c1-0.8,2-1.5,3.1-2.1c2.3-1.3,4.9-2.3,7.5-2.8c1.4-0.3,2.8-0.5,4.2-0.5c1.4,0,2.8,0,4.2,0.2c1.4,0.2,2.7,0.4,4,0.8
			c1.3,0.4,2.5,0.8,3.7,1.4c1.1,0.5,2.3,1.1,3.3,1.8c2,1.3,3.7,2.8,5.3,4.6c1.3,1.5,2.5,3.2,3.4,5c1.4,2.6,2.2,5.4,2.6,8.3
			C78.6,193.4,78.5,194.5,78.4,194.5z"/>
		<path class="st1" d="M56.1,210.7l0.1,4.4l-3.9,0.1l-0.1-4.3c-3.9-0.1-7.7-1.2-9.9-2.9l2-4.9c2.3,1.5,5,2.4,7.7,2.6l-0.2-6.6
			c-4.4-0.9-9.3-2.3-9.5-7.9c-0.1-4.2,2.8-7.9,9-8.7l-0.1-4.4l3.9-0.1l0.1,4.3c2.8,0.1,5.6,0.8,8.1,2.2l-1.8,4.9
			c-1.9-1-3.9-1.7-6.1-1.9l0.2,6.7c4.4,0.9,9.2,2.2,9.4,7.8C65.2,206.1,62.3,209.8,56.1,210.7z M51.7,193.4l-0.2-5.6
			c-2.1,0.5-2.9,1.7-2.8,3S49.9,192.9,51.7,193.4z M58.7,202.7c0-1.4-1.2-2.1-2.9-2.6l0.2,5.4C57.9,205,58.8,203.9,58.7,202.7
			L58.7,202.7z"/>
		<path class="st3" d="M243.8,51.9c2.4-4.4,3.7-9.3,3.7-14.3c0.1-16-12.8-29.1-28.8-29.2c0,0,0,0,0,0c-2.6,0-5.2,0.3-7.7,1
			c15.5,4.5,24.5,20.7,20,36.2c-2.8,9.7-10.3,17.2-20,20c7.8,2.2,16.2,1,23-3.4l13.6,5.2L243.8,51.9z"/>
	</g>
	<g id="freepik--Floor--inject-46">
		<path class="st4" d="M431.3,427.1c0,0.1-95.1,0.3-212.4,0.3S6.6,427.2,6.6,427.1s95.1-0.3,212.4-0.3S431.3,427,431.3,427.1z"/>
	</g>
	<g id="freepik--Characters--inject-46">
		<path class="st5" d="M121,395l0.8,24.9l6.3,19.5c0.4,1.3-0.3,2.8-1.6,3.2c-0.1,0-0.1,0-0.2,0l0,0c-0.8,0.2-1.7,0-2.3-0.5
			c-4-3.4-18.6-16.1-18.6-17.9c0-2.1-2.6-26.2-2.6-26.2L121,395z"/>
		<path class="st1" d="M126.3,442.6l-21-20.1l0.1,1c0,0.9,0.4,1.8,1.1,2.4c1.7,1.8,6.4,6.5,17.5,16.1
			C124.6,442.6,125.5,442.8,126.3,442.6L126.3,442.6z"/>
		<path class="st2" d="M110,414.2c0.7,0.4,0.9,1.3,0.5,2c-0.4,0.7-1.3,0.9-2,0.5c-0.7-0.5-0.9-1.4-0.6-2.1c0.5-0.7,1.4-0.8,2.1-0.3"
			/>
		<path class="st4" d="M120.1,432.1c0.1,0.1,0.6-1.3,2.1-2.1c0.9-0.4,1.9-0.7,2.8-0.7c0-0.1-0.3-0.2-0.9-0.3
			c-0.8-0.1-1.5,0.1-2.2,0.5c-0.7,0.4-1.2,0.9-1.6,1.6C120,431.7,120,432.1,120.1,432.1z"/>
		<path class="st4" d="M122,435.3c0.7-0.4,1.4-0.8,2.1-1.2c0.8-0.2,1.6-0.3,2.4-0.4c-0.8-0.5-1.8-0.5-2.6-0.1
			C122.5,434.1,121.9,435.3,122,435.3z"/>
		<path class="st4" d="M116.5,428c1-0.8,2.1-1.4,3.2-2.1c1.2-0.4,2.4-0.8,3.6-1.1C120.7,424.5,118,425.7,116.5,428z"/>
		<path class="st4" d="M115.6,420.5c0.1,0.1,1.4-0.5,3.2-0.7s3.2,0.2,3.3,0c-1-0.6-2.2-0.8-3.3-0.6
			C117.6,419.3,116.5,419.7,115.6,420.5z"/>
		<path class="st4" d="M115.2,413.2c1.1-0.4,2.2-0.7,3.3-0.8c1.1,0.1,2.3,0.3,3.3,0.6c0-0.1-0.2-0.4-0.8-0.6
			c-0.8-0.4-1.6-0.6-2.5-0.5c-0.9,0-1.7,0.2-2.5,0.6C115.5,412.8,115.2,413.1,115.2,413.2z"/>
		<path class="st4" d="M118.4,411c0.1-0.3,0.1-0.7,0-1c-0.1-0.9-0.4-1.7-0.9-2.4c-0.3-0.6-0.8-1-1.3-1.3c-0.4-0.2-0.9,0-1.1,0.3
			c-0.3,0.3-0.4,0.7-0.3,1.1c0.2,1.7,1.6,3,3.3,3.1c1.7,0.1,3.3-0.9,4-2.4c0.2-0.4,0.2-0.8,0-1.2c-0.2-0.4-0.7-0.6-1.1-0.5
			c-0.6,0.2-1.2,0.5-1.6,0.9c-0.6,0.6-1.2,1.2-1.6,2c-0.2,0.3-0.3,0.6-0.3,0.9c0.6-1,1.3-1.8,2.2-2.6c0.4-0.4,0.9-0.6,1.4-0.8
			c0.2-0.1,0.5,0.1,0.6,0.3c0.1,0.3,0.1,0.5-0.1,0.8c-0.7,1.3-2,2.1-3.5,2.1c-1.5-0.1-2.6-1.2-2.9-2.6c0-0.3,0-0.6,0.2-0.8
			c0.1-0.2,0.4-0.3,0.6-0.2c0.5,0.2,0.9,0.6,1.1,1.1C117.8,408.8,118.2,409.9,118.4,411z"/>
		<path class="st5" d="M169.5,398.7l-1.3,18.6c0,0,18.5,7.6,18.6,11l-36.2-1.2l0.8-29.1L169.5,398.7z"/>
		<path class="st1" d="M157,415.4c-0.7,0.2-1.2,0.9-1.1,1.7c0.2,0.7,0.9,1.2,1.6,1.1c0.8-0.2,1.3-1,1.1-1.8
			c-0.3-0.7-1.1-1.2-1.8-0.9"/>
		<path class="st1" d="M150.6,427.1l0.2-2.9l34.6,2.2c0,0,1.6,0.8,1.4,1.9L150.6,427.1z"/>
		<path class="st4" d="M168.8,417.1c0,0.2-0.9,0.2-1.8,0.8s-1.4,1.3-1.5,1.2s0.1-1.1,1.2-1.7S168.8,417,168.8,417.1z"/>
		<path class="st4" d="M172.5,418.8c0,0.2-0.7,0.5-1.4,1.2s-0.8,1.5-1,1.5s-0.2-1,0.5-1.9S172.5,418.7,172.5,418.8z"/>
		<path class="st4" d="M174.5,423.4c-0.2,0-0.4-0.9,0.1-1.8s1.3-1.3,1.4-1.2s-0.4,0.6-0.8,1.4S174.7,423.4,174.5,423.4z"/>
		<path class="st4" d="M168.6,412.9c-0.1,0.2-0.9-0.1-1.9-0.1s-1.8,0.3-1.9,0.2s0.7-0.8,1.9-0.8S168.7,412.7,168.6,412.9z"/>
		<path class="st4" d="M168.8,409.1c-0.6,0.2-1.3,0.1-1.9-0.1c-0.7-0.1-1.3-0.3-1.9-0.6c-0.3-0.2-0.7-0.4-1-0.6
			c-0.2-0.1-0.4-0.3-0.5-0.4c-0.2-0.3-0.3-0.7-0.1-0.9c0.2-0.2,0.5-0.4,0.8-0.4c0.2,0,0.5,0,0.7,0.1c0.4,0.1,0.8,0.3,1.1,0.4
			c0.6,0.3,1.2,0.7,1.6,1.1c0.8,0.8,1.1,1.5,1,1.5s-0.5-0.5-1.3-1.2c-0.5-0.4-1-0.7-1.6-1c-0.3-0.1-0.7-0.3-1-0.4
			c-0.4-0.1-0.7-0.1-0.8,0s-0.1,0.1,0,0.2c0.1,0.1,0.2,0.2,0.4,0.3c0.3,0.2,0.6,0.4,0.9,0.6c0.6,0.3,1.1,0.5,1.7,0.7
			C167.6,408.7,168.2,408.9,168.8,409.1z"/>
		<path class="st4" d="M168.5,409.4c-0.3-0.5-0.5-1.2-0.4-1.8c0-1.1,0.3-2.1,0.8-3.1c0.2-0.5,0.7-0.8,1.2-0.9c0.3,0,0.6,0.2,0.7,0.5
			c0.1,0.2,0.1,0.4,0.2,0.7c0.1,0.4,0.1,0.8,0,1.2c-0.1,0.7-0.4,1.3-0.8,1.8c-0.7,0.9-1.5,1.1-1.5,1s0.6-0.4,1.1-1.3
			c0.3-0.5,0.5-1.1,0.6-1.7c0-0.3,0-0.7,0-1c-0.1-0.4-0.2-0.7-0.3-0.7s-0.5,0.3-0.6,0.6c-0.2,0.3-0.4,0.7-0.5,1
			c-0.2,0.6-0.4,1.2-0.4,1.8C168.5,408.7,168.6,409.3,168.5,409.4z"/>
		<polygon class="st4" points="95.1,215 100.4,415.1 129,414.2 135.8,208.2 		"/>
		<path class="st4" d="M154.4,207.9c0,0,21.2,84.8,21.8,99.3S171.7,412,171.7,412h-27.9l2.3-103L124.9,222l5.1-13.6L154.4,207.9z"/>
		<path class="st6" d="M137.2,218.3c0,0.1,0,0.2,0,0.3v0.8c0,0.7-0.1,1.8-0.1,3c-0.1,2.7-0.3,6.5-0.5,11.2c-0.5,9.5-1.2,22.5-1.9,37
			s-1.5,27.5-2,36.9c-0.3,4.7-0.5,8.5-0.7,11.2c-0.1,1.3-0.2,2.3-0.2,3c0,0.3-0.1,0.6-0.1,0.8c0,0.1,0,0.2,0,0.3c0-0.1,0-0.2,0-0.3
			c0-0.2,0-0.5,0-0.8c0-0.7,0.1-1.8,0.1-3c0.1-2.7,0.3-6.5,0.5-11.2c0.5-9.5,1.2-22.5,1.9-37s1.5-27.5,2.1-36.9
			c0.3-4.7,0.5-8.5,0.7-11.2c0.1-1.3,0.2-2.3,0.2-3c0-0.3,0.1-0.6,0.1-0.8C137.2,218.5,137.2,218.4,137.2,218.3z"/>
		<path class="st0" d="M134,99.1c0,0,10.4,51.4,10.5,65.9s5.2,42.8,5.2,42.8h-44.9l-1-78.4l-3.2-23.4l6.7-9.6L134,99.1z"/>
		<path class="st5" d="M134.6,100.7c0,0,10.7,3.1,13.5,7.1c2.2,3.1,5.2,62.3,5.2,62.3l4.6,52.1l-4.5-0.4l-6.3-19.5L134.6,100.7z"/>
		<path class="st5" d="M148.1,107.8l30.2,27.8l37.2-12.1l7.4,15.6l-39.7,18c-5.7,2.4-9.2,1.1-13.2-2.1l-20.8-16.7L148.1,107.8z"/>
		<path class="st4" d="M208.6,128.4c0.2,0.4,0.1,0.9-0.3,1.1c-0.4,0.2-0.9,0.1-1.1-0.3c0,0,0,0,0,0c-0.2-0.4-0.1-0.9,0.3-1.1
			c0,0,0,0,0,0C207.9,127.9,208.4,128,208.6,128.4z"/>
		<path class="st4" d="M207.9,129.7c-0.1,0-0.2,0-0.2,0c-0.2-0.1-0.4-0.2-0.5-0.4c-0.1-0.2-0.1-0.4-0.1-0.6c0.1-0.4,0.6-0.7,1.1-0.6
			c0.2,0.1,0.4,0.2,0.5,0.4c0.1,0.2,0.1,0.4,0.1,0.6c-0.1,0.2-0.2,0.4-0.4,0.5C208.2,129.7,208.1,129.7,207.9,129.7z M207.9,128
			c-0.1,0-0.3,0-0.4,0.1c-0.2,0.1-0.3,0.3-0.4,0.5c-0.1,0.2,0,0.4,0.1,0.6c0.2,0.4,0.7,0.5,1.1,0.3c0.2-0.1,0.3-0.3,0.4-0.5
			c0.1-0.2,0-0.4-0.1-0.6C208.5,128.2,208.2,128,207.9,128L207.9,128z"/>
		<path class="st4" d="M211.8,127.7c0.2,0.4,0.1,0.9-0.3,1.1c-0.4,0.2-0.9,0.1-1.1-0.3c0,0,0,0,0,0c-0.2-0.4-0.1-0.9,0.3-1.1
			c0,0,0,0,0,0C211,127.2,211.5,127.3,211.8,127.7C211.8,127.7,211.8,127.7,211.8,127.7z"/>
		<path class="st4" d="M211,128.9c-0.1,0-0.2,0-0.2,0c-0.2-0.1-0.4-0.2-0.5-0.4c-0.2-0.4-0.1-0.9,0.4-1.1c0.4-0.2,0.9-0.1,1.1,0.4
			c0.1,0.2,0.1,0.4,0.1,0.6c-0.1,0.2-0.2,0.4-0.4,0.5C211.3,128.9,211.2,128.9,211,128.9z M211,127.3c-0.1,0-0.3,0-0.4,0.1
			c-0.4,0.2-0.5,0.7-0.3,1.1c0.1,0.2,0.3,0.3,0.5,0.4c0.4,0.2,0.9,0,1-0.5c0.2-0.4,0-0.9-0.5-1c0,0-0.1,0-0.1,0
			C211.2,127.3,211.1,127.3,211,127.3L211,127.3z"/>
		<path class="st4" d="M214.7,127.1c0.2,0.4,0.1,0.9-0.3,1.1c0,0,0,0,0,0c-0.4,0.2-0.9,0.1-1.1-0.3c-0.2-0.4-0.1-0.9,0.3-1.1
			c0,0,0,0,0,0C214,126.6,214.5,126.7,214.7,127.1C214.7,127.1,214.7,127.1,214.7,127.1z"/>
		<path class="st4" d="M214,128.3c-0.1,0-0.2,0-0.2,0c-0.4-0.1-0.7-0.6-0.6-1c0.1-0.2,0.2-0.4,0.4-0.5c0.4-0.2,0.9-0.1,1.1,0.3
			c0,0,0,0,0,0l0,0c0.2,0.4,0.1,0.9-0.4,1.1C214.3,128.4,214.1,128.4,214,128.3z M214,126.7c-0.1,0-0.3,0-0.4,0.1
			c-0.4,0.2-0.5,0.7-0.3,1.1c0.1,0.2,0.3,0.3,0.5,0.4c0.2,0.1,0.4,0,0.6-0.1c0.4-0.2,0.5-0.7,0.3-1.1l0,0
			C214.6,126.9,214.3,126.7,214,126.7L214,126.7z"/>
		<polygon class="st1" points="215.9,124.2 218.8,123.2 225.4,137.1 222.6,138.3 		"/>
		<path class="st4" d="M149.1,118.7c0.1,0.5,0.2,1,0.2,1.6c0.1,1.1,0.3,2.5,0.4,4.2c0.4,3.7,1,8.6,1.6,14s1.1,10.4,1.3,14
			c0.1,1.8,0.2,3.3,0.2,4.3c0,0.5,0,1-0.1,1.6c-0.1-0.5-0.1-1-0.1-1.6c-0.1-1-0.2-2.5-0.4-4.2c-0.3-3.6-0.9-8.5-1.5-14
			s-1.1-10.4-1.4-14c-0.1-1.8-0.2-3.3-0.3-4.3C149,119.8,149,119.3,149.1,118.7z"/>
		<path class="st4" d="M155.7,125.7c-0.5,2.5-1.1,5-1.9,7.5c-0.6,2.5-1.4,4.9-2.4,7.3c0.5-2.5,1.1-5,1.9-7.5
			C153.9,130.5,154.7,128.1,155.7,125.7z"/>
		<path class="st4" d="M178,144.9c-0.3-0.4-0.6-0.8-0.7-1.3c-0.7-2.3-0.6-4.8,0.4-7c0.2-0.5,0.5-0.9,0.8-1.2c-0.6,1.5-1,3.1-1.2,4.7
			C177.4,141.7,177.6,143.3,178,144.9z"/>
		<polygon class="st1" points="174.6,177 178.4,177.3 176.9,193.5 173.2,193.1 		"/>
		<path class="st5" d="M107.5,97.6L86.6,111c-4.9,3.5-6.9,9.7-5,15.4l16,50.3l-5.8,45.7l45.7-1.9l-1.1-20l-3.9-35.8
			c-0.7-6.6-2.4-13.2-4.9-19.3L107.5,97.6z"/>
		<path class="st5" d="M85.7,129.1l20.9,43.7c1.7,3.5,4.9,6.1,8.7,7l57.9,13.7l1.5-16.9L130.4,160l-22.2-42.7
			c-3.2-6.2-10.9-8.6-17.1-5.4c-0.2,0.1-0.5,0.2-0.7,0.4l0,0C84.6,115.8,82.6,123.1,85.7,129.1z"/>
		<path class="st4" d="M174.6,176.6c-0.1,0-0.2,0-0.2-0.1l-0.7-0.2l-2.6-0.9l-9.7-3.6l-32.7-12.2h-0.1v-0.1l-3.9-7.6
			c-3.6-7.1-7.2-13.7-10.6-19.7c-1.7-3-3.3-5.8-4.9-8.5l-2.2-3.8c-0.4-0.6-0.7-1.2-1.1-1.8c-0.4-0.6-0.8-1.1-1.2-1.6
			c-1.5-1.8-3.4-3.2-5.6-4c-1.6-0.7-3.4-1-5.1-0.9c-1.5,0-3,0.4-4.3,1.1c0.1-0.1,0.2-0.1,0.2-0.2c0.2-0.2,0.5-0.3,0.8-0.4
			c1-0.5,2.1-0.7,3.3-0.8c1.8-0.1,3.6,0.2,5.2,0.8c2.2,0.9,4.2,2.3,5.7,4.1c0.4,0.5,0.8,1,1.2,1.6c0.4,0.6,0.8,1.2,1.1,1.8l2.3,3.8
			c1.6,2.7,3.2,5.5,4.9,8.5c3.4,6,7,12.6,10.7,19.7c1.3,2.6,2.6,5.2,3.8,7.6l-0.1-0.1l32.6,12.4l9.6,3.7l2.6,1l0.7,0.3L174.6,176.6z
			"/>
		<path class="st4" d="M164.8,187.1c0,0.5-0.4,0.8-0.8,0.8c-0.5,0-0.8-0.4-0.8-0.8c0-0.5,0.4-0.8,0.8-0.8
			C164.4,186.3,164.8,186.7,164.8,187.1z"/>
		<path class="st4" d="M163.9,188c-0.5,0-0.8-0.4-0.8-0.8c0-0.5,0.4-0.8,0.8-0.8c0.5,0,0.8,0.4,0.8,0.8l0,0
			C164.8,187.6,164.4,188,163.9,188z M163.9,186.3c-0.4,0-0.8,0.4-0.8,0.8s0.4,0.8,0.8,0.8s0.8-0.4,0.8-0.8v0
			C164.7,186.7,164.4,186.3,163.9,186.3z"/>
		<path class="st4" d="M167.9,187.9c0,0.5-0.4,0.8-0.8,0.8s-0.8-0.4-0.8-0.8c0-0.5,0.4-0.8,0.8-0.8
			C167.6,187.1,167.9,187.5,167.9,187.9L167.9,187.9z"/>
		<path class="st4" d="M167.1,188.8c-0.5,0-0.8-0.4-0.8-0.8c0-0.5,0.4-0.8,0.8-0.8c0.5,0,0.8,0.4,0.8,0.8l0,0
			C167.9,188.4,167.5,188.8,167.1,188.8z M167.1,187.2c-0.4,0-0.8,0.4-0.8,0.8s0.4,0.8,0.8,0.8s0.8-0.4,0.8-0.8v0
			C167.8,187.5,167.5,187.2,167.1,187.2L167.1,187.2z"/>
		<circle class="st4" cx="170" cy="188.8" r="0.8"/>
		<path class="st4" d="M169.9,189.7c-0.5,0-0.8-0.4-0.8-0.8c0-0.5,0.4-0.8,0.8-0.8c0.5,0,0.8,0.4,0.8,0.8l0,0
			C170.8,189.3,170.4,189.7,169.9,189.7z M169.9,188c-0.4,0-0.8,0.4-0.8,0.8s0.4,0.8,0.8,0.8s0.8-0.4,0.8-0.8v0
			C170.7,188.4,170.4,188,169.9,188z"/>
		<path class="st4" d="M173.1,193.5c-0.1,0-0.2,0-0.3,0l-0.8-0.2l-3.1-0.8l-11.5-2.8c-9.7-2.4-23-5.7-37.8-9.2
			c-1.9-0.4-3.7-0.8-5.5-1.3c-1.8-0.4-3.5-1.3-4.9-2.5c-1.3-1.3-2.3-2.8-3-4.4l-2.2-4.6L96.5,152l-5-10.7c-0.6-1.2-1-2.2-1.3-2.9
			l-0.3-0.8c0-0.1-0.1-0.2-0.1-0.3c0,0,0.1,0.1,0.2,0.2s0.2,0.4,0.4,0.7l1.4,2.9c1.2,2.5,3,6.1,5.2,10.6c2.2,4.5,4.7,9.8,7.6,15.8
			c0.7,1.5,1.4,3,2.2,4.6c0.7,1.6,1.7,3,2.9,4.2c1.4,1.1,3,1.9,4.8,2.4c1.8,0.5,3.6,0.8,5.5,1.3c14.8,3.4,28.1,6.9,37.8,9.3
			c4.8,1.3,8.7,2.3,11.4,3l3.1,0.9l0.8,0.2L173.1,193.5z"/>
		<path class="st4" d="M126.4,190.8c0,0-0.2,0.2-0.7,0.6s-1.1,0.8-2,1.4c-2.2,1.5-4.7,2.8-7.2,3.7c-2.6,0.9-5.3,1.2-8.1,0.8
			c-0.8-0.1-1.6-0.4-2.4-0.7c-0.3-0.1-0.6-0.2-0.8-0.4c1.1,0.3,2.1,0.6,3.2,0.8c2.7,0.3,5.3,0,7.8-0.9c2.5-0.9,4.9-2.1,7.2-3.6
			C124.4,191.8,125.4,191.2,126.4,190.8z"/>
		<path class="st4" d="M128.9,196.6c0.1,0.1,0.1,0.2,0.1,0.4c0.1,0.4,0.2,0.7,0.3,1.1c0.2,1.4,0.2,2.8,0,4.2
			c-0.4,2.1-1.3,4.1-2.6,5.7c-3.4,4.2-9,5.8-14.1,4c-2-0.7-3.8-2-5.2-3.6c-0.9-1.1-1.7-2.3-2.2-3.6c-0.1-0.4-0.3-0.7-0.4-1.1
			c-0.1-0.2-0.1-0.4-0.1-0.4c0.7,1.8,1.7,3.4,2.9,4.9c1.4,1.5,3.1,2.6,5.1,3.3c4.9,1.7,10.3,0.1,13.6-3.8c1.3-1.6,2.2-3.5,2.6-5.5
			C129.3,200.4,129.3,198.4,128.9,196.6z"/>
		<path class="st7" d="M109.7,57.8l0.1,37.3c0,6.1,5,11.1,11.1,11c0.2,0,0.4,0,0.5,0l0,0c5.9-0.3,10.5-5.2,10.5-11.1
			c0-2.8,0-5.1,0-5.4c0,0,9.5-0.9,10.1-10.3c0.3-4.5,0.2-13.9,0-22.4c-0.2-9.1-7.4-16.6-16.5-17.1h-0.9
			C114.9,39.7,109.4,48,109.7,57.8z"/>
		<path class="st8" d="M132,89.4c-4.3-0.2-8.5-1.6-12.1-4.2c0,0,2.5,6.9,11.9,6.6L132,89.4z"/>
		<path class="st4" d="M139.8,62.3c0,0.7-0.6,1.3-1.4,1.3c-0.7,0-1.3-0.5-1.3-1.2c0,0,0,0,0,0c0-0.7,0.6-1.3,1.4-1.3
			C139.2,61,139.8,61.6,139.8,62.3C139.8,62.3,139.8,62.3,139.8,62.3z"/>
		<path class="st4" d="M140.1,60.8c-0.2,0.2-1.1-0.6-2.6-0.7s-2.6,0.6-2.7,0.4s0.1-0.4,0.6-0.7c0.7-0.4,1.4-0.6,2.2-0.5
			c0.8,0,1.5,0.3,2.1,0.8C140,60.3,140.2,60.7,140.1,60.8z"/>
		<path class="st4" d="M125.8,62.2c0,0.7-0.6,1.3-1.4,1.3c-0.7,0-1.3-0.5-1.3-1.2c0,0,0,0,0,0c0-0.7,0.6-1.3,1.4-1.3
			C125.2,60.9,125.8,61.5,125.8,62.2C125.8,62.2,125.8,62.2,125.8,62.2z"/>
		<path class="st4" d="M125.7,60.4c-0.2,0.2-1.1-0.7-2.6-0.7s-2.5,0.6-2.7,0.4s0.1-0.4,0.6-0.7c0.6-0.4,1.4-0.6,2.2-0.5
			c0.8,0,1.5,0.3,2.1,0.8C125.7,60,125.8,60.3,125.7,60.4z"/>
		<path class="st4" d="M130.3,71.8c0.8-0.2,1.6-0.3,2.4-0.3c0.4,0,0.7-0.1,0.8-0.3c0.1-0.4,0-0.8-0.2-1.1c-0.3-0.9-0.6-1.9-0.9-2.9
			c-1.3-4.1-2.2-7.4-2-7.5s1.3,3.2,2.6,7.3c0.3,1,0.6,2,0.9,2.9c0.2,0.5,0.2,1,0.1,1.5c-0.1,0.3-0.4,0.4-0.6,0.5c-0.2,0-0.4,0-0.6,0
			C131.9,71.9,131.1,71.9,130.3,71.8z"/>
		<path class="st4" d="M126.3,57.4c-0.2,0.4-1.6,0.1-3.3,0.2s-3.1,0.5-3.3,0.1c-0.1-0.2,0.2-0.5,0.7-0.9c0.8-0.4,1.6-0.7,2.5-0.7
			c0.9-0.1,1.7,0.1,2.6,0.4C126.1,56.9,126.4,57.2,126.3,57.4z"/>
		<path class="st4" d="M139.9,57.3c-0.3,0.3-1.2-0.1-2.4-0.2s-2.2,0.1-2.4-0.3c-0.1-0.2,0.1-0.5,0.6-0.8c1.3-0.7,2.8-0.5,3.9,0.3
			C139.9,56.8,140.1,57.2,139.9,57.3z"/>
		<path class="st7" d="M110.1,64.8c-0.2-0.1-6.4-2.3-6.5,4.2s6.3,5.3,6.4,5.1S110.1,64.8,110.1,64.8z"/>
		<path class="st8" d="M108,71.6c0,0-0.1,0.1-0.3,0.2c-0.3,0.1-0.6,0.1-0.8,0c-0.8-0.6-1.3-1.5-1.2-2.5c0-0.6,0.1-1.1,0.4-1.6
			c0.1-0.4,0.5-0.7,0.9-0.8c0.3-0.1,0.5,0.1,0.6,0.3c0.1,0.2,0,0.3,0.1,0.3s0.1-0.1,0.1-0.4c0-0.2-0.1-0.3-0.2-0.4
			c-0.2-0.1-0.4-0.2-0.6-0.2c-0.5,0.1-1,0.5-1.2,1c-0.3,0.5-0.4,1.2-0.4,1.8c-0.1,1.2,0.5,2.3,1.6,2.8c0.3,0.1,0.7,0,1-0.1
			C108,71.8,108,71.6,108,71.6z"/>
		<path class="st4" d="M106.5,64.4c1.2,0,2.4,0.7,3,1.8c0.4,0.9,0.4,2,0.8,2.9c0.3,1,1.2,1.7,2.2,1.7c0.7-0.2,1.2-0.7,1.4-1.4
			c0.2-0.7,0.2-1.4,0.1-2.1c-0.2-3-0.7-6-0.6-9.1c-0.1-3.1,0.8-6.1,2.4-8.6c1.7-2.6,4.7-4,7.8-3.8c2,0.3,3.8,1.4,5.7,1.8
			c2.4,0.5,4.8-0.2,6.6-1.8c0.1-0.1,0.2-0.2,0.3-0.2c0.7-0.4,1-1.2,0.7-2c-0.1-0.2-0.2-0.5-0.3-0.6c-3.7-3.9-10.8-5.3-16-4.3
			c-5.4,1-10.1,4.4-12.9,9.2C105.4,52.6,105.7,59.4,106.5,64.4"/>
		<path class="st4" d="M126.9,72.9c0.2,0,0.2,1.6,1.6,2.7s3,0.9,3,1.2s-0.4,0.3-1.1,0.3c-0.9,0-1.8-0.3-2.5-0.9
			c-0.7-0.6-1.1-1.4-1.2-2.2C126.6,73.3,126.8,72.9,126.9,72.9z"/>
		<path class="st7" d="M216.7,125.8c0,0,7.1-6.2,8.4-6.6c1.3-0.5,12-0.6,12.7-0.1s11.5,6.4,9.7,7.3s-9.2-3.4-9.2-3.4l-1.2,0.2
			c0,0,6.5,3.5,7.6,4.8s0,2.7-1.2,2.1s-6.8-3.8-7.2-3.7s5.9,3.9,6.5,4.6c0.8,0.9,0.3,2.7-1,2.2c-0.7-0.3-6.6-4.2-6.6-4.2
			c1.7,1.4,3.3,2.8,4.8,4.4c0.5,1-0.5,1.9-1.5,1.3c-0.7-0.4-3.7-3.4-4.7-4c0,0-1-0.1-2.6,1.6s-7.6,3.9-7.6,3.9L216.7,125.8z"/>
		<path class="st8" d="M247.4,126.4c-0.8,0.1-1.5,0.1-2.3-0.1c-0.8-0.2-1.6-0.4-2.4-0.7c-0.8-0.4-1.7-0.9-2.7-1.4l-2-1h0.1
			c-1.8,0.1-3.6,0-5.5-0.1c1.8-0.3,3.6-0.4,5.5-0.4h0.1h0.1l2,1l2.6,1.4c0.7,0.3,1.5,0.6,2.3,0.8
			C246.6,126.2,247.4,126.3,247.4,126.4z"/>
		<path class="st7" d="M219.4,127.6c0.6,0.8,1.7,1.2,2.6,0.9c1-0.2,1.9-0.7,2.8-1c2.9-0.8,6.1,0.7,8.9-0.3c0.4-0.1,0.8-0.4,0.8-0.8
			s-0.5-0.6-0.9-0.7l-9.5-3"/>
		<path class="st8" d="M224.2,122.7c0.4,0,0.7,0.1,1.1,0.2c0.7,0.2,1.6,0.5,2.8,0.8l4.2,1.3l1.2,0.4c0.4,0.1,0.9,0.2,1.3,0.8
			c0.1,0.3,0.1,0.7-0.1,0.9c-0.2,0.2-0.4,0.4-0.7,0.4c-0.5,0.2-0.9,0.3-1.4,0.3c-1.8,0-3.6-0.1-5.4-0.3c-0.7,0-1.5,0-2.2,0.2
			c-0.7,0.2-1.3,0.5-1.9,0.7c-0.9,0.5-2.1,0.5-3,0c-0.6-0.4-0.7-0.8-0.7-0.8c0.2,0.3,0.5,0.5,0.8,0.6c0.9,0.3,1.9,0.3,2.8-0.2
			c0.6-0.3,1.3-0.5,1.9-0.8c0.8-0.2,1.6-0.3,2.4-0.3c1.8,0.2,3.5,0.3,5.3,0.2c0.4-0.1,0.9-0.2,1.3-0.3c0.4-0.1,0.7-0.4,0.5-0.6
			s-0.5-0.4-1-0.5l-1.2-0.4l-4.1-1.4c-1.2-0.4-2.1-0.7-2.8-1C224.9,123,224.5,122.9,224.2,122.7z"/>
		<path class="st7" d="M176.7,177.4l11.7-1.2c0,0,15.5,10.6,14,12.9s-4,0-4,0s2.8,3.4-1.7,4.4c0,0-1.1,2.3-2.8,2.1h-1.1
			c0,0-1,2.9-2.4,2.3s-5.7-4.4-5.7-4.4l-12-1.1L176.7,177.4z"/>
		<path class="st9" d="M184,189.5c0,0-3,1.1-3.6,2.4s-1,4,0.9,4.6c1.1,0.1,2.3,0,3.4-0.1l-0.7-3.1c0.6-0.6,1.2-1.3,1.8-1.8
			C186.4,190.8,185.7,188.7,184,189.5z"/>
		<path class="st9" d="M187.3,191.1c0,0-3,1.1-3.6,2.4c-0.7,1.3-0.1,2.9,1.2,3.5c0.2,0.1,0.4,0.2,0.5,0.2c1,0.1,2.1,0,3.1-0.1
			l-0.3-0.6c-0.6-1.2-0.9-2.1,0.2-2.9c0.1,0,0.7-0.6,0.7-0.6c0.4-0.6,0.2-1.4-0.4-1.8C188.3,190.8,187.8,190.8,187.3,191.1z"/>
		<path class="st9" d="M188.1,197c-0.5-0.6-0.6-1.4-0.2-2.1c0.4-0.6,1-1.1,1.8-1.3c0.5-0.2,1-0.1,1.4,0.2c0.2,0.3,0.3,0.6,0.2,0.9
			c-0.2,0.8-0.6,1.6-1.2,2.2c-0.3,0.4-0.6,0.7-1.1,0.7s-0.8-0.4-1-0.8"/>
		<polygon class="st5" points="124.9,102.7 127.5,101.7 129.8,105.8 128.5,110.1 125.8,110.8 123.2,107.4 		"/>
		<path class="st5" d="M125.8,110.8c0,0,3.4,18.7,6.2,31.9c0,0,2.3,11,3.3,13.5c1.1,2.8,4.3,7,4.3,7l3.3,1.3l-2-18.5l-12.4-35.8
			L125.8,110.8z"/>
		<g class="st10">
			<polygon points="124.9,102.7 127.5,101.7 129.8,105.8 128.5,110.1 125.8,110.8 123.2,107.4 			"/>
		</g>
		<g class="st10">
			<path d="M125.8,110.8c0,0,3.4,18.7,6.2,31.9c0,0,2.7,10.9,3.3,13.5c0.4,1.6,4.3,7,4.3,7l3.3,1.3l-2-18.5l-12.4-35.8L125.8,110.8z
				"/>
		</g>
		<polygon class="st0" points="109.1,91.3 124.9,102.7 121.5,112.1 107.1,97.3 		"/>
		<polygon class="st0" points="127.5,101.7 131.9,91.9 134.4,100 130.9,108.5 		"/>
		<path class="st4" d="M124.9,102.7c0,0.2-0.1,0.5-0.2,0.7l-0.6,2c-0.6,1.7-1.4,4-2.4,6.8l-0.1,0.4l-0.3-0.3l-3.7-4.1
			c-2.9-3.2-5.4-6.1-7.3-8.2l-2.2-2.5c-0.3-0.3-0.5-0.6-0.7-1c0.3,0.2,0.6,0.5,0.9,0.8l2.3,2.4c1.9,2,4.5,4.9,7.4,8.1
			c1.3,1.4,2.5,2.8,3.7,4.1l-0.4,0.1c1-2.7,1.9-5.1,2.5-6.7l0.8-1.9C124.7,103.1,124.8,102.9,124.9,102.7z"/>
		<path class="st4" d="M134.4,100c-0.2,0.8-0.4,1.6-0.7,2.3c-0.5,1.4-1.3,3.3-2.1,5.4l-0.4,0.9l-0.3,0.6l-0.2-0.6
			c-0.9-2.2-1.9-4.4-3.1-6.5c0.5,0.5,1,1,1.3,1.6c1,1.5,1.7,3,2.3,4.6h-0.5c0.1-0.3,0.2-0.6,0.4-0.9c0.9-2.1,1.7-4,2.3-5.4
			C133.6,101.4,134,100.7,134.4,100z"/>
		<path class="st5" d="M334.9,396.1l6.1,24.1l10.3,17.7c0.7,1.2,0.3,2.8-0.9,3.5c0,0-0.1,0.1-0.2,0.1l0,0c-0.7,0.4-1.6,0.4-2.3,0
			c-4.6-2.5-21.6-11.8-22-13.6c-0.4-2.1-8.1-25-8.1-25L334.9,396.1z"/>
		<g class="st11">
			<path class="st2" d="M350.3,441.5l-24.8-15.2l0.3,1c0.2,0.9,0.8,1.6,1.5,2.2c2,1.4,7.7,5,20.5,12
				C348.6,441.8,349.5,441.8,350.3,441.5L350.3,441.5z"/>
		</g>
		<g class="st11">
			<path class="st2" d="M328.3,417.2c0.7,0.3,1.1,1.1,1,1.8c-0.3,0.7-1,1.2-1.8,1c-0.8-0.3-1.2-1.1-1-1.9c0.3-0.8,1.2-1.1,2-0.8"/>
		</g>
		<path class="st4" d="M341.9,432.5c0.4-0.9,0.9-1.7,1.6-2.5c0.8-0.6,1.7-1,2.6-1.3c0-0.1-0.4-0.2-0.9-0.1c-1.6,0.3-2.8,1.4-3.3,2.9
			C341.8,432.2,341.8,432.5,341.9,432.5z"/>
		<path class="st4" d="M344.5,435.3c0.1,0.1,0.7-0.9,1.8-1.6c0.7-0.4,1.5-0.7,2.3-1c-0.9-0.3-1.8-0.1-2.5,0.5
			C344.8,434,344.4,435.3,344.5,435.3z"/>
		<path class="st4" d="M337.6,429.3c1.5-2.1,3.6-3.6,6-4.5C340.9,425,338.6,426.8,337.6,429.3z"/>
		<path class="st4" d="M335.1,422.1c0.1,0.1,1.3-0.8,3-1.3s3.2-0.5,3.2-0.7c-1.1-0.4-2.3-0.3-3.4,0.1
			C336.8,420.5,335.8,421.2,335.1,422.1z"/>
		<path class="st4" d="M333.2,415.1c0.9-0.6,2-1.1,3.1-1.5c1.1-0.2,2.3-0.2,3.4-0.1c0-0.1-0.3-0.3-1-0.5c-0.8-0.2-1.7-0.2-2.6,0
			c-0.8,0.2-1.6,0.6-2.3,1.2C333.3,414.7,333.1,415,333.2,415.1z"/>
		<path class="st4" d="M335.8,412.3c0-0.3-0.1-0.6-0.2-0.9c-0.3-0.8-0.8-1.6-1.4-2.2c-0.4-0.5-1-0.8-1.6-1c-0.4-0.1-0.9,0.1-1,0.5
			c-0.2,0.4-0.2,0.8-0.1,1.2c0.6,1.6,2.2,2.6,3.9,2.4c1.7-0.3,3-1.6,3.4-3.2c0.1-0.4,0-0.8-0.3-1.2c-0.3-0.3-0.8-0.4-1.1-0.2
			c-0.6,0.3-1,0.7-1.4,1.3c-0.5,0.7-0.9,1.5-1.1,2.3c-0.1,0.3-0.2,0.6-0.1,0.9c0.4-1.1,0.9-2.1,1.6-3c0.3-0.4,0.7-0.8,1.2-1.1
			c0.2-0.1,0.5,0,0.6,0.1c0.1,0.2,0.2,0.5,0.1,0.8c-0.4,1.4-1.5,2.5-3,2.8c-1.5,0.2-2.9-0.6-3.4-2c-0.1-0.3-0.1-0.6,0-0.8
			c0.1-0.2,0.3-0.3,0.6-0.3c0.5,0.1,1,0.4,1.3,0.8C334.7,410.3,335.3,411.2,335.8,412.3z"/>
		<path class="st5" d="M259.6,400.6l1.3,18.6c0,0-18.5,7.6-18.6,11l36.2-1.2l-0.8-29.1L259.6,400.6z"/>
		<path class="st1" d="M272,417.3c0.7,0.2,1.2,0.9,1.1,1.7c-0.2,0.7-0.9,1.2-1.6,1.1c-0.8-0.2-1.3-1-1.1-1.8
			c0.3-0.8,1.1-1.2,1.8-0.9"/>
		<path class="st1" d="M278.4,429l-0.2-2.9l-34.6,2.2c0,0-1.6,0.8-1.4,1.9L278.4,429z"/>
		<path class="st4" d="M260.3,419c0,0.2,0.9,0.2,1.8,0.8s1.4,1.3,1.5,1.2s-0.1-1.1-1.2-1.7S260.2,418.9,260.3,419z"/>
		<path class="st4" d="M256.5,420.7c0,0.2,0.7,0.5,1.4,1.2s0.8,1.5,1,1.5s0.3-1-0.5-1.9S256.5,420.6,256.5,420.7z"/>
		<path class="st4" d="M254.5,425.4c0.2,0,0.4-0.9-0.1-1.8s-1.3-1.3-1.4-1.2s0.5,0.6,0.9,1.4S254.3,425.3,254.5,425.4z"/>
		<path class="st4" d="M260.4,414.8c0.1,0.1,0.9-0.1,1.9-0.1s1.8,0.3,1.9,0.2s-0.7-0.8-1.9-0.8S260.3,414.6,260.4,414.8z"/>
		<path class="st4" d="M260.2,411c0.6,0.1,1.2,0.1,1.8-0.1c0.6-0.1,1.3-0.4,1.9-0.6c0.3-0.2,0.7-0.4,1-0.6c0.2-0.1,0.4-0.3,0.5-0.4
			c0.2-0.3,0.2-0.7,0-0.9c-0.2-0.2-0.5-0.4-0.8-0.4c-0.2,0-0.5,0-0.7,0.1c-0.4,0.1-0.8,0.2-1.1,0.4c-0.6,0.3-1.2,0.7-1.6,1.1
			c-0.8,0.8-1.1,1.5-1,1.5s0.5-0.5,1.3-1.2c0.5-0.4,1-0.7,1.6-1c0.3-0.1,0.7-0.3,1-0.4c0.4-0.1,0.7-0.1,0.8,0s0,0.1,0,0.2
			c-0.1,0.1-0.3,0.2-0.4,0.3c-0.3,0.2-0.6,0.4-0.9,0.6c-0.6,0.3-1.1,0.5-1.7,0.7C261.4,410.6,260.8,410.8,260.2,411z"/>
		<path class="st4" d="M260.5,411.3c0.1,0,0.4-0.6,0.4-1.8c0-0.7-0.1-1.4-0.3-2c-0.1-0.4-0.3-0.7-0.5-1.1c-0.2-0.5-0.7-0.8-1.2-0.9
			c-0.3,0-0.6,0.2-0.7,0.5c-0.1,0.2-0.1,0.4-0.2,0.7c-0.1,0.4-0.1,0.8,0,1.2c0.1,0.7,0.4,1.3,0.8,1.9c0.7,0.9,1.5,1.1,1.5,1
			s-0.6-0.4-1.1-1.3c-0.3-0.5-0.5-1.1-0.6-1.7c-0.1-0.3-0.1-0.7,0-1c0-0.4,0.2-0.7,0.3-0.7s0.5,0.3,0.7,0.6c0.2,0.3,0.3,0.7,0.5,1
			c0.2,0.6,0.4,1.2,0.4,1.8C260.5,410.6,260.4,411.2,260.5,411.3z"/>
		<polygon class="st4" points="249.7,198.2 255.5,414.7 284,413.9 281.8,228 318.2,419 344,412.3 310.7,198.6 		"/>
		<path class="st6" d="M265.3,415c-0.1,0-0.3-44.9-0.3-100.3s0.1-100.3,0.3-100.3s0.3,44.9,0.3,100.3S265.5,415,265.3,415z"/>
		<path class="st6" d="M326.3,419c-0.1,0-6.8-43-14.9-96.1s-14.5-96.2-14.4-96.2s6.8,43,14.9,96.1S326.5,419,326.3,419z"/>
		<path class="st4" d="M290.6,62.8c1-2.2,1.8-4.5,2.4-6.9c0.3-1.8,0.9-4.5,0.2-6.2s-2.5-3.3-4.7-2.8c-0.5-3.6-2.8-6.7-6-8.2
			c-3.1-1.5-6.5-2.4-10-2.6c-1.3-0.1-2.6,0-3.8,0.5c-1,0.5-1.8,1.4-2.3,2.4c-2.1-1.5-4.9-2-7.4-1.2c-2.8,0.7-5.9,2.2-7.1,4.8
			c-0.9,1.9-0.9,4.1-0.2,6.1c0.5,1.7,2.3,4.3,4,3.7"/>
		<path class="st9" d="M276.7,109.5L276.7,109.5c-6.8-0.1-12.2-5.8-12.1-12.6c0-0.1,0-0.3,0-0.4c0.2-3.4,0.3-6.2,0.3-6.2
			s-9.4-1.2-9.8-10.6s0.7-30.9,0.7-30.9l0,0c10.7-4.9,23.3-3.6,32.8,3.4l1.4,1l-0.9,44.3C289.1,104.2,283.5,109.6,276.7,109.5
			C276.7,109.5,276.7,109.5,276.7,109.5z"/>
		<path class="st12" d="M264.9,90.1c4.3,0,8.6-1.3,12.1-3.8c0,0-2.9,7.3-12.3,6.7L264.9,90.1z"/>
		<path class="st9" d="M289.2,62.8c0.2-0.1,6.4-2.1,6.4,4.3s-6.5,5.1-6.5,4.9S289.2,62.8,289.2,62.8z"/>
		<path class="st12" d="M291.1,69.6c0,0,0.1,0.1,0.3,0.2c0.3,0.1,0.6,0.1,0.8,0c0.9-0.5,1.3-1.5,1.3-2.5c0-0.6-0.1-1.1-0.3-1.6
			c-0.1-0.4-0.4-0.7-0.8-0.9c-0.3-0.1-0.5,0.1-0.7,0.3c-0.1,0.2,0,0.3-0.1,0.3s-0.1-0.1-0.1-0.4c0-0.2,0.1-0.3,0.3-0.4
			c0.2-0.1,0.4-0.2,0.6-0.2c0.5,0.1,1,0.5,1.2,1c0.3,0.6,0.4,1.2,0.4,1.8c0.1,1.2-0.6,2.3-1.6,2.8c-0.3,0.1-0.7,0-1-0.2
			C291.1,69.7,291.1,69.6,291.1,69.6z"/>
		<path class="st4" d="M258.3,63.3c0,0.7,0.6,1.3,1.3,1.3c0.7,0,1.3-0.5,1.3-1.2c0,0,0,0,0,0c0-0.7-0.6-1.3-1.3-1.3
			C259,62.1,258.3,62.6,258.3,63.3C258.3,63.3,258.3,63.3,258.3,63.3z"/>
		<path class="st4" d="M258,61.8c0.2,0.2,1.2-0.6,2.6-0.6s2.5,0.7,2.7,0.5s-0.1-0.4-0.6-0.7c-0.6-0.4-1.4-0.6-2.1-0.6
			c-0.8,0-1.5,0.3-2.1,0.7C258,61.5,257.9,61.8,258,61.8z"/>
		<path class="st4" d="M272.4,63.3c0,0.7,0.6,1.3,1.3,1.3c0.7,0,1.3-0.5,1.3-1.2c0,0,0,0,0-0.1c0-0.7-0.6-1.3-1.3-1.3
			C273.1,62.1,272.5,62.6,272.4,63.3C272.4,63.3,272.4,63.3,272.4,63.3z"/>
		<path class="st4" d="M272.2,61.8c0.2,0.2,1.2-0.6,2.6-0.6s2.5,0.7,2.7,0.5s-0.1-0.4-0.6-0.7c-0.6-0.4-1.4-0.6-2.1-0.6
			c-0.8,0-1.5,0.3-2.1,0.7C272.2,61.4,272.1,61.7,272.2,61.8z"/>
		<path class="st4" d="M267.2,72.6c-0.8-0.2-1.6-0.3-2.4-0.4c-0.4,0-0.7-0.1-0.8-0.3c0-0.4,0-0.8,0.2-1.1c0.3-0.9,0.7-1.8,1-2.8
			c1.4-4,2.4-7.3,2.3-7.4s-1.4,3.2-2.9,7.2l-1,2.8c-0.2,0.4-0.3,1-0.2,1.4c0.1,0.3,0.3,0.4,0.6,0.5c0.2,0,0.4,0.1,0.6,0.1
			C265.6,72.7,266.4,72.7,267.2,72.6z"/>
		<path class="st4" d="M271.5,73.5c-0.2,0-0.2,1.6-1.5,2.7s-3,1-3,1.2s0.4,0.3,1.1,0.3c0.9,0,1.8-0.3,2.5-0.9
			c0.7-0.6,1.1-1.4,1.2-2.3C271.8,73.8,271.6,73.5,271.5,73.5z"/>
		<path class="st4" d="M271.6,56.1c0.1,0.4,1.6,0.2,3.3,0.3s3.1,0.6,3.3,0.2c0.1-0.2-0.1-0.5-0.7-0.9c-0.7-0.5-1.6-0.7-2.5-0.8
			c-0.9-0.1-1.7,0-2.6,0.4C271.9,55.6,271.6,55.9,271.6,56.1z"/>
		<path class="st4" d="M258.4,57.7c0.3,0.3,1.2,0,2.4-0.1s2.2,0.2,2.4-0.2c0.1-0.2-0.1-0.5-0.5-0.8c-1.2-0.7-2.8-0.6-3.9,0.2
			C258.4,57.2,258.3,57.5,258.4,57.7z"/>
		<path class="st4" d="M290.6,53.8c-0.1,2.7,0.6,5.8,0.2,8.5c-0.1,0.4-1.1,1.5-1.2,1.9c-0.5,2.4-1.5,3.4-2.9,1
			c-0.6-0.9-1-3.5-1.2-4.6l-1.9-8.6c-2.2,1.2-4.6,1.8-7.1,1.9c-2.5,0-4.9-1.3-6.2-3.4c-2.1,3.6-6.7,4.9-10.3,2.8
			c-0.5-0.3-1-0.6-1.4-1c-0.9,1.4-2.7,1.8-4.1,1c-1.4-0.9-2-2.5-1.6-4.1c0.6-2.3,3-3.6,5.3-4.3c8.9-2.8,18.8-1,26.9,3.5
			c1.2,0.6,2.3,1.4,3.3,2.4c0.9,1,2.2,2.1,2.3,3.5"/>
		<path class="st6" d="M283.9,53c0.5,0,1,0.1,1.5,0.2c0.5,0.2,0.9,0.5,1.3,0.9c0.5,0.4,0.9,0.9,1.5,1.4c0.5,0.5,1.1,0.9,1.8,1.2
			c0.6,0.2,1.2,0.2,1.8,0c1-0.3,1.4-0.8,1.3-0.9c-0.5,0.2-0.9,0.4-1.4,0.5c-0.5,0.1-1,0-1.5-0.1c-0.6-0.2-1.2-0.6-1.6-1.1
			c-0.5-0.5-1-1-1.5-1.4c-0.5-0.4-1-0.7-1.5-0.8C284.5,52.6,283.9,53,283.9,53z"/>
		<path class="st6" d="M285,55.8c0,0.1,0.5,0,1,0.4c0.3,0.3,0.6,0.6,0.8,0.9c0.3,0.5,0.7,0.8,1.2,1.1c0.9,0.5,1.9,0.8,2.9,0.6
			c0.8-0.1,1.2-0.4,1.1-0.5s-0.5,0.1-1.2,0.1c-0.9,0-1.8-0.2-2.6-0.7c-0.9-0.5-1.4-1.5-2.1-1.9S284.9,55.8,285,55.8z"/>
		<path class="st6" d="M260.3,37.6c0,0-0.3-0.1-0.8,0.1c-0.7,0.2-1.4,0.7-1.8,1.4c-1.1,1.6-1.4,4.5-0.5,7.2c0.8,2.4,2.4,4.4,4.6,5.7
			c0.6,0.4,1.3,0.7,2,0.9c0.3,0.1,0.5,0.1,0.8,0.1c-0.9-0.4-1.8-0.9-2.6-1.4c-2-1.3-3.5-3.2-4.3-5.5c-0.9-2.6-0.6-5.3,0.3-6.8
			c0.4-0.6,0.9-1.1,1.6-1.4C260,37.7,260.3,37.6,260.3,37.6z"/>
		<path class="st6" d="M252.5,41.5c-0.1,0.6-0.1,1.2,0.1,1.8c0.6,2.9,2.3,5.5,4.7,7.1c0.5,0.4,1,0.6,1.6,0.8
			c-1.6-1.2-3.1-2.6-4.3-4.2C252.8,44.3,252.7,41.4,252.5,41.5z"/>
		<path class="st9" d="M200.8,172.2l-13.7,0.7c-1.7,0.1-3.1,1.5-3.1,3.3c0.1,3.1,0.6,7.4,3,7l1.6-6.8l11.4,10c1.2,1,2.6,1.7,4.1,2
			l2.7-0.3L200.8,172.2z"/>
		<polygon class="st1" points="266.4,98.7 259.2,101.1 255.7,160.6 255.7,213.4 299.7,218.3 300.2,142.1 297.4,104.2 290.6,96.2 		
			"/>
		<polygon class="st1" points="264.2,101.5 264.2,95.8 290.4,92.1 289.3,105.4 283.3,115.8 273.5,116.4 266.4,112 		"/>
		<path class="st4" d="M266.5,100.9c-0.2-0.9-0.3-1.8-0.1-2.6c0-0.9,0.1-1.8,0.4-2.6c0.2,0.9,0.3,1.8,0.1,2.6
			C266.9,99.1,266.8,100,266.5,100.9z"/>
		<path class="st4" d="M273.1,100.4c-0.2-1-0.2-2-0.1-2.9c0-1,0.1-2,0.4-2.9c0.2,1,0.2,2,0.1,3C273.5,98.5,273.4,99.5,273.1,100.4z"
			/>
		<path class="st4" d="M279.4,99.7c-0.2-1-0.2-2.1,0-3.1c0-1,0.2-2.1,0.5-3.1c0.2,1,0.2,2.1,0,3.1C279.9,97.7,279.7,98.7,279.4,99.7
			z"/>
		<path class="st4" d="M285.5,98.7c-0.4-1.9-0.3-4,0.3-5.9c0.1,1,0.1,2,0,2.9C285.8,96.8,285.7,97.8,285.5,98.7z"/>
		<path class="st4" d="M282.6,123.9c-0.1,0.3-0.2,0.7-0.4,1c-0.2,0.6-0.6,1.5-1.1,2.6c-1,2.1-2.5,5.1-4.4,8.2s-3.7,5.9-5.1,7.8
			c-0.7,1-1.3,1.7-1.7,2.2c-0.2,0.3-0.4,0.5-0.7,0.8c0.6-1.1,1.3-2.2,2.1-3.2c1.3-2,3.1-4.7,5-7.8s3.4-6,4.5-8.1
			C281.3,126.1,281.9,125,282.6,123.9z"/>
		<path class="st6" d="M290.5,95.2l7.1,3.4l13.7,3.4c6,1,10.2,6.6,9.4,12.7l-7.2,56l8.6,54.3l-34-1l-2-20.2v-56L290.5,95.2z"/>
		<path class="st4" d="M286.1,160.7c0-0.2,0-0.5,0.1-0.7c0.1-0.5,0.2-1.1,0.4-2l1.5-7.2l5.2-23.8c0.6-2.6,1.1-5,1.6-7.4l0.1,0.2
			l-2.4-2.5l-0.1-0.1l0.1-0.2l4-6.6v0.2l-4.4-10.6c-0.5-1.2-0.9-2.2-1.2-3c-0.2-0.3-0.3-0.7-0.4-1.1c0.2,0.3,0.4,0.7,0.5,1l1.3,2.9
			l4.5,10.6l0,0.1l-0.1,0.1c-1.2,2-2.5,4.2-3.9,6.6v-0.3l2.4,2.4l0.1,0.1v0.1c-0.5,2.4-1.1,4.9-1.6,7.4c-2.1,9.2-4,17.6-5.3,23.7
			c-0.7,3-1.3,5.4-1.7,7.2l-0.5,1.9C286.3,160.3,286.2,160.5,286.1,160.7z"/>
		<path class="st6" d="M201.4,169.9l30.1-16.8l14.6-39.3c2-5.5,6.3-9.9,11.7-12.1l3.9-1.6v103.5l0.8,24.5l-16.3-4.9l8.3-49.3
			l-2.9-24.2l-2.9,11.7c-1,4.2-3.7,7.8-7.4,10l-31.3,16.2L201.4,169.9z"/>
		<polygon class="st1" points="201.7,170.7 199.2,171.4 206.3,188.4 209.6,187.1 		"/>
		<path class="st4" d="M236.9,160.1c-0.6-1.3-1.4-2.6-2.2-3.8c-1-1.1-2.1-2.1-3.3-2.9C234.3,154.4,236.5,157,236.9,160.1z"/>
		<path class="st4" d="M205,170.1c0,0.1-0.1,0.2-0.2,0.5s0.2,0.6,0.6,0.5c0.2-0.1,0.4-0.3,0.3-0.5c0-0.1-0.1-0.2-0.1-0.2
			c-0.2-0.2-0.4-0.2-0.4-0.3s0.3-0.2,0.7,0.1c0.2,0.2,0.3,0.4,0.3,0.7c0,0.4-0.3,0.7-0.6,0.8c-0.4,0.2-0.9-0.1-1.1-0.5
			c-0.1-0.2-0.1-0.4,0-0.6C204.6,170.1,204.9,170,205,170.1z"/>
		<path class="st4" d="M207.4,169.1c0,0.1-0.1,0.2-0.2,0.5s0.2,0.6,0.6,0.5c0.2-0.1,0.4-0.3,0.3-0.5c0-0.1-0.1-0.1-0.1-0.2
			c-0.2-0.2-0.4-0.2-0.4-0.3s0.3-0.2,0.7,0.1c0.2,0.2,0.3,0.4,0.3,0.7c-0.1,0.5-0.5,0.9-1,0.8c-0.2,0-0.5-0.1-0.6-0.3
			c-0.2-0.2-0.2-0.5-0.1-0.8C207,169,207.4,169,207.4,169.1z"/>
		<path class="st4" d="M261.6,162.3c-0.1-0.2-0.1-0.4-0.1-0.6c-0.1-0.5-0.2-1.1-0.3-1.9c-0.2-1.7-0.5-4-0.9-6.8
			c-0.7-5.8-1.7-13.7-2.9-22.4c-0.1-1.2-0.3-2.5-0.5-3.7v-0.1v-0.1c0.8-1.9,1.5-3.8,2.2-5.6v0.2c-0.8-1.7-1.5-3.4-2.2-5v-0.1v-0.1
			c1.3-4.8,2.5-8.9,3.3-11.8c0.4-1.4,0.7-2.5,1-3.3c0.1-0.4,0.2-0.8,0.4-1.2c-0.1,0.4-0.1,0.8-0.2,1.2c-0.2,0.8-0.5,1.9-0.8,3.3
			c-0.8,2.9-1.8,7-3.1,11.8v-0.1l2.2,4.9v0.1v0.1l-2.2,5.6v-0.1c0.1,1.2,0.3,2.4,0.5,3.7c1,8.7,2,16.6,2.7,22.4
			c0.3,2.8,0.6,5.1,0.8,6.8l0.2,1.9C261.6,161.9,261.6,162.1,261.6,162.3z"/>
		<path class="st4" d="M254.3,174.2c0-0.2-0.1-0.3-0.1-0.5c0-0.4-0.1-0.9-0.2-1.4c-0.2-1.3-0.4-3.1-0.6-5.2
			c-0.5-4.4-1.3-10.5-2.2-17.2s-1.8-12.8-2.4-17.1c-0.3-2.1-0.6-3.9-0.8-5.2c-0.1-0.6-0.1-1-0.2-1.4c0-0.2,0-0.3,0-0.5
			c0.1,0.2,0.1,0.3,0.1,0.5c0.1,0.4,0.2,0.8,0.3,1.4c0.2,1.2,0.5,3,0.9,5.2c0.7,4.4,1.7,10.4,2.6,17.1s1.6,12.8,2,17.2
			c0.2,2.2,0.4,4,0.5,5.2c0,0.6,0.1,1,0.1,1.4C254.3,173.9,254.3,174.1,254.3,174.2z"/>
		<path class="st4" d="M250.2,211c0.2,0.3,0.4,0.6,0.7,0.8c0.8,0.6,1.8,0.8,2.8,0.6c1.4-0.4,2.5-1.5,3-2.9c0.5-1.7,0.8-3.6,0.8-5.4
			c0.2-1.8,0-3.6-0.5-5.4c-0.6-1.3-1.6-2.5-2.7-3.4c-0.8-0.7-1.5-1.4-2.1-2.3c-0.2-0.3-0.4-0.6-0.5-1c0,0,0.2,0.3,0.6,0.9
			c0.7,0.8,1.4,1.5,2.2,2.1c1.2,0.9,2.2,2.1,2.9,3.5c0.6,1.8,0.9,3.7,0.6,5.6c0,1.9-0.3,3.7-0.9,5.5c-0.6,1.5-1.8,2.7-3.3,3.1
			c-1.1,0.3-2.2-0.1-3-0.8c-0.2-0.2-0.4-0.4-0.5-0.7C250.2,211.1,250.1,211,250.2,211z"/>
		<path class="st4" d="M239,172.2c0,0,1-11.5,10.1-12.5C249.1,159.6,249.2,169,239,172.2z"/>
		<path class="st5" d="M287.7,215.1l26.5,17.3l3-2.4l1.4-38.8l-25.2-19.1l-3.5,1.2L287.7,215.1z"/>
		<polygon class="st1" points="293,172.7 294.1,214.7 288.5,214.7 290.4,173.6 		"/>
		<path class="st9" d="M301.4,224.3c0.5,1.2,1.7,2,3,2c0.1,0,0.2,0.1,0.2,0.2c0.5,0.9,1.5,1.5,2.5,1.6c1,0,2-0.3,2.8-0.8
			c1.4-0.8,3.8-6.4,3.8-6.4l5.8-13l-9.8-2.6l-12.5,3.9c0,0.2-2.9,12-2.9,12c1.5,0.3,3-0.4,3.5-1.9c0.6-1.4,1.4-2.8,2.2-4.1l0.9,5.3
			l-3.5,1.2c-0.2,1.2,0.4,2.3,1.5,2.7L301.4,224.3z"/>
		<path class="st6" d="M305.8,133.1l16.3,30.1l-13.3,39.4l14.8,8.3l18.8-43.9c1.4-3.3,1.3-6.9-0.2-10.2l-23-49.5L305.8,133.1z"/>
		<polygon class="st1" points="308.8,202.6 307.4,205.7 321.4,213.2 322.8,210.5 		"/>
		<path class="st4" d="M308.8,202.6c0,0,0-0.1,0-0.2s0.1-0.3,0.2-0.6l0.7-2.2c0.6-2,1.6-4.8,2.7-8.3c2.4-7.1,5.6-16.9,9.4-28.2v0.2
			c-1.9-3.2-3.9-6.6-5.8-10.2c-3.6-6.4-6.9-12.6-9.7-18.4c-1.4-2.9-2.7-5.6-3.8-8.2c-1.1-2.4-1.5-5.1-1.4-7.8
			c0.1-2.2,0.6-4.4,1.5-6.4c0.7-1.5,1.7-2.9,2.9-4c0.8-0.7,1.6-1.3,2.6-1.7c0.3-0.2,0.7-0.3,1-0.4c-1.3,0.5-2.5,1.3-3.5,2.2
			c-1.2,1.1-2.1,2.5-2.8,4c-0.8,2-1.3,4.1-1.4,6.3c-0.2,2.6,0.3,5.2,1.4,7.6c1.1,2.6,2.4,5.3,3.8,8.2c2.8,5.7,6.2,11.9,9.8,18.3
			c2,3.5,3.9,6.9,5.8,10.2l0.1,0.1v0.1c-3.8,11.3-7.2,21.1-9.6,28.2l-2.8,8.2c-0.3,0.9-0.6,1.7-0.8,2.2l-0.2,0.6
			C308.9,202.5,308.8,202.5,308.8,202.6z"/>
		<path class="st4" d="M333.1,162.9c-0.5-0.2-1.1-0.3-1.6-0.6c-2.6-0.9-5.4-0.8-7.9,0.2c-0.5,0.3-1,0.5-1.6,0.7
			c0.4-0.4,0.9-0.8,1.4-1c1.3-0.6,2.7-1,4.1-1c1.4,0,2.8,0.2,4.1,0.8C332.2,162.2,332.7,162.5,333.1,162.9z"/>
		<polygon class="st4" points="302.5,125.9 314.2,165.2 315.9,152.3 		"/>
		<path class="st4" d="M321.9,203.1c0,0.1-0.1,0.2-0.2,0.5s0.2,0.6,0.6,0.5c0.2-0.1,0.4-0.3,0.3-0.5c0-0.1-0.1-0.1-0.1-0.2
			c-0.2-0.2-0.4-0.2-0.4-0.3s0.3-0.2,0.7,0.1c0.2,0.2,0.4,0.4,0.3,0.7c0,0.4-0.3,0.7-0.7,0.8c-0.4,0.1-0.8,0-1-0.3
			c-0.2-0.2-0.2-0.5-0.1-0.8C321.5,203,321.9,203,321.9,203.1z"/>
		<path class="st4" d="M323.1,200.2c0,0.1-0.1,0.2-0.2,0.5c0,0.2,0.1,0.5,0.4,0.5c0.2,0,0.5-0.1,0.5-0.4c0-0.1,0-0.3-0.1-0.4
			c-0.2-0.2-0.4-0.2-0.4-0.3s0.3-0.2,0.7,0.1c0.2,0.2,0.3,0.4,0.3,0.7c0,0.5-0.4,0.9-0.9,0.9c-0.5,0-0.9-0.4-0.9-0.9
			c0-0.1,0-0.2,0-0.3C322.7,200.2,323.1,200.2,323.1,200.2z"/>
		<path class="st4" d="M339.1,150.2c-1.8,0.9-2.4,3.5-2.2,5.5s0.9,3.9,0.9,5.9c-0.1,1.4-0.4,2.8-0.8,4.2c-0.4,1.4-0.3,2.8,0.1,4.2
			c0.5,1.4,1.9,2.2,3.3,2.1l1.4-2.8c2.2-4.4,2.1-9.7-0.2-14.1L339.1,150.2z"/>
	</g>
	<g id="freepik--Plants--inject-46">
		<path class="st5" d="M424.7,361.3c0.9-3.1,2.8-6.1,5.8-7.4s6.7-0.6,9.9,0.6s6.3,2.7,9.7,2.9s7.2-1.4,8.2-4.6c1-3-0.9-6.3-3.2-8.5
			c-8-7.6-20.6-7.4-28.3,0.6c-2,2.1-3.5,4.5-4.4,7.2"/>
		<g class="st13">
			<path d="M424.7,361.3c0.9-3.1,2.8-6.1,5.8-7.4s6.7-0.6,9.9,0.6s6.3,2.7,9.7,2.9s7.2-1.4,8.2-4.6c1-3-0.9-6.3-3.2-8.5
				c-8-7.6-20.6-7.4-28.3,0.6c-2,2.1-3.5,4.5-4.4,7.2"/>
		</g>
		<path class="st5" d="M398,374.9c-4.9-4.7-4.7-12.9-2.2-19.2s7.8-11.2,13.9-14.4c11.9-6.3,26-6.7,38.3-1.2
			c-6,0.3-11.5,3.5-14.7,8.6c-2.7,4.5-3.3,10-5.5,14.7C422.5,374.4,409.5,379.5,398,374.9"/>
		<path class="st5" d="M395.7,346.7c-5.5-6.5-6.2-16.8-5.4-25.2s2.8-16.9,1.4-25.3c-0.8-5-2.7-9.7-3.4-14.6s0.3-10.6,4.1-13.8
			c4.4-3.7,11.4-2.8,16,0.6s7.3,8.9,9.2,14.3c4.3,11.9,5.9,25.1,2.3,37.3s-11.8,23-23.9,26.7"/>
		<path class="st4" d="M393,399.6c0-0.2,0-0.5,0-0.7c0-0.5,0-1.2,0-2.1c0.1-1.9,0.2-4.5,0.7-7.8c0.5-3.9,1.2-7.7,2.1-11.5
			c1.1-4.6,2.9-9.1,5.2-13.3c2.3-4.2,5.2-8,8.5-11.4c2.7-2.8,5.7-5.3,9-7.4c1.4-1,2.7-1.7,3.8-2.3s2.2-1.1,3-1.5l2-0.8
			c0.2-0.1,0.5-0.2,0.7-0.3c-0.2,0.1-0.4,0.2-0.7,0.3l-1.9,0.9c-0.8,0.4-1.8,1-3,1.6s-2.4,1.4-3.8,2.4c-7.1,4.9-13,11.3-17.3,18.8
			c-5,8.8-6.4,18-7.4,24.5c-0.5,3.3-0.7,6-0.8,7.8l-0.1,2.1C393.1,399.1,393.1,399.4,393,399.6z"/>
		<path class="st5" d="M345.9,321.2c-10.1,6.1-10.1,11.7-8.4,16.9s7.9,8.9,13,6.9c2.9-1.1,5-3.6,6.8-6.2s3.5-5.3,6-7.1
			s6.2-2.5,8.7-0.7"/>
		<g class="st13">
			<path d="M345.9,321.2c-10.1,6.1-10.1,11.7-8.4,16.9s7.9,8.9,13,6.9c2.9-1.1,5-3.6,6.8-6.2s3.5-5.3,6-7.1s6.2-2.5,8.7-0.7"/>
		</g>
		<path class="st5" d="M338.3,327.9c2.6-3.6,9.2-4.7,13.3-2.9s7.1,5.5,9.9,9.1s5.3,7.4,9.1,9.9s9,3.4,12.7,0.9
			c2.4-1.8,4-4.5,4.3-7.5c0.3-3,0.1-5.9-0.6-8.8c-0.9-4.2-2.4-8.7-5.8-11.4c-3.8-3-9-3.1-13.9-3c-5.5,0.2-11.2,0.6-16.4,2.5
			S340.5,322.8,338.3,327.9"/>
		<path class="st4" d="M384.6,391.5c0-0.1,0-0.2,0-0.2v-0.6c0-0.6,0-1.5-0.1-2.5c-0.1-2.2-0.2-5.4-0.3-9.2s-0.3-8.5-0.6-13.7
			s-0.7-10.8-1.5-16.7c-0.3-2.9-0.9-5.7-1.7-8.5c-1.5-4.9-3.9-9.5-7-13.6c-1.3-1.7-2.7-3.2-4.3-4.7c-2.3-2.1-4.8-3.8-7.6-5.2
			c-0.5-0.2-0.9-0.5-1.3-0.6l-1-0.4l-0.6-0.2l-0.2-0.1l0.2,0l0.6,0.2l1,0.4c0.4,0.1,0.8,0.4,1.3,0.6c2.8,1.3,5.4,3,7.7,5.1
			c1.6,1.4,3,3,4.4,4.7c1.5,1.9,2.8,4,4,6.2c1.3,2.4,2.3,4.9,3.2,7.5c0.8,2.8,1.4,5.7,1.7,8.5c0.8,5.9,1.1,11.6,1.4,16.7
			s0.4,9.8,0.5,13.7s0.1,7.1,0.1,9.2c0,1.1,0,1.9,0,2.5c0,0.3,0,0.5,0,0.6S384.6,391.5,384.6,391.5z"/>
		<path class="st4" d="M388.3,396.1c-0.5-1.4-0.9-2.9-1.1-4.4c-0.7-4-0.9-8.1-0.5-12.2c0.6-6,1.9-12,3.9-17.7
			c2.1-6.5,4.9-13.5,7.3-21c1.2-3.6,2.2-7.3,2.9-11.1c0.7-3.5,1.1-7,1.4-10.6c0.5-6,0.6-12.1,0.3-18.1c-0.2-5.1-0.5-9.3-0.6-12.2
			c-0.1-1.4-0.1-2.5-0.2-3.3c0-0.4,0-0.6,0-0.9c0-0.1,0-0.2,0-0.3c0,0.1,0,0.2,0,0.3c0,0.2,0,0.5,0.1,0.9c0.1,0.8,0.2,1.9,0.3,3.3
			c0.2,2.9,0.5,7,0.8,12.2c0.3,6,0.2,12.1-0.2,18.1c-0.3,3.6-0.8,7.1-1.4,10.6c-0.7,3.8-1.7,7.5-2.9,11.2c-2.4,7.5-5.2,14.5-7.3,21
			c-2,5.7-3.3,11.6-3.9,17.6c-0.4,4-0.3,8.1,0.3,12.1c0.2,1.4,0.5,2.5,0.7,3.2c0.1,0.4,0.1,0.6,0.2,0.8
			C388.2,395.9,388.3,396,388.3,396.1z"/>
		<polygon class="st6" points="413.4,400.7 365.8,400.7 364.8,391.5 413.4,391.5 		"/>
		<polygon class="st6" points="370.9,399.6 376.9,427.1 402.7,427.1 408.3,399.6 		"/>
		<path class="st6" d="M413.4,400.7c0,0.1-10.5,0.2-23.3,0.2s-23.3-0.2-23.3-0.3s10.5-0.2,23.3-0.2S413.4,400.6,413.4,400.7z"/>
		<path class="st4" d="M405.2,414.2c-1.3-1-2.7-1.8-4.2-2.4c-1.6-0.6-3.3-1-5.1-1c-2.1,0-4.3,0.4-6.3,1.1c-2.2,0.7-4.2,1.6-6.2,2.1
			c-1.7,0.4-3.6,0.4-5.3,0.2c-1.2-0.2-2.3-0.5-3.4-1.1c-0.3-0.2-0.6-0.3-0.8-0.5c-0.2-0.1-0.3-0.2-0.3-0.2s0.4,0.2,1.2,0.6
			c1.1,0.5,2.2,0.8,3.4,0.9c1.7,0.2,3.5,0.1,5.2-0.2c1.9-0.5,3.9-1.3,6.1-2.1c2-0.8,4.2-1.2,6.4-1.1c1.8,0.1,3.6,0.4,5.2,1.1
			c1.1,0.5,2.2,1.1,3.1,1.8c0.3,0.2,0.5,0.4,0.7,0.6C405.1,414.1,405.2,414.2,405.2,414.2z"/>
		<path class="st2" d="M404.8,416c-1.2-0.9-2.6-1.7-4-2.4c-1.6-0.6-3.2-1-4.9-1c-2.1,0-4.1,0.4-6.1,1.1c-2.1,0.7-4,1.5-5.9,2
			c-1.7,0.5-3.4,0.7-5.1,0.6c-1.2-0.1-2.3-0.4-3.4-0.9c-0.3-0.1-0.5-0.3-0.8-0.5c-0.2-0.1-0.3-0.2-0.2-0.2s0.4,0.2,1.1,0.6
			c1,0.5,2.2,0.7,3.3,0.7c1.7,0.1,3.4-0.2,5-0.7c1.8-0.5,3.8-1.3,5.9-2c2-0.7,4.1-1.1,6.2-1.1c1.7,0.1,3.4,0.4,5,1.1
			c1.1,0.5,2.1,1.1,3,1.8c0.3,0.3,0.5,0.5,0.7,0.6S404.9,416,404.8,416z"/>
		<path class="st2" d="M405.7,412.4c-1.3-1-2.8-1.9-4.3-2.5c-1.7-0.7-3.4-1.1-5.2-1.2c-2.2,0-4.4,0.3-6.5,1.1
			c-2.1,0.8-4.2,1.5-6.4,2.1c-1.8,0.3-3.7,0.3-5.5,0c-1.2-0.2-2.4-0.6-3.5-1.1c-0.3-0.2-0.6-0.3-0.9-0.5c-0.2-0.1-0.3-0.2-0.3-0.2
			s0.4,0.2,1.2,0.6c1.1,0.5,2.3,0.8,3.5,1c1.8,0.3,3.6,0.2,5.4-0.1c2.1-0.6,4.2-1.3,6.3-2.1c2.1-0.8,4.4-1.2,6.6-1.1
			c3.1,0.3,6,1.4,8.5,3.3c0.3,0.2,0.5,0.4,0.8,0.7C405.6,412.3,405.7,412.4,405.7,412.4z"/>
		<path class="st4" d="M413.8,400.7c0,0.1-10.7,0.2-23.9,0.2s-23.9-0.1-23.9-0.2s10.7-0.2,23.9-0.2S413.8,400.6,413.8,400.7z"/>
		<path class="st5" d="M50.6,390.3c1.7,2.4,5,1.6,6.6,0.1s2.2-3.6,2.8-5.7c1.3-4.7,2.7-9.6,1.7-14.4c-0.2-1.5-0.9-2.8-1.8-3.9
			c-1-1.1-2.5-1.6-3.9-1.3c-1.7,0.4-2.7,2.1-3.5,3.6c-2.2,4.6-3.4,9.7-3.4,14.8C48.9,385.8,49.5,388.2,50.6,390.3"/>
		<g class="st14">
			<path d="M50.6,390.3c1.7,2.4,5,1.6,6.6,0.1s2.2-3.6,2.8-5.7c1.3-4.7,2.7-9.6,1.7-14.4c-0.2-1.5-0.9-2.8-1.8-3.9
				c-1-1.1-2.5-1.6-3.9-1.3c-1.7,0.4-2.7,2.1-3.5,3.6c-2.2,4.6-3.4,9.7-3.4,14.8C48.9,385.8,49.5,388.2,50.6,390.3"/>
		</g>
		<path class="st5" d="M57,402.6c2.9-1.3,6.1-1.7,9.2-1.1c1.7,0.1,3.3,0.8,4.5,2c1.1,1.3,1.3,3.5,0,4.5c-0.8,0.6-1.9,0.8-2.9,0.7
			c-2.4,0-5.1-0.5-7.1,1c-1.1,0.8-1.8,2.2-3.2,2.6c-1.4,0.3-2.8-0.3-3.4-1.5c-0.6-1.2-0.8-2.6-0.4-4C54.2,405.1,55.4,403.5,57,402.6
			z"/>
		<path class="st5" d="M45.9,393.8c1.8-2.3,2.3-5.4,1.4-8.2c-0.9-2.7-2.6-5.2-4.8-7c-2.5-2.3-5.5-4-8.7-5.1
			c-1.2-0.5-2.6-0.7-3.9-0.7c-1.4,0.1-2.6,0.8-3.3,2c-0.9,1.7,0,3.9,0.9,5.6c1.7,3,3.6,5.9,5.7,8.6c1.7,2.2,3.7,4.4,6.3,5.4
			s5.3,0.9,6.7-0.9"/>
		<path class="st4" d="M50.5,427.1c0.1-0.4,0.1-0.7,0.2-1.1c0.1-0.8,0.2-1.8,0.3-3c0.1-1.5,0.4-3,0.7-4.4c0.4-1.8,0.9-3.5,1.6-5.2
			c0.7-1.7,1.6-3.3,2.7-4.8c0.9-1.2,2.1-2.1,3.4-2.8c0.9-0.4,1.9-0.7,2.8-0.9c0.4,0,0.7-0.1,1.1-0.2c-0.4,0-0.8,0-1.1,0
			c-1,0.1-2.1,0.3-3,0.8c-1.4,0.7-2.6,1.6-3.6,2.8c-1.2,1.5-2.1,3.1-2.8,4.8c-0.7,1.7-1.2,3.5-1.6,5.3c-0.3,1.5-0.5,3-0.6,4.5
			c-0.1,1.3-0.1,2.3-0.2,3C50.4,426.3,50.5,426.7,50.5,427.1z"/>
		<path class="st4" d="M50.7,424.8c0-0.2,0-0.3,0-0.5c0-0.4,0-0.9,0-1.5c0-1.3,0-3.1,0.1-5.4c0.1-4.6,0.5-10.9,1.3-17.8
			s1.8-13.2,2.7-17.6c0.2-1.1,0.4-2.1,0.6-3s0.4-1.6,0.5-2.3l0.3-1.4c0.1-0.2,0.1-0.3,0.1-0.5c-0.1,0.2-0.1,0.3-0.2,0.5
			c-0.1,0.4-0.3,0.8-0.4,1.4s-0.4,1.4-0.6,2.2s-0.5,1.9-0.7,3c-1.3,5.8-2.2,11.7-2.8,17.6c-0.8,6.9-1.1,13.3-1.1,17.8
			c0,2.3,0,4.1,0.1,5.4c0,0.6,0.1,1.1,0.1,1.5C50.7,424.4,50.7,424.6,50.7,424.8z"/>
		<path class="st4" d="M50.8,412.6c0-0.5,0-1,0-1.5c-0.1-1-0.2-2.4-0.5-4.2c-0.3-2-0.8-4.1-1.4-6.1c-0.7-2.5-1.5-4.9-2.5-7.2
			c-1.8-4.3-4.3-8.2-7.5-11.6c-0.5-0.6-1.1-1.1-1.8-1.6c-0.3-0.2-0.5-0.5-0.8-0.6l-0.7-0.5c-0.4-0.3-0.8-0.6-1.3-0.8
			c1.5,1.2,2.9,2.4,4.2,3.8c3.1,3.4,5.5,7.3,7.2,11.6c1,2.3,1.9,4.7,2.6,7.1c0.7,2.2,1.1,4.3,1.4,6s0.5,3.1,0.6,4.1
			C50.6,411.6,50.6,412.1,50.8,412.6z"/>
	</g>
</g>
</svg>
