<?xml version="1.0" encoding="utf-8"?>
<!-- Generator: Adobe Illustrator 22.0.1, SVG Export Plug-In . SVG Version: 6.00 Build 0)  -->
<svg version="1.1" id="Layer_1" xmlns="http://www.w3.org/2000/svg" xmlns:xlink="http://www.w3.org/1999/xlink" x="0px" y="0px"
	 viewBox="0 0 449.1 452.7" style="enable-background:new 0 0 449.1 452.7;" xml:space="preserve">
<style type="text/css">
	.st0{fill:#263238;}
	.st1{fill:#B78876;}
	.st2{fill:#AA6550;}
	.st3{fill:#455A64;}
	.st4{fill:#90CAF9;}
	.st5{opacity:0.3;}
	.st6{fill:#FAFAFA;}
	.st7{opacity:0.6;fill:#FFFFFF;enable-background:new    ;}
	.st8{opacity:0.6;}
	.st9{fill:#FFFFFF;}
	.st10{opacity:0.8;}
	.st11{fill:none;}
	.st12{opacity:0.5;}
</style>
<g>
	<g id="freepik--Floor--inject-157">
		<path class="st0" d="M436.9,436.4c0,0.1-93.1,0.3-207.9,0.3s-207.9-0.1-207.9-0.3s93.1-0.3,207.9-0.3S436.9,436.2,436.9,436.4z"/>
	</g>
	<g id="freepik--Character--inject-157">
		<path class="st1" d="M265.1,184.2l-4.4,6.2l-1.2,5l4.5,6.4l8.5-5.2l7.4-7.2c0.5-0.5,0.5-1.2,0.1-1.8l-1.2-1.7l0.1-0.4
			c0.4-1,0.1-2.1-0.8-2.7l-1.1-0.8l4-5.1c0.6-0.7,0.6-1.7,0.1-2.5l0,0l-10.2,7.8l-4.4-0.1L265.1,184.2z"/>
		<path class="st2" d="M279,185.9c-0.4,0.5-0.9,0.9-1.4,1.2c-0.5,0.4-1.1,0.7-1.7,1c-0.4,0.2-0.9,0.2-1.3,0.1c-0.5-0.1-0.9-0.5-1-1
			c-0.1-0.5,0-1,0.3-1.4c0.2-0.3,0.5-0.7,0.8-0.9l1.4-1.4c0.4-0.5,0.8-0.9,1.3-1.2c-0.3,0.5-0.6,1-1.1,1.5l-1.3,1.5
			c-0.5,0.6-1.1,1.2-0.9,1.9c0.1,0.3,0.3,0.6,0.7,0.6c0.3,0.1,0.7,0,1-0.1c0.6-0.3,1.2-0.5,1.7-0.9
			C277.9,186.4,278.5,186.1,279,185.9z"/>
		<path class="st2" d="M280.1,188.9c0,0-0.5,0.6-1.3,1.3c-0.5,0.5-1,0.9-1.6,1.2c-0.8,0.5-1.9,0.3-2.5-0.5c0,0,0,0,0,0
			c-0.2-0.5-0.1-1,0.2-1.4c0.2-0.4,0.5-0.7,0.7-1c0.4-0.5,0.9-1,1.5-1.4c0.5-0.4,1-0.7,1.6-0.9c-0.4,0.4-0.9,0.8-1.4,1.2
			c-0.5,0.4-0.9,0.9-1.4,1.4c-0.2,0.3-0.5,0.6-0.7,0.9c-0.2,0.3-0.3,0.7-0.1,1c0.2,0.3,0.5,0.5,0.8,0.5c0.3,0,0.7,0,1-0.2
			c0.6-0.3,1.1-0.7,1.6-1.1C279,189.5,279.5,189.2,280.1,188.9z"/>
		<path class="st2" d="M268,192.6c0.5-0.5,1-1.1,1.3-1.8c0.3-0.8,0.5-1.6,0.5-2.4c0-1-0.2-2-0.8-2.9l-0.4-0.5l0.6,0.1
			c0.6,0.1,1.1,0.1,1.7,0c0.8-0.1,1.6-0.4,2.2-0.9c0.6-0.4,0.9-1,1.1-1.7l0.2,0.2c-1.5-0.1-2.8-0.1-3.6-0.1c-0.5,0-0.9,0-1.4-0.2
			c0.5-0.1,0.9-0.1,1.4-0.1c0.9,0,2.1,0,3.6,0h0.2v0.2c-0.1,0.8-0.5,1.6-1.2,2.1c-0.7,0.5-1.5,0.9-2.4,1c-0.6,0.1-1.3,0.1-1.9,0
			l0.2-0.4c0.6,0.9,0.9,2,0.8,3.2c0,0.9-0.2,1.7-0.6,2.5c-0.3,0.5-0.6,1-1.1,1.3C268.3,192.5,268.1,192.6,268,192.6z"/>
		<path class="st0" d="M224.5,148.1c-0.2-0.4-0.2-0.9-0.2-1.3c0.1-0.5,0.2-1,0.5-1.5c0.4-0.6,0.9-1.1,1.4-1.6
			c0.6-0.6,1.2-1.3,1.6-2.1c1-2,1.1-4.3,0.3-6.3c-0.5-1.1-1-2.2-1.7-3.2c-0.6-1-1.2-2-1.6-3.1c-0.4-1-0.5-2.1-0.2-3.1
			c0.4-2,1.5-3.6,2-5.2c0.5-1.2,0.6-2.5,0.3-3.8c-0.1-0.4-0.2-0.7-0.4-1c-0.1-0.2-0.2-0.3-0.2-0.3c0.2,0.4,0.4,0.8,0.5,1.3
			c0.2,1.2,0.1,2.5-0.4,3.6c-0.5,1.5-1.7,3.1-2.2,5.2c-0.2,1.1-0.2,2.3,0.2,3.4c0.4,1.1,1,2.2,1.6,3.2c0.6,1,1.2,2,1.7,3.1
			c0.4,1,0.6,2.1,0.5,3.1c-0.1,1-0.3,1.9-0.7,2.8c-0.4,0.8-0.9,1.4-1.5,2.1c-0.5,0.5-1,1.1-1.3,1.7c-0.3,0.5-0.4,1-0.5,1.6
			c0,0.3,0,0.7,0.2,1C224.4,148,224.5,148.1,224.5,148.1z"/>
		<path class="st0" d="M196.2,140c-0.7,1.8-2.3,3-4.2,3.1c-1.9,0.1-3.7-0.8-4.8-2.4c-1.1-1.5-1.6-3.4-1.3-5.3
			c0.2-0.8,0.2-1.7,0.2-2.5c-0.2-1.2-1.1-2.1-1.5-3.3c-0.6-2.1,0.8-4.4,2.7-5.3c2-0.8,4.3-0.9,6.4-0.4"/>
		<path class="st0" d="M225.1,114.2c2,1.8,1.4,4.4,0.6,6.1s-1.8,3.6-1.7,5.5s1.3,3.7,1.9,5.6c0.8,2.4,0.8,5-0.2,7.3
			c-0.7,1.8-1.8,3.3-2.5,5s-0.9,3.9,0.3,5.4c-1.1-0.2-2-0.8-2.5-1.8c-0.5-0.9-0.7-2-0.7-3c-0.1-4,1.6-7.9,0.9-11.9
			c-0.4-2.3-1.6-4.4-1.6-6.7s1.3-4.4,2.1-6.6s1.3-4.8-0.1-6.6"/>
		<path class="st0" d="M220,106.9c2.4,0.1,4.6,1.3,6,3.3c1.3,2.1,1,4.8-0.8,6.4c-1.8,1.4-4.4,1.1-6.3,0c-1.5-0.8-2.6-2.1-3.2-3.6
			c-0.6-1.6-0.5-3.3,0.5-4.7c1-1.4,2.7-2,4.3-1.6"/>
		<path class="st0" d="M221.9,106.6c-1.3-2.8-3.8-4.9-6.8-5.7c-3-0.8-6.1-0.7-9,0.1c-2.9,0.8-5.8,1.9-8.5,3.2
			c-2.1,0.8-4,1.9-5.7,3.4c-1.5,1.6-2.7,3.5-3.2,5.6c-1.2,3.9-1.1,6.8,0.8,10.4c0.8,1.6,0.3,3.4,1.1,5.1s3.9,3.4,3,5"/>
		<path class="st1" d="M215.5,155.9c0.1-8,0.1-11,0.1-11s6.9-1.2,8.3-10.1c0.7-4.5,0.5-11.8,0.1-17.8c-0.4-5.4-3.9-12-9.3-11.4
			l-16.8,4.3c-1.6,0.2-2.9,1.6-2.8,3.2l0,0v42.9"/>
		<path class="st0" d="M222,123.1c0,0.6-0.5,1.1-1.1,1.2c-0.6,0.1-1.1-0.4-1.2-1c0-0.6,0.5-1.1,1.1-1.2
			C221.4,122.1,221.9,122.5,222,123.1z"/>
		<path class="st0" d="M222.4,120.2c-0.1,0.1-1-0.5-2.3-0.5s-2.1,0.6-2.3,0.5s0.1-0.3,0.5-0.6c0.5-0.4,1.2-0.6,1.8-0.6
			c0.6,0,1.3,0.2,1.8,0.6C222.4,119.9,222.5,120.2,222.4,120.2z"/>
		<path class="st0" d="M210.3,123.1c0,0.6-0.5,1.1-1.1,1.2c-0.6,0-1.1-0.4-1.2-1c0-0.6,0.5-1.1,1.1-1.2
			C209.7,122.1,210.2,122.5,210.3,123.1z"/>
		<path class="st0" d="M210.2,121.1c-0.1,0.1-1-0.5-2.3-0.5s-2.1,0.6-2.3,0.5s0.1-0.3,0.5-0.6c0.5-0.4,1.2-0.6,1.8-0.6
			c0.6,0,1.3,0.2,1.8,0.6C210.2,120.7,210.3,121,210.2,121.1z"/>
		<path class="st0" d="M214.8,130.3c0.6-0.2,1.3-0.3,2-0.4c0.3,0,0.6-0.1,0.7-0.3c0-0.3,0-0.7-0.2-0.9l-0.9-2.4
			c-0.9-2-1.6-4.2-2.1-6.3c1,2,1.9,4,2.6,6.1c0.3,0.9,0.6,1.7,0.9,2.4c0.2,0.4,0.3,0.8,0.2,1.2c-0.1,0.2-0.3,0.4-0.5,0.5
			c-0.2,0-0.4,0.1-0.5,0.1C216.1,130.3,215.4,130.3,214.8,130.3z"/>
		<path class="st2" d="M215.7,144.9c-4.2,0.1-8.4-1-12.1-3.2c0,0,3.1,6.2,12.1,5.3V144.9z"/>
		<path class="st0" d="M210.8,117.4c-0.1,0.3-1.4,0.2-2.8,0.4s-2.6,0.6-2.8,0.3c-0.1-0.1,0.1-0.5,0.6-0.8c1.3-0.8,2.9-1,4.3-0.5
			C210.6,117,210.8,117.3,210.8,117.4z"/>
		<path class="st0" d="M222,117.2c-0.2,0.3-1.1,0-2.1,0s-1.9,0.2-2.1-0.1s0.1-0.4,0.4-0.7c0.5-0.3,1.1-0.5,1.7-0.5
			c0.6,0,1.2,0.2,1.7,0.6C221.9,116.8,222.1,117.1,222,117.2z"/>
		<path class="st2" d="M214.2,133.1c-0.5-0.6-1.2-0.9-1.9-0.8c-0.5,0.1-1,0.3-1.3,0.7c-0.3,0.4-0.3,0.9-0.1,1.4
			c0.4,0.4,1,0.6,1.5,0.4c0.5-0.2,1-0.5,1.5-0.9c0.1-0.1,0.2-0.2,0.3-0.4C214.4,133.5,214.4,133.3,214.2,133.1"/>
		<path class="st0" d="M211.3,131.1c0.2,0,0.2,1.2,1.3,2.1s2.4,0.8,2.4,0.9s-0.3,0.2-0.9,0.3c-0.7,0-1.4-0.2-2-0.7
			c-0.6-0.4-0.9-1.1-1-1.8C211.1,131.4,211.2,131.1,211.3,131.1z"/>
		<path class="st0" d="M222.2,109c-0.4,2.8-4.9,3.3-7.8,2.8c-1.9,2.5-5,3.8-8.1,3.5c-0.4-0.1-0.8-0.1-1.2,0.1
			c-0.4,0.2-0.7,0.5-0.9,0.9c-1.2,1.6-2.9,2.7-4.9,3.1c-0.4,2.9-2.6,5.3-5.5,5.9c0,0-0.9-0.5-0.6-4.1c0.2-3.7,0.1-7.5-0.1-11.2
			l9.8-4.5l11.8-2.2C214.8,103.2,222.9,104.1,222.2,109z"/>
		<path class="st3" d="M189.6,124c0.1-0.9,0.3-1.7,0.6-2.5c0.4-0.9,1-1.7,1.8-2.4c1-0.8,2.2-1.3,3.5-1.5h0.1v-0.2
			c0.3-1.6,1.2-3,2.3-4.1c1.3-1.2,3.3-1.6,4.9-0.8l0.3,0.1l0.1-0.3l0.1-0.3c0.9-2.5,3.2-4.2,5.8-4.5c0.6-0.1,1.2,0,1.7,0.1
			c0.6,0.1,1.2,0.1,1.8-0.1c0.5-0.2,1-0.6,1.3-1c0.3-0.4,0.6-0.7,1-1c1.2-0.8,2.7-1.1,4.1-0.8c0.5,0.1,1,0.3,1.5,0.6
			c0,0-0.1-0.1-0.3-0.3c-0.3-0.2-0.7-0.4-1.1-0.5c-1.5-0.4-3.1-0.2-4.3,0.7c-0.8,0.5-1.3,1.6-2.3,1.9s-2.1-0.2-3.4,0
			c-2.8,0.3-5.2,2.2-6.2,4.8l-0.1,0.4l0.4-0.2c-1.9-0.8-4-0.5-5.5,0.9c-1.2,1.2-2.1,2.7-2.4,4.4l0.2-0.2c-1.4,0.2-2.6,0.7-3.7,1.6
			c-1.3,1.1-2.1,2.8-2.2,4.5C189.5,123.6,189.6,123.8,189.6,124z"/>
		<path class="st3" d="M205.1,114.5c0.2,0.1,0.5,0.2,0.8,0.2c0.7,0.1,1.4,0.2,2.1,0.1c2.4-0.2,4.6-1.4,6.1-3.3l-0.3,0.1l0.3,0.1
			c1.3,0.5,2.7,0.7,4,0.4c1.1-0.2,2.1-0.8,2.9-1.5c0.6-0.5,1-1.1,1.4-1.7c0.2-0.2,0.2-0.5,0.3-0.8c-0.5,0.8-1.2,1.6-1.9,2.2
			c-0.8,0.7-1.8,1.1-2.8,1.3c-1.3,0.2-2.5,0.1-3.7-0.4l-0.3-0.1l-0.2-0.1l-0.1,0.2c-1.4,1.8-3.5,3-5.7,3.3
			C207,114.5,206.1,114.5,205.1,114.5z"/>
		<path class="st3" d="M210.2,109.1c0,0.2,1.3,0,2.9,0.4s2.6,1,2.7,0.9c-0.7-0.8-1.6-1.2-2.6-1.4
			C212.2,108.7,211.2,108.8,210.2,109.1z"/>
		<path class="st3" d="M213.6,108.9c0.1,0.1,0.6-0.3,1.2-0.7s1.1-0.7,1-0.9s-0.7,0-1.3,0.4S213.5,108.8,213.6,108.9z"/>
		<path class="st3" d="M199.6,114.1c0.1,0.1,1.2-0.2,2.6-0.2s2.6,0.5,2.6,0.3C203.3,113.1,201.3,113.1,199.6,114.1L199.6,114.1z"/>
		<path class="st3" d="M197.2,118.9c1.2,0.2,2.5,0,3.6-0.5c1.2-0.3,2.3-1,3.1-1.9c-0.1-0.1-1.5,0.8-3.3,1.4S197.1,118.8,197.2,118.9
			z"/>
		<path class="st3" d="M191,122.3c0.7-0.5,1.5-0.9,2.3-1.3c0.9-0.2,1.7-0.4,2.6-0.5c-0.9-0.4-1.9-0.4-2.8,0
			C191.6,121.1,190.9,122.3,191,122.3z"/>
		<path class="st3" d="M191.2,109.4c0,0,0.1-0.3,0.5-0.8c0.5-0.7,1.1-1.2,1.8-1.6c2.4-1.2,5.1-1.8,7.9-1.8c2.7,0,5.4,0.4,8.1,1.1
			c2,0.5,3.3,0.9,3.3,0.8c-0.3-0.2-0.5-0.3-0.8-0.4c-0.6-0.2-1.4-0.5-2.4-0.8c-2.7-0.8-5.4-1.2-8.2-1.2c-2.8,0-5.5,0.7-8,2
			c-0.7,0.4-1.4,1.1-1.8,1.8C191.3,108.8,191.2,109.1,191.2,109.4z"/>
		<path class="st3" d="M190.5,114.3c0.4-0.9,0.8-1.7,1.4-2.5c1.4-1.8,3.4-3.2,5.7-3.8c2.3-0.6,4.6-0.8,6.9-0.5c1,0.1,2,0.2,2.9,0.2
			c-0.9-0.3-1.9-0.5-2.9-0.6c-2.4-0.3-4.8-0.2-7.1,0.4c-2.4,0.6-4.4,2.1-5.8,4.1c-0.4,0.6-0.7,1.3-0.9,2
			C190.5,113.8,190.5,114,190.5,114.3z"/>
		<path class="st3" d="M224.1,118.1c0.7-0.2,1.3-0.7,1.7-1.2c1.9-2.3,1.6-5.6-0.6-7.6c-0.5-0.4-1.1-0.7-1.7-1
			c-0.6-0.3-1.4-0.4-2.1-0.2c0.7,0.1,1.3,0.3,1.9,0.6c2.7,1.1,3.9,4.2,2.8,6.8c-0.2,0.4-0.4,0.8-0.6,1.1
			C225.1,117.1,224.6,117.6,224.1,118.1z"/>
		<path class="st0" d="M187.4,132.2c0.1-0.1-0.9-0.5-2.2-1.4c-0.8-0.5-1.4-1.2-1.9-2c-0.6-0.9-0.7-2.1-0.3-3.1
			c0.4-1,1.2-1.9,2.2-2.4c0.8-0.4,1.8-0.5,2.7-0.3c0.8,0.2,1.7,0.5,2.4,0.9c0,0-0.2-0.2-0.5-0.5c-0.6-0.4-1.2-0.6-1.8-0.8
			c-1-0.2-2-0.1-2.9,0.2c-1.2,0.5-2,1.5-2.5,2.6c-0.4,1.2-0.3,2.5,0.4,3.6c0.5,0.8,1.3,1.5,2.1,2c0.6,0.3,1.1,0.6,1.8,0.9
			C187.2,132.1,187.4,132.2,187.4,132.2z"/>
		<path class="st0" d="M187,132.2c-0.2,0.2-0.3,0.5-0.4,0.8c-0.3,0.7-0.5,1.5-0.7,2.3c-0.3,1.2-0.4,2.4-0.4,3.6
			c0.1,1.5,0.6,2.9,1.4,4.2c0.9,1.2,2.3,2,3.9,2.1c1.3,0.1,2.5-0.4,3.3-1.4c0.6-0.6,0.9-1.4,0.9-2.2c0-0.3,0-0.6-0.2-0.9
			c-0.1,0,0,0.3-0.1,0.9c-0.3,1.9-2,3.3-4,3.1c-1.4-0.2-2.6-0.9-3.5-2c-0.8-1.1-1.3-2.5-1.4-3.9c-0.1-1.2,0-2.3,0.2-3.4
			C186.7,133.5,187.1,132.3,187,132.2z"/>
		<path class="st0" d="M199.5,119.2c1.2,2.1,0.5,4.8-0.5,7s-2.3,4.4-2.2,6.9c0.1,4.1,3.9,7.4,3.6,11.5c-0.2,2.5-1.9,4.6-4.3,5.3
			c1.9-1.4,1.9-4.2,1-6.4s-4.7-7.7-5.4-10c-2.1-7.5-1.5-8.4,1-11.2"/>
		<path class="st3" d="M192.5,125.1c0,0.1,0.5,0.2,1.4,0c2.3-0.5,4.1-2.4,4.5-4.7c0.1-0.9,0-1.4,0-1.4c-0.1,0.4-0.3,0.9-0.3,1.3
			c-0.6,2.1-2.2,3.8-4.3,4.4C193.4,124.8,192.9,124.9,192.5,125.1z"/>
		<path class="st3" d="M196.9,147.4c0,0,0.1-0.1,0.3-0.2c0.2-0.2,0.4-0.4,0.6-0.7c0.6-1,0.9-2.1,0.9-3.3c0-0.8-0.3-1.6-0.7-2.3
			c-0.5-0.7-1.1-1.4-1.8-2c-0.7-0.6-1.3-1.4-1.8-2.2c-0.5-0.9-0.7-1.9-0.7-2.9c0-1,0.2-2,0.7-2.9c0.5-0.8,1-1.6,1.6-2.4
			c1-1.3,1.9-2.7,2.5-4.3c0.4-1.1,0.6-2.2,0.6-3.3c0-0.4,0-0.8-0.2-1.2c0,1.5-0.3,3-0.8,4.4c-0.7,1.5-1.5,2.9-2.6,4.1
			c-0.6,0.8-1.2,1.6-1.6,2.5c-0.5,1-0.8,2-0.7,3.1c0,1.1,0.3,2.2,0.8,3.1c0.5,0.9,1.1,1.7,1.9,2.3c0.7,0.5,1.3,1.2,1.8,1.9
			c0.4,0.6,0.6,1.3,0.7,2.1c0.1,1.1-0.1,2.2-0.6,3.1C197.2,147.1,196.9,147.4,196.9,147.4z"/>
		<path class="st3" d="M191.6,124.8c0,0-0.2,0.1-0.5,0.5c-0.4,0.5-0.8,1.1-1,1.7c-0.7,2.1-0.7,4.4,0.1,6.5c0.8,2,2,3.9,3.6,5.4
			c0.6,0.7,1.3,1.3,2,1.8c-0.5-0.7-1.1-1.4-1.7-2c-1.4-1.6-2.6-3.4-3.4-5.4c-0.7-2-0.8-4.1-0.2-6.2
			C190.7,126.4,191.1,125.6,191.6,124.8z"/>
		<path class="st4" d="M259.7,190.6l-7.5,3.6l-9.5,5.1c-3.9-11.5-3.8-23.8-5.2-28.5c-4.4-14.6-12.6-15.9-12.6-15.9v0.1
			c-0.2-0.2-0.5-0.3-0.8-0.4l-6.9-2.1l-0.2-3.8l-23.4,0.6l-0.2,4.7l-7.4,1.2c-4.6,0.7-8.6,3.6-10.8,7.8c-0.1,0.3-0.3,0.6-0.4,0.9
			c-4.8,11.8-15.4,37.8-16.2,40.6c-2.8,9.6,7.4,18.1,16.3,16.1c1.8-0.6,3.5-1.2,5.2-2c0,2.4,0.9,4.7,2.7,6.3
			c0.7,0.7,1.6,1.1,2.6,1.3l42.9,0.2c1.2,0,2.4-1,3.4-2.1c2,0.8,4.2,1,6.2,0.4l0,0c3.7-0.8,7.6-2.8,8.5-3.7l21.8-20.5L259.7,190.6z
			 M184.5,197.1l-0.4,1.9l-2.4,0.2l2.8-9.4v6.8C184.6,196.7,184.6,196.9,184.5,197.1z"/>
		<path class="st0" d="M195.7,198.2l-1,0.1l-2.9,0.3l-9.9,0.8h-0.4l0.1-0.4c0.3-0.9,0.6-1.9,0.9-2.9c1.3-4.5,2.5-8.6,3.4-11.5
			c0.5-1.5,0.9-2.6,1.1-3.5c0.1-0.4,0.3-0.8,0.5-1.2c-0.1,0.4-0.2,0.9-0.3,1.3c-0.3,0.9-0.6,2.1-1,3.5c-0.8,3-1.9,7.1-3.3,11.6
			c-0.3,1-0.6,2-0.9,2.9l-0.3-0.3c4-0.3,7.4-0.5,9.9-0.6S195.7,198.1,195.7,198.2z"/>
		<path class="st0" d="M200.5,209c-0.3,0.2-0.6,0.4-1,0.6l-2.9,1.5c-2.4,1.2-5.7,3-9.4,4.9c-3.2,1.6-6.5,2.9-9.9,3.9
			c-1.3,0.3-2.4,0.6-3.1,0.7c-0.4,0.1-0.8,0.2-1.2,0.2c0-0.1,1.6-0.5,4.2-1.3c3.4-1,6.6-2.4,9.8-4c3.7-1.9,7-3.6,9.5-4.8
			c1.2-0.6,2.2-1,2.9-1.3C199.7,209.2,200.1,209.1,200.5,209z"/>
		<path class="st0" d="M227.4,195.4c-0.1-0.1,0.8-1.3,1.7-3.6c1.1-3,1.5-6.2,1.1-9.4c-0.3-1.7-0.6-3.5-1.1-5.2
			c-0.4-1.6-0.7-3-0.9-4.2c-0.1-1-0.2-2-0.2-2.9c0-0.4,0-0.7,0.1-1.1c0.1,1.3,0.2,2.7,0.4,4c0.2,1.2,0.6,2.6,1,4.2
			c0.5,1.7,0.9,3.5,1.1,5.2c0.4,3.2,0,6.5-1.3,9.6c-0.4,0.9-0.8,1.8-1.4,2.6C227.8,194.9,227.6,195.2,227.4,195.4z"/>
		<path class="st0" d="M227.6,196.1c-0.5,1.5-0.7,3.1-0.6,4.7c0.2,1.7,0.6,3.4,1.3,5c0.8,1.8,1.8,3.7,2.8,5.8c1,2,1.6,4.1,1.8,6.2
			c0.2,1.8-0.2,3.6-1,5.2c-0.5,1.1-1.4,2-2.4,2.7c-0.3,0.2-0.6,0.3-0.9,0.4c-0.2,0.1-0.3,0.1-0.3,0.1s0.4-0.2,1.1-0.7
			c0.9-0.7,1.7-1.6,2.2-2.7c0.7-1.6,1-3.3,0.8-5c-0.3-2.1-0.9-4.2-1.8-6.1c-0.9-2.1-2-4-2.7-5.9c-0.7-1.6-1.1-3.4-1.3-5.2
			c-0.1-1.2,0.1-2.4,0.4-3.6c0.1-0.3,0.2-0.6,0.4-0.9C227.5,196.2,227.6,196.1,227.6,196.1z"/>
		<path class="st0" d="M227.7,157.4c0.4,1.2,0.5,2.5,0.4,3.8c0,1.3-0.2,2.5-0.7,3.7c0-1.2,0-2.5,0.2-3.7
			C227.5,159.9,227.6,158.7,227.7,157.4z"/>
		<path class="st0" d="M239.5,212.5c-0.3-0.6-0.4-1.3-0.4-2c-0.2-1.6-0.1-3.3,0.3-4.9c0.3-1.6,0.9-3.2,1.7-4.6
			c0.3-0.6,0.7-1.2,1.2-1.6C240,203.3,239.1,207.9,239.5,212.5z"/>
		<path class="st0" d="M188.3,164.9c-0.1,0-0.1-0.6-0.5-1.5c-0.6-1.2-1.5-2.2-2.5-2.9c-1-0.8-2.2-1.4-3.5-1.6
			c-0.2,0-0.4-0.1-0.7-0.1c-0.2,0-0.4,0-0.5,0s-0.4,0.1-0.4,0.1s0.1-0.1,0.4-0.3c0.2-0.1,0.4-0.1,0.5-0.1c0.2,0,0.5,0,0.7,0
			c1.4,0.2,2.7,0.7,3.8,1.6c1.1,0.8,2,1.9,2.6,3.2C188.4,163.8,188.4,164.4,188.3,164.9z"/>
		<g class="st5">
			<path d="M187.6,196.2c-0.9-4-1.3-8.2-1.2-12.3l-0.4,0.8l-1.4,5l-0.4,9.3l8.3-0.4C191.1,197.4,189.4,196.5,187.6,196.2z"/>
		</g>
		<path class="st0" d="M216.9,153.1c0.1,0.3,0.1,0.7,0,1c-0.3,0.9-1,1.6-1.9,1.9c-2.9,0.9-5.8,1.3-8.8,1.3c-3,0-6-0.5-8.8-1.4
			c-0.9-0.3-1.7-0.6-2.5-0.9c-0.3-0.1-0.6-0.3-0.9-0.5c0-0.1,1.3,0.4,3.5,1c2.8,0.8,5.8,1.2,8.7,1.2c2.9,0,5.9-0.4,8.7-1.1
			c0.8-0.2,1.5-0.8,1.9-1.6C216.8,153.7,216.9,153.4,216.9,153.1z"/>
		<path class="st6" d="M176.8,184.7c-0.6-0.8-1.1-1.8-1.4-2.8c-0.5-0.9-0.8-2-0.9-3c0.6,0.8,1.1,1.8,1.4,2.8
			C176.3,182.6,176.6,183.6,176.8,184.7z"/>
		<path class="st6" d="M172,198.1c-1,0.6-2.2,1-3.3,1.3c-1.1,0.4-2.3,0.7-3.5,0.8c1-0.6,2.2-1,3.3-1.3
			C169.6,198.5,170.8,198.2,172,198.1z"/>
		<path class="st6" d="M170.9,211.8c-0.2-1-0.3-2-0.2-3c-0.1-1,0.1-2,0.3-3c0.2,1,0.3,2,0.2,3C171.3,209.8,171.1,210.8,170.9,211.8z
			"/>
		<path class="st6" d="M187.5,207.7c-0.8-0.6-1.6-1.2-2.3-1.9c-0.8-0.6-1.5-1.3-2.2-2.1C184.8,204.6,186.3,206,187.5,207.7
			L187.5,207.7z"/>
		<path class="st6" d="M199.2,200.7c0.1,0.1-0.5,0.9-1.4,1.9s-1.7,1.6-1.8,1.5s0.5-0.9,1.4-1.9S199.1,200.6,199.2,200.7z"/>
		<path class="st6" d="M182.8,166.9c-1.5,1.4-3.3,2.5-5.2,3.3C179.1,168.9,180.9,167.7,182.8,166.9z"/>
		<path class="st6" d="M196.1,163.8c-0.6-0.9-1-1.9-1.4-2.9c-0.5-1-0.9-2-1.1-3c0.7,0.8,1.3,1.8,1.6,2.8
			C195.7,161.7,196,162.7,196.1,163.8z"/>
		<path class="st6" d="M197.3,180.5c-1.1-0.3-2.2-0.9-3.1-1.6c-1-0.6-1.9-1.4-2.6-2.3c1,0.5,2,1.1,2.9,1.9
			C195.5,179,196.5,179.7,197.3,180.5z"/>
		<path class="st6" d="M206.9,188.6c-1.2,0.9-2.4,1.7-3.8,2.3c-1.3,0.8-2.6,1.4-4,1.8c1.2-0.9,2.4-1.7,3.8-2.3
			C204.1,189.6,205.5,189,206.9,188.6z"/>
		<path class="st6" d="M211.3,178.9c-0.5-0.8-0.8-1.7-0.9-2.7c-0.3-0.9-0.4-1.9-0.4-2.8c0.5,0.8,0.8,1.7,0.9,2.7
			C211.2,177,211.4,177.9,211.3,178.9z"/>
		<path class="st6" d="M223.4,188.1c-0.7-0.8-1.3-1.7-1.7-2.7c-0.6-0.9-1-1.9-1.2-2.9c0.7,0.8,1.3,1.7,1.7,2.7
			C222.8,186,223.2,187,223.4,188.1z"/>
		<path class="st6" d="M221.7,161.6c-0.7,0.8-1.5,1.5-2.4,2.1c-0.8,0.7-1.7,1.2-2.7,1.6C218,163.8,219.8,162.5,221.7,161.6
			L221.7,161.6z"/>
		<path class="st6" d="M210.4,162.4c-0.1,0.1-0.6-0.6-1-1.6s-0.7-1.7-0.6-1.8s0.6,0.6,1.1,1.6S210.5,162.3,210.4,162.4z"/>
		<path class="st6" d="M203.6,152.4c0,0.1-0.8,0.3-1.8,0.3s-1.8,0-1.8-0.2s0.8-0.3,1.8-0.3S203.6,152.2,203.6,152.4z"/>
		<path class="st6" d="M211.5,152.5c-0.1-0.1,0.2-0.7,0.8-1.4s1.1-1.2,1.2-1.1s-0.2,0.7-0.8,1.4S211.6,152.6,211.5,152.5z"/>
		<path class="st6" d="M233.3,173c-0.4-1-0.6-2.1-0.6-3.1c-0.2-1-0.2-2.1-0.1-3.2C233.2,168.8,233.4,170.9,233.3,173z"/>
		<path class="st6" d="M235.9,185.4c-0.1,0.1-1.1-0.7-2-1.9c-0.7-0.7-1.1-1.5-1.4-2.4C233.8,182.5,234.9,183.9,235.9,185.4
			L235.9,185.4z"/>
		<path class="st6" d="M232.3,198.2c0.3-1,0.7-1.9,1.2-2.8c0.4-0.9,1-1.8,1.7-2.5c-0.2,1-0.7,1.9-1.2,2.8
			C233.6,196.6,233,197.5,232.3,198.2z"/>
		<path class="st6" d="M236.6,216.7c-0.7-1-1.2-2.1-1.5-3.3c-0.5-1.1-0.8-2.3-1-3.5c0.7,1,1.2,2.1,1.5,3.3
			C236.1,214.4,236.5,215.5,236.6,216.7z"/>
		<path class="st6" d="M249.6,210c-1.7-0.4-3.4-1.2-4.8-2.3C246.5,208.2,248.2,208.9,249.6,210z"/>
		<path class="st6" d="M256.9,203.1c-0.2-1.1-0.2-2.1,0.1-3.2c0.1-1.1,0.5-2.1,1.1-3c-0.1,1-0.3,2.1-0.6,3.1
			C257.4,201,257.2,202,256.9,203.1z"/>
		<path class="st6" d="M214,198.6c0.2-1,0.5-2,1-2.9c0.4-1,0.9-1.9,1.5-2.6c-0.2,1-0.6,2-1.1,2.9C215.1,196.9,214.6,197.8,214,198.6
			z"/>
		<path class="st6" d="M193.3,222.3c-0.8-0.6-1.4-1.4-1.9-2.2c-0.6-0.7-1.1-1.6-1.5-2.5c0.8,0.6,1.4,1.4,1.9,2.2
			C192.4,220.5,192.9,221.3,193.3,222.3z"/>
		<path class="st6" d="M203.1,219.7c0.2-1.1,0.5-2.2,1-3.2c0.3-1.1,0.8-2.1,1.4-3C205.1,215.7,204.2,217.7,203.1,219.7L203.1,219.7z
			"/>
		<path class="st6" d="M218.9,222.4c-2.2-0.4-4.3-1.6-5.8-3.2c1,0.5,2,1,2.9,1.6C217,221.3,218,221.8,218.9,222.4z"/>
		<path class="st6" d="M225.4,212.2c-1.1-2-1.6-4.3-1.5-6.6c0.4,1.1,0.6,2.2,0.8,3.3C225,210,225.3,211.1,225.4,212.2z"/>
		<g class="st5">
			<path d="M180.3,220.4c2.3,1.1,5,1.4,7.4,0.7c2.5-0.7,4.8-1.8,6.9-3.2c1.2-0.8,2.6-1.5,4-1.9c1.6-0.2,3.3-0.1,4.8,0.3
				c3.8,0.8,7.7,1.4,11.4,0.4s7.2-3.8,7.6-7.6c0.2-1.5-0.3-3.4-1.8-3.9c-1-0.4-2-0.7-3-0.9c-15.9,1.3-37.5,14.2-37.5,14.6"/>
		</g>
		<polygon class="st1" points="252.2,400.6 256.2,431.9 242.1,432.8 234.8,402.8 		"/>
		<path class="st4" d="M240.7,426.8c0,0,10.8,5.7,14.8-1l1.6,2.8l8.5,20.2c0.6,1.3,0.1,2.8-1.1,3.6c-0.9,0.5-2.1,0.5-3-0.2
			c-4.6-3.3-21.4-15.6-21.5-17.6l-0.6-5.2C239.3,428.4,239.8,427.3,240.7,426.8L240.7,426.8z"/>
		<path class="st7" d="M264.1,452.5l-24.3-19.7l0.2,1.1c0.1,1.2,0.7,1.6,1.3,2.4c2,2.1,7.5,6.6,20.2,15.9
			C262.2,452.7,263.2,452.8,264.1,452.5L264.1,452.5z"/>
		<g class="st8">
			<path class="st9" d="M242.4,429c0.7,0.4,1.1,1.3,0.8,2.1c-0.4,0.8-1.3,1.1-2.1,0.8c-0.8-0.4-1.1-1.4-0.8-2.2
				c0.5-0.8,1.5-1,2.2-0.5"/>
		</g>
		<path class="st0" d="M256.4,441.7c0.2,0,0.6-1.4,2-2.4c0.9-0.5,1.9-0.9,3-1c0-0.1-0.4-0.2-1-0.2c-0.8,0-1.6,0.3-2.3,0.8
			c-0.7,0.5-1.2,1.1-1.5,1.9C256.3,441.3,256.3,441.7,256.4,441.7z"/>
		<path class="st0" d="M258.8,445c0.1,0.1,0.9-0.9,2.2-1.5c0.8-0.3,1.7-0.5,2.5-0.7c-0.9-0.4-1.9-0.3-2.8,0.2
			C259.2,443.7,258.6,445,258.8,445z"/>
		<path class="st0" d="M252.2,437.7c1-0.9,2.1-1.7,3.2-2.5c2-1.1,3.8-1.3,3.8-1.5C256.3,433.6,253.6,435.1,252.2,437.7L252.2,437.7z
			"/>
		<path class="st0" d="M250.9,431.4c0.1,0.1,1.5-0.7,3.4-1s3.5-0.1,3.5-0.3C255.4,429.2,252.8,429.7,250.9,431.4z"/>
		<path class="st0" d="M255.3,430.1c0-0.4-0.1-0.7-0.3-1c-0.4-0.9-0.9-1.6-1.6-2.3c-0.5-0.5-1.1-0.9-1.7-1c-0.5,0-0.9,0.2-1.1,0.6
			c-0.2,0.4-0.2,0.9,0,1.3c0.7,1.7,2.5,2.7,4.4,2.3c1.8-0.4,3.1-1.8,3.5-3.6c0.1-0.4,0-0.9-0.3-1.3c-0.3-0.3-0.8-0.4-1.3-0.2
			c-0.6,0.3-1.1,0.8-1.4,1.4c-0.5,0.8-0.9,1.6-1.1,2.5c-0.1,0.3-0.1,0.7-0.1,1c0.3-1.2,0.9-2.3,1.5-3.3c0.3-0.5,0.7-0.9,1.2-1.2
			c0.2-0.1,0.5-0.1,0.7,0.1c0.2,0.2,0.2,0.5,0.2,0.8c-0.3,1.5-1.5,2.7-3,3.1c-1.5,0.3-3.1-0.5-3.7-1.9c-0.1-0.3-0.1-0.6,0-0.9
			c0.1-0.2,0.4-0.4,0.6-0.4c0.6,0.1,1.1,0.4,1.5,0.8C254.1,428,254.8,429,255.3,430.1z"/>
		<polygon class="st1" points="208.6,399.3 209,431.3 191.7,430.7 189.2,399.6 		"/>
		<path class="st4" d="M191.4,426.8L191.4,426.8c0,0-19.2,7.2-19.4,10.7l37.2-0.1v-9.7l-1.4,0.3
			C202.4,429.3,196.6,428.9,191.4,426.8z"/>
		<g class="st8">
			<path class="st9" d="M204.9,429.5c0.7,0.2,1.1,1,1,1.7c-0.2,0.8-0.9,1.2-1.7,1.1c-0.8-0.2-1.3-1-1.1-1.8
				C203.4,429.7,204.2,429.3,204.9,429.5"/>
		</g>
		<g class="st8">
			<path class="st9" d="M209.2,437.4v-3l-35.7,1.2c0,0-1.6,0.7-1.5,1.9L209.2,437.4z"/>
		</g>
		<path class="st0" d="M190.8,426.6c0,0.2,0.9,0.3,1.8,0.8s1.4,1.4,1.5,1.3s-0.1-1.1-1.2-1.8S190.8,426.4,190.8,426.6z"/>
		<path class="st0" d="M186.9,428.2c0,0.2,0.7,0.5,1.4,1.2s0.8,1.6,1,1.6s0.3-1-0.5-2S186.9,428,186.9,428.2z"/>
		<path class="st0" d="M184.7,432.9c0.2,0,0.4-0.9-0.1-1.9s-1.3-1.4-1.4-1.2s0.4,0.7,0.8,1.5S184.5,432.9,184.7,432.9z"/>
		<path class="st0" d="M191.2,426.5c0.6,0.2,1.3,0.2,1.9,0c0.7-0.1,1.3-0.3,1.9-0.6c0.4-0.2,0.7-0.4,1.1-0.6
			c0.2-0.1,0.4-0.3,0.6-0.4c0.3-0.3,0.3-0.7,0.1-1c-0.2-0.3-0.5-0.4-0.8-0.4c-0.2,0-0.5,0-0.7,0.1c-0.4,0.1-0.8,0.2-1.1,0.4
			c-0.6,0.3-1.2,0.7-1.7,1.1c-0.9,0.8-1.1,1.5-1.1,1.5s0.5-0.5,1.4-1.2c0.5-0.4,1.1-0.7,1.7-0.9c0.3-0.1,0.7-0.2,1.1-0.3
			c0.4-0.1,0.7-0.1,0.8,0.1s0,0.1,0,0.2c-0.1,0.1-0.3,0.2-0.4,0.3c-0.3,0.2-0.7,0.4-1,0.6c-0.6,0.3-1.2,0.5-1.8,0.7
			C192.4,426.1,191.8,426.3,191.2,426.5z"/>
		<path class="st0" d="M191.5,426.8c0.1,0,0.4-0.6,0.5-1.8c0-0.7-0.1-1.4-0.2-2c-0.1-0.4-0.3-0.8-0.5-1.1c-0.2-0.5-0.7-0.9-1.2-0.9
			c-0.3,0-0.6,0.2-0.8,0.5c-0.1,0.2-0.2,0.4-0.2,0.7c-0.2,1.1,0.1,2.3,0.8,3.2c0.7,1,1.5,1.2,1.5,1.1s-0.6-0.4-1.1-1.4
			c-0.3-0.5-0.5-1.1-0.6-1.8c0-0.4,0-0.7,0-1.1c0.1-0.4,0.2-0.7,0.4-0.7s0.5,0.3,0.6,0.6c0.2,0.3,0.3,0.7,0.5,1
			c0.2,0.6,0.3,1.2,0.4,1.9C191.6,426,191.4,426.7,191.5,426.8z"/>
		<path class="st0" d="M242.4,262.6c-0.8-17.3-14.1-36.3-14.1-36.3l-20.5-1.7v-0.1h-0.4l0,0l-23.6,1.9c0,0-10.4,22.6-7.7,49.6
			s11.8,126.1,11.8,126.1h21.6l0.5-143.5l21.9,148.4h21.6C253.5,407.1,243.1,280,242.4,262.6z"/>
		<polygon class="st3" points="185.3,399.8 188.3,414.4 210.3,414.3 211.7,400.9 		"/>
		<polygon class="st3" points="230.4,404.5 235.2,420.9 255.7,418.1 254.7,399.5 		"/>
		<path class="st3" d="M210.9,258.6c0,0-0.1,0-0.3,0c-0.3-0.1-0.6-0.2-0.9-0.4c-0.9-0.8-1.4-1.8-1.6-2.9c-0.5-2.8-1-6.6-1.4-10.9
			s-0.8-8.1-1-10.9c-0.1-1.4-0.2-2.5-0.2-3.3c-0.1-0.4-0.1-0.8,0-1.2c0.1,0.4,0.2,0.8,0.2,1.2c0.1,0.9,0.2,2,0.4,3.3
			c0.3,2.9,0.7,6.7,1.1,10.9s0.9,8.1,1.3,10.9c0.1,1.1,0.6,2.1,1.4,2.9C210.1,258.3,210.5,258.5,210.9,258.6z"/>
		<path class="st3" d="M209.1,227.9c0,0,0.2-0.1,0.5-0.2c0.5-0.1,1,0.1,1.4,0.3c0.7,0.4,1.1,1.1,1.3,1.9c0.1,0.5,0,1-0.2,1.4
			c-0.3,0.5-0.7,0.8-1.1,1c-0.9,0.4-2,0.2-2.7-0.6c-0.5-0.6-0.7-1.4-0.4-2.2c0.1-0.5,0.4-0.9,0.8-1.3
			C208.8,227.9,209,227.9,209.1,227.9c-0.5,0.5-0.8,1.1-0.9,1.7c-0.1,0.6,0,1.3,0.4,1.8c0.6,0.5,1.4,0.7,2.1,0.4
			c0.8-0.2,1.2-1,1.1-1.8c-0.1-0.7-0.5-1.2-1-1.6C210.3,228,209.7,227.9,209.1,227.9z"/>
		<path class="st3" d="M198,197.4l-2.1-10.2c-0.1-0.7,0.3-1.4,1-1.5c0.1,0,0.2,0,0.3,0l26.3,0.1c0.7,0,1.3,0.6,1.3,1.3
			c0,0,0,0.1,0,0.1l-2.7,23.3c-0.1,0.9-0.9,1.6-1.8,1.6l-17.2-0.1c-0.8,0-1.5-0.6-1.8-1.4L198,197.4z"/>
		<path class="st1" d="M195.7,192.1L195.7,192.1c1.1,0,2.2,0.7,2.6,1.8c0.4,1.1,1.1,2.4,1.8,2.8c1.3,0.7,3.5,1.3,4.7,0.7
			s5.9-4.8,6.7-4.3s1.5,1.5,0.7,2.5s-5.2,3.8-4.4,4.7s10-3.2,11.4-2.8s2.2,1.2,1.4,1.8s-7.1,2.9-7.4,3.7c0,0,9.4-2.5,9.8-1.9
			s0.9,1.5,0,1.9s-9,2.5-9.8,2.8c-1.2,0.5-2.4,0.8-3.6,1.1c-0.2,0-2.1,0.6-3.8,1.2c-1.9,0.7-4,0.6-5.9-0.1l-1-0.4
			c-1.5-0.6-2.4-2.1-2.3-3.7l0.2-3.2l-1-2.6L195.7,192.1z"/>
		<path class="st6" d="M211.4,189.6c0,0.6-0.4,1-1,1c-0.6,0-1-0.4-1-1c0-0.6,0.4-1,1-1c0,0,0,0,0,0
			C211,188.6,211.4,189.1,211.4,189.6z"/>
	</g>
	<g id="freepik--Data--inject-157">
		<path class="st4" d="M4.7,302.6l0.4-0.3l1.2-0.9l4.7-3.5l17.8-13l61.8-44.9l-0.1,0.3c-5.4-15-8.1-30.8-8.1-46.8
			c0-5.3,0.3-10.5,0.8-15.8c0.6-5.1,1.4-10.1,2.6-15.1c2.1-9.4,5.2-18.6,9.3-27.4c11.7-24.9,30.5-45.9,54.1-60.1l4.5-2.6
			c1.3-0.7,2.5-1.3,3.4-1.8l2.1-1c0.5-0.2,0.7-0.3,0.7-0.3s-0.2,0.1-0.7,0.4l-2,1.1c-0.9,0.5-2.1,1-3.4,1.8l-4.5,2.6
			c-23.4,14.4-42.1,35.3-53.8,60.1c-4,8.7-7.1,17.9-9.2,27.3c-1.1,5-2,10-2.5,15c-0.6,5.2-0.8,10.4-0.8,15.7c0,15.9,2.7,31.6,8,46.6
			l0.1,0.2l-0.2,0.1L29,285.2l-17.9,12.9c-2.1,1.5-3.7,2.6-4.8,3.4l-1.2,0.9L4.7,302.6z"/>
		<path class="st4" d="M119.6,41.6c0,0-0.2,0.1-0.6,0.3l-1.7,0.8l-2.7,1.3c-1.1,0.5-2.3,1.2-3.7,2c-7.7,4.3-14.9,9.4-21.6,15.2
			c-4.6,4-8.9,8.3-12.9,12.9C72,79.5,67.8,85,64,90.9c-8.7,13.5-15.3,28.2-19.6,43.6c-4.3,15.4-6.9,31.3-7.6,47.3
			c-0.7,13.1-0.4,26.1,0.9,39.1c0.8,8.8,2.5,17.5,5.1,26c0.9,3,1.8,5.3,2.4,6.8l0.7,1.7l0.2,0.6c0,0-0.1-0.2-0.3-0.6l-0.8-1.8
			c-0.6-1.5-1.5-3.8-2.5-6.8c-2.6-8.4-4.4-17.1-5.3-25.9c-1.4-13-1.7-26.2-1-39.2c0.7-16.1,3.3-32,7.6-47.4
			c4.3-15.5,11-30.2,19.7-43.8c3.8-5.9,8.1-11.5,12.7-16.7c4-4.6,8.4-8.9,13-12.9c6.7-5.8,14-10.9,21.7-15.1
			c1.4-0.7,2.6-1.4,3.7-1.9l2.8-1.3l1.7-0.8L119.6,41.6z"/>
		<path class="st4" d="M152.1,0c0,0,0.1,0,0.1,0.2l0.4,0.5l1.3,2l4.9,7.7c4.1,6.6,10,16,16.9,26.9l-0.3-0.1c9.4-2.6,19-4.4,28.8-5.4
			c9.5-1,19-1.3,28.5-0.8c7.8,0.4,15.5,1.3,23.2,2.8l2.4,0.4l2.2,0.5l4.1,0.9c2.5,0.7,4.8,1.2,6.5,1.7l4.1,1.2l1.1,0.3
			c0.1,0,0.2,0.1,0.4,0.1c-0.1,0-0.2,0-0.4-0.1l-1.1-0.3l-4.1-1.1c-1.8-0.5-4-1-6.5-1.6l-4.1-0.9l-2.2-0.5l-2.4-0.4
			c-7.6-1.4-15.4-2.3-23.1-2.7c-9.5-0.5-19-0.2-28.5,0.8c-9.7,1-19.3,2.8-28.7,5.3h-0.2l-0.1-0.2c-6.8-11-12.6-20.4-16.7-27
			c-2-3.3-3.6-5.9-4.7-7.7l-1.2-2.1l-0.3-0.5C152.1,0.1,152.1,0,152.1,0z"/>
		<path class="st4" d="M405.9,133.9c-0.1-0.1-0.1-0.2-0.1-0.3l-0.3-0.9c-0.2-0.8-0.6-1.9-1-3.2s-0.9-3.1-1.6-5.1l-1.1-3.2
			c-0.2-0.6-0.4-1.1-0.6-1.7l-0.7-1.8c-1-2.4-2-5.2-3.3-8c-0.6-1.4-1.2-2.9-2-4.4l-2.3-4.5c-3.5-6.7-7.5-13.1-11.9-19.3
			c-4.5-6.1-9.4-11.9-14.6-17.3c-1.2-1.2-2.4-2.4-3.6-3.6s-2.4-2.2-3.5-3.3c-2.2-2.2-4.5-4-6.5-5.7l-1.5-1.3l-1.4-1.1l-2.6-2.1
			c-1.6-1.3-3.1-2.4-4.3-3.3l-2.7-2l-0.7-0.5l-0.2-0.2c0,0,0.1,0,0.3,0.2l0.7,0.5l2.8,2c1.2,0.9,2.7,1.9,4.3,3.2l2.6,2l1.5,1.1
			l1.5,1.2c2,1.7,4.3,3.5,6.5,5.7c1.1,1.1,2.4,2.1,3.5,3.3l3.6,3.6c5.3,5.4,10.2,11.2,14.7,17.3c4.4,6.2,8.4,12.6,11.9,19.3l2.3,4.6
			c0.7,1.5,1.3,3,2,4.4c1.3,2.8,2.3,5.6,3.2,8c0.2,0.6,0.5,1.2,0.7,1.8s0.4,1.2,0.6,1.7c0.4,1.1,0.7,2.2,1,3.2
			c0.7,2,1.1,3.7,1.5,5.2s0.7,2.5,0.9,3.3c0.1,0.4,0.2,0.6,0.2,0.9L405.9,133.9z"/>
		<path class="st4" d="M368.4,411.5c0,0-0.1-0.1-0.2-0.3l-0.4-0.8c-0.4-0.8-0.9-1.9-1.6-3.3c-1.4-2.9-3.4-7.1-5.9-12.4
			c-5-10.6-12.1-25.5-20.4-42.9l-0.1-0.2l0.2-0.1c7.7-5.8,15-12.2,21.7-19.2c1.2-1.1,2.3-2.4,3.4-3.5l3.3-3.6l3.1-3.6
			c1-1.2,2-2.4,3-3.6c1.9-2.5,3.8-4.8,5.5-7.2l2.6-3.6c0.8-1.2,1.6-2.4,2.4-3.6c5.6-8.4,10.5-17.2,14.7-26.4
			c1.8-3.9,3.3-7.5,4.5-10.7s2.2-6,3-8.2s1.3-4,1.7-5.3c0.2-0.6,0.4-1,0.5-1.4c0-0.2,0.1-0.3,0.2-0.5c0,0,0,0.2-0.1,0.5
			s-0.2,0.8-0.4,1.4c-0.4,1.2-0.9,3-1.6,5.3s-1.7,5.1-2.9,8.3s-2.7,6.8-4.5,10.7c-4.2,9.2-9.1,18.1-14.6,26.5
			c-0.8,1.2-1.6,2.4-2.4,3.6l-2.6,3.6c-1.7,2.5-3.6,4.8-5.5,7.3c-0.9,1.2-2,2.4-3,3.6s-2,2.4-3.1,3.6l-3.3,3.6
			c-1.1,1.2-2.2,2.4-3.4,3.6c-6.8,6.9-14.1,13.4-21.8,19.2l0.1-0.3l20.2,43l5.8,12.4c0.7,1.4,1.2,2.5,1.5,3.3l0.4,0.9L368.4,411.5z"
			/>
		<g class="st10">
			<path class="st9" d="M4.7,302.6l0.4-0.3l1.2-0.9l4.7-3.5l17.8-13l61.8-44.9l-0.1,0.3c-5.4-15-8.1-30.8-8.1-46.8
				c0-5.3,0.3-10.5,0.8-15.8c0.6-5.1,1.4-10.1,2.6-15.1c2.1-9.4,5.2-18.6,9.3-27.4c11.7-24.9,30.5-45.9,54.1-60.1l4.5-2.6
				c1.3-0.7,2.5-1.3,3.4-1.8l2.1-1c0.5-0.2,0.7-0.3,0.7-0.3s-0.2,0.1-0.7,0.4l-2,1.1c-0.9,0.5-2.1,1-3.4,1.8l-4.5,2.6
				c-23.4,14.4-42.1,35.3-53.8,60.1c-4,8.7-7.1,17.9-9.2,27.3c-1.1,5-2,10-2.5,15c-0.6,5.2-0.8,10.4-0.8,15.7
				c0,15.9,2.7,31.6,8,46.6l0.1,0.2l-0.2,0.1L29,285.2l-17.9,12.9c-2.1,1.5-3.7,2.6-4.8,3.4l-1.2,0.9L4.7,302.6z"/>
			<path class="st9" d="M119.6,41.6c0,0-0.2,0.1-0.6,0.3l-1.7,0.8l-2.7,1.3c-1.1,0.5-2.3,1.2-3.7,2c-7.7,4.3-14.9,9.4-21.6,15.2
				c-4.6,4-8.9,8.3-12.9,12.9C72,79.5,67.8,85,64,90.9c-8.7,13.5-15.3,28.2-19.6,43.6c-4.3,15.4-6.9,31.3-7.6,47.3
				c-0.7,13.1-0.4,26.1,0.9,39.1c0.8,8.8,2.5,17.5,5.1,26c0.9,3,1.8,5.3,2.4,6.8l0.7,1.7l0.2,0.6c0,0-0.1-0.2-0.3-0.6l-0.8-1.8
				c-0.6-1.5-1.5-3.8-2.5-6.8c-2.6-8.4-4.4-17.1-5.3-25.9c-1.4-13-1.7-26.2-1-39.2c0.7-16.1,3.3-32,7.6-47.4
				c4.3-15.5,11-30.2,19.7-43.8c3.8-5.9,8.1-11.5,12.7-16.7c4-4.6,8.4-8.9,13-12.9c6.7-5.8,14-10.9,21.7-15.1
				c1.4-0.7,2.6-1.4,3.7-1.9l2.8-1.3l1.7-0.8L119.6,41.6z"/>
			<path class="st9" d="M152.1,0c0,0,0.1,0,0.1,0.2l0.4,0.5l1.3,2l4.9,7.7c4.1,6.6,10,16,16.9,26.9l-0.3-0.1
				c9.4-2.6,19-4.4,28.8-5.4c9.5-1,19-1.3,28.5-0.8c7.8,0.4,15.5,1.3,23.2,2.8l2.4,0.4l2.2,0.5l4.1,0.9c2.5,0.7,4.8,1.2,6.5,1.7
				l4.1,1.2l1.1,0.3c0.1,0,0.2,0.1,0.4,0.1c-0.1,0-0.2,0-0.4-0.1l-1.1-0.3l-4.1-1.1c-1.8-0.5-4-1-6.5-1.6l-4.1-0.9l-2.2-0.5
				l-2.4-0.4c-7.6-1.4-15.4-2.3-23.1-2.7c-9.5-0.5-19-0.2-28.5,0.8c-9.7,1-19.3,2.8-28.7,5.3h-0.2l-0.1-0.2
				c-6.8-11-12.6-20.4-16.7-27c-2-3.3-3.6-5.9-4.7-7.7l-1.2-2.1l-0.3-0.5C152.1,0.1,152.1,0,152.1,0z"/>
			<path class="st9" d="M405.9,133.9c-0.1-0.1-0.1-0.2-0.1-0.3l-0.3-0.9c-0.2-0.8-0.6-1.9-1-3.2s-0.9-3.1-1.6-5.1l-1.1-3.2
				c-0.2-0.6-0.4-1.1-0.6-1.7l-0.7-1.8c-1-2.4-2-5.2-3.3-8c-0.6-1.4-1.2-2.9-2-4.4l-2.3-4.5c-3.5-6.7-7.5-13.1-11.9-19.3
				c-4.5-6.1-9.4-11.9-14.6-17.3c-1.2-1.2-2.4-2.4-3.6-3.6s-2.4-2.2-3.5-3.3c-2.2-2.2-4.5-4-6.5-5.7l-1.5-1.3l-1.4-1.1l-2.6-2.1
				c-1.6-1.3-3.1-2.4-4.3-3.3l-2.7-2l-0.7-0.5l-0.2-0.2c0,0,0.1,0,0.3,0.2l0.7,0.5l2.8,2c1.2,0.9,2.7,1.9,4.3,3.2l2.6,2l1.5,1.1
				l1.5,1.2c2,1.7,4.3,3.5,6.5,5.7c1.1,1.1,2.4,2.1,3.5,3.3l3.6,3.6c5.3,5.4,10.2,11.2,14.7,17.3c4.4,6.2,8.4,12.6,11.9,19.3
				l2.3,4.6c0.7,1.5,1.3,3,2,4.4c1.3,2.8,2.3,5.6,3.2,8c0.2,0.6,0.5,1.2,0.7,1.8s0.4,1.2,0.6,1.7c0.4,1.1,0.7,2.2,1,3.2
				c0.7,2,1.1,3.7,1.5,5.2s0.7,2.5,0.9,3.3c0.1,0.4,0.2,0.6,0.2,0.9L405.9,133.9z"/>
			<path class="st9" d="M368.4,411.5c0,0-0.1-0.1-0.2-0.3l-0.4-0.8c-0.4-0.8-0.9-1.9-1.6-3.3c-1.4-2.9-3.4-7.1-5.9-12.4
				c-5-10.6-12.1-25.5-20.4-42.9l-0.1-0.2l0.2-0.1c7.7-5.8,15-12.2,21.7-19.2c1.2-1.1,2.3-2.4,3.4-3.5l3.3-3.6l3.1-3.6
				c1-1.2,2-2.4,3-3.6c1.9-2.5,3.8-4.8,5.5-7.2l2.6-3.6c0.8-1.2,1.6-2.4,2.4-3.6c5.6-8.4,10.5-17.2,14.7-26.4
				c1.8-3.9,3.3-7.5,4.5-10.7s2.2-6,3-8.2s1.3-4,1.7-5.3c0.2-0.6,0.4-1,0.5-1.4c0-0.2,0.1-0.3,0.2-0.5c0,0,0,0.2-0.1,0.5
				s-0.2,0.8-0.4,1.4c-0.4,1.2-0.9,3-1.6,5.3s-1.7,5.1-2.9,8.3s-2.7,6.8-4.5,10.7c-4.2,9.2-9.1,18.1-14.6,26.5
				c-0.8,1.2-1.6,2.4-2.4,3.6l-2.6,3.6c-1.7,2.5-3.6,4.8-5.5,7.3c-0.9,1.2-2,2.4-3,3.6s-2,2.4-3.1,3.6l-3.3,3.6
				c-1.1,1.2-2.2,2.4-3.4,3.6c-6.8,6.9-14.1,13.4-21.8,19.2l0.1-0.3l20.2,43l5.8,12.4c0.7,1.4,1.2,2.5,1.5,3.3l0.4,0.9L368.4,411.5z
				"/>
		</g>
		<circle class="st4" cx="303.1" cy="120.5" r="4.3"/>
		<path class="st4" d="M281.4,39.1c0,2.4-1.9,4.3-4.3,4.3s-4.3-1.9-4.3-4.3s1.9-4.3,4.3-4.3c0,0,0,0,0,0
			C279.5,34.8,281.4,36.8,281.4,39.1C281.4,39.1,281.4,39.1,281.4,39.1z"/>
		<path class="st4" d="M409.8,134.1c0,2.4-1.9,4.3-4.3,4.3c-2.4,0-4.3-1.9-4.3-4.3s1.9-4.3,4.3-4.3c0,0,0,0,0,0
			C407.9,129.8,409.8,131.7,409.8,134.1L409.8,134.1z"/>
		<path class="st4" d="M187.9,334.7c0,2.4-1.9,4.3-4.3,4.3s-4.3-1.9-4.3-4.3c0-2.4,1.9-4.3,4.3-4.3
			C186,330.4,187.9,332.4,187.9,334.7C187.9,334.7,187.9,334.7,187.9,334.7z"/>
		<circle class="st4" cx="128.8" cy="331.6" r="4.3"/>
		<circle class="st4" cx="364.1" cy="241.3" r="4.3"/>
		<path class="st4" d="M46.5,136.3c0,2.4-1.9,4.3-4.3,4.3s-4.3-1.9-4.3-4.3c0-2.4,1.9-4.3,4.3-4.3c0,0,0,0,0,0
			C44.6,132,46.5,133.9,46.5,136.3z"/>
		<path class="st4" d="M287.4,170.6c0,2.4-1.9,4.3-4.3,4.3s-4.3-1.9-4.3-4.3c0-2.4,1.9-4.3,4.3-4.3
			C285.5,166.3,287.4,168.2,287.4,170.6C287.4,170.6,287.4,170.6,287.4,170.6z"/>
		<circle class="st4" cx="370.4" cy="168.9" r="4.3"/>
		<path class="st4" d="M93.1,152.5c0,2.4-1.9,4.3-4.3,4.3s-4.3-1.9-4.3-4.3c0-2.4,1.9-4.3,4.3-4.3h0
			C91.2,148.2,93.1,150.1,93.1,152.5z"/>
		<circle class="st4" cx="92.1" cy="95.7" r="4.3"/>
		<path class="st4" d="M48.2,258.2c0,1.2-1,2.1-2.1,2.1c-1.2,0-2.2-1-2.2-2.1c0-1.2,1-2.1,2.1-2.1c0,0,0,0,0,0
			C47.2,256.1,48.2,257,48.2,258.2C48.2,258.2,48.2,258.2,48.2,258.2z"/>
		<path class="st4" d="M84.5,196c0,1.2-1,2.2-2.1,2.2s-2.2-1-2.2-2.1c0-1.2,1-2.2,2.1-2.2c0,0,0,0,0,0
			C83.5,193.8,84.5,194.8,84.5,196C84.5,196,84.5,196,84.5,196z"/>
		<path class="st4" d="M126.1,271.2c0,1.2-1,2.1-2.1,2.1c-1.2,0-2.2-1-2.2-2.1c0-1.2,1-2.1,2.1-2.1h0
			C125.2,269.1,126.1,270,126.1,271.2C126.1,271.2,126.1,271.2,126.1,271.2z"/>
		<path class="st4" d="M104.2,195c0,1.2-1,2.2-2.1,2.2s-2.2-1-2.2-2.1c0-1.2,1-2.2,2.1-2.2c0,0,0,0,0,0
			C103.3,192.8,104.2,193.8,104.2,195C104.2,195,104.2,195,104.2,195z"/>
		<path class="st4" d="M134.9,146.7c0,1.2-1,2.2-2.1,2.2c-1.2,0-2.2-1-2.2-2.1c0-1.2,1-2.2,2.1-2.2c0,0,0,0,0,0
			C133.9,144.6,134.9,145.5,134.9,146.7z"/>
		<circle class="st4" cx="58.6" cy="196" r="2.1"/>
		<path class="st4" d="M346.8,280.6c0,1.2-1,2.1-2.1,2.1c-1.2,0-2.1-1-2.1-2.1c0-1.2,1-2.1,2.1-2.1l0,0
			C345.9,278.5,346.8,279.5,346.8,280.6z"/>
		<path class="st4" d="M331.9,269.4c0,1.2-1,2.1-2.2,2.1c-1.2,0-2.1-1-2.1-2.2c0-1.2,1-2.1,2.1-2.1c0,0,0,0,0,0
			C330.9,267.2,331.9,268.2,331.9,269.4C331.9,269.4,331.9,269.4,331.9,269.4z"/>
		<path class="st4" d="M362.9,290.8c0,1.2-1,2.1-2.1,2.1c-1.2,0-2.1-1-2.1-2.1c0-1.2,1-2.1,2.1-2.1l0,0
			C361.9,288.6,362.9,289.6,362.9,290.8C362.9,290.8,362.9,290.8,362.9,290.8z"/>
		<path class="st4" d="M278.4,292.8c0,1.2-1,2.1-2.1,2.1c-1.2,0-2.1-1-2.1-2.1c0-1.2,1-2.1,2.1-2.1l0,0
			C277.4,290.6,278.4,291.6,278.4,292.8z"/>
		<path class="st4" d="M292,325.8c0,1.2-1,2.1-2.2,2.1c-1.2,0-2.1-1-2.1-2.2c0-1.2,1-2.1,2.1-2.1c0,0,0,0,0,0
			C291,323.6,292,324.6,292,325.8z"/>
		<path class="st4" d="M268.2,315.8c0,1.2-1,2.2-2.1,2.2s-2.2-1-2.2-2.1s1-2.2,2.1-2.2c0,0,0,0,0,0
			C267.2,313.7,268.2,314.6,268.2,315.8L268.2,315.8z"/>
		<path class="st4" d="M129.3,122.6c0,1.2-1,2.2-2.1,2.2c-1.2,0-2.2-1-2.2-2.1c0-1.2,1-2.2,2.1-2.2c0,0,0,0,0,0
			C128.3,120.5,129.3,121.5,129.3,122.6z"/>
		<path class="st4" d="M180,97.7c0,1.2-1,2.2-2.1,2.2c-1.2,0-2.2-1-2.2-2.1c0-1.2,1-2.2,2.1-2.2c0,0,0,0,0,0
			C179,95.6,180,96.5,180,97.7z"/>
		<path class="st4" d="M242.8,91.8c0,1.2-1,2.2-2.1,2.2s-2.1-1-2.1-2.2c0-1.2,1-2.2,2.1-2.2l0,0C241.8,89.7,242.8,90.6,242.8,91.8z"
			/>
		<path class="st4" d="M341.6,40.3c0,1.2-1,2.2-2.1,2.2c-1.2,0-2.2-1-2.2-2.1c0-1.2,1-2.2,2.1-2.2c0,0,0,0,0,0
			C340.6,38.2,341.6,39.1,341.6,40.3z"/>
		<path class="st4" d="M176.6,36.8c0,1.2-1,2.2-2.2,2.2c-1.2,0-2.1-1-2.1-2.2c0-1.2,1-2.2,2.2-2.2l0,0
			C175.7,34.7,176.6,35.7,176.6,36.8z"/>
		<path class="st4" d="M152.1,273.1c0,0-0.1-0.1-0.2-0.2l-0.7-0.8l-2.7-2.9c-0.6-0.6-1.2-1.3-1.9-2.1l-2.1-2.7c-0.8-1-1.6-2-2.4-3.1
			l-2.6-3.6c-4.2-5.9-7.8-12.2-10.7-18.8c-3.6-8.1-6.1-16.7-7.5-25.4c-0.4-2.3-0.6-4.6-0.9-6.9l-0.2-3.4c0-0.6-0.1-1.1-0.1-1.7
			s0-1.1,0-1.7c0-1.1,0-2.2,0-3.3l0.1-3.2c0-1.1,0.1-2.1,0.2-3.2s0.2-2.1,0.3-3.1c0.8-7.2,2.3-14.3,4.4-21.2
			c1.4-4.7,3.2-9.2,5.3-13.6c0.8-1.6,1.4-2.7,1.8-3.5c0.2-0.4,0.4-0.7,0.5-0.9s0.2-0.3,0.2-0.3c0,0.1-0.1,0.2-0.1,0.3l-0.5,0.9
			c-0.4,0.8-1,2-1.7,3.6c-2,4.4-3.7,9-5.1,13.6c-2.1,6.9-3.6,13.9-4.4,21.1c-0.1,1-0.2,2-0.2,3.1s-0.2,2.1-0.2,3.1s-0.1,2.1-0.1,3.2
			s0,2.2,0,3.3c0,0.6,0,1.1,0,1.7s0.1,1.1,0.1,1.7l0.2,3.4c0.3,2.3,0.4,4.6,0.9,6.9c1.4,8.7,3.8,17.2,7.4,25.3
			c2.9,6.6,6.5,12.9,10.6,18.8l2.5,3.6c0.8,1.1,1.7,2.1,2.4,3.1l2.1,2.7c0.6,0.8,1.3,1.5,1.9,2.2l2.6,3l0.7,0.8
			C152,273,152.1,273.1,152.1,273.1z"/>
		<path class="st4" d="M58.6,201.3c0-0.1,0-0.2,0-0.3v-0.9c0-0.8,0-1.9,0.1-3.3c0-0.7,0-1.5,0.1-2.4s0.1-1.8,0.2-2.8
			c0.1-2,0.2-4.3,0.5-6.9c0.1-1.3,0.3-2.6,0.4-4s0.4-2.8,0.6-4.3c0.4-3,1-6.1,1.6-9.4c2.8-14.3,7.3-28.3,13.2-41.7
			c1.4-3.1,2.7-6,4.2-8.6c0.7-1.3,1.3-2.6,2-3.8l2-3.5c1.2-2.2,2.5-4.2,3.5-5.9c0.5-0.9,1-1.7,1.5-2.4l1.3-2l1.8-2.7l0.5-0.7
			c0.1-0.1,0.1-0.2,0.2-0.2c0,0.1-0.1,0.2-0.1,0.2l-0.4,0.7l-1.8,2.8l-1.3,2l-1.4,2.4c-1,1.7-2.2,3.7-3.4,5.9l-1.9,3.5
			c-0.7,1.2-1.3,2.5-2,3.9c-1.4,2.6-2.7,5.6-4.1,8.6c-2.9,6.7-5.5,13.5-7.8,20.4c-2.2,7-4,14-5.4,21.1c-0.6,3.3-1.2,6.4-1.6,9.4
			c-0.2,1.5-0.4,2.9-0.6,4.3s-0.3,2.7-0.4,4c-0.3,2.5-0.4,4.8-0.6,6.8c-0.1,1-0.2,1.9-0.2,2.8s-0.1,1.6-0.1,2.4
			c-0.1,1.4-0.1,2.5-0.2,3.3c0,0.4,0,0.6,0,0.9C58.7,201.1,58.6,201.2,58.6,201.3z"/>
		<path class="st4" d="M263.3,77.6c-0.3,0-0.5-0.1-0.8-0.2l-2.1-0.7c-0.9-0.3-2-0.7-3.4-1s-2.8-0.8-4.5-1.2l-2.6-0.6
			c-0.9-0.2-1.9-0.4-2.9-0.6c-2-0.4-4.1-0.7-6.4-1c-4.9-0.6-9.9-0.9-14.9-0.9c-5,0.1-9.9,0.4-14.9,1.1c-2.3,0.4-4.4,0.7-6.4,1.1
			c-1,0.2-2,0.4-2.9,0.6l-2.6,0.7c-1.7,0.4-3.2,0.9-4.5,1.2s-2.5,0.7-3.4,1.1l-2.1,0.7c-0.2,0.1-0.5,0.2-0.8,0.2
			c0.2-0.1,0.5-0.2,0.7-0.3l2.1-0.8c0.9-0.3,2-0.8,3.4-1.2s2.8-0.9,4.5-1.3l2.6-0.7c0.9-0.2,1.9-0.4,2.9-0.6c2-0.5,4.2-0.8,6.4-1.2
			c9.9-1.5,19.9-1.5,29.8-0.2c2.3,0.3,4.4,0.6,6.4,1.1c1,0.2,2,0.4,2.9,0.6l2.6,0.7c1.7,0.4,3.2,0.9,4.5,1.2s2.5,0.8,3.4,1.1
			l2.1,0.8C262.9,77.4,263.1,77.5,263.3,77.6z"/>
		<path class="st4" d="M302.3,123.2c-0.2-0.2-0.4-0.3-0.5-0.5c-0.4-0.4-0.8-0.9-1.4-1.6l-1-1.2c-0.4-0.4-0.8-0.8-1.2-1.3
			c-0.9-0.9-1.9-2.1-3-3.1l-1.8-1.8c-0.6-0.6-1.4-1.2-2.1-1.8c-1.4-1.3-3.1-2.5-4.8-3.8c-7.5-5.6-15.9-9.8-24.8-12.6
			c-2.1-0.6-4-1.2-5.9-1.6c-0.9-0.2-1.8-0.4-2.7-0.6l-2.5-0.4c-1.6-0.3-3.1-0.4-4.4-0.6c-0.6-0.1-1.2-0.2-1.8-0.2l-1.5,0l-2.1-0.2
			c-0.2,0-0.5,0-0.7-0.1c0.2,0,0.5,0,0.7,0h2.1h1.5c0.6,0,1.2,0.1,1.8,0.2c1.3,0.1,2.8,0.2,4.4,0.5l2.5,0.4c0.9,0.1,1.8,0.4,2.7,0.6
			c1.9,0.4,3.9,1,5.9,1.5c9,2.7,17.5,7,25,12.6c1.7,1.3,3.4,2.6,4.8,3.9c0.7,0.6,1.4,1.2,2.1,1.9l1.8,1.8c1.2,1.1,2.1,2.3,3,3.2
			c0.4,0.5,0.8,0.9,1.2,1.4s0.7,0.8,0.9,1.2c0.5,0.7,1,1.2,1.3,1.7C302.1,122.7,302.2,122.9,302.3,123.2z"/>
		<path class="st4" d="M323.7,96c-0.1-0.1-0.1-0.1-0.2-0.2l-0.6-0.6l-2.2-2.2l-1.6-1.6c-0.6-0.6-1.3-1.2-2-1.8
			c-1.4-1.3-3-2.8-4.9-4.3l-3-2.4c-1-0.8-2.2-1.6-3.3-2.4c-2.3-1.7-4.8-3.3-7.5-5.1c-5.9-3.7-12-6.9-18.4-9.6
			c-6.4-2.7-13-4.9-19.7-6.6c-3.1-0.7-6.1-1.4-8.9-1.9c-1.4-0.2-2.8-0.5-4.1-0.7l-3.8-0.5c-2.4-0.3-4.6-0.4-6.5-0.6
			c-1-0.1-1.9-0.1-2.7-0.2h-2.2l-3.1-0.1h-0.8h-0.3c0.1,0,0.2,0,0.3,0h0.8h3.1h2.3c0.8,0,1.7,0.1,2.7,0.1c1.9,0.1,4.1,0.2,6.5,0.5
			l3.8,0.4c1.3,0.2,2.7,0.4,4.1,0.7c2.8,0.4,5.8,1.1,8.9,1.8c13.5,3.2,26.5,8.7,38.3,16.1c2.7,1.8,5.3,3.4,7.5,5.2
			c1.1,0.9,2.3,1.6,3.3,2.5l2.9,2.4c1.9,1.5,3.5,3,4.9,4.3c0.7,0.7,1.4,1.2,2,1.8l1.6,1.6l2.2,2.3l0.5,0.6
			C323.7,95.8,323.7,95.9,323.7,96z"/>
		<path class="st4" d="M393.2,194.8c0-0.1,0-0.2,0-0.3v-0.8c0-0.7,0-1.7-0.1-3c0-0.7,0-1.4,0-2.2s-0.1-1.7-0.1-2.6
			c-0.1-1.9-0.1-4-0.4-6.3c-0.1-1.2-0.2-2.4-0.3-3.6s-0.3-2.6-0.5-3.9c-0.3-2.7-0.8-5.6-1.3-8.6c-1.3-6.6-2.9-13-4.9-19.4
			c-2-6.4-4.4-12.6-7.1-18.7c-1.3-2.8-2.5-5.5-3.8-7.9c-0.6-1.2-1.2-2.4-1.9-3.5l-1.8-3.2c-1.1-2-2.3-3.8-3.2-5.4l-1.4-2.2l-1.2-1.8
			l-1.7-2.5l-0.4-0.7l-0.1-0.2c3,4,5.8,8.2,8.4,12.6l1.9,3.2c0.6,1.1,1.2,2.3,1.9,3.5c1.3,2.4,2.6,5.1,3.9,7.9
			c2.8,6.1,5.2,12.4,7.2,18.8c2,6.4,3.6,12.9,4.8,19.5c0.5,3,1,5.9,1.3,8.7c0.2,1.4,0.4,2.7,0.5,3.9s0.2,2.5,0.3,3.7
			C393.3,184.7,393.4,189.7,393.2,194.8z"/>
		<path class="st4" d="M371.1,168.9c0,0.2,0.1,0.3,0.1,0.5c0,0.4,0.1,0.8,0.2,1.4c0.1,1.2,0.4,3.1,0.6,5.5
			c0.6,6.7,0.7,13.5,0.4,20.2c-0.1,4.3-0.5,8.9-1.1,13.9s-1.4,10.3-2.6,15.8c-0.3,1.4-0.6,2.8-1,4.2l-1.1,4.3
			c-0.8,2.8-1.6,5.8-2.7,8.7c-2,6-4.5,11.9-7.4,17.6c-3,5.6-6.3,11-10,16.2c-3.5,4.8-7.2,9.4-11.2,13.8
			c-6.8,7.4-14.2,14.2-22.2,20.2c-5.4,4.1-11,7.8-16.9,11.2c-2,1.2-3.7,2-4.9,2.6l-1.3,0.6c-0.3,0.1-0.4,0.2-0.4,0.2
			s0.1-0.1,0.4-0.2l1.2-0.7c1.1-0.6,2.8-1.4,4.8-2.7c5.8-3.4,11.4-7.2,16.8-11.3c7.9-6.1,15.3-12.9,22-20.3c4-4.4,7.7-9,11.1-13.8
			c3.7-5.2,7-10.6,10-16.2c2.9-5.6,5.4-11.5,7.4-17.5c1-2.9,1.8-5.8,2.7-8.6c0.4-1.4,0.7-2.9,1.1-4.2s0.7-2.8,1-4.2
			c1.2-5.5,2-10.8,2.7-15.8s1-9.6,1.1-13.9c0.3-6.7,0.2-13.5-0.3-20.2c-0.1-2.4-0.4-4.2-0.5-5.5c-0.1-0.6-0.1-1.1-0.1-1.4
			S371.1,168.9,371.1,168.9z"/>
		<path class="st4" d="M325.6,125.8c0,0,0.1,0.1,0.3,0.3l0.8,0.9c0.6,0.8,1.7,1.9,2.8,3.6c3.4,4.4,6.4,9.1,9.1,14
			c1.7,3.1,3.4,6.6,5.1,10.4c1.7,4.1,3.2,8.2,4.5,12.5c1.4,4.7,2.5,9.4,3.3,14.3c0.9,5.2,1.4,10.4,1.6,15.6
			c0.1,5.2-0.1,10.5-0.6,15.7c-0.5,4.9-1.4,9.7-2.5,14.4c-3.3,13.5-9,26.2-17,37.6c-1.1,1.6-2.1,2.8-2.7,3.7l-0.7,0.9
			c-0.1,0.1-0.2,0.2-0.2,0.3c0.1-0.1,0.1-0.2,0.2-0.3l0.7-1c0.6-0.9,1.5-2,2.6-3.7c3.1-4.6,5.9-9.4,8.4-14.4
			c3.6-7.4,6.4-15.2,8.3-23.2c1.1-4.7,1.9-9.5,2.5-14.3c0.5-5.2,0.7-10.4,0.6-15.6c-0.2-5.2-0.7-10.4-1.6-15.6
			c-0.8-4.8-1.9-9.5-3.3-14.2c-1.3-4.2-2.7-8.4-4.4-12.4c-1.7-3.8-3.3-7.3-5-10.4c-2.6-4.9-5.6-9.6-8.9-14.1
			c-1.1-1.6-2.1-2.8-2.8-3.6l-0.7-0.9C325.8,126,325.7,125.9,325.6,125.8z"/>
		<path class="st4" d="M283.1,358.8l-0.5,0.1l-1.6,0.3c-1.4,0.3-3.5,0.7-6.1,1.2c-7.5,1.3-15.1,2.2-22.7,2.8
			c-11.3,0.8-22.6,0.8-33.9-0.1c-6.4-0.5-13.1-1.2-19.9-2.4c-7.1-1.1-14.1-2.6-21.1-4.5c-13.4-3.6-26.2-9.3-37.9-16.9
			c-5.1-3.3-9.9-6.9-14.6-10.8c-4.4-3.5-8.3-7.2-11.8-10.5c-7-6.7-12.2-12.6-15.7-16.6c-1.8-2-3.1-3.6-4-4.8l-1-1.2l-0.3-0.4
			l0.4,0.4l1.1,1.2c0.9,1.1,2.3,2.7,4.1,4.7c3.6,4,8.8,9.8,15.8,16.5c3.5,3.3,7.4,6.9,11.8,10.5c4.7,3.8,9.5,7.4,14.6,10.7
			c5.6,3.6,11.5,6.8,17.5,9.6c6.5,2.9,13.3,5.4,20.2,7.2c6.9,1.9,13.9,3.4,21,4.5c6.9,1.1,13.5,1.9,19.9,2.4
			c11.3,0.9,22.6,0.9,33.9,0.2c9.6-0.6,17.4-1.7,22.7-2.6c2.7-0.4,4.7-0.8,6.1-1.1l1.6-0.3L283.1,358.8z"/>
		<path class="st4" d="M227.8,341.9c-4.6,0.2-9.1,0.2-13.7-0.2l-3.3-0.3c-1.1-0.1-2.3-0.3-3.6-0.4c-2.5-0.3-5.1-0.8-7.8-1.2
			c-11.9-2.2-23.5-6.1-34.4-11.6c-2.5-1.3-4.9-2.5-7-3.8c-1.1-0.6-2.1-1.2-3.1-1.8l-2.8-1.8c-3.8-2.5-7.5-5.2-11-8.1l0.2,0.1
			l0.6,0.4l2.2,1.6l1.6,1.2c0.6,0.4,1.2,0.9,1.9,1.3c1.4,0.9,2.9,2.1,4.7,3.2l2.8,1.8c1,0.6,2,1.2,3.1,1.8c2.1,1.3,4.5,2.4,7,3.7
			c10.8,5.4,22.4,9.3,34.2,11.6c2.7,0.5,5.3,1,7.8,1.3c1.2,0.2,2.4,0.4,3.6,0.5l3.3,0.3c2.1,0.2,4,0.2,5.7,0.3
			c0.8,0,1.6,0.1,2.3,0.1h2h2.7h0.7L227.8,341.9z"/>
		<path class="st4" d="M193.8,315.4c0,0-0.3,0-0.9-0.1l-2.5-0.5l-1.8-0.3c-0.6-0.1-1.4-0.3-2.1-0.5c-1.5-0.4-3.2-0.8-5.1-1.4
			l-2.9-0.9c-1-0.3-2.1-0.7-3.1-1.1c-2.2-0.7-4.4-1.7-6.8-2.8c-10.3-4.6-19.8-10.8-28.1-18.4c-1.9-1.8-3.7-3.5-5.2-5.2
			c-0.8-0.9-1.6-1.6-2.3-2.4l-2-2.3c-1.3-1.5-2.3-2.9-3.3-4.1c-0.5-0.6-0.9-1.2-1.3-1.7l-1-1.5L124,270c-0.2-0.2-0.3-0.5-0.4-0.8
			c0.2,0.2,0.4,0.5,0.5,0.7l1.5,2l1.1,1.5c0.4,0.5,0.9,1.1,1.3,1.7c1,1.2,2,2.6,3.3,4.1l2,2.3c0.7,0.8,1.5,1.6,2.3,2.4
			c1.6,1.7,3.4,3.3,5.2,5.1c8.3,7.5,17.7,13.7,27.9,18.4c2.4,1,4.6,2,6.8,2.8c1.1,0.4,2.1,0.8,3.1,1.1l2.9,0.9
			c1.9,0.6,3.6,1,5.1,1.4c0.8,0.2,1.4,0.4,2.1,0.5l1.8,0.4l2.5,0.5C193.2,315.2,193.5,315.3,193.8,315.4z"/>
		<path class="st4" d="M232.3,387.4c-0.1,0-0.2,0-0.3,0l-1,0.1l-3.6,0.3l-2.6,0.2c-1,0-2,0.1-3.1,0.1c-2.3,0-4.8,0.2-7.7,0l-4.5-0.1
			c-1.6,0-3.2-0.2-4.8-0.4c-3.3-0.2-6.9-0.7-10.6-1.2c-16.2-2.4-32-7.2-46.7-14.2c-3.4-1.7-6.6-3.2-9.5-4.9
			c-1.4-0.8-2.9-1.6-4.2-2.4l-3.8-2.4c-2.4-1.5-4.5-3-6.4-4.3c-0.9-0.7-1.8-1.2-2.6-1.8l-2.1-1.6l-2.9-2.3l-0.7-0.6
			c-0.2-0.1-0.2-0.2-0.2-0.2s0.1,0,0.3,0.2l0.8,0.6l2.9,2.2l2.1,1.6c0.8,0.6,1.7,1.1,2.6,1.8c1.9,1.3,3.9,2.8,6.4,4.2l3.8,2.4
			c1.3,0.8,2.8,1.5,4.2,2.4c2.9,1.7,6.1,3.2,9.5,4.9c14.8,7,30.5,11.8,46.6,14.3c3.7,0.5,7.2,1,10.6,1.2c1.7,0.1,3.3,0.3,4.8,0.4
			l4.4,0.2c2.8,0.2,5.4,0,7.7,0c1.1,0,2.2,0,3.1,0l2.6-0.2l3.7-0.2h1L232.3,387.4z"/>
		<path class="st4" d="M88.8,152.5c-0.1,0.1-9.6-3.4-21.2-7.9s-21.1-8.2-21-8.4s9.6,3.4,21.2,7.9S88.8,152.4,88.8,152.5z"/>
		<path class="st4" d="M127.8,121.7c0,0-0.1,0.1-0.2,0.2l-0.6,0.7c-0.5,0.6-1.4,1.5-2.4,2.7c-2.9,3.4-5.5,7-7.8,10.8
			c-3.3,5.7-6.1,11.6-8.1,17.9c-2.5,7.6-4.3,15.5-5.2,23.5c-0.7,6.1-1,12.3-0.8,18.5v0.3h-0.3l-31.4-0.1l-9.1-0.1h-2.4L59,196
			c-0.1,0-0.1,0-0.2,0c0,0,0.1,0,0.2,0h0.6h2.4l9.1-0.1l31.4-0.1l-0.2,0.3c-0.3-6.2,0-12.4,0.7-18.5c0.9-8,2.7-16,5.3-23.6
			c2.1-6.3,4.9-12.3,8.3-17.9c2.3-3.8,5-7.4,7.9-10.7c1-1.2,1.9-2,2.5-2.6l0.7-0.7C127.7,121.8,127.8,121.7,127.8,121.7z"/>
		<line class="st11" x1="84.9" y1="218.5" x2="123.5" y2="212.4"/>
		<path class="st4" d="M150.7,274.6c-0.2,0.4-0.5,0.7-0.8,1.1c-0.6,0.7-1.4,1.6-2.4,2.7c-2.1,2.3-5,5.4-8.4,8.6s-6.6,6.1-9,8
			c-1.2,1-2.2,1.8-2.8,2.3c-0.3,0.3-0.7,0.6-1.1,0.8c0.3-0.3,0.6-0.7,1-0.9l2.7-2.4c2.3-2,5.5-4.9,8.9-8.1s6.4-6.3,8.5-8.5l2.5-2.6
			C150,275.1,150.3,274.8,150.7,274.6z"/>
		<path class="st4" d="M142.1,310.4c0.1,0.1-5.7,9.6-12.9,21.2s-13.2,21-13.4,20.9s5.7-9.6,12.9-21.2S141.9,310.3,142.1,310.4z"/>
		<path class="st4" d="M190.4,317.3c-0.1,0.5-0.3,1-0.5,1.5c-0.4,1-0.9,2.4-1.5,4c-1.3,3.4-3.1,8.1-4.9,13.4s-3.5,10-4.6,13.5
			l-1.4,4.1c-0.1,0.5-0.3,1-0.6,1.5c0.1-0.5,0.2-1,0.4-1.5c0.3-1,0.7-2.4,1.2-4.2c1-3.5,2.6-8.3,4.5-13.6s3.7-10,5.1-13.4
			c0.7-1.7,1.3-3.1,1.7-4C189.9,318.2,190.1,317.7,190.4,317.3z"/>
		<path class="st4" d="M278.7,359.6c-0.1-0.1-0.1-0.3-0.2-0.4c-0.1-0.4-0.2-0.8-0.4-1.3l-1.5-4.7c-1.2-4-2.8-9.5-4.6-15.6
			s-3.4-11.6-4.5-15.6c-0.5-2-1-3.5-1.3-4.8L266,316c0-0.2-0.1-0.3-0.1-0.5c0,0,0.1,0.1,0.2,0.4s0.2,0.8,0.4,1.3
			c0.4,1.2,0.9,2.8,1.5,4.7c1.2,4,2.9,9.5,4.6,15.6s3.4,11.6,4.5,15.6c0.5,1.9,1,3.5,1.3,4.8l0.3,1.3
			C278.7,359.3,278.7,359.5,278.7,359.6z"/>
		<path class="st4" d="M288.9,324.8c-0.1,0-3.1-7.4-6.6-16.6s-6.2-16.7-6.1-16.8s3.1,7.4,6.6,16.6S289.1,324.7,288.9,324.8z"/>
		<path class="st4" d="M360.8,290.4c-0.5-0.2-0.9-0.4-1.4-0.6c-0.9-0.4-2.1-1-3.7-1.9c-3.1-1.6-7.3-4-11.7-6.9s-8.2-5.9-10.9-8
			c-1.4-1.1-2.4-2-3.1-2.7c-0.4-0.3-0.8-0.6-1.1-1c0.4,0.3,0.8,0.6,1.2,0.9l3.2,2.5c2.7,2.1,6.6,5,11,7.9s8.5,5.3,11.6,7l3.6,2
			C360,289.8,360.4,290.1,360.8,290.4z"/>
		<path class="st4" d="M407.3,252.1c0,0.1-10.3-2.3-23-5.4s-22.9-5.8-22.9-5.9s10.3,2.3,23,5.4S407.3,251.9,407.3,252.1z"/>
		<path class="st4" d="M395.4,195.3c0,0.1-9,0.4-20.1,0.5s-20.1,0.1-20.1,0s9-0.4,20.1-0.5S395.4,195.2,395.4,195.3z"/>
		<path class="st4" d="M370.4,168.7c0,0.1-19.5,0.6-43.6,1s-43.6,0.6-43.6,0.5s19.5-0.6,43.6-1S370.4,168.6,370.4,168.7z"/>
		<path class="st4" d="M405.9,133.9c-0.1,0.1-0.3,0.1-0.4,0.2l-1.3,0.5l-4.7,1.7c-3.9,1.4-9.4,3.4-15.3,5.6s-11.3,4.4-15.2,6
			l-4.6,1.9l-1.2,0.5c-0.1,0.1-0.3,0.1-0.5,0.1c0,0,0.1-0.1,0.4-0.2l1.2-0.6c1.1-0.5,2.6-1.2,4.5-2c3.8-1.7,9.2-3.9,15.1-6.2
			s11.4-4.2,15.4-5.5c2-0.6,3.6-1.2,4.7-1.5l1.3-0.4C405.6,133.9,405.8,133.9,405.9,133.9z"/>
		<path class="st4" d="M329.3,95.9c0.1,0.1-5.7,5.4-13,11.8s-13.2,11.5-13.3,11.4s5.7-5.4,12.9-11.8S329.2,95.8,329.3,95.9z"/>
		<path class="st4" d="M338.5,40.8c0.1,0.1-5.7,8.5-13.1,18.8s-13.4,18.6-13.5,18.5s5.7-8.5,13.1-18.8S338.4,40.7,338.5,40.8z"/>
		<path class="st4" d="M227.1,53.1c0-0.2,0-0.3,0-0.5c0-0.4,0-0.8,0.1-1.4c0.1-1.3,0.1-3,0.2-5.2c0.2-4.4,0.3-10.4,0.2-17
			s-0.5-12.7-0.9-17l-0.4-5.1l-0.1-1.4c0-0.2,0-0.3,0-0.5c0.1,0.2,0.1,0.3,0.1,0.5c0.1,0.4,0.1,0.8,0.2,1.4c0.2,1.2,0.4,3,0.6,5.1
			c0.4,4.3,0.9,10.4,1,17s-0.1,12.7-0.3,17.1c-0.1,2.2-0.3,3.9-0.4,5.2l-0.1,1.4C227.1,52.8,227.1,53,227.1,53.1z"/>
		<path class="st4" d="M177.6,97.6c-0.3-0.3-0.6-0.7-0.8-1.1c-0.5-0.7-1.2-1.7-2-3c-1.6-2.6-3.8-6.2-6.1-10.2s-4.1-7.9-5.4-10.6
			c-0.6-1.4-1.1-2.5-1.5-3.3c-0.2-0.4-0.4-0.8-0.5-1.2c0.3,0.4,0.5,0.8,0.6,1.2l1.6,3.2c1.4,2.7,3.3,6.5,5.5,10.6s4.4,7.7,6,10.3
			l1.9,3.1C177.2,96.8,177.4,97.2,177.6,97.6z"/>
		<path class="st4" d="M297.2,157.1c0-0.1,0-0.2,0-0.3v-1c0-0.9,0-2.1,0-3.6c0-3.1-0.1-7.6-0.1-13.1l0.2,0.2l-34.1,0.1
			c-0.2,0.2,0.3-0.3,0.3-0.2l0,0v9.3c0,3,0,5.9,0,8.7l-0.2-0.2l24.4,0.1l7.1,0.1h1.9h0.7c-0.2,0-0.4,0-0.6,0h-1.9l-7,0.1l-24.6,0.1
			H263v-0.2c0-2.8,0-5.7,0-8.7c0-1.5,0-3,0-4.6v-4.7l0,0c-0.1,0.1,0.5-0.5,0.3-0.3l34.1,0.1h0.2v0.2c0,5.5-0.1,10.1-0.1,13.2
			c0,1.5,0,2.7,0,3.6c0,0.4,0,0.7,0,0.9C297.3,156.8,297.3,157,297.2,157.1z"/>
		<path class="st4" d="M291.2,145.4c0,0.1-5.3,0.3-11.8,0.3s-11.8-0.1-11.8-0.3s5.3-0.3,11.8-0.3S291.2,145.2,291.2,145.4z"/>
		<path class="st4" d="M291.2,149.3c0,0.1-5.3,0.3-11.8,0.3s-11.8-0.1-11.8-0.3s5.3-0.3,11.8-0.3S291.2,149.1,291.2,149.3z"/>
		<path class="st4" d="M283.1,156.7c0.3,1.6,0.3,3.2,0.3,4.9c0.1,1.6,0,3.3-0.3,4.9c-0.3-1.6-0.3-3.2-0.3-4.9
			C282.8,160,282.9,158.3,283.1,156.7z"/>
		<path class="st4" d="M421.5,236c0,0,0-0.1,0-0.3s0-0.6,0-1c0-0.9,0-2.1,0-3.6c0-3.1-0.1-7.6-0.1-13.1l0.2,0.2l-34,0.1
			c-0.2,0.2,0.3-0.3,0.3-0.2l0,0v2.4c0,0.8,0,1.6,0,2.4v4.6c0,3,0,5.9,0,8.7l-0.2-0.2l24.4,0.1l7.1,0.1h1.9h0.7c-0.2,0-0.4,0-0.6,0
			h-1.9l-7,0.1l-24.6,0.1h-0.2V236c0-2.8,0-5.7,0-8.7V218l0,0c-0.1,0,0.5-0.5,0.3-0.3l34,0.1h0.2v0.2c0,5.6-0.1,10.1-0.1,13.2
			c0,1.5,0,2.7,0,3.6v0.9C421.7,235.8,421.6,235.9,421.5,236z"/>
		<path class="st4" d="M415.5,224.3c0,0.1-5.3,0.3-11.8,0.3s-11.8-0.1-11.8-0.3s5.3-0.3,11.8-0.3S415.5,224.1,415.5,224.3z"/>
		<path class="st4" d="M415.5,228.1c0,0.1-5.3,0.3-11.8,0.3s-11.8-0.1-11.8-0.3s5.3-0.3,11.8-0.3S415.5,228,415.5,228.1z"/>
		<rect x="395.1" y="66.4" class="st9" width="34.1" height="18"/>
		<path class="st4" d="M429.2,84.4c0,0,0-0.1,0-0.3s0-0.6,0-1c0-0.9,0-2.1,0-3.6c0-3.2-0.1-7.6-0.1-13.1l0.2,0.2l-34,0.1
			c-0.2,0.2,0.3-0.3,0.3-0.3l0,0V71c0,1.6,0,3.1,0,4.6c0,3,0,5.9,0,8.7l-0.2-0.2l24.4,0.1l7.1,0.1h1.9h0.7c-0.2,0-0.4,0-0.6,0h-1.9
			l-7,0.1l-24.6,0.1h-0.2v-0.2c0-2.8,0-5.7,0-8.7v-9.1l0,0l0.3-0.3l34,0.1h0.2v0.2c0,5.5-0.1,10-0.1,13.2c0,1.5,0,2.7,0,3.6
			c0,0.4,0,0.7,0,0.9C429.3,84.2,429.3,84.3,429.2,84.4z"/>
		<path class="st4" d="M423.2,72.7c0,0.1-5.3,0.3-11.8,0.3s-11.8-0.1-11.8-0.3s5.3-0.3,11.8-0.3S423.2,72.5,423.2,72.7z"/>
		<path class="st4" d="M423.2,76.5c0,0.1-5.3,0.3-11.8,0.3s-11.8-0.1-11.8-0.3s5.3-0.3,11.8-0.3S423.2,76.4,423.2,76.5z"/>
		<path class="st4" d="M405.8,84.3c0.1,0,0.3,10.6,0.3,23.8s-0.1,23.8-0.3,23.8s-0.3-10.6-0.3-23.8S405.6,84.3,405.8,84.3z"/>
		<path class="st4" d="M34.3,131c0-0.1,0-0.2,0-0.3v-0.9c0-0.9,0-2.1,0-3.6c0-3.1-0.1-7.6-0.1-13.1l0.2,0.2l-34.1,0.1l0.3-0.3l0,0
			v4.7c0,1.6,0,3.1,0,4.6c0,3,0,5.9,0,8.7l-0.2-0.2l24.4,0.1l7.1,0.1h1.9h0.7c-0.2,0-0.4,0-0.6,0h-1.9l-7,0.1l-24.6,0.1H0V131
			c0-2.8,0-5.7,0-8.7V113l0,0c-0.1,0.1,0.5-0.5,0.3-0.3l34.1,0.1h0.2v0.2c0,5.5-0.1,10.1-0.1,13.2c0,1.5,0,2.7,0,3.6
			c0,0.4,0,0.7,0,0.9S34.3,131,34.3,131z"/>
		<path class="st4" d="M28.3,119.2c0,0.1-5.3,0.3-11.8,0.3s-11.8-0.1-11.8-0.3s5.3-0.3,11.8-0.3S28.3,119.1,28.3,119.2z"/>
		<path class="st4" d="M28.3,123.1c0,0.1-5.3,0.3-11.8,0.3s-11.8-0.1-11.8-0.3s5.3-0.3,11.8-0.3S28.3,123,28.3,123.1z"/>
		<rect x="61.5" y="321.5" class="st9" width="34.1" height="18"/>
		<path class="st4" d="M95.5,339.5c0-0.1,0-0.2,0-0.3v-1c0-0.9,0-2.1,0-3.6c0-3.1-0.1-7.6-0.1-13.1l0.2,0.2l-34.1,0.1l0.3-0.3l0,0
			v9.3c0,3,0,5.9,0,8.7l-0.2-0.2l24.4,0.1l7.1,0.1H95h0.7c-0.2,0-0.4,0-0.6,0h-1.8l-7,0.1l-24.6,0.1h-0.2v-0.2c0-2.8,0-5.7,0-8.7
			v-9.3l0,0l0.3-0.3l34.1,0.1h0.2v0.2c0,5.5-0.1,10-0.1,13.2c0,1.5,0,2.7-0.1,3.6c0,0.4,0,0.7,0,0.9
			C95.7,339.2,95.6,339.3,95.5,339.5z"/>
		<path class="st4" d="M89.5,327.7c0,0.1-5.3,0.3-11.8,0.3s-11.8-0.1-11.8-0.3s5.3-0.3,11.8-0.3S89.5,327.6,89.5,327.7z"/>
		<path class="st4" d="M89.5,331.6c0,0.1-5.3,0.3-11.8,0.3s-11.8-0.1-11.8-0.3s5.3-0.3,11.8-0.3S89.5,331.5,89.5,331.6z"/>
		<path class="st4" d="M299.2,20.2c0,0,0-0.1,0-0.3s0-0.6,0-1c0-0.9,0-2.1,0-3.6c0-3.2-0.1-7.6-0.1-13.1l0.2,0.2l-34,0.1
			c-0.2,0.2,0.3-0.3,0.2-0.3l0,0v9.3c0,3,0,5.9,0,8.7l-0.2-0.2l24.4,0.1l7.1,0.1h1.9h0.7c0,0-0.2,0-0.6,0h-1.8l-7,0.1l-24.6,0.1
			h-0.2v-0.1c0-2.8,0-5.7,0-8.7V6.9c0-0.8,0-1.6,0-2.3V2.2l0,0c0,0.1,0.5-0.5,0.3-0.3l34,0.1h0.2v0.2c0,5.5-0.1,10.1-0.1,13.2
			c0,1.5,0,2.7,0,3.6v0.9C299.3,20,299.2,20.1,299.2,20.2z"/>
		<path class="st4" d="M293.2,8.5c0,0.1-5.3,0.3-11.8,0.3s-11.8-0.1-11.8-0.3s5.3-0.3,11.8-0.3S293.2,8.3,293.2,8.5z"/>
		<path class="st4" d="M293.2,12.3c0,0.1-5.3,0.3-11.8,0.3s-11.8-0.1-11.8-0.3s5.3-0.3,11.8-0.3S293.2,12.2,293.2,12.3z"/>
		<path class="st4" d="M42.2,135c-0.4,0.1-0.8,0.1-1.2,0.1l-3.2,0.1c-2.7,0-6.4,0.1-10.5,0.1c-4.3,0-8.2,0-10.9-0.1h-0.2V135
			c0-1.2,0.1-2.1,0.1-2.9c0-0.4,0-0.7,0.1-1.1c0.1,0.4,0.1,0.7,0.1,1.1c0,0.8,0,1.8,0.1,2.9l-0.2-0.2c2.7-0.1,6.6-0.1,10.9-0.1
			c4.1,0,7.8,0,10.5,0.1l3.2,0.1C41.5,134.9,41.9,134.9,42.2,135z"/>
		<path class="st4" d="M267.7,75.7c0-0.2,0.1-0.4,0.1-0.6c0.1-0.4,0.3-0.9,0.5-1.6l1.8-5.8c1.5-4.9,3.4-11.8,5.1-19.4
			c0.8-3.7,1.6-7.2,2.2-10.4l0,0c-0.1-5.2-0.2-9.6-0.2-12.8c0-1.5,0-2.7,0-3.7c0-0.4,0-0.9,0-1.3c0.1,0.4,0.1,0.9,0.1,1.3
			c0,0.9,0.1,2.1,0.2,3.7c0.1,3.2,0.3,7.6,0.4,12.8l0,0c-0.6,3.2-1.3,6.8-2.1,10.4c-1.8,7.7-3.7,14.5-5.3,19.4
			c-0.8,2.4-1.5,4.4-1.9,5.8l-0.6,1.6C267.9,75.2,267.8,75.5,267.7,75.7z"/>
		<path class="st4" d="M126.1,331.6c0,0.1-6.5,0.3-14.4,0.3s-14.4-0.1-14.4-0.3s6.5-0.3,14.4-0.3S126.1,331.5,126.1,331.6z"/>
	</g>
	<g id="freepik--Plant--inject-157">
		<path class="st4" d="M416.9,372.6c0.9-3,2.7-5.9,5.5-7.1s6.4-0.5,9.4,0.5s6,2.6,9.2,2.8s6.9-1.3,7.8-4.4c0.9-2.9-0.8-6-3-8.1
			c-7.6-7.3-19.7-7.1-27,0.5c-1.9,2-3.4,4.4-4.3,7"/>
		<g class="st12">
			<path d="M416.9,372.6c0.9-3,2.7-5.9,5.5-7.1s6.4-0.5,9.4,0.5s6,2.6,9.2,2.8s6.9-1.3,7.8-4.4c0.9-2.9-0.8-6-3-8.1
				c-7.6-7.3-19.7-7.1-27,0.5c-1.9,2-3.4,4.4-4.3,7"/>
		</g>
		<path class="st4" d="M391.4,385.6c-4.7-4.5-4.5-12.3-2.1-18.4s7.5-10.7,13.2-13.8c11.4-6,24.8-6.4,36.5-1.2
			c-5.7,0.3-11,3.3-14,8.2c-2.6,4.3-3.2,9.5-5.3,14C414.7,385.1,402.3,390,391.4,385.6"/>
		<path class="st4" d="M389.1,358.6c-5.2-6.2-5.9-16.1-5.2-24.1s2.6-16.2,1.4-24.1c-0.8-4.7-2.6-9.2-3.2-14s0.3-10.1,3.9-13.2
			c4.2-3.5,10.9-2.7,15.3,0.6s7,8.5,8.8,13.7c4.1,11.4,5.6,24,2.2,35.6s-11.3,22-22.9,25.5"/>
		<path class="st0" d="M386.6,409.2c0-0.2,0-0.5,0-0.7c0-0.5,0-1.2,0-2c0.1-1.8,0.2-4.3,0.6-7.5c0.5-3.7,1.1-7.3,2-11
			c1.1-4.4,2.8-8.7,5-12.7c4.1-7.2,9.8-13.4,16.7-18c1.3-0.9,2.6-1.6,3.7-2.2s2.1-1.1,2.9-1.5l1.9-0.8c0.2-0.1,0.4-0.2,0.7-0.2
			c-0.2,0.1-0.4,0.2-0.6,0.3l-1.8,0.9c-0.8,0.4-1.8,0.9-2.8,1.5s-2.3,1.4-3.6,2.3c-6.8,4.7-12.5,10.8-16.5,18
			c-4.8,8.4-6.1,17.2-7.1,23.5c-0.4,3.1-0.6,5.7-0.8,7.5l-0.1,2C386.6,408.8,386.6,409,386.6,409.2z"/>
		<path class="st4" d="M341.5,334.2c-9.7,5.8-9.6,11.1-8,16.2s7.6,8.5,12.5,6.6c2.8-1.1,4.8-3.5,6.5-5.9s3.3-5,5.8-6.8
			s5.9-2.4,8.3-0.7"/>
		<g class="st12">
			<path d="M341.5,334.2c-9.7,5.8-9.6,11.1-8,16.2s7.6,8.5,12.5,6.6c2.8-1.1,4.8-3.5,6.5-5.9s3.3-5,5.8-6.8s5.9-2.4,8.3-0.7"/>
		</g>
		<path class="st4" d="M334.2,340.6c2.5-3.5,8.8-4.5,12.7-2.8s6.8,5.2,9.4,8.6s5.1,7.1,8.7,9.5s8.6,3.3,12.2,0.9
			c2.3-1.7,3.8-4.3,4.1-7.2c0.3-2.8,0.1-5.7-0.6-8.4c-0.9-4.1-2.2-8.3-5.5-10.9c-3.6-2.9-8.6-3-13.3-2.9c-5.3,0.2-10.7,0.6-15.6,2.4
			S336.3,335.8,334.2,340.6"/>
		<path class="st0" d="M378.5,401.5c0-0.1,0-0.1,0-0.2c0-0.2,0-0.4,0-0.6c0-0.6,0-1.4-0.1-2.4c-0.1-2.1-0.1-5.1-0.2-8.8
			s-0.3-8.2-0.5-13.1s-0.6-10.3-1.4-16c-0.3-2.7-0.9-5.5-1.6-8.1c-1.5-4.7-3.7-9.1-6.7-13c-1.2-1.6-2.6-3.1-4.1-4.5
			c-2.2-2-4.6-3.7-7.2-4.9c-0.5-0.2-0.9-0.4-1.2-0.6l-1-0.4l-0.6-0.2c-0.1,0-0.2-0.1-0.2-0.1l0.2,0l0.6,0.2l1,0.3
			c0.4,0.1,0.8,0.3,1.3,0.5c2.7,1.2,5.2,2.9,7.4,4.9c1.5,1.4,2.9,2.9,4.2,4.5c1.4,1.9,2.6,3.9,3.7,6c1.2,2.3,2.2,4.7,3,7.1
			c0.8,2.7,1.3,5.4,1.6,8.2c0.8,5.6,1.1,11.1,1.4,16s0.4,9.4,0.5,13.1s0.1,6.8,0.1,8.8c0,1,0,1.8,0,2.4c0,0.3,0,0.5,0,0.6
			S378.5,401.5,378.5,401.5z"/>
		<path class="st0" d="M382,405.9c-0.5-1.4-0.8-2.7-1.1-4.1c-0.7-3.9-0.8-7.8-0.4-11.7c0.6-5.8,1.8-11.4,3.7-16.9
			c2-6.2,4.7-12.9,7-20c1.1-3.5,2.1-7,2.8-10.6c0.6-3.3,1.1-6.7,1.4-10.1c0.4-5.8,0.5-11.5,0.3-17.3c-0.2-4.9-0.4-8.9-0.6-11.7
			c-0.1-1.4-0.1-2.4-0.2-3.2c0-0.3,0-0.6,0-0.8c0-0.1,0-0.2,0-0.3c0,0.1,0,0.2,0,0.3c0,0.2,0,0.5,0.1,0.8c0.1,0.8,0.2,1.8,0.3,3.2
			c0.2,2.8,0.5,6.7,0.7,11.7c0.3,5.8,0.2,11.6-0.2,17.3c-0.3,3.4-0.7,6.8-1.4,10.2c-0.7,3.6-1.6,7.2-2.8,10.6c-2.3,7.2-5,13.8-7,20
			c-1.9,5.5-3.1,11.1-3.8,16.8c-0.4,3.9-0.3,7.8,0.3,11.6c0.2,1.4,0.5,2.4,0.6,3.1l0.2,0.8C382,405.7,382,405.8,382,405.9z"/>
		<polygon class="st3" points="406,410.2 360.6,410.2 359.5,401.5 406,401.5 		"/>
		<polygon class="st3" points="365.5,409.2 371.1,435.5 395.8,435.5 401.1,409.2 		"/>
		<path class="st3" d="M406,410.2c0,0.1-10,0.2-22.3,0.1s-22.3-0.2-22.3-0.3s10-0.2,22.3-0.1S406,410.1,406,410.2z"/>
		<path class="st0" d="M398.2,423.2c-1.2-0.9-2.6-1.7-4-2.3c-1.6-0.6-3.2-1-4.9-1c-2,0-4.1,0.4-6,1.1c-2.1,0.7-4,1.5-5.9,2
			c-1.7,0.4-3.4,0.4-5.1,0.1c-1.1-0.2-2.2-0.5-3.3-1c-0.3-0.1-0.5-0.3-0.8-0.5c-0.2-0.1-0.3-0.2-0.2-0.2s0.4,0.2,1.1,0.6
			c1,0.5,2.1,0.8,3.2,0.9c1.7,0.2,3.3,0.1,5-0.2c1.8-0.5,3.8-1.3,5.8-2c2-0.7,4-1.1,6.1-1.1c1.7,0,3.4,0.4,5,1.1
			c1.1,0.4,2.1,1,3,1.7c0.2,0.2,0.5,0.4,0.7,0.6C398.1,423.1,398.2,423.2,398.2,423.2z"/>
		<path class="st9" d="M397.9,425c-1.2-0.9-2.5-1.7-3.8-2.3c-1.5-0.6-3.1-1-4.7-1c-2,0-3.9,0.3-5.8,1c-2,0.7-3.9,1.4-5.7,1.9
			c-1.6,0.5-3.2,0.6-4.9,0.5c-1.1-0.1-2.2-0.4-3.2-0.9c-0.3-0.1-0.5-0.3-0.8-0.5c-0.2-0.1-0.2-0.2-0.2-0.2s0.4,0.2,1.1,0.5
			c1,0.4,2.1,0.7,3.1,0.7c1.6,0,3.2-0.2,4.8-0.6c1.8-0.5,3.6-1.3,5.6-2c1.9-0.7,3.9-1,5.9-1c1.7,0,3.3,0.4,4.8,1.1
			c1,0.4,2,1,2.8,1.7c0.2,0.2,0.5,0.4,0.7,0.6C397.8,424.9,397.9,424.9,397.9,425z"/>
		<path class="st9" d="M398.7,421.5c-1.3-0.9-2.7-1.8-4.1-2.4c-1.6-0.7-3.3-1.1-5-1.2c-2.1,0-4.2,0.3-6.2,1.1c-2,0.8-4,1.5-6.1,2
			c-1.7,0.3-3.5,0.3-5.3,0c-1.2-0.2-2.3-0.5-3.4-1.1c-0.3-0.1-0.6-0.3-0.8-0.5c-0.2-0.1-0.3-0.2-0.3-0.2s0.4,0.2,1.1,0.6
			c1.1,0.5,2.2,0.8,3.4,0.9c1.7,0.2,3.4,0.2,5.1-0.1c2-0.6,4-1.2,6-2c2-0.8,4.2-1.1,6.3-1.1c3,0.2,5.8,1.3,8.1,3.1
			c0.3,0.2,0.5,0.4,0.7,0.6C398.6,421.4,398.7,421.4,398.7,421.5z"/>
		<path class="st0" d="M406.4,410.3c0,0.1-10.2,0.2-22.8,0.2s-22.8-0.1-22.8-0.2s10.2-0.2,22.8-0.2S406.4,410.2,406.4,410.3z"/>
	</g>
</g>
</svg>
