<?xml version="1.0" encoding="utf-8"?>
<!-- Generator: Adobe Illustrator 22.0.1, SVG Export Plug-In . SVG Version: 6.00 Build 0)  -->
<svg version="1.1" id="Layer_1" xmlns="http://www.w3.org/2000/svg" xmlns:xlink="http://www.w3.org/1999/xlink" x="0px" y="0px"
	 viewBox="0 0 674.5 401.2" style="enable-background:new 0 0 674.5 401.2;" xml:space="preserve">
<style type="text/css">
	.st0{fill:#F5F5F5;}
	.st1{fill:#E0E0E0;}
	.st2{fill:#EBEBEB;}
	.st3{fill:#263238;}
	.st4{fill:#FF725E;}
	.st5{opacity:0.2;}
	.st6{fill:#FAFAFA;}
	.st7{fill:#455A64;}
	.st8{fill:#FFFFFF;}
	.st9{fill:none;}
	.st10{fill:#FFBE9D;}
	.st11{fill:#EB996E;}
</style>
<g>
	<g id="freepik--background-complete--inject-613">
		<rect x="130.5" class="st0" width="60.4" height="82.7"/>
		<rect x="115.2" y="10.4" class="st1" width="60.4" height="82.7"/>
		<path class="st2" d="M460.4,123.5H460h-1.2h-4.5l-17.1,0.1l-58.9,0.2h-0.2v-0.2c-2.3-7.8,2.2-15.9,9.9-18.2c1.5-0.4,3-0.6,4.5-0.6
			l-0.2,0.3c-0.4-1.3-0.5-2.7-0.5-4c0.1-4.6,2.7-8.8,6.7-11c3.9-2,8.6-2,12.5,0.1l-0.3,0.1c2.2-5,6.3-8.9,11.4-10.6
			c4.7-1.8,10-1.5,14.5,0.7c4,2.1,7.2,5.6,9,9.8c1.6,3.7,2,7.8,1.1,11.8l-0.2-0.2c2.3-0.2,4.7,0.1,6.8,1c1.9,0.8,3.6,2,5.1,3.5
			c0.6,0.7,1.2,1.5,1.6,2.3c0.4,0.8,0.6,1.6,0.9,2.4c0.3,1.5,0.5,2.9,0.6,4.4c0.1,2.1-0.1,4.1-0.5,6.1c-0.1,0.5-0.3,1-0.4,1.6
			L460.4,123.5"/>
		<path class="st2" d="M617.4,84.2c-8.2,1.4-13.7,9.1-12.4,17.3s9.1,13.7,17.3,12.4c6.9-1.1,12-6.8,12.5-13.8l0,0l4.1-0.7l2.2-4.7
			l3.2,3.7l5.2-0.9l2.2-4.6l3.2,3.7l4.4-0.7l1.3-2.8l2,2.3l2.6-0.4l2.8-3.8l-4.9-5.4L632.7,91C629.5,85.8,623.4,83.1,617.4,84.2z
			 M609.1,100.8c-0.4-2.4,1.2-4.6,3.6-5s4.6,1.2,5,3.6c0.4,2.3-1.2,4.6-3.5,5C611.7,104.8,609.5,103.2,609.1,100.8
			C609.1,100.9,609.1,100.8,609.1,100.8z"/>
		<path class="st2" d="M602.2,199.2l1.9,34.1c0.1,1.2,1.1,2.2,2.3,2.2l61.3,0.4c1.3,0,2.3-1,2.3-2.3c0,0,0,0,0,0l0.2-26.5
			c0-1.3-1-2.3-2.3-2.3c0,0,0,0,0,0h-37.7c-0.6,0-1.2-0.2-1.6-0.7l-6.5-6.5c-0.4-0.4-1-0.7-1.6-0.7l-15.9-0.1c-1.3,0-2.3,1-2.3,2.3
			C602.2,199.1,602.2,199.2,602.2,199.2z"/>
		
			<rect x="616.5" y="187.1" transform="matrix(7.330317e-03 -1 1 7.330317e-03 411.323 855.4958)" class="st0" width="40.1" height="67"/>
		<path class="st2" d="M597.8,203.9l4.8,41.8c0.1,0.7,0.7,1.3,1.5,1.3l65.3,0.5c0.8,0,1.4-0.6,1.5-1.4l3.6-41.8
			c0.1-0.8-0.5-1.5-1.3-1.6c0,0-0.1,0-0.1,0l-73.7-0.5c-0.8,0-1.5,0.6-1.5,1.5C597.8,203.7,597.8,203.8,597.8,203.9z"/>
		<path class="st2" d="M594.4,387.5c-15.5-10.9-19.1-31-18.5-49.2c0.1-3-0.2-6.2,1.2-8.9s4.8-4.5,7.5-3.2c2.2,1.1,3.2,3.7,4.5,5.8
			c1.7,2.9,4.1,5.2,7.1,6.8c1.9,1,4.3,1.6,6.2,0.6c2.6-1.4,2.9-5,2.9-8.1c0-5.6-0.1-11.2-0.1-16.8c-0.2-3,0.1-6,0.9-8.9
			c0.9-2.9,3-5.5,5.9-6.3s6.4,0.9,7,3.8c0.1,1.2,0.1,2.5,0.1,3.8c0.1,1.2,0.7,2.6,1.8,3s2.4-0.5,3.3-1.4c3.1-3,5.2-7,7.2-10.8
			s3.9-7.9,6.7-11.2s6.7-5.9,11-6.2s8.9,2.4,10,6.6s-1.4,8.5-4.1,12c-4,5.1-8.7,9.6-14,13.3c-1,0.6-1.8,1.5-2.3,2.5
			c-0.7,2,1.2,4,3.2,4.7c2.2,0.8,4.7,0.5,7,0.8s4.9,1.3,5.8,3.5c1.2,3.1-1.3,6.3-3.9,8.4c-5.1,4.2-10.8,7.6-17,9.8
			c-2.2,0.8-4.5,1.5-6.3,3.1s-2.9,4.3-1.8,6.4s3.8,2.8,6.2,2.4s4.4-1.7,6.6-2.5c4.1-1.6,9.5-1.3,12.1,2.3c1.6,2.5,2,5.6,1,8.4
			c-1,2.8-2.6,5.3-4.6,7.4c-6.6,7.9-15.1,13.8-24.7,17.3C612.9,390,604,391,594.4,387.5"/>
		<path class="st1" d="M594.2,400.9c0.8-8.4,2.5-16.7,4.9-24.8c3-9.9,6.6-19.5,10.7-29l3.2-7.5c1.1-2.5,2.1-4.9,3.3-7.2
			c2.3-4.4,4.8-8.7,7.5-12.9c2.6-4,5.2-7.7,7.6-11.1s4.8-6.6,7.1-9.4c3.6-4.4,7.5-8.6,11.7-12.4c1.5-1.3,2.7-2.3,3.5-3l0.9-0.8
			c0.1-0.1,0.2-0.2,0.3-0.2l-0.3,0.3c-0.2,0.2-0.5,0.5-0.9,0.8c-0.8,0.7-2,1.7-3.4,3.1c-4.1,3.8-8,8-11.5,12.4c-2.2,2.8-4.6,6-7,9.4
			s-5,7.1-7.6,11.1c-2.7,4.2-5.2,8.5-7.4,12.9c-1.2,2.3-2.2,4.7-3.2,7.2l-3.2,7.5c-4.1,9.5-7.7,19.1-10.7,29
			c-2.4,8.1-4.1,16.3-5,24.7"/>
		<path class="st1" d="M616.4,332.4c-0.1-0.4-0.2-0.9-0.3-1.3c-0.2-0.8-0.3-2-0.6-3.5c-0.4-3-0.9-7.1-1.3-11.7s-1-8.7-1.5-11.7
			c-0.2-1.5-0.4-2.7-0.6-3.5c-0.1-0.4-0.2-0.9-0.2-1.3c0.2,0.4,0.3,0.8,0.4,1.3c0.2,0.8,0.5,2,0.8,3.5c0.6,3,1.1,7.1,1.6,11.7
			s0.9,8.6,1.2,11.8c0.2,1.4,0.3,2.6,0.4,3.6C616.4,331.5,616.5,332,616.4,332.4z"/>
		<path class="st1" d="M655.1,325.2c-0.5,0.1-1,0.2-1.5,0.2c-1,0.1-2.4,0.2-4.2,0.4c-3.5,0.4-8.4,1.1-13.8,2.1s-10.2,2.1-13.6,3.1
			c-1.7,0.5-3.1,0.9-4.1,1.1c-0.5,0.2-1,0.3-1.5,0.4c0.5-0.2,0.9-0.4,1.5-0.6c0.9-0.3,2.3-0.8,4-1.3c3.4-1,8.2-2.2,13.6-3.2
			c4.6-0.9,9.2-1.5,13.8-1.9c1.8-0.2,3.2-0.2,4.2-0.2C654.1,325.1,654.6,325.1,655.1,325.2z"/>
		<path class="st1" d="M599.6,375.4c-0.1-0.1-0.2-0.3-0.3-0.5c-0.2-0.4-0.4-0.8-0.7-1.4c-0.6-1.2-1.3-3-2.3-5.2
			c-1.9-4.4-4.2-10.6-6.8-17.5s-4.9-13.1-6.6-17.6c-0.9-2.2-1.6-4-2.1-5.3l-0.6-1.4c-0.1-0.2-0.1-0.3-0.2-0.5
			c0.1,0.1,0.2,0.3,0.3,0.5l0.7,1.4c0.6,1.2,1.3,3,2.3,5.2c1.9,4.4,4.2,10.6,6.8,17.5s4.9,13.1,6.6,17.6l2.1,5.3l0.6,1.4
			C599.5,375,599.6,375.2,599.6,375.4z"/>
		<path class="st1" d="M651,358.8c-0.2,0.1-0.3,0.2-0.5,0.2l-1.5,0.5l-5.5,1.8c-4.7,1.5-11,3.7-18.1,6s-13.5,4.5-18.2,5.9
			c-2.3,0.7-4.2,1.3-5.6,1.6l-1.5,0.4c-0.2,0.1-0.4,0.1-0.5,0.1c0.2-0.1,0.3-0.2,0.5-0.2l1.5-0.5l5.5-1.8c4.7-1.5,11-3.7,18.1-6.1
			s13.5-4.5,18.2-5.9c2.3-0.7,4.2-1.3,5.6-1.6l1.5-0.4C650.6,358.8,650.8,358.8,651,358.8z"/>
	</g>
	<g id="freepik--Floor--inject-613">
		<path class="st3" d="M657.7,401c0,0.1-143.8,0.3-321.1,0.3S15.5,401.1,15.5,401s143.7-0.2,321.1-0.2S657.7,400.8,657.7,401z"/>
	</g>
	<g id="freepik--Plant--inject-613">
		<path class="st4" d="M583.6,366c1.7,2.2,4.9,1.3,6.3-0.2s1.9-3.6,2.4-5.6c1.1-4.5,2.1-9.3,0.9-13.8c-0.3-1.4-1-2.6-2-3.7
			c-1-1-2.5-1.4-3.8-1.1c-1.6,0.5-2.5,2.1-3.1,3.6c-1.9,4.5-2.8,9.4-2.5,14.2C581.7,361.9,582.4,364.1,583.6,366"/>
		<g class="st5">
			<path d="M583.6,366c1.7,2.2,4.9,1.3,6.3-0.2s1.9-3.6,2.4-5.6c1.1-4.5,2.1-9.3,0.9-13.8c-0.3-1.4-1-2.6-2-3.7
				c-1-1-2.5-1.4-3.8-1.1c-1.6,0.5-2.5,2.1-3.1,3.6c-1.9,4.5-2.8,9.4-2.5,14.2C581.7,361.9,582.4,364.1,583.6,366"/>
		</g>
		<path class="st4" d="M590.3,377.5c2.7-1.4,5.7-2,8.7-1.5c1.6,0.1,3.2,0.7,4.4,1.7c1.2,1.1,1.5,3.2,0.3,4.3
			c-0.8,0.6-1.7,0.9-2.7,0.8c-2.3,0.1-4.9-0.2-6.7,1.3c-1,0.8-1.7,2.2-2.9,2.7c-1.3,0.4-2.7-0.2-3.4-1.3c-0.7-1.1-0.9-2.5-0.6-3.7
			C587.7,380,588.7,378.4,590.3,377.5z"/>
		<path class="st4" d="M579.3,369.6c1.6-2.3,1.9-5.2,0.9-7.9c-1-2.6-2.8-4.8-5-6.5c-2.5-2-5.4-3.5-8.5-4.5c-1.2-0.4-2.5-0.6-3.7-0.4
			c-1.3,0.1-2.4,0.9-3,2c-0.8,1.7,0.2,3.7,1.1,5.3c1.7,2.8,3.7,5.5,5.8,8c1.7,2,3.7,4,6.2,4.8s5.1,0.6,6.3-1.2"/>
		<path class="st3" d="M585.3,401.2c0.1-0.3,0.1-0.7,0.1-1.1c0-0.8,0.1-1.8,0.1-2.9s0.2-2.7,0.4-4.3c0.3-1.7,0.7-3.4,1.3-5.1
			c0.6-1.7,1.3-3.2,2.3-4.6c0.8-1.2,1.9-2.1,3.1-2.8c0.8-0.5,1.7-0.8,2.7-1c0.3,0,0.7-0.1,1-0.2c-0.4,0-0.7,0-1.1,0
			c-1,0.1-1.9,0.4-2.8,0.9c-1.3,0.7-2.4,1.7-3.3,2.9c-1,1.5-1.8,3.1-2.4,4.8c-0.6,1.7-1,3.4-1.3,5.2c-0.2,1.4-0.3,2.9-0.3,4.3
			c0,1.2,0,2.2,0,2.9C585.2,400.4,585.2,400.8,585.3,401.2z"/>
		<path class="st3" d="M585.4,398.9c0-0.2,0-0.3,0-0.5c0-0.4,0-0.8-0.1-1.4c-0.1-1.2-0.2-3-0.2-5.2c-0.1-4.4,0-10.4,0.3-17
			s1.1-12.6,1.7-17c0.2-1.1,0.3-2,0.5-2.9s0.3-1.6,0.4-2.2s0.2-1,0.3-1.4c0-0.2,0.1-0.3,0.1-0.5c-0.1,0.1-0.1,0.3-0.2,0.5l-0.3,1.4
			c-0.2,0.6-0.3,1.3-0.5,2.2s-0.4,1.8-0.5,2.9c-0.9,5.6-1.5,11.3-1.9,17c-0.4,6.6-0.4,12.7-0.2,17.1c0.1,2.2,0.2,4,0.3,5.2l0.2,1.4
			C585.3,398.6,585.3,398.8,585.4,398.9z"/>
		<path class="st3" d="M584.8,387.3c0-0.5,0-1-0.1-1.5c-0.2-1.3-0.4-2.6-0.7-4c-0.4-1.9-0.9-3.8-1.6-5.7c-0.8-2.3-1.7-4.6-2.8-6.7
			c-1.9-4-4.5-7.6-7.7-10.7c-0.6-0.5-1.1-1-1.8-1.5c-0.3-0.2-0.5-0.4-0.8-0.6l-0.7-0.4c-0.4-0.3-0.8-0.5-1.3-0.7
			c1.5,1.1,2.9,2.2,4.2,3.4c3.1,3.1,5.6,6.7,7.4,10.7c1.1,2.2,2,4.4,2.8,6.7c0.6,1.9,1.2,3.7,1.7,5.7c0.4,1.6,0.6,3,0.8,3.9
			C584.6,386.3,584.7,386.8,584.8,387.3z"/>
	</g>
	<g id="freepik--User--inject-613">
		<rect x="0.1" y="176.5" class="st6" width="113.1" height="75.7"/>
		<path class="st3" d="M82.5,222.4h-3v-18.1c-0.2-4.4-3.8-7.8-8.2-7.6c-4.1,0.1-7.5,3.5-7.6,7.6v18.1h-3v-18.1
			c0.2-6,5.2-10.8,11.2-10.6c5.8,0.2,10.4,4.8,10.6,10.6L82.5,222.4z"/>
		<path class="st3" d="M60,214.3h23.1c1.9,0,3.4,1.5,3.4,3.4v12.4c0,1.9-1.5,3.4-3.4,3.4H60c-1.9,0-3.4-1.5-3.4-3.4v-12.4
			C56.6,215.8,58.2,214.3,60,214.3z"/>
		<path class="st7" d="M71.6,223.9c-1.4,0-2.5-1.1-2.5-2.5c0-1.4,1.1-2.5,2.5-2.5s2.5,1.1,2.5,2.5l0,0
			C74,222.8,72.9,223.9,71.6,223.9"/>
		<rect x="70.9" y="222.4" class="st7" width="1.4" height="5.1"/>
		<path class="st4" d="M55.9,222.2c4.4-1.9,7.2-6.3,7.2-11.2c0-6.7-5-12.1-11.3-12.1s-11.3,5.4-11.4,12c-0.1,4.9,2.7,9.3,7.2,11.3
			C30.3,224.8,31,243.7,31,243.7l41.2,0.2C72.2,243.9,73.2,224.8,55.9,222.2z"/>
		<path class="st3" d="M113.2,252.2c0,0,0-0.5,0-1.4s0-2.2,0-4c0-3.5,0-8.6-0.1-15.2c0-13.2-0.1-32.1-0.1-55.1l0.2,0.2H0.2l0,0
			l0.3-0.3c0,27,0,52.6,0,75.7l-0.2-0.2l81.4,0.1l23.3,0.1h6.2h1.6h0.6h-2.1h-6.1l-23.2,0.1l-81.6,0.1H0V252c0-23.1,0-48.8,0-75.7
			V176h0.3l113.1,0.1h0.2v0.2c0,23.1-0.1,42-0.1,55.2c0,6.6,0,11.7-0.1,15.2c0,1.7,0,3,0,4S113.2,252.2,113.2,252.2z"/>
		<path class="st3" d="M113.1,185.6c0,0.1-25.3,0.3-56.5,0.3s-56.5-0.1-56.5-0.3s25.3-0.3,56.5-0.3S113.1,185.4,113.1,185.6z"/>
		<path class="st3" d="M7.6,181c0,0.6-0.5,1.2-1.2,1.2s-1.2-0.5-1.2-1.2c0-0.6,0.5-1.2,1.2-1.2h0C7,179.9,7.6,180.4,7.6,181z"/>
		<path class="st3" d="M11.4,181c0,0.6-0.5,1.2-1.2,1.2c-0.6,0-1.2-0.5-1.2-1.2s0.5-1.2,1.2-1.2C10.9,179.9,11.4,180.4,11.4,181z"/>
		<path class="st3" d="M15.5,181c0,0.6-0.5,1.2-1.2,1.2c-0.6,0-1.2-0.5-1.2-1.2c0-0.6,0.5-1.2,1.1-1.2
			C14.9,179.8,15.5,180.4,15.5,181C15.5,181,15.5,181,15.5,181z"/>
		<path class="st3" d="M113.2,252.2c0,0,0-0.5,0-1.4s0-2.2,0-4c0-3.5,0-8.6-0.1-15.2c0-13.2-0.1-32.1-0.1-55.1l0.2,0.2H0.2l0,0
			l0.3-0.3c0,27,0,52.6,0,75.7l-0.2-0.2l81.4,0.1l23.3,0.1h6.2h1.6h0.6h-2.1h-6.1l-23.2,0.1l-81.6,0.1H0V252c0-23.1,0-48.8,0-75.7
			V176h0.3l113.1,0.1h0.2v0.2c0,23.1-0.1,42-0.1,55.2c0,6.6,0,11.7-0.1,15.2c0,1.7,0,3,0,4S113.2,252.2,113.2,252.2z"/>
		<path class="st3" d="M55.9,254.7c-0.1,0-0.3-0.6-0.3-1.2s0.1-1.2,0.3-1.2s0.3,0.6,0.3,1.2S56.1,254.7,55.9,254.7z"/>
		<path class="st3" d="M55.9,265.6c-0.3-0.9-0.3-1.8-0.3-2.7c-0.1-0.9,0-1.8,0.3-2.7c0.3,0.9,0.4,1.8,0.3,2.7
			C56.3,263.8,56.2,264.8,55.9,265.6z"/>
		<path class="st3" d="M55.9,276.6c-0.3-0.9-0.3-1.8-0.3-2.7c-0.1-0.9,0-1.8,0.3-2.7c0.3,0.9,0.4,1.8,0.3,2.7
			C56.3,274.8,56.2,275.7,55.9,276.6z"/>
		<path class="st3" d="M55.9,287.5c-0.3-0.9-0.3-1.8-0.3-2.7c-0.1-0.9,0-1.8,0.3-2.7c0.3,0.9,0.4,1.8,0.3,2.7
			C56.3,285.7,56.2,286.6,55.9,287.5z"/>
		<path class="st3" d="M55.9,298.5c-0.3-0.9-0.3-1.8-0.3-2.7c-0.1-0.9,0-1.8,0.3-2.7c0.3,0.9,0.4,1.8,0.3,2.7
			C56.3,296.6,56.2,297.6,55.9,298.5z"/>
		<path class="st3" d="M58.4,306.4c-0.8,0.3-1.7,0.3-2.5,0.3l-0.3-0.3l0,0v-0.9c0-0.3,0-0.6,0.1-0.8c0-0.5,0.1-0.7,0.2-0.7
			s0.1,0.3,0.2,0.7c0,0.2,0,0.5,0,0.8v0.5v0.5l0,0c-0.1-0.1,0.2,0.3-0.3-0.3C56.7,306.1,57.6,306.2,58.4,306.4z"/>
		<path class="st3" d="M68.2,306.4c-0.8,0.3-1.6,0.3-2.5,0.3c-0.8,0.1-1.7,0-2.4-0.3c0.8-0.3,1.6-0.3,2.4-0.3
			C66.6,306.1,67.4,306.2,68.2,306.4z"/>
		<path class="st3" d="M78.1,306.4c-0.8,0.3-1.6,0.3-2.5,0.3c-0.8,0.1-1.7,0-2.5-0.3c0.8-0.3,1.6-0.3,2.5-0.3
			C76.4,306.1,77.3,306.2,78.1,306.4z"/>
		<path class="st3" d="M87.9,306.4c-0.8,0.3-1.6,0.3-2.5,0.3c-0.8,0.1-1.7,0-2.5-0.3c0.8-0.3,1.6-0.3,2.5-0.3
			C86.3,306.1,87.1,306.2,87.9,306.4z"/>
		<path class="st3" d="M97.7,306.4c-1.6,0.3-3.3,0.3-4.9,0C94.4,306.1,96.1,306.1,97.7,306.4z"/>
		<path class="st3" d="M107.5,306.4c-1.6,0.3-3.3,0.3-4.9,0C104.3,306.1,105.9,306.1,107.5,306.4z"/>
		<path class="st3" d="M117.4,306.4c-1.6,0.3-3.3,0.3-4.9,0C114.1,306.1,115.8,306.1,117.4,306.4z"/>
		<path class="st3" d="M127.2,306.4c-1.6,0.3-3.3,0.3-4.9,0C123.9,306.1,125.6,306.1,127.2,306.4z"/>
		<path class="st3" d="M137,306.4c-1.6,0.3-3.3,0.3-4.9,0C133.7,306.1,135.4,306.1,137,306.4z"/>
		<path class="st3" d="M146.9,306.4c-1.6,0.3-3.3,0.3-4.9,0C143.6,306.1,145.2,306.1,146.9,306.4z"/>
		<path class="st3" d="M156.7,306.4c-1.6,0.3-3.3,0.3-4.9,0C153.4,306.1,155.1,306.1,156.7,306.4z"/>
		<path class="st3" d="M164.1,306.4c0,0.1-0.6,0.3-1.2,0.3s-1.2-0.1-1.2-0.3s0.6-0.3,1.2-0.3S164.1,306.3,164.1,306.4z"/>
	</g>
	<g id="freepik--Document--inject-613">
		<rect x="104.9" y="23.1" class="st8" width="60.4" height="82.7"/>
		<path class="st3" d="M165.3,105.7c0,0,0-0.1,0-0.4s0-0.7,0-1.2c0-1,0-2.6,0-4.5c0-3.9,0-9.7-0.1-17c0-14.6-0.1-35.2-0.2-59.6
			l0.3,0.3l-60.4,0.1l0,0l0.3-0.3v82.7l-0.2-0.2l43.9,0.1l12.2,0.1h3.2L165.3,105.7c0.1-0.1-0.3-0.1-1-0.1h-3.2l-12.2,0.1l-44,0.2
			h-0.2v-0.2c0-23.2-0.1-51.8-0.1-82.7v-0.3h0.3h60.4h0.3v0.3c0,24.5-0.1,45.2-0.1,59.8c0,7.2,0,13-0.1,16.9c0,1.9,0,3.4,0,4.5
			c0,0.5,0,0.9,0,1.1C165.4,105.4,165.4,105.6,165.3,105.7z"/>
		<path class="st3" d="M141.8,39.7c0,0.2-6.6,0.3-14.7,0.3s-14.7-0.1-14.7-0.3s6.6-0.3,14.7-0.3S141.8,39.6,141.8,39.7z"/>
		<path class="st3" d="M157.7,46.9c0,0.2-10.1,0.3-22.6,0.3s-22.6-0.1-22.6-0.3s10.1-0.3,22.6-0.3S157.7,46.7,157.7,46.9z"/>
		<path class="st3" d="M157.7,54.4c0,0.2-10.1,0.3-22.6,0.3s-22.6-0.1-22.6-0.3s10.1-0.3,22.6-0.3S157.7,54.2,157.7,54.4z"/>
		<path class="st3" d="M157.7,61.9c0,0.2-10.1,0.3-22.6,0.3s-22.6-0.1-22.6-0.3s10.1-0.3,22.6-0.3S157.7,61.7,157.7,61.9z"/>
		<path class="st3" d="M157.7,69.4c0,0.2-10.1,0.3-22.6,0.3s-22.6-0.1-22.6-0.3s10.1-0.3,22.6-0.3S157.7,69.2,157.7,69.4z"/>
		<path class="st3" d="M157.7,76.9c0,0.2-10.1,0.3-22.6,0.3s-22.6-0.1-22.6-0.3s10.1-0.3,22.6-0.3S157.7,76.7,157.7,76.9z"/>
		<path class="st3" d="M157.7,84.4c0,0.2-10.1,0.3-22.6,0.3s-22.6-0.1-22.6-0.3s10.1-0.3,22.6-0.3S157.7,84.2,157.7,84.4z"/>
		<path class="st3" d="M136.8,91.9c0,0.2-5.4,0.3-12.1,0.3s-12.2-0.1-12.2-0.3s5.4-0.3,12.2-0.3S136.8,91.7,136.8,91.9z"/>
		<circle class="st4" cx="160" cy="99.5" r="12.3"/>
		<path class="st1" d="M167.1,94.8c0.5,0.5-1.9,3.9-5.4,7.7c-0.6,0.6-1.1,1.2-1.6,1.7l-0.9,0.8l-0.9-0.7c-3.1-2.6-5.1-4.8-4.7-5.2
			s3,0.9,6.2,3.3l-1.7,0.1c0.5-0.6,1-1.2,1.6-1.8C163.3,96.9,166.5,94.3,167.1,94.8z"/>
		<path class="st3" d="M130.5,110.3c-0.3-1.6-0.3-3.4,0-5C130.8,106.9,130.8,108.6,130.5,110.3z"/>
		<path class="st3" d="M130.5,120.3c-0.3-1.6-0.3-3.4,0-5C130.8,116.9,130.8,118.6,130.5,120.3z"/>
		<path class="st3" d="M130.5,130.3c-0.3-1.6-0.3-3.4,0-5C130.8,126.9,130.8,128.6,130.5,130.3z"/>
		<path class="st3" d="M130.5,140.3c-0.3-1.6-0.3-3.4,0-5C130.8,136.9,130.8,138.6,130.5,140.3z"/>
		<path class="st3" d="M130.5,150.3c-0.3-1.6-0.3-3.4,0-5C130.8,146.9,130.8,148.6,130.5,150.3z"/>
		<path class="st3" d="M130.5,160.3c-0.3-1.6-0.3-3.4,0-5C130.8,156.9,130.8,158.6,130.5,160.3z"/>
		<path class="st3" d="M130.5,170.3c-0.3-1.6-0.3-3.4,0-5C130.8,166.9,130.8,168.6,130.5,170.3z"/>
		<path class="st3" d="M130.5,180.3c-0.3-1.6-0.3-3.4,0-5C130.8,176.9,130.8,178.6,130.5,180.3z"/>
		<path class="st3" d="M135.3,185.5c-0.8,0.3-1.7,0.3-2.5,0.3c-0.8,0-1.6,0-2.3-0.2h-0.1v-0.1c0-0.1,0.1-0.2,0.1-0.2
			s0.1,0.1,0.1,0.2l-0.1-0.1c0.8-0.1,1.5-0.2,2.3-0.2C133.6,185.1,134.5,185.2,135.3,185.5z"/>
		<path class="st3" d="M145.3,185.5c-1.6,0.3-3.4,0.3-5,0C141.9,185.1,143.7,185.1,145.3,185.5z"/>
		<path class="st3" d="M155.3,185.5c-1.6,0.3-3.4,0.3-5,0C151.9,185.1,153.7,185.1,155.3,185.5z"/>
		<path class="st3" d="M165.3,185.5c-1.6,0.3-3.4,0.3-5,0C161.9,185.1,163.7,185.1,165.3,185.5z"/>
		<path class="st3" d="M175.3,185.5c-1.6,0.3-3.4,0.3-5,0C171.9,185.1,173.7,185.1,175.3,185.5z"/>
	</g>
	<g id="freepik--Cloud--inject-613">
		<path class="st3" d="M341.9,95c-0.3-1.6-0.3-3.4,0-5C342.2,91.6,342.2,93.4,341.9,95z"/>
		<path class="st3" d="M341.9,105c-0.3-1.6-0.3-3.4,0-5C342.2,101.6,342.2,103.4,341.9,105z"/>
		<path class="st3" d="M341.9,115c-0.3-1.6-0.3-3.4,0-5C342.2,111.6,342.2,113.4,341.9,115z"/>
		<path class="st3" d="M341.9,125c-0.3-1.6-0.3-3.4,0-5C342.2,121.6,342.2,123.3,341.9,125z"/>
		<path class="st3" d="M341.9,135c-0.3-1.6-0.3-3.4,0-5C342.2,131.6,342.2,133.4,341.9,135z"/>
		<path class="st3" d="M341.9,145c-0.3-1.6-0.3-3.4,0-5C342.2,141.6,342.2,143.4,341.9,145z"/>
		<path class="st3" d="M341.9,155c-0.3-1.6-0.3-3.4,0-5C342.2,151.6,342.2,153.4,341.9,155z"/>
		<path class="st3" d="M341.9,165c-0.3-1.6-0.3-3.4,0-5C342.2,161.6,342.2,163.4,341.9,165z"/>
		<path class="st4" d="M409.8,101.4h-0.6h-1.8h-6.9l-25.8,0.1l-89.2,0.2h-0.2l-0.1-0.2c-3.4-11.7,3.3-24.1,15.1-27.5
			c2.2-0.6,4.5-0.9,6.8-0.9l-0.3,0.4c-0.5-2-0.8-4-0.7-6c0.3-6.9,4.2-13.6,10.2-16.6c5.9-3.1,13-3.1,18.9,0.1l-0.5,0.2
			c3.3-7.5,9.5-13.4,17.3-16.1c7.4-2.7,15.5-2.3,21.9,1c6.1,3.2,10.9,8.5,13.6,14.8c2.5,5.6,3,11.8,1.7,17.8l-0.2-0.3
			c3.5-0.4,7.1,0.1,10.4,1.5c2.9,1.2,5.5,3,7.7,5.2c1,1,1.8,2.2,2.4,3.5c0.6,1.2,1,2.4,1.3,3.7c0.5,2.2,0.8,4.4,0.9,6.7
			c0.1,3.1-0.2,6.2-0.8,9.3c-0.2,0.8-0.4,1.6-0.6,2.3C409.9,101.2,409.8,101.4,409.8,101.4"/>
		<path class="st1" d="M398.5,67.2h-3.9V44c0-5.6-4.5-10.1-10.1-10.1s-10.1,4.5-10.1,10.1c0,0,0,0,0,0v23.2h-3.9V44
			c0-7.7,6.2-13.9,13.9-13.9s13.9,6.2,13.9,13.9V67.2z"/>
		<path class="st1" d="M368.9,56.9h31.3c1.9,0,3.4,1.5,3.4,3.4v17.7c0,1.9-1.5,3.4-3.4,3.4h-31.3c-1.9,0-3.4-1.5-3.4-3.4V60.2
			C365.5,58.4,367,56.9,368.9,56.9z"/>
		<path class="st7" d="M384.5,69.1c-1.8,0-3.2-1.4-3.2-3.2s1.4-3.2,3.2-3.2c1.8,0,3.2,1.4,3.2,3.2c0,0,0,0,0,0
			C387.7,67.7,386.3,69.1,384.5,69.1"/>
		<rect x="383.7" y="67.2" class="st7" width="1.7" height="6.6"/>
	</g>
	<g id="freepik--Key--inject-613">
		<path class="st3" d="M618.9,59.5c8.4-7.8,8.9-21,1.1-29.5s-21-8.9-29.5-1.1c-7.1,6.6-8.7,17.1-3.9,25.5l-4.2,4l1,7l-6.6-1.8
			l-5.3,5l1,7l-6.6-1.8l-4.5,4.2l0.6,4.3l-4-1.1l-2.6,2.4l-0.4,6.5l9.7,2.4l31.6-29.5C603.8,66.7,612.8,65.2,618.9,59.5z
			 M615.8,33.8c2.3,2.4,2.1,6.2-0.3,8.5c-2.4,2.3-6.2,2.1-8.5-0.3c-2.3-2.4-2.1-6.2,0.3-8.5c0,0,0,0,0,0
			C609.8,31.3,613.6,31.4,615.8,33.8L615.8,33.8z"/>
		<path class="st9" d="M618.9,59.5c8.4-7.8,8.9-21,1.1-29.5s-21-8.9-29.5-1.1c-7.1,6.6-8.7,17.1-3.9,25.5l-4.2,4l1,7l-6.6-1.8
			l-5.3,5l1,7l-6.6-1.8l-4.5,4.2l0.6,4.3l-4-1.1l-2.6,2.4l-0.4,6.5l9.7,2.4l31.6-29.5C603.8,66.7,612.8,65.2,618.9,59.5z
			 M615.8,33.8c2.3,2.4,2.1,6.2-0.3,8.5c-2.4,2.3-6.2,2.1-8.5-0.3c-2.3-2.4-2.1-6.2,0.3-8.5c0,0,0,0,0,0
			C609.8,31.3,613.6,31.4,615.8,33.8L615.8,33.8z"/>
		<path class="st3" d="M615.8,33.8c0,0-0.4-0.4-1.2-0.9c-1.1-0.7-2.5-1-3.8-0.8c-3.2,0.3-5.5,3.2-5.1,6.3c0.3,3.2,3.2,5.5,6.3,5.1
			c2.5-0.3,4.6-2.2,5.1-4.7c0.2-1.3,0-2.6-0.6-3.8C616.2,34.2,615.8,33.9,615.8,33.8s0.1,0.1,0.3,0.3c0.3,0.3,0.5,0.6,0.7,0.9
			c0.7,1.2,1,2.6,0.8,4c-0.6,3.4-3.7,5.6-7.1,5.1c0,0-0.1,0-0.1,0c-2.7-0.5-4.7-2.7-5-5.4c-0.4-3.4,2-6.4,5.4-6.8c0.1,0,0.1,0,0.2,0
			c1.4-0.1,2.8,0.2,3.9,1c0.3,0.2,0.6,0.4,0.8,0.7C615.7,33.6,615.8,33.7,615.8,33.8z"/>
		<path class="st3" d="M618.9,59.5c-0.1,0.1-0.2,0.2-0.3,0.3l-0.9,0.8c-1.2,1-2.6,1.9-4,2.6c-5.5,2.7-12,2.7-17.6,0.2h0.2
			l-31.5,29.5l-0.1,0.1h-0.1l-9.7-2.4l-0.2-0.1v-0.2c0.1-2,0.2-4.3,0.4-6.5v-0.1l0.1-0.1l2.7-2.5l0.1-0.1h0.1l4,1.1l-0.3,0.3
			c-0.2-1.3-0.4-2.8-0.6-4.3V78l0.1-0.1l4.6-4.3l0.1-0.1h0.1l6.6,1.8l-0.3,0.3c-0.3-2.2-0.7-4.6-1-7v-0.1l0.1-0.1l1.4-1.3l3.9-3.6
			l0.1-0.1h0.1l6.6,1.8l-0.3,0.3c-0.3-2.4-0.7-4.7-1-7v-0.1l0.1-0.1l4.2-4l0,0.3c-1.6-2.9-2.6-6.2-2.7-9.5c-0.1-1.6,0-3.2,0.3-4.8
			c0.3-1.6,0.8-3.1,1.4-4.5c4.6-10.7,16.9-15.6,27.6-11c4.6,2,8.4,5.6,10.6,10.1c1.7,3.4,2.3,7.2,2,11c-0.2,2.8-1,5.5-2.3,8
			l-0.4,0.7l-0.4,0.7c-0.3,0.4-0.5,0.8-0.8,1.2c-0.6,0.7-1,1.3-1.4,1.7l-1,1L618.9,59.5l0.3-0.3l0.9-1c0.4-0.4,0.8-1,1.4-1.7
			c0.3-0.3,0.5-0.8,0.8-1.2l0.4-0.7l0.4-0.7c3-5.9,3.1-12.8,0.2-18.8c-4.5-9.1-15.1-13.6-24.8-10.5c-5.6,1.8-10.2,5.9-12.6,11.4
			c-0.6,1.4-1.1,2.9-1.3,4.4c-0.3,1.6-0.4,3.1-0.3,4.7c0.1,3.3,1.1,6.4,2.7,9.3l0.1,0.2l-0.1,0.1l-4.2,4l0.1-0.2
			c0.3,2.3,0.7,4.7,1,7l0.1,0.4l-0.4-0.1l-6.6-1.8l0.2-0.1l-3.9,3.6l-1.4,1.3l0.1-0.2c0.3,2.4,0.7,4.8,1,7l0.1,0.4l-0.4-0.1
			l-6.6-1.8L566,74l-4.6,4.3l0.1-0.2c0.2,1.5,0.4,2.9,0.6,4.3v0.4l-0.4-0.1l-4-1.1l0.2-0.1l-2.7,2.5l0.1-0.2
			c-0.1,2.3-0.3,4.5-0.4,6.5l-0.2-0.2l9.7,2.5h-0.2L596,63.1l0.1-0.1h0.1c5.5,2.5,11.9,2.4,17.4-0.1c1.4-0.7,2.8-1.5,4-2.5
			c0.4-0.3,0.7-0.6,0.9-0.8L618.9,59.5z"/>
		<path class="st1" d="M618.2,57.1c8.4-7.8,8.9-21,1.1-29.5s-21-8.9-29.5-1.1c-7.1,6.6-8.7,17.1-3.9,25.5l0,0l-4.2,4l1,7l-6.6-1.8
			l-5.3,5l1,7l-6.6-1.8l-4.5,4.3l0.6,4.3l-4-1.1l-2.7,2.5l-0.4,6.5l9.7,2.4l31.6-29.4C603.1,64.3,612.1,62.8,618.2,57.1z
			 M615.1,31.5c2.3,2.4,2.2,6.2-0.3,8.5c-2.4,2.3-6.2,2.2-8.5-0.3c-2.3-2.4-2.2-6.2,0.3-8.5c0,0,0,0,0,0
			C609.1,28.9,612.9,29.1,615.1,31.5L615.1,31.5z"/>
		<path class="st9" d="M618.2,57.1c8.4-7.8,8.9-21,1.1-29.5s-21-8.9-29.5-1.1c-7.1,6.6-8.7,17.1-3.9,25.5l0,0l-4.2,4l1,7l-6.6-1.8
			l-5.3,5l1,7l-6.6-1.8l-4.5,4.3l0.6,4.3l-4-1.1l-2.7,2.5l-0.4,6.5l9.7,2.4l31.6-29.4C603.1,64.3,612.1,62.8,618.2,57.1z
			 M615.1,31.5c2.3,2.4,2.2,6.2-0.3,8.5c-2.4,2.3-6.2,2.2-8.5-0.3c-2.3-2.4-2.2-6.2,0.3-8.5c0,0,0,0,0,0
			C609.1,28.9,612.9,29.1,615.1,31.5L615.1,31.5z"/>
		<path class="st3" d="M615.1,31.5c0,0-0.4-0.4-1.2-0.8c-1.1-0.7-2.4-1-3.8-0.8c-3.2,0.3-5.4,3.2-5.1,6.3c0.3,3.2,3.2,5.4,6.3,5.1
			c2.5-0.3,4.6-2.2,5.1-4.7c0.2-1.3,0-2.6-0.6-3.8C615.5,31.9,615.1,31.5,615.1,31.5c0,0,0.1,0.1,0.3,0.3c0.3,0.3,0.5,0.6,0.7,0.9
			c0.7,1.2,1,2.6,0.8,4c-0.5,3.4-3.7,5.7-7.1,5.1c0,0-0.1,0-0.1,0c-2.7-0.5-4.7-2.7-5-5.4c-0.1-1.2,0.1-2.5,0.7-3.6
			c1-1.9,2.8-3.1,4.9-3.3c1.4-0.1,2.8,0.2,3.9,1c0.3,0.2,0.6,0.4,0.8,0.7C615.1,31.4,615.1,31.5,615.1,31.5z"/>
		<path class="st3" d="M618.2,57.1c-0.1,0.1-0.2,0.2-0.3,0.3l-0.9,0.8c-1.2,1-2.6,1.9-4,2.6c-5.5,2.7-12,2.7-17.6,0.2h0.2L564,90.5
			l-0.1,0.1h-0.1l-9.7-2.4h-0.2V88c0.1-2,0.2-4.3,0.4-6.5v-0.1l0.1-0.1c0.8-0.8,1.7-1.6,2.7-2.5l0.1-0.1h0.1l4,1.1l-0.3,0.3
			c-0.2-1.3-0.4-2.8-0.6-4.3v-0.1l0.1-0.1l4.6-4.2l0.1-0.1h0.1l6.6,1.8l-0.3,0.3c-0.3-2.2-0.7-4.6-1-7v-0.1l0.1-0.1l1.4-1.3l3.9-3.6
			l0.1-0.1h0.1l6.6,1.8l-0.3,0.3c-0.3-2.4-0.7-4.7-1-7v-0.1l0.1-0.1l4.2-4v0.3c-1.6-2.9-2.6-6.2-2.7-9.5c-0.1-3.2,0.5-6.4,1.7-9.4
			c4.6-10.7,16.9-15.6,27.6-11c4.6,2,8.4,5.6,10.6,10.1c1.7,3.4,2.4,7.2,2,10.9c-0.2,2.8-1,5.5-2.3,8l-0.4,0.7l-0.4,0.7
			c-0.3,0.4-0.5,0.8-0.8,1.2c-0.6,0.7-1,1.3-1.4,1.7l-1,1C618.4,57.1,618.2,57.2,618.2,57.1c0,0,0.1-0.1,0.4-0.3l0.9-1
			c0.4-0.4,0.8-1,1.4-1.7c0.3-0.3,0.5-0.8,0.8-1.2l0.4-0.7l0.4-0.7c4.9-10.3,0.6-22.7-9.7-27.6c-10.3-4.9-22.7-0.6-27.6,9.7
			c-1.2,2.9-1.8,6-1.7,9.2c0.1,3.3,1.1,6.4,2.7,9.3l0.1,0.2l-0.2,0.1l-4.2,4l0.1-0.2c0.3,2.3,0.7,4.7,1,7l0.1,0.4l-0.4-0.1l-6.6-1.8
			l0.2-0.1l-3.9,3.6l-1.4,1.3l0.1-0.2c0.3,2.4,0.7,4.8,1,7l0.1,0.4l-0.4-0.1l-6.6-1.8l0.2-0.1l-4.6,4.3l0.1-0.2
			c0.2,1.5,0.4,3,0.6,4.3l0,0.4l-0.4-0.1l-4-1.1l0.2-0.1l-2.7,2.5l0.1-0.2c-0.1,2.3-0.3,4.5-0.4,6.5l-0.2-0.2l9.7,2.5l-0.2,0.1
			l31.6-29.4l0.1-0.1h0.1c3.1,1.4,6.6,2,10,1.8c2.5-0.2,5-0.8,7.4-1.9c1.4-0.7,2.8-1.5,4-2.5l0.9-0.8L618.2,57.1z"/>
		<path class="st3" d="M616.3,55.5c1-1.1,2-2.3,2.8-3.5c1-1.5,1.7-3.1,2.1-4.8c0.6-2.2,0.8-4.6,0.6-6.9c-0.3-2.8-1.2-5.5-2.8-7.9
			c-1.7-2.7-4.2-4.9-7.1-6.4c-1.5-0.8-3.2-1.4-4.9-1.7c-0.9-0.2-1.8-0.3-2.7-0.3c-0.9,0-1.8,0-2.8,0.1c-7.9,0.9-14.2,6.8-15.6,14.6
			c-0.2,0.9-0.3,1.8-0.3,2.7c0,0.9,0,1.8,0.1,2.7c0.2,1.7,0.6,3.4,1.3,5c1.3,3,3.3,5.6,5.9,7.5c4.2,3.1,9.5,4.2,14.6,3.2
			c1.7-0.3,3.4-1,4.9-1.8C613.9,57.3,615.1,56.4,616.3,55.5c0,0-0.1,0.1-0.2,0.2l-0.7,0.6c-0.3,0.3-0.7,0.6-1.1,0.9
			c-0.5,0.4-1.1,0.7-1.6,1c-1.6,0.9-3.2,1.5-5,1.9c-5.2,1.2-10.6,0-14.9-3.1c-2.7-2-4.8-4.6-6.1-7.7c-0.7-1.6-1.2-3.3-1.3-5.1
			c-0.1-0.9-0.2-1.8-0.1-2.8c0-0.9,0.2-1.9,0.3-2.8c1.5-8,8-14.1,16.1-15c0.9-0.1,1.9-0.2,2.8-0.1c0.9,0,1.8,0.2,2.8,0.3
			c1.8,0.3,3.5,0.9,5.1,1.7c3,1.5,5.4,3.8,7.2,6.6c1.5,2.4,2.5,5.2,2.8,8.1c0.2,2.4,0,4.7-0.7,7c-0.5,1.7-1.3,3.3-2.2,4.8
			c-0.3,0.5-0.7,1.1-1.2,1.6c-0.3,0.4-0.6,0.7-1,1l-0.6,0.6C616.4,55.4,616.3,55.5,616.3,55.5z"/>
		<path class="st3" d="M615.5,40.7c0,0,0.4-0.4,1-1.4c1.4-2.3,1.4-5.1-0.1-7.4c-0.7-1-1.6-1.8-2.7-2.4c-1.2-0.6-2.5-0.8-3.9-0.7
			c-2.9,0.3-5.3,2.5-5.8,5.4c-0.3,1.3-0.1,2.7,0.4,3.9c1.5,3.5,5.6,5.1,9.1,3.6c0.2-0.1,0.3-0.2,0.5-0.2
			C615,41.1,615.4,40.6,615.5,40.7c0,0.1-0.1,0.1-0.3,0.3c-0.3,0.3-0.6,0.6-1,0.8c-2.4,1.4-5.4,1.2-7.7-0.4
			c-2.3-1.6-3.4-4.4-2.9-7.2c0.6-3.1,3.1-5.5,6.3-5.9c3.9-0.5,7.5,2.3,8,6.3c0,0.1,0,0.2,0,0.2c0.1,1.6-0.3,3.2-1.2,4.6
			c-0.2,0.4-0.5,0.7-0.8,1C615.7,40.6,615.6,40.6,615.5,40.7z"/>
		<path class="st3" d="M561.3,89.2c-0.1-0.1,7-6.9,15.9-15.2s16.1-14.9,16.2-14.8s-7,6.9-15.9,15.2S561.4,89.3,561.3,89.2z"/>
		<path class="st3" d="M530.6,179.5c-1.6,0.3-3.4,0.3-5,0C527.3,179.2,529,179.2,530.6,179.5z"/>
		<path class="st3" d="M540.6,179.5c-1.6,0.3-3.4,0.3-5,0C537.3,179.2,539,179.2,540.6,179.5z"/>
		<path class="st3" d="M550.6,179.5c-1.6,0.3-3.4,0.3-5,0C547.3,179.2,549,179.2,550.6,179.5z"/>
		<path class="st3" d="M560.6,179.5c-1.6,0.3-3.4,0.3-5,0C557.3,179.2,559,179.2,560.6,179.5z"/>
		<path class="st3" d="M570.6,179.5c-1.6,0.3-3.4,0.3-5,0C567.3,179.2,569,179.2,570.6,179.5z"/>
		<path class="st3" d="M580.6,179.5c-1.6,0.3-3.4,0.3-5,0C577.3,179.2,579,179.2,580.6,179.5z"/>
		<path class="st3" d="M589.1,178c0.1,0,0.2,0.6,0.2,1.5v0.2h-0.2h-1c-0.8,0.1-1.7,0-2.5-0.3c0.8-0.3,1.7-0.3,2.5-0.3h1l-0.2,0.2
			C588.9,178.6,589,178,589.1,178z"/>
		<path class="st3" d="M589.1,168c0.3,1.6,0.3,3.4,0,5C588.8,171.4,588.8,169.7,589.1,168z"/>
		<path class="st3" d="M589.1,158c0.3,1.6,0.3,3.4,0,5C588.8,161.4,588.8,159.7,589.1,158z"/>
		<path class="st3" d="M589.1,148c0.3,1.6,0.3,3.4,0,5C588.8,151.4,588.8,149.7,589.1,148z"/>
		<path class="st3" d="M589.1,138c0.3,1.6,0.3,3.4,0,5C588.8,141.4,588.8,139.7,589.1,138z"/>
		<path class="st3" d="M589.1,128c0.3,1.6,0.3,3.4,0,5C588.8,131.4,588.8,129.7,589.1,128z"/>
		<path class="st3" d="M589.1,118c0.3,1.6,0.3,3.4,0,5C588.8,121.4,588.8,119.7,589.1,118z"/>
		<path class="st3" d="M589.1,108c0.3,1.6,0.3,3.4,0,5C588.8,111.4,588.8,109.7,589.1,108z"/>
		<path class="st3" d="M589.1,98c0.3,1.6,0.3,3.4,0,5C588.8,101.4,588.8,99.7,589.1,98z"/>
		<path class="st3" d="M589.1,88c0.3,1.6,0.3,3.4,0,5C588.8,91.4,588.8,89.7,589.1,88z"/>
		<path class="st3" d="M589.1,78c0.3,1.6,0.3,3.4,0,5C588.8,81.4,588.8,79.7,589.1,78z"/>
	</g>
	<g id="freepik--Folder--inject-613">
		<path class="st3" d="M514.1,279.2c-1.6,0.3-3.4,0.3-5,0C510.8,278.9,512.5,278.9,514.1,279.2z"/>
		<path class="st3" d="M524.1,279.2c-1.6,0.3-3.4,0.3-5,0C520.8,278.9,522.5,278.9,524.1,279.2z"/>
		<path class="st3" d="M534.1,279.2c-1.6,0.3-3.4,0.3-5,0C530.8,278.9,532.5,278.9,534.1,279.2z"/>
		<path class="st3" d="M544.1,279.2c-1.6,0.3-3.4,0.3-5,0C540.8,278.9,542.5,278.9,544.1,279.2z"/>
		<path class="st3" d="M554.1,279.2c-1.6,0.3-3.4,0.3-5,0C550.8,278.9,552.5,278.9,554.1,279.2z"/>
		<path class="st3" d="M564.1,279.2c-1.6,0.3-3.4,0.3-5,0C560.8,278.9,562.5,278.9,564.1,279.2z"/>
		<path class="st3" d="M574.1,279.2c-1.6,0.3-3.4,0.3-5,0C570.8,278.9,572.5,278.9,574.1,279.2z"/>
		<path class="st3" d="M584.1,279.2c-1.6,0.3-3.4,0.3-5,0C580.8,278.9,582.5,278.9,584.1,279.2z"/>
		<path class="st3" d="M594.1,279.2c-1.6,0.3-3.4,0.3-5,0C590.8,278.9,592.5,278.9,594.1,279.2z"/>
		<path class="st3" d="M604.1,279.2c-1.6,0.3-3.4,0.3-5,0C600.8,278.9,602.5,278.9,604.1,279.2z"/>
		<path class="st3" d="M613.2,278.3c0.1,0,0.2,0.4,0.2,0.9v0.2h-0.2c-0.4,0-1,0-1.6,0c-0.8,0.1-1.7,0-2.5-0.3
			c0.8-0.3,1.7-0.3,2.5-0.3c0.6,0,1.1,0,1.6,0.1l-0.2,0.2C613,278.6,613.1,278.3,613.2,278.3z"/>
		<path class="st3" d="M613.3,268.3c0.3,0.8,0.3,1.7,0.2,2.5c0.1,0.8,0,1.7-0.3,2.5c-0.2-0.8-0.3-1.7-0.2-2.5
			C612.9,269.9,613,269.1,613.3,268.3z"/>
		<path class="st3" d="M613.4,258.3c0.2,0.8,0.3,1.7,0.2,2.5c0.1,0.8,0,1.7-0.3,2.5c-0.2-0.8-0.3-1.7-0.2-2.5
			C613,259.9,613.1,259.1,613.4,258.3z"/>
		<path class="st3" d="M613.5,248.3c0.2,0.8,0.3,1.7,0.2,2.5c0.1,0.8,0,1.7-0.3,2.5c-0.2-0.8-0.3-1.7-0.2-2.5
			C613.1,249.9,613.2,249.1,613.5,248.3z"/>
		<path class="st4" d="M580.4,216.9l1.8,33.8c0.1,1.2,1.1,2.2,2.3,2.2l60.8,0.5c1.3,0,2.3-1,2.3-2.3l0.2-26.3c0-1.3-1-2.3-2.3-2.3
			c0,0,0,0,0,0h-37.4c-0.6,0-1.2-0.2-1.6-0.7l-6.5-6.5c-0.4-0.4-1-0.7-1.6-0.7l-15.8-0.1C581.4,214.5,580.4,215.6,580.4,216.9
			C580.4,216.9,580.4,216.9,580.4,216.9z"/>
		
			<rect x="594.6" y="204.9" transform="matrix(7.330317e-03 -1 1 7.330317e-03 371.8849 850.8028)" class="st0" width="39.7" height="66.5"/>
		<path class="st4" d="M576.1,221.5l4.8,41.4c0.1,0.7,0.7,1.3,1.5,1.3l64.8,0.5c0.8,0,1.4-0.6,1.5-1.4l3.6-41.4
			c0.1-0.8-0.5-1.5-1.3-1.6c0,0-0.1,0-0.1,0l-73.1-0.5c-0.8,0-1.5,0.6-1.5,1.5C576.1,221.4,576.1,221.5,576.1,221.5z"/>
	</g>
	<g id="freepik--Device--inject-613">
		<path class="st3" d="M187.1,157.1h334.7c8,0,14.6,6.5,14.6,14.6v211.5c0,8-6.5,14.6-14.6,14.6H187.1c-8,0-14.6-6.5-14.6-14.6
			V171.7C172.6,163.6,179.1,157.1,187.1,157.1z"/>
		<path class="st3" d="M157.3,379.9h394.2l0,0v3.2c0,9.8-8,17.8-17.8,17.8H175.1c-9.8,0-17.8-8-17.8-17.8L157.3,379.9L157.3,379.9z"
			/>
		<rect x="182.3" y="166.6" class="st7" width="343.3" height="203.2"/>
		<polygon class="st7" points="318.6,379.9 323.5,387.7 392.3,387.7 396.9,379.9 		"/>
		<path class="st2" d="M192.7,173.5H516c1.8,0,3.3,1.5,3.3,3.3v189.1c0,1.8-1.5,3.3-3.3,3.3H192.7c-1.8,0-3.3-1.5-3.3-3.3V176.8
			C189.4,175,190.9,173.5,192.7,173.5z"/>
		<rect x="189.4" y="187.9" class="st6" width="329.9" height="181.3"/>
		<path class="st3" d="M216.4,181.1c0,1.5-1.2,2.6-2.6,2.6c-1.5,0-2.6-1.2-2.6-2.6c0-1.5,1.2-2.6,2.6-2.6c0,0,0,0,0,0
			C215.3,178.4,216.4,179.6,216.4,181.1C216.4,181.1,216.4,181.1,216.4,181.1z"/>
		<path class="st3" d="M200.5,181.1c0,1.5-1.2,2.6-2.6,2.6s-2.6-1.2-2.6-2.6c0-1.5,1.2-2.6,2.6-2.6l0,0
			C199.3,178.4,200.5,179.6,200.5,181.1z"/>
		<path class="st3" d="M208.1,181.1c0,1.5-1.2,2.6-2.6,2.6c-1.5,0-2.6-1.2-2.6-2.6c0-1.5,1.2-2.6,2.6-2.6c0,0,0,0,0,0
			C207,178.4,208.1,179.6,208.1,181.1C208.2,181.1,208.2,181.1,208.1,181.1z"/>
		<path class="st7" d="M533.3,379.9c0,0.1-80.8,0.2-180.3,0.2s-180.4-0.1-180.4-0.2s80.7-0.2,180.4-0.2S533.3,379.8,533.3,379.9z"/>
		<rect x="212.3" y="279.2" class="st1" width="75.3" height="5"/>
		<rect x="309.5" y="209.3" class="st1" width="75.3" height="5"/>
		<path class="st1" d="M496.7,228c0,0.1-41.9,0.2-93.6,0.2s-93.6-0.1-93.6-0.2s41.9-0.2,93.6-0.2S496.7,227.9,496.7,228z"/>
		<path class="st1" d="M496.7,239c0,0.1-41.9,0.2-93.6,0.2s-93.6-0.1-93.6-0.2s41.9-0.2,93.6-0.2S496.7,238.9,496.7,239z"/>
		<path class="st1" d="M496.7,250c0,0.1-41.9,0.2-93.6,0.2s-93.6-0.1-93.6-0.2s41.9-0.2,93.6-0.2S496.7,249.9,496.7,250z"/>
		<path class="st1" d="M496.7,261c0,0.1-41.9,0.2-93.6,0.2s-93.6-0.1-93.6-0.2s41.9-0.2,93.6-0.2S496.7,260.9,496.7,261z"/>
		<path class="st1" d="M496.7,272c0,0.1-41.9,0.2-93.6,0.2s-93.6-0.1-93.6-0.2s41.9-0.2,93.6-0.2S496.7,271.9,496.7,272z"/>
		<path class="st1" d="M382.6,283c0,0.1-16.4,0.2-36.5,0.2s-36.5-0.1-36.5-0.2s16.4-0.2,36.5-0.2S382.6,282.9,382.6,283z"/>
		<path class="st1" d="M495.3,304.4c0,0.1-27.5,0.2-61.5,0.2s-61.5-0.1-61.5-0.2s27.5-0.2,61.5-0.2S495.3,304.2,495.3,304.4z"/>
		<path class="st1" d="M495.3,316c0,0.1-27.5,0.2-61.5,0.2s-61.5-0.1-61.5-0.2s27.5-0.2,61.5-0.2S495.3,315.9,495.3,316z"/>
		<path class="st1" d="M495.3,327.7c0,0.1-27.5,0.2-61.5,0.2s-61.5-0.1-61.5-0.2s27.5-0.2,61.5-0.2S495.3,327.6,495.3,327.7z"/>
		<path class="st1" d="M495.3,339.4c0,0.1-27.5,0.2-61.5,0.2s-61.5-0.1-61.5-0.2s27.5-0.2,61.5-0.2S495.3,339.2,495.3,339.4z"/>
		<path class="st1" d="M287.7,303.2c0,0.1-16.4,0.2-36.7,0.2s-36.7-0.1-36.7-0.2s16.4-0.2,36.7-0.2S287.7,303.1,287.7,303.2z"/>
		<path class="st1" d="M287.7,312.4c0,0.1-16.4,0.2-36.7,0.2s-36.7-0.1-36.7-0.2s16.4-0.2,36.7-0.2S287.7,312.3,287.7,312.4z"/>
		<path class="st1" d="M287.7,321.6c0,0.1-16.4,0.2-36.7,0.2s-36.7-0.1-36.7-0.2s16.4-0.2,36.7-0.2S287.7,321.5,287.7,321.6z"/>
		<path class="st1" d="M287.7,330.7c0,0.1-16.4,0.2-36.7,0.2s-36.7-0.1-36.7-0.2s16.4-0.2,36.7-0.2S287.7,330.6,287.7,330.7z"/>
		<path class="st1" d="M287.7,339.9c0,0.1-16.4,0.2-36.7,0.2s-36.7-0.1-36.7-0.2s16.4-0.2,36.7-0.2S287.7,339.8,287.7,339.9z"/>
		<rect x="309.4" y="298.8" class="st0" width="53.4" height="51.7"/>
		<polygon class="st2" points="313.6,346 328.3,319.5 340.4,336.5 347.8,327.4 358.7,346 		"/>
		<path class="st2" d="M345.6,314.3c0,2.1-1.7,3.9-3.8,3.9s-3.9-1.7-3.9-3.8s1.7-3.9,3.8-3.9c0,0,0,0,0,0
			C343.9,310.4,345.6,312.2,345.6,314.3z"/>
		<path class="st2" d="M358.7,346.2c0-0.1,0-0.1,0-0.2c0-0.1,0-0.4,0-0.6c0-0.5,0-1.3,0-2.3c0-2,0-5-0.1-8.8
			c0-7.5-0.1-18.3-0.1-31.2l0.2,0.2h-45.1l0.2-0.2l0,0v11.7c0,3.8,0,7.5,0,11.1c0,7.2,0,14.1,0,20.4l-0.2-0.2l32.6,0.1l9.2,0h2.4
			h0.6L358.7,346.2l-0.7,0h-2.4l-9.1,0l-32.8,0.1h-0.2v-0.2c0-6.3,0-13.1,0-20.4c0-3.6,0-7.3,0-11.1v-11.5l0,0l0.3-0.3h45.1h0.2v0.2
			c0,13-0.1,23.8-0.1,31.3c0,3.7,0,6.7-0.1,8.7c0,1,0,1.7,0,2.3c0,0.2,0,0.4,0,0.6C358.8,346,358.8,346.1,358.7,346.2z"/>
		<rect x="213.7" y="200.7" class="st0" width="72.4" height="70.1"/>
		<polygon class="st1" points="219.3,264.8 239.3,228.7 255.7,251.8 265.7,239.5 280.5,264.8 		"/>
		<path class="st1" d="M262.7,221.7c0,2.9-2.3,5.2-5.2,5.2c-2.9,0-5.2-2.3-5.2-5.2c0-2.9,2.3-5.2,5.2-5.2c0,0,0,0,0,0
			C260.4,216.5,262.7,218.8,262.7,221.7z"/>
		<path class="st1" d="M280.5,265c0,0,0-0.1,0-0.3s0-0.5,0-0.8c0-0.7,0-1.8,0-3.1c0-2.8,0-6.8-0.1-11.9c0-10.2-0.1-24.8-0.1-42.3
			l0.3,0.3l-61.2,0c-0.1,0.1,0.6-0.6,0.3-0.3l0,0v15.7c0,5.2,0,10.2,0,15.1c0,9.8,0,19.1,0,27.6l-0.3-0.3l44.3,0.1l12.5,0.1h3.3h0.9
			h0.3h-0.3h-0.8h-3.2l-12.4,0.1l-44.4,0.1h-0.3v-0.3c0-8.5,0-17.8,0-27.6c0-4.9,0-9.9,0-15.1v-15.6l0,0c-0.3,0.3,0.4-0.4,0.4-0.4
			l61.2,0h0.3v0.3c-0.1,17.6-0.1,32.2-0.1,42.5c0,5.1-0.1,9.1-0.1,11.8c0,1.3,0,2.4,0,3.1c0,0.3,0,0.6,0,0.8
			C280.7,264.8,280.6,264.9,280.5,265z"/>
		<polygon class="st4" points="295.8,227.3 299.4,234.6 307.4,235.7 301.6,241.4 303,249.4 295.8,245.6 288.7,249.4 290,241.4 
			284.2,235.7 292.2,234.6 		"/>
		<polygon class="st4" points="321,202.1 324.6,209.4 332.6,210.5 326.8,216.2 328.2,224.2 321,220.4 313.9,224.2 315.2,216.2 
			309.4,210.5 317.4,209.4 		"/>
		<polygon class="st4" points="354.7,192.2 358.3,199.5 366.3,200.6 360.5,206.3 361.9,214.3 354.7,210.5 347.5,214.3 348.9,206.3 
			343.1,200.6 351.1,199.5 		"/>
		<polygon class="st4" points="389.6,202.4 393.1,209.6 401.1,210.8 395.3,216.4 396.7,224.4 389.6,220.6 382.4,224.4 383.8,216.4 
			378,210.8 386,209.6 		"/>
		<polygon class="st4" points="413.6,226.4 417.2,233.6 425.2,234.8 419.4,240.5 420.7,248.4 413.6,244.6 406.4,248.4 407.8,240.5 
			402,234.8 410,233.6 		"/>
		<polygon class="st4" points="422.3,261.2 425.9,268.5 433.9,269.7 428.1,275.3 429.4,283.3 422.3,279.5 415.1,283.3 416.5,275.3 
			410.7,269.7 418.7,268.5 		"/>
		<polygon class="st4" points="413.8,295.9 417.4,303.1 425.4,304.3 419.6,309.9 421,317.9 413.8,314.1 406.7,317.9 408,309.9 
			402.2,304.3 410.2,303.1 		"/>
		<polygon class="st4" points="388.3,319.9 391.9,327.1 399.9,328.3 394.1,334 395.5,341.9 388.3,338.2 381.1,341.9 382.5,334 
			376.7,328.3 384.7,327.1 		"/>
		<polygon class="st4" points="354,329.8 357.6,337 365.6,338.2 359.8,343.9 361.2,351.8 354,348.1 346.9,351.8 348.2,343.9 
			342.4,338.2 350.4,337 		"/>
		<polygon class="st4" points="321.3,319.9 324.9,327.2 332.9,328.3 327.1,334 328.4,341.9 321.3,338.2 314.1,341.9 315.5,334 
			309.7,328.3 317.7,327.2 		"/>
		<polygon class="st4" points="295.4,295.2 298.9,302.5 306.9,303.7 301.2,309.3 302.5,317.3 295.4,313.5 288.2,317.3 289.6,309.3 
			283.8,303.7 291.8,302.5 		"/>
		<polygon class="st4" points="286.7,261.3 290.2,268.5 298.2,269.7 292.4,275.4 293.8,283.3 286.7,279.5 279.5,283.3 280.9,275.4 
			275.1,269.7 283.1,268.5 		"/>
		<path class="st3" d="M379.4,286.2h-7v-38.1c0-9-7.3-16.3-16.2-16.3c-9,0-16.3,7.3-16.3,16.2c0,0,0,0,0,0v38.1h-7v-38.1
			c0-12.8,10.4-23.3,23.2-23.3c12.8,0,23.3,10.4,23.3,23.2c0,0,0,0,0,0V286.2z"/>
		<path class="st4" d="M330.6,269.2h51.1c3.2,0,5.8,2.6,5.8,5.8v28.6c0,3.2-2.6,5.8-5.8,5.8h-51.1c-3.2,0-5.8-2.6-5.8-5.8V275
			C324.8,271.8,327.4,269.2,330.6,269.2z"/>
		<path class="st3" d="M361.4,284.1c0,2.9-2.3,5.2-5.2,5.2c-2.9,0-5.2-2.3-5.2-5.2c0-2.9,2.3-5.2,5.2-5.2c0,0,0,0,0,0
			C359,278.8,361.4,281.2,361.4,284.1z"/>
		<rect x="354.7" y="286.2" class="st3" width="2.9" height="10.8"/>
		<path class="st6" d="M328.1,305.6c-0.1,0-0.3-6.7-0.3-15s0.1-15,0.3-15s0.3,6.7,0.3,15S328.3,305.6,328.1,305.6z"/>
		<path class="st6" d="M352,290.8c0,0-0.2-0.1-0.6-0.4c-0.5-0.4-1-0.9-1.4-1.4c-2.4-3.2-1.8-7.9,1.5-10.3c0.4-0.3,0.7-0.5,1.1-0.7
			c0.6-0.3,1.2-0.5,1.8-0.6c0.2,0,0.5,0,0.7,0c-0.8,0.3-1.6,0.6-2.4,1c-3.5,1.9-4.8,6.4-2.9,9.9c0.1,0.2,0.2,0.4,0.4,0.6
			C350.9,289.6,351.4,290.2,352,290.8z"/>
	</g>
	<g id="freepik--Character--inject-613">
		<path class="st3" d="M135.6,251.4c-0.7,2.3-0.6,4.7,0.2,7c0.8,2.2,1.9,4.4,3.2,6.4c1.6-4,3.1-8.1,4.2-12.2
			c0.4-0.9,0.3-1.9-0.2-2.7c-0.6-0.5-1.3-0.7-2-0.5c-2.1,0.1-4.2,1-5.7,2.4"/>
		<polygon class="st3" points="47.4,363.5 31,400.9 53.5,400.9 69.6,363.2 		"/>
		<path class="st7" d="M144.7,400.5c22.1-7.3,6.9-36.5,6.9-36.5L55.1,373c-7.7,0-14,6.2-14,14l0,0c0,7.7,6.3,14,14,14L144.7,400.5"
			/>
		<path class="st7" d="M166.6,401c21.5-7.3,7.3-37,7.3-37l-94,8.9c-9.2,0.1-13.7,4.5-13.7,13.9l0,0c0,7.7,2.9,14.2,13.6,14
			L166.6,401"/>
		<path class="st3" d="M145.4,368.9h-0.3h-0.8l-3,0.1l-11.1,0.5l-36.5,2c-1.8,0.1-3.6,0.2-5.3,0.3s-3.5,0.1-5.1,0.2
			c-1.7,0.1-3.3,0.2-5,0.4c-1.6,0.1-3.2,0.5-4.7,1c-1.5,0.5-2.8,1.4-3.9,2.5c-1.1,1.1-1.9,2.4-2.4,3.8c-0.5,1.3-0.8,2.7-1,4.1
			c-0.2,1.3-0.3,2.6-0.3,3.9c0,2.2,0.4,4.5,1.2,6.5c0.7,1.5,1.7,2.9,2.9,4c0.8,0.7,1.7,1.2,2.7,1.5c0.7,0.2,0.7,0.1,0-0.1
			c-0.9-0.4-1.8-0.9-2.6-1.6c-1.2-1.1-2.2-2.4-2.8-4c-0.8-2-1.2-4.2-1.1-6.4c0-1.3,0.1-2.6,0.3-3.8c0.2-1.4,0.5-2.7,1-4
			c0.5-1.4,1.3-2.6,2.3-3.6c1.1-1.1,2.4-1.9,3.8-2.4c1.5-0.5,3-0.8,4.6-0.9c1.6-0.2,3.2-0.3,4.9-0.4c1.7-0.1,3.4-0.2,5.1-0.2
			s3.5-0.2,5.3-0.3l36.6-2.2l11.1-0.7l3-0.2l0.8-0.1C145.2,368.9,145.3,368.9,145.4,368.9z"/>
		<path class="st3" d="M166.7,378.1c-0.2,0.2-0.5,0.3-0.8,0.4c-0.7,0.3-1.5,0.4-2.3,0.5c-4.9,0.4-9.2-3.3-9.6-8.2c0-0.5,0-1.1,0-1.6
			c0.1-0.8,0.2-1.5,0.5-2.3c0.1-0.3,0.2-0.5,0.4-0.8c-0.3,1-0.5,2-0.6,3c-0.3,4.9,3.4,9.1,8.2,9.4c0.3,0,0.6,0,0.9,0
			C164.6,378.5,165.7,378.4,166.7,378.1z"/>
		<polygon class="st10" points="118.8,319 109.9,349.5 76.9,353 76.9,358.9 125.4,359.6 132,319.8 		"/>
		<path class="st4" d="M161.9,287.1c5.9,0,21.7,3,23.1,13.7c1.3,9.7,3.1,20.6,3.1,20.6l-20.9,0.6l7.1,1.9l3,45.1l-54.1-1.9l2.9-23.2
			l2.4-23.2l0,0l-11.8-1c0,0,4-20.2,11.1-26.4c4.4-3.6,9.9-5.8,15.6-6.3C149.6,286.7,155.7,286.7,161.9,287.1"/>
		<path class="st3" d="M130.5,305.7c0.1,0-0.7,8.2-1.8,18.2s-2.2,18.2-2.3,18.1s0.7-8.2,1.9-18.2S130.4,305.7,130.5,305.7z"/>
		<path class="st3" d="M163.5,287.1c0,0,0,0.1,0.1,0.4s0.1,0.6,0.1,1.1c0,1.4-0.2,2.7-0.6,4c-0.5,2-1.6,3.8-3.1,5.2
			c-0.9,0.9-2,1.5-3.1,1.9c-1.3,0.4-2.6,0.6-3.9,0.6c-1.3,0-2.7-0.1-4-0.3c-1.2-0.2-2.4-0.7-3.4-1.4c-1.6-1.3-2.8-3.1-3.2-5.1
			c-0.4-1.3-0.5-2.7-0.4-4c0-0.5,0.1-0.8,0.1-1.1c0-0.1,0-0.3,0.1-0.4c0,0.5,0,1,0,1.5c0,1.3,0.2,2.7,0.6,3.9
			c0.5,1.9,1.6,3.6,3.2,4.8c1,0.7,2.1,1.1,3.3,1.3c1.3,0.2,2.6,0.3,3.9,0.3c1.3,0,2.6-0.2,3.8-0.6c1.1-0.4,2.1-1,3-1.8
			c1.4-1.4,2.5-3.1,3.1-5c0.4-1.3,0.7-2.6,0.7-3.9C163.5,287.7,163.5,287.1,163.5,287.1z"/>
		<g class="st5">
			<path d="M166.4,305.7c-2,9.6-4.6,19.4-6.6,29c-0.3,2.1-1,4-2.1,5.8c-0.8,1-1.8,1.9-2.9,2.6c-3.9,3.1-8.2,5.6-12.7,7.4
				c6.7-0.6,13.3-1.7,19.8-3.5c2.3-0.1,4-2.1,3.9-4.3c0,0,0,0,0,0C167.2,330.5,166.8,318.1,166.4,305.7"/>
		</g>
		<path class="st3" d="M188.5,321.5c-0.5,0.1-1,0.1-1.6,0.1l-4.3,0.2c-3.6,0.1-8.6,0.2-14.1,0.4h-1.8h-0.2V322
			c-0.2-5.1-0.1-9.7,0-13c0-1.6,0.1-3,0.2-3.9c0-0.5,0-0.9,0.1-1.4c0,0.5,0,0.9,0,1.4c0,1,0,2.3,0,3.9c0,3.3-0.1,7.8,0.1,12.9
			l-0.2-0.2h1.8c5.5-0.1,10.5-0.2,14.1-0.2h4.3C187.5,321.5,188,321.5,188.5,321.5z"/>
		<path class="st1" d="M35.5,323.7L53.9,360h58.2l-2.4-4.7l-16.9-0.5l-13.7-30.6c-0.9-1.9-2.7-3.1-4.8-3.1H37.1
			c-1,0-1.8,0.8-1.8,1.9C35.3,323.2,35.4,323.5,35.5,323.7z"/>
		<circle class="st3" cx="62.4" cy="340" r="2.2"/>
		<path class="st10" d="M163.8,259.7l-2.1,29.5c-0.3,4.8-4.4,8.5-9.2,8.5l0,0c-5.1,0-9.2-4.1-9.2-9.2c0-0.2,0-0.4,0-0.6
			c0.2-2.8,0.4-5.1,0.4-5.1s-7.1-1.1-7.2-8.2c0-3.4,0.4-10,0.9-16.3c0.6-7.3,6.7-12.9,14-13l0,0c7.3,0.4,12.9,6.7,12.5,14
			C163.8,259.5,163.8,259.6,163.8,259.7z"/>
		<path class="st11" d="M143.6,283.2c3.3,0.1,6.5-0.9,9.3-2.6c0,0-2.2,5.1-9.3,4.5L143.6,283.2z"/>
		<path class="st3" d="M139.6,263c0,0.6,0.4,1,1,1c0.5,0,1-0.4,1.1-0.9c0-0.6-0.4-1-1-1C140.1,262,139.6,262.4,139.6,263z"/>
		<path class="st3" d="M139,261.6c0.1,0.1,0.9-0.4,2-0.4s1.9,0.5,2,0.4s-0.1-0.3-0.4-0.6c-0.5-0.3-1-0.5-1.6-0.5
			c-0.6,0-1.1,0.2-1.6,0.5C139,261.3,138.9,261.5,139,261.6z"/>
		<path class="st3" d="M149.9,263.3c0,0.6,0.4,1,1,1c0.5,0,1-0.4,1-0.9c0-0.6-0.4-1-1-1C150.4,262.4,150,262.8,149.9,263.3z"/>
		<path class="st3" d="M149.7,261.8c0.1,0.1,0.9-0.4,2-0.4s1.9,0.5,2,0.4s-0.1-0.3-0.4-0.5c-0.5-0.3-1-0.5-1.6-0.5
			c-0.6,0-1.1,0.2-1.6,0.5C149.8,261.5,149.7,261.7,149.7,261.8z"/>
		<path class="st3" d="M145.8,269.9c-0.6-0.2-1.2-0.3-1.8-0.3c-0.3,0-0.6-0.1-0.6-0.3c0-0.3,0-0.6,0.2-0.8l0.8-2.1
			c0.8-1.8,1.4-3.7,1.9-5.6c-0.9,1.7-1.7,3.6-2.3,5.4c-0.3,0.8-0.5,1.5-0.8,2.1c-0.2,0.3-0.2,0.7-0.1,1.1c0.1,0.2,0.3,0.3,0.5,0.4
			c0.2,0,0.3,0.1,0.5,0.1C144.6,270,145.2,270,145.8,269.9z"/>
		<path class="st3" d="M149,270.7c-0.2,0-0.2,1.2-1.2,2s-2.3,0.7-2.3,0.9s0.3,0.2,0.8,0.2c0.7,0,1.4-0.2,1.9-0.7
			c0.5-0.4,0.9-1,0.9-1.7C149.2,271,149.1,270.7,149,270.7z"/>
		<path class="st3" d="M149.5,257.5c0.1,0.3,1.2,0.2,2.5,0.3s2.3,0.5,2.5,0.2s-0.1-0.4-0.5-0.7c-1.1-0.7-2.5-0.9-3.8-0.4
			C149.7,257.1,149.4,257.4,149.5,257.5z"/>
		<path class="st3" d="M139.4,258.4c0.2,0.2,1,0,1.9,0s1.7,0.2,1.9-0.1s0-0.4-0.4-0.6c-0.9-0.6-2.1-0.5-3,0.1
			C139.4,258,139.3,258.3,139.4,258.4z"/>
		<path class="st10" d="M161.4,265.5c0.1-0.1,4.9-1.5,4.8,3.4s-5,3.7-5,3.6S161.4,265.5,161.4,265.5z"/>
		<path class="st11" d="M162.6,270.7c0,0,0.1,0.1,0.2,0.1c0.2,0.1,0.4,0.1,0.6,0c0.6-0.4,1-1.1,1-1.9c0-0.4,0-0.8-0.2-1.2
			c-0.1-0.3-0.3-0.6-0.6-0.7c-0.2-0.1-0.4,0-0.5,0.2c-0.1,0.1,0,0.2-0.1,0.2s-0.1-0.1,0-0.3c0-0.1,0.1-0.2,0.2-0.3
			c0.1-0.1,0.3-0.1,0.5-0.1c0.4,0.1,0.7,0.4,0.9,0.8c0.2,0.4,0.3,0.9,0.2,1.4c0,0.9-0.5,1.7-1.3,2.1c-0.3,0.1-0.6,0-0.8-0.2
			C162.7,270.9,162.6,270.8,162.6,270.7z"/>
		<rect x="47.2" y="360.1" class="st3" width="71.1" height="3.5"/>
		<polygon class="st3" points="96.4,361.8 118,401 137.4,401 118.3,363.5 		"/>
		<path class="st7" d="M118.3,363.5c0,0.1-15.9,0.3-35.6,0.4s-35.6,0.1-35.6-0.1s15.9-0.3,35.6-0.4S118.3,363.4,118.3,363.5z"/>
		<path class="st3" d="M135.4,255.1c1.3,0.5,2.8,0.4,4-0.3c-0.4,0.5-0.4,1.2,0.1,1.6c0,0,0.1,0.1,0.1,0.1c0.6,0.3,1.2,0.5,1.9,0.4
			c3.6-0.1,6.9-1.6,9.5-4c0.1,1.3,1,2.3,2.2,2.7c1.2,0.4,2.5,0.4,3.6,0c-0.4,1.8-0.5,3.7-0.2,5.5c0.3,1.9,1.7,3.4,3.6,3.8
			c0.2,0.9,0.3,1.9,0.2,2.9c0.1,1,0.6,2.1,1.6,2.1s1.5-0.9,1.6-1.7s-0.4-2.6,0.2-4s0.4-1.2,1.1-2.7s1-3.5,1.5-5.1
			c0.6-1.5,0.6-3.2,0.1-4.8c-0.6-1.6-2.1-2.6-3.7-2.6c0.8-2-0.2-4.3-2.2-5.1c-1.2-0.5-2.5-0.3-3.5,0.4c0,0-5.6-3.8-11.7-1.7
			s-7.1,7.7-8.4,7.8s-5.4-2-4.7-0.6s1.9,2.7,2.4,2.8s-4.6-2.1-2.9-0.2C132.8,253.6,134,254.5,135.4,255.1z"/>
		<path class="st6" d="M184.4,302.7c-0.6-0.7-1.2-1.3-1.9-1.9c-2-1.4-4.4-2.1-6.9-2c-3.1,0-6.6,1.3-10.1,3.5s-7.1,5-11.5,6.9
			c-4.2,1.9-8.9,2.1-13.2,0.5c-1.9-0.7-3.6-1.7-5.1-2.9c-1.4-1.1-2.7-2.2-4-3.2c-1.9-1.5-4.2-2.5-6.6-2.7c-0.9,0-1.8,0.1-2.6,0.4
			c0,0,0,0,0.2-0.1c0.2-0.1,0.3-0.1,0.5-0.2c0.6-0.2,1.3-0.3,2-0.3c2.5,0.1,4.9,1.1,6.9,2.6c2.6,1.8,5.2,4.6,9,5.9
			c4.2,1.5,8.8,1.3,12.9-0.5c4.3-1.9,7.9-4.8,11.4-6.9s7.2-3.5,10.4-3.4c2.5-0.1,5,0.7,7,2.2c0.5,0.4,1,0.9,1.4,1.4
			C184.2,302.3,184.3,302.5,184.4,302.7z"/>
		<path class="st6" d="M166.6,329c0,0-0.5-0.3-1.4-0.8c-1.3-0.7-2.6-1.3-4.1-1.6c-2.1-0.5-4.3-0.4-6.4,0.1c-2.4,0.6-4.8,1.8-7.4,2.8
			c-1.3,0.5-2.7,0.8-4.1,1c-1.3,0.2-2.6,0.2-3.9,0.1c-2.2-0.2-4.3-0.8-6.3-1.7c-1.3-0.6-2.6-1.4-3.7-2.4c-0.3-0.3-0.6-0.5-0.9-0.8
			c-0.2-0.2-0.3-0.3-0.3-0.3s0.4,0.4,1.3,1c1.1,0.9,2.4,1.6,3.7,2.2c2,0.9,4.1,1.4,6.2,1.6c2.6,0.2,5.3-0.2,7.7-1.1
			c2.5-1.1,5-2,7.5-2.8c3.6-0.9,7.5-0.3,10.6,1.7c0.3,0.2,0.7,0.5,1,0.7C166.5,328.9,166.6,329,166.6,329z"/>
		<path class="st6" d="M174.5,345.9c-0.6-0.2-1.3-0.5-1.9-0.6c-1.8-0.3-3.7-0.1-5.4,0.5c-1.2,0.4-2.4,0.9-3.5,1.5
			c-1.2,0.6-2.5,1.4-3.9,2.1c-1.4,0.8-3,1.5-4.5,2c-1.7,0.5-3.5,0.6-5.3,0.2c-3.6-0.8-6.5-2.9-9.1-4.5c-2.2-1.6-4.8-2.6-7.5-3
			c-1.8-0.2-3.7,0.2-5.3,1.1c-0.6,0.4-1.1,0.8-1.6,1.3c0.1-0.2,0.2-0.3,0.3-0.4c0.3-0.4,0.7-0.7,1.1-1c1.6-1,3.5-1.5,5.4-1.3
			c2.4,0.1,5.1,1.3,7.8,2.9s5.5,3.6,9,4.4c1.7,0.3,3.4,0.3,5.1-0.2c1.5-0.5,3-1.1,4.4-1.9c1.4-0.7,2.6-1.5,3.9-2.1
			c1.2-0.6,2.4-1.1,3.6-1.5c1.8-0.6,3.7-0.7,5.6-0.3c0.5,0.1,1,0.3,1.4,0.5C174.3,345.7,174.5,345.8,174.5,345.9z"/>
		<path class="st6" d="M177,365c-0.2,0.1-0.3,0.2-0.5,0.2c-0.5,0.1-1,0.2-1.6,0.3c-1.9,0-3.9-0.4-5.6-1.2c-1.2-0.5-2.5-0.9-3.7-1.2
			c-1.5-0.3-3-0.4-4.4-0.3c-3.2,0.3-6.5,1.5-10,2.5c-1.7,0.5-3.5,0.9-5.3,1.1c-1.7,0.2-3.4,0.1-5.1-0.1c-2.8-0.4-5.6-1.1-8.2-2.2
			c-1.8-0.7-3.5-1.5-5.2-2.4c-0.6-0.3-1.1-0.6-1.4-0.7c-0.2-0.1-0.3-0.2-0.5-0.3c0.2,0,0.4,0.1,0.5,0.2l1.4,0.6
			c1.2,0.6,3,1.4,5.3,2.2c2.6,1,5.4,1.7,8.2,2.1c1.7,0.2,3.3,0.2,5,0c1.8-0.2,3.5-0.6,5.2-1.1c3.5-1,6.9-2.2,10.1-2.5
			c1.5-0.1,3.1,0,4.6,0.3c1.3,0.3,2.5,0.8,3.8,1.3c1.7,0.8,3.6,1.2,5.5,1.3C175.7,365.2,176.4,365.1,177,365z"/>
		<path class="st6" d="M187.3,316.5c-0.2,0.2-0.4,0.5-0.6,0.6c-0.6,0.5-1.3,0.9-2.1,1.3c-1.1,0.5-2.3,0.7-3.5,0.7
			c-1.5-0.1-2.9-0.4-4.3-1.1c-1.4-0.7-2.7-1.4-3.9-1.8c-1.1-0.4-2.2-0.5-3.4-0.4c-0.8,0.1-1.5,0.4-2.1,0.9c-0.4,0.4-0.6,0.6-0.6,0.6
			c0.1-0.3,0.3-0.5,0.5-0.7c0.6-0.6,1.4-0.9,2.2-1.1c1.2-0.2,2.4-0.1,3.6,0.3c1.4,0.5,2.7,1.1,4,1.8c1.2,0.7,2.6,1,4,1.1
			c1.2,0,2.3-0.2,3.4-0.5C185.5,317.6,186.4,317.1,187.3,316.5z"/>
		<path class="st6" d="M129.2,316c0,0-0.1,0.2-0.3,0.4c-0.4,0.2-0.8,0.3-1.3,0.3c-0.7,0-1.3-0.2-1.9-0.5c-0.6-0.4-1.2-0.8-1.9-1.3
			c-1.1-0.7-2.4-1-3.7-0.8c-1,0.2-1.6,0.5-1.6,0.5c0.4-0.4,0.9-0.7,1.5-0.8c1.4-0.4,2.9-0.1,4.1,0.7c0.7,0.4,1.3,0.9,1.8,1.3
			c0.5,0.3,1.1,0.5,1.6,0.6C128.2,316.3,128.7,316.2,129.2,316z"/>
		<path class="st10" d="M102.1,348.3l14.6-1.8l10.2,6.7l39.2-9.4l1.1-21.9l17.6-0.4l-0.4,25.7c-0.2,8.2-7,14.8-15.2,14.6
			c0,0-0.1,0-0.1,0l-57.4-1.6l-2.4-4.9L96.9,355L102.1,348.3z"/>
		<path class="st11" d="M165.6,343.9c-0.2,0.1-0.5,0.2-0.7,0.2l-2.1,0.6l-7.9,2l-26,6.3l-2.4,0.6h-0.1l-0.1-0.1l-10.2-6.7h0.1
			l-14.6,1.7h0.1l-3.8,4.9c-0.4,0.5-0.8,1-1,1.3c-0.1,0.2-0.2,0.3-0.4,0.4c0.1-0.2,0.2-0.3,0.3-0.5l1-1.3l3.7-5l0,0h0.1l14.5-1.8
			h0.1h0.1l10.3,6.7h-0.2l2.4-0.6l26-6.2l7.9-1.8l2.1-0.5C165.1,343.9,165.3,343.9,165.6,343.9z"/>
		<path class="st11" d="M110,352.5c-1.9,0.2-3.8,0.3-5.7,0.2h-1h0.1c-1.1,1-2.4,2-3.7,2.8c1-1.1,2.2-2.2,3.4-3.2l0.1-0.1h1.1
			C106.3,352.2,108.1,352.3,110,352.5z"/>
		<path class="st11" d="M172.8,348.2c-1.4-2.5-4-4.1-6.8-4.3c0.4-0.1,0.8-0.2,1.3-0.1c1,0.1,2,0.4,2.9,1c0.9,0.6,1.6,1.3,2.1,2.2
			C172.6,347.4,172.7,347.8,172.8,348.2z"/>
	</g>
</g>
</svg>
