<?xml version="1.0" encoding="utf-8"?>
<!-- Generator: Adobe Illustrator 22.0.1, SVG Export Plug-In . SVG Version: 6.00 Build 0)  -->
<svg version="1.1" id="Layer_1" xmlns="http://www.w3.org/2000/svg" xmlns:xlink="http://www.w3.org/1999/xlink" x="0px" y="0px"
	 viewBox="0 0 509.3 401.6" style="enable-background:new 0 0 509.3 401.6;" xml:space="preserve">
<style type="text/css">
	.st0{fill:#E0E0E0;}
	.st1{fill:#FAFAFA;}
	.st2{fill:#EBEBEB;}
	.st3{fill:#F5F5F5;}
	.st4{fill:#263238;}
	.st5{fill:#B78876;}
	.st6{fill:#AA6550;}
	.st7{fill:#455A64;}
	.st8{fill:#FFFFFF;}
	.st9{opacity:0.4;}
	.st10{fill:#FFBE9D;}
	.st11{fill:#EB996E;}
	.st12{opacity:0.2;}
	.st13{opacity:0.2;enable-background:new    ;}
	.st14{opacity:0.3;enable-background:new    ;}
	.st15{opacity:0.3;}
	.st16{fill:#FFB29D;}
	.st17{fill:#E8947E;}
	.st18{opacity:0.5;}
	.st19{fill:#A3705D;}
	.st20{fill:#85503B;}
</style>
<g>
	<rect x="5.9" y="21.9" class="st0" width="96.4" height="63.4"/>
	<rect x="9.3" y="24.5" class="st1" width="89.6" height="57.9"/>
	<rect x="39.5" y="45.6" class="st0" width="29.2" height="15.9"/>
	<rect x="131.5" y="0.7" class="st0" width="45.7" height="69.6"/>
	<rect x="133.4" y="3.2" class="st1" width="41.8" height="64.7"/>
	<rect x="148.6" y="25" class="st0" width="11.5" height="21.1"/>
	<rect x="430.8" y="62.7" class="st0" width="2.1" height="18.4"/>
	<rect x="498.5" y="62.7" class="st0" width="2.1" height="18.4"/>
	<rect x="423.2" y="55.3" class="st2" width="86.1" height="7.4"/>
	<rect x="480.4" class="st3" width="11.9" height="55.3"/>
	<path class="st0" d="M489,42c0,1.3-1.1,2.3-2.4,2.3c-1.3,0-2.3-1.1-2.3-2.4s1.1-2.3,2.4-2.3l0,0C487.9,39.7,489,40.7,489,42z"/>
	<rect x="484.7" y="14.6" class="st0" width="3.6" height="22.6"/>
	<rect x="468.4" class="st2" width="11.9" height="55.3"/>
	<path class="st1" d="M476.9,42c0,1.3-1.1,2.3-2.3,2.3s-2.3-1.1-2.3-2.4s1.1-2.3,2.3-2.3l0,0C475.8,39.7,476.9,40.7,476.9,42z"/>
	<rect x="472.6" y="14.6" class="st1" width="3.6" height="22.6"/>
	<rect x="456.9" class="st0" width="11.9" height="55.3"/>
	<path class="st1" d="M465.4,42c0,1.3-1.1,2.3-2.3,2.3s-2.3-1.1-2.3-2.4s1.1-2.3,2.3-2.3l0,0C464.4,39.7,465.4,40.7,465.4,42z"/>
	<rect x="461.1" y="14.6" class="st1" width="3.6" height="22.6"/>
	<polygon class="st0" points="442.2,54.4 456.5,5.8 451.5,3.6 436.9,52.7 	"/>
	<path class="st3" d="M231,147.8c1.5-1.3,2.9-2.7,4-4.3c11.3,3,23.3,2.6,35,1.6c14.9-1.4,29.7-3.9,44.2-7.4c5,10,15,17.2,25.9,18.1
		c-5.8-6.3-9.2-14.4-9.5-23c4.4-1.7,8.5-4.2,12.1-7.3c11.9-10.8,15-35.8,11.2-51.7c-3.5-15.2-9.2-26.2-20.7-36.2s-21.1-15.1-40-17.3
		c-16.3-2-32.7-1.3-48.8,2c-16.1,3.5-31.5,12.2-41.5,25.8c-11.3,15.3-14.9,36.3-9.4,54.7c3.8,12.6,11.7,23.7,22.3,31.5
		c1,8.7-3.4,16.5-9.7,23.9l7.5-1.8C220,155.1,226,152.1,231,147.8z"/>
	<path class="st3" d="M296.2,28.9l0.5,0.1l0.6,0.2L296.2,28.9z"/>
	<g id="freepik--character-4--inject-14">
		<path class="st4" d="M442.3,79c-1.5-4.1-5-7.1-9.3-8c-4.2-0.9-9.4-2.2-13.2-0.2c-2.4,1.3-4.6,3.1-5.5,5.6c-1.1,3,0.8,8.5,1.7,11.6
			c0.9,3.1,1.6,6.5,0,9.3s-4.9,3.7-7,6.1c-2.8,3.5-2.3,8.6,1.1,11.5c-3.7-0.1-6.8,3.7-6.6,7.4c0.2,3.7,3,6.9,6.3,8.5
			c3.3,1.6,7.2,1.9,10.8,1.8c4.6-0.1,9.2-0.6,13.6-1.7c3.7-0.9,7.5-2.2,9.9-5.1c2.2-2.7,2.7-6.4,2.7-9.9
			c-0.2-12.3-6.9-24.4-4.3-36.4"/>
		<path class="st5" d="M335.8,104.4L335.8,104.4c0,0-7.3-4.9-9.1-6.5c-3.3-3-3.1-3.3-2.7-3.6c1.1-0.9,6.1,5,5.7,3.1
			c-0.4-1.9-6.9-6.5-5.8-7.4c1.5-1.2,6.6,5.1,7.1,5.6s1.2-0.2,0.7-0.6c-0.6-0.6-7.3-7.2-5.8-8.4c0.8-0.6,1.8,1,1.8,1
			s5.8,6.6,6.4,6.1s-2.6-4.6-3.8-5.9s-1.1-2.3-0.1-2.4c0.7-0.1,4.4,3.8,5.5,5s4.2,4.9,4.1,1.8c0-0.1,0-0.1,0-0.1
			c-0.2-3,0.6-5.4,1.4-5.9c0.4-0.3,1.1-0.2,1.4,0.2c0.2,0.2,0.2,0.5,0.2,0.8c0,0.1,0,0.3-0.1,0.4c0,0.1,0,0.1-0.1,0.2
			c-0.2,1-0.2,2-0.1,3.1c0,0.9,0.2,1.8,0.5,2.7c0.4,1,0.8,1.8,1.1,2.5l2.1,4.7l-5.8,5.4L335.8,104.4z"/>
		<path class="st5" d="M467.6,261.2l5.9,134l16.7,0.5c0,0,5-73.9,3.9-81.3s-3.7-47.3-3.7-47.3L467.6,261.2z"/>
		<path class="st5" d="M442.2,261.2l5.9,134l16.6,0.5c0,0,5-73.9,4-81.3s-3.7-47.3-3.7-47.3L442.2,261.2z"/>
		<polygon class="st6" points="444.6,317.6 444.8,322.1 468.7,323.6 468.7,316.9 		"/>
		<polygon class="st6" points="470,316.9 470.3,323.6 494.1,325.1 494.2,316.2 		"/>
		<path class="st7" d="M502.8,316c3.3-0.1,5.9-2.8,5.9-6.1c0-0.1,0-0.3,0-0.4c-1.5-17.1-5.8-63.4-8.5-79.2
			c-2.1-11.5-6.9-22.4-14.1-31.7l-16.4-24.4l-0.3-19.2c0,0,2.4-13.7,2.4-13.9c-0.4-15.9-22.8-18.4-34-16.5l-6.6,0.2h-1.4l-53.6-1.3
			l-31.5-29.8l-9.7,14.1l34.8,35.5l46.4,5.8c0,0.7-0.1,2.6-0.2,4.7c-0.5,6.5-0.8,14.3,7.7,21.2c6.7,14.8,11.5,27.3,10,44.1h0.1
			l0.9,98.9L502.8,316z"/>
		<path class="st4" d="M469.2,173.9c-0.4,0.4-0.8,0.8-1.2,1.2s-0.9,0.8-1.5,1.3s-1.3,1.1-2,1.7c-1.8,1.4-3.7,2.7-5.6,3.9
			c-2.4,1.5-4.9,2.8-7.4,3.9c-2.6,1.1-5.2,2.2-7.8,3c-2.2,0.7-4.4,1.2-6.6,1.7c-1,0.2-1.8,0.3-2.6,0.4s-1.4,0.2-2,0.2
			c-0.6,0.1-1.1,0.1-1.7,0.1c0.5-0.1,1.1-0.3,1.7-0.3c0.5-0.1,1.2-0.2,1.9-0.3s1.6-0.3,2.6-0.5c1.9-0.4,4.1-1,6.6-1.8
			c5.3-1.7,10.4-4,15.1-6.9c2.2-1.3,4.1-2.6,5.7-3.8c0.8-0.6,1.5-1.1,2.1-1.6s1.1-0.9,1.5-1.2C468.3,174.6,468.8,174.2,469.2,173.9z
			"/>
		<path class="st4" d="M469.6,174.3c0.3-0.2,0.6-0.4,0.9-0.5c0.8-0.4,1.6-0.8,2.5-1.2c1.3-0.5,2.6-0.9,3.9-1.3
			c0.8-0.2,1.6-0.4,2.4-0.5c0.4-0.1,0.9-0.1,1.3-0.1c0.3,0,0.5,0.1,0.8,0.3c0.2,0.2,0.3,0.5,0.3,0.8c0,0.5-0.3,1-0.6,1.3
			s-0.7,0.6-1.1,0.8c-0.8,0.3-1.6,0.6-2.4,0.6c-1.4,0.2-2.8,0.2-4.2,0.2c-0.9,0-1.8-0.1-2.8-0.3c-0.3,0-0.7-0.1-1-0.3
			c0-0.1,1.4,0.2,3.7,0.2c1.3,0,2.7-0.1,4-0.3c0.8-0.1,1.5-0.3,2.2-0.6c0.4-0.2,0.7-0.4,0.9-0.7c0.3-0.3,0.4-0.6,0.5-1
			c0-0.3-0.2-0.5-0.6-0.5c-0.4,0-0.8,0.1-1.2,0.1c-0.8,0.1-1.6,0.3-2.3,0.5c-1.3,0.3-2.6,0.7-3.9,1.1
			C471,173.7,469.7,174.4,469.6,174.3z"/>
		<path class="st4" d="M469.3,173.7c0-0.3,0.1-0.6,0.2-0.9c0.3-0.8,0.6-1.6,1.1-2.4c0.6-1.1,1.3-2.2,2.2-3.2c0.5-0.6,1-1.1,1.6-1.7
			c0.3-0.3,0.6-0.5,0.9-0.8c0.2-0.2,0.4-0.3,0.6-0.4c0.3-0.1,0.6,0.1,0.8,0.4c0.2,0.5,0.1,1-0.1,1.4c-0.1,0.4-0.3,0.8-0.5,1.1
			c-0.3,0.7-0.8,1.4-1.2,2c-0.8,1-1.7,1.9-2.7,2.8c-0.8,0.7-1.5,1.2-2,1.6c-0.2,0.2-0.5,0.4-0.8,0.5c-0.1-0.1,1-0.9,2.6-2.4
			c0.9-0.9,1.8-1.8,2.5-2.8c0.4-0.6,0.8-1.2,1.2-1.9c0.2-0.3,0.3-0.7,0.5-1.1c0.2-0.4,0.3-0.8,0.1-1s-0.2-0.2-0.2-0.1
			c-0.1,0.1-0.3,0.2-0.4,0.3c-0.3,0.2-0.6,0.5-0.9,0.8c-0.6,0.5-1.1,1-1.6,1.6c-0.8,1-1.6,2-2.2,3.1
			C469.8,172.4,469.4,173.7,469.3,173.7z"/>
		<path class="st7" d="M448,141.1l-14.1,91.5h17.2l18.7-81.6c2.8-14.7-4.2-19.6-12.4-18.8c-0.3,0-0.6,0.1-0.8,0.1
			C452.1,133.1,448.7,136.6,448,141.1z"/>
		<path class="st4" d="M461,132.4h-0.5c-0.3,0-0.8-0.1-1.5-0.1c-1.9-0.1-3.9,0.3-5.6,1.1c-1.2,0.6-2.3,1.5-3.2,2.7
			c-1,1.3-1.6,2.9-1.8,4.6c-0.6,3.6-1.3,7.6-2,12.1c-2.8,18-6.5,42.7-10.7,70.1c-0.5,3.3-1,6.6-1.5,9.8l-0.2-0.3h17.2l-0.2,0.2
			c4.9-20.6,9.2-38.4,12.3-51c1.5-6.3,2.8-11.3,3.6-14.8c0.4-1.7,0.8-3,1-4c0.1-0.4,0.2-0.8,0.3-1s0.1-0.3,0.1-0.3
			c0,0.1,0,0.2-0.1,0.4c0,0.2-0.1,0.6-0.2,1l-0.9,4c-0.8,3.5-2,8.5-3.5,14.9c-3,12.7-7.2,30.5-12.1,51.1v0.2h-17.7v-0.3
			c0.5-3.2,1-6.5,1.5-9.8c4.3-27.4,8.1-52.1,10.9-70.1c0.7-4.5,1.5-8.5,2-12.1c0.1-0.4,0.2-0.9,0.2-1.3c0.1-0.4,0.2-0.8,0.4-1.2
			c0.3-0.7,0.7-1.5,1.2-2.1c0.9-1.1,2-2.1,3.3-2.7c1.8-0.8,3.8-1.1,5.7-1c0.7,0,1.2,0.1,1.5,0.2L461,132.4z"/>
		<path class="st4" d="M427.3,175.1c0,0-0.1,0-0.4,0s-0.7-0.1-1-0.2c-1.2-0.3-2.4-0.9-3.5-1.6c-1.6-1.1-2.9-2.5-3.9-4.1
			c-1.2-2-2.1-4.2-2.4-6.5c-0.6-4.2-0.3-8.4,0.7-12.5c0.3-1.6,0.7-2.8,0.9-3.7c0.1-0.5,0.2-0.9,0.4-1.3c0,0.5-0.1,0.9-0.2,1.4
			c-0.2,1-0.5,2.2-0.8,3.7c-0.9,4-1.1,8.2-0.6,12.3c0.4,2.2,1.2,4.4,2.3,6.3C420.8,172.1,423.8,174.3,427.3,175.1L427.3,175.1z"/>
		<path class="st4" d="M443,170c-3.2-0.3-5.9-2.3-7.1-5.2c0.9,1.2,2,2.2,3.1,3.2C440.3,168.8,441.6,169.5,443,170z"/>
		<path class="st0" d="M435.4,148c0,0,0-0.1,0.1-0.1c0.1-0.1,0.2-0.2,0.2-0.3c0.3-0.4,0.8-0.8,1.3-1c1.9-1,4.3-0.2,5.2,1.8
			c0,0,0,0,0,0.1c0.6,1.3,0.5,2.9-0.3,4.1l-2.7,3.9l-6.1,9v0.1H433l-0.7,0.3l-5.8,2.2l-0.3,0.1v-0.4c0-2.4,0-4.6,0-6.7V161v-0.1
			l6.5-9.4l1.9-2.6C434.8,148.5,435.1,148.2,435.4,148c-0.2,0.3-0.4,0.6-0.6,1l-1.7,2.7l-6.3,9.5v-0.1c0,2.1,0,4.3,0,6.7l-0.3-0.2
			l5.8-2.2l0.7-0.3l-0.1,0.1l6.2-9l2.7-3.9c0.7-1.1,0.9-2.5,0.3-3.7c-0.5-1-1.4-1.7-2.4-2c-0.8-0.2-1.7-0.1-2.4,0.2
			C436.4,147,435.8,147.4,435.4,148z"/>
		<path class="st0" d="M433,165.2c-1.2-0.5-2.3-1.2-3.3-1.9c-1.1-0.7-2.1-1.5-3-2.4c1.2,0.5,2.3,1.2,3.3,2
			C431.1,163.5,432.1,164.3,433,165.2z"/>
		<path class="st0" d="M428.8,166.8c-0.1,0.1-0.5-0.5-1.1-0.9s-1.1-0.7-1.1-0.9s0.8-0.1,1.4,0.5S428.9,166.7,428.8,166.8z"/>
		<path class="st0" d="M441.9,152.1c-1.1-0.5-2.2-1.2-3.1-2c-1-0.7-2-1.5-2.8-2.4c1.1,0.5,2.2,1.2,3.1,2
			C440.1,150.3,441,151.1,441.9,152.1z"/>
		<path class="st0" d="M429.9,162.7c0.3-0.7,0.7-1.4,1.1-2c0.8-1.2,1.8-2.8,3-4.6s2.3-3.4,3.2-4.5c0.4-0.6,0.9-1.2,1.4-1.8
			c0.2,0.1-1.7,3.1-4.1,6.6c-1.2,1.8-2.3,3.4-3.2,4.5C430.9,161.6,430.5,162.2,429.9,162.7z"/>
		<polygon class="st5" points="434.7,232.8 433.3,237.6 419.5,240.1 445.9,240.1 448.2,232.8 		"/>
		<path class="st8" d="M447.4,395.7l0.1-3.9l18.4,0.5l-0.1,8.3h-1.1c-5.1,0.2-25.8,0.6-29.2-0.5
			C431.7,398.9,447.4,395.7,447.4,395.7z"/>
		<g class="st9">
			<path class="st8" d="M439.7,397.6c0,0-5.5,1.5-4.8,2.4s21.6,1.3,30.9,0.7v-0.5l-24.5-0.3C441.3,400,440.8,397.7,439.7,397.6z"/>
		</g>
		<path class="st4" d="M466.1,400.2h-0.3h-0.9l-3.3,0.1c-2.8,0-6.7,0.1-11,0s-8.2-0.2-11-0.4l-3.3-0.2l-0.9-0.1c-0.1,0-0.2,0-0.3,0
			h0.3h0.9l3.3,0.1c2.8,0.1,6.7,0.2,11,0.3c4.3,0.1,8.2,0.1,11,0.1h4.2L466.1,400.2z"/>
		<path class="st4" d="M441.3,400.3c-0.1-0.6-0.3-1.1-0.6-1.6c-0.3-0.5-0.7-0.9-1.1-1.3C440.7,397.9,441.4,399,441.3,400.3
			L441.3,400.3z"/>
		<path class="st4" d="M446.8,397.7c0,0-0.3-0.3-0.6-0.7s-0.4-0.8-0.4-0.8s0.3,0.3,0.6,0.7S446.8,397.6,446.8,397.7z"/>
		<path class="st4" d="M448.3,396.9c0,0-0.3-0.2-0.6-0.5s-0.5-0.6-0.5-0.6s0.3,0.1,0.6,0.4S448.3,396.8,448.3,396.9z"/>
		<path class="st4" d="M449.3,395.1c-0.3,0.1-0.7,0.2-1,0.1c-0.3,0-0.7,0-1-0.1c0.3-0.1,0.7-0.2,1-0.1
			C448.6,395,448.9,395,449.3,395.1z"/>
		<path class="st4" d="M449.6,393.9c-0.7,0.3-1.5,0.4-2.2,0.1c0.4-0.1,0.7-0.1,1.1-0.1C448.9,393.9,449.2,393.9,449.6,393.9z"/>
		<path class="st4" d="M446.2,396c-0.4,0.1-0.8,0.1-1.2,0c-0.4-0.1-0.8-0.2-1.2-0.3c-0.3-0.1-0.5-0.2-0.7-0.3
			c-0.1-0.1-0.2-0.2-0.3-0.4c0-0.2,0-0.4,0.2-0.5c0.9-0.4,2-0.2,2.7,0.7c0.2,0.2,0.3,0.5,0.4,0.8c0,0.1,0,0.2,0,0.3
			c-0.1-0.4-0.3-0.7-0.5-1c-0.3-0.3-0.6-0.5-1-0.7c-0.5-0.2-1-0.1-1.4,0.1c-0.2,0.1-0.1,0.4,0.1,0.5s0.4,0.2,0.7,0.3
			c0.4,0.1,0.8,0.3,1.2,0.3C445.7,395.9,446.2,396,446.2,396z"/>
		<path class="st4" d="M445.9,396c-0.1-0.3-0.2-0.5-0.1-0.8c0-0.3,0.2-0.6,0.3-0.9c0.2-0.4,0.6-0.6,1-0.6c0.2,0.1,0.4,0.3,0.4,0.5
			s-0.1,0.4-0.2,0.5c-0.2,0.3-0.4,0.5-0.6,0.7S446.3,395.8,445.9,396c0.1-0.1,0.3-0.3,0.7-0.7c0.2-0.2,0.4-0.4,0.5-0.7
			c0.2-0.2,0.3-0.7,0-0.8s-0.6,0.3-0.8,0.5c-0.2,0.2-0.3,0.5-0.3,0.8C445.9,395.5,445.9,395.8,445.9,396z"/>
		<path class="st4" d="M465.8,395.2c0,0-0.5-0.1-1.3,0c-2.2,0.2-4.1,1.7-4.9,3.7c-0.3,0.8-0.3,1.3-0.4,1.3c0-0.1,0-0.2,0-0.4
			c0-0.3,0.1-0.7,0.2-1c0.7-2.2,2.7-3.7,5-3.9c0.3,0,0.7,0,1,0C465.7,395.1,465.8,395.2,465.8,395.2z"/>
		<path class="st4" d="M456.9,398.5c-0.9,0.2-1.8,0.3-2.7,0.2c-0.9,0-1.8-0.1-2.7-0.3c0-0.1,1.2,0,2.7,0S456.9,398.5,456.9,398.5z"
			/>
		<path class="st4" d="M460.5,398.6c0,0-0.1,0.2-0.2,0.5s-0.2,0.5-0.3,0.5s-0.1-0.3,0.1-0.6S460.4,398.5,460.5,398.6z"/>
		<path class="st4" d="M461.9,396.9c0,0-0.1,0.2-0.3,0.4c-0.2,0.2-0.4,0.3-0.4,0.3s0.1-0.2,0.3-0.4
			C461.6,397,461.8,396.9,461.9,396.9z"/>
		<path class="st4" d="M463.8,396.2c0,0.1-0.3,0.1-0.5,0.1s-0.5,0.2-0.5,0.2s0.1-0.3,0.5-0.4C463.5,396,463.8,396.1,463.8,396.2z"/>
		<path class="st4" d="M465.2,395.9c0,0-0.1,0.1-0.2,0.2c-0.1,0.1-0.3,0.1-0.3,0s0.1-0.1,0.2-0.2C465,395.8,465.2,395.8,465.2,395.9
			z"/>
		<path class="st8" d="M472.2,395.7l0.1-3.9l18.4,0.5l-0.1,8.3h-1.2c-5.1,0.2-25.8,0.6-29.2-0.5
			C456.5,398.9,472.2,395.7,472.2,395.7z"/>
		<g class="st9">
			<path class="st8" d="M464.5,397.6c0,0-5.5,1.5-4.8,2.4s21.6,1.3,30.9,0.7v-0.5l-24.5-0.3C466.1,400,465.6,397.7,464.5,397.6z"/>
		</g>
		<path class="st4" d="M490.9,400.2h-0.3h-0.9l-3.3,0.1c-2.8,0-6.7,0.1-11,0s-8.2-0.2-11-0.4l-3.3-0.2l-0.9-0.1h-0.3h0.3h0.9
			l3.3,0.1c2.8,0.1,6.7,0.2,11,0.3c4.3,0.1,8.2,0.1,11,0.1h4.2L490.9,400.2z"/>
		<path class="st4" d="M466.1,400.3c-0.2-1.1-0.8-2.2-1.7-2.9c0.6,0.2,1,0.6,1.3,1.2C466,399,466.2,399.7,466.1,400.3z"/>
		<path class="st4" d="M471.6,397.7c0,0-0.3-0.3-0.6-0.7s-0.4-0.8-0.4-0.8c0.1,0,0.3,0.3,0.6,0.7S471.6,397.6,471.6,397.7z"/>
		<path class="st4" d="M473.1,396.9c0,0-0.3-0.2-0.6-0.5s-0.5-0.6-0.5-0.6s0.3,0.1,0.6,0.4S473.1,396.8,473.1,396.9z"/>
		<path class="st4" d="M474.1,395.1c-0.3,0.1-0.7,0.2-1,0.1c-0.3,0-0.7,0-1-0.1c0.3-0.1,0.7-0.2,1-0.1
			C473.4,395,473.7,395,474.1,395.1z"/>
		<path class="st4" d="M474.4,393.9c-0.7,0.3-1.5,0.4-2.2,0.1c0.4-0.1,0.7-0.1,1.1-0.1C473.7,393.9,474,393.9,474.4,393.9z"/>
		<path class="st4" d="M471,396c-0.4,0.1-0.8,0.1-1.2,0s-0.8-0.2-1.2-0.3c-0.2-0.1-0.5-0.2-0.7-0.3c-0.1-0.1-0.2-0.2-0.3-0.4
			c0-0.2,0-0.4,0.2-0.5c0.9-0.4,2-0.2,2.7,0.7C470.7,395.4,470.8,395.7,471,396c-0.1,0.1-0.1,0.2-0.1,0.3c-0.1-0.4-0.3-0.7-0.5-1
			c-0.3-0.3-0.6-0.5-1-0.7c-0.5-0.2-1-0.1-1.4,0.1c-0.2,0.1-0.1,0.4,0.1,0.5c0.2,0.1,0.4,0.2,0.7,0.3c0.4,0.1,0.8,0.3,1.2,0.3
			C470.5,395.9,471,396,471,396z"/>
		<path class="st4" d="M470.7,396c-0.1-0.3-0.2-0.5-0.1-0.8c0-0.3,0.2-0.6,0.3-0.9c0.2-0.4,0.6-0.6,1-0.6c0.2,0.1,0.4,0.3,0.3,0.5
			c0,0.2-0.1,0.4-0.2,0.5c-0.2,0.3-0.4,0.5-0.6,0.7C471.3,395.8,471,395.9,470.7,396c0.1,0,0.3-0.2,0.7-0.6c0.2-0.2,0.4-0.4,0.5-0.7
			c0.2-0.2,0.3-0.7,0-0.8c-0.3-0.1-0.6,0.3-0.8,0.5s-0.3,0.5-0.3,0.8C470.7,395.5,470.7,395.8,470.7,396z"/>
		<path class="st4" d="M490.6,395.2c0,0-0.5-0.1-1.3,0c-2.2,0.2-4.1,1.7-4.9,3.7c-0.3,0.8-0.3,1.3-0.4,1.3c0-0.1,0-0.2,0-0.4
			c0-0.3,0.1-0.7,0.2-1c0.4-1.1,1-2,1.9-2.7s2-1.1,3.1-1.1c0.3,0,0.7,0,1,0C490.4,395.1,490.6,395.2,490.6,395.2z"/>
		<path class="st4" d="M481.6,398.5c-0.9,0.2-1.8,0.3-2.7,0.2c-0.9,0-1.8-0.1-2.7-0.3c0-0.1,1.2,0,2.7,0S481.6,398.5,481.6,398.5z"
			/>
		<path class="st4" d="M485.3,398.6c0,0-0.1,0.2-0.2,0.5s-0.2,0.5-0.3,0.5s-0.1-0.3,0.1-0.6S485.2,398.5,485.3,398.6z"/>
		<path class="st4" d="M486.6,396.9c0,0-0.1,0.2-0.3,0.4c-0.2,0.2-0.4,0.3-0.4,0.3s0.1-0.2,0.3-0.4
			C486.4,397,486.6,396.9,486.6,396.9z"/>
		<path class="st4" d="M488.6,396.2c0,0.1-0.3,0.1-0.5,0.1s-0.5,0.2-0.5,0.2s0.1-0.3,0.4-0.4C488.3,396,488.6,396.1,488.6,396.2z"/>
		<path class="st4" d="M490,395.9c0,0-0.1,0.1-0.2,0.2c-0.2,0.1-0.3,0.1-0.3,0s0.1-0.1,0.2-0.2C489.8,395.8,490,395.8,490,395.9z"/>
		<path class="st5" d="M448.3,81v2.9l0.2,43.8c0,5.1-4.3,9.1-9.8,9.1l0,0c-5.5,0-10-4.2-10.2-9.3c-0.1-5.4-0.3-11.1-0.3-11.1
			s-7-1-8.6-10.1c-0.8-4.5-0.7-11.9-0.4-17.9c0.2-5.3,4.7-9.4,10-9.1c0.1,0,0.3,0,0.4,0L448.3,81z"/>
		<path class="st4" d="M421.3,94c0,0.6,0.5,1.1,1.1,1.1s1.1-0.4,1.2-1l0,0c0-0.6-0.5-1.1-1.1-1.1C421.9,92.8,421.4,93.3,421.3,94
			C421.3,93.9,421.3,93.9,421.3,94z"/>
		<path class="st4" d="M420.9,92.3c0.2,0.1,1-0.5,2.3-0.5s2.2,0.6,2.3,0.4s-0.1-0.3-0.5-0.6c-0.6-0.4-1.2-0.5-1.9-0.5
			c-0.6,0-1.3,0.2-1.8,0.6C420.9,91.9,420.8,92.2,420.9,92.3z"/>
		<path class="st4" d="M433.2,93.7c0,0.6,0.5,1.1,1.1,1.1s1.1-0.4,1.2-1l0,0c0-0.6-0.5-1.1-1.1-1.2C433.8,92.5,433.3,93,433.2,93.7
			C433.2,93.7,433.2,93.7,433.2,93.7z"/>
		<path class="st4" d="M433.2,92.3c0.2,0.1,1-0.5,2.3-0.5s2.2,0.6,2.3,0.4s-0.1-0.3-0.5-0.6c-0.5-0.4-1.2-0.5-1.8-0.5
			c-0.7,0-1.3,0.2-1.8,0.6C433.2,91.9,433.1,92.2,433.2,92.3z"/>
		<path class="st4" d="M428.8,101.7c-0.7-0.2-1.3-0.3-2-0.3c-0.3,0-0.6-0.1-0.7-0.3c0-0.3,0-0.7,0.2-1c0.3-0.8,0.6-1.6,0.9-2.4
			c0.8-2.1,1.5-4.2,2-6.4c-1,2-1.8,4.1-2.5,6.2c-0.3,0.9-0.6,1.7-0.9,2.5c-0.2,0.4-0.2,0.8-0.1,1.2c0.1,0.2,0.3,0.4,0.5,0.5
			c0.2,0,0.4,0.1,0.5,0.1C427.5,101.7,428.1,101.7,428.8,101.7z"/>
		<path class="st6" d="M428.2,116.4c4.3,0,8.5-1.2,12.1-3.4c0,0-2.9,6.3-11.9,5.6L428.2,116.4z"/>
		<path class="st6" d="M429.4,104.7c0.5-0.6,1.2-0.9,2-0.9c0.6,0,1.1,0.3,1.4,0.7c0.4,0.4,0.4,1,0.1,1.5c-0.4,0.5-1,0.6-1.6,0.4
			s-1.1-0.5-1.6-0.9c-0.1-0.1-0.3-0.2-0.4-0.4C429.3,105,429.3,104.8,429.4,104.7"/>
		<path class="st4" d="M432.5,102.4c-0.2,0-0.2,1.4-1.3,2.3c-1.1,0.9-2.6,0.9-2.6,1c0,0.1,0.3,0.3,0.9,0.3c0.8,0,1.6-0.3,2.2-0.8
			s0.9-1.2,1-2C432.8,102.8,432.6,102.4,432.5,102.4z"/>
		<path class="st4" d="M450.6,122.5c-2.7-0.9-5.9-1.8-6.9-4.4c-1-2.7-1.1-5.6-0.3-8.4c0.3-1.3,0.8-2.7,0.2-3.8c-0.5-0.8-1.2-1.5-2-2
			c-1.6-1.5-2.5-3.5-2.7-5.7c-0.1-2.1,0.2-4.3,1-6.3c0.4-1.1,0.9-2.3,0.5-3.4c-0.4-0.7-0.9-1.4-1.6-1.9c-1.3-1.2-2.4-2.6-3.2-4.2
			c-0.7-1.1-0.9-2.4-0.5-3.6c0.6-1.4,2.3-1.8,3.8-2c3.6-0.3,7.6,0.4,9.9,3.1c2.1,2.4,2.4,5.9,2.6,9.1c0.6,10.1,1.3,20.4-0.3,30.4"/>
		<path class="st4" d="M415.6,80.5c0.5,0.3,1,0.6,1.6,0.8c0.5,0.3,0.9,0.7,1.3,1.1c0.2,0.2,0.5,0.5,0.7,0.7c0.1,0.1,0.1,0.1,0.2,0.2
			l0.3,0.2l0.6,0.7c0.6,0.6,1.3,1.1,2,1.5c3.1,2,7,2.2,10.3,0.4c1.5-0.7,2.7-1.8,3.7-3.1c1.5-2.1,1.7-3.8,1-4.6
			c-0.7-0.8-2.5-0.7-4.5-0.2c-1,0.3-2,0.5-3,0.6c-0.8,0.1-1.6,0.1-2.4,0c-0.4-0.1-0.8-0.2-1.1-0.4c-0.5-0.2-1.2-0.6-1.9-0.9
			c-0.4-0.2-0.8-0.3-1.2-0.5l-0.6-0.2l-0.7-0.2c-0.9-0.2-1.8-0.3-2.7-0.2c-1.5,0.1-2.8,0.8-3.7,2C415,79.1,415.1,80,415.6,80.5z"/>
		<path class="st4" d="M432.8,87.4c0.1,0.3,1.4,0.1,2.8,0.3c1.4,0.2,2.7,0.5,2.8,0.2c0.1-0.1-0.1-0.5-0.6-0.8
			c-1.3-0.8-2.9-0.9-4.3-0.4C433,86.9,432.7,87.2,432.8,87.4z"/>
		<path class="st4" d="M421.3,88.7c0.2,0.3,1.1,0,2.1-0.1c1-0.1,1.9,0.2,2.1-0.1c0.2-0.3-0.1-0.4-0.5-0.7c-1.1-0.6-2.4-0.6-3.4,0.2
			C421.3,88.2,421.2,88.5,421.3,88.7z"/>
		<path class="st4" d="M450.1,79.1c2.6,0.5,5.4,0,7.6-1.4c2.3-1.5,3.4-4.2,2.9-6.9c-0.6-1.8-1.8-3.3-3.4-4.3c-1.3-1-3-1.6-4.7-1.6
			c-2.2,0.3-4.1,1.6-5.1,3.6c-1.3,2.3-1.6,5-0.6,7.5c1.1,2.4,3.5,4,6.2,3.9"/>
		<path class="st8" d="M453.3,79.5c0,0.1-0.4,0.2-1.2,0.2c-1.9-0.1-3.7-1-4.9-2.6c-0.4-0.6-0.6-1-0.5-1c0.9,0.9,1.8,1.8,2.9,2.4
			C450.8,79,452.1,79.3,453.3,79.5z"/>
		<path class="st4" d="M441,76.5c7.2-1.8,14.5,2.5,16.4,9.7c0.2,0.8,0.3,1.6,0.4,2.5c0.3,4.7-1.8,9.6-0.1,14c1.6,4,5.9,6.4,7.1,10.5
			c1.2,4.1-1.2,8.5-0.4,12.7c0.7,3.5,3.5,6.4,3.6,9.9c0,2.7-1.3,5.2-3.5,6.7s-4.7,2.4-7.3,2.6c-2.7,0.3-5.6,0-7.8-1.6
			c-2.9-2.2-3.7-6.1-4.2-9.8c-1.3-10.7-1.1-21.6,0.5-32.3"/>
	</g>
	<g id="freepik--character-2--inject-14">
		<path class="st7" d="M221.4,289.4c7.8-0.2,4.1-11.6,3.9-24c-0.1-7.8-5.3-15.4-10.9-20.8c-2.9-2.5-6.2-4.4-9.9-5.5
			c-9.7-3.1-20-3.8-30-1.9C174.5,237.2,172.2,291,221.4,289.4z"/>
		<path class="st10" d="M243.4,155.7c-0.2,0.4-2.7,5-2.7,5l2-7.8c0.6-2.5-0.9-2.2-1.3-1.3s-3.2,8.3-3.2,8.3c2.6-9.7,1.8-10.6,1-10.7
			s-3,8.7-3,8.7c-0.6-1-1.4-1.9-2.3-2.6c-2.4-1.6-6.3,0-6.5,1.1s1.2,1.4,1.2,1.4c1.6-1.2,3.8-0.9,4.9,0.7c0.5,0.7,0.8,1.6,0.7,2.5
			c-0.1,1.2-1.2,2.1-2.4,2c-0.9-0.1-1.6-0.7-1.9-1.6c-1-4.4-2.5-2.9-2.5-2.9l1.5,9.6l-1.6,4.9l-8.7,23.6l-16.7-17.4
			c0,0-8.9,19.7-9.1,20.4c-0.1,0.4,8.4,9.3,14,15.1c6.1,6.3,16.1,6.4,22.3,0.3c2.2-2.1,3.7-4.8,4.4-7.7l6.6-34l3.2-11.1l1.4-5.6
			C245,155.2,244,154.8,243.4,155.7z"/>
		<path class="st4" d="M173.6,401.1c0,0-6.3-5.6-17.7-6.1V294.6h-4.2v100.5c-10.9,0.8-17.4,6-17.4,6h17.4v0.1h4.2v-0.1H173.6z"/>
		<path class="st7" d="M146.9,189.7c-4.6-0.4-9.4-0.8-13.9,0.1s-9.1,3.3-11.5,7.3s-2.5,9-2.5,13.7c0,19.8,0,39.6,0,59.4h53
			L146.9,189.7z"/>
		<path class="st7" d="M118.9,267.4c-0.2,11.7,0.9,21.2,9.5,25.8c6.5,3.5,14.3,3.5,21.7,3.5h32.2c3.3,0,6.8-0.1,9.4-1.8
			c2.9-2,4.3-5.5,3.6-9c-0.5-3.3-2.5-6.3-4.9-8.8c-9.3-9.7-24-12.6-37.7-14.9"/>
		<path class="st4" d="M159.2,135.2c0.3,1.1-0.3,2.2-1.3,2.5c-0.5,0.2-1,0.1-1.5-0.1c-1.3-0.6-1.5-2.4-1.2-3.9s0.7-3,0.1-4.3
			c-0.6-0.9-1.4-1.8-2.3-2.4c-1.4-1.4-2.1-3.4-1.8-5.3c0.3-2,1.7-3.6,3.6-4.2c1.9-0.6,4.3,0,5.7-1.4c1-1,1.1-2.7,1.8-3.9
			c1.2-1.9,3.8-2.2,6-1.9c2.2,0.3,4.5,1,6.6,0.4c1.8-0.5,3.3-1.8,5-2.6c4.9-2.3,10.7-0.2,13,4.7c1.3,2.7,1.2,5.9-0.1,8.6
			c-0.7,1.3-2,5-6.1,5"/>
		<path class="st10" d="M158.3,119.7l0.1,3l0.6,44.6c0.1,5.2,4.6,9.2,10.1,9.1l0,0c5.6-0.1,10.1-4.4,10.1-9.7
			c0-5.5,0.1-11.2,0.1-11.2s7.1-1.2,8.5-10.4c0.7-4.6,0.5-12.1,0.1-18.2c-0.3-5.4-4.9-9.4-10.3-9.1c-0.1,0-0.3,0-0.4,0L158.3,119.7z
			"/>
		<path class="st4" d="M186.1,132c0,0.6-0.5,1.2-1.1,1.2c-0.6,0.1-1.2-0.4-1.2-1l0,0c0-0.6,0.5-1.2,1.1-1.2
			C185.5,130.9,186.1,131.4,186.1,132z"/>
		<path class="st4" d="M186.4,130.7c-0.1,0.1-1-0.5-2.3-0.5s-2.2,0.6-2.3,0.5c-0.1-0.1,0.1-0.4,0.5-0.6c0.6-0.4,1.2-0.6,1.9-0.6
			s1.3,0.2,1.8,0.6C186.3,130.4,186.4,130.7,186.4,130.7z"/>
		<path class="st4" d="M173.4,132c0,0.6-0.5,1.2-1.1,1.2c-0.6,0.1-1.2-0.4-1.2-1l0,0c0-0.6,0.5-1.2,1.1-1.2
			C172.8,130.9,173.4,131.4,173.4,132L173.4,132z"/>
		<path class="st4" d="M173.9,130.9c-0.1,0.2-1-0.5-2.3-0.5s-2.2,0.6-2.3,0.5c-0.1-0.1,0.1-0.3,0.5-0.6c0.5-0.4,1.2-0.6,1.9-0.6
			s1.3,0.2,1.9,0.6C173.8,130.6,173.9,130.9,173.9,130.9z"/>
		<path class="st4" d="M178.5,140.4c0.7-0.2,1.4-0.3,2.1-0.4c0.3,0,0.6-0.1,0.7-0.3c0-0.3,0-0.7-0.2-1c-0.3-0.8-0.6-1.6-1-2.5
			c-0.9-2.1-1.6-4.3-2.2-6.5c1.1,2,2,4.1,2.7,6.3c0.3,0.9,0.6,1.7,0.9,2.5c0.2,0.4,0.3,0.8,0.2,1.3c-0.1,0.2-0.3,0.4-0.5,0.5
			c-0.2,0-0.4,0.1-0.5,0.1C179.9,140.4,179.2,140.5,178.5,140.4z"/>
		<path class="st11" d="M179.4,155.4c-4.3,0.1-8.6-1.1-12.3-3.3c0,0,3,6.3,12.2,5.5L179.4,155.4z"/>
		<path class="st4" d="M174.7,141.3c0.2,0,0.2,1.4,1.4,2.4s2.6,0.8,2.7,1s-0.3,0.3-0.9,0.3c-0.8,0-1.6-0.3-2.2-0.8
			c-0.6-0.5-1-1.2-1.1-2C174.5,141.6,174.7,141.2,174.7,141.3z"/>
		<path class="st4" d="M174.2,126c-0.1,0.3-1.4,0.2-2.9,0.4c-1.5,0.2-2.7,0.6-2.9,0.3c-0.1-0.1,0.1-0.5,0.6-0.8
			c0.6-0.4,1.4-0.7,2.1-0.8c0.8-0.1,1.5,0,2.3,0.3C174,125.5,174.3,125.8,174.2,126z"/>
		<path class="st4" d="M185.9,127c-0.2,0.3-1.1,0-2.2,0s-1.9,0.2-2.1-0.1c-0.1-0.1,0-0.4,0.4-0.7c0.5-0.3,1.1-0.5,1.8-0.5
			c0.6,0,1.2,0.2,1.7,0.6C185.9,126.6,186,126.9,185.9,127z"/>
		<path class="st4" d="M188.3,122.7c0,0-4.7,2.5-11-0.4c-4.1-1.9-8.9-2.8-10-1.9c-1.1,0.9-1.1,5.1-5.1,6.4c0,0,0.5,8-2.7,7.8
			s-2.7-16.3-2.7-16.3l8.8-0.5l8.5-1.9l8.1,0.9l6.3,1.5L188.3,122.7z"/>
		<path class="st4" d="M156.6,116c0-0.1,0.7-0.4,1.6-0.1s1.3,1,1.2,1.1c-0.1,0.1-0.6-0.4-1.3-0.6S156.6,116.2,156.6,116z"/>
		<path class="st4" d="M159.2,113.3c0.1,0,0.1,0.9,0.3,2c0.2,1.1,0.6,1.9,0.5,2c-0.1,0.1-0.8-0.7-1-1.9
			C158.9,114.7,158.9,114,159.2,113.3z"/>
		<path class="st10" d="M159.7,131.3c-0.1-0.1-5.3-1.8-5.4,3.6c-0.1,5.4,5.4,4.3,5.4,4.2S159.7,131.3,159.7,131.3z"/>
		<path class="st11" d="M158.1,137c0,0-0.1,0.1-0.2,0.1c-0.2,0.1-0.5,0.1-0.7,0c-0.7-0.5-1.1-1.3-1-2.1c0-0.5,0.1-0.9,0.3-1.3
			c0.1-0.3,0.4-0.6,0.7-0.7c0.2-0.1,0.5,0.1,0.5,0.3c0.1,0.1,0,0.3,0.1,0.3s0.1-0.1,0.1-0.3c0-0.1-0.1-0.3-0.2-0.3
			c-0.1-0.1-0.3-0.2-0.5-0.1c-0.5,0.1-0.8,0.4-1,0.8c-0.2,0.5-0.4,1-0.3,1.5c-0.1,1,0.5,1.9,1.3,2.3c0.3,0.1,0.6,0,0.9-0.1
			C158.1,137.1,158.1,137,158.1,137z"/>
		<path class="st8" d="M135.3,189.3c0,0-2.1,64.3-2,70.4l67.1-0.8l-5.5-34.1v-22.2l7.5,9.5l16-18.6l-18.8-19.9l0,0
			c-3.5-3.7-7.8-6.4-12.6-8.1c-2.5-0.9-5.2-1.4-7.9-1.5l0,0c-6.2,2-12.9,2-19.1,0c-0.8,0.1-1.8,0.2-3.2,0.4h-0.2
			c-11.7,1.5-20.7,11.1-21.3,22.9L135.3,189.3z"/>
		<path class="st8" d="M173,200.3c-1.1-0.7-2.1-1.5-3.1-2.4l-0.1-0.1l0.1-0.1l0.1-0.1c0.9-1,1.8-2,2.8-2.8c-0.8,1.1-1.7,2.1-2.6,3
			v0.1v-0.2C171.1,198.4,172.1,199.3,173,200.3z"/>
		<path class="st8" d="M178.4,194.7c1.1,0.8,2.1,1.6,3,2.5l0.1,0.1l-0.1,0.1l-0.1,0.1c-0.9,1-1.8,2-2.8,2.8c0.8-1.1,1.7-2.1,2.6-3
			l0.1-0.1v0.2C180.2,196.6,179.3,195.7,178.4,194.7z"/>
		<path class="st8" d="M173.8,201.4c0.5-1.4,1-2.7,1.7-4c0.6-1.3,1.2-2.6,2-3.9c-0.5,1.4-1,2.7-1.7,4
			C175.2,198.9,174.5,200.2,173.8,201.4z"/>
		<path class="st8" d="M186,203.9c0.1,0,0.1,0,0.2-0.1c0.1-0.1,0.1-0.2,0.1-0.5v-2.1c0-1.9,0-4.5-0.1-7.6c0-0.8,0-1.6,0-2.5
			c0-0.4,0-0.9,0-1.4v-0.3c0,0,0-0.1-0.1-0.1h-6.7h-13.9c0,0-0.1,0-0.1,0.1v6.7c0,2.3,0,4.6,0,6.7v0.8v0.1l0,0h1.9h2.9h5.3l7.6,0.1
			h2.1h0.5c0.1,0,0.2,0,0.2,0h-0.2h-0.4h-2.1l-7.6,0.1h-5.3h-4.9c-0.2,0-0.4-0.2-0.4-0.5v-0.8c0-2.1,0-4.4,0-6.7v-6.7
			c0-0.3,0.2-0.5,0.5-0.5l0,0h13.9h6c0.3,0,0.5,0,0.8,0c0.2,0.1,0.3,0.2,0.3,0.4v0.3c0,0.5,0,0.9,0,1.4c0,0.9,0,1.7,0,2.5
			c0,3.2,0,5.8-0.1,7.6v2.1c0,0.2,0,0.4-0.1,0.5c0.1,0.1,0.1,0.3,0,0.4S186.1,204,186,203.9z"/>
		<path class="st8" d="M186.2,191.4c0,0.1-4.7,0.1-10.5,0.1s-10.5-0.1-10.5-0.1s4.7-0.2,10.5-0.2S186.2,191.3,186.2,191.4z"/>
		<circle class="st8" cx="166.6" cy="190.3" r="0.2"/>
		<path class="st8" d="M167.7,190.3c0,0.1-0.1,0.2-0.2,0.2c-0.1,0-0.2-0.1-0.2-0.2c0-0.1,0.1-0.2,0.2-0.2l0,0
			C167.6,190.1,167.7,190.2,167.7,190.3L167.7,190.3z"/>
		<path class="st8" d="M168.6,190.3c0,0.1-0.1,0.2-0.2,0.3s-0.2-0.1-0.3-0.2v-0.1c0-0.1,0.1-0.2,0.2-0.2l0,0
			C168.5,190.1,168.6,190.2,168.6,190.3L168.6,190.3z"/>
		<path class="st4" d="M194.8,202.9c-0.3-2.9-0.4-5.9-0.3-8.9c-0.1-3,0-5.9,0.3-8.9c0.3,2.9,0.3,5.9,0.3,8.9S195,200,194.8,202.9z"
			/>
		<g class="st12">
			<path d="M194.9,198.9c3.1,3.7,6.4,7.2,10,10.3l-2.5,2.9l-7.5-9.5V198.9z"/>
		</g>
		<path class="st8" d="M156.9,164.3c0,0-22.6,0.2-25.4,24.1l-1.4,17.7l20.5-0.4L156.9,164.3z"/>
		<polyline class="st13" points="152.2,185 155.5,213.5 148.1,217.9 148.9,205.8 150.8,205.7 152.2,185 		"/>
		<path class="st4" d="M130.1,206.1c0.1,0,0.3,0,0.4,0l1.1-0.1l4.3-0.1l14.9-0.4l-0.2,0.2c0.2-3.4,0.5-7.1,0.7-11
			c0.3-4.4,0.6-8.6,0.8-12.3c0.1-1.8,0-3.6-0.4-5.3c-0.3-1.5-1-2.9-1.9-4.2c-0.8-1-1.8-1.8-3-2.3c-0.9-0.4-1.8-0.5-2.8-0.5
			c-0.8,0.1-1.6,0.3-2.4,0.6l0.1-0.1c0.1-0.1,0.3-0.2,0.4-0.2c0.6-0.3,1.2-0.5,1.8-0.5c1-0.1,2,0.1,2.9,0.4c1.2,0.5,2.3,1.3,3.1,2.4
			c1,1.3,1.7,2.7,2,4.3c0.4,1.8,0.5,3.6,0.4,5.4c-0.2,3.8-0.5,8-0.8,12.4c-0.3,3.9-0.5,7.6-0.7,11v0.2h-0.2l-14.9,0.2h-5.4
			C130.4,206.2,130.2,206.2,130.1,206.1z"/>
		<path class="st7" d="M262.4,336.4l-4.2-8.7l-16.4,7.8l6,12.9l1-0.4c4.6-1.9,23.5-10,26.1-12.4
			C277.9,332.9,262.4,336.4,262.4,336.4z"/>
		<path class="st4" d="M247.4,348c0.1,0,0.2-0.1,0.3-0.1l0.8-0.3c0.8-0.4,1.8-0.8,3-1.3c2.6-1.1,6.1-2.7,9.9-4.5s7.3-3.6,9.8-4.9
			l2.9-1.5l0.8-0.4c0.2-0.1,0.3-0.2,0.3-0.2l-0.3,0.1l-0.8,0.4l-3,1.5c-2.5,1.2-6,3-9.8,4.8s-7.4,3.4-9.9,4.6l-3,1.4l-0.8,0.4H247.4
			z"/>
		<path class="st4" d="M269.8,338c-0.1-0.6-0.1-1.1-0.1-1.7c0.1-0.6,0.3-1.1,0.5-1.6c-0.4,0.4-0.7,1-0.7,1.6
			C269.3,336.8,269.4,337.4,269.8,338z"/>
		<path class="st4" d="M263.8,337.8c0.2-0.6,0.3-1.2,0.2-1.8c-0.1,0-0.2,0.4-0.2,0.9C263.7,337.2,263.7,337.5,263.8,337.8z"/>
		<path class="st4" d="M262.1,337.7c0,0,0.2-0.3,0.4-0.7s0.2-0.7,0.2-0.8s-0.2,0.3-0.4,0.7S262,337.7,262.1,337.7z"/>
		<path class="st4" d="M260.5,336.6c0.3,0,0.6-0.1,0.9-0.3c0.5-0.2,0.8-0.4,0.8-0.5c-0.3,0-0.6,0.1-0.9,0.3
			C260.9,336.3,260.5,336.5,260.5,336.6z"/>
		<path class="st4" d="M259.7,335.7c0.4,0.1,0.8,0,1.1-0.2c0.6-0.2,1-0.5,0.9-0.6c-0.3,0.1-0.7,0.2-1,0.4
			C260.4,335.4,260,335.5,259.7,335.7z"/>
		<path class="st4" d="M263.6,336.1c0.4-0.1,0.7-0.3,1-0.5c0.4-0.2,0.7-0.5,1-0.8c0.2-0.2,0.4-0.4,0.5-0.6c0.1-0.1,0.1-0.3,0.1-0.5
			s-0.2-0.3-0.4-0.4c-1,0-1.9,0.7-2.1,1.7c-0.1,0.3-0.1,0.6,0,0.9c0,0.2,0.1,0.3,0.1,0.3c0-0.4,0-0.8,0-1.1c0.1-0.4,0.3-0.7,0.6-1
			c0.3-0.3,0.8-0.5,1.3-0.5c0.2,0,0.2,0.3,0.1,0.5s-0.3,0.4-0.5,0.5c-0.3,0.3-0.6,0.6-1,0.8C264,335.9,263.6,336.1,263.6,336.1z"/>
		<path class="st4" d="M263.9,336c0-0.3-0.1-0.6-0.2-0.8c-0.2-0.3-0.4-0.5-0.7-0.6c-0.3-0.2-0.8-0.3-1.1-0.1
			c-0.2,0.2-0.2,0.4-0.1,0.6s0.2,0.3,0.4,0.4c0.2,0.2,0.5,0.3,0.8,0.4s0.5,0.2,0.8,0.1c0,0-0.3-0.1-0.8-0.3
			c-0.3-0.1-0.5-0.3-0.7-0.4s-0.5-0.5-0.3-0.7c0.3-0.1,0.6-0.1,0.9,0.1c0.2,0.1,0.5,0.3,0.6,0.5C263.7,335.6,263.8,335.8,263.9,336z
			"/>
		<path class="st4" d="M245.6,343.4c0,0,0.5-0.3,1.2-0.5c1-0.3,2.1-0.4,3.2-0.2c1,0.3,2,0.8,2.8,1.5c0.6,0.6,0.8,1,0.9,1
			c0-0.1-0.1-0.2-0.2-0.3c-0.2-0.3-0.4-0.6-0.6-0.8c-1.5-1.7-4-2.3-6.1-1.4c-0.3,0.1-0.6,0.3-0.9,0.5
			C245.8,343.2,245.7,343.3,245.6,343.4z"/>
		<path class="st4" d="M244.1,335.7c0.4,1.2,0.9,2.3,1.5,3.4c0.5,1.1,1,2.3,1.7,3.4c-0.4-1.2-0.9-2.3-1.5-3.4
			C245.3,337.9,244.7,336.8,244.1,335.7z"/>
		<path class="st4" d="M255,342.7c0.9-0.2,1.7-0.5,2.5-0.9c0.8-0.3,1.6-0.8,2.3-1.3c0,0-1.1,0.5-2.4,1.1S255,342.7,255,342.7z"/>
		<path class="st4" d="M251.8,344.3c0,0.1,0.2,0.2,0.4,0.4s0.4,0.4,0.5,0.4s0-0.3-0.3-0.5S251.8,344.2,251.8,344.3z"/>
		<path class="st4" d="M249.9,343.3c0,0.1,0.2,0.2,0.4,0.3s0.5,0.1,0.5,0.1s-0.2-0.2-0.4-0.3S249.9,343.3,249.9,343.3z"/>
		<path class="st4" d="M247.8,343.5c0,0,0.2,0,0.5-0.1s0.5,0,0.5,0s-0.2-0.2-0.6-0.2S247.8,343.4,247.8,343.5z"/>
		<path class="st4" d="M246.4,343.7c0,0.1,0.1,0.1,0.3,0.1s0.3-0.1,0.3-0.1s-0.1-0.1-0.3-0.1S246.4,343.7,246.4,343.7z"/>
		<path class="st7" d="M210,396.2l-0.1-9.7l-18.2,0.1v14.2l1.1,0.1c5,0.2,25.5,0.9,28.9-0.2C225.5,399.5,210,396.2,210,396.2z"/>
		<path class="st4" d="M191.5,400.4c0.1,0,0.2,0,0.3,0h0.9l3.3,0.1c2.8,0.1,6.6,0.1,10.9,0.1s8.1-0.1,10.9-0.2l3.3-0.2l0.9-0.1h0.3
			c-0.1,0-0.2,0-0.3,0h-0.9l-3.3,0.1c-2.8,0.1-6.6,0.2-10.9,0.2s-8.1,0-10.9,0h-3.3H191.5L191.5,400.4z"/>
		<path class="st4" d="M216,400.7c0.1-0.5,0.4-1.1,0.6-1.6c0.3-0.5,0.7-0.9,1.1-1.3c-0.6,0.2-1,0.6-1.3,1.2
			C216.1,399.5,215.9,400.1,216,400.7z"/>
		<path class="st4" d="M210.6,398c0,0,0.3-0.3,0.6-0.7s0.4-0.8,0.4-0.8s-0.3,0.3-0.6,0.7S210.5,398,210.6,398z"/>
		<path class="st4" d="M209.1,397.3c0,0,0.3-0.1,0.6-0.4s0.5-0.5,0.5-0.6s-0.3,0.1-0.6,0.4S209.1,397.2,209.1,397.3z"/>
		<path class="st4" d="M208.2,395.6c0.3,0.1,0.6,0.1,1,0.1c0.3,0,0.7,0,1-0.1c-0.3-0.1-0.7-0.2-1-0.1
			C208.8,395.4,208.5,395.5,208.2,395.6z"/>
		<path class="st4" d="M207.8,394.3c0.3,0.2,0.7,0.3,1.1,0.3c0.4,0.1,0.8,0,1.1-0.1c-0.4-0.1-0.7-0.1-1.1-0.1
			C208.6,394.4,208.2,394.3,207.8,394.3z"/>
		<path class="st4" d="M211.2,396.4c0.4,0.1,0.8,0.1,1.2,0c0.4-0.1,0.8-0.1,1.2-0.3c0.2-0.1,0.5-0.2,0.7-0.3
			c0.1-0.1,0.2-0.2,0.3-0.4c0-0.2,0-0.4-0.2-0.5c-1.1-0.5-2.4,0-2.9,1.1c-0.1,0.1-0.1,0.2-0.1,0.4c0,0.1,0,0.2,0,0.3
			c0.1-0.4,0.3-0.7,0.5-1c0.3-0.3,0.6-0.5,1-0.6c0.5-0.2,1-0.1,1.4,0.1c0.2,0.1,0.1,0.4-0.1,0.5s-0.4,0.2-0.7,0.3
			c-0.4,0.1-0.8,0.2-1.2,0.3C211.6,396.4,211.2,396.4,211.2,396.4z"/>
		<path class="st4" d="M211.5,396.5c0.1-0.2,0.2-0.5,0.1-0.8c0-0.3-0.2-0.6-0.3-0.9c-0.2-0.4-0.6-0.6-1-0.6
			c-0.2,0.1-0.4,0.3-0.4,0.5s0.1,0.4,0.2,0.5c0.2,0.3,0.3,0.5,0.6,0.7C211.1,396.3,211.4,396.4,211.5,396.5
			c-0.1-0.1-0.3-0.3-0.7-0.7c-0.2-0.2-0.4-0.4-0.5-0.7c-0.2-0.2-0.3-0.7,0-0.7s0.6,0.3,0.8,0.5c0.2,0.2,0.3,0.5,0.3,0.8
			C211.5,396,211.5,396.2,211.5,396.5z"/>
		<path class="st4" d="M191.8,395.4c0,0,0.5,0,1.3,0c1.1,0.1,2.1,0.5,2.9,1.2c0.8,0.7,1.5,1.6,1.9,2.6c0.3,0.8,0.3,1.3,0.4,1.3
			c0-0.1,0-0.2,0-0.4c0-0.3-0.1-0.7-0.2-1c-0.7-2.2-2.6-3.7-4.9-3.9c-0.3,0-0.7,0-1,0C192,395.3,191.9,395.3,191.8,395.4z"/>
		<path class="st4" d="M193.6,387.8c-0.1,1.2-0.2,2.5-0.1,3.7c0,1.2,0,2.5,0.1,3.7c0.1-1.2,0.2-2.5,0.1-3.7
			C193.8,390.3,193.7,389.1,193.6,387.8z"/>
		<path class="st4" d="M200.6,398.8c0.9,0.2,1.8,0.3,2.7,0.2c0.9,0,1.8,0,2.7-0.2c0-0.1-1.2,0-2.7,0S200.6,398.8,200.6,398.8z"/>
		<path class="st4" d="M197,398.8c0,0,0.1,0.2,0.2,0.5s0.2,0.5,0.2,0.5s0.1-0.3,0-0.6S197.1,398.8,197,398.8z"/>
		<path class="st4" d="M195.7,397.2c0,0,0.1,0.2,0.3,0.4s0.4,0.3,0.4,0.3s-0.1-0.2-0.3-0.4S195.7,397.1,195.7,397.2z"/>
		<path class="st4" d="M193.8,396.4c0,0.1,0.2,0.1,0.5,0.1s0.5,0.2,0.5,0.2s-0.1-0.3-0.4-0.4S193.7,396.4,193.8,396.4z"/>
		<path class="st4" d="M192.4,396.1c0,0.1,0.1,0.1,0.2,0.2s0.3,0.1,0.3,0s-0.1-0.1-0.2-0.2S192.4,396,192.4,396.1z"/>
		<path class="st4" d="M135.9,260.4c0,0,83.3-24.3,90.8-20.7s38.7,90.7,38.7,90.7L241.5,342l-30.4-74.3c0,0-59.2,23-68.7,21.1
			S135.9,260.4,135.9,260.4z"/>
		<path class="st4" d="M171.1,257.9c1.2,0.4,46.9,15.4,50,21.3c3.1,5.9-1.5,112.3-1.5,112.3h-29.7l2-101.4l-50-1.3L171.1,257.9z"/>
		<path class="st7" d="M141.7,288.8c0.2,0,0.5,0,0.7-0.1l2.1-0.4c1.8-0.3,4.4-0.9,7.6-1.5c6.4-1.4,15.3-3.4,25-6.2
			c4.8-1.4,9.4-2.9,13.5-4.3s7.8-2.8,10.8-4.1c1.5-0.6,2.9-1.2,4.1-1.8s2.2-1,3-1.4l1.9-1c0.2-0.1,0.4-0.2,0.6-0.4
			c-0.2,0.1-0.5,0.2-0.7,0.3l-1.9,0.9c-0.8,0.4-1.9,0.8-3.1,1.3s-2.6,1.1-4.1,1.7c-3,1.2-6.7,2.6-10.8,4s-8.7,2.8-13.5,4.2
			c-9.6,2.8-18.5,4.9-24.9,6.4l-7.6,1.7l-2,0.6C142.2,288.7,141.9,288.7,141.7,288.8z"/>
		<path class="st7" d="M221.8,302.7c0.1-0.5,0.2-1,0.2-1.5c0.1-1.1,0.2-2.4,0.4-4s0.3-3.8,0.5-6c0.3-2.5,0.3-5,0-7.4
			c-0.5-2.5-1.8-4.7-3.7-6.4c-1.5-1.3-3.2-2.5-5.1-3.3c-1.6-0.7-2.9-1.2-3.8-1.5c-0.5-0.2-0.9-0.3-1.4-0.4c0,0.1,2,0.8,5,2.3
			c1.8,0.8,3.5,2,4.9,3.3c1.8,1.6,3,3.8,3.5,6.1c0.3,2.4,0.3,4.9,0,7.3c-0.2,2.2-0.3,4.2-0.4,6s-0.2,3-0.2,4
			C221.7,301.7,221.7,302.2,221.8,302.7z"/>
		<path class="st10" d="M186.2,213l-25.6,23.2c-6.1,5.6-17.3,7-24.1,2.4c-4.1-2.8-5-7.8-5.8-12.7c-1.5-9,0.4-28.8,0.4-28.3l18.1,0.4
			l-0.9,19.5l30.8-17.4l0.5-0.7c0.3-0.9,0.7-1.9,1.1-3.1c0.3-1.1,0.5-2.2,0.5-3.3c0-1.3-0.2-2.5-0.4-3.7c0-0.1-0.1-0.2-0.1-0.3
			c-0.1-0.2-0.1-0.3-0.1-0.5c-0.1-0.7,0.3-1.3,1-1.5c0.3-0.1,0.6,0,0.8,0.1c0.9,0.6,2.1,3.4,2.1,7c0,0.1,0,0.1,0,0.2
			c0.1,3.7,3.5-0.9,4.8-2.6s5.4-6.6,6.2-6.6c1.2,0,1.4,1.3,0.1,2.9s-4.9,6.8-4,7.4s7.2-7.9,7.2-7.9s1.1-2,2.1-1.3
			c1.9,1.3-5.5,9.8-6.2,10.6c-0.5,0.6,0.4,1.3,0.9,0.7s6.1-8.6,8.1-7.3c1.5,1-6,7.1-6.3,9.4s5.2-5.2,6.6-4.2
			c0.5,0.4,0.8,0.7-2.9,4.6c-3.1,2.9-6.3,5.6-9.7,8.1L186.2,213z"/>
		<path class="st7" d="M168,292.8c7.8-0.5,4.1-11.6,3.9-24.1c-0.1-7.8-5.3-15.4-10.9-20.8c-2.9-2.5-6.2-4.4-9.9-5.5
			c-9.7-3.1-20-3.8-30-1.9C121.1,240.5,106.5,296.8,168,292.8z"/>
	</g>
	<g id="freepik--Desk--inject-14">
		<path class="st0" d="M460.3,240.1H78c-1.8,0-3.3,1.5-3.3,3.3s1.5,3.3,3.3,3.3l0,0h18.2v154.1h7.9V246.7h329.2v154.1h7.9V246.7
			h19.1c1.8,0,3.3-1.5,3.3-3.3S462.2,240.1,460.3,240.1L460.3,240.1z"/>
	</g>
	<g id="freepik--character-3--inject-14">
		<path class="st8" d="M323.6,300.4c-7.8-0.2-4.1-11.6-3.9-24c0.1-7.8,5.3-15.4,10.9-20.8c2.9-2.5,6.2-4.4,9.9-5.5
			c9.6-3.3,20-3.6,30-1.9C370.5,248.2,372.8,302,323.6,300.4z"/>
		<path class="st14" d="M323.6,300.4c-7.8-0.2-4.1-11.6-3.9-24c0.1-7.8,5.3-15.4,10.9-20.8c2.9-2.5,6.2-4.4,9.9-5.5
			c9.6-3.3,20-3.6,30-1.9C370.5,248.2,372.8,302,323.6,300.4z"/>
		<rect x="385.3" y="299.1" class="st4" width="4.2" height="102.2"/>
		<path class="st4" d="M406.9,401.3h-39.3c0,0,7.1-6.2,19.8-6C399.6,395.5,406.9,401.3,406.9,401.3z"/>
		<path class="st8" d="M394.3,195.2c4.6-0.4,9.4-0.8,13.9,0.1s9,3.3,11.5,7.3s2.5,9,2.5,13.7c0,19.8,0,39.6,0,59.4h-53L394.3,195.2z
			"/>
		<path class="st8" d="M422.3,272.9c0.2,11.7-0.8,21.2-8.9,25.8c-6.1,3.4-13.4,3.5-20.4,3.5h-30.2c-3.1,0-6.3-0.1-8.8-1.8
			c-2.8-1.9-3.9-5.6-3.4-9c0.6-3.3,2.2-6.4,4.6-8.8c8.7-9.7,22.5-12.6,35.3-14.9"/>
		<path class="st8" d="M319,395.5l0.3-10.6l19.8,0.4l-0.2,15.5l-1.2,0.1c-5.5,0.2-27.9,0.6-31.5-0.6
			C302.1,398.9,319,395.5,319,395.5z"/>
		<g class="st9">
			<path class="st8" d="M310.7,397.5c0,0-5.9,1.6-5.2,2.6s23.3,1.4,33.3,0.7v-0.4l-26.4-0.3C312.4,400.1,311.9,397.5,310.7,397.5z"
				/>
		</g>
		<path class="st4" d="M339.1,400.3h-0.3h-1l-3.6,0.1c-3,0-7.2,0.1-11.9,0s-8.9-0.3-11.9-0.4l-3.6-0.2l-1-0.1c-0.1,0-0.2,0-0.3,0
			h0.3h1l3.6,0.1c3,0.1,7.2,0.3,11.9,0.4s8.9,0.1,11.9,0.1H339.1L339.1,400.3z"/>
		<path class="st4" d="M312.4,400.4c-0.1-0.6-0.4-1.2-0.6-1.7c-0.3-0.5-0.7-1-1.2-1.4C311.8,397.8,312.5,399,312.4,400.4
			L312.4,400.4z"/>
		<path class="st4" d="M318.3,397.5c0,0-0.3-0.3-0.6-0.8s-0.5-0.9-0.4-0.9s0.3,0.3,0.6,0.8S318.4,397.5,318.3,397.5z"/>
		<path class="st4" d="M320,396.7c0,0-0.4-0.2-0.7-0.5s-0.6-0.6-0.5-0.6s0.4,0.2,0.7,0.5S320,396.7,320,396.7z"/>
		<path class="st4" d="M321,394.8c-0.3,0.1-0.7,0.1-1,0.1s-0.7,0-1-0.1c0.3-0.1,0.7-0.2,1-0.1C320.3,394.7,320.7,394.7,321,394.8z"
			/>
		<path class="st4" d="M321.4,393.5c-0.3,0.2-0.8,0.3-1.2,0.3c-0.4,0.1-0.8,0-1.2-0.2c0.4-0.1,0.8-0.1,1.2-0.1
			C320.6,393.5,321,393.5,321.4,393.5z"/>
		<path class="st4" d="M317.7,395.8c-0.4,0.1-0.9,0.1-1.3,0c-0.5-0.1-0.9-0.2-1.4-0.3c-0.3-0.1-0.5-0.2-0.8-0.3
			c-0.1-0.1-0.3-0.2-0.3-0.4c0-0.2,0-0.4,0.2-0.5c1-0.5,2.2-0.2,2.9,0.7c0.2,0.3,0.3,0.5,0.4,0.9c0,0.1,0,0.2,0,0.3
			c-0.1-0.4-0.3-0.8-0.6-1.1c-0.3-0.3-0.7-0.6-1.1-0.7c-0.5-0.2-1-0.2-1.5,0.1c-0.2,0.1-0.1,0.4,0.1,0.5s0.5,0.2,0.7,0.3
			c0.4,0.2,0.9,0.3,1.3,0.4C317.2,395.7,317.7,395.7,317.7,395.8z"/>
		<path class="st4" d="M317.4,395.8c-0.1-0.3-0.2-0.6-0.1-0.9c0-0.3,0.2-0.6,0.4-0.9c0.2-0.4,0.6-0.6,1.1-0.6
			c0.3,0.1,0.4,0.3,0.4,0.6c0,0.2-0.1,0.4-0.2,0.6c-0.2,0.3-0.4,0.5-0.6,0.8c-0.2,0.2-0.5,0.4-0.7,0.5c0,0,0.3-0.2,0.6-0.6
			c0.2-0.2,0.4-0.5,0.5-0.8c0.2-0.3,0.3-0.7,0-0.8s-0.6,0.3-0.9,0.5c-0.2,0.2-0.3,0.5-0.4,0.8C317.4,395.3,317.3,395.5,317.4,395.8z
			"/>
		<path class="st4" d="M338.8,394.9c0,0-0.6-0.1-1.5,0c-2.4,0.2-4.4,1.8-5.3,4c-0.3,0.9-0.4,1.4-0.4,1.4c0-0.1,0-0.3,0-0.4
			c0-0.4,0.1-0.7,0.2-1.1c0.4-1.2,1.1-2.2,2.1-2.9c1-0.7,2.1-1.2,3.4-1.2c0.4,0,0.7,0,1.1,0C338.6,394.7,338.7,394.8,338.8,394.9z"
			/>
		<path class="st4" d="M336.9,386.7c0.1,1.4,0.1,2.7,0.1,4.1s0,2.7-0.1,4.1c-0.1-1.4-0.1-2.7-0.1-4.1S336.8,388,336.9,386.7z"/>
		<path class="st4" d="M329.2,398.5c-1,0.2-1.9,0.3-2.9,0.2c-1,0-1.9-0.1-2.9-0.3c0-0.1,1.3,0,2.9,0S329.2,398.4,329.2,398.5z"/>
		<path class="st4" d="M333.1,398.6c0,0-0.1,0.3-0.2,0.6s-0.2,0.6-0.3,0.5s-0.1-0.3,0.1-0.6S333.1,398.5,333.1,398.6z"/>
		<path class="st4" d="M334.6,396.8c0,0-0.1,0.2-0.3,0.5s-0.4,0.3-0.5,0.3s0.1-0.2,0.3-0.5S334.5,396.7,334.6,396.8z"/>
		<path class="st4" d="M336.7,396c0,0.1-0.3,0.1-0.6,0.1s-0.5,0.2-0.5,0.2s0.1-0.3,0.5-0.4S336.7,395.9,336.7,396z"/>
		<path class="st4" d="M338.2,395.7c0,0.1-0.1,0.2-0.3,0.2s-0.3,0.1-0.3,0s0.1-0.2,0.2-0.2S338.2,395.6,338.2,395.7z"/>
		<g class="st15">
			<polygon points="338.8,394.4 319,393.7 319.1,391.3 339,391.8 			"/>
		</g>
		<path class="st8" d="M271.4,348.8l4-9.8l18.4,7.3l-5.7,14.4l-1.2-0.4c-5.2-1.7-26.3-9.2-29.3-11.6
			C254.3,346.1,271.4,348.8,271.4,348.8z"/>
		<g class="st9">
			<path class="st8" d="M263,347.7c0,0-6.1-0.6-5.8,0.6s21.4,9.5,31,12.4l0.1-0.4l-24.6-9.5C263.7,350.8,264,348.2,263,347.7z"/>
		</g>
		<path class="st4" d="M288.6,360.4l-0.3-0.1l-0.9-0.3l-3.4-1.2c-2.9-1-6.8-2.5-11.1-4.2s-8.2-3.4-11-4.6l-3.3-1.5l-0.9-0.4
			l-0.3-0.1c0.1,0,0.2,0.1,0.3,0.1l0.9,0.4l3.3,1.4c2.8,1.2,6.7,2.8,11,4.5s8.2,3.2,11.1,4.3l3.4,1.3l0.9,0.4
			C288.3,360.3,288.4,360.3,288.6,360.4z"/>
		<path class="st4" d="M263.5,351.1c0.1-0.6,0.1-1.2,0-1.9c-0.1-0.6-0.4-1.2-0.6-1.7C263.8,348.4,264.1,349.8,263.5,351.1
			L263.5,351.1z"/>
		<path class="st4" d="M270.1,350.5c-0.1,0-0.2-0.4-0.3-0.9c-0.1-0.3-0.1-0.7-0.1-1c0.1,0,0.2,0.4,0.3,0.9
			C270.1,349.8,270.1,350.1,270.1,350.5z"/>
		<path class="st4" d="M271.9,350.3c-0.1,0-0.3-0.3-0.5-0.7s-0.3-0.8-0.3-0.8s0.3,0.3,0.5,0.7S271.9,350.2,271.9,350.3z"/>
		<path class="st4" d="M273.5,348.9c-0.3,0-0.7-0.1-1-0.3c-0.5-0.2-1-0.4-0.9-0.5c0.3,0,0.7,0.1,1,0.3
			C273.1,348.7,273.5,348.8,273.5,348.9z"/>
		<path class="st4" d="M274.3,347.8c-0.8,0.1-1.6-0.2-2.2-0.7c0.4,0.1,0.8,0.2,1.1,0.4C273.6,347.5,273.9,347.7,274.3,347.8z"/>
		<path class="st4" d="M270.1,348.6c-0.4-0.1-0.8-0.3-1.2-0.5c-0.4-0.2-0.8-0.5-1.1-0.8c-0.2-0.2-0.4-0.4-0.6-0.6
			c-0.1-0.1-0.2-0.3-0.1-0.5c0-0.2,0.2-0.4,0.4-0.4c1.1-0.1,2.1,0.6,2.4,1.7c0.1,0.3,0.1,0.6,0.1,0.9c0,0.1,0,0.2-0.1,0.3
			c0-0.4,0-0.8-0.1-1.2c-0.1-0.4-0.4-0.8-0.8-1.1c-0.4-0.3-0.9-0.5-1.5-0.5c-0.2,0.1-0.3,0.3-0.1,0.5c0.2,0.2,0.3,0.4,0.5,0.5
			c0.3,0.3,0.7,0.6,1.1,0.8C269.6,348.4,270.1,348.6,270.1,348.6z"/>
		<path class="st4" d="M269.7,348.5c0-0.3,0-0.6,0.2-0.9s0.4-0.5,0.7-0.7c0.3-0.3,0.8-0.4,1.2-0.2c0.2,0.2,0.3,0.5,0.1,0.7
			c-0.1,0.2-0.2,0.3-0.4,0.4c-0.3,0.2-0.5,0.4-0.8,0.5s-0.6,0.2-0.9,0.2c0,0,0.3-0.1,0.8-0.4c0.3-0.1,0.5-0.3,0.8-0.5
			s0.5-0.6,0.3-0.8c-0.3-0.1-0.7,0-1,0.2s-0.5,0.4-0.6,0.6C269.9,348,269.8,348.3,269.7,348.5z"/>
		<path class="st4" d="M290.2,355.2c-0.5-0.2-0.9-0.4-1.4-0.5c-1.1-0.3-2.3-0.3-3.5,0c-1.1,0.4-2.1,1-2.9,1.9
			c-0.6,0.7-0.8,1.2-0.9,1.2c0-0.1,0.1-0.3,0.1-0.4c0.2-0.3,0.4-0.6,0.6-0.9c0.8-1,1.8-1.7,3-2c1.2-0.4,2.4-0.4,3.6,0
			c0.3,0.1,0.7,0.3,1,0.4C290.1,355.1,290.2,355.2,290.2,355.2z"/>
		<path class="st4" d="M291.3,346.8c-0.4,1.3-0.8,2.6-1.3,3.9s-1,2.5-1.6,3.8c0.4-1.3,0.8-2.6,1.3-3.9S290.7,348,291.3,346.8z"/>
		<path class="st4" d="M279.9,355.2c-1-0.1-1.9-0.4-2.8-0.8c-0.9-0.3-1.8-0.7-2.6-1.3c0-0.1,1.2,0.5,2.7,1.1
			S279.9,355.1,279.9,355.2z"/>
		<path class="st4" d="M283.5,356.7c0,0.1-0.2,0.2-0.4,0.4s-0.4,0.4-0.5,0.4s0-0.3,0.3-0.6S283.5,356.6,283.5,356.7z"/>
		<path class="st4" d="M285.5,355.5c0,0.1-0.2,0.2-0.4,0.3s-0.5,0.2-0.5,0.1s0.2-0.2,0.4-0.3S285.5,355.4,285.5,355.5z"/>
		<path class="st4" d="M287.8,355.5c0,0.1-0.3,0-0.6,0s-0.6,0-0.6,0s0.2-0.2,0.6-0.2S287.8,355.4,287.8,355.5z"/>
		<path class="st4" d="M289.3,355.7c0,0.1-0.1,0.1-0.3,0.1s-0.3,0-0.3-0.1s0.1-0.1,0.3-0.1S289.3,355.6,289.3,355.7z"/>
		<g class="st15">
			<polygon points="290.3,354.7 272.1,347.1 273,344.9 291.4,352.4 			"/>
		</g>
		<path class="st4" d="M399.4,256.5c0,0,5.4,34.6-8.8,38.7c-15.1,4.4-47.4,12.5-47.4,12.5l-2.4,84.8l-23.7-0.9l-2.3-95.5
			c0.2-3.4,1.9-6.4,4.7-8.3l34.2-31.4L399.4,256.5z"/>
		<path class="st4" d="M270.8,344.9l22.1,8.5l30-62.3c0,0,50.8,6,65.4,4c5.2-0.7,11.4-3.4,14.5-7.4c5.7-7.2,5.9-17.1,4.8-26.2
			l-0.4-2l-37.4-2l-57.3,8.6c-5.1,0.9-9.4,4.3-11.5,9L270.8,344.9z"/>
		<path class="st7" d="M320,288.9c-1.1,0.6-2.1,1.5-2.9,2.5c-0.8,1.2-1.3,2.5-1.5,3.9c-0.3,1.7-0.3,3.4-0.3,5.1
			c0.1,3.7,0.1,7.1,0.1,9.5c0,1.2,0,2.2,0,2.9c0,0.4,0,0.7-0.1,1.1c-0.1-0.3-0.1-0.7-0.1-1c0-0.7-0.1-1.7-0.1-2.9
			c-0.1-2.4-0.2-5.8-0.3-9.5c-0.1-1.8,0-3.5,0.3-5.2c0.3-1.4,0.8-2.8,1.7-4c0.6-0.8,1.3-1.5,2.2-1.9
			C319.3,289.1,319.6,289,320,288.9z"/>
		<path class="st7" d="M390.6,295.2c-0.2,0-0.5,0-0.7,0l-2.1-0.1c-1.8-0.1-4.4-0.2-7.6-0.4c-6.4-0.4-15.3-1-25-1.8s-18.6-1.8-25-2.6
			c-3.2-0.4-5.8-0.7-7.5-1l-2-0.3c-0.2,0-0.5-0.1-0.7-0.1c0.2,0,0.5,0,0.7,0l2.1,0.2l7.5,0.8c6.4,0.7,15.2,1.6,25,2.5
			s18.6,1.5,25,1.9l7.6,0.5l2.1,0.2C390.2,295.1,390.4,295.2,390.6,295.2z"/>
		<path class="st4" d="M389.9,160.3c0.9,1.6,3.3,1.9,5,1.2c1.6-0.9,3.1-2.1,4.3-3.5c1.3-1.3,3-2.6,4.8-2.6c1.4-0.1,2.9,0.5,4.2-0.1
			s1.7-2.3,2.3-3.7c0.7-1.4,1.6-2.6,2.8-3.6c2.5-2.1,3.2-5.6,1.7-8.5c-0.1-0.1-0.1-0.2-0.2-0.3c-1-1.9-2.7-3.4-4.8-4.2
			c-1.7-0.5-3.7-0.4-5-1.6c-1.5-1.4-1.4-3.9-2.6-5.5c-1.1-1.2-2.5-2-4.1-2.2s-3.2-0.5-4.7-1s-2.7-1.8-3-3.4"/>
		<path class="st4" d="M381.3,126.2c-1.7-5.5-7.6-8.6-13.1-6.9c-2.2,0.7-4.1,2.1-5.4,4c-1,1.4-1.6,3-3,3.9c-1.2,0.8-2.7,0.9-4,1.4
			c-2.9,1.2-4.6,4.3-4.1,7.4c0.3,1.8,1.4,3.5,1,5.3c-0.5,2.4-3.6,3.8-3.7,6.3c-0.1,1.7,1.3,3,2.6,4.1s2.8,2.1,3.2,3.8
			c0.1,1.1,0.1,2.2,0,3.3c0.3,2.4,2.4,4.3,4.8,4.2c1.3-0.1,2.7-0.6,3.7,0.2c0.4,0.4,0.7,0.8,1,1.2c1.2,1.3,3.3,1.2,4.9,0.4
			c1.5-0.9,2.8-2.1,3.9-3.5s2.7-2.3,4.4-2.7"/>
		<path class="st16" d="M391.4,131.1l-0.1,2.9l-0.6,43.9c-0.1,5.1-4.5,9.1-10,9l0,0c-5.5-0.1-10-4.4-10-9.5c0-5.4-0.1-11.1-0.1-11.1
			s-7-1.2-8.4-10.2c-0.7-4.5-0.5-11.9-0.1-18c0.3-5.3,4.9-9.3,10.2-9c0.1,0,0.3,0,0.4,0L391.4,131.1z"/>
		<path class="st4" d="M364,143.2c0,0.6,0.5,1.2,1.1,1.2c0.6,0.1,1.1-0.4,1.2-1c0-0.6-0.5-1.1-1.1-1.2
			C364.5,142.2,364,142.6,364,143.2z"/>
		<path class="st4" d="M363.7,141.9c0.1,0.1,1-0.5,2.3-0.5s2.2,0.6,2.3,0.5c0.1-0.1-0.1-0.3-0.5-0.6c-0.5-0.4-1.2-0.6-1.9-0.6
			c-0.7,0-1.3,0.2-1.8,0.6C363.8,141.6,363.6,141.8,363.7,141.9z"/>
		<path class="st4" d="M376.5,143.2c0,0.6,0.5,1.1,1.1,1.2c0.6,0.1,1.1-0.4,1.2-1l0,0c0-0.6-0.5-1.2-1.1-1.2
			C377.1,142.2,376.6,142.6,376.5,143.2z"/>
		<path class="st4" d="M376,142.1c0.1,0.1,1-0.5,2.3-0.5s2.2,0.6,2.3,0.5c0.1-0.1-0.1-0.4-0.5-0.6c-0.5-0.4-1.2-0.6-1.9-0.6
			c-0.7,0-1.3,0.2-1.8,0.6C376.1,141.8,376,142.1,376,142.1z"/>
		<path class="st4" d="M371.5,151.4c-0.6-0.2-1.3-0.3-2-0.4c-0.3,0-0.6-0.1-0.7-0.3c0-0.3,0-0.7,0.2-0.9c0.3-0.8,0.6-1.6,1-2.4
			c0.9-2.1,1.6-4.2,2.1-6.4c-1,2-1.9,4.1-2.6,6.2c-0.3,0.9-0.6,1.7-0.9,2.4c-0.2,0.4-0.3,0.8-0.2,1.3c0.1,0.2,0.3,0.4,0.5,0.5
			c0.2,0,0.4,0.1,0.5,0.1C370.1,151.5,370.8,151.5,371.5,151.4z"/>
		<path class="st17" d="M370.6,166.3c4.3,0.1,8.5-1.1,12.2-3.2c0,0-3,6.2-12,5.4L370.6,166.3z"/>
		<path class="st17" d="M372,154.5c0.5-0.6,1.2-0.9,2-0.8c0.6,0,1.1,0.3,1.4,0.8c0.3,0.4,0.4,1,0.1,1.5c-0.4,0.5-1.1,0.6-1.6,0.4
			c-0.6-0.2-1.1-0.6-1.6-1c-0.1-0.1-0.3-0.2-0.4-0.4S371.8,154.6,372,154.5"/>
		<path class="st4" d="M375.2,152.3c-0.2,0-0.2,1.4-1.4,2.3s-2.6,0.8-2.6,1s0.3,0.3,0.9,0.3c0.8,0,1.6-0.3,2.2-0.8s1-1.2,1.1-1.9
			C375.4,152.7,375.3,152.3,375.2,152.3z"/>
		<path class="st4" d="M375.7,137.2c0.1,0.3,1.4,0.2,2.8,0.4c1.4,0.2,2.7,0.6,2.9,0.3c0.1-0.1-0.1-0.5-0.6-0.8
			c-1.3-0.8-2.9-1-4.3-0.5C375.9,136.8,375.6,137.1,375.7,137.2z"/>
		<path class="st4" d="M364.2,138.3c0.2,0.3,1.1,0,2.1,0s1.9,0.2,2.1-0.1c0.1-0.1,0-0.4-0.4-0.7c-0.5-0.3-1.1-0.5-1.7-0.5
			s-1.2,0.2-1.7,0.6C364.2,137.8,364.1,138.1,364.2,138.3z"/>
		<path class="st4" d="M381,124c-0.1,0-0.2,0-0.3-0.1l-0.5-0.5l0.8,0.3c0.1,0.1,0.3,0.1,0.5,0.1c0.4,0.1,0.7,0,0.8,0.2
			s-0.3,0.5-0.9,0.3c-0.2-0.1-0.4-0.2-0.6-0.4l0.3-0.2C381.1,123.8,381.1,123.9,381,124z"/>
		<path class="st4" d="M380.9,125c-1.7,1.9-2.2,4.5-1.6,6.9c0.8,2.5,2.7,4.4,5.1,5.2c0.6,0.2,1.3,0.4,1.5,1c0.1,0.5,0,1-0.2,1.5
			c-1.2,3.1-0.1,6.7,2.7,8.6c-0.6,3.4,0.5,6.9,3,9.3c0-1.6,1.2-2.9,2.5-3.9c1.4-0.8,2.7-1.8,3.9-2.9c1.7-1.9,2.1-4.8,0.8-7.1
			c-0.5-0.6-0.8-1.3-0.8-2.1c0-0.9,0.8-1.6,1.4-2.3c2.8-3.2,2.7-7.9-0.3-10.9c-0.7-0.7-1.5-1.2-2.1-1.9c-0.7-1-1.4-2-2-3.1
			c-2.3-3.1-6.3-4.6-10.1-3.9c-3.8,0.8-6.1,4.4-5.3,8.6"/>
		<path class="st4" d="M379.9,126.2c0,1.7-0.4,3.4-1.1,4.9c-0.7,1.6-2.1,2.7-3.9,3c-1.6,0.2-3.2-0.7-4.8-1.1
			c-2.1-0.6-4.7-0.3-5.9,1.5c-0.9,1.3-1,4.2-3,5c-1.4,0.6-2.3-1.1-3.7-0.4c-2.3,1.1-1.9,5.1-4.3,6.1c0.8-1.9,0.4-4.1,0.4-6.2
			c0-2.1,0.5-4.4,2.4-5.4c1.1-0.4,2.2-0.7,3.3-0.9c1.7-0.6,2.9-2.1,4.1-3.5c1.2-1.4,2.8-2.6,4.5-2.6s3.3,1.3,5,1.2
			c1.4-0.1,2.6-1,3.8-1.6c1.2-0.6,3-0.8,3.9,0.3"/>
		<path class="st7" d="M398.3,128.6c0,0-0.2-0.2-0.7-0.4c-0.7-0.3-1.4-0.4-2.2-0.2c-1.1,0.2-2.1,0.6-3.1,1.1
			c-1.3,0.6-2.7,0.9-4.2,0.8c-1.4-0.1-2.8-0.5-4-1.2c-1-0.6-1.9-1.4-2.5-2.4c-0.5-0.6-0.8-1.3-1.1-2.1c-0.1-0.3-0.2-0.5-0.2-0.8
			c0.4,0.9,0.9,1.8,1.5,2.7c0.7,0.9,1.5,1.6,2.5,2.2c1.2,0.7,2.5,1.1,3.8,1.1c2.9,0.3,5.2-1.6,7.2-1.7c0.8-0.1,1.6,0,2.3,0.4
			C398.2,128.3,398.3,128.6,398.3,128.6z"/>
		<path class="st7" d="M350.1,146.7c0.6,0.1,1.1,0.1,1.7,0.1c1.6-0.1,3.1-0.6,4.3-1.6c0.8-0.7,1.4-1.6,1.8-2.6
			c0.4-1.2,0.6-2.4,0.6-3.6c0.1-1.3,0.1-2.7,0.3-4.2c0.1-1.5,0.7-3,1.7-4.2c0.5-0.6,1.2-1.1,1.9-1.4c0.7-0.3,1.5-0.4,2.3-0.3
			c1.5,0.2,2.8,0.7,4.1,0.8c2.3,0.3,4.7-0.2,6.6-1.5c1.3-0.9,2.4-2,3.2-3.4c0.6-1,0.8-1.6,0.8-1.5c0,0.2,0,0.3-0.1,0.4
			c-0.1,0.4-0.3,0.8-0.5,1.2c-0.8,1.4-1.9,2.6-3.2,3.6c-2,1.4-4.5,2-6.9,1.7c-1.4-0.1-2.7-0.7-4.1-0.8c-0.7-0.1-1.4,0-2,0.3
			c-0.7,0.3-1.2,0.7-1.7,1.3c-0.9,1.2-1.5,2.5-1.6,4c-0.2,1.4-0.2,2.8-0.3,4.1c-0.1,1.3-0.3,2.6-0.7,3.8c-0.4,1.1-1.1,2-2,2.7
			c-1.3,1-2.9,1.6-4.5,1.6c-0.4,0-0.9-0.1-1.3-0.2C350.2,146.7,350.1,146.7,350.1,146.7z"/>
		<path class="st7" d="M361.2,147.3c0,0.5-0.1,0.9-0.4,1.4c-1,2.1-2.7,3.8-4.9,4.6c-0.8,0.3-1.4,0.4-1.4,0.3
			c1.4-0.6,2.7-1.5,3.9-2.5C359.5,149.9,360.5,148.7,361.2,147.3z"/>
		<path class="st7" d="M415.4,146.5c0-0.6-0.1-1.3-0.3-1.9c-0.2-0.7-0.6-1.3-1.1-1.9c-0.6-0.7-1.5-1.3-2.4-1.6
			c-1.1-0.2-2.3-0.2-3.5,0c-0.7,0.1-1.4,0.1-2,0.1c-0.8-0.1-1.5-0.3-2.1-0.8c-1.2-1-1.9-2.4-2.8-3.7s-2.4-2.1-3.9-2
			c-1.6,0.1-3.2,0.4-4.8,0.8c-4.2,0.8-8.5-1.1-10.9-4.7c-1-1.5-1.5-3.2-1.6-5c0-0.5,0-1,0-1.4c0-0.2,0-0.3,0.1-0.5
			c0,0,0,0.7,0.1,1.9c0.2,1.7,0.8,3.3,1.7,4.8c2.3,3.4,6.4,5.1,10.5,4.4c1.6-0.4,3.2-0.7,4.8-0.9c1.8-0.1,3.4,0.8,4.3,2.3
			c0.9,1.3,1.6,2.7,2.7,3.6c1.1,0.7,2.5,1,3.8,0.7c1.2-0.2,2.4-0.2,3.6,0.1c1.7,0.6,3,2,3.6,3.7c0.1,0.5,0.2,0.9,0.2,1.4
			C415.5,146.2,415.4,146.3,415.4,146.5z"/>
		<path class="st7" d="M408.8,153c-0.2,0.4-0.6,0.6-1.1,0.6c-0.5,0.1-1,0-1.5-0.2c-0.6-0.3-1.1-0.8-1.4-1.4
			c-0.4-0.7-0.7-1.4-0.9-2.1c-0.3-0.8-0.7-1.6-1.2-2.2c-0.7-0.6-1.6-1-2.5-1c-1-0.1-2-0.1-3.1-0.2c-2,0-4.1-0.4-6-1.1
			c-1.6-0.6-3-1.7-3.9-3.1c-0.6-1-0.9-2.1-0.8-3.3c0-0.3,0.1-0.6,0.2-0.9c0.1-0.2,0.1-0.3,0.1-0.3s-0.1,0.4-0.1,1.2
			c0,1.1,0.3,2.2,0.9,3.1c0.9,1.3,2.2,2.3,3.8,2.9c1.9,0.6,3.9,1,5.9,1c1.1,0.1,2.1,0.1,3.2,0.2c1,0.1,2,0.5,2.8,1.2
			c0.6,0.7,1.1,1.5,1.3,2.3c0.2,0.7,0.5,1.4,0.8,2.1c0.3,0.5,0.7,1,1.2,1.3c0.4,0.2,0.9,0.3,1.3,0.3
			C408.1,153.3,408.4,153.2,408.8,153z"/>
		<path class="st16" d="M315.9,204l-4.1-5c-2.5-3.7,0.5-5.7,0.8-6.5c0.4-1.3,1-2.5,1.9-3.5l-0.9-1.5c-1.1-1.6-2.2-3.2-3.1-4.9
			c-0.4-1,1.4-1.8,2-0.9c1.4,1.9,3.9,5.1,5,6.3c1.4,1.5,4.9,5.5,5.4,1.9s-0.3-5.1-0.4-6.1s1.9-2.1,2.3,0c0.1,0.9,0.6,2.4,0.9,4.5
			c0.1,1,0.1,2.2,0.2,3.2c0.1,1.1,1.5,4.9,1.7,5.8L315.9,204z"/>
		<path class="st7" d="M352.8,183.7l-13.4,33.5l-10.9-21.9l-13.9,8.3l13.5,27.6c2.2,4.5,6.9,7.2,11.9,6.9c3.7-0.2,7.1-2.2,9.1-5.4
			c4.9-7.9,12.6-26.7,12.6-26.7C361.7,207,352.8,183.7,352.8,183.7z"/>
		<path class="st7" d="M401.7,210.7l6.8-29.2c-7-6.7-17.7-7.3-17.7-7.3l-3.5,2.3c-4.3,2.9-10,2.7-14.1-0.4l-2.6-1.9
			c-8.3,1-14.3,3.8-17.8,9.6l3.7,29.1l4.3,14l-8.3,30.4l55.7,2.4L398,224.3C397.4,225,401.7,210.7,401.7,210.7"/>
		<path class="st4" d="M402.9,215.9c-0.1-0.5-0.2-0.9-0.3-1.4c-0.2-0.9-0.6-2.2-0.9-3.9c-0.9-4.3-1.2-8.6-1-13
			c0.1-2.4,0.4-4.8,1-7.1c0.5-1.9,1.3-3.6,2.5-5.2c0.8-1,1.8-1.9,3-2.5c0.8-0.4,1.3-0.6,1.3-0.6s-0.1,0-0.4,0.1s-0.7,0.2-1,0.4
			c-1.2,0.6-2.3,1.4-3.1,2.5c-1.3,1.5-2.2,3.3-2.7,5.3c-0.6,2.3-0.9,4.7-1,7.2c-0.2,4.4,0.1,8.8,1,13c0.4,1.6,0.8,2.9,1,3.8
			c0.1,0.4,0.3,0.8,0.3,1S402.9,215.9,402.9,215.9z"/>
		<path class="st16" d="M380.3,254.7c-3,2.1-6.2,4-9.4,5.7c-4.1,2-4.3,1.6-4.5,1.1c-0.4-1.4,7.1-3.7,5.2-4.1
			c-1.9-0.4-8.8,3.9-9.2,2.5c-0.5-1.9,7.4-4.2,8.1-4.4s0.3-1.2-0.3-0.9c-0.8,0.4-9.7,3.9-10.2,2.1c-0.3-1,1.6-1.3,1.6-1.3
			s8.5-2.8,8.2-3.6s-5.3,0.6-7,1.2s-2.6,0.1-2.3-0.9c0.2-0.6,5.3-2.6,7-3.2s6.3-2,3.4-3.1s-4.7-3-4.9-3.9s1-1.3,1.7-0.6
			c0.8,0.7,1.7,1.2,2.7,1.6c0.8,0.4,1.6,0.6,2.4,0.7c0.7,0.1,1.4,0.1,1.9,0.2l6.2,0.5l3.1,8.1L380.3,254.7z"/>
		<path class="st7" d="M407.3,180.3c3.5,2.8,6,6.6,7.3,10.9c1.4,4.5,5.3,19.6,8.2,30.9c1.9,7.4-2.3,14.9-9.5,17.3L380.7,257
			l-5.4-13.8l28.6-18.8l-6.9-25.6c-1.1-3.9-1.6-7.9-0.2-11.6S401.3,179.6,407.3,180.3z"/>
		<path class="st4" d="M415.2,238.6l-0.2,0.1l-0.5,0.3l-1.8,1l-7,3.8l-24.9,13.4l-0.2,0.1l-0.1-0.2c-1.6-4.3-3.5-8.9-5.3-13.8
			l-0.1-0.2l0.2-0.1l12.8-8.4l15.8-10.4l-0.1,0.3c-1.9-7-3.3-13.7-4.6-19.6c-0.3-1.5-0.6-2.9-1-4.3c-0.3-1.4-0.6-2.7-0.8-4.1
			c-0.2-2.5,0-5,0.6-7.4c0.5-2,1.6-3.8,3.1-5.1c1.1-1,2.6-1.7,4.1-1.9c0.9-0.1,1.9-0.1,2.8,0.2c0.3,0.1,0.6,0.2,0.9,0.4
			c0,0-0.3-0.1-0.9-0.3c-0.9-0.2-1.8-0.2-2.8-0.1c-1.5,0.3-2.8,0.9-3.9,1.9c-1.5,1.4-2.5,3.1-3,5.1c-0.6,2.4-0.8,4.8-0.5,7.2
			c0.2,1.4,0.4,2.7,0.8,4.1c0.3,1.4,0.6,2.8,1,4.3c1.3,5.9,2.8,12.6,4.7,19.6v0.2l-0.2,0.1L388.3,235l-12.8,8.4l0.1-0.3
			c1.9,4.9,3.7,9.5,5.3,13.8l-0.3-0.1l25-13.2l7.1-3.7l1.9-1l0.5-0.2L415.2,238.6z"/>
		<path class="st4" d="M361.7,190.8c0.1,0.4,0.1,0.9,0.1,1.3c-0.1,1.2-0.3,2.4-0.6,3.6c-0.5,1.7-1.1,3.4-1.8,5c-0.9,2-1.5,4-2,6.1
			c-0.4,2.1-0.4,4.3,0,6.4c0.3,1.7,0.7,3.5,1.2,5.1c0.5,1.4,0.9,2.6,1.1,3.4c0.2,0.4,0.3,0.8,0.4,1.3c-0.2-0.4-0.4-0.8-0.6-1.2
			c-0.3-0.8-0.8-1.9-1.3-3.4c-0.6-1.7-1-3.4-1.4-5.2c-0.4-2.2-0.4-4.4,0-6.6c0.5-2.1,1.1-4.2,2-6.2c0.8-1.9,1.5-3.5,1.9-5
			C361.3,194,361.6,192.4,361.7,190.8z"/>
		<path class="st4" d="M404.5,224.1c0-0.1,0.3-0.2,0.9-0.2c1.6,0.1,3,1,3.8,2.4c0.3,0.5,0.3,0.9,0.2,0.9c-0.5-0.8-1.2-1.6-2-2.2
			C406.5,224.6,405.5,224.3,404.5,224.1z"/>
		<path class="st0" d="M379.2,200.8c0,0,0-0.1,0.1-0.1c0.1-0.1,0.2-0.2,0.2-0.4c0.4-0.4,0.8-0.8,1.3-1c0.8-0.4,1.7-0.5,2.6-0.3
			c1.2,0.3,2.2,1.1,2.7,2.1c0.6,1.3,0.5,2.9-0.3,4.1l-2.6,3.9l-6.1,9v0.1H377l-0.7,0.3l-5.9,2.2l-0.4,0.1v-0.4c0-2.4,0-4.6,0-6.7
			v-0.1l0,0c2.6-3.8,4.9-7,6.5-9.4l2-2.6C378.7,201.3,379,201,379.2,200.8c-0.2,0.3-0.4,0.7-0.6,1l-1.8,2.7l-6.3,9.5v-0.1
			c0,2.1,0,4.3,0,6.7l-0.3-0.2l5.8-2.2l0.7-0.3l-0.1,0.1c2.2-3.2,4.3-6.2,6.1-9l2.7-3.9c0.7-1.1,0.9-2.5,0.3-3.7
			c-0.5-1-1.4-1.7-2.4-2c-0.8-0.2-1.7-0.1-2.4,0.2C380.2,199.8,379.7,200.2,379.2,200.8z"/>
		<path class="st0" d="M376.9,218c-2.3-1.2-4.4-2.6-6.2-4.3C372.9,214.8,375,216.2,376.9,218z"/>
		<path class="st0" d="M372.6,219.6c-0.1,0.1-0.5-0.5-1-0.9s-1.1-0.7-1.1-0.9s0.8-0.1,1.4,0.5S372.8,219.5,372.6,219.6z"/>
		<path class="st0" d="M385.7,204.9c-2.2-1.2-4.2-2.6-6-4.4C382,201.7,384,203.1,385.7,204.9z"/>
		<path class="st0" d="M373.8,215.5c0.3-0.7,0.7-1.4,1.1-2c0.8-1.2,1.8-2.8,3-4.6s2.3-3.4,3.1-4.5c0.4-0.6,0.9-1.2,1.4-1.8
			c0.2,0.1-1.7,3.1-4.1,6.6c-1.2,1.8-2.3,3.4-3.2,4.5C374.8,214.4,374.3,215,373.8,215.5z"/>
		<path class="st17" d="M312.9,193.7c0.4,0.5,0.8,1,1.1,1.5c0.4,0.5,0.9,1,1.4,1.5c0.3,0.3,0.6,0.6,0.8,1c0.3,0.5,0.2,1.1-0.2,1.5
			c-0.4,0.3-1,0.4-1.5,0.3c-0.4-0.1-0.8-0.3-1.2-0.6c-0.6-0.4-1.1-0.9-1.4-1.5c-0.4-0.5-0.7-1.1-0.8-1.7c0.4,0.5,0.8,1,1.1,1.5
			c0.4,0.5,0.9,1,1.4,1.4c0.3,0.2,0.6,0.4,1,0.4c0.3,0.1,0.7,0.1,1-0.1c0.2-0.3,0.3-0.6,0.1-0.9c-0.2-0.3-0.4-0.6-0.7-0.9
			c-0.5-0.5-0.9-1-1.3-1.6C313.3,194.9,313,194.4,312.9,193.7z"/>
		<path class="st17" d="M314.7,190.8c0.6,0.5,1.2,1.2,1.7,1.8l1.8,2.1c0.3,0.4,0.7,0.8,1,1.3c0.2,0.3,0.3,0.6,0.3,0.9
			c0,0.4-0.1,0.7-0.4,1c-0.4,0.5-1.1,0.8-1.8,0.6c-0.6-0.1-1.1-0.4-1.5-0.8c-0.6-0.7-1.2-1.4-1.7-2.1c-0.5-0.6-1-1.3-1.4-2.1
			c0.6,0.6,1.2,1.2,1.7,1.8c0.6,0.7,1.1,1.4,1.8,2c0.4,0.3,0.8,0.6,1.3,0.6c0.5,0.1,1-0.1,1.3-0.4c0.3-0.4,0.3-0.9,0-1.3
			c-0.3-0.4-0.6-0.8-1-1.2l-1.7-2.1C315.6,192.3,315.1,191.6,314.7,190.8z"/>
		<path class="st4" d="M339.3,223.4c-0.3-2.1-0.3-4.2,0.1-6.3C339.7,219.2,339.7,221.3,339.3,223.4z"/>
		<path class="st8" d="M373.8,300.4c-7.8-0.2-4.1-11.6-3.9-24c0.1-7.8,5.3-15.4,10.9-20.8c2.9-2.5,6.2-4.4,9.9-5.5
			c9.6-3.3,20-3.6,30-1.9C420.7,248.2,423.1,302,373.8,300.4z"/>
	</g>
	<g id="freepik--character-1--inject-14">
		<path class="st7" d="M112.5,297.9c7.8-0.2,4.1-11.6,3.9-24.1c-0.1-7.8-5.3-15.4-10.9-20.8c-2.9-2.5-6.2-4.4-9.9-5.5
			c-9.7-3.1-20-3.8-30-1.9C65.6,245.7,63.3,299.5,112.5,297.9z"/>
		<path class="st4" d="M61.7,401.3c0,0-6.3-5.5-17.7-6v-96.1h-4.2v96.3c-10.9,0.8-17.4,5.9-17.4,5.9h17.4v0.1H44v-0.1L61.7,401.3
			L61.7,401.3z"/>
		<path class="st7" d="M35,193.5c-4.6-0.4-9.4-0.8-13.9,0.1s-9,3.3-11.5,7.3s-2.5,9-2.5,13.7v59.3h53L35,193.5z"/>
		<path class="st7" d="M7,271.2c-0.2,11.7,0.8,21.2,8.9,25.8c6.1,3.4,13.4,3.5,20.4,3.5h30.2c3.1,0,6.3-0.1,8.8-1.8
			c2.8-2,3.9-5.6,3.4-9c-0.6-3.3-2.2-6.4-4.6-8.8c-8.7-9.7-22.5-12.6-35.3-14.9"/>
		<path class="st8" d="M122.3,395.6l-0.2-10.6l-19.8,0.2l0.1,15.5l1.2,0.1c5.5,0.2,27.9,0.8,31.5-0.4
			C139.2,399.1,122.3,395.6,122.3,395.6z"/>
		<g class="st9">
			<path class="st8" d="M130.5,397.7c0,0,5.9,1.6,5.2,2.6s-23.4,1.2-33.3,0.5v-0.5l26.4-0.1C128.8,400.2,129.4,397.7,130.5,397.7z"
				/>
		</g>
		<path class="st4" d="M102.1,400.3h0.4h1l3.6,0.1c3,0.1,7.2,0.1,11.9,0.1s8.9-0.2,11.9-0.3l3.6-0.2l1-0.1c0.1,0,0.2,0,0.3,0
			c-0.1,0-0.2,0-0.3,0h-1l-3.6,0.1c-3,0.1-7.2,0.2-11.9,0.3s-8.8,0-11.9,0h-3.6H102.1L102.1,400.3z"/>
		<path class="st4" d="M128.8,400.5c0.2-0.6,0.4-1.2,0.7-1.7s0.8-1,1.2-1.4c-0.6,0.2-1.1,0.7-1.4,1.3
			C128.9,399.2,128.7,399.8,128.8,400.5z"/>
		<path class="st4" d="M122.9,397.6c0.1,0,0.3-0.3,0.6-0.8c0.2-0.3,0.3-0.6,0.4-0.9c-0.1,0-0.3,0.3-0.6,0.8S122.9,397.6,122.9,397.6
			z"/>
		<path class="st4" d="M121.3,396.8c0.1,0,0.4-0.2,0.7-0.5s0.6-0.6,0.5-0.6s-0.4,0.2-0.7,0.5S121.3,396.7,121.3,396.8z"/>
		<path class="st4" d="M120.3,394.9c0.3,0.1,0.7,0.2,1,0.1c0.3,0,0.7,0,1-0.1c-0.3-0.1-0.7-0.1-1-0.1
			C120.9,394.7,120.6,394.8,120.3,394.9z"/>
		<path class="st4" d="M119.9,393.6c0.3,0.2,0.7,0.3,1.2,0.3c0.4,0.1,0.8,0,1.2-0.2c-0.4-0.1-0.8-0.1-1.2-0.1
			C120.7,393.6,120.3,393.6,119.9,393.6z"/>
		<path class="st4" d="M123.6,395.8c0.4,0.1,0.9,0.1,1.3,0c0.5-0.1,0.9-0.2,1.4-0.3c0.3-0.1,0.5-0.2,0.8-0.3
			c0.1-0.1,0.3-0.2,0.3-0.4c0-0.2,0-0.4-0.2-0.5c-1.2-0.6-2.6,0-3.1,1.1c-0.1,0.1-0.1,0.3-0.2,0.4c0,0.2,0,0.4,0,0.4
			c0.1-0.4,0.3-0.8,0.6-1.1c0.3-0.3,0.7-0.6,1.1-0.7c0.5-0.2,1-0.1,1.5,0.1c0.2,0.1,0.1,0.4-0.1,0.5c-0.2,0.1-0.5,0.2-0.7,0.3
			c-0.4,0.2-0.9,0.3-1.3,0.4C124.1,395.8,123.6,395.8,123.6,395.8z"/>
		<path class="st4" d="M123.9,395.9c0.2-0.3,0.2-0.6,0.1-0.9c0-0.3-0.2-0.7-0.4-0.9c-0.2-0.4-0.6-0.6-1.1-0.6
			c-0.3,0.1-0.4,0.3-0.4,0.6c0,0.2,0.1,0.4,0.2,0.6c0.2,0.3,0.4,0.5,0.6,0.8c0.2,0.2,0.4,0.4,0.7,0.5c0,0-0.2-0.2-0.6-0.6
			c-0.2-0.2-0.4-0.5-0.5-0.8c-0.2-0.3-0.3-0.8,0-0.8s0.6,0.3,0.9,0.5c0.2,0.2,0.3,0.5,0.4,0.8C123.9,395.3,123.9,395.6,123.9,395.9z
			"/>
		<path class="st4" d="M102.4,394.8c0.5,0,1,0,1.5,0c2.4,0.2,4.4,1.8,5.2,4.1c0.3,0.9,0.4,1.4,0.4,1.4c0-0.1,0-0.3,0-0.4
			c0-0.4-0.1-0.7-0.2-1.1c-0.7-2.4-2.9-4.1-5.4-4.2c-0.4,0-0.7,0-1.1,0C102.7,394.7,102.5,394.7,102.4,394.8z"/>
		<path class="st4" d="M104.4,386.6c-0.1,1.4-0.2,2.7-0.1,4.1c0,1.4,0,2.7,0.1,4.1c0.1-1.4,0.2-2.7,0.1-4.1
			C104.6,389.3,104.5,387.9,104.4,386.6z"/>
		<path class="st4" d="M112,398.5c0.9,0.2,1.9,0.3,2.9,0.2c1,0,1.9-0.1,2.9-0.3c0-0.1-1.3,0-2.9,0S112,398.4,112,398.5z"/>
		<path class="st4" d="M108.2,398.5c-0.1,0,0.1,0.3,0.2,0.6s0.2,0.5,0.3,0.5s0.1-0.3-0.1-0.7S108.2,398.5,108.2,398.5z"/>
		<path class="st4" d="M106.7,396.7c0,0,0.1,0.2,0.3,0.5s0.4,0.3,0.5,0.3s-0.1-0.3-0.3-0.5S106.7,396.7,106.7,396.7z"/>
		<path class="st4" d="M104.6,395.9c0,0.1,0.3,0.1,0.6,0.2s0.5,0.2,0.6,0.2s-0.1-0.3-0.5-0.4S104.5,395.9,104.6,395.9z"/>
		<path class="st4" d="M103.1,395.6c0,0.1,0.1,0.2,0.3,0.2s0.3,0.1,0.3,0s-0.1-0.2-0.3-0.2S103.1,395.5,103.1,395.6z"/>
		<g class="st15">
			<polygon points="102.5,394.3 122.3,393.7 122.2,391.3 102.3,391.7 			"/>
		</g>
		<path class="st8" d="M91.3,395.7l-0.1-10.6H71.4l-0.1,15.5l1.2,0.1c5.5,0.3,27.8,1.2,31.5,0C108.1,399.4,91.3,395.7,91.3,395.7z"
			/>
		<g class="st9">
			<path class="st8" d="M99.5,397.8c0,0,5.9,1.7,5.2,2.7s-23.4,1-33.4,0.1v-0.4l26.4,0.2C97.7,400.3,98.3,397.8,99.5,397.8z"/>
		</g>
		<path class="st4" d="M71,400.1h0.3l1,0.1l3.6,0.2c3,0.1,7.2,0.2,11.9,0.2s8.9-0.1,11.9-0.2l3.6-0.1h1c0.1,0,0.2,0,0.3,0h-1.3
			l-3.6,0.1c-3.1,0.1-7.2,0.1-11.9,0.1s-8.8-0.1-11.9-0.1l-3.6-0.1h-1C71.3,400.1,71.2,400.1,71,400.1z"/>
		<path class="st4" d="M97.7,400.7c0.2-0.6,0.4-1.2,0.7-1.7c0.4-0.5,0.8-1,1.2-1.4C98.4,398.1,97.7,399.3,97.7,400.7z"/>
		<path class="st4" d="M91.9,397.7c0.1,0,0.3-0.3,0.6-0.8s0.5-0.9,0.4-0.9s-0.3,0.3-0.6,0.8C92.1,397,92,397.3,91.9,397.7z"/>
		<path class="st4" d="M90.3,396.8c0,0,0.4-0.2,0.7-0.5s0.6-0.6,0.5-0.6s-0.4,0.2-0.7,0.5S90.2,396.8,90.3,396.8z"/>
		<path class="st4" d="M89.3,394.9c0.3,0.1,0.7,0.2,1,0.1c0.3,0,0.7,0,1-0.1c-0.3-0.1-0.7-0.2-1-0.1
			C89.9,394.8,89.6,394.8,89.3,394.9z"/>
		<path class="st4" d="M88.9,393.7c0.7,0.4,1.6,0.5,2.3,0.2c-0.4-0.1-0.8-0.1-1.2-0.1C89.7,393.7,89.3,393.7,88.9,393.7z"/>
		<path class="st4" d="M92.6,395.9c0.4,0.1,0.8,0.1,1.3,0s0.9-0.2,1.4-0.3c0.3-0.1,0.5-0.2,0.8-0.3c0.2-0.1,0.3-0.2,0.3-0.4
			c0-0.2,0-0.4-0.2-0.5c-1.2-0.6-2.6-0.1-3.2,1.1c-0.1,0.1-0.1,0.3-0.2,0.4c-0.1,0.2-0.1,0.3,0,0.3c0.1-0.4,0.3-0.8,0.6-1.1
			c0.3-0.3,0.7-0.6,1.1-0.7c0.5-0.2,1-0.1,1.5,0.1c0.2,0.1,0.1,0.4-0.1,0.5c-0.2,0.1-0.5,0.2-0.7,0.3c-0.4,0.1-0.9,0.3-1.3,0.3
			C93,395.9,92.6,395.9,92.6,395.9z"/>
		<path class="st4" d="M92.9,396c0.2-0.3,0.2-0.6,0.1-0.9c0-0.3-0.2-0.7-0.4-0.9c-0.2-0.4-0.6-0.6-1.1-0.6c-0.3,0.1-0.4,0.3-0.4,0.6
			l0,0c0,0.2,0.1,0.4,0.2,0.6c0.2,0.3,0.4,0.5,0.6,0.8c0.2,0.2,0.5,0.4,0.7,0.5c0,0-0.2-0.2-0.6-0.6c-0.2-0.2-0.4-0.5-0.5-0.8
			c-0.2-0.3-0.3-0.8,0-0.8s0.6,0.3,0.8,0.5s0.3,0.5,0.4,0.8C92.9,395.4,92.9,395.7,92.9,396z"/>
		<path class="st4" d="M71.4,394.7c0,0,0.6,0,1.5,0c1.2,0.1,2.3,0.6,3.2,1.3c0.9,0.7,1.6,1.7,2,2.8c0.3,0.9,0.3,1.4,0.4,1.4
			s0-0.1,0-0.4c0-0.4-0.1-0.7-0.2-1.1c-0.7-2.4-2.8-4.1-5.3-4.3c-0.4,0-0.7,0-1.1,0C71.7,394.6,71.5,394.6,71.4,394.7z"/>
		<path class="st4" d="M73.5,386.4c-0.2,2.7-0.2,5.4-0.1,8.1c0.1-1.4,0.2-2.7,0.2-4.1C73.6,389.1,73.6,387.8,73.5,386.4z"/>
		<path class="st4" d="M81,398.4c0.9,0.2,1.9,0.3,2.9,0.3s1.9,0,2.9-0.2c0-0.1-1.3,0-2.9,0S81,398.4,81,398.4z"/>
		<path class="st4" d="M77.1,398.4c0,0,0.1,0.3,0.2,0.6s0.2,0.6,0.3,0.5s0.1-0.3,0-0.6S77.2,398.4,77.1,398.4z"/>
		<path class="st4" d="M75.6,396.7c0,0,0.1,0.2,0.3,0.5s0.4,0.3,0.4,0.3s-0.1-0.2-0.3-0.5S75.7,396.6,75.6,396.7z"/>
		<path class="st4" d="M73.6,395.8c0,0.1,0.3,0.1,0.6,0.2s0.5,0.3,0.6,0.2s-0.1-0.3-0.5-0.4S73.5,395.7,73.6,395.8z"/>
		<path class="st4" d="M72.1,395.4c0,0.1,0.1,0.2,0.2,0.2s0.3,0.1,0.3,0s-0.1-0.2-0.2-0.2S72.1,395.3,72.1,395.4z"/>
		<g class="st15">
			<polygon points="71.5,394.1 91.3,393.8 91.2,391.4 71.3,391.5 			"/>
		</g>
		<path class="st8" d="M47.4,168.1c-3-1.7-6.3-3-9.6-4c-3.4-1-7-0.7-10.2,0.8c-2.4,1.4-4.4,3.1-6.1,5.3c-2.1,2.3-4.2,4.8-4.6,7.8
			c-0.3,2.8,0.7,5.5,2.7,7.4s4.5,3.1,7.3,3.6c4.4,0.8,9,0,12.8-2.3c5.1-3,8.8-8.5,14.6-9.9"/>
		<g class="st18">
			<path d="M44.5,167.4c-3.1-1.5-6.5-2.3-9.9-2.5c-3.5-0.2-6.9,0.8-9.8,2.7c-1.3,0.9-2.5,2.3-2.2,3.8s1.8,2.3,3.2,2.5
				c3.4,0.6,6.9-0.9,10-2.4l8.4-4"/>
		</g>
		<g class="st12">
			<path d="M17.1,176.7c-0.4,2.2,1,4.3,3.2,4.7c0.1,0,0.2,0,0.3,0c1.4,0.1,2.8-0.3,4-1.1c1.2-0.7,2.3-1.6,3.5-2.3s2.6-1,4-0.7
				c-4.2,2.4-7.6,5.9-9.9,10.1c-3-1.8-4.8-4.1-5.3-7.3C16.6,178.9,16.7,177.7,17.1,176.7"/>
		</g>
		<path class="st4" d="M74.8,153.4c1.9-0.6,2.9-2.8,3.1-4.8s-0.1-4.1,0.4-6c0.4-1.4,1.2-2.6,1.3-4.1s-0.6-3-0.7-4.6
			c-0.1-2.1,1.2-4.1,1.3-6.3c0.1-3-2.3-5.5-5.3-5.6c-3-0.1-5.5,2.3-5.6,5.3c0,0.3,0,0.6,0,0.8"/>
		<path class="st19" d="M45.2,129.1v3l0.6,44.6c0.1,5.2,4.6,9.2,10.1,9.1l0,0c5.6-0.1,10.1-4.4,10.1-9.7c0-5.5,0.1-11.2,0.1-11.2
			s7.1-1.2,8.5-10.4c0.7-4.6,0.5-12.1,0.1-18.2c-0.3-5.4-5-9.4-10.3-9.1c-0.1,0-0.3,0-0.4,0L45.2,129.1z"/>
		<path class="st4" d="M73,141.4c0,0.6-0.5,1.2-1.1,1.2c-0.6,0.1-1.2-0.4-1.2-1l0,0c0-0.6,0.5-1.2,1.1-1.2
			C72.4,140.3,72.9,140.7,73,141.4L73,141.4z"/>
		<path class="st4" d="M73.2,140c-0.1,0.1-1.1-0.5-2.3-0.5s-2.2,0.6-2.3,0.5c-0.1-0.1,0.1-0.4,0.5-0.6c0.6-0.4,1.2-0.6,1.9-0.6
			s1.3,0.2,1.9,0.6C73.2,139.7,73.3,140,73.2,140z"/>
		<path class="st4" d="M60.2,141.4c0,0.6-0.5,1.2-1.1,1.2l0,0c-0.6,0.1-1.2-0.4-1.2-1l0,0c0-0.6,0.5-1.2,1.1-1.2
			C59.6,140.2,60.2,140.7,60.2,141.4C60.2,141.3,60.2,141.4,60.2,141.4z"/>
		<path class="st4" d="M60.7,140.3c-0.1,0.2-1-0.5-2.3-0.5s-2.2,0.6-2.4,0.5c-0.2-0.1,0.1-0.3,0.5-0.6c0.6-0.4,1.2-0.6,1.9-0.6
			c0.7,0,1.3,0.2,1.8,0.6C60.7,139.9,60.8,140.2,60.7,140.3z"/>
		<path class="st4" d="M65.4,149.7c0.7-0.2,1.4-0.3,2.1-0.4c0.3,0,0.6-0.1,0.7-0.3c0-0.3,0-0.7-0.2-1c-0.3-0.8-0.6-1.6-1-2.5
			c-0.9-2.1-1.6-4.3-2.1-6.5c1.1,2,1.9,4.1,2.7,6.3l0.9,2.5c0.2,0.4,0.3,0.8,0.2,1.3c-0.1,0.2-0.3,0.4-0.5,0.5
			c-0.2,0-0.4,0.1-0.6,0.1C66.7,149.8,66,149.8,65.4,149.7z"/>
		<path class="st20" d="M66.2,164.8c-4.3,0.1-8.6-1.1-12.4-3.3c0,0,3,6.3,12.2,5.5L66.2,164.8z"/>
		<path class="st20" d="M64.8,152.8c-0.5-0.6-1.3-0.9-2.1-0.9c-0.6,0.1-1.1,0.3-1.4,0.8c-0.4,0.4-0.4,1-0.1,1.5
			c0.4,0.5,1.1,0.6,1.7,0.4c0.6-0.2,1.2-0.6,1.6-1c0.1-0.1,0.3-0.2,0.4-0.4C65,153.1,65,152.9,64.8,152.8"/>
		<path class="st4" d="M61.6,150.6c0.2,0,0.2,1.4,1.4,2.4s2.6,0.8,2.7,1s-0.3,0.3-0.9,0.3c-0.8,0-1.6-0.3-2.2-0.8s-1-1.2-1.1-2
			C61.4,150.9,61.5,150.6,61.6,150.6z"/>
		<path class="st4" d="M61.1,135.3c-0.1,0.3-1.4,0.2-2.9,0.4c-1.5,0.2-2.7,0.6-2.9,0.3c-0.1-0.1,0.1-0.5,0.6-0.8
			c0.6-0.4,1.4-0.7,2.1-0.8c0.8-0.1,1.5,0,2.3,0.3C60.8,134.9,61.1,135.1,61.1,135.3z"/>
		<path class="st4" d="M72.8,136.4c-0.2,0.3-1.1,0-2.2,0s-1.9,0.2-2.1-0.1c-0.1-0.1,0-0.4,0.4-0.7c0.5-0.3,1.1-0.5,1.8-0.5
			c0.6,0,1.3,0.2,1.8,0.6C72.8,135.9,72.9,136.2,72.8,136.4z"/>
		<path class="st4" d="M54.2,122.2c0.3,2.8,1.1,5.4,2.4,7.9s3.7,4.2,6.4,4.7c2.1,0.3,4.2-0.4,6.3-1.2l5.9-2.1
			c1.2-0.3,2.3-0.9,3.3-1.6c1.9-1.7,2.7-4.4,2-6.9c-1.1-3.5-3.9-6.1-7.5-6.9c-3.5-0.7-7.2-0.3-10.4,1.2c-3.2,1.5-6.2,3.4-9,5.6"/>
		<path class="st4" d="M57,122.4l-1.7-0.3c-0.7-1.1-1.8-2-3-2.5c0.2-0.3,0.4-0.6,0.5-0.9c1-2.6-0.3-5.5-2.8-6.6
			c-0.8-0.2-1.6-0.5-2.4-1c-0.9-0.7-1.1-1.9-1.9-2.7c-1.1-1.3-3-1.5-4.7-1.6c-1.1-0.1-2.3-0.1-3.4,0.2c-1.1,0.2-2.1,1-2.5,2.1
			c-0.4,1.1,0,2.5-0.6,3.5s-1.7,1.4-2.6,2.1c-2,1.7-1.9,4.9-0.7,7.2c1.7,3,4.8,4.9,8.2,5.1c0.4,0,0.7,0,1.1-0.1
			c-0.2,0.7-0.6,1.3-1,1.9c-1.1,1.1-2.2,2-3.4,2.9c-3.5,3.1-3.8,8.5-0.7,12c0.2,0.2,0.4,0.5,0.7,0.7c1,0.7,2,1.6,2.8,2.5
			c0.7,1.1,0.8,2.5,1.2,3.7c1.2,3.6,5.2,5.5,8.8,4.3c0.5-0.2,1.1-0.4,1.6-0.8c1.4-0.8,2.2-2.3,2.2-3.9c-0.2-1.8-1.8-3.2-2-5
			s1-3.4,1-5.1c-0.1-2-1.8-3.8-1.4-5.8s2.5-2.8,4.1-4.1C56.5,128.4,57.6,125.3,57,122.4z"/>
		<path class="st8" d="M49.5,120.8c-0.1,0.4-0.2,0.9-0.5,1.2c-0.5,0.9-1.3,1.7-2.1,2.3c-0.9,0.6-1.8,1.1-2.9,1.3
			c-0.8,0.2-1.3,0.1-1.3,0.1c1.4-0.4,2.7-1,3.9-1.8C47.7,123,48.7,122,49.5,120.8z"/>
		<path class="st4" d="M36.3,163.3c0.2,0.3,0.4,0.6,0.6,0.8c0.6,0.7,1.5,1.1,2.4,1.1c1.4,0,2.7-0.7,3.4-1.9c0.4-0.7,0.7-1.4,0.8-2.2
			c0.2-0.8-0.1-1.7-0.7-2.2c-0.3-0.2-0.6-0.4-1-0.4s-0.7,0.3-0.9,0.6c-0.4,0.6,0.3,1.4,0.9,1.4c0.7,0,1.4-0.3,1.9-0.8
			c0.5-0.4,0.8-1,1.1-1.6c0.3-0.9,0.4-1.8,0.2-2.7c-0.1-0.6-0.3-1-0.3-1c0.2,0.3,0.4,0.6,0.5,0.9c0.3,1,0.3,2-0.1,2.9
			c-0.2,0.7-0.6,1.2-1.1,1.7c-0.6,0.6-1.4,1-2.2,0.9c-0.5,0-0.9-0.3-1.2-0.7c-0.3-0.4-0.4-1-0.1-1.5s0.7-0.8,1.3-0.9
			c0.5,0,1.1,0.1,1.4,0.5c0.7,0.7,1,1.7,0.9,2.7c-0.1,0.9-0.4,1.7-0.9,2.4c-0.8,1.3-2.2,2.1-3.8,2c-1-0.1-1.9-0.6-2.6-1.4
			c-0.2-0.2-0.3-0.4-0.4-0.7C36.3,163.4,36.3,163.3,36.3,163.3z"/>
		<path class="st4" d="M35.4,153.7c0.1,0.4,0.3,0.9,0.6,1.3c0.3,0.4,0.7,0.7,1.2,0.9c0.6,0.2,1.2,0.2,1.8,0.1
			c1.1-0.3,2.1-0.9,2.8-1.8c0.6-0.7,0.9-1.1,1-1.1c-0.1,0.5-0.3,0.9-0.7,1.3c-0.7,1-1.8,1.7-3,2c-0.7,0.1-1.4,0.1-2-0.2
			c-0.5-0.2-1-0.6-1.3-1.1C35.2,154.3,35.4,153.6,35.4,153.7z"/>
		<path class="st4" d="M55.7,121.8c-0.1,0-0.1-0.1-0.1-0.3l0.3,0.2c-0.1,0.2-0.4,0.3-0.6,0.4c-0.6,0.1-1-0.2-0.9-0.3
			s0.4-0.1,0.8-0.2c0.2,0,0.3-0.1,0.5-0.1l0.8-0.3l-0.6,0.6C55.8,121.8,55.7,121.9,55.7,121.8z"/>
		<path class="st4" d="M62.5,108c0,0,0.1,0.1,0.2,0.2c0.2,0.3,0.3,0.6,0.4,0.9c0.8,2.3-0.4,4.7-2.6,5.5c-0.7,0.2-1.5,0.3-2.2,0.2
			c-1.1-0.1-2.1-0.8-2.6-1.8c-0.2-0.6-0.1-1.3,0.3-1.8s1-0.8,1.6-0.8c1.3,0.1,2.3,1.1,2.4,2.3c0.1,1.1-0.2,2.2-0.8,3.1
			c-0.6,0.7-1.2,1.4-1.9,2c-0.6,0.5-1.2,1-1.9,1.5c-1,0.7-2.1,1.1-3.2,1.4c-0.4,0.1-0.8,0.2-1.3,0.2c1.5-0.4,3-1,4.3-1.9
			c0.6-0.5,1.3-1,1.8-1.5c0.7-0.6,1.3-1.3,1.8-2c0.6-0.8,0.8-1.7,0.7-2.7c-0.1-1-0.9-1.8-1.9-1.9c-1,0-1.8,1-1.4,1.9
			c0.5,0.8,1.3,1.4,2.2,1.5c1.7,0.3,3.3-0.5,4.2-1.9c0.5-1,0.7-2.2,0.4-3.2C62.9,108.7,62.7,108.3,62.5,108z"/>
		<path class="st4" d="M26.5,132.8c0.3,0.1,0.7,0.2,1,0.3c0.9,0.3,1.9,0.4,2.9,0.4c1.4-0.1,2.7-0.9,3.5-2.1c0.4-0.7,0.6-1.5,0.4-2.3
			c-0.1-0.4-0.4-0.7-0.7-0.8c-0.3-0.2-0.7-0.1-1,0.1c-0.2,0.3-0.3,0.7-0.1,1c0.1,0.4,0.4,0.7,0.8,0.8c0.7,0.3,1.6,0.5,2.4,0.4
			c1.4-0.2,2.7-0.9,3.8-1.9c0.7-0.7,1.4-1.4,2-2.1c0.4-0.5,0.7-0.8,0.7-0.8c-0.1,0.3-0.3,0.6-0.6,0.9c-0.6,0.8-1.2,1.6-1.9,2.3
			c-1.1,1.1-2.4,1.8-3.9,2.1c-0.9,0.2-1.8,0-2.7-0.4c-0.5-0.2-0.8-0.6-1.1-1.1c-0.2-0.5-0.1-1.2,0.3-1.6c0.4-0.4,1.1-0.5,1.6-0.2
			c0.5,0.2,0.9,0.6,1,1.2c0.2,0.9,0.1,1.9-0.5,2.7c-0.9,1.3-2.3,2.1-3.8,2.2c-1,0-2-0.1-2.9-0.5C27.1,133.2,26.8,133.1,26.5,132.8z"
			/>
		<path class="st4" d="M42.5,124.3c0,0-0.4,0-1.2,0.1c-1.1,0.1-2.2,0.3-3.2,0.6c-1.6,0.4-3.3,0.5-4.9,0.2c-2-0.4-3.9-1.4-5.2-3.1
			c-1.3-1.7-1.7-3.8-1.2-5.9c0.4-1.7,1.6-3,3.2-3.7c1-0.5,2.2-0.6,3.3-0.3c0.3,0.1,0.6,0.2,0.9,0.3c0.2,0.1,0.3,0.2,0.3,0.2
			s-0.4-0.2-1.1-0.3c-1.1-0.2-2.1,0-3.1,0.4c-1.5,0.6-2.5,1.9-2.9,3.5c-0.4,1.9,0,3.9,1.1,5.4c1.2,1.5,2.9,2.6,4.9,2.9
			c1.6,0.3,3.2,0.2,4.8-0.1c1.1-0.2,2.2-0.4,3.3-0.4C41.7,124.2,42.1,124.2,42.5,124.3z"/>
		<path class="st4" d="M50,119.2c0.9-0.3,1.7-0.7,2.3-1.4c1.6-1.6,1.7-4.2,0.2-5.9c-0.7-1-1.8-1.6-2.9-1.9c-1-0.2-2-0.1-2.9,0.2
			s-1.7,0.8-2.4,1.3c0,0,0.1-0.2,0.5-0.6c0.5-0.5,1.1-0.8,1.8-1.1c1-0.4,2.1-0.5,3.1-0.3c1.3,0.2,2.5,1,3.3,2s1.2,2.4,1.1,3.7
			c-0.2,1.1-0.7,2-1.4,2.8c-0.5,0.5-1.1,0.9-1.8,1.1C50.5,119.2,50.2,119.3,50,119.2z"/>
		<path class="st4" d="M77.8,139.7c-0.1-0.1,0.6-0.6,1.6-1.7c0.6-0.6,1-1.3,1.2-2.1c0.2-1,0.2-2-0.2-2.9c-0.3-1-0.8-1.9-1.2-2.9
			c-0.3-0.8-0.5-1.7-0.4-2.6c0.1-0.6,0.3-1.2,0.6-1.6c0.3-0.3,0.5-0.4,0.5-0.4c-0.4,0.6-0.7,1.3-0.8,2.1c0,0.8,0.1,1.6,0.5,2.4
			c0.3,0.9,0.8,1.8,1.2,2.9c0.4,1,0.5,2.1,0.1,3.2c-0.3,0.8-0.8,1.6-1.4,2.2C79.1,138.9,78.5,139.4,77.8,139.7z"/>
		<path class="st8" d="M134.2,223.2l-34.6-0.5l-15.3-39.8c-3.6-6-9.7-8.8-18.1-9.8l-2.6,2c-4.2,3.2-9.9,3.3-14.3,0.4l-3.5-2.4
			c0,0-9.6,0.5-16.7,6.3H29c-3.5,2.8-6.1,6.7-7.4,11.1c-1.4,4.5-5.4,19.9-8.3,31.4c-1.9,7.5,2.3,15.1,9.6,17.6l9.5,3.2l-4.7,14.2
			l57.1-0.8L76.9,224l0.9-2.4c1.5,3,3.8,7.5,5.3,10.5c2.9,5.7,8.9,9.1,15.2,8.7l37.3-3.3L134.2,223.2z M32.4,224.1l3.1-11.4
			c1.2,4.2,3.4,11.7,3.1,11.2l-0.8,2.4L32.4,224.1z"/>
		<path class="st19" d="M60.6,248.1c2.5,1.7,5,3.2,7.6,4.6c3.4,1.6,3.5,1.3,3.6,0.9c0.4-1.1-5.8-3-4.2-3.4s7.2,3.2,7.5,2
			c0.4-1.5-6-3.4-6.6-3.6s-0.2-1,0.2-0.8c0.7,0.3,7.9,3.2,8.3,1.7c0.2-0.9-1.3-1.1-1.3-1.1s-7-2.2-6.7-3s4.4,0.5,5.7,1
			s2.1,0.1,1.9-0.7c-0.2-0.5-4.3-2.1-5.7-2.6s-5.1-1.6-2.8-2.5c2.3-0.9,3.9-2.5,4-3.2s-0.8-1.1-1.4-0.5c-0.7,0.5-1.4,1-2.2,1.3
			c-0.6,0.3-1.3,0.5-2,0.6c-0.6,0.1-1.1,0.1-1.6,0.1l-5,0.4l-2.5,6.6L60.6,248.1z"/>
		<path class="st4" d="M22.6,239.2h0.2l0.5,0.1l1.8,0.6l6.7,2.3l23.8,8.3l-0.3,0.1c1.8-4.5,3.7-9.4,5.8-14.5l0.1,0.3l-14.8-6.1
			l-14.1-5.9l-0.2-0.1l0.1-0.2c1.9-7.1,3.4-13.8,4.7-19.8c0.3-1.5,0.7-3,1-4.4s0.6-2.7,0.8-4.1c0.3-2.5,0.1-5-0.5-7.4
			c-0.5-2-1.5-3.8-3-5.2c-1.1-1-2.5-1.7-4-2c-0.9-0.2-1.9-0.1-2.8,0.1c-0.6,0.2-0.9,0.3-0.9,0.3c0.3-0.2,0.6-0.3,0.9-0.4
			c0.9-0.3,1.9-0.3,2.9-0.2c1.5,0.3,3,0.9,4.1,2c1.5,1.4,2.6,3.2,3.1,5.3c0.6,2.4,0.8,5,0.6,7.5c-0.2,1.4-0.4,2.8-0.8,4.1l-1,4.4
			c-1.4,6-2.8,12.7-4.7,19.8l-0.1-0.3l14.1,5.9l14.7,6.2l0.2,0.1l-0.1,0.2c-2.1,5.2-4,10.1-5.8,14.5l-0.1,0.2l-0.2-0.1l-23.8-8.5
			l-6.7-2.4l-1.8-0.6L22.6,239.2L22.6,239.2z"/>
		<path class="st4" d="M75.3,190c0.1,1.6,0.4,3.3,0.9,4.9c0.4,1.5,1.1,3.1,1.9,5c0.9,2,1.6,4.1,2.1,6.3c0.4,2.2,0.4,4.5,0,6.7
			c-0.3,1.8-0.8,3.5-1.4,5.2c-0.5,1.5-1,2.6-1.3,3.4c-0.2,0.4-0.3,0.8-0.6,1.2c0.1-0.4,0.2-0.9,0.4-1.3c0.3-0.8,0.7-2,1.1-3.5
			c0.5-1.7,1-3.5,1.2-5.2c0.4-2.1,0.4-4.3,0-6.5c-0.5-2.1-1.1-4.2-2-6.2c-0.7-1.7-1.3-3.4-1.8-5.1c-0.3-1.2-0.5-2.4-0.6-3.6
			C75.2,190.9,75.2,190.5,75.3,190z"/>
		<path class="st4" d="M99.7,222.8c-0.6,1-1.2,1.9-2.1,2.8c-0.7,0.9-1.5,1.7-2.4,2.5c-0.2-0.1,0.7-1.4,2-2.8
			C97.9,224.3,98.7,223.4,99.7,222.8z"/>
		<path class="st4" d="M32.4,224.1c-1.1,0.1-2.1,0.4-3.2,0.8c-0.7,0.3-1.3,0.8-1.8,1.3c-0.4,0.5-0.5,0.8-0.6,0.8s0-0.4,0.3-1
			C28.3,224.3,30.4,223.6,32.4,224.1L32.4,224.1z"/>
		<path class="st4" d="M36.6,175.2c0,0.1-1.2,0.6-3.1,1.7c-2.5,1.3-4.8,3-6.8,4.9s-3.6,4.3-4.6,6.9c-0.8,2-0.9,3.4-1.1,3.3
			c0-0.3,0-0.6,0.1-0.9c0.1-0.9,0.3-1.7,0.6-2.5c0.9-2.7,2.5-5.2,4.6-7.2s4.4-3.6,7-4.9c1-0.5,1.8-0.8,2.4-1
			C36,175.3,36.3,175.2,36.6,175.2z"/>
		<path class="st4" d="M54.3,182.4c-0.7,0.2-1.3,0.2-2,0.1c-1.7-0.2-3.3-0.7-4.7-1.5c-1.5-0.8-2.7-2-3.6-3.4
			c-0.4-0.5-0.7-1.2-0.9-1.9c0.1,0,0.4,0.7,1.2,1.6c2,2.6,4.9,4.3,8.1,4.8C53.5,182.4,54.3,182.4,54.3,182.4z"/>
		<path class="st4" d="M68.3,175.2c-1,2.4-3.1,4.3-5.6,5.1c-0.1-0.1,1.5-0.9,3-2.3S68.2,175.1,68.3,175.2z"/>
		<path class="st13" d="M38.4,198.4c0,0,4.7,20.7,4.6,22.7c-0.3,2.3-0.7,4.6-1.4,6.9l-3.9-1.6l0.8-2.4l-3.2-11.8L38.4,198.4z"/>
		<g class="st12">
			<path d="M80.6,210.7l5.2,17.9c0.5,2.3,1.4,4.4,2.7,6.4c2.8,3.8,11,4.4,15.6,5.3l-6.8,0.6c-5.7-0.1-10.9-3.1-13.8-8l-5.7-11.4
				L80.6,210.7z"/>
		</g>
		<path class="st1" d="M59.1,190.8c-0.3-1.5-0.5-3.1-0.4-4.7c-0.2-1.6-0.1-3.2,0.1-4.7c0.3,1.6,0.5,3.1,0.4,4.7
			C59.3,187.7,59.3,189.3,59.1,190.8z"/>
		<path class="st1" d="M62.9,189.1c-0.8-1.2-1.6-2.5-2.2-3.8c-0.8-1.2-1.5-2.5-2.2-3.9C60.5,183.6,62,186.3,62.9,189.1z"/>
		<path class="st8" d="M58.5,209.7c-1.1-0.7-2.1-1.5-3.1-2.4l-0.1-0.1l0.1-0.1l0.1-0.1c0.9-1,1.8-2,2.8-2.8c-0.8,1.1-1.7,2.1-2.6,3
			l-0.1,0.1v-0.2C56.7,207.8,57.7,208.7,58.5,209.7z"/>
		<path class="st8" d="M64,204c1.1,0.8,2.1,1.6,3,2.5l0.1,0.1l-0.1,0.1l-0.1,0.1c-0.9,1-1.8,2-2.8,2.8c0.8-1.1,1.7-2.1,2.6-3
			l0.1-0.1v0.2C65.8,205.9,64.8,205,64,204z"/>
		<path class="st8" d="M59.4,210.8c1-2.7,2.2-5.3,3.6-7.9c-0.5,1.4-1,2.7-1.7,4C60.7,208.2,60.1,209.5,59.4,210.8z"/>
		<path class="st8" d="M71.5,213.2c0,0,0.1,0,0.1-0.1s0.1-0.2,0.1-0.5v-2.1c0-1.9,0-4.5-0.1-7.6c0-0.8,0-1.6,0-2.5v-1.7
			c0,0,0-0.1-0.1-0.1h-0.6h-6.1H50.9c0,0-0.1,0-0.1,0.1v1.4c0,0.6,0,1.2,0,1.8v3.5c0,2.3,0,4.6,0,6.7v0.8c0,0,0,0.1,0.1,0.1h4.8H61
			l7.6,0.1h2.1h0.5c0.1,0,0.2,0,0.2,0h-0.2h-0.5h-2.1l-7.6,0.1h-5.3h-4.9c-0.2,0-0.4-0.2-0.4-0.5v-0.8c0-2.1,0-4.4,0-6.7v-6.7
			c0-0.3,0.2-0.5,0.5-0.5l0,0h13.9h6.1c0.3,0,0.5,0,0.8,0c0.2,0.1,0.3,0.2,0.3,0.4v0.3c0,0.5,0,0.9,0,1.4c0,0.9,0,1.7,0,2.5
			c0,3.2-0.1,5.8-0.1,7.6v2.1c0,0.2,0,0.4-0.1,0.5S71.5,213.2,71.5,213.2z"/>
		<path class="st8" d="M71.8,200.7c0,0.1-4.7,0.1-10.5,0.1s-10.5-0.1-10.5-0.1s4.7-0.2,10.5-0.2S71.8,200.7,71.8,200.7z"/>
		<path class="st8" d="M52.4,199.7c0,0.1-0.1,0.2-0.2,0.2s-0.2-0.1-0.3-0.2c0-0.1,0.1-0.2,0.2-0.3h0.1
			C52.3,199.4,52.4,199.5,52.4,199.7L52.4,199.7z"/>
		<path class="st8" d="M53.3,199.7c0,0.1-0.1,0.2-0.2,0.2s-0.2-0.1-0.3-0.2c0-0.1,0.1-0.2,0.2-0.3h0.1
			C53.2,199.4,53.3,199.5,53.3,199.7z"/>
		<path class="st8" d="M54.2,199.7c0,0.1-0.1,0.2-0.2,0.2s-0.2-0.1-0.2-0.2c0-0.1,0.1-0.2,0.2-0.2l0,0
			C54.1,199.4,54.2,199.5,54.2,199.7L54.2,199.7z"/>
		<path class="st19" d="M135.5,235.9l1,0.1c3.6,0.4,7.3,0.6,11,0.6c4.5-0.2,4.5-0.6,4.5-1.1c-0.3-1.4-8,0-6.5-1.2s9.6-0.7,9.3-2.2
			c-0.5-1.9-8.5-0.2-9.2-0.1s-0.8-0.9-0.2-1c0.9-0.1,10.4-1,10-2.9c-0.2-1-2.1-0.4-2.1-0.4s-8.8,1.6-9,0.7s5-2,6.7-2.2
			s2.4-1.2,1.6-1.9c-0.5-0.5-5.9,0.2-7.6,0.5s-6.5,1.1-4.5-1.2s2.8-4.9,2.5-5.7c-0.3-0.5-0.9-0.6-1.4-0.3c-0.2,0.1-0.3,0.3-0.4,0.5
			c-0.4,1-0.9,1.9-1.6,2.7c-0.5,0.7-1.1,1.3-1.8,1.8c-0.6,0.4-1.1,0.8-1.6,1.1l-1.8,1.2L135.5,235.9z"/>
		<path class="st4" d="M57,255.9c0,0-4.2,24.8,8.3,31.8s38.9,14.8,38.9,14.8l-2.9,89.4H123l7.9-96.8c0.3-3.3-1-6.6-3.5-8.8L85.7,256
			L57,255.9z"/>
		<path class="st4" d="M28.1,255.9c0,0-5.3,22.5,7.2,29.5s35.3,16,35.3,16l-0.5,90.4h25.2l5.4-96.8c0.3-3.3-1-6.6-3.5-8.8
			l-35.9-30.3H28.1z"/>
		<path class="st7" d="M99.7,315c0-0.3,0-0.5,0-0.8c0-0.5,0.1-1.3,0.1-2.2c0.1-1.9,0.3-4.7,0.5-8.1c0.2-4,0.2-8-0.2-12
			c-0.1-2.4-0.9-4.6-2.2-6.6c-1.5-2-3.3-3.9-5.2-5.6c-7.9-7-15.5-12.7-20.9-16.9l-6.5-5l-1.7-1.4c-0.2-0.2-0.4-0.3-0.6-0.5
			c0.2,0.1,0.4,0.3,0.6,0.4l1.8,1.3l6.6,4.9c5.5,4.1,13.2,9.8,21.1,16.8c1.9,1.7,3.7,3.6,5.2,5.7c0.7,1,1.3,2.1,1.6,3.3
			c0.3,1.1,0.5,2.3,0.7,3.5c0.3,4,0.4,8.1,0.1,12.1c-0.2,3.5-0.5,6.2-0.7,8.1l-0.2,2.2C99.7,314.5,99.7,314.8,99.7,315z"/>
		<path class="st7" d="M46.6,255.8c0,0.3,0,0.5-0.1,0.8c-0.2,0.7-0.4,1.3-0.7,1.9c-1,2.1-2.7,3.8-4.8,4.8c-2.1,1-4.5,1.1-6.7,0.4
			c-0.7-0.2-1.3-0.5-1.9-0.9c-0.4-0.3-0.6-0.4-0.6-0.5c0.8,0.4,1.7,0.7,2.6,1c2.1,0.6,4.4,0.4,6.4-0.5c2-1,3.6-2.5,4.7-4.5
			C46.3,256.9,46.5,255.8,46.6,255.8z"/>
		<path class="st7" d="M76.7,293c-1.6,3-3.5,5.8-5.7,8.5C72.6,298.4,74.5,295.6,76.7,293z"/>
		<path class="st7" d="M79,297.7c-1.1,0.9-2.4,1.6-3.7,2.2c-1.2,0.7-2.5,1.3-3.9,1.7c1.1-0.9,2.4-1.6,3.7-2.2
			C76.3,298.6,77.6,298.1,79,297.7z"/>
		<path class="st7" d="M113,296.2c0,0,0-0.1,0.1-0.3l0.1,0.1c-1,1.1-2.1,2.2-3.3,3.2c-1.2,1.1-2.4,2.1-3.8,3c1-1.3,2.2-2.4,3.4-3.4
			c1.1-1,2.3-2,3.5-2.9l0.1,0.1C113.1,296.2,113,296.2,113,296.2z"/>
		<path class="st7" d="M115.6,300.7c-1.3,0.6-2.8,1.1-4.2,1.4c-1.4,0.5-2.9,0.8-4.4,0.9c1.3-0.6,2.8-1.1,4.2-1.4
			C112.6,301.1,114.1,300.8,115.6,300.7z"/>
		<polygon class="st7" points="140,215.4 142.4,240.6 154.7,240.6 157.7,215.4 		"/>
		<path class="st4" d="M140,212.2c-0.8,0.9-1.2,2.1-1.2,3.3h20c0.2-1.2-0.2-2.5-1.1-3.3H140z"/>
		<polygon class="st4" points="142.3,209.8 141.6,212.3 156.7,212.5 155.7,209.8 		"/>
		<path class="st8" d="M139.7,221.7c0,0.2,1.5,12.7,1.5,12.7h15l1.4-12.7H139.7z"/>
		<path class="st7" d="M56.1,297.9c7.8-0.2,4.1-11.6,3.9-24.1c-0.1-7.8-5.3-15.4-10.9-20.8c-2.9-2.5-6.2-4.4-9.9-5.5
			c-9.7-3.1-20-3.8-30-1.9C9.2,245.7,6.9,299.5,56.1,297.9z"/>
	</g>
	<g id="freepik--Puzzle--inject-14">
		<path class="st8" d="M266,78.3c1.4-0.1,2.7,0.2,3.9,0.9c0.6,0.3,1.2,0.4,1.8,0.4h1.6v-20c0-1.7-1.3-3-3-3l0,0h-19.6v-1.3
			c0-0.6,0.2-1.2,0.4-1.8c0.7-1.5,1-3.2,0.7-4.9c-0.7-3.5-3.6-6.2-7.1-6.6c-8.6-1.3-9.1,3.3-9.1,8c0,1.1,0.2,2.2,0.7,3.3
			c0.2,0.5,0.4,1.1,0.4,1.6v1.7h-19.1c-1.7,0-3,1.3-3,3v52.7c0,1.4,1.1,2.4,2.5,2.4l0,0h53.8c1.4,0,2.5-1.1,2.5-2.4l0,0v-19h-2.2
			c-0.5,0-1,0.1-1.5,0.3c-1,0.4-2,0.6-3,0.6c-4.5,0-8.1-3.5-8.2-8c0-0.2,0-0.3,0-0.5C258.7,81.6,261.9,78.4,266,78.3z"/>
		<g class="st15">
			<path d="M266,78.3c1.4-0.1,2.7,0.2,3.9,0.9c0.6,0.3,1.2,0.4,1.8,0.4h1.6v-20c0-1.7-1.3-3-3-3l0,0h-19.6v-1.3
				c0-0.6,0.2-1.2,0.4-1.8c0.7-1.5,1-3.2,0.7-4.9c-0.7-3.6-3.7-6.3-7.3-6.7c-9.6-1.1-8.9,3.3-8.9,8.1c0,1.1,0.2,2.2,0.7,3.3
				c0.2,0.5,0.4,1.1,0.4,1.6v1.7h-19.1c-1.7,0-3,1.3-3,3l0,0v52.7c0,1.4,1.1,2.4,2.5,2.4l0,0h53.8c1.4,0,2.5-1.1,2.5-2.4l0,0v-19
				h-2.2c-0.5,0-1,0.1-1.5,0.3c-1,0.4-2,0.6-3,0.6c-4.5,0.1-8.1-3.5-8.2-8c0-0.2,0-0.4,0-0.5C258.7,81.6,261.9,78.4,266,78.3z"/>
		</g>
		<path class="st8" d="M262.6,78.3c1.4-0.1,2.7,0.2,3.9,0.9c0.6,0.3,1.2,0.4,1.8,0.4h1.6v-20c0-1.7-1.3-3-3-3l0,0h-19.6v-1.3
			c0-0.6,0.2-1.2,0.4-1.8c0.7-1.5,1-3.2,0.7-4.9c-0.8-4.4-5.1-7.3-9.5-6.5c-3.8,0.7-6.6,4-6.6,7.9c0,1.1,0.2,2.2,0.7,3.3
			c0.2,0.5,0.4,1.1,0.4,1.6v1.7h-19.1c-1.7,0-3,1.3-3,3l0,0v52.7c0,1.4,1.1,2.4,2.5,2.4l0,0h53.8c1.3,0,2.4-1.1,2.5-2.4v-19h-2.2
			c-0.5,0-1,0.1-1.5,0.3c-4.2,1.7-8.9-0.3-10.6-4.4c-0.5-1.1-0.7-2.3-0.6-3.5C255.3,81.6,258.6,78.4,262.6,78.3z"/>
		<path class="st4" d="M275.5,93.4v19.1c0,1.7,1.3,3,3,3h53c1.4,0,2.5-1.1,2.5-2.4V59.2c0-1.4-1.1-2.5-2.5-2.5h-19.1v2.2
			c0,0.5,0.1,1,0.3,1.5c0.4,1,0.6,2,0.6,3c0,4.5-3.6,8.1-8.1,8.1s-8.1-3.6-8.1-8.1c0-1.2,0.3-2.4,0.8-3.4c0.3-0.5,0.4-1.1,0.4-1.7
			v-1.5h-19.7c-1.7,0-3,1.3-3,3L275.5,93.4L275.5,93.4z"/>
		<path class="st7" d="M291.3,64c-0.1-1.4,0.2-2.8,0.8-4c0.3-0.5,0.4-1.1,0.4-1.7v-1.5h-19.6c-1.7,0-3,1.3-3,3v19.6h-1.4
			c-0.6,0-1.2-0.1-1.8-0.4c-4.1-1.9-8.9-0.2-10.9,3.8c-1.9,4.1-0.2,8.9,3.8,10.9c2.1,1,4.6,1.1,6.8,0.1c0.5-0.2,1.1-0.4,1.6-0.4h1.7
			v19.1c0,1.7,1.3,3,3,3h53c1.4,0,2.5-1.1,2.5-2.4l0,0V59.2c0-1.4-1.1-2.5-2.4-2.5l0,0h-19.1v2.2c0,0.5,0.1,1,0.3,1.5
			c1.7,4.2-0.3,8.9-4.5,10.6c-1.1,0.4-2.2,0.6-3.4,0.6C294.9,71.4,291.6,68.2,291.3,64z"/>
	</g>
	<g id="freepik--Floor--inject-14">
		<path class="st4" d="M505.3,401.3c0,0.1-113.1,0.3-252.7,0.3S0,401.5,0,401.3s113.1-0.3,252.7-0.3S505.3,401.2,505.3,401.3z"/>
	</g>
	<g id="freepik--Plant--inject-14">
		<path class="st8" d="M426.4,375.1c3.1-1.4,6.5-1.9,9.8-1.2c1.8,0.2,3.5,0.9,4.9,2.2c1.2,1.3,1.4,3.7,0,4.9c-0.9,0.6-2,0.9-3.1,0.8
			c-2.6,0-5.5-0.5-7.6,1.1c-1.2,0.9-2,2.4-3.4,2.8c-1.5,0.3-3-0.3-3.7-1.6c-0.7-1.3-0.8-2.8-0.4-4.2
			C423.4,377.8,424.6,376.1,426.4,375.1z"/>
		<path class="st8" d="M419.5,361.9c1.8,2.6,5.4,1.8,7,0.1s2.3-3.9,3-6.1c1.5-5,2.9-10.3,1.8-15.5c-0.3-1.6-1-3-2-4.2
			c-1.1-1.2-2.7-1.7-4.2-1.4c-1.8,0.5-2.9,2.2-3.7,3.9c-2.4,4.9-3.6,10.3-3.6,15.8C417.7,357.1,418,359.8,419.5,361.9"/>
		<path class="st8" d="M414.5,365.7c1.9-2.5,2.5-5.8,1.5-8.8c-1-2.9-2.8-5.5-5.2-7.5c-2.7-2.4-5.9-4.3-9.3-5.5
			c-1.3-0.5-2.8-0.8-4.2-0.7c-1.4,0.1-2.8,0.9-3.5,2.1c-1,1.9,0,4.1,1,6c1.8,3.2,3.8,6.3,6.1,9.3c1.8,2.4,3.9,4.7,6.7,5.8
			s5.7,0.9,7.2-1"/>
		<path class="st4" d="M419.4,401.3c0.1-0.4,0.1-0.8,0.2-1.2c0.1-0.9,0.2-2,0.3-3.2c0.2-1.6,0.4-3.2,0.7-4.8c0.4-1.9,1-3.8,1.7-5.6
			c0.7-1.8,1.7-3.5,2.9-5.1c1-1.3,2.2-2.3,3.6-3c1-0.5,2-0.8,3.1-1c0.4,0,0.8-0.1,1.2-0.2c-0.4,0-0.8,0-1.2,0
			c-1.1,0.1-2.2,0.4-3.2,0.8c-1.5,0.7-2.8,1.7-3.8,3c-1.3,1.6-2.3,3.3-3,5.2c-0.7,1.8-1.3,3.8-1.7,5.7c-0.3,1.6-0.5,3.2-0.6,4.8
			c-0.1,1.4-0.1,2.5-0.2,3.3C419.3,400.5,419.3,400.9,419.4,401.3z"/>
		<path class="st4" d="M419.6,398.8c0-0.2,0-0.4,0-0.5v-1.6c0-1.4,0-3.4,0.1-5.8c0.1-4.9,0.5-10.1,1.3-17.6c0.8-7,1.8-15.1,2.9-20.4
			c0.2-1.2,0.5-2.3,0.7-3.2c0.2-0.9,0.4-1.8,0.6-2.4c0.2-0.7,0.3-1.1,0.4-1.5c0.1-0.2,0.1-0.4,0.1-0.5c-0.1,0.2-0.1,0.3-0.2,0.5
			c-0.1,0.4-0.3,0.9-0.5,1.5s-0.4,1.5-0.7,2.4c-0.2,0.9-0.5,2-0.8,3.2c-1.3,6.2-2.3,12.6-3,18.9c-0.8,7.4-1.2,14.2-1.2,19.1
			c0,2.5,0,4.4,0.1,5.8c0,0.6,0.1,1.2,0.1,1.6C419.6,398.5,419.6,398.7,419.6,398.8z"/>
		<path class="st4" d="M419.6,385.8c0-0.5,0-1.1,0-1.6c-0.1-1-0.2-2.6-0.5-4.5c-0.4-2.2-0.8-4.4-1.4-6.5c-0.7-2.6-1.6-5.2-2.7-7.7
			c-1.9-4.6-4.6-8.8-8-12.4c-0.6-0.6-1.2-1.2-1.9-1.8c-0.3-0.2-0.5-0.5-0.8-0.7l-0.7-0.5c-0.4-0.3-0.9-0.6-1.4-0.9
			c1.6,1.2,3.1,2.6,4.5,4c3.3,3.7,5.9,7.9,7.8,12.4c1.1,2.5,2,5,2.7,7.6c0.6,2.1,1.1,4.3,1.6,6.4c0.3,1.9,0.5,3.4,0.7,4.4
			C419.5,384.7,419.5,385.2,419.6,385.8z"/>
	</g>
</g>
</svg>
