<?xml version="1.0" encoding="utf-8"?>
<!-- Generator: Adobe Illustrator 22.0.1, SVG Export Plug-In . SVG Version: 6.00 Build 0)  -->
<svg version="1.1" id="Layer_1" xmlns="http://www.w3.org/2000/svg" xmlns:xlink="http://www.w3.org/1999/xlink" x="0px" y="0px"
	 viewBox="0 0 210 160" style="enable-background:new 0 0 210 160;" xml:space="preserve">
<style type="text/css">
	.st0{fill:url(#SVGID_1_);}
	.st1{fill:url(#SVGID_2_);}
	.st2{fill:url(#SVGID_3_);}
	.st3{fill:url(#SVGID_4_);}
	.st4{fill:url(#SVGID_5_);}
	.st5{fill:url(#SVGID_6_);}
</style>
<g>
	
		<linearGradient id="SVGID_1_" gradientUnits="userSpaceOnUse" x1="29.672" y1="491.576" x2="38.711" y2="481.071" gradientTransform="matrix(5 0 0 -5 -88 2486)">
		<stop  offset="0" style="stop-color:#E3E3E3"/>
		<stop  offset="1" style="stop-color:#E2E2E2"/>
	</linearGradient>
	<path class="st0" d="M197.4,160H12.6C5.6,160,0,154.4,0,147.4V12.6C0,5.6,5.6,0,12.6,0h184.8c6.9,0,12.6,5.6,12.6,12.6v134.8
		C210,154.4,204.4,160,197.4,160z"/>
	
		<linearGradient id="SVGID_2_" gradientUnits="userSpaceOnUse" x1="41.053" y1="479.759" x2="50.77" y2="467.557" gradientTransform="matrix(5 0 0 -5 -88 2486)">
		<stop  offset="0" style="stop-color:#F5F5F5"/>
		<stop  offset="3.000000e-02" style="stop-color:#EEEEEE"/>
		<stop  offset="1" style="stop-color:#EEEEEE"/>
	</linearGradient>
	<path class="st1" d="M197.4,160H25L210,15v132.4C210,154.4,204.4,160,197.4,160z"/>
	
		<linearGradient id="SVGID_3_" gradientUnits="userSpaceOnUse" x1="17.6" y1="481.2" x2="59.6" y2="481.2" gradientTransform="matrix(5 0 0 -5 -88 2486)">
		<stop  offset="0" style="stop-color:#D74A39"/>
		<stop  offset="1" style="stop-color:#C73D28"/>
	</linearGradient>
	<path class="st2" d="M12.6,0H25v160H12.6C5.6,160,0,154.4,0,147.4V12.6C0,5.6,5.6,0,12.6,0z M197.4,0H185v160h12.4
		c6.9,0,12.6-5.6,12.6-12.6V12.6C210,5.6,204.4,0,197.4,0z"/>
	
		<linearGradient id="SVGID_4_" gradientUnits="userSpaceOnUse" x1="38.6" y1="497.2" x2="38.6" y2="467.019" gradientTransform="matrix(5 0 0 -5 -88 2486)">
		<stop  offset="0" style="stop-color:#000000;stop-opacity:0.15"/>
		<stop  offset="1" style="stop-color:#000000;stop-opacity:3.000000e-02"/>
	</linearGradient>
	<path class="st3" d="M197.4,160h-59.9L0,17.4v-4.8C0,5.6,5.6,0,12.6,0h184.8c6.9,0,12.6,5.6,12.6,12.6v134.8
		C210,154.4,204.4,160,197.4,160z"/>
	
		<linearGradient id="SVGID_5_" gradientUnits="userSpaceOnUse" x1="17.6" y1="487.4705" x2="59.6" y2="487.4705" gradientTransform="matrix(5 0 0 -5 -88 2486)">
		<stop  offset="0" style="stop-color:#F5F5F5"/>
		<stop  offset="1" style="stop-color:#F5F5F5"/>
	</linearGradient>
	<path class="st4" d="M204.1,25.5L105,97.3L5.9,25.5C2.2,22.8,0,18.5,0,14v-1.4C0,5.6,5.6,0,12.6,0h184.8c6.9,0,12.6,5.6,12.6,12.6
		V14C210,18.5,207.8,22.8,204.1,25.5z"/>
	
		<linearGradient id="SVGID_6_" gradientUnits="userSpaceOnUse" x1="38.6" y1="496.754" x2="38.6" y2="477.389" gradientTransform="matrix(5 0 0 -5 -88 2486)">
		<stop  offset="0" style="stop-color:#E05141"/>
		<stop  offset="1" style="stop-color:#DE4735"/>
	</linearGradient>
	<path class="st5" d="M197.4,0h-1.5L105,65.9L14.1,0h-1.5C5.6,0,0,5.6,0,12.6V14c0,4.6,2.2,8.9,5.9,11.5L105,97.3l99.1-71.8
		c3.7-2.7,5.9-7,5.9-11.5v-1.4C210,5.6,204.4,0,197.4,0z"/>
</g>
</svg>
