<?xml version="1.0" encoding="utf-8"?>
<!-- Generator: Adobe Illustrator 22.0.1, SVG Export Plug-In . SVG Version: 6.00 Build 0)  -->
<svg version="1.1" id="Layer_1" xmlns="http://www.w3.org/2000/svg" xmlns:xlink="http://www.w3.org/1999/xlink" x="0px" y="0px"
	 viewBox="0 0 400 240" style="enable-background:new 0 0 400 240;" xml:space="preserve">
<style type="text/css">
	.st0{fill:#1565C0;}
</style>
<g>
	<path class="st0" d="M364.3,240c0,0,28.9-3.9,34.7-31.9c0.6-3.1,1-6.5,1-10.3c0-2.3-0.1-4.5-0.4-6.7c-4.3-31.6-38.5-38.7-38.5-38.7
		s6-34-25.4-51.8c-31.4-17.8-60.1,0-60.1,0s-16.8-34-62.2-34c-58.4,0-68.2,66.4-68.2,66.4S90,136.4,90,184.9
		c0,48.6,50.3,55.1,50.3,55.1L364.3,240L364.3,240z"/>
	<path class="st0" d="M70,184.9c0-43.9,32.9-63.2,58.8-69.4c9-29.5,33.8-68.8,84.6-68.8c0.1,0,0.1,0,0.2,0c0.1,0,0.1,0,0.2,0
		c35.2,0,57.1,16.5,68.9,29.5c6.5-1.9,14.5-3.4,23.5-3.4c0,0,0.1,0,0.1,0c0,0,0.1,0,0.1,0c0.2,0,0.4,0,0.6,0
		C307.3,70,300.6,0,220.1,0c-55,0-74.5,46.9-74.5,46.9s-39.9-29.7-80.9,11.3c-21.1,21-16.2,53.4-16.2,53.4S0,116.5,0,168.2
		C0,215.1,50.2,220,50.2,220h28.1C73.2,210.4,70,198.9,70,184.9z"/>
</g>
</svg>
