<?xml version="1.0" encoding="utf-8"?>
<!-- Generator: Adobe Illustrator 22.0.1, SVG Export Plug-In . SVG Version: 6.00 Build 0)  -->
<svg version="1.1" id="Layer_1" xmlns="http://www.w3.org/2000/svg" xmlns:xlink="http://www.w3.org/1999/xlink" x="0px" y="0px"
	 viewBox="0 0 420.7 246.5" style="enable-background:new 0 0 420.7 246.5;" xml:space="preserve">
<style type="text/css">
	.st0{fill:#0288D1;}
</style>
<g>
	<path class="st0" d="M226.4,75.8c-30.7,0-58.2,18.5-72.8,45.4c-12.9-26.9-40.4-45.4-72.8-45.4c-17.7,0-35.5,6.6-48.5,16.8V16.9l0,0
		C32.4,8.5,24.2,0,16.2,0C6.5,0,0,6.7,0,16.9l0,0v144.7l0,0c0,45.4,37.2,84.2,80.8,84.2c30.7,0,58.2-18.6,72.8-45.5
		c14.6,26.9,40.4,45.5,72.8,45.5c45.3,0,80.8-38.8,80.8-84.2C307.2,114.4,271.7,75.8,226.4,75.8 M80.8,212.1
		c-27.5,0-48.5-23.5-48.5-50.5C32.4,133,55,111,80.8,111s48.5,23.7,48.5,50.6C131,188.5,108.3,212.1,80.8,212.1z M226.4,212.1
		c-27.5,0-48.5-23.5-48.5-50.5c0-28.6,22.7-50.6,48.5-50.6c27.5,0,48.5,23.7,48.5,50.6C274.9,188.5,252.2,212.1,226.4,212.1z"/>
	<path class="st0" d="M417.9,220.1l-42.5-58.9l42.5-58.9l0,0c4.9-6.8,3.3-18.6-3.3-23.5c-6.5-5-17.9-3.4-22.9,3.2l0,0l-35.9,50.6
		l-36-50.6l0,0c-4.9-6.6-16.4-8.3-22.9-3.2c-6.6,5-8.2,16.8-3.3,23.5l0,0l42.5,58.9l-42.5,58.9l0,0c-4.9,6.6-3.3,18.5,3.3,23.5
		c6.5,5.1,18,3.4,22.9-3.4l0,0l36-50.4l35.9,50.4l0,0c4.9,6.8,16.4,8.5,22.9,3.4C421.2,238.5,422.8,226.7,417.9,220.1L417.9,220.1"
		/>
</g>
</svg>
