<?xml version="1.0" encoding="utf-8"?>
<!-- Generator: Adobe Illustrator 22.0.1, SVG Export Plug-In . SVG Version: 6.00 Build 0)  -->
<svg version="1.1" id="Layer_1" xmlns="http://www.w3.org/2000/svg" xmlns:xlink="http://www.w3.org/1999/xlink" x="0px" y="0px"
	 viewBox="0 0 360 347.5" style="enable-background:new 0 0 360 347.5;" xml:space="preserve">
<style type="text/css">
	.st0{fill:#1E88E5;}
</style>
<g>
	<path class="st0" d="M360,67.2L253.8,0L180,60.6l110.3,64.2L360,67.2z M0,183.9L109.3,248l70.7-54.2L75.3,127.1L0,183.9z M109.3,0
		L0,70.5l75.3,56.7L180,60.6L109.3,0z M180,193.8l72.1,54.2L360,183.9l-69.7-59.1L180,193.8z"/>
	<path class="st0" d="M262,265.2l-11.5,6.8l-10.7-8l-59.8-45l-58.4,44.8l-10.6,8.2l-11.6-6.8L70,248.1v26.7l109.9,72.6L290,275.4
		v-26.8L262,265.2z"/>
</g>
</svg>
