<?xml version="1.0" encoding="utf-8"?>
<!-- Generator: Adobe Illustrator 22.0.1, SVG Export Plug-In . SVG Version: 6.00 Build 0)  -->
<svg version="1.1" id="Layer_1" xmlns="http://www.w3.org/2000/svg" xmlns:xlink="http://www.w3.org/1999/xlink" x="0px" y="0px"
	 viewBox="0 0 401.3 403" style="enable-background:new 0 0 401.3 403;" xml:space="preserve">
<style type="text/css">
	.st0{fill:#FFFFFF;}
	.st1{fill:#CFD8DC;}
	.st2{fill:#40C351;}
</style>
<g>
	<path class="st0" d="M10,393l26.9-98.4c-16.6-28.8-25.4-61.4-25.4-94.9C11.6,95.1,96.8,10,201.5,10c50.8,0,98.5,19.8,134.3,55.7
		c35.8,35.9,55.6,83.6,55.6,134.3c0,104.6-85.2,189.8-189.9,189.8c0,0,0,0,0,0h-0.1c-31.8,0-63-8-90.7-23.1L10,393z"/>
	<path class="st0" d="M10,398c-1.3,0-2.6-0.5-3.6-1.5c-1.2-1.3-1.7-3.1-1.3-4.8l26.4-96.4c-16.4-29.1-25-62.1-25-95.6
		C6.6,92.4,94.1,5,201.5,5c52.1,0,101,20.3,137.8,57.1c36.8,36.8,57,85.8,57,137.8c0,107.4-87.5,194.8-194.9,194.8
		c-31.9,0-63.4-7.9-91.4-22.8l-98.8,25.9C10.9,398,10.4,398,10,398z"/>
	<path class="st1" d="M201.5,10c50.8,0,98.5,19.8,134.3,55.7c35.8,35.9,55.6,83.6,55.6,134.3c0,104.6-85.2,189.8-189.9,189.8h-0.1
		c-31.8,0-63-8-90.7-23.1L10,393l26.9-98.4c-16.6-28.8-25.4-61.4-25.4-94.9C11.6,95.1,96.8,10,201.5,10 M201.5,389.7L201.5,389.7
		L201.5,389.7 M201.5,389.7L201.5,389.7L201.5,389.7 M201.5,0L201.5,0C91.3,0,1.6,89.6,1.6,199.8c0,33.7,8.5,66.8,24.6,96.2
		L0.4,390.4c-0.9,3.5,0,7.1,2.5,9.7c1.9,1.9,4.5,3,7.1,3c0.9,0,1.7-0.1,2.5-0.3l96.9-25.4c28.3,14.7,60,22.4,92,22.4
		c110.2,0,199.9-89.6,199.9-199.8c0-53.4-20.8-103.6-58.5-141.4C305.1,20.8,254.9,0,201.5,0L201.5,0z"/>
	<path class="st2" d="M313.1,88.3c-29.8-29.8-69.4-46.2-111.6-46.3c-87,0-157.8,70.8-157.9,157.7c0,29.8,8.3,58.8,24.1,84l3.8,6
		l-16,58.2l59.7-15.7l5.8,3.4c24.2,14.4,52,22,80.3,22h0.1c87,0,157.8-70.8,157.8-157.8C359.3,157.8,342.9,118.1,313.1,88.3z"/>
	<path class="st0" d="M154,120.4c-3.6-7.9-7.3-8.1-10.7-8.2c-2.8-0.1-5.9-0.1-9.1-0.1s-8.3,1.2-12.6,5.9
		c-4.4,4.8-16.6,16.2-16.6,39.6s17,45.9,19.4,49.1c2.4,3.2,32.8,52.6,81,71.6c40.1,15.8,48.2,12.7,56.9,11.9s28.1-11.5,32-22.6
		s4-20.6,2.8-22.6c-1.2-2-4.4-3.2-9.1-5.5s-28.1-13.9-32.4-15.4c-4.3-1.6-7.5-2.4-10.7,2.4c-3.2,4.7-12.2,15.4-15,18.6
		c-2.8,3.2-5.5,3.6-10.3,1.2c-4.7-2.4-20-7.4-38.2-23.5c-14.1-12.6-23.6-28.1-26.4-32.9c-2.8-4.7-0.3-7.3,2.1-9.7
		c2.1-2.1,4.7-5.5,7.1-8.3c2.4-2.8,3.2-4.8,4.7-7.9c1.6-3.2,0.8-5.9-0.4-8.3C167.4,153.3,158.2,129.8,154,120.4z"/>
</g>
</svg>
