<?xml version="1.0" encoding="utf-8"?>
<!-- Generator: Adobe Illustrator 22.0.1, SVG Export Plug-In . SVG Version: 6.00 Build 0)  -->
<svg version="1.1" id="Layer_1" xmlns="http://www.w3.org/2000/svg" xmlns:xlink="http://www.w3.org/1999/xlink" x="0px" y="0px"
	 viewBox="0 0 512 499.2" style="enable-background:new 0 0 512 499.2;" xml:space="preserve">
<style type="text/css">
	.st0{fill:#FF3500;}
	.st1{fill:#250000;}
	.st2{fill:#FED9D5;}
</style>
<g>
	<path class="st0" d="M93.9,0h326C470.5,0,512,41.5,512,92.1v315c0,50.7-41.5,92.1-92.1,92.1H92.1C41.5,499.2,0,457.7,0,407.1V93.9
		C0,42.1,42.1,0,93.9,0"/>
	<path class="st1" d="M98.1,21.3h317.5c41.5,0,75.1,33.6,75.1,75.1v306.4c0,41.5-33.6,75.1-75.1,75.1H96.4
		c-41.5,0-75.1-33.6-75.1-75.1V98.1C21.3,55.5,55.5,21.3,98.1,21.3"/>
	<g>
		<polygon class="st0" points="138.1,218.1 182.2,218.1 182.2,269.7 160.1,302.7 138.1,269.7 		"/>
		<path class="st2" d="M370.4,273.3c-13.3-4.1-45.1,2.1-54.3,5.3c33-47.2-14-19.2-35.1-9c8.7-16.6,26.5-45.3-8.2-35.8
			c95.8-141.1-85.4-43.5-62.4-4.7c3.2,3.7,11.6,11.2,15.2,4.3c2.8-5.6-7.1-6.6-8.7-10.7c-1-12.1,12.6-21.6,20.4-29.3
			c13.4-13.2,72.9-47,50.2-1.9c-7.6,16-17.4,30.6-27.2,45.3c-1.9,2.9-4.3,4.7-7.3,6.2c-21.2,11.1-43.4,24.2-55.9,45.4
			c-7.9,14.3,6.4,24,19,16.2c18.1-12.6,30.9-34.6,43.7-52.1c1.7-2.5,14.3-8.7,24.6-11.6c0.3,3.5-14.1,28.6-20.8,38.4
			c-1.6,2.3-4,4.7-1.4,7.6c2.8,3.2,5.6,1.1,8.2-0.5c12.6-7.6,25.6-14.7,38.9-21c4.3-2.3,7.3-1.8,3.1,2.9c-4,7-11,12.5-14.1,19.9
			c0.7,5.7,6.1,4.3,9.9,2.4c10.1-3.2,20.2-6.2,30.6-8.5c9.2-2,18.9-2.9,28.3-1C375.4,284.8,380.1,276,370.4,273.3z M207.6,299.1
			c-18.6-2.8,29-38.6,35.9-39.9c-8.2,11.3-15.7,23.3-26.1,32.9C214.7,294.8,211.6,298.4,207.6,299.1z M348.1,274.2
			C348.1,274.2,348.1,274.2,348.1,274.2C348.1,274.2,348.1,274.2,348.1,274.2C348.1,274.2,348.1,274.2,348.1,274.2z M365.4,274.1
			c0,0,0.1,0,0.1,0c-0.3,0-0.6,0.1-0.9,0.1C364.9,274.2,365.2,274.1,365.4,274.1z"/>
		<polygon class="st0" points="136.2,326.3 136.2,338.8 374.8,339.2 374.8,326.3 		"/>
	</g>
</g>
</svg>
