<?xml version="1.0" encoding="utf-8"?>
<!-- Generator: Adobe Illustrator 22.0.1, SVG Export Plug-In . SVG Version: 6.00 Build 0)  -->
<svg version="1.1" id="Layer_1" xmlns="http://www.w3.org/2000/svg" xmlns:xlink="http://www.w3.org/1999/xlink" x="0px" y="0px"
	 viewBox="0 0 320 420" style="enable-background:new 0 0 320 420;" xml:space="preserve">
<style type="text/css">
	.st0{fill:#2196F3;}
	.st1{fill:#BBDEFB;}
	.st2{fill:#1565C0;}
	.st3{fill:#E3F2FD;}
</style>
<g>
	<path class="st0" d="M290,420H30c-16.6,0-30-13.4-30-30V30C0,13.4,13.4,0,30,0h190l100,100v290C320,406.6,306.6,420,290,420z"/>
	<path class="st1" d="M320,100H220V0L320,100z"/>
	<path class="st2" d="M220,100l100,100V100H220z"/>
	<path class="st3" d="M70,200h180v20H70V200z M70,240h180v20H70V240z M70,280h180v20H70V280z M70,320h100v20H70V320z"/>
</g>
</svg>
