<?xml version="1.0" encoding="utf-8"?>
<!-- Generator: Adobe Illustrator 22.0.1, SVG Export Plug-In . SVG Version: 6.00 Build 0)  -->
<svg version="1.1" id="mdi-facebook-workplace" xmlns="http://www.w3.org/2000/svg" xmlns:xlink="http://www.w3.org/1999/xlink"
	 x="0px" y="0px" viewBox="0 0 57.2 60.8" style="enable-background:new 0 0 57.2 60.8;" xml:space="preserve">
<path d="M51.7,42.9c-0.8,0.9-2.2,2.4-4.6,2.4c-3.2,0-4.3-2.3-5.3-4.8L37,28.6l-4.9,11.9c-0.8,2-1.7,4.8-5.3,4.8s-4.4-2.8-5.3-4.8
	l-8.1-20.1h6.9L26.9,37l4.9-12.1c0.8-1.9,1.7-4.8,5.2-4.8c3.5,0,4.4,2.9,5.2,4.8L47.6,38c2.7-4.1,3.9-9.1,3.2-14
	c-0.7-4.9-3.1-9.4-6.8-12.6c-3.7-3.3-8.5-5.1-13.4-5.1c-5.1,0-10.1,1.6-14.3,4.6c-4.1,3-7.2,7.2-8.7,12.1s-1.6,10.1,0,15
	s4.7,9.1,8.8,12.1c4.2,3,9.1,4.6,14.2,4.6c2.2,0,4.4-0.3,6.5-0.9V60c-2.2,0.5-4.3,0.8-6.5,0.8c-6.4,0-12.7-2-17.9-5.8
	S3.5,45.9,1.5,39.8c-2-6.1-2-12.7,0-18.8c2-6.1,5.9-11.4,11.1-15.2C17.8,2,24.1,0,30.5,0c14.7,0,26.7,12,26.7,26.7
	C57.2,32.5,55.3,38.2,51.7,42.9L51.7,42.9z"/>
</svg>
