<?xml version="1.0" encoding="UTF-8"?>
<svg width="105px" height="31px" viewBox="0 0 105 31" version="1.1" xmlns="http://www.w3.org/2000/svg" xmlns:xlink="http://www.w3.org/1999/xlink">
    <!-- Generator: sketchtool 58 (101010) - https://sketch.com -->
    <title>323DDF84-B02B-4DEE-AF17-C8C10BC18617</title>
    <desc>Created with sketchtool.</desc>
    <defs>
        <polygon id="path-1" points="14.6177398 20.0339884 0.00793464518 20.0339884 0.00793464518 0.0360989793 14.6177398 0.0360989793"></polygon>
        <polygon id="path-3" points="0.133563487 0.00755999563 27.8150465 0.00755999563 27.8150465 29.442214 0.133563487 29.442214"></polygon>
    </defs>
    <g id="Final" stroke="none" stroke-width="1" fill="none" fill-rule="evenodd">
        <g id="Integration" transform="translate(-365.000000, -418.000000)">
            <g id="guidelines_the-logo" transform="translate(365.583333, 418.000000)">
                <g id="--Marketing/Logos/HubSpot-Primary" transform="translate(0.264706, 0.000000)">
                    <g id="Marketing/Logos/HubSpot-Primary" transform="translate(0.000000, 0.010850)">
                        <polygon id="Fill-1" fill="#33475B" fill-rule="nonzero" points="11.2404866 5.0955769 11.2404866 13.517034 3.6191295 13.517034 3.6191295 5.0955769 0.000111755566 5.0955769 0.000111755566 25.1968493 3.6191295 25.1968493 3.6191295 17.050198 11.2404866 17.050198 11.2404866 25.1968493 14.8591318 25.1968493 14.8591318 5.0955769"></polygon>
                        <path d="M26.4392809,18.6998646 C26.4392809,20.3740257 25.0956063,21.7363369 23.4460941,21.7363369 C21.795837,21.7363369 20.4529077,20.3740257 20.4529077,18.6998646 L20.4529077,10.0901636 L17.0253644,10.0901636 L17.0253644,18.6998646 C17.0253644,22.2916186 19.9060504,25.213557 23.4460941,25.213557 C26.9853929,25.213557 29.865334,22.2916186 29.865334,18.6998646 L29.865334,10.0901636 L26.4392809,10.0901636 L26.4392809,18.6998646 Z" id="Fill-2" fill="#33475B" fill-rule="nonzero"></path>
                        <path d="M51.8694832,10.9767243 C51.8694832,9.21146532 53.0209383,8.65202564 54.2819135,8.65202564 C55.2966541,8.65202564 56.6399559,9.43561918 57.5161197,10.3881786 L59.763524,7.70022218 C58.6407532,6.16025107 56.3654097,5.0958037 54.5009544,5.0958037 C50.7724161,5.0958037 48.0858124,7.30823641 48.0858124,10.9767243 C48.0858124,17.7810984 56.2834557,15.6242316 56.2834557,19.4337134 C56.2834557,20.6085367 55.1595673,21.6453901 53.8713981,21.6453901 C51.8422895,21.6453901 51.1836766,20.6372647 50.2520078,19.5731953 L47.7568784,22.2048298 C49.3475328,24.1931086 51.3211359,25.2019901 53.6788061,25.2019901 C57.2154971,25.2019901 60.0667541,22.9615854 60.0667541,19.4605514 C60.0667541,11.9001778 51.8694832,14.2528484 51.8694832,10.9767243" id="Fill-4" fill="#33475B" fill-rule="nonzero"></path>
                        <path d="M102.583302,21.985968 C100.555684,21.985968 99.9801427,21.0961565 99.9801427,19.7327113 L99.9801427,13.6960547 L103.132022,13.6960547 L103.132022,10.6365245 L99.9801427,10.6365245 L99.9801427,6.60213282 L96.4989569,8.1878419 L96.4989569,20.4837968 C96.4989569,23.6276211 98.6364683,25.213708 101.568934,25.213708 C102.007761,25.213708 102.611241,25.1849802 102.940548,25.1025761 L103.790635,21.931158 C103.406941,21.957996 102.968486,21.985968 102.583302,21.985968" id="Fill-6" fill="#33475B" fill-rule="nonzero"></path>
                        <path d="M39.4810436,21.7026193 C37.3275137,21.7026193 35.5815193,19.9309343 35.5815193,17.7457176 C35.5815193,15.5605009 37.3275137,13.7888159 39.4810436,13.7888159 C41.6345734,13.7888159 43.3805678,15.5605009 43.3805678,17.7457176 C43.3805678,19.9309343 41.6345734,21.7026193 39.4810436,21.7026193 M39.5026496,10.191014 C37.8024751,10.191014 36.6163758,10.6918637 35.4701362,11.833045 L35.4701362,5.21578082 L32.0321627,5.21578082 L32.0321627,17.4796058 C32.0321627,22.0696571 35.3025031,25.2134812 38.9773985,25.2134812 C43.062437,25.2134812 46.6419677,22.0137131 46.6419677,17.7026256 C46.6419677,13.4459701 43.3410808,10.191014 39.5026496,10.191014" id="Fill-8" fill="#33475B" fill-rule="nonzero"></path>
                        <g id="Group-12" transform="translate(62.210598, 9.974420)">
                            <g id="Fill-10-Clipped">
                                <mask id="mask-2" fill="white">
                                    <use xlink:href="#path-1"></use>
                                </mask>
                                <g id="path-1"></g>
                                <path d="M7.45718815,11.4607644 C5.30328587,11.4607644 3.55729143,9.68907942 3.55729143,7.50386268 C3.55729143,5.31864594 5.30328587,3.54696096 7.45718815,3.54696096 C9.61034539,3.54696096 11.3563399,5.31864594 11.3563399,7.50386268 C11.3563399,9.68907942 9.61034539,11.4607644 7.45718815,11.4607644 M14.6177398,7.54695464 C14.6177398,3.23586714 11.038209,0.0360989793 6.95317055,0.0360989793 C3.27827503,0.0360989793 0.00793464518,3.17992316 0.00793464518,7.76997452 L0.00793464518,20.0341774 L3.44590837,20.0341774 L3.44590837,13.4165353 C4.59214797,14.5580946 5.77824704,15.0589443 7.47842171,15.0589443 C11.3168529,15.0589443 14.6177398,11.8036102 14.6177398,7.54695464" id="Fill-10" fill="#33475B" fill-rule="nonzero" mask="url(#mask-2)"></path>
                            </g>
                        </g>
                        <g id="Group-15" transform="translate(66.532392, 0.146426)">
                            <g id="Fill-13-Clipped">
                                <mask id="mask-4" fill="white">
                                    <use xlink:href="#path-3"></use>
                                </mask>
                                <g id="path-3"></g>
                                <path d="M20.242862,21.2184508 C18.0986452,21.2184508 16.3604736,19.4547038 16.3604736,17.279315 C16.3604736,15.1035483 18.0986452,13.3398013 20.242862,13.3398013 C22.3870788,13.3398013 24.1252504,15.1035483 24.1252504,17.279315 C24.1252504,19.4547038 22.3870788,21.2184508 20.242862,21.2184508 M21.4051198,9.69512739 L21.4051198,6.19069143 C22.3066147,5.75863767 22.9380336,4.83329421 22.9380336,3.75939684 L22.9380336,3.67850487 C22.9380336,2.19636773 21.7429942,0.983744432 20.2823489,0.983744432 L20.2030025,0.983744432 C18.7423572,0.983744432 17.5473177,2.19636773 17.5473177,3.67850487 L17.5473177,3.75939684 C17.5473177,4.83329421 18.1787366,5.75901569 19.0802316,6.19106942 L19.0802316,9.69512739 C17.7380472,9.90567328 16.5117161,10.467381 15.5003283,11.2940665 L6.01786848,3.8092928 C6.08045161,3.56548294 6.12440881,3.31449109 6.12478131,3.05064724 C6.12627139,1.37232821 4.78743971,0.00963899444 3.13271229,0.00736902664 C1.47872992,0.00548099684 0.13542802,1.36439021 0.133563486,3.04308724 C0.131702835,4.72178427 1.47053451,6.08447348 3.12526192,6.0863635 C3.66429627,6.08711948 4.16347113,5.93176157 4.60080791,5.67925773 L13.9283,13.0423155 C13.135208,14.2572068 12.6703048,15.7125059 12.6703048,17.279315 C12.6703048,18.9194561 13.1810277,20.4367472 14.0437807,21.6845245 L11.2074244,24.5629927 C10.9831683,24.4945748 10.7507167,24.446947 10.5041094,24.446947 C9.14478922,24.446947 8.04250682,25.5650703 8.04250682,26.9443915 C8.04250682,28.3240908 9.14478922,29.442214 10.5041094,29.442214 C11.8638022,29.442214 12.965712,28.3240908 12.965712,26.9443915 C12.965712,26.6949116 12.9187747,26.4586617 12.8513488,26.2311059 L15.6571586,23.3840114 C16.9307995,24.3702129 18.5169835,24.9629165 20.242862,24.9629165 C24.4251278,24.9629165 27.8150465,21.5227406 27.8150465,17.279315 C27.8150465,13.4377032 25.033823,10.2640171 21.4051198,9.69512739" id="Fill-13" fill="#FF7A59" fill-rule="nonzero" mask="url(#mask-4)"></path>
                            </g>
                        </g>
                    </g>
                </g>
            </g>
        </g>
    </g>
</svg>